<svg width="32" height="33" viewBox="0 0 32 33" fill="none" xmlns="http://www.w3.org/2000/svg">
<path d="M27.5664 16.4996C27.5664 20.9014 24.6462 24.4639 21.9258 26.8443C20.5467 28.051 19.1718 28.9956 18.1436 29.6383C17.6285 29.9602 17.1974 30.2074 16.8936 30.3756C16.7419 30.4595 16.6217 30.5241 16.5381 30.568C16.4963 30.5899 16.4632 30.6071 16.4404 30.6187C16.4293 30.6245 16.4204 30.6292 16.4141 30.6324C16.411 30.634 16.4081 30.6354 16.4063 30.6363C16.4053 30.6367 16.4039 30.637 16.4033 30.6373L16.4023 30.6383C16.1491 30.7648 15.8509 30.7647 15.5977 30.6383L16 29.8336L15.5967 30.6383L15.5957 30.6373L15.5586 30.6187C15.5358 30.6071 15.5033 30.5897 15.4619 30.568C15.3783 30.524 15.2572 30.4596 15.1055 30.3756C14.8018 30.2074 14.3711 29.9599 13.8564 29.6383C12.8282 28.9956 11.4522 28.0509 10.0732 26.8443C7.35291 24.4639 4.43262 20.9012 4.43262 16.4996L4.43262 7.16659C4.43275 6.79174 4.66571 6.45564 5.0166 6.32382L15.6836 2.32382L15.8398 2.28085C15.9982 2.25227 16.1628 2.26673 16.3154 2.32382L26.9824 6.32382C27.3336 6.45552 27.5663 6.79157 27.5664 7.16659L27.5664 16.4996ZM15.999 4.12753L6.2334 7.78964L6.2334 16.4996C6.2334 20.0975 8.64615 23.2026 11.2588 25.4889C12.5461 26.6152 13.838 27.5046 14.8096 28.1119C15.2943 28.4148 15.698 28.6466 15.9775 28.8014C15.9846 28.8053 15.9921 28.8093 15.999 28.8131C16.0065 28.809 16.0148 28.8056 16.0225 28.8014C16.3019 28.6466 16.7047 28.4149 17.1895 28.1119C18.1611 27.5046 19.4527 26.6154 20.7402 25.4889C23.3531 23.2026 25.7666 20.0977 25.7666 16.4996L25.7666 7.78964L15.999 4.12753Z" fill="white"/>
</svg>
