<svg width="24" height="24" viewBox="0 0 24 24" fill="none" xmlns="http://www.w3.org/2000/svg">
<path d="M11.8956 11.3376C11.9009 11.3353 11.9061 11.3325 11.9114 11.3302C11.9278 11.3483 11.9456 11.3658 11.9614 11.3839C12.4455 11.9443 12.9297 12.5041 13.4126 13.0656C13.4619 13.1232 13.5185 13.1514 13.6027 13.1497C13.7619 13.1463 13.9211 13.1497 14.0803 13.1486C14.2046 13.1475 14.2572 13.1012 14.2572 12.9934C14.2572 12.047 14.2572 11.1 14.2572 10.1536C14.2572 10.0475 14.2033 10.0018 14.077 10.0012C13.923 10.0006 13.7698 10.0012 13.6158 10.0012C13.4566 10.0012 13.4132 10.0384 13.4132 10.1773C13.4132 10.6976 13.4132 11.2174 13.4132 11.7377C13.4132 11.7642 13.4231 11.7936 13.3974 11.8229C13.3724 11.7947 13.3501 11.771 13.3284 11.7462C12.8514 11.1937 12.3738 10.6412 11.8982 10.087C11.8469 10.0272 11.789 9.99838 11.7015 10.0001C11.5483 10.0035 11.3943 10.0006 11.2404 10.0012C11.1036 10.0012 11.0509 10.0452 11.0509 10.1603C11.0509 11.1045 11.0509 12.0492 11.0509 12.9934C11.0509 13.1012 11.1049 13.148 11.2279 13.1492C11.393 13.1503 11.5575 13.1503 11.7226 13.1492C11.8423 13.148 11.8956 13.1017 11.8956 12.9985C11.8962 12.8427 11.8956 12.6869 11.8956 12.5312C11.8956 12.1333 11.8956 11.7349 11.8956 11.3376ZM14.7802 11.5763C14.7802 12.0487 14.7802 12.5205 14.7802 12.9928C14.7802 13.1001 14.8341 13.1486 14.9578 13.1486C15.6617 13.1492 16.3662 13.1492 17.0701 13.1486C17.1958 13.1486 17.2484 13.1034 17.249 12.9957C17.2504 12.8613 17.249 12.727 17.249 12.5927C17.249 12.4652 17.2017 12.424 17.055 12.424C16.6109 12.424 16.1663 12.4228 15.7222 12.4251C15.6525 12.4251 15.6222 12.4149 15.6268 12.3478C15.6341 12.2355 15.6327 12.1226 15.6268 12.0097C15.6235 11.9476 15.6492 11.9352 15.717 11.9352C16.1669 11.9375 16.6169 11.9369 17.0668 11.9364C17.1971 11.9364 17.249 11.8918 17.2497 11.7795C17.2504 11.6525 17.2497 11.5255 17.2497 11.3985C17.2497 11.2467 17.2089 11.2112 17.0339 11.2112C16.5952 11.2112 16.1564 11.21 15.7176 11.2123C15.6499 11.2123 15.6235 11.1999 15.6268 11.1378C15.6327 11.03 15.6334 10.9217 15.6268 10.8144C15.6229 10.7473 15.642 10.7253 15.7262 10.7258C16.1649 10.7298 16.6037 10.7275 17.0425 10.7275C17.2017 10.7275 17.249 10.6875 17.2497 10.5537C17.2497 10.4267 17.2497 10.2997 17.2497 10.1728C17.2497 10.0413 17.203 10.0006 17.0497 10.0006C16.3597 10.0006 15.6696 10.0006 14.9795 10.0006C14.8289 10.0006 14.7809 10.0424 14.7802 10.1739C14.7802 10.6412 14.7802 11.1085 14.7802 11.5763ZM6.75 11.5712C6.75 12.0408 6.75 12.5109 6.75 12.9804C6.75 13.1029 6.80065 13.148 6.9388 13.148C7.63742 13.148 8.33604 13.148 9.03466 13.148C9.16886 13.148 9.22017 13.1023 9.22083 12.9855C9.22149 12.8534 9.22149 12.7219 9.22083 12.5899C9.22083 12.4652 9.17018 12.4234 9.02282 12.4234C8.58141 12.4234 8.14001 12.4217 7.6986 12.4251C7.61834 12.4257 7.59663 12.4087 7.59729 12.3387C7.60058 11.6175 7.59927 10.8957 7.59927 10.1745C7.59927 10.043 7.55059 10.0006 7.39994 10.0006C7.25193 10.0006 7.10392 10.0006 6.9559 10.0006C6.79736 10.0006 6.75132 10.0407 6.75066 10.1761C6.75066 10.6412 6.75 11.1062 6.75 11.5712ZM9.68066 11.5684C9.68066 12.0425 9.68066 12.5171 9.68066 12.9911C9.68066 13.1029 9.73262 13.1475 9.86353 13.148C10.0254 13.1486 10.1872 13.1492 10.3497 13.148C10.4701 13.1469 10.524 13.1017 10.5273 12.9996C10.5293 12.9279 10.5273 12.8557 10.5273 12.784C10.5273 11.9166 10.5273 11.0498 10.5273 10.1824C10.5273 10.0379 10.4826 10.0001 10.3128 10.0001C10.1675 10.0001 10.0227 10.0001 9.87735 10.0001C9.72868 10.0001 9.68 10.0413 9.68 10.1666C9.68 10.6338 9.68 11.1006 9.68 11.5678L9.68066 11.5684Z" fill="#5E5E5E"/>
<path d="M12.0645 4.7002C13.7811 4.7145 15.4362 5.11296 16.9502 6.00195H16.9512C18.0851 6.66777 18.9901 7.52791 19.6133 8.64648C20.0893 9.50062 20.3228 10.4047 20.2979 11.3691C20.2802 12.0647 20.089 12.7377 19.7744 13.4111C19.3338 14.3542 18.7161 15.1961 17.9805 15.9814C16.5022 17.5584 14.7778 18.812 12.8271 19.7734C12.4863 19.9412 12.241 20.0767 11.9639 20.1875C11.9697 20.154 11.9773 20.1222 11.9814 20.0947C12.0109 19.8979 12.0849 19.5406 12.0859 19.2061V19.2041C12.0859 18.9379 12.0373 18.6393 11.8516 18.3691C11.7127 18.1671 11.5317 18.0301 11.3447 17.9336L11.1572 17.8496C10.7258 17.6815 10.2483 17.6199 9.94043 17.5625H9.93945C7.9531 17.1909 6.29724 16.3067 5.02051 14.7852L5.01953 14.7842C4.30128 13.9302 3.86606 12.9582 3.7373 11.8613C3.60224 10.7106 3.8312 9.63273 4.40625 8.61328H4.40723C5.01249 7.53963 5.8834 6.70739 6.96875 6.05078C7.95773 5.45243 9.0262 5.06731 10.168 4.86426L10.6621 4.78809C11.1001 4.73063 11.5471 4.70474 12.0645 4.7002Z" stroke="#5E5E5E" stroke-width="1.4"/>
</svg>
