<svg width="2065" height="701" viewBox="0 0 2065 701" fill="none" xmlns="http://www.w3.org/2000/svg">
<g opacity="0.05">
<path d="M164.786 691.177C152.818 695.669 129.465 701.888 95.3125 699.7C104.799 670.676 110.199 640.386 111.075 609.289C116.767 608.253 122.167 606.756 127.129 604.913L164.786 691.177Z" fill="white"/>
<path d="M157.85 585.224C159.017 583.957 159.894 582.691 160.916 581.539C162.959 579.005 164.564 576.587 165.878 574.283C168.359 574.514 170.986 574.859 173.467 575.32C174.635 575.55 175.656 575.665 176.678 575.78C179.013 576.011 181.348 576.241 183.683 576.356C184.997 576.587 186.165 576.702 187.478 576.702C189.814 576.932 192.002 577.047 194.338 577.163C197.695 577.278 201.052 577.393 204.117 577.393C208.058 577.393 211.853 577.278 215.502 576.932C216.377 577.047 217.398 576.932 218.128 576.817C220.901 576.702 223.529 576.356 226.156 575.895C230.097 575.435 233.746 574.629 237.395 573.822C239 573.592 240.605 573.246 242.21 572.555C244.4 572.095 246.588 571.404 248.631 570.598L311.83 662.62C300.008 674.483 264.541 701.318 196.381 686.691L154.055 589.255C155.66 587.873 156.974 586.491 158.142 585.224H157.85Z" fill="white"/>
<path d="M274.991 555.546C277.18 553.703 279.37 551.515 281.267 549.327C285.5 544.605 289.003 539.192 291.922 533.203C292.359 532.627 292.651 531.821 292.942 531.13C293.964 529.057 294.694 526.753 295.278 524.565C295.57 524.104 295.717 523.528 295.863 523.067H301.263C306.079 523.067 310.603 522.952 315.127 522.722C319.36 522.607 323.885 522.261 327.971 521.801C328.555 521.801 329.285 521.685 329.869 521.57C333.518 521.34 337.166 520.764 340.669 520.303C345.631 519.612 350.301 518.691 354.68 517.539H354.826L473.047 622.346H472.903C458.161 635.475 418.607 661.044 340.377 652.175H340.231L274.406 556.352C274.406 556.352 274.991 555.891 275.137 555.661L274.991 555.546Z" fill="white"/>
<path d="M391.416 503.383C393.605 502.116 395.649 500.734 397.546 499.352C405.282 493.939 410.973 488.18 415.06 482.306C415.79 481.155 416.666 480.233 417.249 479.081C419.439 475.741 421.044 472.632 422.357 469.522H422.942C428.926 469.407 434.619 469.177 440.165 468.601C442.062 468.601 443.814 468.486 445.565 468.14C447.171 468.025 448.629 467.91 449.943 467.68C451.986 467.449 454.176 467.219 456.219 466.643C458.263 466.413 460.16 466.067 462.058 465.491H462.204L658.801 582.506C638.951 595.521 591.079 617.288 501.318 609.802L385.141 506.838C387.33 505.686 389.226 504.65 391.269 503.383H391.416Z" fill="white"/>
<path d="M516.885 441.293C518.345 440.256 519.511 439.22 520.971 438.068C527.101 432.885 532.21 427.242 536.442 421.714C537.172 420.677 537.902 419.871 538.486 418.834C543.01 412.5 546.367 406.396 548.702 401.098C548.848 400.752 548.994 400.407 549.14 400.061C549.286 399.831 549.286 399.6 549.432 399.14H549.578L869.212 520.07C853.449 537.692 807.184 572.013 688.379 568.673H688.233L495.867 454.077C503.895 450.161 510.755 445.9 516.885 441.062V441.293Z" fill="white"/>
<path d="M597.755 389.827C599.215 389.481 600.675 389.136 601.843 388.675C602.28 388.56 603.01 388.445 603.594 388.33C605.637 387.754 607.826 387.178 609.869 386.487C623.296 382.341 635.557 376.813 646.649 369.442C648.401 368.52 650.153 367.368 651.759 366.102C653.656 364.835 655.407 363.453 657.013 362.07C658.618 360.919 660.223 359.652 661.536 358.385C663.434 356.888 665.185 355.275 666.937 353.548L1225.06 470.217C1154.56 514.213 970.08 509.261 895.498 502.581H895.352L608.702 394.088L597.609 389.827H597.755Z" fill="white"/>
<path d="M685.211 331.576C685.649 330.885 686.378 330.078 686.816 329.387C687.254 328.696 687.839 327.775 688.277 326.969C696.159 314.3 700.974 301.861 703.893 292.072C704.623 289.538 705.353 287.234 705.791 285.046L1521.52 369.237C1491.01 403.443 1414.83 461.835 1257.78 451.124L685.357 331.576H685.211Z" fill="white"/>
<path d="M792.297 256.408C806.455 247.309 819.443 235.677 829.514 223.008L830.244 221.972L830.39 221.856L1708 275.987C1688.01 302.937 1645.24 332.882 1555.33 347.624H1555.19L1549.64 347.049L773.469 266.889C779.745 263.894 786.167 260.439 792.151 256.408H792.297Z" fill="white"/>
<path d="M849.357 198.074L884.24 154.308L884.386 154.193L884.678 153.732H1870C1837.02 223.757 1746.23 248.75 1730.76 252.435L849.211 198.189L849.357 198.074Z" fill="white"/>
<path d="M957.224 101.062C963.354 94.0367 968.9 86.3202 973.571 78.3733L1005.97 22.2842L2065 26.5458C2048.95 54.1872 2003.26 110.736 1890.73 128.818H928.18C939.272 120.411 949.051 111.197 957.37 101.177L957.224 101.062Z" fill="white"/>
<path d="M263.418 522.625C262.835 524.122 262.106 525.505 261.377 526.887C260.647 528.269 259.917 529.536 259.187 530.803C257.582 532.991 255.977 535.064 254.225 536.792C254.079 536.907 253.933 537.137 253.933 537.137L253.203 537.713L246.051 543.241H245.759L245.174 543.817C241.526 545.89 237.732 547.503 233.499 548.77C220.51 552.801 204.893 553.146 189.714 551.879C186.795 551.649 182.707 552.916 180.08 552.685C179.643 552.57 172.346 552.801 171.908 552.685C168.697 552.34 162.129 553.146 159.064 552.57C157.605 552.455 134.252 552.8 132.938 552.57L77.0391 441.429L107.396 432.446C112.505 430.718 117.468 428.99 122.576 427.033C123.014 426.802 123.597 426.687 124.035 426.572C137.171 421.619 150.161 416.206 163.005 410.563C166.654 408.951 170.303 407.338 173.805 405.726L266.485 512.951C266.047 514.794 265.463 516.406 265.026 518.018C264.588 519.631 263.858 521.128 263.274 522.625H263.418Z" fill="white"/>
<path d="M388.142 468.687C387.412 469.954 386.391 471.336 385.37 472.603C384.64 473.639 383.617 474.561 382.45 475.597C381.866 476.288 380.99 477.094 380.114 477.67C379.384 478.592 378.363 479.282 377.195 480.089C375.59 481.356 373.839 482.508 371.941 483.544C366.541 486.769 360.703 489.302 353.99 491.26C352.092 491.836 350.341 492.412 348.297 492.873C342.605 494.37 336.183 495.637 329.323 496.443C325.528 496.789 321.734 497.134 317.648 497.48C309.62 497.94 300.863 498.056 291.522 497.825H291.376L200.594 392.443C209.643 387.836 218.545 383.229 227.302 378.277C227.886 377.931 228.762 377.585 229.346 377.125C232.849 375.282 236.351 373.209 239.562 371.251C245.4 367.911 251.093 364.341 256.785 360.771L392.083 461.661C391.645 462.698 391.061 463.735 390.478 464.886C389.894 466.153 389.018 467.42 388.142 468.571V468.687Z" fill="white"/>
<path d="M515.401 399.526C514.671 400.908 513.65 402.406 512.774 403.903C512.774 404.018 512.628 404.248 512.482 404.364C511.607 405.861 510.439 407.358 509.126 408.855C508.25 410.237 507.083 411.619 505.769 413.001C504.018 414.959 502.12 417.032 499.931 418.875C498.325 420.372 496.72 421.87 494.823 423.252C492.925 424.749 490.735 426.246 488.546 427.743C486.065 429.356 483.437 430.853 480.664 432.235C478.475 433.502 476.14 434.423 473.512 435.46C470.739 436.727 467.82 437.648 464.61 438.685L459.648 440.067C452.35 442.025 444.322 443.407 435.565 444.098C433.376 444.213 431.041 444.328 428.56 444.443C426.37 444.558 424.182 444.559 421.847 444.559C419.365 444.559 416.884 444.558 414.403 444.443H414.257L299.539 358.525L281.148 344.819C287.132 340.673 292.824 336.757 298.37 332.611C304.208 328.35 309.901 324.088 315.301 319.942C317.636 318.099 319.971 316.257 322.306 314.299H322.452L454.832 364.053L520.218 388.7C519.634 390.428 518.758 392.155 517.882 394.228C517.153 395.956 516.13 397.684 515.108 399.641L515.401 399.526Z" fill="white"/>
<path d="M472.161 235.24L417.867 229.482C424.727 224.529 431.439 220.037 438.445 215.891C441.948 213.818 445.452 211.745 448.809 209.902C452.458 208.06 456.107 206.217 459.755 204.374C463.112 202.761 466.322 201.264 469.679 199.882C473.912 198.155 478.436 196.542 482.669 194.93C494.199 190.899 506.313 187.674 519.011 185.371C522.222 184.795 525.434 184.104 528.79 183.643C531.418 183.298 534.336 182.952 537.109 182.491C541.779 181.8 546.596 181.225 551.704 180.879C555.353 180.533 559.148 180.303 563.089 180.188C566.592 179.958 570.24 179.727 573.889 179.727C578.852 179.612 583.814 179.497 588.923 179.497C593.155 179.497 597.68 179.497 602.205 179.612L783.915 175.005C788.147 175.005 792.38 174.89 796.758 174.66L807.997 173.969C810.478 173.738 813.106 173.508 815.587 173.047L823.905 171.896C827.554 171.32 831.203 170.629 834.852 169.938L814.128 196.082L811.792 198.961L802.889 209.787C794.716 220.268 784.06 229.712 772.384 237.198C752.388 250.212 729.913 257.699 707.874 258.735C703.204 259.081 698.532 259.081 694.008 258.735H692.548L683.792 257.814L678.099 257.238L634.46 252.631L472.161 235.355V235.24Z" fill="white"/>
<path d="M455.197 335.573L346.609 293.881C348.069 292.614 349.237 291.347 350.55 290.195C356.388 284.667 361.935 279.369 367.189 274.071L370.107 271.192C373.61 267.737 376.967 264.281 380.323 261.057C383.826 257.717 387.184 254.607 390.541 251.612H390.687L471.544 260.25L580.133 271.767H580.279L607.572 274.762L674.271 281.787V282.018C672.958 286.625 671.206 292.383 668.579 298.603C667.849 300.676 666.828 302.864 665.661 305.052C662.596 311.502 658.656 318.297 653.693 324.977C651.942 327.396 649.898 329.814 647.855 332.233C647.417 332.694 647.124 333.269 646.686 333.615C646.102 334.191 645.519 334.767 645.227 335.227C644.789 335.458 644.498 335.803 644.206 336.264C643.622 336.725 642.893 337.416 642.455 337.876C640.265 340.065 637.93 342.253 635.303 344.096C634.865 344.441 634.426 345.017 633.842 345.247L631.945 346.745C629.756 348.357 627.421 349.969 624.939 351.467C624.647 351.697 624.21 351.927 623.772 352.042C621.729 353.309 619.685 354.461 617.642 355.498C613.409 357.686 609.178 359.644 604.508 361.256C604.508 361.256 604.459 361.295 604.361 361.371C600.275 362.753 596.187 364.02 591.808 365.057C590.494 365.402 589.328 365.748 588.015 365.979C583.636 367.015 579.111 367.706 574.587 368.397C571.959 368.627 569.04 368.973 566.412 369.088C562.326 369.434 558.093 369.549 553.569 369.549C550.212 369.549 547.002 369.433 543.499 369.318H542.478L542.768 369.203L468.771 340.986L454.614 335.458L455.197 335.573Z" fill="white"/>
<path d="M981.382 4.64826H981.236L944.748 67.878C940.807 74.558 936.282 81.1227 931.028 87.2269C917.016 104.042 898.335 118.323 876.88 128.689C875.566 129.265 874.399 129.956 873.231 130.416C871.626 131.107 869.875 131.914 868.269 132.605H867.831C866.08 133.526 864.328 134.217 862.431 134.793C862.285 134.908 862.139 134.908 861.993 135.023C858.928 136.175 855.863 137.212 852.798 138.363C852.068 138.594 851.047 138.939 850.317 139.285C848.128 139.976 845.792 140.667 843.456 141.243C824.191 146.886 803.759 149.765 783.18 149.765L601.907 154.372C596.944 154.257 592.42 154.257 587.896 154.257C580.744 154.257 574.03 154.372 567.462 154.718C563.084 154.833 559.143 154.948 554.91 155.294C542.796 155.985 530.828 157.367 519.735 159.44C512.876 160.476 506.454 161.628 500.324 163.125C483.248 167.041 467.338 172.224 452.013 178.789C445.008 181.668 438.44 185.008 431.58 188.463C419.32 195.028 407.352 202.514 395.676 211.152C391.735 214.032 387.94 217.026 383.999 220.136C382.102 221.633 380.204 223.245 378.453 224.858C376.41 226.355 374.514 227.852 372.616 229.465C372.616 229.465 372.568 229.541 372.47 229.695C371.303 230.731 370.135 231.653 368.968 232.689C366.778 234.532 364.588 236.375 362.252 238.448C360.209 240.406 358.021 242.594 355.831 244.667C354.81 245.588 354.079 246.395 352.911 247.431C350.284 250.08 347.512 252.844 344.739 255.608L341.965 258.373C332.332 268.392 321.24 278.528 309.418 288.663C308.834 289.124 308.104 289.699 307.374 290.39C307.374 290.506 306.938 290.736 306.792 290.966C305.77 291.888 304.747 292.694 303.433 293.615C296.136 299.719 286.942 306.745 277.163 313.886C271.179 318.262 265.048 322.639 258.335 327.13C254.832 329.549 251.329 331.853 247.534 334.271C226.371 348.092 203.312 361.221 179.23 373.199C177.624 374.121 176.164 374.812 174.412 375.733C172.807 376.424 171.348 377.115 170.035 377.806C170.035 377.806 169.889 377.806 169.889 377.921C169.013 378.382 167.7 378.958 166.532 379.534C160.986 382.068 155.293 384.601 149.747 387.25C129.314 396.349 108.296 404.411 87.133 411.552C84.5059 412.588 82.6094 413.164 80.712 413.74C75.8956 415.352 71.2237 416.849 66.5533 418.232C66.5533 418.232 66.5045 418.27 66.4072 418.347L66.2611 418.462C64.0718 419.038 61.7368 419.844 59.2557 420.42C43.055 393.585 22.9145 368.592 0 345.328C94.1391 307.782 226.81 229.58 322.992 71.333C350.139 26.6462 407.352 -1.22545 469.965 0.0414392L981.236 4.18782L981.382 4.64826Z" fill="white"/>
</g>
</svg>
