<svg width="24" height="24" viewBox="0 0 24 24" fill="none" xmlns="http://www.w3.org/2000/svg">
<path d="M11.8956 11.3376C11.9009 11.3353 11.9061 11.3325 11.9114 11.3302C11.9278 11.3483 11.9456 11.3658 11.9614 11.3839C12.4455 11.9443 12.9297 12.5041 13.4126 13.0656C13.4619 13.1232 13.5185 13.1514 13.6027 13.1497C13.7619 13.1463 13.9211 13.1497 14.0803 13.1486C14.2046 13.1475 14.2572 13.1012 14.2572 12.9934C14.2572 12.047 14.2572 11.1 14.2572 10.1536C14.2572 10.0475 14.2033 10.0018 14.077 10.0012C13.923 10.0006 13.7698 10.0012 13.6158 10.0012C13.4566 10.0012 13.4132 10.0384 13.4132 10.1773C13.4132 10.6976 13.4132 11.2174 13.4132 11.7377C13.4132 11.7642 13.4231 11.7936 13.3974 11.8229C13.3724 11.7947 13.3501 11.771 13.3284 11.7462C12.8514 11.1937 12.3738 10.6412 11.8982 10.087C11.8469 10.0272 11.789 9.99838 11.7015 10.0001C11.5483 10.0035 11.3943 10.0006 11.2404 10.0012C11.1036 10.0012 11.0509 10.0452 11.0509 10.1603C11.0509 11.1045 11.0509 12.0492 11.0509 12.9934C11.0509 13.1012 11.1049 13.148 11.2279 13.1492C11.393 13.1503 11.5575 13.1503 11.7226 13.1492C11.8423 13.148 11.8956 13.1017 11.8956 12.9985C11.8962 12.8427 11.8956 12.6869 11.8956 12.5312C11.8956 12.1333 11.8956 11.7349 11.8956 11.3376ZM14.7802 11.5763C14.7802 12.0487 14.7802 12.5205 14.7802 12.9928C14.7802 13.1001 14.8341 13.1486 14.9578 13.1486C15.6617 13.1492 16.3662 13.1492 17.0701 13.1486C17.1958 13.1486 17.2484 13.1034 17.249 12.9957C17.2504 12.8613 17.249 12.727 17.249 12.5927C17.249 12.4652 17.2017 12.424 17.055 12.424C16.6109 12.424 16.1663 12.4228 15.7222 12.4251C15.6525 12.4251 15.6222 12.4149 15.6268 12.3478C15.6341 12.2355 15.6327 12.1226 15.6268 12.0097C15.6235 11.9476 15.6492 11.9352 15.717 11.9352C16.1669 11.9375 16.6169 11.9369 17.0668 11.9364C17.1971 11.9364 17.249 11.8918 17.2497 11.7795C17.2504 11.6525 17.2497 11.5255 17.2497 11.3985C17.2497 11.2467 17.2089 11.2112 17.0339 11.2112C16.5952 11.2112 16.1564 11.21 15.7176 11.2123C15.6499 11.2123 15.6235 11.1999 15.6268 11.1378C15.6327 11.03 15.6334 10.9217 15.6268 10.8144C15.6229 10.7473 15.642 10.7253 15.7262 10.7258C16.1649 10.7298 16.6037 10.7275 17.0425 10.7275C17.2017 10.7275 17.249 10.6875 17.2497 10.5537C17.2497 10.4267 17.2497 10.2997 17.2497 10.1728C17.2497 10.0413 17.203 10.0006 17.0497 10.0006C16.3597 10.0006 15.6696 10.0006 14.9795 10.0006C14.8289 10.0006 14.7809 10.0424 14.7802 10.1739C14.7802 10.6412 14.7802 11.1085 14.7802 11.5763ZM6.75 11.5712C6.75 12.0408 6.75 12.5109 6.75 12.9804C6.75 13.1029 6.80065 13.148 6.9388 13.148C7.63742 13.148 8.33604 13.148 9.03466 13.148C9.16886 13.148 9.22017 13.1023 9.22083 12.9855C9.22149 12.8534 9.22149 12.7219 9.22083 12.5899C9.22083 12.4652 9.17018 12.4234 9.02282 12.4234C8.58141 12.4234 8.14001 12.4217 7.6986 12.4251C7.61834 12.4257 7.59663 12.4087 7.59729 12.3387C7.60058 11.6175 7.59927 10.8957 7.59927 10.1745C7.59927 10.043 7.55059 10.0006 7.39994 10.0006C7.25193 10.0006 7.10392 10.0006 6.9559 10.0006C6.79736 10.0006 6.75132 10.0407 6.75066 10.1761C6.75066 10.6412 6.75 11.1062 6.75 11.5712ZM9.68066 11.5684C9.68066 12.0425 9.68066 12.5171 9.68066 12.9911C9.68066 13.1029 9.73262 13.1475 9.86353 13.148C10.0254 13.1486 10.1872 13.1492 10.3497 13.148C10.4701 13.1469 10.524 13.1017 10.5273 12.9996C10.5293 12.9279 10.5273 12.8557 10.5273 12.784C10.5273 11.9166 10.5273 11.0498 10.5273 10.1824C10.5273 10.0379 10.4826 10.0001 10.3128 10.0001C10.1675 10.0001 10.0227 10.0001 9.87735 10.0001C9.72868 10.0001 9.68 10.0413 9.68 10.1666C9.68 10.6338 9.68 11.1006 9.68 11.5678L9.68066 11.5684Z" fill="#EEEEEE"/>
<path d="M12.0645 4.59961C13.7969 4.61392 15.4698 5.01687 17.001 5.91602C18.1479 6.58942 19.0679 7.46102 19.7012 8.59766C20.1855 9.46663 20.4239 10.3888 20.3984 11.3721C20.3804 12.0848 20.1831 12.7708 19.8643 13.4531C19.4181 14.4081 18.7936 15.2589 18.0527 16.0498C16.5659 17.6359 14.8319 18.8968 12.8711 19.8633C12.6099 19.9919 12.3994 20.1058 12.1855 20.2031L11.9688 20.2949C11.9205 20.3137 11.8757 20.3272 11.835 20.3408L11.8828 20.0791C11.9137 19.873 11.9854 19.5298 11.9863 19.2051V19.2041C11.9863 18.9497 11.9397 18.6734 11.7695 18.4258C11.5997 18.1788 11.359 18.035 11.1211 17.9424C10.7014 17.7788 10.2392 17.72 9.92285 17.6611C7.91601 17.286 6.23714 16.3915 4.94336 14.8496V14.8486L4.68262 14.5176C4.10675 13.7312 3.75344 12.8507 3.63867 11.873C3.50101 10.7004 3.73436 9.60157 4.31934 8.56445C4.93446 7.47325 5.81939 6.62883 6.91699 5.96484C7.91741 5.35957 8.99762 4.97064 10.1504 4.76562L10.6494 4.68945C11.0927 4.63131 11.5438 4.60416 12.0645 4.59961Z" stroke="#EEEEEE" stroke-width="1.2"/>
</svg>
