<svg width="14" height="12" viewBox="0 0 14 12" fill="none" xmlns="http://www.w3.org/2000/svg">
<path d="M13.4999 5.62775C13.5034 5.79147 13.4263 5.94749 13.2938 6.04376L6.89344 10.6844C6.74136 10.7945 6.54024 10.8097 6.37293 10.7244C6.20552 10.639 6.10047 10.467 6.10047 10.2791L6.10047 8.26642C4.86105 8.24924 3.75276 8.80985 2.90028 9.44904C2.42941 9.80218 2.05034 10.169 1.78993 10.4471C1.6603 10.5855 1.56023 10.7022 1.49403 10.782C1.46136 10.8215 1.43662 10.8527 1.42079 10.8729C1.41317 10.8825 1.40673 10.8898 1.40321 10.8943C1.40181 10.8962 1.40082 10.8983 1.40028 10.8992L1.34754 10.9588C1.21527 11.0868 1.02038 11.1335 0.841685 11.074C0.637576 11.006 0.499971 10.8146 0.499888 10.5994L0.999888 10.5994L0.499888 10.5985L0.499888 10.575C0.500118 10.5617 0.501072 10.5426 0.501841 10.5193C0.503402 10.4723 0.505705 10.405 0.511607 10.3211C0.523468 10.1527 0.547286 9.91383 0.593638 9.62579C0.68625 9.0506 0.871564 8.2679 1.24403 7.44318C1.96172 5.85441 3.37526 4.11574 6.10047 3.40509L6.10047 1.39923C6.10064 1.21537 6.20122 1.04589 6.36317 0.958802C6.52521 0.871994 6.72254 0.880811 6.87586 0.982239L13.2763 5.2215C13.4127 5.31191 13.4962 5.46411 13.4999 5.62775ZM7.10047 2.3299L7.10047 3.79962C7.10029 4.035 6.93503 4.23828 6.70497 4.2879C4.0908 4.84807 2.80377 6.41942 2.15516 7.85529C1.95354 8.30179 1.8166 8.73742 1.71961 9.12482C1.89504 8.96967 2.08846 8.80766 2.29969 8.64923C3.34802 7.86311 4.87833 7.08058 6.662 7.30353C6.9119 7.33492 7.10024 7.54777 7.10047 7.79962L7.10047 9.29865L12.122 5.65704L7.10047 2.3299Z" fill="white"/>
</svg>
