<svg width="129" height="128" viewBox="0 0 129 128" fill="none" xmlns="http://www.w3.org/2000/svg">
<path d="M34.7157 77.2297C35.057 78.0404 35.2319 78.9022 35.4623 79.747C34.9887 79.1924 34.545 78.6334 34.6645 77.8484C34.6773 77.763 34.6432 77.6777 34.5365 77.6606C34.5024 77.4772 34.5365 77.3236 34.7157 77.234V77.2297Z" fill="#151515"/>
<path d="M60.3285 30.3604C60.64 30.3177 61.0794 30.6334 61.3397 30.4756C61.6085 30.3134 61.4336 29.7886 61.553 29.4302C61.9882 28.0948 63.3535 27.1732 64.7189 27.3225C66.2122 27.4889 67.36 28.6708 67.4154 30.1428C67.4282 30.5225 67.5391 30.5438 67.8591 30.4628C69.4335 30.0617 70.9567 30.8852 71.4645 32.3913C71.9722 33.8974 71.2639 35.506 69.7749 36.1161C69.361 36.2868 69.3823 36.3977 69.5914 36.7348C70.4106 38.0617 70.0394 39.8196 68.785 40.707C67.4709 41.6372 65.7258 41.4324 64.7274 40.1993C64.4885 39.9049 64.3903 39.9049 64.1471 40.1993C63.1573 41.4196 61.4335 41.6372 60.1322 40.7369C58.8565 39.858 58.4512 38.1044 59.2576 36.7817C59.488 36.402 59.5178 36.2868 59.0527 36.099C57.7471 35.5785 57.0261 34.1449 57.312 32.7924C57.6234 31.3204 58.7882 30.3561 60.3327 30.3604H60.3285ZM64.305 31.9433C64.305 32.37 64.305 32.8009 64.305 33.2276C64.305 33.3342 64.2922 33.4324 64.1557 33.458C64.0319 33.4793 63.9552 33.4281 63.9253 33.3129C63.776 32.7412 63.2298 32.2932 63.409 31.619C63.4602 31.4228 63.3066 31.3076 63.1359 31.2393C62.9311 31.1625 62.8032 31.2692 62.7221 31.4356C62.641 31.6062 62.6538 31.8025 62.8245 31.8921C63.4474 32.2164 63.4303 32.9161 63.7461 33.4153C63.8101 33.5177 63.7845 33.603 63.6864 33.6756C63.6096 33.731 63.5242 33.7609 63.4602 33.6884C63.0762 33.2318 62.4021 33.0398 62.2698 32.3572C62.2272 32.1438 62.0608 32.0414 61.8474 32.0713C61.664 32.0969 61.5402 32.2036 61.5402 32.4126C61.5402 32.643 61.6554 32.7838 61.8645 32.8009C62.0309 32.818 62.1802 32.7924 62.321 32.9374C62.5941 33.219 62.9055 33.4622 63.1914 33.731C63.2767 33.8121 63.4346 33.8633 63.3322 34.051C63.2213 34.2516 63.0933 34.1193 62.9866 34.0852C62.2698 33.859 61.5615 33.6158 60.8447 33.3897C60.6271 33.3214 60.4565 33.2702 60.3626 33.0142C60.2389 32.6857 59.9274 32.6388 59.633 32.7924C59.3642 32.9289 59.296 33.1892 59.424 33.4494C59.5733 33.7524 59.825 33.859 60.1493 33.6969C60.2687 33.6372 60.3626 33.5262 60.5205 33.5774C61.3482 33.8505 62.1759 34.1236 63.0037 34.3924C63.0975 34.4222 63.1573 34.4777 63.1573 34.5716C63.1573 34.6654 63.1018 34.7636 63.0165 34.7593C62.4234 34.7124 61.8261 35.1262 61.2288 34.7465C61.041 34.627 60.8661 34.6953 60.7423 34.8702C60.6442 35.0068 60.6143 35.139 60.7423 35.2841C60.8917 35.4462 61.0965 35.5188 61.2415 35.378C61.7493 34.8958 62.3978 35.1006 62.9781 34.9812C63.0847 34.9598 63.1829 34.9812 63.2127 35.1134C63.2341 35.203 63.2383 35.2926 63.1402 35.331C62.5941 35.5572 62.2015 36.1246 61.5189 36.0436C61.3226 36.018 61.1903 36.1204 61.1391 36.3124C61.0922 36.4916 61.1093 36.6622 61.3098 36.739C61.4805 36.803 61.6981 36.8244 61.7664 36.6409C61.9968 36.0094 62.6538 35.954 63.0933 35.6126C63.1871 35.5401 63.3066 35.4036 63.4517 35.5401C63.6266 35.7065 63.4517 35.8217 63.3706 35.9326C62.9312 36.5428 62.4874 37.1486 62.0437 37.7588C61.9242 37.9252 61.8218 38.0532 61.5658 38.0617C61.2159 38.0702 61.0752 38.3348 61.1264 38.6761C61.1733 38.979 61.3738 39.1326 61.6725 39.09C62.0053 39.043 62.1845 38.8297 62.1589 38.4798C62.1503 38.3518 62.0352 38.2452 62.1418 38.0958C62.6624 37.3961 63.1744 36.6878 63.6864 35.9838C63.7546 35.89 63.8186 35.8345 63.9381 35.8942C64.0319 35.9412 64.0618 36.018 64.0277 36.1033C63.8186 36.658 64.0063 37.3406 63.4602 37.7844C63.3066 37.9081 63.3194 38.0916 63.4261 38.2494C63.5327 38.4073 63.6949 38.4628 63.8741 38.3732C64.0405 38.2921 64.177 38.13 64.0874 37.9593C63.7546 37.3278 64.2069 36.7774 64.2325 36.1886C64.2367 36.0649 64.2965 36.0009 64.4245 36.0009C64.5354 36.0009 64.6378 36.0222 64.6421 36.1588C64.6634 36.7518 65.1285 37.3022 64.7957 37.9294C64.6975 38.1172 64.817 38.2665 64.9706 38.3604C65.1072 38.4457 65.2608 38.45 65.393 38.3177C65.5338 38.1769 65.5893 37.955 65.4613 37.8569C64.9706 37.4857 65.0687 36.9182 64.9237 36.4318C64.8725 36.2569 64.6976 36.0137 64.9664 35.8942C65.2053 35.7876 65.2565 36.0734 65.3589 36.2057C65.7642 36.7348 66.144 37.2852 66.5365 37.8228C66.6858 38.0276 66.8309 38.1897 66.7327 38.5012C66.6431 38.7998 66.8693 39.026 67.1722 39.0814C67.4922 39.1412 67.7055 38.979 67.7525 38.6548C67.7994 38.339 67.6672 38.1214 67.3429 38.0489C67.2021 38.019 67.0528 38.0702 66.9376 37.9081C66.4469 37.2084 65.9391 36.5214 65.4357 35.8302C65.3717 35.7449 65.3247 35.6638 65.4015 35.5572C65.4826 35.4462 65.585 35.4676 65.6661 35.5316C66.1269 35.9028 66.8266 35.9497 67.0826 36.6068C67.1551 36.7945 67.3514 36.7988 67.5264 36.7518C67.7312 36.6964 67.7781 36.5385 67.744 36.3508C67.7098 36.1545 67.5818 36.0137 67.3984 36.0436C66.7029 36.1588 66.3232 35.5572 65.7685 35.3524C65.6576 35.3097 65.6362 35.2116 65.6661 35.0964C65.6959 34.9982 65.76 34.9385 65.8496 34.9641C66.4256 35.1134 67.0826 34.8702 67.5946 35.3481C67.7525 35.4932 67.9402 35.4676 68.0981 35.314C68.2218 35.1945 68.2688 35.075 68.1621 34.9086C68.0554 34.7422 67.889 34.61 67.744 34.7124C67.168 35.1134 66.5877 34.738 66.0117 34.7764C65.8965 34.7849 65.7557 34.7593 65.7258 34.6142C65.6874 34.418 65.8538 34.4094 65.9818 34.371C66.6944 34.1364 67.4111 33.906 68.1237 33.667C68.337 33.5945 68.5162 33.5476 68.7466 33.6969C69.0453 33.8932 69.3183 33.7396 69.4591 33.4366C69.5871 33.1678 69.5018 32.9161 69.233 32.7881C68.9344 32.643 68.6613 32.707 68.4949 33.0228C68.4351 33.138 68.4437 33.283 68.273 33.3385C67.441 33.5988 66.6133 33.8676 65.7855 34.1364C65.7045 34.162 65.6191 34.2046 65.5679 34.098C65.5338 34.0297 65.4399 33.9486 65.5423 33.8804C66.0501 33.5476 66.3104 32.8734 67.0229 32.8094C67.2362 32.7881 67.3386 32.6345 67.3386 32.4084C67.3386 32.2249 67.2405 32.1268 67.0741 32.0841C66.8778 32.0329 66.6773 32.114 66.6517 32.2761C66.5493 32.9844 65.8752 33.1806 65.4954 33.6329C65.4144 33.731 65.3205 33.7822 65.1882 33.6756C65.0858 33.5902 65.0815 33.5092 65.1413 33.411C65.4527 32.9076 65.44 32.2121 66.0629 31.8878C66.2378 31.7982 66.2335 31.5977 66.1482 31.4313C66.0757 31.2905 65.9647 31.1753 65.777 31.235C65.6021 31.2905 65.4058 31.3972 65.4655 31.5806C65.6618 32.2249 65.1711 32.6558 65.009 33.1892C64.9706 33.3172 64.9407 33.522 64.7103 33.4622C64.4927 33.4025 64.5781 33.2105 64.5738 33.074C64.5653 32.3913 64.5738 31.7044 64.5738 31.0217C64.5738 30.7529 64.5525 30.5097 64.8213 30.2964C65.0645 30.1044 65.0218 29.8014 64.7957 29.571C64.561 29.3364 64.305 29.3406 64.0789 29.5796C63.857 29.81 63.8229 30.1086 64.0661 30.3049C64.3093 30.5012 64.3135 30.723 64.3093 30.979C64.305 31.3033 64.3093 31.6276 64.3093 31.9561L64.305 31.9433Z" fill="#151515"/>
<path d="M28.0981 57.1508C23.8314 57.842 19.6586 57.8846 15.4645 57.6329C12.9215 57.4793 10.3871 57.2148 7.85272 56.9801C7.25966 56.9246 6.66233 56.8521 6.06926 56.7753C5.69806 56.7284 5.39086 56.5364 5.13913 56.2761C4.07246 55.1796 3.40261 53.874 3.09968 52.3806C2.97168 51.7449 3.12954 51.6169 3.761 51.7833C10.4682 53.5497 17.2821 54.4414 24.2282 54.2878C24.6549 54.2793 25.0858 54.258 25.5125 54.2281C25.7301 54.211 25.8325 54.275 25.9349 54.4884C26.1013 54.8382 26.0074 54.9108 25.6533 54.9278C23.9765 54.9961 22.2997 55.0601 20.6186 55.0302C16.6591 54.9577 12.7125 54.7742 8.80421 54.0873C8.64634 54.0574 8.41167 53.9294 8.369 54.1641C8.32633 54.386 8.59941 54.3732 8.74874 54.403C10.8565 54.787 12.9855 55.0046 15.1189 55.1412C18.7285 55.3758 22.3381 55.4398 25.9519 55.2265C26.1525 55.2137 26.2975 55.235 26.4213 55.4356C26.8309 56.0969 27.377 56.6388 28.0938 57.155L28.0981 57.1508Z" fill="#151515"/>
<path d="M100.794 57.1465C101.493 56.6217 102.061 56.0798 102.47 55.4014C102.598 55.1881 102.769 55.218 102.957 55.2265C105.85 55.3929 108.738 55.3801 111.631 55.2521C114.455 55.1284 117.267 54.9065 120.049 54.4116C120.117 54.3988 120.186 54.3945 120.25 54.3689C120.365 54.322 120.57 54.339 120.497 54.1342C120.437 53.9593 120.275 54.0361 120.143 54.0617C119.016 54.2665 117.882 54.4286 116.742 54.5481C112.736 54.9662 108.721 55.1113 104.693 54.979C104.198 54.962 103.699 54.9449 103.204 54.9065C103.08 54.898 102.82 54.9961 102.859 54.7614C102.893 54.5651 102.888 54.2452 103.221 54.2238C103.426 54.211 103.631 54.2324 103.836 54.2409C107.59 54.4073 111.328 54.1897 115.053 53.7289C118.483 53.3022 121.867 52.6324 125.207 51.7534C125.715 51.6212 125.873 51.7406 125.775 52.274C125.48 53.8782 124.772 55.2777 123.569 56.4041C123.313 56.643 122.997 56.7497 122.639 56.7838C120.378 57.01 118.125 57.2873 115.859 57.4665C113.077 57.6841 110.295 57.8462 107.501 57.7566C105.282 57.6884 103.068 57.5347 100.781 57.1422L100.794 57.1465Z" fill="#151515"/>
<path d="M30.4703 58.0724C29.8303 58.371 29.1477 58.4308 28.4821 58.5118C24.9194 58.9428 21.344 59.0153 17.7642 58.883C15.3877 58.7977 13.0111 58.6697 10.6645 58.2388C10.5365 58.2132 10.3487 58.1577 10.3189 58.3412C10.2805 58.5716 10.5109 58.5289 10.6432 58.5588C12.4266 58.9172 14.2399 59.0452 16.049 59.139C19.5391 59.3225 23.0335 59.3182 26.5237 59.0452C27.7823 58.947 29.0325 58.7849 30.3167 58.5502C30.2271 59.1689 30.4192 59.6852 30.8117 60.1417C28.4864 60.8329 26.1397 61.2126 23.7546 61.4174C21.3098 61.6265 18.8607 61.6265 16.4159 61.4985C14.3338 61.3876 12.2645 61.0761 10.1866 60.9524C8.00635 60.8201 6.82449 59.5017 5.77063 57.8846C5.63409 57.6798 5.40795 57.411 5.55302 57.1892C5.70235 56.9673 6.02662 57.1038 6.27409 57.1337C10.9376 57.6628 15.601 58.1406 20.3029 58.1193C22.9952 58.1065 25.6746 57.9145 28.3285 57.458C28.4266 57.4409 28.5503 57.4025 28.6271 57.4452C29.2117 57.7353 29.8517 57.8548 30.4746 58.0766L30.4703 58.0724Z" fill="#151515"/>
<path d="M98.4256 58.0894C99.697 57.411 101.028 57.5006 102.419 57.7097C105.525 58.179 108.661 58.1876 111.797 58.0596C115.462 57.9102 119.106 57.5348 122.746 57.1166C122.942 57.0953 123.198 57.0014 123.326 57.1806C123.454 57.3598 123.279 57.5732 123.185 57.7438C122.618 58.755 121.862 59.6041 120.936 60.3124C120.403 60.7177 119.78 60.8073 119.157 60.8841C115.676 61.3065 112.181 61.6307 108.67 61.5881C105.09 61.5454 101.549 61.1998 98.0885 60.1502C98.2208 59.8942 98.4128 59.6766 98.5066 59.3993C98.5962 59.1305 98.545 58.8574 98.592 58.563C102.573 59.2713 106.588 59.3225 110.607 59.2329C113.056 59.1774 115.501 59.0324 117.92 58.627C118.146 58.5886 118.59 58.6484 118.539 58.3625C118.483 58.0425 118.103 58.2857 117.877 58.3198C113.73 58.9257 109.557 59.0238 105.372 58.8873C103.127 58.8148 100.892 58.674 98.6858 58.2302C98.5877 58.2089 98.4725 58.2302 98.4256 58.0894Z" fill="#151515"/>
<path d="M76.3071 60.8329C75.9573 59.6169 75.4837 58.482 74.8181 57.4281C74.7583 57.33 74.7327 57.2276 74.7754 57.091C75.3301 55.3118 76.1407 53.7076 77.6682 52.547C78.8287 51.6681 80.177 51.5273 81.5594 51.523C83.3301 51.523 84.9984 52.0564 86.6453 52.6281C90.144 53.8526 93.7151 54.1257 97.3674 53.618C97.9391 53.5369 98.0159 53.635 97.777 54.1726C97.4399 54.9321 96.945 55.5764 96.3562 56.1609C96.1856 56.3316 95.9893 56.3742 95.7546 56.3742C93.6853 56.3742 91.6117 56.451 89.5466 56.259C87.4175 56.0628 85.3567 55.555 83.3343 54.8681C82.1055 54.4499 80.8725 54.3774 79.6309 54.8425C79.0677 55.0516 78.705 55.4612 78.4191 55.9604C77.6213 57.3556 77.1135 58.8702 76.5631 60.3678C76.5077 60.5172 76.5119 60.7049 76.3114 60.8286L76.3071 60.8329Z" fill="#151515"/>
<path d="M52.4821 60.7689C52.0895 59.7534 51.7013 58.7124 51.2917 57.6798C51.1295 57.2702 50.9205 56.8777 50.7498 56.4681C49.9989 54.6718 48.4543 54.3817 46.8117 54.5865C45.4762 54.7529 44.2389 55.3332 42.9333 55.6532C40.4586 56.2633 37.9455 56.4254 35.4111 56.387C34.6773 56.3785 33.9391 56.3657 33.2053 56.3785C32.8895 56.3828 32.6506 56.2974 32.433 56.0713C31.8997 55.5081 31.4389 54.9022 31.1146 54.194C31.0378 54.0233 30.9183 53.8228 31.0207 53.6649C31.1402 53.4857 31.3706 53.6009 31.5455 53.6265C34.0543 53.9636 36.5631 53.9678 39.0549 53.4942C40.8042 53.1614 42.4682 52.5257 44.1706 52.0308C45.7834 51.5614 47.4133 51.378 49.0858 51.6553C50.801 51.9412 51.9701 52.978 52.8874 54.3689C53.3951 55.1454 53.7578 55.9902 54.0351 56.8734C54.0991 57.0825 54.1418 57.283 54.001 57.5049C53.3823 58.4948 52.9215 59.5529 52.6186 60.6836C52.6058 60.7262 52.5973 60.7902 52.4906 60.7689H52.4821Z" fill="#151515"/>
<path d="M8.60367 61.0804C9.66607 61.2041 10.7157 61.3364 11.7653 61.4473C16.9749 62.0105 22.1802 62.2025 27.3727 61.3022C28.4693 61.1145 29.5573 60.8884 30.6154 60.5428C31.0336 60.4062 31.3664 60.419 31.712 60.7433C30.3466 61.4089 28.9002 61.763 27.4282 62.0105C22.8287 62.7742 18.1994 62.8937 13.5573 62.5524C13.472 62.5481 13.3866 62.5396 13.3013 62.5353C13.1818 62.531 13.0239 62.5097 13.0111 62.6633C12.9941 62.8553 13.1647 62.8468 13.3013 62.8553C14.0863 62.9065 14.8714 62.979 15.6608 63.0046C19.7952 63.1326 23.9125 62.9961 27.9871 62.2324C29.3653 61.9721 30.7178 61.6094 31.9808 60.9694C32.1386 60.8884 32.2879 60.8329 32.4671 60.8884C33.0218 61.0676 33.5935 61.187 34.1781 61.2084C34.4213 61.2169 34.4 61.3193 34.3488 61.4985C34.2762 61.7588 34.1823 62.0361 34.2591 62.3049C34.3487 62.6078 34.1994 62.6761 33.9605 62.7657C32.1898 63.4313 30.368 63.9006 28.512 64.2718C24.2453 65.1252 19.9317 65.2958 15.601 65.1849C14.577 65.1593 13.553 65.0569 12.529 64.9844C12.2687 64.9673 12.0384 64.8478 11.8165 64.7156C10.5066 63.9348 9.51674 62.8425 8.74021 61.5454C8.68901 61.4601 8.65489 61.3577 8.62076 61.2638C8.60369 61.2169 8.61221 61.1657 8.60794 61.0676L8.60367 61.0804Z" fill="#151515"/>
<path d="M97.1626 60.7433C97.5082 60.419 97.841 60.419 98.2591 60.5428C102.125 61.6692 106.088 61.9764 110.091 61.9124C113.329 61.8612 116.55 61.5625 119.755 61.1273C119.921 61.106 120.092 61.0462 120.258 61.1188C120.296 61.3236 120.181 61.4857 120.087 61.6436C119.366 62.8297 118.428 63.8068 117.293 64.6046C116.593 65.0996 115.791 65.0228 115.023 65.0868C112.907 65.2617 110.778 65.266 108.657 65.1934C104.023 65.027 99.4581 64.4126 95.0634 62.8382C94.7263 62.7188 94.4746 62.5908 94.6325 62.1726C94.6453 62.1428 94.6325 62.1044 94.6325 62.0702C94.6453 61.7886 94.3722 61.4388 94.5599 61.2681C94.7349 61.1102 95.1317 61.2212 95.3962 61.1273C96.2368 60.8244 96.9706 61.0078 97.7813 61.3492C99.6202 62.1342 101.596 62.4073 103.567 62.6334C107.147 63.043 110.739 63.1284 114.336 62.9492C114.746 62.9278 115.155 62.8894 115.565 62.8596C115.701 62.851 115.885 62.8596 115.863 62.6761C115.842 62.4926 115.659 62.5396 115.526 62.5438C114.792 62.578 114.059 62.6292 113.32 62.6548C109.6 62.7998 105.892 62.6548 102.206 62.1257C101.139 61.9721 100.085 61.763 99.0485 61.4601C98.4085 61.2724 97.7813 61.0548 97.1584 60.7476L97.1626 60.7433Z" fill="#151515"/>
<path d="M39.5882 63.794C39.7887 64.3614 39.5669 64.6132 39.0634 64.8563C34.0842 67.2542 28.8447 68.803 23.4005 69.6948C23.3663 69.699 23.3322 69.7076 23.2981 69.7118C23.153 69.7374 22.9183 69.7118 22.9482 69.9124C22.9866 70.1598 23.2298 70.0446 23.3749 70.019C24.1855 69.8825 24.9877 69.7204 25.7941 69.571C30.4917 68.6921 34.9717 67.1604 39.2725 65.091C39.5967 64.9332 39.8101 64.8606 39.9167 65.2958C39.9722 65.5219 40.3178 65.7012 40.2282 65.8846C40.1343 66.0809 39.8314 66.1876 39.6096 66.3113C36.8917 67.8686 33.9519 68.8841 30.9781 69.8142C28.5461 70.578 26.1098 71.3545 23.6266 71.9177C21.3397 72.4382 19.0442 71.3588 18.0415 69.4174C17.7642 68.8798 17.777 68.8457 18.3957 68.8372C22.449 68.7689 26.4554 68.338 30.3466 67.1476C32.5653 66.4692 34.6687 65.5433 36.6101 64.2676C36.7679 64.1652 36.9045 64.0499 37.1178 64.0628C37.9455 64.1182 38.7519 63.9433 39.5797 63.7854L39.5882 63.794Z" fill="#151515"/>
<path d="M88.5696 65.8846C88.672 65.7396 88.8042 65.6244 88.8426 65.4878C89.0218 64.8606 89.3333 64.9502 89.8197 65.1892C94.7818 67.6126 100.03 69.1358 105.474 70.019C105.623 70.0446 105.871 70.1598 105.918 69.938C105.969 69.6905 105.7 69.7332 105.551 69.7076C102.522 69.1742 99.5178 68.53 96.5866 67.5785C94.1461 66.7849 91.808 65.7566 89.4784 64.6942C88.9962 64.4766 89.3119 64.114 89.2394 63.7854C90.1141 63.9646 90.9503 64.1353 91.8122 64.0798C91.9658 64.0713 92.0725 64.1524 92.1834 64.2249C95.2981 66.2942 98.7669 67.4249 102.411 68.099C105.094 68.594 107.804 68.8073 110.526 68.85C111.076 68.8585 111.093 68.9012 110.85 69.3876C109.882 71.3417 107.539 72.4638 105.244 71.9262C102.466 71.2734 99.7397 70.4116 97.0218 69.5412C94.3466 68.6836 91.7184 67.7235 89.265 66.3284C89.0304 66.1961 88.8042 66.0425 88.5653 65.8932L88.5696 65.8846Z" fill="#151515"/>
<path d="M36.3754 64.0201C34.6688 65.1422 32.9578 65.9273 31.1658 66.5374C28.2815 67.523 25.3034 68.0435 22.2698 68.3081C20.3754 68.4745 18.4767 68.4916 16.5781 68.5342C15.8698 68.5513 15.2768 68.3252 14.7306 67.8985C14.0181 67.3438 13.425 66.691 13.0197 65.8804C12.785 65.411 12.8149 65.3684 13.3269 65.4025C15.7717 65.5689 18.2208 65.6286 20.6698 65.5177C25.2522 65.3086 29.7621 64.69 34.0927 63.0857C34.2293 63.0345 34.3872 62.8894 34.5408 63.1156C34.9461 63.7086 35.5477 63.9476 36.3754 64.0201Z" fill="#151515"/>
<path d="M92.5077 64.0201C93.3226 63.9433 93.9242 63.7086 94.3296 63.1198C94.5002 62.8724 94.6666 63.0516 94.8202 63.107C98.0799 64.3188 101.472 64.9502 104.915 65.2958C108.435 65.65 111.959 65.6542 115.488 65.4068C116.077 65.3641 116.107 65.4068 115.829 65.923C115.322 66.8788 114.6 67.6382 113.675 68.2142C112.996 68.6366 112.254 68.5385 111.524 68.53C109.779 68.5086 108.034 68.466 106.293 68.291C101.591 67.8174 97.0474 66.8276 92.9514 64.323C92.8362 64.2548 92.7253 64.1737 92.4991 64.0244L92.5077 64.0201Z" fill="#151515"/>
<path d="M43.953 65.4452C43.9701 65.9657 43.9786 66.3668 44.1408 66.7294C44.273 67.0281 44.0256 67.0878 43.8762 67.1945C42.1738 68.402 40.3605 69.4174 38.4832 70.3177C35.6373 71.683 32.6976 72.7924 29.5829 73.3726C27.8549 73.6926 26.3445 73.2361 25.0047 71.9433C25.5978 71.7726 26.1141 71.6233 26.6261 71.474C30.2997 70.4073 33.9775 69.3577 37.4805 67.7876C38.4149 67.3694 39.3322 66.9044 40.1984 66.354C40.4672 66.1833 40.6762 66.1065 40.9749 66.3113C41.1754 66.4478 41.4527 66.4777 41.7301 66.5673C41.3631 66.9385 40.9322 67.1774 40.5013 67.3993C37.3183 69.0462 33.9904 70.3134 30.4832 71.0814C30.4661 71.0814 30.449 71.0814 30.432 71.0942C30.2997 71.1668 30.0223 71.09 30.0778 71.346C30.1247 71.555 30.3338 71.4484 30.4746 71.4142C30.9909 71.299 31.5157 71.2052 32.0234 71.0601C34.9546 70.2281 37.8048 69.1828 40.5098 67.7662C41.0986 67.4548 41.6746 67.1134 42.161 66.6483C42.3701 66.4478 42.6687 66.4606 42.9034 66.3241C43.2746 66.1108 43.5605 65.7993 43.953 65.4494V65.4452Z" fill="#151515"/>
<path d="M84.9301 65.5177C87.2896 67.3012 89.8069 68.6281 92.5034 69.618C94.4106 70.3177 96.3136 71.0217 98.3232 71.3972C98.4896 71.427 98.7541 71.5891 98.801 71.3289C98.8437 71.0857 98.5365 71.1241 98.3701 71.0857C94.7221 70.2494 91.2448 68.9652 87.9637 67.1604C87.6821 67.0068 87.4261 66.8062 87.1018 66.5886C87.4858 66.4308 87.8528 66.3966 88.1386 66.1918C88.2666 66.098 88.3562 66.1662 88.4629 66.2302C91.5861 68.1673 95.0421 69.2937 98.5194 70.3689C100.264 70.9065 102.018 71.41 103.776 71.9262C103.755 72.1438 103.571 72.2334 103.43 72.3444C102.082 73.4366 100.55 73.6798 98.8906 73.3086C93.8986 72.1908 89.3333 70.1086 85.0922 67.2756C84.7893 67.075 84.6058 66.8873 84.7978 66.5033C84.9429 66.2132 84.8832 65.8718 84.9301 65.5177Z" fill="#151515"/>
<path d="M45.9029 91.0238C45.3909 91.011 44.8746 91.0281 44.3669 90.9769C43.5989 90.9001 42.8437 90.7849 42.1311 90.4265C37.8986 88.2932 35.6202 84.739 34.6602 80.2249C34.6005 79.9348 34.6261 79.6276 34.6005 79.1796C35.7098 80.8137 36.9514 82.115 38.3509 83.267C39.7504 84.419 41.1797 85.5753 42.9973 85.9508C43.7781 86.1129 44.1024 86.4628 44.2986 87.154C44.4522 87.7086 44.7167 88.2292 44.9471 88.8009C44.6101 88.8862 44.3242 88.7625 44.0511 88.6686C41.9562 87.9433 40.0831 86.8468 38.5301 85.2468C38.4362 85.1486 38.3423 84.931 38.1759 85.0974C38.0223 85.2553 38.2186 85.3748 38.3125 85.4772C39.3749 86.6462 40.6933 87.474 42.0757 88.195C42.9674 88.6601 43.8848 89.091 44.9173 89.1636C45.105 89.1764 45.1775 89.2745 45.2501 89.4238C45.489 89.9316 45.745 90.435 45.9925 90.9428C45.9626 90.9684 45.937 90.9982 45.9071 91.0238H45.9029Z" fill="#151515"/>
<path d="M83.9274 88.8094C84.273 87.9092 84.593 87.0814 84.9088 86.2537C84.9557 86.1257 85.0282 86.0702 85.169 86.0574C86.7477 85.9166 88.0277 85.0932 89.2608 84.21C91.1466 82.8532 92.8149 81.266 94.1376 79.3374C94.1504 79.3161 94.1888 79.3161 94.2485 79.2905C94.3082 80.0414 94.1546 80.754 93.9413 81.4452C92.8661 84.914 91.0271 87.8068 87.8655 89.7865C86.3082 90.7593 84.6656 91.0622 82.865 90.9641C83.1381 90.4052 83.4069 89.859 83.6671 89.3086C83.7183 89.202 83.7866 89.1593 83.8976 89.1422C86.1077 88.818 87.8997 87.6404 89.6277 86.3348C89.9946 86.0574 90.3359 85.7417 90.6261 85.379C90.7029 85.2809 90.8565 85.1614 90.6815 85.0377C90.5621 84.9524 90.4682 85.0718 90.3829 85.1614C89.0346 86.6249 87.3621 87.602 85.5573 88.3785C85.0624 88.5918 84.5461 88.7625 83.9274 88.8094Z" fill="#151515"/>
<path d="M29.9754 73.6585C31.3792 73.3513 32.7189 72.9886 34.033 72.5278C37.5957 71.2734 40.9621 69.6308 44.064 67.4718C44.32 67.2926 44.4437 67.3182 44.6357 67.5401C44.8831 67.826 44.5887 67.907 44.4693 68.0052C42.1439 69.9806 39.5199 71.4612 36.7082 72.626C36.5375 72.6942 36.1791 72.69 36.2559 72.9289C36.3583 73.2404 36.6442 72.9886 36.8149 72.9161C39.7375 71.7129 42.4768 70.1897 44.8618 68.0862C44.9557 68.0052 45.0154 67.8302 45.1946 67.9326C45.4293 68.0649 45.2288 68.2228 45.1776 68.3209C44.6613 69.3961 43.8335 70.2068 42.9077 70.9236C40.8426 72.5193 38.5727 73.7865 36.2005 74.8404C34.2165 75.7235 32.2709 75.5956 30.5045 74.2046C30.3722 74.098 30.2485 73.9742 30.129 73.8548C30.0821 73.8078 30.048 73.7524 29.9754 73.6542V73.6585Z" fill="#151515"/>
<path d="M98.9376 73.667C97.6576 74.994 96.177 75.5188 94.4362 75.331C93.1264 75.1902 92.0127 74.5502 90.8736 73.9614C89.0048 72.9929 87.1871 71.9433 85.5658 70.5908C84.785 69.9422 84.0981 69.2084 83.6757 68.2654C83.6373 68.1801 83.4879 68.0777 83.6415 67.954C83.8037 67.826 83.8805 67.9582 83.9829 68.0478C86.3125 70.1385 89.0176 71.619 91.872 72.8478C92.0128 72.9076 92.1578 72.9673 92.3029 73.01C92.4096 73.0398 92.5546 73.1252 92.6229 72.9758C92.7082 72.7881 92.5333 72.754 92.4096 72.707C90.4426 71.9817 88.6335 70.9534 86.8714 69.8398C86.0181 69.3022 85.1861 68.7262 84.448 68.035C84.3285 67.9241 84 67.8601 84.2474 67.5316C84.4736 67.2329 84.6314 67.3481 84.8618 67.5017C88.9237 70.2622 93.3226 72.2846 98.1013 73.4708C98.3488 73.5305 98.6005 73.586 98.9503 73.6628L98.9376 73.667Z" fill="#151515"/>
<path d="M48.4117 54.9748C47.0165 56.8692 46.3424 58.9428 46.3296 61.234C46.3296 61.4132 46.2144 61.746 46.4832 61.7502C46.7648 61.7502 46.6368 61.426 46.641 61.2468C46.6666 59.1604 47.2341 57.2404 48.4245 55.5166C48.7658 55.0217 48.9152 55.0004 49.4229 55.3033C49.9733 55.6318 50.0927 55.9305 49.8794 56.3913C49.056 58.1876 48.6762 60.0948 48.625 62.0532C48.6037 62.9748 48.0064 63.3289 47.392 63.6873C46.7392 64.0713 46.0736 63.9305 45.4848 63.4697C45.0197 63.107 44.7168 62.6036 44.6954 62.0276C44.6272 60.0606 44.7381 58.115 45.3141 56.2078C45.5658 55.363 46.0181 54.9236 46.9269 54.9022C47.4048 54.8937 47.8741 54.8681 48.4074 54.9748H48.4117Z" fill="#151515"/>
<path d="M80.4799 54.9748C81.2736 54.7785 81.9989 54.8937 82.7199 55.043C82.976 55.0985 83.1295 55.2308 83.2447 55.4697C83.7098 56.451 83.9274 57.5006 84.0554 58.563C84.1834 59.6126 84.2176 60.675 84.192 61.7374C84.1664 62.6676 83.761 63.3929 82.8821 63.7513C82.0458 64.0969 81.3674 63.7428 80.753 63.171C80.4117 62.851 80.2752 62.514 80.2496 62.0276C80.1514 60.0393 79.8186 58.0894 78.9269 56.2804C78.6879 55.794 79.0592 55.6276 79.3109 55.4185C79.8656 54.9534 80.0832 54.9876 80.4842 55.5721C81.6192 57.2233 82.1653 59.0622 82.225 61.0547C82.225 61.1742 82.225 61.2937 82.225 61.4132C82.225 61.5454 82.1866 61.7374 82.3615 61.7502C82.6005 61.7716 82.5365 61.5497 82.5408 61.4132C82.5749 59.4718 82.097 57.6628 81.1327 55.9817C80.9407 55.6446 80.7103 55.3289 80.4757 54.9705L80.4799 54.9748Z" fill="#151515"/>
<path d="M39.6608 56.5918C39.3578 57.0228 39.1274 57.4196 39.0464 57.8846C39.0037 58.1193 38.7775 58.1875 38.6111 58.2814C36.9898 59.2073 35.2277 59.5102 33.3802 59.4548C33.1797 59.4505 32.8213 59.2969 32.8042 59.5444C32.7786 59.8857 33.1669 59.7492 33.3674 59.7577C35.3002 59.843 37.1434 59.5102 38.833 58.5161C39.0037 58.418 39.0762 58.4009 39.1658 58.6142C39.3706 59.1177 39.7802 59.4164 40.2709 59.6254C40.3776 59.6724 40.5866 59.6254 40.5525 59.8345C40.5226 60.0222 40.369 60.1033 40.1941 60.1545C39.3109 60.4318 38.4149 60.6366 37.4976 60.7646C35.7056 61.0164 33.9263 61.0249 32.1813 60.466C32.0362 60.419 31.8869 60.3806 31.7461 60.3209C30.4405 59.762 30.2272 58.4222 31.3152 57.5049C31.8869 57.0228 32.5311 56.7284 33.3247 56.7454C35.4111 56.7966 37.4976 56.7582 39.6565 56.5833L39.6608 56.5918Z" fill="#151515"/>
<path d="M89.2479 56.5918C91.4538 56.7753 93.6298 56.754 95.8015 56.7753C96.8085 56.7838 97.5935 57.3001 98.0714 58.2004C98.4682 58.9513 98.2293 59.715 97.4442 60.1545C96.6336 60.611 95.7205 60.7859 94.8074 60.8755C92.8106 61.0761 90.8522 60.7902 88.9322 60.2398C88.7701 60.1929 88.5866 60.1545 88.4629 60.0478C88.3349 59.9412 88.1685 59.762 88.5055 59.6553C89.0645 59.4718 89.5082 59.139 89.7301 58.5758C89.8154 58.3582 89.9178 58.4521 90.0373 58.5246C91.7312 59.5102 93.5701 59.8473 95.5029 59.7705C95.5712 59.7705 95.6394 59.7705 95.7077 59.762C95.8613 59.7364 96.113 59.8089 96.0874 59.5529C96.0661 59.3396 95.84 59.4377 95.7034 59.4462C94.3381 59.5273 93.0069 59.3737 91.7098 58.9342C91.3856 58.8233 91.0741 58.6868 90.7626 58.5545C90.2378 58.3241 89.777 58.0596 89.6746 57.3982C89.6319 57.1294 89.4101 56.8905 89.2479 56.5918Z" fill="#151515"/>
<path d="M51.0357 91.6596C50.1098 91.7278 49.5594 91.2372 49.0389 90.5972C47.6607 88.8948 46.3125 87.171 45.3226 85.2041C45.2671 85.0932 45.233 84.8926 45.0538 84.9652C44.8319 85.0548 44.977 85.234 45.0367 85.3534C45.8303 86.9534 46.8714 88.3956 47.9722 89.7908C48.3818 90.3113 48.8128 90.8148 49.2906 91.3908C48.3349 91.2884 47.4517 91.1902 46.5685 91.0921C46.4021 91.075 46.3807 90.9086 46.321 90.7934C44.7125 87.73 43.5093 84.53 42.9887 81.0953C42.9674 80.9588 42.9674 80.8222 42.9589 80.6857C42.9546 80.5876 42.9589 80.4894 42.9589 80.2676C43.2405 80.6473 43.4581 80.9417 43.6799 81.2318C45.041 83.0366 46.3637 84.8798 48.0021 86.4414C48.7487 87.154 49.3077 87.8964 49.6191 88.8862C49.9306 89.8804 50.5023 90.7678 51.0399 91.6596H51.0357Z" fill="#151515"/>
<path d="M79.5882 91.3481C80.0106 90.8361 80.3861 90.3966 80.7445 89.9486C81.841 88.5705 82.8821 87.154 83.7055 85.5881C83.761 85.4814 83.8207 85.379 83.8634 85.2681C83.9018 85.1657 84.017 85.0377 83.8677 84.9481C83.6885 84.8414 83.6287 85.0078 83.5733 85.1273C82.7498 86.8297 81.6191 88.3316 80.4501 89.8078C80.1642 90.1705 79.8271 90.4948 79.5669 90.8745C79.1658 91.4633 78.5898 91.6084 77.937 91.6212C77.8474 91.4761 77.9797 91.395 78.0309 91.3097C78.7178 90.1449 79.3407 88.9545 79.6949 87.6404C79.7247 87.5252 79.7631 87.4185 79.8655 87.3332C81.8837 85.699 83.3471 83.5785 84.9301 81.5646C85.2458 81.1636 85.5402 80.7497 85.9071 80.2547C85.9498 81.1636 85.7706 81.9529 85.5914 82.7294C84.9557 85.4729 83.9573 88.0841 82.6645 90.5844C82.481 90.9428 82.2847 91.1049 81.8581 91.1134C81.1327 91.1348 80.4117 91.2585 79.5925 91.3481H79.5882Z" fill="#151515"/>
<path d="M65.6021 95.3502C68.4949 93.2809 75.6927 93.6692 77.8901 96.0116C75.4922 96.1097 73.3034 97.0782 70.9951 97.4878C69.0965 97.8249 67.3514 97.2105 65.7215 96.2548C65.5509 96.1566 65.5637 96.0073 65.5722 95.8537C65.585 95.6233 65.7727 95.7129 65.8879 95.7086C67.7013 95.6617 69.5103 95.5038 71.3237 95.7342C71.4645 95.7513 71.6906 95.8409 71.7077 95.6318C71.729 95.3972 71.473 95.4356 71.3194 95.4185C69.7834 95.218 68.2431 95.3161 66.7071 95.3545C66.3487 95.363 65.9903 95.3545 65.6063 95.3545L65.6021 95.3502Z" fill="#151515"/>
<path d="M50.9247 96.0585C53.6383 93.6564 59.9616 93.3193 63.281 95.363C62.5301 95.363 61.809 95.3886 61.0922 95.3588C60.0298 95.3118 58.9717 95.3118 57.9135 95.41C57.7258 95.427 57.5423 95.4612 57.3546 95.491C57.2479 95.5081 57.137 95.5422 57.1541 95.6702C57.1712 95.7897 57.2821 95.8196 57.393 95.8068C57.649 95.7769 57.9007 95.7385 58.1567 95.7172C59.7482 95.5636 61.3354 95.7385 62.9269 95.7342C63.0549 95.7342 63.2554 95.6404 63.2938 95.8793C63.3279 96.0798 63.2682 96.2249 63.0762 96.3444C62.3125 96.8137 61.4805 97.1038 60.6271 97.3641C59.0997 97.8292 57.6277 97.5561 56.1471 97.1252C54.4618 96.6345 52.7807 96.1054 50.9205 96.0628L50.9247 96.0585Z" fill="#151515"/>
<path d="M65.6149 94.8724C65.4655 94.4158 65.6191 94.1385 66.0287 93.9209C68.2303 92.7561 70.5215 91.8601 72.9791 91.4078C73.6106 91.2926 74.1781 91.0196 74.7327 90.7166C76.2986 89.8633 77.745 88.835 79.0293 87.5892C79.1018 87.5209 79.1786 87.4569 79.2682 87.3758C79.3791 87.5252 79.345 87.6574 79.3023 87.7769C78.4917 90.1492 77.1989 92.2356 75.4837 94.0617C75.3343 94.2196 75.2149 94.258 75.0015 94.1854C74.5706 94.0361 74.1226 93.9337 73.6746 93.81C73.6618 93.618 73.841 93.618 73.9434 93.5625C74.8522 93.042 75.7098 92.4532 76.4693 91.7278C76.593 91.6084 76.913 91.4761 76.704 91.2585C76.5205 91.0708 76.3925 91.3694 76.273 91.4804C75.3983 92.2868 74.4298 92.9438 73.3759 93.49C73.1413 93.6094 72.9109 93.6862 72.6421 93.6478C70.2741 93.3108 68.0725 93.955 65.8965 94.7657C65.8026 94.7998 65.7087 94.8382 65.6149 94.8724Z" fill="#151515"/>
<path d="M55.3322 93.8228C54.9269 93.9252 54.5813 93.9508 54.304 94.0958C53.7194 94.403 53.3824 94.1385 53.0154 93.7118C51.5861 92.0564 50.4469 90.2345 49.6917 88.178C49.6277 88.003 49.5807 87.8238 49.5338 87.6404C49.521 87.5977 49.5466 87.5465 49.5552 87.4953C49.777 87.4654 49.8495 87.6574 49.969 87.7641C51.3301 89.027 52.8448 90.0638 54.4832 90.947C55.3365 91.4078 56.2837 91.459 57.1797 91.7108C59.1381 92.2612 61.0453 92.9566 62.8245 93.9593C63.345 94.2537 63.3408 94.2622 63.2554 94.9108C61.9114 94.322 60.5077 93.9892 59.0826 93.7161C58.1439 93.5369 57.2096 93.554 56.2752 93.6692C55.985 93.7033 55.7375 93.6521 55.4901 93.5198C54.4234 92.9652 53.4378 92.291 52.5589 91.4718C52.4479 91.3694 52.3327 91.1177 52.1578 91.3054C51.9914 91.4889 52.2474 91.5998 52.3541 91.7022C53.2117 92.547 54.2144 93.1913 55.3365 93.8142L55.3322 93.8228Z" fill="#151515"/>
<path d="M77.7194 58.6398C78.2826 60.8756 78.4448 63.1027 77.5317 65.3086C77.4805 65.4366 77.3141 65.603 77.5317 65.6969C77.7365 65.7822 77.7706 65.5518 77.8303 65.4281C78.4661 64.0713 78.5429 62.6249 78.4703 61.1657C78.4191 60.1588 78.2912 59.1561 77.8517 58.2302C77.7834 58.0852 77.8261 57.9699 77.8858 57.842C78.1077 57.3641 78.321 56.882 78.5685 56.3358C79.0976 57.2574 79.3365 58.2089 79.5413 59.1646C79.8058 60.3849 79.9509 61.6265 79.9338 62.8724C79.9082 65.0142 78.9098 66.6057 77.0453 67.6553C76.768 67.8132 76.4693 67.9625 76.0853 67.8388C76.4309 66.6441 76.6911 65.4324 76.6826 64.178C76.6783 63.5465 76.7082 62.9108 76.5717 62.2878C76.465 61.8014 76.5461 61.3662 76.7338 60.9054C77.0453 60.1545 77.2842 59.378 77.5573 58.6142C77.6085 58.6228 77.664 58.6313 77.7152 58.6398H77.7194Z" fill="#151515"/>
<path d="M51.2746 58.5033C51.6543 59.5657 52.017 60.5513 52.3584 61.5454C52.4053 61.6777 52.3455 61.8484 52.3242 61.9977C52.0511 63.9049 52.1578 65.778 52.7381 67.6212C52.7637 67.698 52.7722 67.7833 52.7978 67.8857C52.4053 67.9412 52.081 67.7961 51.7781 67.6212C49.9306 66.5502 48.9237 64.9502 48.9535 62.8041C48.9791 60.7689 49.2394 58.7636 50.0458 56.8606C50.1098 56.707 50.1909 56.5577 50.2847 56.3572C50.609 56.8777 50.7967 57.3982 51.0314 57.8932C51.1338 58.1065 50.9973 58.2516 50.9418 58.4222C50.1952 60.6836 50.1653 62.9449 50.9546 65.202C51.0229 65.3982 51.0783 65.7908 51.3557 65.667C51.6287 65.5476 51.3215 65.2873 51.249 65.1081C50.8863 64.2249 50.7839 63.2948 50.7242 62.3561C50.6431 61.0718 50.8565 59.4889 51.2789 58.499L51.2746 58.5033Z" fill="#151515"/>
<path d="M48.6677 63.8153C48.6805 63.858 48.6848 63.875 48.6933 63.8921C49.393 65.4494 48.864 67.0878 49.0133 68.6836C49.137 70.019 49.3546 71.3246 49.9306 72.5492C50.0245 72.7497 50.1184 72.9545 50.2506 73.1294C50.3616 73.2745 50.4298 73.6158 50.6602 73.4836C50.9375 73.3214 50.6176 73.138 50.5322 72.9929C49.7386 71.666 49.4613 70.194 49.3461 68.6878C49.2778 67.7876 49.2693 66.8788 49.4314 65.923C49.6917 66.2388 49.9093 66.5161 50.144 66.7764C50.2677 66.9129 50.2549 67.0494 50.2378 67.203C49.9221 70.194 50.9375 72.771 52.7082 75.1134C52.8533 75.3054 53.169 75.459 53.0282 75.7449C52.8874 76.0265 52.5546 76.0734 52.2645 76.082C51.3173 76.1161 50.5792 75.7108 50.0544 74.9342C48.9578 73.3129 48.4586 71.4654 47.9808 69.5966C47.52 67.7918 48.0789 66.1193 48.4629 64.4169C48.5056 64.2249 48.4757 63.9988 48.6677 63.8153Z" fill="#151515"/>
<path d="M79.4986 65.9102C79.6608 68.466 79.5968 70.8809 78.2741 73.091C78.2016 73.2105 78.0053 73.3428 78.193 73.4793C78.385 73.6158 78.4533 73.3897 78.5301 73.2788C79.2682 72.1908 79.5711 70.9492 79.7546 69.6777C79.9381 68.3849 79.9509 67.0878 79.7674 65.7908C79.729 65.5348 79.7418 65.2916 79.857 65.0441C80.0362 64.6601 80.1386 64.2462 80.2709 63.811C80.4373 64.5193 80.5568 65.2404 80.7829 65.9273C81.5168 68.1588 80.7829 70.2281 80.1258 72.306C79.8271 73.2489 79.3834 74.1321 78.8202 74.9513C78.2741 75.7449 77.2586 76.227 76.4394 76.0649C75.7567 75.9284 75.6842 75.7108 76.1109 75.1689C77.8005 73.0398 78.7989 70.6377 78.6794 67.8942C78.6453 67.0708 78.8544 66.5033 79.4986 65.9102Z" fill="#151515"/>
<path d="M94.2015 51.4548C93.4762 50.883 93.7066 50.179 93.8431 49.4878C94.2954 47.2094 97.0602 44.9097 99.4026 44.867C99.441 45.0249 99.313 45.1188 99.2405 45.2212C97.6789 47.5038 96.7615 50.034 96.2879 52.7433C96.2453 52.978 96.3221 53.3406 96.0618 53.4217C95.729 53.5241 95.3535 53.4814 94.9909 53.4942C94.9525 53.4942 94.8842 53.443 94.8842 53.4132C94.833 52.7774 94.321 52.2569 94.5173 51.5401C94.7647 50.6441 95.0719 49.7865 95.5583 48.9886C95.6309 48.8692 95.8143 48.707 95.6437 48.5876C95.4261 48.434 95.3621 48.6942 95.2853 48.8222C94.7775 49.6286 94.4362 50.5118 94.2058 51.4505L94.2015 51.4548Z" fill="#151515"/>
<path d="M34.6858 51.5657C34.4511 50.5502 34.0928 49.6585 33.5765 48.8308C33.504 48.7156 33.4357 48.4852 33.2479 48.6046C33.0687 48.7198 33.2309 48.882 33.3034 49.0057C33.8111 49.8292 34.1397 50.7166 34.3743 51.651C34.5408 52.3209 34.1183 52.8372 33.9647 53.4132C33.905 53.6393 33.4399 53.4601 33.1626 53.4814C32.8554 53.507 32.6848 53.4132 32.625 53.0505C32.1557 50.1108 31.1616 47.3716 29.3952 44.914C29.6597 44.8158 29.8773 44.9225 30.0949 44.9737C32.4074 45.5198 34.0373 46.8766 34.8949 49.1038C35.0741 49.5732 35.185 50.0937 35.2149 50.5972C35.2362 50.9428 34.9247 51.2201 34.6943 51.57L34.6858 51.5657Z" fill="#151515"/>
<path d="M43.7653 85.7161C42.7882 85.7673 42.3744 85.5284 42.0074 84.6793C40.561 81.3598 39.4986 77.9081 38.5087 74.435C38.4234 74.1406 38.5173 74.0382 38.7434 73.9358C39.0037 73.8164 39.2725 73.539 39.5114 73.5689C39.8186 73.6073 39.7205 74.0382 39.8143 74.2857C40.8298 77.0121 41.7727 79.7684 42.8437 82.482C43.2533 83.5145 43.3984 84.6537 43.7696 85.7204L43.7653 85.7161Z" fill="#151515"/>
<path d="M85.1434 85.7033C86.0821 81.7566 87.7802 78.1044 89.0517 74.307C89.137 74.0468 89.1071 73.586 89.3333 73.5689C89.6064 73.5433 89.9008 73.8292 90.1952 73.9657C90.4128 74.0638 90.4298 74.1833 90.3658 74.4052C89.3674 77.9209 88.2794 81.4068 86.8245 84.7646C86.5088 85.49 86.2101 85.6478 85.1434 85.7033Z" fill="#151515"/>
<path d="M31.9338 56.0585C30.6965 55.9817 29.664 55.6105 28.6869 55.0558C28.5973 55.0046 28.5077 54.9577 28.4181 54.9022C28.3114 54.834 28.1877 54.77 28.1066 54.9108C28.0213 55.0558 28.1621 55.1156 28.2602 55.1796C29.1264 55.7086 30.0437 56.1182 31.0549 56.2804C31.4816 56.3486 31.9125 56.3828 32.3477 56.4724C31.7589 56.7796 31.1872 57.0782 30.769 57.5902C30.6922 57.6884 30.6154 57.6756 30.5045 57.6628C28.3072 57.3982 26.3957 55.6404 25.9477 53.4644C25.9264 53.362 25.9008 53.2638 25.9008 53.1614C25.8922 52.8585 25.8197 52.5086 26.097 52.2996C26.3786 52.0862 26.6048 52.3892 26.8352 52.4958C27.9061 53.0036 29.0282 53.3492 30.1802 53.618C30.4704 53.6862 30.6282 53.81 30.7221 54.1172C30.9397 54.8254 31.409 55.4014 31.9338 56.0585Z" fill="#151515"/>
<path d="M96.9621 56.0542C97.4997 55.3246 98.033 54.6889 98.2378 53.874C98.2848 53.6862 98.4298 53.7033 98.5493 53.6734C99.8677 53.315 101.19 52.9737 102.394 52.2953C102.714 52.1161 102.884 52.3038 102.948 52.5982C103.042 53.0121 102.974 53.4217 102.837 53.81C102.108 55.9433 100.674 57.2702 98.4127 57.6414C98.2933 57.6628 98.1994 57.7182 98.1013 57.5902C97.6874 57.074 97.1157 56.771 96.4629 56.4894C96.864 56.2718 97.2522 56.3742 97.6106 56.3188C98.6389 56.1524 99.5818 55.7769 100.474 55.2521C100.606 55.1753 100.87 55.1198 100.755 54.9108C100.631 54.6846 100.452 54.8979 100.324 54.9748C99.3045 55.5636 98.2336 55.9774 96.9578 56.05L96.9621 56.0542Z" fill="#151515"/>
<path d="M51.6714 68.0094C52.1919 68.082 52.3925 68.3038 52.401 68.8158C52.4223 69.7545 52.8277 70.5993 53.2458 71.4228C53.9839 72.8692 55.0293 74.0894 56.1386 75.2585C56.5013 75.6382 56.4842 75.779 55.9935 75.9028C55.0805 76.1332 54.1247 76.163 53.4549 75.4206C51.4154 73.1678 50.3317 70.5353 50.5493 67.4462C50.5493 67.3993 50.5663 67.3524 50.5791 67.2969C51.1466 67.5017 51.3429 67.8942 51.3941 68.4873C51.5434 70.2452 52.0298 71.9049 53.0154 73.394C53.0709 73.4793 53.1221 73.5732 53.1903 73.6457C53.2842 73.7481 53.3397 73.9785 53.5317 73.8505C53.7322 73.714 53.5317 73.5774 53.4549 73.4708C52.7935 72.5406 52.3456 71.5124 52.0597 70.4158C51.8591 69.6393 51.7055 68.8542 51.6757 68.0094H51.6714Z" fill="#151515"/>
<path d="M78.2954 67.2841C78.4746 68.5129 78.321 69.7033 77.984 70.8638C77.5189 72.4681 76.7509 73.923 75.6544 75.1902C75.0144 75.9284 73.8111 76.2441 72.8938 75.9156C72.3818 75.7321 72.3562 75.6553 72.7189 75.2713C73.8111 74.1108 74.8522 72.9161 75.5903 71.4868C76.0767 70.5396 76.4949 69.5668 76.5077 68.4788C76.5162 67.9796 76.9813 68.2228 77.1605 67.9924C77.0666 69.8953 76.6186 71.6574 75.5776 73.2404C75.5136 73.3385 75.4367 73.4324 75.3727 73.5348C75.313 73.6286 75.185 73.731 75.3258 73.8419C75.4965 73.9742 75.5647 73.8036 75.6415 73.7012C76.2218 72.9289 76.6357 72.0713 76.9343 71.1582C77.2245 70.2793 77.4549 69.379 77.4805 68.4574C77.4975 67.8601 77.7621 67.523 78.2954 67.2841Z" fill="#151515"/>
<path d="M87.089 84.9822C88.5311 81.6414 89.6191 78.1812 90.6133 74.6868C90.7285 74.2814 90.8522 74.307 91.1509 74.4606C92.1365 74.9684 92.145 74.9598 91.8421 76.0308C91.1509 78.4628 90.3189 80.8478 89.4271 83.2158C89.2522 83.6852 89.0005 84.0436 88.561 84.291C88.1002 84.547 87.6821 84.8841 87.1786 85.059L87.089 84.9822Z" fill="#151515"/>
<path d="M41.6703 85.106C41.0431 84.8244 40.4842 84.4318 39.9125 84.0564C39.7247 83.9326 39.6437 83.7577 39.5712 83.57C38.5429 80.8734 37.5743 78.1598 36.8405 75.3652C36.7551 75.0324 36.8405 74.9172 37.1093 74.7806C38.1247 74.2644 38.1162 74.2558 38.4234 75.3353C39.3621 78.6164 40.4288 81.8548 41.7557 84.9993C41.7258 85.0377 41.6959 85.0718 41.6661 85.1102L41.6703 85.106Z" fill="#151515"/>
<path d="M47.4261 67.4676C47.4986 69.6948 48.0703 71.7513 48.9663 73.7225C49.1199 74.0638 49.2949 74.4009 49.5039 74.7081C49.7173 75.0196 49.5935 75.1476 49.3119 75.2798C48.4586 75.6681 47.2725 75.3396 46.6453 74.5204C46.1247 73.8462 45.9455 73.0441 45.8346 72.2292C45.6639 70.9876 45.681 69.7417 45.6938 68.4916C45.6981 67.954 46.0565 68.1246 46.3167 68.0777C46.7007 68.0052 46.5642 68.3166 46.5685 68.4745C46.6026 69.6948 46.7519 70.8937 47.0549 72.0756C47.0933 72.2292 47.0677 72.4894 47.3023 72.4297C47.537 72.37 47.3962 72.1268 47.3621 71.986C47.0634 70.7828 46.9354 69.5668 46.8927 68.3294C46.8799 67.9028 47.0549 67.6766 47.4261 67.4676Z" fill="#151515"/>
<path d="M81.4399 67.4932C81.8879 67.6809 81.9903 67.9625 81.9775 68.3721C81.9349 69.5369 81.8325 70.6889 81.5423 71.8196C81.521 71.9006 81.5039 71.986 81.4954 72.0713C81.4783 72.2121 81.3717 72.4126 81.6063 72.4425C81.7728 72.4638 81.777 72.2676 81.8111 72.1396C82.1055 70.9406 82.2719 69.7246 82.3061 68.4916C82.3103 68.338 82.1482 68.0094 82.5365 68.0777C82.7839 68.1204 83.1679 67.9156 83.1722 68.466C83.1935 70.0745 83.2405 71.683 82.8266 73.2489C82.5194 74.3966 81.8922 75.2628 80.5952 75.4121C80.4458 75.4292 80.2879 75.4292 80.1343 75.4121C79.2383 75.3097 79.1615 75.1433 79.5626 74.3838C80.6421 72.3358 81.2949 70.1598 81.4229 67.8388C81.4272 67.7406 81.4314 67.6425 81.4399 67.4932Z" fill="#151515"/>
<path d="M45.2927 68.8798C45.3866 69.6009 45.3354 70.1428 44.8277 70.6633C43.9658 71.5465 43.1338 72.451 42.0927 73.1337C41.9733 73.2148 41.7045 73.3001 41.8666 73.5006C42.0117 73.6798 42.1738 73.4622 42.3018 73.3769C43.1295 72.8222 43.889 72.1865 44.5461 71.4356C44.7765 71.171 45.0197 70.9108 45.3183 70.5865C45.3951 71.2564 45.4634 71.8409 45.5231 72.4254C45.5317 72.5022 45.5103 72.6003 45.4677 72.6686C44.657 74.0681 43.4623 75.1817 41.6021 75.0665C40.7103 75.011 40.1301 74.5332 39.9978 73.7566C39.9551 73.5049 39.9978 73.3385 40.2538 73.1721C41.1157 72.6217 41.9562 72.0329 42.7882 71.4356C43.7439 70.7486 44.5973 69.9422 45.2842 68.8841L45.2927 68.8798Z" fill="#151515"/>
<path d="M83.552 70.5652C84.3882 71.4996 85.1477 72.3828 86.112 73.0441C86.2954 73.1721 86.4704 73.3044 86.6581 73.4281C86.7648 73.5006 86.9056 73.6414 87.0122 73.4964C87.153 73.3086 86.9269 73.2446 86.8202 73.155C86.7178 73.0654 86.6026 72.9929 86.4874 72.9161C85.3909 72.1865 84.5418 71.1966 83.6885 70.2196C83.3685 69.8484 83.6245 69.3961 83.5306 68.9822C83.7226 68.9396 83.7269 69.1017 83.7824 69.1785C84.5034 70.2025 85.4421 70.9918 86.4533 71.7001C87.1786 72.2078 87.9082 72.7156 88.6592 73.1934C88.8853 73.3342 88.9024 73.4878 88.8768 73.7012C88.7701 74.5033 88.177 75.0025 87.264 75.058C85.3824 75.1689 84.192 74.0212 83.4026 72.6516C83.3557 72.5705 83.3472 72.4553 83.3557 72.3572C83.4112 71.7982 83.4752 71.2393 83.552 70.5609V70.5652Z" fill="#151515"/>
<path d="M86.3552 62.3732C86.9482 62.13 87.5199 62.1001 87.9594 61.7417C88.0874 61.6393 88.2154 61.7929 88.3306 61.8484C89.3802 62.3561 90.4853 62.5993 91.6544 62.5609C91.7781 62.5609 91.9743 62.6206 91.9871 62.4286C91.9999 62.194 91.7866 62.2409 91.6458 62.2452C90.6389 62.275 89.6746 62.0788 88.7487 61.6905C88.433 61.5582 88.1429 61.443 88.4415 61.0164C88.5311 60.8884 88.5141 60.6878 88.5525 60.4916C89.8751 60.8926 91.2192 61.1614 92.5973 61.2468C92.9728 61.2724 93.3525 61.3193 93.7237 61.2937C94.0906 61.2681 94.193 61.4516 94.2485 61.7502C94.4277 62.7614 93.8261 63.5294 92.7637 63.666C90.5151 63.9561 88.4586 63.3118 86.3594 62.3774L86.3552 62.3732Z" fill="#151515"/>
<path d="M42.4938 62.3817C40.8853 63.1326 39.2895 63.6489 37.5871 63.7385C36.9642 63.7684 36.3242 63.73 35.7098 63.5593C35.0442 63.3758 34.6474 62.8852 34.6047 62.2494C34.5535 61.4601 34.6944 61.3236 35.4709 61.2937C36.9898 61.2382 38.4917 61.0292 39.9509 60.5854C40.1856 60.5129 40.4202 60.4105 40.3818 60.8286C40.3605 61.0505 40.672 61.2766 40.544 61.4302C40.3818 61.618 40.0831 61.7076 39.8314 61.8014C39.0079 62.1086 38.1546 62.2665 37.2714 62.2409C37.1306 62.2409 36.9002 62.1769 36.8917 62.386C36.8789 62.6548 37.1391 62.5524 37.2799 62.5566C38.4277 62.5865 39.5199 62.3518 40.5482 61.8356C40.7487 61.7332 40.8981 61.699 41.0986 61.8526C41.4826 62.1556 42.0031 62.1385 42.4938 62.3774V62.3817Z" fill="#151515"/>
<path d="M84.1578 57.0356C84.9514 57.5262 85.7152 57.9358 86.5642 58.1492C86.6453 58.1705 86.7264 58.2046 86.8117 58.2174C86.9226 58.2345 87.0805 58.2985 87.1274 58.1534C87.1914 57.9657 87.0208 57.9401 86.8842 57.906C86.001 57.6756 85.1989 57.283 84.4181 56.8094C83.8549 56.4681 83.8592 55.8708 83.5477 55.3332C84.5247 55.602 85.4378 55.8708 86.3552 56.1012C86.9696 56.2548 87.5925 56.3657 88.2154 56.4638C88.8128 56.562 89.329 57.1166 89.4826 57.8846C89.5722 58.3369 89.2949 58.8574 88.7957 59.1518C88.4671 59.3481 88.1087 59.4633 87.729 59.4505C86.7178 59.4164 85.7194 59.2926 84.7637 58.9257C84.5119 58.8276 84.3882 58.7038 84.3711 58.4137C84.3413 57.9742 84.2431 57.5433 84.1621 57.0356H84.1578Z" fill="#151515"/>
<path d="M45.2629 55.3417C44.9685 57.0356 43.5648 57.3172 42.3274 57.8206C42.1226 57.9017 41.696 57.8547 41.7685 58.115C41.8538 58.4307 42.1994 58.179 42.4213 58.1193C43.2192 57.906 43.9445 57.5348 44.7082 57.0313C44.6229 57.6329 44.5504 58.1534 44.4693 58.6782C44.4565 58.7721 44.3797 58.8148 44.2944 58.8446C43.0997 59.3012 41.8752 59.5913 40.5909 59.3524C39.9552 59.2329 39.52 58.8318 39.3834 58.179C39.2896 57.731 39.7802 56.8478 40.2282 56.5705C40.4458 56.434 40.6933 56.4724 40.9237 56.434C42.3957 56.2078 43.808 55.7513 45.2629 55.3374V55.3417Z" fill="#151515"/>
<path d="M88.6037 47.0473C90.3359 47.2222 93.7919 50.2217 94.5215 53.4814C94.4789 53.4942 94.4319 53.5241 94.3893 53.5241C93.6981 53.5497 93.2358 53.2382 93.0026 52.5897C92.785 51.9924 92.5077 51.4292 92.0725 50.9556C91.9786 50.8532 91.872 50.7209 91.7354 50.8702C91.6245 50.994 91.7695 51.0836 91.8378 51.1689C92.4053 51.8345 92.7167 52.6153 92.9258 53.5198C92.5503 53.5028 92.2175 53.4772 91.8805 53.4686C91.5349 53.4601 91.5519 53.1614 91.4837 52.9566C90.8138 50.866 89.8666 48.9076 88.5994 47.0516L88.6037 47.0473Z" fill="#151515"/>
<path d="M35.9573 53.4985C36.145 52.675 36.4394 51.9412 36.9471 51.2969C37.0367 51.1817 37.3013 51.0537 37.105 50.8873C36.8874 50.7038 36.7893 50.994 36.6869 51.1134C36.2303 51.6596 35.9146 52.291 35.7653 52.9822C35.6629 53.4516 35.4453 53.5582 34.9973 53.5369C34.2634 53.4985 34.2463 53.5198 34.5279 52.8244C35.5477 50.3284 37.1818 48.3913 39.6522 47.218C39.8314 47.1326 40.0234 47.0686 40.3306 46.9492C40.1898 47.1796 40.1173 47.299 40.0405 47.4185C38.9482 49.0654 38.0949 50.8276 37.4805 52.7006C37.2287 53.4729 37.233 53.4729 36.3882 53.4942C36.2517 53.4942 36.1194 53.4942 35.953 53.4942L35.9573 53.4985Z" fill="#151515"/>
<path d="M39.0506 83.2372C37.3824 82.1193 35.9914 80.8051 35.5391 78.7614C35.3343 77.8484 35.0271 76.9566 34.7626 76.0564C34.6815 75.7833 34.6474 75.5913 35.0527 75.5529C35.4026 75.523 35.7525 75.3908 36.081 75.25C36.3583 75.1305 36.4522 75.1689 36.529 75.4676C37.1818 78.0361 38.0693 80.5236 38.9823 83.0068C39.0079 83.0836 39.0293 83.1604 39.0506 83.2372Z" fill="#151515"/>
<path d="M51.825 98.9001C48.3648 98.4734 46.0138 96.3657 44.0426 93.6478C44.721 93.7801 45.3951 93.9252 46.0735 94.0404C46.2783 94.0745 46.3509 94.2068 46.4405 94.3518C47.1487 95.5038 48.0959 96.434 49.1413 97.2745C49.2565 97.3641 49.3973 97.5988 49.5552 97.3769C49.6704 97.2105 49.4528 97.1209 49.3418 97.0313C48.3477 96.2164 47.4389 95.3246 46.6879 94.1556C47.2853 94.2878 47.793 94.403 48.3008 94.5182C48.4842 94.5609 48.5781 94.6932 48.6677 94.8468C49.5295 96.3358 50.5493 97.6926 51.825 98.8958V98.9001Z" fill="#151515"/>
<path d="M84.8362 93.6222C83.505 95.9902 79.6437 98.9428 77.0026 98.8873C77.0197 98.8404 77.0282 98.7849 77.0581 98.7593C78.3295 97.6414 79.345 96.3145 80.1855 94.851C80.3093 94.6334 80.4501 94.4969 80.7274 94.4542C81.1754 94.3902 81.6149 94.2494 82.1696 94.1172C81.6832 94.9364 81.1285 95.5465 80.5269 96.1182C80.1813 96.4468 79.8058 96.7497 79.4474 97.0654C79.3664 97.138 79.217 97.2062 79.3109 97.3513C79.4304 97.5305 79.5498 97.394 79.6479 97.3129C80.7018 96.4809 81.6533 95.5508 82.3744 94.4073C82.545 94.1385 82.7157 93.9892 83.0485 93.9508C83.6288 93.8825 84.2048 93.7417 84.832 93.6222H84.8362Z" fill="#151515"/>
<path d="M89.7685 83.378C90.353 81.6798 90.9077 80.131 91.424 78.5652C91.7568 77.5454 92.0341 76.5086 92.3327 75.4761C92.401 75.2372 92.4479 75.0878 92.7679 75.2329C93.1221 75.395 93.5104 75.4974 93.8943 75.5657C94.1546 75.6126 94.2058 75.7065 94.1376 75.9326C93.6938 77.4516 93.3183 78.9918 92.6826 80.451C92.4053 81.091 91.8848 81.5049 91.4154 81.97C90.9333 82.4478 90.4255 82.9001 89.7727 83.378H89.7685Z" fill="#151515"/>
<path d="M80.5823 63.5465C81.201 63.9604 81.7301 64.2633 82.3786 64.2164C82.5792 64.2036 82.5493 64.3956 82.5664 64.5193C82.6602 65.1294 82.6474 65.7481 82.6303 66.3625C82.6303 66.4734 82.5621 66.6313 82.7327 66.6569C82.929 66.6868 82.9376 66.5161 82.9418 66.3838C82.9802 65.7694 82.9802 65.1508 82.8949 64.5406C82.8522 64.2548 82.8992 64.1097 83.1765 63.9945C83.8293 63.7214 84.1706 63.1497 84.4394 62.5396C84.5077 62.5609 84.5632 62.5737 84.5632 62.5822C84.6229 63.8281 84.6912 65.0782 84.4864 66.3156C84.3498 67.139 83.7824 67.6724 83.0442 67.7705C82.4384 67.8516 81.7386 67.395 81.3973 66.6868C80.9877 65.8334 80.9066 64.8905 80.6805 63.986C80.6591 63.8921 80.6378 63.8025 80.5781 63.5508L80.5823 63.5465Z" fill="#151515"/>
<path d="M48.1685 63.6702C47.9978 64.7838 47.9125 65.8932 47.3706 66.883C47.0506 67.4633 46.5258 67.8089 45.8645 67.7577C45.1306 67.7065 44.6058 67.25 44.4394 66.546C44.1279 65.2318 44.2815 63.8878 44.3967 62.5396C44.593 62.8468 44.7808 63.154 44.9855 63.4526C45.0624 63.5636 45.1648 63.6958 45.28 63.73C46.0565 63.9646 46.0053 64.5449 45.937 65.1721C45.8943 65.5604 45.9242 65.9572 45.9285 66.3497C45.9285 66.4862 45.9285 66.6654 46.112 66.6612C46.321 66.6612 46.2485 66.4692 46.2442 66.3454C46.2272 65.7481 46.2186 65.1465 46.2997 64.5534C46.321 64.3956 46.2912 64.195 46.5642 64.2078C47.153 64.2377 47.6608 64.0158 48.1685 63.6702Z" fill="#151515"/>
<path d="M64.6805 96.6046C65.1797 96.3401 65.5509 96.5108 65.952 96.7582C67.0229 97.4324 68.2773 97.6158 69.4634 97.9742C70.6069 98.3156 71.7503 98.6612 72.9023 98.9812C73.1967 99.0622 73.201 99.1476 73.0687 99.3908C72.4544 100.509 72.4586 100.521 71.2127 100.172C69.6981 99.7449 68.2176 99.2201 66.8266 98.4777C65.9733 98.0212 65.248 97.411 64.6762 96.6089L64.6805 96.6046Z" fill="#151515"/>
<path d="M64.1898 96.6302C63.4986 97.6201 62.5983 98.2814 61.5658 98.7636C60.081 99.4548 58.545 100.014 56.945 100.393C56.561 100.483 56.369 100.398 56.177 100.056C55.6309 99.0836 55.6181 99.1049 56.6805 98.8062C58.2378 98.371 59.7909 97.923 61.344 97.475C61.937 97.3044 62.5173 97.0868 63.0208 96.7369C63.3962 96.4766 63.7375 96.434 64.1898 96.6302Z" fill="#151515"/>
<path d="M42.4213 41.5817C42.5365 42.0041 42.2208 42.546 42.784 42.8617C41.0048 43.8644 39.7546 45.3577 38.5557 46.898C38.0736 47.5166 37.5999 48.1353 36.9813 48.6345C36.4394 49.074 36.0127 49.6372 35.5391 50.2302C35.4325 49.923 35.3642 49.6884 35.5178 49.4196C37.1989 46.467 39.2682 43.843 42.0032 41.7822C42.097 41.7097 42.1994 41.6457 42.3018 41.586C42.3274 41.5732 42.3658 41.586 42.4213 41.586V41.5817Z" fill="#151515"/>
<path d="M86.0949 42.8318C86.6026 42.482 86.3936 41.987 86.4362 41.5134C86.7178 41.5604 86.9098 41.7566 87.1103 41.9145C89.6959 43.9497 91.7056 46.4756 93.3311 49.3214C93.4847 49.5902 93.4591 49.8292 93.3781 50.098C93.2074 50.1449 93.1818 49.9913 93.1093 49.9145C93.0154 49.8164 92.9471 49.6884 92.849 49.5988C91.3642 48.2292 90.1653 46.6078 88.8384 45.0974C88.0618 44.21 87.1871 43.4292 86.0949 42.8404V42.8318Z" fill="#151515"/>
<path d="M84.8064 92.3166C84.9386 92.4318 85.2928 92.1076 85.2885 92.4958C85.2885 92.803 85.3098 93.1828 84.8192 93.2724C82.72 93.6478 80.6208 94.0446 78.577 94.6804C78.5301 94.6974 78.4704 94.6932 78.4277 94.7188C77.5317 95.2692 76.721 94.9236 75.9018 94.5012C75.6885 94.3902 75.6928 94.3348 75.8336 94.1854C76.0341 93.9764 76.2303 93.8014 76.5461 93.7332C79.2639 93.1273 81.9946 92.5684 84.8021 92.3166H84.8064Z" fill="#151515"/>
<path d="M53.1434 94.3604C52.1578 95.2308 51.1423 95.0473 50.033 94.6676C48.1429 94.0233 46.1717 93.6862 44.2047 93.3449C43.9701 93.3065 43.7525 93.2894 43.6543 92.9865C43.4623 92.3806 43.505 92.3166 44.1365 92.3678C46.9354 92.5982 49.6661 93.1956 52.401 93.7844C52.7722 93.8654 52.9514 94.1513 53.1434 94.3604Z" fill="#151515"/>
<path d="M85.6981 62.4756C86.368 62.7486 87.0421 63.0217 87.712 63.2905C87.9338 63.3801 88.1557 63.4996 88.3861 63.5209C88.9151 63.5721 88.945 63.9006 88.8938 64.306C88.7743 65.2788 88.1983 65.9572 87.3792 66.1406C86.3039 66.3838 85.7066 65.8121 85.0368 65.027C84.9386 64.9118 84.9728 64.7668 84.9685 64.6345C84.9514 64.0713 84.9301 63.5081 84.9215 62.9449C84.9215 62.8212 84.8234 62.6548 84.9813 62.578C85.1306 62.5012 85.2287 62.6462 85.3226 62.7444C85.9199 63.3545 86.513 63.9732 86.9568 64.7113C87.0378 64.8436 87.0975 65.1081 87.3024 64.9972C87.5114 64.882 87.3109 64.69 87.2341 64.5577C86.8074 63.811 86.2101 63.2052 85.6981 62.4841V62.4756Z" fill="#151515"/>
<path d="M43.3045 62.514C42.7285 63.1412 42.1866 63.683 41.7727 64.3358C41.7002 64.451 41.6277 64.5662 41.5637 64.6857C41.5039 64.7924 41.4357 64.9246 41.5765 64.9972C41.7088 65.0654 41.7856 64.946 41.8496 64.8308C42.272 64.0756 42.8565 63.4526 43.4538 62.8382C43.5263 62.7657 43.5989 62.6932 43.6714 62.6206C43.7397 62.5524 43.825 62.5268 43.9061 62.5652C43.9999 62.6078 43.9701 62.7102 43.9658 62.7913C43.9487 63.4569 43.9488 64.1268 43.9018 64.7924C43.8634 65.3641 42.6261 66.243 41.9434 66.2004C40.5226 66.1108 39.9509 65.0782 39.9722 63.8793C39.9722 63.7385 40.0191 63.666 40.1557 63.6276C41.1626 63.3502 42.1183 62.9406 43.0613 62.5012C43.0997 62.4841 43.1551 62.5054 43.3002 62.5182L43.3045 62.514Z" fill="#151515"/>
<path d="M59.0485 75.0196C58.4981 75.4548 57.201 75.5572 56.6421 75.0964C54.6837 73.4793 53.3141 71.4654 52.7381 68.9652C52.6911 68.7604 52.576 68.3934 52.8064 68.3209C53.1136 68.2313 53.0922 68.6281 53.1776 68.8201C54.3509 71.4142 56.1728 73.4025 58.6773 74.7593C58.8096 74.8318 58.9717 74.866 59.0485 75.0196Z" fill="#151515"/>
<path d="M69.7962 74.9854C70.6453 74.5246 71.4645 74.0382 72.2026 73.4281C73.7727 72.131 74.9632 70.5524 75.744 68.6708C75.7781 68.594 75.808 68.5129 75.8421 68.4361C75.8848 68.3252 75.9615 68.2654 76.0767 68.2996C76.1877 68.3337 76.1493 68.4361 76.1535 68.5129C76.1791 68.9822 76.0639 69.4302 75.9103 69.8612C75.2234 71.794 74.0885 73.4366 72.5909 74.8276C71.8485 75.5188 70.5045 75.5785 69.792 74.9854H69.7962Z" fill="#151515"/>
<path d="M52.2901 93.4132C51.0229 93.1572 49.8581 92.914 48.689 92.6878C47.1274 92.3849 45.5573 92.1588 43.9743 92.0265C43.7951 92.0094 43.4922 92.1502 43.5477 91.7364C43.5861 91.4505 43.6287 91.2756 43.9957 91.2884C45.5359 91.3438 47.0677 91.4633 48.5909 91.6596C49.2693 91.7449 49.9349 91.9028 50.6133 91.971C51.1551 92.0265 51.5306 92.2526 51.7866 92.7305C51.9018 92.9481 52.081 93.1358 52.2901 93.4174V93.4132Z" fill="#151515"/>
<path d="M76.5845 93.379C76.9045 92.9396 77.1605 92.5982 77.4037 92.2526C77.4975 92.1161 77.6213 92.0521 77.7834 92.0222C80.1386 91.5614 82.5152 91.3353 84.913 91.2457C85.2672 91.2329 85.2927 91.4206 85.3269 91.6766C85.3653 91.9412 85.2501 91.9924 85.0154 92.0052C82.3274 92.1545 79.7077 92.7262 77.0837 93.2852C76.9514 93.315 76.8191 93.3364 76.5802 93.379H76.5845Z" fill="#151515"/>
<path d="M44.3584 59.2286C44.5376 59.843 44.2432 60.163 43.7354 60.402C43.232 60.6366 42.7157 60.786 42.1696 60.8585C42.0544 60.8756 41.8922 60.8585 41.9093 61.0292C41.9263 61.2211 42.0927 61.1913 42.2293 61.1785C42.9503 61.0974 43.6202 60.8713 44.3071 60.4446C44.3071 61.0206 44.3071 61.5369 44.3071 62.0532C44.3071 62.2366 44.1919 62.2323 44.0682 62.2281C43.1125 62.1854 42.1909 61.9721 41.3162 61.5924C41.0261 61.4644 40.8554 61.1913 40.7488 60.8969C40.544 60.3252 40.8938 59.7876 41.4912 59.7747C41.9904 59.7662 42.481 59.7022 42.9632 59.6083C43.4282 59.5145 43.8805 59.3652 44.3626 59.2329L44.3584 59.2286Z" fill="#151515"/>
<path d="M84.5717 60.4702C85.1733 60.786 85.7536 61.0718 86.4064 61.1358C86.5941 61.1529 86.9013 61.3193 86.9397 61.0676C86.9909 60.739 86.6154 60.8628 86.4405 60.8286C85.9669 60.739 85.5232 60.5812 85.088 60.3806C84.5845 60.1502 84.3498 59.8046 84.5248 59.2073C85.5274 59.5956 86.5813 59.7492 87.6522 59.7961C88.0234 59.8132 88.2922 60.4105 88.1471 60.8542C88.032 61.2041 87.8229 61.5156 87.4688 61.6436C86.641 61.9508 85.792 62.194 84.9002 62.2281C84.7338 62.2323 84.5546 62.2793 84.5674 61.9892C84.5888 61.4985 84.5717 61.0078 84.5717 60.4702Z" fill="#151515"/>
<path d="M45.6896 39.6318C45.9712 39.6617 46.4447 39.6062 46.6069 39.8964C46.7263 40.114 46.4021 40.4724 46.2314 40.7454C45.5914 41.7481 44.6997 42.3796 43.5136 42.563C42.8437 42.6654 42.6346 42.4137 42.865 41.795C43.2746 40.69 44.6314 39.6233 45.6896 39.6318Z" fill="#151515"/>
<path d="M85.5018 42.5246C84.2133 42.482 82.6559 41.2617 82.2805 40.0201C82.2293 39.8452 82.2464 39.7769 82.4213 39.73C82.9418 39.5849 83.4709 39.4996 83.9786 39.7172C84.9429 40.1353 85.6298 40.8521 86.0266 41.8206C86.2485 42.3582 86.0863 42.5417 85.5061 42.5246H85.5018Z" fill="#151515"/>
<path d="M49.0986 37.8313C49.7728 36.6878 50.8693 36.2782 52 36.7006C52.2474 36.7945 52.2986 36.8841 52.2218 37.1444C51.8805 38.2878 51.0144 39.0089 49.8154 39.1326C49.504 39.1625 49.3717 39.1625 49.5167 38.7742C49.7642 38.1129 49.7386 38.1001 49.0986 37.827V37.8313Z" fill="#151515"/>
<path d="M79.4559 39.09C78.0693 39.1497 76.9983 38.3604 76.6442 37.0718C76.5887 36.867 76.6058 36.7774 76.8021 36.6878C77.7877 36.2526 79.0634 36.6324 79.6479 37.5497C79.7077 37.6436 79.8442 37.7886 79.6693 37.8398C78.9013 38.0532 79.3194 38.514 79.4218 38.9108C79.4346 38.9577 79.4389 39.0089 79.4517 39.09H79.4559Z" fill="#151515"/>
<path d="M52.32 37.8996C52.6016 37.0604 52.4792 36.5328 51.953 36.3166C52.5632 35.3652 53.6426 35.0452 54.6709 35.4846C54.9354 35.5956 54.8757 35.7406 54.8288 35.9284C54.5301 37.1657 53.6853 37.8484 52.32 37.9038V37.8996Z" fill="#151515"/>
<path d="M76.9002 36.2697C76.3797 36.4972 76.2645 37.0178 76.5546 37.8313C75.377 37.9764 74.016 36.8414 74.0032 35.7108C74.0032 35.5913 74.0373 35.5358 74.1397 35.4761C75.0229 34.9556 76.3711 35.3396 76.9002 36.274V36.2697Z" fill="#151515"/>
<path d="M82.7584 39.2777C82.1127 39.4199 81.8865 39.8466 82.0799 40.5577C80.8981 40.4852 79.921 39.6489 79.6352 38.5097C79.5626 38.2281 79.7077 38.194 79.8912 38.13C80.9834 37.7417 82.0501 38.1556 82.7626 39.2777H82.7584Z" fill="#151515"/>
<path d="M46.7349 40.6473C46.9966 40.0187 46.8031 39.5607 46.1546 39.2734C46.7861 38.2196 47.8442 37.8057 48.9493 38.1556C49.2394 38.2452 49.3247 38.3518 49.2181 38.6548C48.8042 39.8025 48.0191 40.4766 46.7391 40.6473H46.7349Z" fill="#151515"/>
<path d="M65.2522 95.0174C65.2522 95.1028 65.2608 95.1881 65.2522 95.2734C65.2138 95.5678 65.4101 95.9732 65.1498 96.1396C64.7914 96.37 64.3264 96.2718 63.8997 96.2206C63.6693 96.1908 63.6565 96.0286 63.6565 95.8452C63.6565 95.3673 63.6949 94.8852 63.648 94.4116C63.5968 93.9337 63.8229 93.81 64.224 93.8057C64.2752 93.8057 64.3264 93.8014 64.3776 93.7972C65.2224 93.7716 65.2565 93.8014 65.2565 94.6505C65.2565 94.77 65.2565 94.8894 65.2565 95.0089L65.2522 95.0174Z" fill="#151515"/>
<path d="M53.8602 37.874C54.4703 37.1998 55.3365 37.2084 56.0746 37.0078C56.5994 36.8628 57.201 37.3108 57.649 37.7161C57.8453 37.8953 57.5807 37.9806 57.4869 38.0404C56.6079 38.5993 55.665 38.6548 54.7008 38.3049C54.4192 38.2025 54.1589 38.0318 53.8645 37.8782L53.8602 37.874Z" fill="#151515"/>
<path d="M74.9888 37.8313C74.0672 38.4585 73.073 38.6718 71.9893 38.3006C71.6693 38.1897 71.2255 38.0788 71.2 37.7502C71.1786 37.507 71.6309 37.3833 71.8954 37.2382C72.3904 36.9694 72.8597 36.85 73.4229 37.1401C73.9306 37.4004 74.609 37.2937 74.9888 37.8356V37.8313Z" fill="#151515"/>
<path d="M50.8096 40.8308C50.2378 40.8094 49.6917 40.6857 49.184 40.4297C49.0176 40.3444 48.6847 40.2889 48.7615 40.0926C48.8469 39.8665 49.0048 39.5337 49.265 39.4868C50.2805 39.3161 51.2874 39.2606 52.1834 39.9518C52.4138 40.131 52.4309 40.2249 52.2047 40.3956C51.7909 40.707 51.3088 40.7966 50.8096 40.8308Z" fill="#151515"/>
<path d="M77.4719 39.0004C76.4522 39.6105 75.3727 39.8068 74.2335 39.2862C73.7685 39.0729 73.7685 38.9833 74.1738 38.6932C74.2975 38.6036 74.4469 38.5438 74.5578 38.4414C75.2447 37.8014 76.0426 38.1556 76.7807 38.2537C77.0282 38.2878 77.2245 38.723 77.4719 39.0046V39.0004Z" fill="#151515"/>
<path d="M80.2111 40.1097C79.1914 40.7028 78.193 41.0014 77.0922 40.5918C76.8533 40.5022 76.5375 40.3913 76.5119 40.1481C76.4863 39.9049 76.8405 39.8708 77.0239 39.7342C77.8303 39.1198 78.7434 39.3545 79.6181 39.4569C79.8271 39.4825 79.9935 39.8537 80.2154 40.1054L80.2111 40.1097Z" fill="#151515"/>
<path d="M51.3898 39.0132C51.7909 38.1684 52.5973 38.1684 53.2885 38.1086C53.9328 38.0532 54.4533 38.5353 54.9397 38.9321C55.1146 39.0729 54.897 39.1668 54.7989 39.2265C54.1546 39.6148 53.4634 39.7001 52.7296 39.555C52.2389 39.4569 51.7824 39.2862 51.3941 39.0089L51.3898 39.0132Z" fill="#151515"/>
<path d="M50.0671 41.3726C49.0986 42.0809 48.0874 42.0852 47.0421 41.8505C46.8757 41.8121 46.7135 41.7566 46.5557 41.6884C46.4149 41.6244 46.1333 41.6329 46.1888 41.4366C46.24 41.2617 46.3637 41.01 46.624 40.9886C47.1274 40.9502 47.5882 40.7838 48.0405 40.5833C48.3007 40.4681 48.5482 40.6132 48.7829 40.69C49.2181 40.835 49.6448 41.0142 50.0629 41.3684L50.0671 41.3726Z" fill="#151515"/>
<path d="M78.8373 41.3129C79.3237 40.9118 79.8954 40.6942 80.4927 40.5406C80.6506 40.498 80.7957 40.5321 80.9408 40.5918C81.3504 40.771 81.7685 40.9204 82.2165 40.9502C82.5194 40.9716 82.6346 41.2233 82.6901 41.4153C82.737 41.5774 82.4469 41.603 82.3018 41.6585C81.4101 41.9828 80.5013 42.0553 79.5882 41.7652C79.3109 41.6756 79.0421 41.5604 78.8373 41.3086V41.3129Z" fill="#151515"/>
<path d="M74.5493 34.9598C73.5167 35.395 73.4613 35.5572 73.952 36.6366C73.9946 36.7305 74.0416 36.8201 74.0842 36.914C73.0517 36.9438 72.1045 36.0734 72.032 35.0452C72.0192 34.8916 72.032 34.7977 72.1898 34.7166C72.8981 34.3497 73.8922 34.4436 74.5493 34.9598Z" fill="#151515"/>
<path d="M54.7818 36.9908C54.9525 36.5897 55.1018 36.2356 55.1957 35.8558C55.2938 35.459 55.1744 35.2585 54.7818 35.1604C54.6496 35.1262 54.4618 35.1518 54.3722 34.994C54.9482 34.4734 56.0319 34.3881 56.7146 34.7678C56.945 34.8958 56.8469 35.0622 56.8213 35.203C56.6335 36.2185 55.9594 36.8201 54.7861 36.9908H54.7818Z" fill="#151515"/>
<path fill-rule="evenodd" clip-rule="evenodd" d="M64.4202 51.8947C71.063 51.8947 76.4482 57.2799 76.4482 63.9226C76.4481 70.5653 71.0629 75.9501 64.4202 75.9501C57.7776 75.9501 52.3924 70.5652 52.3923 63.9226C52.3923 57.2799 57.7775 51.8947 64.4202 51.8947ZM64.3777 71.9689C64.4203 71.9646 64.4586 71.9601 64.4969 71.9601C64.7828 70.9105 65.0729 69.861 65.3502 68.8072C65.3758 68.6963 65.5123 68.4487 65.214 68.4997C64.638 68.5978 64.0661 68.5512 63.439 68.4701C63.7632 69.6861 64.0705 70.8254 64.3777 71.9689ZM60.3711 70.8764L60.3752 70.8805C60.3763 70.8766 60.3771 70.8727 60.3782 70.8689C60.3757 70.8713 60.3735 70.8739 60.3711 70.8764ZM61.5361 67.5314C61.3739 67.3991 61.2929 67.3992 61.2332 67.6339C60.9611 68.701 60.6715 69.7638 60.3782 70.8689C61.2629 69.9884 62.097 69.1546 62.9352 68.3164C62.4702 68.1286 61.9669 67.8939 61.5361 67.5314ZM67.6332 67.5955C67.5734 67.3652 67.4667 67.4333 67.3473 67.5314C66.9079 67.8855 66.4127 68.1373 66.0073 68.2909H66.0115C66.8307 69.1144 67.6673 69.9546 68.4694 70.7568C68.2049 69.7585 67.9147 68.6791 67.6332 67.5955ZM64.4373 59.843C62.1632 59.843 60.3244 61.6648 60.3244 63.9347H60.3198C60.3199 66.1916 62.1674 68.039 64.4286 68.0476C66.6856 68.0519 68.5461 66.2044 68.5461 63.943C68.5503 61.686 66.7071 59.843 64.4373 59.843ZM68.8277 65.4151C68.6102 65.9783 68.3071 66.5243 67.8507 67.0747L67.8465 67.0793C69.0837 67.4035 70.2272 67.7064 71.4986 68.0434C70.5471 67.1048 69.7024 66.2727 68.8277 65.4151ZM57.4398 68.0264C58.6003 67.7234 59.7098 67.4333 60.8148 67.1389C60.9258 67.109 60.9984 67.032 60.9002 66.9168C60.512 66.4645 60.2601 65.9313 60.0511 65.4534C59.1849 66.3068 58.3401 67.1389 57.4398 68.0264ZM68.9427 62.9318C69.0921 63.6315 69.0751 64.2547 68.9557 64.9459H68.9598C70.1843 64.6131 71.3537 64.2929 72.5227 63.9772C72.5185 63.9516 72.5098 63.9216 72.5098 63.8918C71.3408 63.576 70.1673 63.2603 68.9427 62.9318ZM56.3777 63.8918V63.9772C57.5339 64.2929 58.6943 64.6043 59.9315 64.9414C59.7523 64.2374 59.8337 63.606 59.8807 62.9447C58.6818 63.2689 57.5297 63.5803 56.3777 63.8918ZM67.8507 60.7984C68.2432 61.3104 68.5591 61.7672 68.7511 62.3005C68.8151 62.4838 68.9004 62.5051 69.0369 62.3601C69.8006 61.5623 70.6324 60.8325 71.3407 59.9834C71.3194 59.9622 71.2981 59.941 71.2811 59.9155C70.1547 60.2056 69.0282 60.4955 67.8507 60.7984ZM57.3886 59.9709C58.2035 60.7645 59.0229 61.558 59.8336 62.3601C59.9872 62.5094 60.0597 62.454 60.1194 62.2876C60.3024 61.7513 60.6339 61.2999 60.9998 60.8064C59.7976 60.4824 58.6336 60.1709 57.474 59.8597C57.4484 59.8981 57.4184 59.9325 57.3886 59.9709ZM60.9998 60.8064C61.0007 60.8066 61.0018 60.8069 61.0027 60.8072V60.803C61.0019 60.8042 61.0007 60.8052 60.9998 60.8064ZM67.5648 60.5214H67.569C67.5678 60.5204 67.5665 60.5194 67.5652 60.5184C67.565 60.5193 67.5651 60.5204 67.5648 60.5214ZM65.939 59.5655C66.4797 59.7614 67.0161 60.0805 67.5652 60.5184C67.8892 59.2949 68.1879 58.1523 68.4948 56.9926C67.6202 57.8758 66.7753 58.725 65.939 59.5655ZM60.4182 57.0697C60.4182 57.0526 60.4054 57.1036 60.4182 57.1505C60.704 58.2513 60.9942 59.3435 61.3057 60.5168H61.3098C61.8644 60.0603 62.4105 59.7531 62.9011 59.5697C62.0734 58.7378 61.233 57.8888 60.4182 57.0697ZM64.4886 55.9089C64.4545 55.9131 64.4161 55.9176 64.3777 55.9176C64.0919 56.9672 63.8057 58.0126 63.5198 59.0622C63.4644 59.2669 63.4475 59.4078 63.7632 59.3822C64.2196 59.3438 64.6846 59.3523 65.1411 59.3822C65.3715 59.395 65.4144 59.3221 65.3632 59.1301C65.0773 58.055 64.7829 56.9798 64.4927 55.9047L64.4886 55.9089Z" fill="#151515"/>
<path d="M50.417 36.1972C50.7199 35.0793 51.4026 34.3113 52.5077 33.9273C52.8874 33.795 53.0026 33.9273 52.9215 34.3028C52.8191 34.7892 52.7466 35.2884 52.2133 35.523C52.1834 35.5358 52.1536 35.5614 52.1365 35.5913C51.7482 36.2356 51.1381 36.3081 50.4725 36.2526C50.4554 36.2356 50.4383 36.2142 50.4213 36.1972H50.417Z" fill="#151515"/>
<path d="M78.4874 36.2313C78.1162 36.2313 77.7962 36.1289 77.4719 36.2057C77.4378 36.2142 77.3994 36.2185 77.3696 36.2057C76.8362 36.0265 75.9061 34.61 75.9274 34.051C75.936 33.778 76.0981 33.8462 76.2346 33.8718C76.8319 33.9828 77.3013 34.3198 77.6981 34.755C78.0735 35.1646 78.3381 35.634 78.4789 36.227L78.4874 36.2313Z" fill="#151515"/>
<path d="M80.5354 37.6777C80.2325 37.7972 80.049 37.6137 79.8826 37.3406C79.7802 37.17 79.6394 36.995 79.4687 36.8926C78.9653 36.5854 78.9056 36.082 78.8117 35.5742C78.7306 35.1518 78.9482 35.1476 79.2341 35.2372C79.793 35.4164 80.2197 35.7833 80.5311 36.2697C80.7061 36.5385 80.8426 36.8372 80.9621 37.1358C81.1626 37.6521 81.1498 37.6606 80.5354 37.6777Z" fill="#151515"/>
<path d="M48.2752 37.6905C47.7162 37.8313 47.7632 37.554 47.904 37.187C48.224 36.3508 48.6848 35.6382 49.568 35.3054C50.0586 35.122 50.1141 35.1689 50.0458 35.6638C49.9818 36.1588 49.888 36.6324 49.4058 36.9268C49.2394 37.0292 49.0986 37.1998 48.992 37.3705C48.817 37.6564 48.6336 37.8654 48.2709 37.6862L48.2752 37.6905Z" fill="#151515"/>
<path d="M84.9429 42.7892C83.808 43.2884 82.7413 43.5273 81.6234 43.011C81.4911 42.9513 81.3077 42.883 81.3077 42.7124C81.3077 42.5588 81.4954 42.5374 81.6064 42.4777C82.016 42.2558 82.4554 42.1193 82.9034 42.0126C83.1039 41.9657 83.2959 41.9401 83.4837 42.0937C83.8847 42.418 84.3584 42.6057 84.9386 42.7934L84.9429 42.7892Z" fill="#151515"/>
<path d="M47.6437 42.7806C46.4405 43.6553 45.2458 43.3396 43.9274 42.8574C44.5717 42.6057 45.0879 42.3156 45.5999 42.0254C45.8474 41.8846 46.1887 42.098 46.4789 42.1918C46.8799 42.3198 47.2853 42.4436 47.6479 42.7806H47.6437Z" fill="#151515"/>
<path d="M42.9631 40.8734C42.8863 39.8494 43.7738 38.3262 44.6613 37.9465C44.9386 37.827 45.1093 37.7929 45.0538 38.2153C44.9642 38.8894 44.8405 39.4953 44.1151 39.8153C43.633 40.0286 43.3599 40.5278 42.9589 40.8606L42.9674 40.8734H42.9631Z" fill="#151515"/>
<path d="M47.4687 36.7988C47.3877 37.3705 47.3365 37.9294 46.6922 38.2281C46.3253 38.3988 46.0522 38.7401 45.8431 39.0985C45.7237 39.3033 45.5231 39.363 45.3738 39.2948C45.2117 39.2222 45.3354 39.0217 45.3738 38.8852C45.6725 37.9124 46.1674 37.0761 47.0847 36.5641C47.4389 36.3678 47.4858 36.4105 47.4645 36.803L47.4687 36.7988Z" fill="#151515"/>
<path d="M53.2288 34.9812C53.5061 34.0297 54.6453 33.0953 55.6096 32.9972C55.9338 32.963 55.9893 33.0782 55.921 33.3684C55.8101 33.8505 55.6906 34.2772 55.0549 34.2729C54.7093 34.2729 54.3978 34.4692 54.1503 34.6996C53.8773 34.9556 53.5872 35.0409 53.2288 34.9769V34.9812Z" fill="#151515"/>
<path d="M85.8943 40.7369C85.3653 40.242 84.8533 39.7513 84.2133 39.4185C84.0213 39.3161 83.7269 38.1172 83.8122 37.9252C83.889 37.7545 84.0127 37.8398 84.1152 37.874C84.4693 37.9892 84.7381 38.2238 84.977 38.4969C85.5231 39.1326 85.8431 39.8708 85.8986 40.7326L85.8943 40.7369Z" fill="#151515"/>
<path d="M75.6544 34.9001C75.3472 35.0195 75.0784 34.9598 74.8266 34.7465C74.4682 34.4393 74.0629 34.2388 73.5893 34.1876C73.2607 34.1534 72.7829 33.3684 72.9152 33.0612C72.9962 32.8734 73.1882 32.946 73.3162 32.9758C74.417 33.2233 75.2191 33.842 75.6415 34.9086L75.6544 34.9001Z" fill="#151515"/>
<path d="M81.4015 36.4361C81.7642 36.4276 82.0031 36.6324 82.2335 36.8244C82.8821 37.3662 83.2746 38.0745 83.5093 38.8766C83.5391 38.9833 83.6373 39.1326 83.5093 39.1966C83.3813 39.2606 83.185 39.282 83.0911 39.1326C82.7455 38.5822 82.1951 38.2622 81.7301 37.8398C81.3717 37.5156 81.4058 36.9396 81.4015 36.4318V36.4361Z" fill="#151515"/>
<path d="M50.2037 96.5662C49.7045 95.939 49.3205 95.3588 48.9535 94.6889C49.7429 94.851 50.4469 95.0942 51.2618 95.363C50.8096 95.6916 50.3871 95.9817 50.2037 96.5662Z" fill="#151515"/>
<path d="M78.6709 96.5321C78.4874 95.939 78.065 95.6617 77.6469 95.3374C78.3765 95.0516 79.0847 94.851 79.9167 94.6462C79.5498 95.3502 79.1573 95.9134 78.6709 96.5321Z" fill="#151515"/>
<path d="M42.609 80.5662C42.6218 80.6601 42.6304 80.7582 42.6432 80.8692C42.4938 80.8393 42.5365 80.7241 42.4981 80.6558C42.5365 80.6259 42.5706 80.5961 42.609 80.5662Z" fill="#FDFDFD"/>
<path d="M38.9738 47.1582C38.9226 47.2393 38.833 47.2564 38.7818 47.2009C38.7306 47.1497 38.8074 47.1028 38.8544 47.0686C38.8928 47.0985 38.9354 47.1284 38.9738 47.1582Z" fill="#FDFDFD"/>
<path d="M42.9546 40.8606C42.9375 40.899 42.9205 40.9417 42.9034 40.9801C42.8949 40.9588 42.8778 40.9332 42.8821 40.9118C42.8906 40.8649 42.9119 40.8265 42.9674 40.8734L42.9589 40.8606H42.9546Z" fill="#151515"/>
<path d="M93.472 79.4612C93.4976 79.5038 93.5914 79.491 93.5445 79.5678C93.5189 79.6105 93.489 79.6489 93.4591 79.6873C93.4335 79.6532 93.344 79.6702 93.3909 79.5892C93.4165 79.5465 93.4421 79.5038 93.472 79.4612Z" fill="#FDFDFD"/>
<path d="M86.3424 80.7156C86.3253 80.7454 86.3082 80.771 86.2912 80.8009C86.2741 80.7753 86.2485 80.7497 86.2442 80.7198C86.2357 80.6686 86.2528 80.626 86.3168 80.6388C86.3296 80.6388 86.3338 80.69 86.3466 80.7156H86.3424Z" fill="#FDFDFD"/>
<path d="M71.2811 59.9155C71.328 59.8686 71.3791 59.8516 71.4303 59.9113C71.4005 59.9369 71.3705 59.9578 71.3407 59.9834C71.3194 59.9622 71.2981 59.941 71.2811 59.9155Z" fill="#FDFDFD"/>
<path d="M75.6415 34.9044C75.6415 34.9044 75.6757 34.947 75.6885 34.9684C75.6714 34.9684 75.6586 34.9684 75.6415 34.9684C75.6415 34.9428 75.6501 34.9214 75.6501 34.8958L75.6373 34.9044H75.6415Z" fill="#151515"/>
<path d="M37.7621 53.362C37.6384 53.4004 37.5872 53.379 37.6597 53.2468C37.6938 53.2852 37.728 53.3236 37.7621 53.362Z" fill="#FDFDFD"/>
<path d="M50.4682 36.2526C50.4682 36.2526 50.4213 36.3081 50.417 36.3038C50.3701 36.2697 50.3786 36.2313 50.417 36.1972C50.4341 36.2142 50.4511 36.2313 50.4682 36.2526Z" fill="#151515"/>
<path d="M45.9882 90.9428C46.0181 90.9854 46.0394 91.0281 45.9797 91.058C45.9626 91.0665 45.9285 91.0366 45.9029 91.0196C45.9328 90.994 45.9583 90.9641 45.9882 90.9385V90.9428Z" fill="#151515"/>
<path d="M41.7599 84.995C41.7727 85.0377 41.7856 85.0761 41.7984 85.1188C41.7557 85.1188 41.713 85.1102 41.6703 85.106C41.7002 85.0676 41.7301 85.0334 41.7599 84.995Z" fill="#151515"/>
<path d="M87.1829 85.059C87.1488 85.0718 87.1104 85.0889 87.0762 85.1017C87.0805 85.059 87.089 85.0206 87.0933 84.978C87.1232 85.0036 87.153 85.0292 87.1829 85.0548V85.059Z" fill="#151515"/>
</svg>
