<svg width="32" height="32" viewBox="0 0 32 32" fill="none" xmlns="http://www.w3.org/2000/svg">
<path d="M30.2344 16C30.2342 23.8606 23.8616 30.2332 16.001 30.2334C8.14038 30.2332 1.76775 23.8606 1.76758 16C1.76775 8.13941 8.14038 1.76678 16.001 1.7666C23.8616 1.76678 30.2342 8.13941 30.2344 16ZM28.4346 16C28.4344 9.13352 22.8675 3.56756 16.001 3.56738C9.13449 3.56756 3.56854 9.13352 3.56836 16C3.56854 22.8665 9.13449 28.4334 16.001 28.4336C22.8675 28.4334 28.4344 22.8665 28.4346 16ZM16.915 10.667C16.9149 11.1328 16.5601 11.5164 16.1064 11.5625L16.0146 11.5674L16.001 11.5674C15.5042 11.5672 15.1017 11.1638 15.1016 10.667C15.1016 10.17 15.5041 9.76678 16.001 9.7666L16.0146 9.7666L16.1064 9.77148C16.5602 9.81763 16.915 10.201 16.915 10.667ZM16.9014 21.334C16.901 21.8306 16.4977 22.2332 16.001 22.2334C15.5043 22.2332 15.1019 21.8306 15.1016 21.334L15.1016 15.334C15.1016 14.837 15.5041 14.4338 16.001 14.4336C16.4979 14.4338 16.9014 14.837 16.9014 15.334L16.9014 21.334Z" fill="white"/>
</svg>
