<svg width="129" height="128" viewBox="0 0 129 128" fill="none" xmlns="http://www.w3.org/2000/svg">
<path d="M1.7832 51.1613C4.164 51.5453 6.31443 52.5394 8.42216 53.6573C11.9038 55.5048 14.6173 58.2269 17.092 61.2178C19.9933 64.7208 22.0926 68.7016 23.9315 72.8317C24.3368 73.7405 24.7507 74.6451 25.075 75.588C25.1518 75.8141 25.2542 76.0402 25.2371 76.2877C25.0878 76.3986 24.9982 76.2792 24.9171 76.2066C22.9118 74.4872 20.7485 72.9768 18.692 71.3213C18.0349 70.7922 17.54 70.1608 17.2158 69.3885C15.0782 64.3069 11.972 59.8952 7.9443 56.1362C6.1779 54.4893 4.25363 53.0429 2.28669 51.6434C2.11603 51.524 1.95387 51.3917 1.7832 51.2637C1.7832 51.2296 1.7832 51.1954 1.7832 51.157V51.1613Z" fill="#151515"/>
<path d="M54.1224 67.797C53.1838 65.9453 52.6888 63.9954 52.74 61.9048C52.8083 59.1912 53.7 56.7933 55.3854 54.6728C55.5048 54.5234 55.6584 54.3997 55.7096 54.2077C55.8547 54.0626 55.9998 53.9218 56.1448 53.7768C57.5315 52.4925 59.0718 51.4557 60.8894 50.8712C63.3982 50.0648 65.907 50.069 68.4115 50.8797C68.5438 50.9224 68.676 50.965 68.8125 51.0034C68.8381 51.012 68.8723 50.9821 68.9705 50.9394C68.4115 50.4232 68.3219 49.7149 68.1086 49.0578C67.2296 46.3613 64.5843 44.7101 61.8153 45.1069C58.9993 45.5122 56.9512 47.8333 56.8744 50.7005C56.8744 50.837 56.8744 50.9736 56.8744 51.2552C56.5374 49.9197 56.8488 47.9442 57.587 46.596C59.1144 43.8098 61.4995 42.3037 64.6525 42.2866C67.9763 42.2653 70.7496 44.228 71.9998 47.2872C72.1704 47.7053 72.307 48.1448 72.4008 48.5885C72.7763 50.3592 71.7438 51.5538 69.9048 51.4344C74.5512 54.0499 76.7784 57.9794 76.5565 63.3042C76.7357 62.4808 77.3885 62.0968 77.9859 61.636C79.9443 60.1171 80.6995 57.6253 79.9486 55.2957C79.2104 53.0002 77.1368 51.4258 74.6792 51.332C73.9325 51.3021 73.1902 51.3917 72.4648 51.6178C73.2712 51.1314 74.163 50.9096 75.0803 50.8456C79.2915 50.5469 82.9011 53.316 83.5624 57.4802C84.0958 60.8168 82.6749 63.7608 79.812 65.5314C78.4424 66.3805 76.8979 65.6509 76.5608 64.0637C76.548 63.9954 76.5224 63.9314 76.4798 63.7821C76.3347 64.4008 76.2365 64.9512 76.0744 65.4845C75.9123 66.0178 75.7331 66.5555 75.4899 67.0546C73.3309 71.4621 69.8195 73.9027 64.8872 74.0349C60.4883 74.1544 57.0835 72.2173 54.6088 68.6034C54.532 68.4882 54.4425 68.3816 54.3571 68.2706C54.2761 68.1128 54.1992 67.9549 54.1224 67.797ZM73.8472 61.8706H73.8558C73.8558 61.0685 73.8558 60.2621 73.8558 59.46C73.8558 59.3448 73.8088 59.1826 73.971 59.1528C74.0478 59.14 74.1502 59.2338 74.2312 59.2936C74.5854 59.5581 74.6622 59.9549 74.7305 60.3517C74.9438 61.5677 74.7902 62.7922 74.8371 64.0125C74.8414 64.1618 74.7731 64.3922 74.948 64.4306C75.1784 64.4818 75.1784 64.2173 75.2254 64.068C75.5283 63.0952 75.4216 62.0968 75.3747 61.1026C75.3064 59.6392 74.5597 58.5981 73.3011 57.9325C72.7805 57.6594 72.5544 57.2882 72.5501 56.7293C72.5501 56.6099 72.4904 56.4733 72.6099 56.3922C72.7336 56.3069 72.8446 56.4093 72.9427 56.4733C73.3566 56.7336 73.7704 56.9981 74.1843 57.2541C74.2824 57.3139 74.4062 57.4291 74.5129 57.3224C74.6366 57.1944 74.5256 57.0578 74.4446 56.9469C74.2355 56.6568 73.9582 56.4349 73.6382 56.2941C72.691 55.8845 72.1448 55.2018 72.0424 54.1522C72.0126 53.8493 71.8547 53.5549 71.731 53.269C71.6712 53.1282 71.5475 52.9746 71.3683 53.0472C71.2019 53.1154 71.2787 53.2904 71.3043 53.4184C71.3384 53.6061 71.3896 53.7938 71.428 53.9816C71.6243 54.9202 71.8462 55.8546 71.8846 56.8232C71.9016 57.2712 71.6798 57.3693 71.2872 57.2626C70.9587 57.173 70.8136 56.9597 70.7582 56.6312C70.5406 55.3426 70.3016 54.0541 70.0627 52.7656C70.0286 52.5778 69.9731 52.3901 69.8835 52.2237C69.8024 52.0744 69.6744 51.9165 69.4696 51.972C69.2862 52.0232 69.2862 52.2066 69.2691 52.3645C69.2264 52.7912 69.3459 53.1922 69.4654 53.5976C69.6502 54.2234 69.427 54.5363 68.7955 54.5363C68.5523 54.5363 68.2749 54.5064 68.228 54.852C68.1853 55.1592 68.3902 55.2914 68.6462 55.364C68.9961 55.4664 69.3672 55.5304 69.7 55.6712C70.3016 55.9272 70.4467 56.6141 70.0072 57.1005C69.8238 57.3053 69.5806 57.4589 69.3672 57.6381C68.996 57.9496 68.5438 58.1715 68.275 58.6024C68.1641 58.7859 68.0489 58.9778 68.1641 59.1912C68.2793 59.4045 68.5054 59.3277 68.6846 59.3106C68.9576 59.2808 69.1454 59.2936 69.171 59.6562C69.3288 61.8408 69.1795 64.021 69.1241 66.2013C69.1155 66.4701 68.9192 66.8925 69.171 66.9608C69.491 67.0504 69.6275 66.6152 69.7768 66.3464C69.9773 65.9922 70.0328 65.5869 70.1651 65.2114C70.323 64.7592 70.7624 64.7677 71.091 64.8274C71.492 64.8957 71.2403 65.2499 71.2062 65.476C71.1678 65.732 71.0611 65.9795 71.0056 66.2355C70.9373 66.5299 70.8734 66.9394 71.2105 67.0077C71.6158 67.0888 71.5688 66.6237 71.62 66.3634C71.7054 65.9538 71.7182 65.5314 71.795 65.1218C71.8505 64.7976 72.0808 64.6568 72.4051 64.6696C72.6099 64.6781 72.8531 64.6227 72.9171 64.9085C73.0579 65.5357 73.1347 66.1544 72.6099 66.6749C72.4008 66.884 72.2046 67.1101 72.0296 67.3491C71.6712 67.8354 71.4152 68.3688 71.4792 69.0002C71.5133 69.3416 71.6883 69.5976 72.0296 69.6957C72.3667 69.7896 72.6568 69.6829 72.8531 69.3885C73.0536 69.0899 73.0494 68.8851 72.6184 68.8083C72.0851 68.7187 72.0253 68.5736 72.2301 68.0573C72.4648 67.46 72.9768 67.0973 73.4291 66.6963C73.86 66.3123 74.2952 65.9325 74.5896 65.4248C74.6878 65.2541 74.8201 65.0493 74.4574 65.0408C73.9539 65.028 73.86 64.6866 73.8515 64.2898C73.8387 63.4877 73.8515 62.6813 73.8515 61.8792L73.8472 61.8706ZM60.2153 67.0845C60.6419 67.0077 60.8809 67.2296 61.0217 67.5965C61.5038 68.868 61.9859 70.1395 62.4638 71.4152C62.6003 71.7736 62.6771 72.1576 62.9118 72.4733C63.0995 72.725 63.3342 72.9469 63.6584 72.7805C64.0211 72.597 63.8248 72.2813 63.7096 72.0466C63.0056 70.6386 62.532 69.1325 61.8792 67.7032C61.4611 66.7901 61.4696 66.773 62.34 66.2952C62.9587 65.9581 63.2446 65.4461 63.2574 64.7634C63.2617 64.4861 63.2915 64.196 63.2318 63.9272C62.9715 62.7026 62.9331 61.4738 63.0568 60.2365C63.1294 59.541 62.771 59.076 62.2078 58.7346C62.0584 58.6451 61.9006 58.5682 61.747 58.4872C60.9704 58.0947 60.9491 57.8002 61.6617 57.3309C62.1225 57.028 62.5107 56.6568 62.7795 56.1746C63.2489 55.3298 63.1251 54.5149 62.3699 53.9347C61.6958 53.4184 61.1241 52.9021 61.4483 51.9336C61.4953 51.7928 61.4739 51.6008 61.2777 51.5453C61.0814 51.4898 60.9363 51.605 60.8467 51.7672C60.7144 52.0018 60.6846 52.2621 60.6675 52.5266C60.6291 53.2008 60.4115 53.7682 59.8227 54.1864C59.1998 54.6301 58.7646 55.2402 58.5171 55.9784C58.1801 56.9853 58.5512 57.604 59.6008 57.7533C59.8099 57.7832 60.0403 57.796 60.1086 58.0434C60.1811 58.2909 59.9976 58.4274 59.8227 58.5512C59.2894 58.9352 58.867 59.4216 58.5598 60.0019C58.2995 60.4883 58.1587 61.0045 58.3465 61.5634C58.5001 62.02 58.7518 62.2802 59.2808 62.1736C59.5155 62.1266 59.8312 62.0328 59.9806 62.2333C60.2536 62.5917 60.2451 63.0525 60.1768 63.4877C60.1171 63.8546 59.7929 63.8504 59.5155 63.8675C59.0974 63.8931 58.6665 63.8888 58.2995 64.1149C58.0819 64.2472 57.7918 64.4008 57.8856 64.708C57.9667 64.981 58.2654 64.9725 58.5086 64.9896C58.9523 65.0195 59.3747 64.9 59.7929 64.7805C60.1342 64.6824 60.3006 64.7848 60.3689 65.156C60.4542 65.6253 60.3688 65.8728 59.8312 65.9197C59.2979 65.9624 58.7432 66.0008 58.2654 66.2952C58.0478 66.4275 57.86 66.6066 57.907 66.884C57.9624 67.2082 58.2483 67.1869 58.4872 67.1997C59.0675 67.2296 59.6392 67.1613 60.2067 67.0845H60.2153ZM67.7672 64.597C67.8526 60.8296 67.635 57.1474 67.5496 53.4653C67.5326 52.7144 67.2467 52.2877 66.5384 52.0488C65.8003 51.797 65.0579 51.7373 64.4094 52.2962C64.1576 52.5096 64.2131 52.7357 64.4819 52.885C64.627 52.9661 64.8104 53.0002 64.9811 53.0216C65.2926 53.06 65.4504 53.2392 65.4846 53.5336C65.5187 53.8109 65.5443 54.084 65.5272 54.3698C65.4376 55.8845 65.3651 57.4034 65.2883 58.9181C65.2201 60.2109 65.3609 61.4994 65.3865 62.7922C65.4334 65.1688 65.459 67.541 65.5017 69.9176C65.5017 70.1522 65.4931 70.4765 65.8131 70.4936C66.099 70.5107 66.1886 70.2163 66.2611 69.9816C66.2952 69.8664 66.3038 69.7384 66.3038 69.6189C66.3038 69.0941 66.3038 68.5693 66.2995 68.0445C66.2654 63.8504 66.3933 59.6605 66.2013 55.4664C66.1715 54.8392 66.1843 54.2077 66.18 53.5805C66.18 53.2477 66.291 52.9746 66.6622 52.9576C67.0163 52.9405 67.0504 53.2264 67.0846 53.5037C67.1912 54.3699 67.2595 55.2402 67.2766 56.1149C67.3363 58.7901 67.1272 61.4568 67.14 64.132C67.14 64.9512 67.0931 65.7747 67.0206 66.5896C66.9182 67.78 66.9395 68.9618 67.1742 70.1352C67.2254 70.3997 67.1699 70.8904 67.4984 70.852C67.8142 70.8178 67.7587 70.3357 67.7587 70.0285C67.763 68.1939 67.7587 66.3592 67.7587 64.6056L67.7672 64.597ZM57.5144 70.6045C57.5486 69.9048 57.331 69.2563 57.1219 68.6163C56.691 67.3021 56.5928 66.0008 57.0024 64.6525C57.1944 64.0253 57.3822 63.3512 57.1944 62.6941C56.883 61.6104 56.8446 60.5437 56.9256 59.4088C57.0152 58.1928 56.9939 56.9768 57.3139 55.7821C57.4334 55.3341 57.3694 54.8776 57.1731 54.4509C57.0921 54.2802 56.9854 54.0626 56.7465 54.2163C56.5715 54.3272 56.3155 54.4594 56.5417 54.7453C56.7209 54.9714 56.708 55.2445 56.6696 55.5005C56.4819 56.6866 56.1278 57.7789 55.027 58.4701C54.8051 58.6066 54.6216 58.8029 54.4211 58.9693C54.2291 59.1272 54.0755 59.3149 53.9731 59.5453C53.8579 59.8013 53.828 60.0829 54.0584 60.2706C54.2931 60.4669 54.4894 60.2322 54.6472 60.0914C55.0568 59.7373 55.4366 59.349 55.8377 58.9821C55.923 58.9011 56.0211 58.7901 56.1534 58.8413C56.3027 58.8968 56.2558 59.0461 56.2558 59.1613C56.2558 59.8781 56.0979 60.5394 55.6158 61.1069C55.108 61.7043 54.5576 62.276 54.2078 62.9928C53.9262 63.5645 53.8579 64.1618 54.0115 64.7763C54.0584 64.9597 54.1608 65.156 54.387 65.1645C54.6174 65.173 54.724 64.981 54.7667 64.7933C54.8222 64.5586 54.8563 64.3112 54.8648 64.0722C54.8947 63.3554 55.1763 62.8093 55.8078 62.4253C56.1576 62.212 56.2942 62.3485 56.3411 62.6728C56.4094 63.1421 56.4051 63.6157 56.2686 64.0765C55.987 65.0109 55.9401 65.9624 56.051 66.9266C56.2089 68.2834 56.6056 69.5464 57.5144 70.6173V70.6045Z" fill="#151515"/>
<path d="M30.8648 48.5373C31.219 48.2685 31.5774 48.004 31.923 47.7266C33.796 46.2248 35.9208 45.7256 38.2718 46.1096C38.7795 46.1906 39.2275 46.4338 39.6841 46.6557C39.94 46.7794 39.9571 46.9416 39.7907 47.1507C37.8792 49.5827 35.5283 51.1698 32.2942 51.0546C31.5347 51.029 30.8307 50.7261 30.1182 50.4872C29.8963 50.4146 29.6872 50.3293 29.5677 50.6536C29.0045 52.2152 28.2579 53.7042 27.7758 55.3C27.7331 55.445 27.7118 55.5986 27.6606 55.8248C28.1598 55.5688 28.5139 55.236 28.868 54.9245C29.6701 54.2248 30.5832 53.7 31.5646 53.3373C32.964 52.8168 34.4189 52.9832 35.8611 53.1837C36.1555 53.2264 36.2024 53.4141 36.0915 53.6872C35.8824 54.1992 35.5368 54.6131 35.1784 55.0227C34.3208 56.0083 33.3224 56.8146 32.1918 57.4674C30.6984 58.3293 29.1069 58.5469 27.4344 58.2482C26.9821 58.1672 26.7901 58.3122 26.692 58.7304C26.0478 61.4312 25.3694 64.1277 25.3694 66.9352C25.3694 67.477 25.2969 68.0146 25.2883 68.5565C25.2841 68.9362 25.1176 69.0984 24.7507 69.0984C24.5928 69.0984 24.4349 69.0984 24.2813 69.1283C23.9187 69.1922 23.8377 69.0429 23.8462 68.693C23.9315 65.1645 24.5203 61.7085 25.4035 58.2994C25.5101 57.8813 25.4888 57.5101 25.2329 57.156C23.3043 54.4979 22.9502 51.4301 22.98 48.2771C22.9886 47.253 23.3171 46.2845 23.603 45.3117C23.7267 44.8936 23.8973 44.9149 24.1747 45.1794C25.1133 46.0925 25.7278 47.1976 26.1203 48.4307C26.5342 49.7362 26.739 51.0802 26.7646 52.4541C26.7646 52.5864 26.7176 52.7272 26.8584 52.8893C27.2595 51.8227 27.763 50.8328 28.2408 49.8301C28.3646 49.5699 28.211 49.348 28.0958 49.1432C26.9523 47.1336 26.5726 44.9405 26.6579 42.6749C26.7347 40.6397 27.2296 38.6984 28.4286 36.996C28.8808 36.356 28.979 36.3645 29.3715 37.0429C30.0926 38.293 30.468 39.6456 30.532 41.0834C30.6003 42.5896 30.5192 44.0872 30.148 45.5592C30.1053 45.7256 30.0883 45.8962 30.0413 46.1565C30.3955 45.9304 30.5491 45.636 30.7411 45.3885C31.5987 44.2834 32.4094 43.1442 33.3267 42.0861C33.4675 41.9197 33.5571 41.7405 33.5358 41.5144C33.1646 37.5634 34.5043 34.1672 36.9192 31.125C37.444 30.4637 38.0329 29.8664 38.835 29.5378C39.3641 29.3202 39.4536 29.3757 39.5688 29.9346C40.1022 32.5245 39.5645 34.8925 38.0968 37.0728C37.6787 37.6914 37.2776 38.3186 36.9192 38.9928C38.1608 38.468 39.4579 38.037 40.3027 36.932C42.0819 34.6066 44.3134 32.8616 46.9203 31.5688C48.755 30.66 50.7048 30.3741 52.7315 30.485C53.1326 30.5064 53.1198 30.6728 52.9619 30.9458C52.2878 32.0936 51.4046 33.0536 50.3507 33.8514C47.6499 35.8952 44.7016 37.3842 41.3011 37.8834C39.9229 38.0882 38.8947 38.916 37.8963 39.9784C38.4552 39.9698 38.8648 39.7864 39.283 39.6498C41.0195 39.0824 42.7902 39.0952 44.5736 39.2957C45.1198 39.3554 45.6147 39.5986 46.0627 39.9144C46.5534 40.2642 46.579 40.5544 46.1822 40.9938C46.0414 41.1474 45.8878 41.3053 45.7129 41.4077C43.3491 42.837 40.8489 43.8525 38.0329 43.9122C36.9363 43.9336 35.9166 43.7074 34.995 43.093C34.7817 42.948 34.5683 42.8285 34.3507 43.0802C32.9299 44.7229 31.7822 46.5405 30.7496 48.4392C30.7838 48.469 30.8179 48.4989 30.8477 48.5288L30.8648 48.5373Z" fill="#151515"/>
<path d="M102.647 52.8424C102.694 51.5581 102.839 50.3037 103.151 49.0706C103.509 47.637 104.123 46.3442 105.182 45.2818C105.664 44.7954 105.677 44.8125 105.907 45.4312C106.598 47.3042 106.585 49.2328 106.363 51.1741C106.206 52.5352 105.886 53.8536 105.382 55.1293C105.105 55.8376 104.653 56.4435 104.251 57.0749C104.008 57.4589 103.94 57.8301 104.055 58.2653C104.687 60.6504 105.139 63.0696 105.421 65.5229C105.544 66.6024 105.544 67.6861 105.613 68.7656C105.621 68.8765 105.613 69.0045 105.506 69.0429C105.143 69.1709 104.781 69.0898 104.426 68.9917C104.128 68.9106 104.179 68.6418 104.179 68.4242C104.162 65.1346 103.629 61.9218 102.788 58.7517C102.66 58.2653 102.43 58.133 101.969 58.2184C99.5496 58.6536 97.4973 57.8472 95.6627 56.3283C94.8093 55.62 94.0371 54.8392 93.4824 53.8749C93.1411 53.2818 93.188 53.205 93.8792 53.0856C96.4861 52.6333 98.7987 53.2349 100.774 55.0312C100.953 55.1976 101.15 55.3469 101.342 55.4963C101.444 55.5773 101.555 55.7394 101.696 55.6285C101.824 55.5261 101.717 55.3683 101.674 55.236C101.201 53.6573 100.48 52.1768 99.8995 50.6408C99.8184 50.4189 99.6861 50.3336 99.4557 50.4232C99.3405 50.4658 99.221 50.4957 99.1059 50.5384C96.3112 51.6349 93.8664 50.8456 91.6051 49.1218C90.8755 48.5672 90.2739 47.893 89.7107 47.172C89.4846 46.8818 89.5357 46.724 89.8515 46.5746C90.5043 46.2632 91.1656 46.0669 91.8995 45.9901C94.4254 45.7256 96.4733 46.7026 98.3208 48.2898C98.3976 48.3538 98.483 48.4093 98.5598 48.4605C98.692 48.3794 98.6408 48.2898 98.6024 48.2216C97.6509 46.468 96.5587 44.8082 95.2957 43.2552C94.9928 42.884 94.7069 42.8669 94.3144 43.1357C93.5592 43.6605 92.7059 43.8056 91.7843 43.8482C88.9939 43.9677 86.5533 42.9309 84.1725 41.668C83.7885 41.4632 83.4387 41.1986 83.1656 40.8402C82.9309 40.533 82.9566 40.2685 83.2424 40.0168C83.8611 39.4749 84.5992 39.2274 85.4056 39.1933C87.3 39.1122 89.1859 39.1336 90.9821 39.8717C91.1229 39.9272 91.2808 39.9442 91.4515 39.9314C90.564 38.8946 89.5486 38.0712 88.1491 37.8408C84.0318 37.1624 80.5075 35.3362 77.572 32.3752C77.1496 31.9528 76.8296 31.4493 76.5053 30.9501C76.3219 30.66 76.3048 30.5021 76.7357 30.4594C79.1763 30.2248 81.4163 30.8349 83.5155 32.0338C85.6318 33.2413 87.4835 34.7645 88.9768 36.7058C89.8728 37.8706 91.1699 38.4552 92.5693 39.0397C92.3944 38.5362 92.1213 38.1864 91.8781 37.8237C91.1869 36.7912 90.5341 35.7416 90.1117 34.5597C89.54 32.9512 89.6254 31.3341 89.907 29.6957C89.9752 29.2989 90.2227 29.3458 90.4915 29.444C91.3277 29.7512 91.9336 30.3528 92.4755 31.0226C94.212 33.1688 95.428 35.5581 95.8334 38.3144C95.9784 39.317 96.0723 40.3282 95.9229 41.3437C95.8931 41.5357 95.8888 41.7277 96.0168 41.8941C97.1133 43.2936 98.2099 44.693 99.3789 46.0669C99.2424 45.2733 99.0547 44.4882 98.9779 43.6904C98.7517 41.3053 98.8499 38.9714 100.16 36.8466C100.493 36.3048 100.518 36.2962 100.898 36.7954C101.977 38.2162 102.442 39.8674 102.703 41.5997C102.942 43.1826 102.724 44.7357 102.438 46.2845C102.267 47.2104 101.896 48.0552 101.431 48.8616C101.154 49.3437 101.12 49.7704 101.41 50.2781C101.875 51.093 102.25 51.9549 102.617 52.8296L102.647 52.8424Z" fill="#151515"/>
<path d="M64.7422 21.4482C69.6958 21.4482 73.6851 25.4376 73.6808 30.3826C73.6808 35.3149 69.6531 39.3384 64.7294 39.3256C59.7843 39.317 55.7822 35.2765 55.7907 30.3101C55.8035 25.3992 59.7971 21.444 64.7379 21.4482H64.7422ZM64.7294 27.477C63.1166 27.477 61.8237 28.7656 61.828 30.3656C61.828 31.9528 63.1336 33.2754 64.7166 33.2968C66.2995 33.3181 67.6478 31.9656 67.6478 30.357C67.6478 28.7656 66.3422 27.477 64.7294 27.477ZM67.4344 35.2168C67.4686 35.1954 67.5027 35.1741 67.5368 35.1528C67.4301 34.7218 67.3277 34.2952 67.2125 33.8642C66.9693 32.9426 66.9736 32.9512 66.18 33.4589C65.9923 33.5784 65.9197 33.6722 66.0989 33.8514C66.5469 34.3037 66.9907 34.7602 67.4344 35.2168ZM61.9347 35.1528C61.9731 35.1784 62.0072 35.1997 62.0456 35.2253C62.3571 34.9053 62.6643 34.581 62.98 34.2653C63.6456 33.5954 63.6456 33.5997 62.8136 33.1816C62.6174 33.0834 62.4936 33.0621 62.4296 33.3096C62.2675 33.924 62.1011 34.5384 61.9347 35.1528ZM59.9123 33.0578L59.9806 33.1816C60.4158 33.0706 60.851 32.9597 61.2862 32.8445C62.1395 32.6184 62.131 32.6269 61.6915 31.8717C61.5507 31.6285 61.444 31.5645 61.2264 31.7821C60.7955 32.213 60.3517 32.6312 59.9123 33.0536V33.0578ZM70.2334 30.4296C70.2334 30.3954 70.2334 30.357 70.2334 30.3229C69.6446 30.1608 69.0515 29.9944 68.4627 29.8322C68.2451 29.7725 68.1299 29.8664 68.1256 30.0925C68.1256 30.2845 68.1256 30.4722 68.1256 30.6642C68.1171 30.8989 68.2195 30.98 68.4456 30.916C69.0387 30.7538 69.636 30.5917 70.2334 30.4296ZM59.2467 30.3144C59.2467 30.3528 59.2553 30.3912 59.2595 30.4296C59.827 30.5832 60.3987 30.7368 60.9662 30.8989C61.2265 30.9714 61.3757 30.9245 61.3501 30.6173C61.3373 30.4594 61.3416 30.3016 61.3501 30.148C61.3587 29.8578 61.2307 29.781 60.9576 29.8578C60.3902 30.02 59.8184 30.165 59.2467 30.3186V30.3144ZM67.5368 25.6424C67.4899 25.6125 67.443 25.5826 67.396 25.557C67.0974 25.8728 66.8072 26.1928 66.5043 26.5042C65.7022 27.3234 65.8813 27.029 66.6878 27.588C66.8883 27.7245 66.9949 27.6946 67.0547 27.4557C67.2083 26.8498 67.3747 26.2482 67.5368 25.6466V25.6424ZM64.8062 24.9C64.7678 24.8957 64.7251 24.8872 64.6867 24.8829C64.5715 25.2925 64.4606 25.7064 64.3454 26.116C64.1022 26.9864 64.1022 26.9778 65.0067 26.9906C65.2755 26.9906 65.3566 26.9138 65.284 26.6536C65.1219 26.069 64.9683 25.4845 64.8105 24.9H64.8062ZM69.572 33.1986C69.5038 33.0706 69.4952 33.0365 69.4696 33.0152C69.1624 32.7037 68.8552 32.3965 68.5523 32.085C67.9933 31.5218 68.0062 31.5304 67.5838 32.2258C67.4046 32.5245 67.4472 32.644 67.78 32.725C68.3518 32.8616 68.9192 33.0237 69.5677 33.1986H69.572ZM62.0925 25.5229C62.0456 25.5656 61.9987 25.6082 61.9518 25.6509C62.0542 26.0562 62.1608 26.4573 62.2632 26.8626C62.4225 27.4827 62.7681 27.6221 63.3 27.2808C63.3 27.2808 63.3299 27.2637 63.347 27.2552C63.5304 27.1741 63.5262 27.0632 63.4024 26.9309C62.9672 26.4616 62.5277 25.9922 62.0925 25.5229ZM64.6654 35.8226C64.7123 35.8226 64.7593 35.8226 64.8062 35.8226C64.9598 35.2552 65.1134 34.6834 65.2755 34.116C65.3395 33.8941 65.2755 33.7789 65.0366 33.7746C64.8616 33.7746 64.6867 33.7789 64.5118 33.7746C64.2131 33.7576 64.1491 33.8941 64.2259 34.1629C64.3795 34.7133 64.5203 35.2722 64.6696 35.8269L64.6654 35.8226ZM69.5336 27.7714C69.4867 27.7245 69.4398 27.6776 69.3929 27.6264C69.3587 27.6264 69.3245 27.6093 69.2947 27.6178C68.9277 27.7117 68.5566 27.8098 68.1896 27.908C67.2766 28.1597 67.2595 28.228 67.8355 28.9917C67.955 29.1496 68.0403 29.1368 68.1641 29.0216C68.6163 28.6034 69.0771 28.1896 69.5336 27.7714ZM60.0872 27.588C60.0488 27.6434 60.0061 27.6946 59.9678 27.7501C60.2621 28.0189 60.5608 28.2749 60.8424 28.5565C61.4952 29.1965 61.4824 29.1965 61.9646 28.4114C62.0883 28.2066 62.0926 28.117 61.8494 28.053C61.2606 27.9037 60.676 27.7458 60.0915 27.588H60.0872Z" fill="#151515"/>
<path d="M95.5518 92.7827C93.5208 92.548 91.6179 92.5352 89.715 92.437C88.4435 92.373 87.1635 92.4541 85.892 92.2834C85.7256 92.2621 85.4867 92.356 85.4184 92.1683C85.3374 91.9421 85.6019 91.8568 85.7427 91.7544C87.1379 90.7901 88.6014 89.9325 90.0819 89.1048C93.1539 87.3896 96.3283 85.8877 99.6734 84.7741C102.016 83.9933 104.401 83.3363 106.858 83.0888C108.68 82.9011 110.515 82.8968 112.354 82.9864C113.826 83.0589 115.277 83.2381 116.71 83.5624C117.154 83.6605 117.593 83.78 117.986 84.0232C118.097 84.0914 118.272 84.1597 118.203 84.3304C118.152 84.4626 117.99 84.4114 117.875 84.42C115.993 84.5693 114.116 84.7272 112.256 85.0429C107.537 85.8451 103.07 87.3341 99.0462 89.9794C97.9497 90.7005 96.9384 91.5368 95.987 92.4413C95.8249 92.5949 95.6798 92.7869 95.5518 92.7784V92.7827Z" fill="#151515"/>
<path d="M19.0717 83.0291C23.9997 82.7859 28.5693 84.228 33.0493 86.0413C36.7059 87.5219 40.1235 89.4632 43.4472 91.5794C43.6904 91.733 44.0829 91.9037 44.0189 92.1811C43.9677 92.4072 43.5283 92.3475 43.2638 92.3603C42.0606 92.42 40.8573 92.4669 39.6499 92.484C37.8664 92.5096 36.0915 92.5949 34.3165 92.7869C34.0392 92.8168 33.8088 92.7656 33.5998 92.565C29.4184 88.6227 24.3325 86.5362 18.8029 85.3714C16.5075 84.8893 14.1864 84.6034 11.844 84.5053C11.6392 84.4968 11.3277 84.5394 11.2808 84.3432C11.2211 84.0872 11.5368 84.0018 11.7331 83.925C12.8467 83.4728 14.0328 83.349 15.2019 83.1485C16.4862 82.9309 17.7832 83.0888 19.0717 83.0291Z" fill="#151515"/>
<path d="M104.192 76.4114C104.345 75.4856 104.691 74.7645 104.998 74.0306C106.491 70.4808 108.207 67.0461 110.378 63.8589C112.674 60.484 115.362 57.4546 118.703 55.0909C121.241 53.2946 124.015 51.9336 127.078 51.2381C127.198 51.2125 127.317 51.1954 127.437 51.1784C127.462 51.1784 127.492 51.2082 127.556 51.2381C127.04 51.8312 126.37 52.2109 125.756 52.6546C120.721 56.3154 116.603 60.7784 113.698 66.3165C113.16 67.3405 112.687 68.3858 112.213 69.4397C111.876 70.1864 111.407 70.8093 110.75 71.317C108.676 72.917 106.624 74.5469 104.563 76.164C104.482 76.228 104.397 76.2792 104.192 76.4157V76.4114Z" fill="#151515"/>
<path d="M20.932 97.2242C21.6189 96.6952 22.4211 96.4435 23.2062 96.1747C26.4659 95.0525 29.7555 94.0456 33.1987 93.6616C35.2979 93.4269 37.4014 93.2136 39.5176 93.2136C42.244 93.2178 44.9747 93.1112 47.6925 93.3245C50.1459 93.5165 52.595 93.8066 55.027 94.1992C55.4152 94.2632 55.8206 94.2632 56.2771 94.4466C55.475 94.8861 54.6856 95.1464 53.9219 95.4536C52.6718 95.957 51.3917 96.3794 50.1587 96.9128C49.0792 97.3821 48.0083 97.5314 46.852 97.3096C45.3373 97.0195 43.7971 96.9555 42.2611 96.9213C38.6984 96.8445 35.1443 96.405 31.5774 96.5842C28.7187 96.725 25.8557 96.8018 23.0099 97.1645C22.3315 97.2498 21.6317 97.348 20.9235 97.22L20.932 97.2242Z" fill="#151515"/>
<path d="M73.3011 94.34C74.4189 94.1736 75.5411 94.02 76.6589 93.8408C81.5528 93.0643 86.4808 93.0984 91.4046 93.2392C95.5176 93.3587 99.5838 93.9091 103.509 95.2403C104.917 95.7181 106.346 96.1277 107.72 96.6867C107.985 96.7933 108.271 96.8744 108.522 97.1731C107.917 97.2584 107.379 97.2456 106.85 97.1816C104.542 96.9085 102.225 96.7848 99.908 96.6525C98.3763 96.5672 96.8403 96.5416 95.3086 96.5117C93.9518 96.4819 92.5907 96.6355 91.2296 96.708C90.0435 96.772 88.8574 96.8701 87.6712 96.8829C85.6915 96.9043 83.7331 97.1091 81.7747 97.3736C81.3181 97.4376 80.8744 97.4419 80.4307 97.2797C78.0883 96.4136 75.7502 95.5261 73.4462 94.5619C73.3864 94.5363 73.3352 94.4936 73.2798 94.4552C73.284 94.4125 73.2925 94.3741 73.2968 94.3315L73.3011 94.34Z" fill="#151515"/>
<path d="M96.051 57.5997C96.7806 58.2269 97.3523 58.948 97.8728 59.6989C100.437 63.3768 102.434 67.3192 103.159 71.7864C103.428 73.4504 103.428 75.157 103.223 76.8466C103.202 77.0301 103.125 77.2264 103.023 77.38C101.265 79.9784 99.2808 82.3805 96.8403 84.3816C96.7336 84.4712 96.6141 84.5437 96.4947 84.6163C96.4563 84.6376 96.3965 84.6333 96.3411 84.6376C96.2643 84.4029 96.3923 84.2194 96.4605 84.0317C97.3096 81.7106 97.9752 79.3469 98.2483 76.885C98.4787 74.82 98.5683 72.7549 98.4403 70.6685C98.2568 67.6946 97.8472 64.7677 97.1517 61.8792C96.8573 60.6589 96.5032 59.4515 96.1789 58.2355C96.1235 58.0264 96.0936 57.8088 96.051 57.5955V57.5997Z" fill="#151515"/>
<path d="M33.4632 57.6296C33.2371 58.4829 33.0366 59.3448 32.7806 60.1938C31.8675 63.2189 31.3683 66.3208 31.0995 69.4525C30.6899 74.2696 31.1038 79.0098 32.8531 83.5709C32.9811 83.908 33.075 84.2578 33.2243 84.7186C32.6568 84.5138 32.2899 84.1981 31.9486 83.8781C30.1011 82.1373 28.4627 80.2173 26.9224 78.1949C26.2398 77.2989 26.163 76.309 26.1331 75.2808C26.052 72.3794 26.5854 69.5891 27.6862 66.9011C29.0515 63.5602 30.8221 60.4712 33.1944 57.7405C33.2413 57.6893 33.2712 57.6253 33.3096 57.5656C33.3608 57.5869 33.412 57.6082 33.4632 57.6296Z" fill="#151515"/>
<path d="M55.6669 83.8909C54.6813 83.4771 53.7554 82.9651 52.868 82.3763C51.8824 81.7277 51.1869 80.8104 50.4744 79.9059C50.2653 79.6456 50.3763 79.5091 50.6408 79.4024C51.1869 79.1805 51.6819 79.2147 52.1683 79.5816C52.9491 80.1704 53.6488 80.8616 54.4893 81.3736C55.7267 82.1245 57.1048 82.5171 58.4658 82.9736C60.4968 83.6563 60.0914 83.1699 60.1256 85.2221C60.1554 86.916 60.1256 88.6099 60.1512 90.3037C60.1597 90.7816 60.0189 90.8755 59.5709 90.7347C58.5896 90.4232 57.5954 90.1416 56.6013 89.8728C56.196 89.7619 56.0339 89.5357 56.0253 89.1261C56.0125 88.5672 55.9485 88.0125 55.9229 87.4536C55.8931 86.8989 55.6669 86.5149 55.1379 86.2717C53.9773 85.7384 52.868 85.0984 51.6904 84.6163C50.1886 84.0019 49.092 82.9523 48.1576 81.6808C48.0424 81.5272 47.9357 81.3693 47.812 81.22C47.0781 80.3411 46.6301 79.364 46.5363 78.1907C46.4296 76.868 46.276 75.5539 46.2803 74.2227C46.2803 73.7149 46.4893 73.3864 46.98 73.2584C47.428 73.1432 47.8546 73.3779 48.068 73.8643C48.4392 74.7005 48.6355 75.588 48.8189 76.4797C49.557 80.0595 51.8397 82.3123 55.0739 83.7416C55.2019 83.7971 55.3384 83.8312 55.475 83.8653C55.539 83.8824 55.6115 83.8824 55.6755 83.8909H55.6669Z" fill="#151515"/>
<path d="M79.3213 79.6883C80.0467 78.8989 80.3496 77.9219 80.5629 76.9021C80.7763 75.8781 80.9982 74.8498 81.395 73.8728C81.6211 73.3224 82.0563 73.092 82.5555 73.2413C82.9438 73.3565 83.1912 73.5954 83.1998 74.0264C83.2296 75.8482 83.0547 77.653 82.7304 79.445C82.7006 79.6114 82.6152 79.7779 82.5256 79.9229C81.9453 80.8616 81.2926 81.7491 80.5715 82.5811C79.9358 83.3106 79.2189 83.9165 78.3101 84.3218C76.9405 84.932 75.6179 85.6616 74.2611 86.3058C73.7832 86.532 73.5912 86.8818 73.5613 87.3725C73.5272 87.9485 73.4717 88.5203 73.4547 89.0963C73.4461 89.4973 73.3054 89.732 72.8915 89.8472C71.8803 90.1202 70.8734 90.4232 69.875 90.7304C69.4696 90.8541 69.3374 90.7218 69.3374 90.3165C69.3502 88.2045 69.3544 86.0882 69.3501 83.9762C69.3501 83.6093 69.5251 83.4515 69.8365 83.3363C71.0355 82.8968 72.2728 82.581 73.4589 82.1117C74.6664 81.6338 75.7032 80.9128 76.6717 80.0722C76.8424 79.9229 77.0216 79.7864 77.2051 79.6498C77.9902 79.0568 78.5277 79.0696 79.3256 79.701C79.0867 79.7309 78.98 79.9186 78.8563 80.085C77.9432 81.3266 76.8424 82.3507 75.46 83.0546C74.9267 83.3277 74.3806 83.5794 73.8174 83.797C75.3363 83.5794 77.7555 82.1544 79.3213 79.6968V79.6883Z" fill="#151515"/>
<path d="M125.866 66.0733C125.269 66.3464 124.672 66.6152 124.074 66.8968C120.845 68.42 117.662 70.037 114.824 72.2301C112.081 74.3506 109.632 76.7997 107.285 79.3469C106.47 80.2344 105.702 81.1645 104.913 82.0733C104.764 82.2482 104.61 82.4061 104.375 82.4701C102.451 82.9949 100.586 83.7117 98.6963 84.3304C98.5683 84.373 98.4445 84.4669 98.2696 84.3645C98.436 83.8952 98.7859 83.5453 99.0931 83.1869C102.946 78.7026 107.127 74.5682 112.115 71.3384C116.22 68.6802 120.648 66.7858 125.508 65.9922C125.61 65.9752 125.709 65.9709 125.811 65.9581C125.828 65.9965 125.845 66.0349 125.862 66.0733H125.866Z" fill="#151515"/>
<path d="M31.1976 84.5053C30.7027 84.3389 30.2717 84.2024 29.8493 84.053C28.3347 83.5154 26.8158 82.9906 25.267 82.5512C24.9512 82.4616 24.7123 82.308 24.4989 82.0477C21.4141 78.3016 18.0435 74.8328 14.1651 71.9058C11.3064 69.7512 8.10644 68.164 4.85951 66.6792C4.41151 66.4744 3.95924 66.2696 3.52831 66.0178C5.14537 66.1544 6.69839 66.5469 8.22586 67.029C13.2051 68.612 17.6382 71.1848 21.6403 74.517C25.0152 77.3288 28.0958 80.4392 30.8776 83.844C31.0056 84.0018 31.1635 84.1512 31.1976 84.501V84.5053Z" fill="#151515"/>
<path d="M47.5389 104.49C47.5389 104.038 47.5261 103.582 47.5389 103.129C47.556 102.741 47.4237 102.566 47.0056 102.553C45.5037 102.502 44.0062 102.417 42.5043 102.34C42.355 102.331 42.1416 102.391 42.0776 102.225C42.0008 102.024 42.2227 101.93 42.3464 101.828C43.1144 101.214 43.9635 100.731 44.8211 100.258C48.6568 98.1288 52.6717 96.4306 56.8744 95.1805C57.8173 94.8989 57.8216 94.9245 58.2099 95.8419C58.4701 96.452 58.7304 97.0664 59.0077 97.668C59.1443 97.9624 59.1144 98.1288 58.7987 98.2867C55.7224 99.7885 52.8808 101.657 50.2824 103.893C49.5144 104.554 48.8232 105.297 48.0979 106.005C47.9656 106.133 47.8461 106.393 47.6584 106.321C47.4323 106.231 47.5389 105.95 47.5347 105.749C47.5219 105.331 47.5347 104.909 47.5304 104.49H47.5389Z" fill="#151515"/>
<path d="M71.9358 94.9629C72.2899 95.0611 72.6483 95.1464 72.9982 95.2531C77.5934 96.6696 81.9624 98.5981 86.0925 101.064C86.4936 101.303 86.8563 101.615 87.2318 101.896C87.3128 101.956 87.4152 102.033 87.3853 102.148C87.3512 102.276 87.2147 102.25 87.1208 102.259C86.1096 102.327 85.1027 102.4 84.0915 102.447C83.5326 102.472 82.9779 102.485 82.4189 102.541C82.0563 102.575 81.9368 102.733 81.9411 103.074C81.9496 104.051 81.9411 105.028 81.9411 106.009C81.9411 106.125 81.9667 106.278 81.8174 106.321C81.7022 106.351 81.6467 106.223 81.5741 106.15C78.8051 103.266 75.6648 100.881 72.1277 99.012C71.6328 98.7517 71.1507 98.4658 70.6429 98.2312C70.3443 98.0904 70.3187 97.9325 70.4467 97.6594C70.8051 96.8829 71.1421 96.0936 71.4835 95.3128C71.5731 95.108 71.6627 94.9245 71.9443 94.9715L71.9358 94.9629Z" fill="#151515"/>
<path d="M41.9838 89.6296C41.843 89.7064 41.732 89.6296 41.6296 89.5741C39.3896 88.4306 37.1369 87.3085 34.9779 86.0114C34.4617 85.7042 34.1715 85.2648 33.9966 84.7101C33.7022 83.7714 33.5571 82.8029 33.4974 81.8258C33.2627 78.2034 33.3523 74.6024 34.3123 71.0696C34.5512 70.1821 34.8968 69.333 35.4856 68.4925C35.7587 69.316 35.6947 70.0712 35.7672 70.805C36.2238 75.5282 37.2435 80.1106 39.1123 84.4925C39.8078 86.1266 40.755 87.6115 41.7107 89.092C41.8174 89.2584 41.9923 89.3992 41.988 89.6296H41.9838Z" fill="#151515"/>
<path d="M87.3427 89.6722C91.9123 83.3064 93.299 76.0658 93.9134 68.5821C94.2206 68.6333 94.259 68.868 94.3528 69.0386C95.2147 70.6002 95.5304 72.3197 95.7779 74.052C96.0211 75.78 96.1363 77.5293 96.0851 79.2744C96.0381 80.9426 96.0253 82.628 95.5987 84.2664C95.3896 85.06 95.027 85.6957 94.2846 86.1266C92.1214 87.3768 89.8941 88.5074 87.6584 89.621C87.6157 89.6424 87.5603 89.6381 87.3427 89.668V89.6722Z" fill="#151515"/>
<path d="M54.1224 67.797C54.1992 67.9549 54.2803 68.1128 54.3571 68.2706C54.4979 68.9448 54.3358 69.5677 54.1139 70.212C52.7528 74.0818 55.7566 78.0413 59.8568 77.8194C61.6062 77.7256 63.0014 76.9746 64.0936 75.6264C64.1576 75.5496 64.1918 75.4344 64.3753 75.4088C63.9443 76.2579 63.364 76.9448 62.6558 77.5037C59.9336 79.637 56.964 80.068 53.8835 78.4509C50.867 76.868 49.5187 74.2354 49.6424 70.852C49.6766 69.9218 49.9454 69.0258 50.3465 68.181C51.0505 66.6963 52.74 66.4232 53.8878 67.6008C53.9603 67.6733 54.0457 67.7373 54.1224 67.8056L54.1224 67.797Z" fill="#151515"/>
<path d="M77.9219 67.1357C78.5704 67.861 78.9288 68.6376 79.2104 69.4525C80.819 74.1202 77.5933 79.236 72.6867 79.8034C70.1693 80.0936 67.9933 79.3554 66.1672 77.6104C65.2712 76.7528 65.2243 75.4387 66.0179 74.6024C66.8499 73.7192 68.1128 73.6893 69.0813 74.5341C71.189 76.3773 74.0136 76.5565 76.2963 74.9906C78.532 73.4589 79.3682 70.3528 78.2077 67.8994C78.1053 67.6861 77.939 67.4941 77.9262 67.1357H77.9219Z" fill="#151515"/>
<path d="M56.1448 53.7768C55.9998 53.9218 55.8547 54.0626 55.7096 54.2077C55.1166 54.6173 54.4509 54.6429 53.7555 54.6429C51.4728 54.6429 49.3053 56.0893 48.4989 58.1032C47.5858 60.373 48.0637 62.8946 49.7277 64.5032C50.5341 65.284 51.4984 65.7917 52.5821 66.0861C51.1315 65.9154 49.8301 65.3651 48.7122 64.4349C45.9603 62.148 45.0771 58.5 46.4424 55.1805C47.5901 52.3944 50.4957 50.4317 53.508 50.4104C53.7682 50.4104 54.0328 50.4104 54.2931 50.4146C55.8973 50.4573 56.8616 51.8952 56.2813 53.38C56.2301 53.508 56.1875 53.6402 56.1448 53.7725L56.1448 53.7768Z" fill="#151515"/>
<path d="M75.8355 93.2392C76.3134 92.7314 76.8637 92.3987 77.4013 92.0488C80.1064 90.2867 82.5683 88.2259 84.7955 85.8877C86.0755 84.548 87.2574 83.1229 88.3667 81.6381C88.4819 81.4845 88.5885 81.3181 88.7208 81.1859C88.9427 80.9597 89.1219 80.4947 89.4248 80.6056C89.6467 80.6867 89.5187 81.1816 89.4803 81.4845C88.9896 85.2093 87.5389 88.5331 85.2477 91.4984C85.0173 91.7928 84.7571 91.9677 84.3901 92.0317C81.7235 92.5096 79.0483 92.9064 76.3688 93.3032C76.2152 93.3245 76.0574 93.3587 75.8398 93.2349L75.8355 93.2392Z" fill="#151515"/>
<path d="M53.5934 93.397C52.164 93.188 50.7304 92.9917 49.3011 92.7656C47.9528 92.5522 46.6174 92.2962 45.2691 92.0957C44.7998 92.0275 44.4499 91.8397 44.1725 91.4685C41.924 88.4776 40.4478 85.1624 39.9912 81.4248C39.9571 81.1432 39.8291 80.6952 40.0595 80.597C40.324 80.4861 40.4989 80.9085 40.6739 81.1304C42.1757 83.0376 43.6819 84.9405 45.4184 86.6514C47.4365 88.6482 49.6126 90.4488 51.9891 92.0104C52.5651 92.3901 53.1496 92.7656 53.6574 93.2392C53.636 93.2904 53.619 93.3373 53.5976 93.3885L53.5934 93.397Z" fill="#151515"/>
<path d="M66.7305 95.2488C66.7305 95.7736 66.7475 96.2984 66.7305 96.8189C66.6963 97.6509 66.1886 98.1373 65.3651 98.1544C64.964 98.1629 64.563 98.1629 64.1619 98.1544C63.3598 98.1416 62.8222 97.6979 62.7838 96.8872C62.7326 95.7906 62.7326 94.6898 62.7838 93.5933C62.8265 92.7528 63.347 92.3133 64.1918 92.2792C64.5758 92.2621 64.9598 92.2621 65.3438 92.2792C66.2099 92.3261 66.6921 92.8083 66.7262 93.6744C66.7475 94.1949 66.7262 94.7197 66.7305 95.2445V95.2488Z" fill="#151515"/>
<path d="M58.5342 94.6941C58.5342 94.2248 58.7475 93.8792 59.1656 93.6957C59.6094 93.4995 60.0702 93.3203 60.5353 93.1752C61.0345 93.0216 61.5123 93.2477 61.6744 93.7427C61.9646 94.6386 62.2291 95.5432 62.4638 96.4563C62.5961 96.9597 62.3528 97.4163 61.8408 97.6552C61.3843 97.8685 60.9065 98.0392 60.4243 98.197C60.0019 98.3336 59.6734 98.1416 59.4302 97.8002C59.2552 97.5528 58.5299 95.0141 58.5342 94.6941Z" fill="#151515"/>
<path d="M70.9331 94.852C70.724 95.7352 70.4723 96.7677 70.0541 97.7448C69.8536 98.2141 69.3587 98.2397 68.9107 98.1117C68.4755 97.988 68.0488 97.8259 67.6392 97.6381C67.1315 97.4077 66.884 96.8872 67.0291 96.3368C67.2595 95.4792 67.507 94.6259 67.78 93.7811C67.9507 93.2477 68.3475 93.0131 68.868 93.1283C69.3971 93.2435 69.9091 93.4355 70.3784 93.7C70.7496 93.9091 70.9544 94.2504 70.9288 94.852H70.9331Z" fill="#151515"/>
<path d="M70.1693 60.1043C70.195 59.5795 70.1395 59.0717 70.2504 58.5725C70.3315 58.2141 70.5149 57.9411 70.9117 57.9667C71.2872 57.9923 71.4238 58.2824 71.4664 58.6195C71.5859 59.5923 71.5902 60.5651 71.5646 61.5421C71.5518 62.0072 71.3427 62.2547 70.8648 62.2547C70.4168 62.2547 70.2846 61.9987 70.2334 61.5933C70.1651 61.0899 70.1907 60.5864 70.1651 60.1L70.1693 60.1043Z" fill="#151515"/>
<path d="M73.1901 59.332C73.1517 59.5837 73.2158 59.844 73.0536 60.0488C72.9086 60.2323 72.6867 60.2237 72.4776 60.1939C72.2515 60.1597 72.0937 60.036 72.0638 59.7971C72.0211 59.4557 71.9443 59.1144 72.0296 58.7645C72.0851 58.5384 72.0296 58.2397 72.4008 58.2568C72.7336 58.2696 73.0281 58.372 73.1262 58.7304C73.1817 58.9267 73.1731 59.14 73.1901 59.3363V59.332Z" fill="#151515"/>
<path d="M71.5688 63.5474C71.5433 64.2685 71.411 64.4221 70.8222 64.405C70.3144 64.3922 70.1779 64.2258 70.2035 63.6669C70.2334 63.044 70.4638 62.7922 71.0014 62.7965C71.428 62.7965 71.5902 63.0098 71.5688 63.5474Z" fill="#151515"/>
<path d="M72.6952 62.6984C73.1432 62.7069 73.3736 62.9672 73.3565 63.4493C73.3395 63.9016 73.0323 64.1917 72.5672 64.1618C72.2046 64.1405 71.987 63.94 71.987 63.5602C71.987 63.0312 72.2728 62.6941 72.6952 62.6984Z" fill="#151515"/>
<path d="M72.6653 60.8978C73.1219 60.932 73.2584 61.2306 73.2541 61.6445C73.2541 62.0072 73.1176 62.2632 72.7123 62.2376C72.2728 62.212 72.1363 61.9304 72.1576 61.525C72.1747 61.1837 72.2216 60.8936 72.6653 60.8978Z" fill="#151515"/>
<path d="M59.251 55.812C59.2595 54.788 60.6035 53.764 61.5891 54.0328C62.2718 54.2162 62.532 54.7496 62.1822 55.3469C61.6958 56.1789 60.8979 56.5501 59.9763 56.6312C59.5069 56.6738 59.2467 56.3282 59.251 55.812Z" fill="#151515"/>
<path d="M60.3347 61.4397C59.6093 61.4483 59.1059 61.1581 59.0462 60.7229C58.9608 60.1171 59.46 59.4088 60.0744 59.2723C60.4712 59.1869 60.8766 59.1827 61.2734 59.2381C61.7043 59.2979 62.0286 59.5283 62.1182 59.9805C62.212 60.4413 62.0414 60.7955 61.6318 61.0387C61.2179 61.2861 60.7614 61.3928 60.3305 61.4397H60.3347Z" fill="#151515"/>
<path d="M62.0286 62.6856C62.0371 63.3341 61.8835 63.5346 61.3459 63.556C60.8979 63.5773 60.7315 63.3426 60.7272 62.6728C60.7272 62.1053 60.9875 61.8408 61.5592 61.8408C61.9773 61.8408 62.0115 61.909 62.0243 62.6813L62.0286 62.6856Z" fill="#151515"/>
<path d="M62.1352 64.661C62.1224 65.1048 61.7342 65.5314 61.3843 65.493C61.0515 65.4589 61.0472 65.1816 61.0472 64.9426C61.0429 64.5672 61.4184 64.2472 61.8152 64.26C62.1139 64.2685 62.131 64.4733 62.1352 64.661Z" fill="#151515"/>
</svg>
