<svg width="16" height="18" viewBox="0 0 16 18" fill="none" xmlns="http://www.w3.org/2000/svg">
<path d="M15.3244 0.476542C15.0716 0.25205 14.7012 0.243715 14.4406 0.438456L14.3361 0.535136L7.47866 8.249C7.24299 8.5142 7.24299 8.91447 7.47866 9.17967L14.3361 16.8935L14.4406 16.9892C14.7012 17.1843 15.0715 17.1767 15.3244 16.9521C15.5772 16.7274 15.6291 16.3599 15.466 16.0781L15.382 15.9638L8.93862 8.71385L15.382 1.46482C15.6388 1.17588 15.6133 0.733385 15.3244 0.476542ZM8.32436 0.476542C8.07164 0.25205 7.7012 0.243715 7.44057 0.438456L7.33608 0.535136L0.478656 8.249C0.24299 8.5142 0.242994 8.91447 0.478656 9.17967L7.33608 16.8935L7.44057 16.9892C7.7012 17.1843 8.07151 17.1767 8.32436 16.9521C8.57719 16.7274 8.62911 16.3599 8.46596 16.0781L8.38198 15.9638L1.93862 8.71385L8.38198 1.46482C8.63882 1.17588 8.61331 0.733385 8.32436 0.476542Z" fill="#C7C6C6"/>
</svg>
