<svg width="16" height="18" viewBox="0 0 16 18" fill="none" xmlns="http://www.w3.org/2000/svg">
<path d="M0.677594 0.476542C0.930311 0.25205 1.30076 0.243715 1.56138 0.438456L1.66587 0.535136L8.5233 8.249C8.75896 8.5142 8.75896 8.91447 8.5233 9.17967L1.66587 16.8935L1.56138 16.9892C1.30075 17.1843 0.930439 17.1767 0.677594 16.9521C0.424759 16.7274 0.372847 16.3599 0.535992 16.0781L0.619977 15.9638L7.06334 8.71385L0.619977 1.46482C0.363134 1.17588 0.388646 0.733385 0.677594 0.476542ZM7.67759 0.476542C7.93031 0.25205 8.30076 0.243715 8.56138 0.438456L8.66588 0.535136L15.5233 8.249C15.759 8.5142 15.759 8.91447 15.5233 9.17967L8.66588 16.8935L8.56138 16.9892C8.30075 17.1843 7.93044 17.1767 7.67759 16.9521C7.42476 16.7274 7.37285 16.3599 7.53599 16.0781L7.61998 15.9638L14.0633 8.71385L7.61998 1.46482C7.36313 1.17588 7.38865 0.733385 7.67759 0.476542Z" fill="#464747"/>
</svg>
