<?xml version="1.0" encoding="UTF-8"?>
<svg id="_圖層_1" data-name="圖層_1" xmlns="http://www.w3.org/2000/svg" version="1.1" viewBox="0 0 160 160">
  <!-- Generator: Adobe Illustrator 29.3.1, SVG Export Plug-In . SVG Version: 2.1.0 Build 151)  -->
  <path d="M137.15,82.65l-6.12,3.31c.61-6.35.51-12.84-1.66-18.9-3.77-10.52-15.68-22.03-27.68-20.34-.27.04-1.11.11-.93.61.77,2.03,6.48,5.78,8.74,6.27.07.45-.63.28-.92.26-.53-.04-1.02-.26-1.59-.27-.56-.02-3.74-.25-3.47.54,2.8,3.61,6.25,6.47,10.63,7.97.73.25,3.15,1.06,3.73,1.06h4.92c-.04-.86-1.11-1.98-1.72-2.66-2.38-2.63-5.68-4.81-9.17-5.57-.05-.5.56-.21.85-.19,1.73.17,3.05.46,4.88.47,1.57,0,1.99-.83,3.41.55,7.04,6.82,9.19,19.39,8.13,28.75-.38,3.34-.84,4.6-3.71,6.5.6-6.94-5.49-13.36-12.49-12.6,2.64,1.79,4.43,4.35,4.78,7.56-2.68-2.31-5.58-4.79-9.3-5.04-.28.28,1.6,2.71,1.9,3.27,2.91,5.36,2.06,11.43-1.77,16.1-.52.63-3.28,3.39-3.87,3.59-1.19.4-17.91-13.01-20.45-14.34l15.68-7.43c.73-.77-.67-2.87-1.86-2.26,0-.62.82.18.81-.66-.03-2.66-2.29-1.34-3.72-.78-5.52,2.15-10.87,4.78-16.36,7-1.11-.02-10.71-7.77-12.8-8.94-3.8-2.13-7.84-1.86-12.04-1.38v.78c9.15,1.77,15.68,8.4,23.12,13.42l-4.89,2.28c-.4-.07-.63-2.55-1.82-2.37-.89.13-5.84,2.52-7.02,3.1-.51.25-2.16.96-2.35,1.36.32,1.4,1.07,3.7-.4,4.64-1.24.8-3.02.21-4.52.53-1.43.3-2.37,1.78-3.8,1.99-4.95-5.69-4.72-13.53.1-19.21-.87-1.08-2.17-.44-3.26-.08-2.21.75-3.97,2.25-5.78,3.65.3-2.64,2.05-4.89,4.25-6.23-1.22-1.47-3.27-.33-4.77.01-.27.06-.87.35-.81-.14,2.56-1.06,7.11-5.6,7.85-8.22.73-2.57-2.63-.57-3.87-.93,1.86-1.28,3.71-2.65,5.18-4.38.58-.68,2.47-2.87,1.95-3.68-.39-.61-3.4.08-4.16.15-.29.03-.9.32-.85-.19,2.43-.87,4.94-2.45,6.78-4.24.31-.3,2.18-2.42,2.22-2.58.11-.41-.42-1.14-.64-1.14h-4.12l4.23-2.54c1.19-1.11,5.66-3.9,1.76-4.36-8.65-1.02-15.75,3.77-21.14,9.95-7.14,8.18-9.04,19.31-7.44,29.86-7.63-5.63-17.93-7.78-26.57-3.05.86.97.84.39,1.73.4,2.14,0,3.91-.03,6.03.34,7.11,1.26,14.19,6.69,18.81,12-2.17-.1-4.32-.8-6.5-.94-5.64-.36-11.67.25-14.47,5.82l.87.56c11.15-3.95,22.9-1.25,31.79,6.24l-2.52,1.99c-.55,1.21.19,7.92.65,9.43.54,1.77,1.54,2.76,3.21,1.32l7.87-8.3c8.23,2.3,16.89,2.3,25.37,2.21.45-.31.34-4.38-.06-4.62-6.46-.38-12.96-1.25-18.56-4.68,1.34-2.72,2.33-1.14,4.38-1.18,1.97-.03,3.55-1.12,4.25-2.94.55-1.45.19-2.56.74-3.91l13.05-5.85,20.64,14.54c.33.49-.84.96-1.14,1.11-4.44,2.12-9.97,2.49-14.8,2.87v4.11c.41.47.86.6,1.46.67,2.86.33,9.12-.09,12.23-.27,4.05-.24,8.23-.92,12.09-2.12l-.79,1.19c.6.74,1.53,1.02,2.46.88.94-.15.86-.94,1.3-1.63.41-.65,1.28-.87.78-1.74l6.62-3.47c1.55,2.95,1.9,6.07,1.57,9.39-.13,1.32-1.32,4.29-1.28,5.09.03.61.86,1.08,1.42,1.16,2.38-3.68,2.93-8.99,1.83-13.19-.26-.99-1.56-3.42-1.37-4.11,8.17-6.42,19.15-7.34,28.93-4.17-3.46-7.85-13.15-6.81-20.2-5.57,3.8-4.33,8.69-8.3,14.09-10.47,1.21-.49,4.84-1.73,5.98-1.73h4.78c.16,0,1.02.75.93-.13-5.88-3.66-13.9-3.61-20.19-1.06ZM35.2,72.19c1.76.7,3.68-.04,5.47-.28-1.86,1.53-3.9,2.9-5.45,4.77-.57.69-3.27,4.25-2.27,4.93,1.13.77,5.29-.91,6.66-1.21-1.56,1.35-2.64,2.75-3.39,4.7-.2.52-.86,2.46-.86,2.85v3.85c-2.17-2.13-3.19-2.55-3.69-5.74-1.24-7.92.1-17.96,4.27-24.86.8-1.32,4.27-6.19,5.68-6.28.48-.03,1.02.27,1.57.27,1.3,0,2.58-.08,3.86-.15-2.28,1.1-4.37,2.11-6.25,3.84-.58.53-3.27,3.28-2.77,3.97.24-.04.56.28.65.28h4.78c.15,0,1.16-.7,1.19,0-3.07,1.04-5.9,3.25-7.96,5.72-.56.67-2.37,2.7-1.49,3.33ZM60.07,102.68c.8-1.13,1.99-1.15,3.19-.79-.56,1.26-2.1.69-3.19.79ZM63.03,100.69c.65-.33,1.55-3.55,2.35-2.79-.14,1.3-.71,4.81-2.35,2.79Z"/>
  <path d="M132.65,80.9c.89.61,5.42-2.91,6.23-3.68,2.47-2.35,4.69-6.31,5.52-9.62.29-1.15.79-2.7.21-3.81-.83-.6-4.19,1.94-4.93,2.55-2.84,2.36-5.51,6.33-6.59,9.87-.25.82-1.15,4.2-.43,4.69Z"/>
  <path d="M35.76,57.32c3.15-2.66,5.35-6.28,6.51-10.22.37-1.25,1.18-3.22.26-4.27-.7-.44-3.71,1.74-4.38,2.28-4.27,3.38-7.69,9.3-7.55,14.82.55.91,4.5-2.06,5.16-2.62Z"/>
  <path d="M135.27,70.04c2.38-4.76,3.27-9.65,2.06-14.9-.22-.96-1.85-6.31-2.97-6.05-3.08,4.67-3.61,11.28-1.98,16.57.24.79,1.84,5.09,2.9,4.39Z"/>
  <path d="M26.58,70.04c2.61-4.87,3.35-9.98,2-15.39-.23-.92-1.79-5.83-2.92-5.57-3.19,5.34-3.76,12.26-1.33,18.04.18.43,1.55,3.43,2.25,2.92Z"/>
  <path d="M119.35,71.49c2.12.4,4.11,1.27,6.36.94.83-.79-4.05-5.62-4.78-6.24-2.27-1.91-5.61-3.54-8.51-4.24-.77-.19-4.88-1.1-5.05-.26-.28,1.35,7.29,8.46,9.3,8.62.05.51-.53.2-.8.13-1.41-.38-3.45-1.36-4.91-1.21-.32.03-.54-.08-.4.4.26.9,2.11,3.58,2.78,4.39,3.51,4.23,9.15,7.64,14.75,7.69-1.59-4.34-5.44-8.08-9.56-10.08-.06-.49.53-.2.81-.14Z"/>
  <path d="M130.23,60.23c0-5.74-3.46-11.37-7.85-14.85-.57-.45-4.22-3.1-4.64-2.66.46,7.4,5.58,14.75,12.49,17.51Z"/>
  <path d="M23.8,78.53c.53.43,3.95,2.84,4.38,2.39-.04-7.25-5.67-14.92-12.49-17.24.42,5.77,3.69,11.23,8.11,14.85Z"/>
  <path d="M83.98,115.76c-.5-2.04,1.47-7.6-2.12-6.71v5.97c0,.88,1.45.83,1.56.96.08.1.07,1.09.21,1.52.79,2.38,3.08,1.38,1.28-1.02-.27-.36-.87-.48-.93-.72Z"/>
  <path d="M102.88,77.61l4.12-1.99c-.04-1.91-1.04-1.68-1.98-2.29-.82-.53-1.46-1.62-2.42-1.17l1.06,1.99-2.37,1.36c0,.76.72,2.27,1.6,2.1Z"/>
  <path d="M77.52,108.85c-1.34.03-1.16,4.84-.96,5.89.16.84,1.4,1.6,2.09,1.17.33-.21,1.09-7.4-1.13-7.06Z"/>
  <path d="M80.41,108.88c-.87.17-1.11.21-1.22,1.09-.11.86-.09,4.73.19,5.39.29.67,1.76.82,1.95.19.24-.8,0-4.64,0-5.84,0-.06-.74-.81-.92-.84Z"/>
  <path d="M98.88,77.32c-.01.55,1.62,3.97,2.03,4.1.58.2,1.97-.45,1.91-1.12l-1.85-3.86c-.61-.1-2.07.13-2.09.88Z"/>
  <path d="M119.15,116.29c-.47.4-1.11,2.02-1.92,2.48,2.22,2.9,3.42-.13,4.76-1.89-.61-.78-2.03-1.27-2.84-.58Z"/>
  <path d="M119.34,114.63c-.73-.05-1.4-.72-2.11-.41-.42.18-2.67,2.93-2.4,3.32.89.17,1.85.88,2.74.29.18-.12,1.93-2.97,1.77-3.2Z"/>
  <path d="M116.69,113.15c-.06-.76-.8-.75-1.4-.6-.26.07-2.91,2.16-3.01,2.32-.48.87,1.8,1.75,2.7,1.09.14-.1,1.71-2.65,1.71-2.81Z"/>
  <path d="M75.92,115.97c-.57.19-.96,2.03-.45,2.52l.69.39c.81,0,1.66-2.2.67-2.81l-.9-.1Z"/>
  <path d="M99.54,61.29c3.86-13.83-7.3-26.57-21.45-25.13-13.86,1.41-21.91,17.24-14.97,29.38,8.74,15.29,31.71,12.6,36.41-4.25ZM75.22,60.49l-5.31,1.33,3.85-3.71,1.46,2.38ZM79.14,50.48c8.78-1.52,9.01,11.98.23,10.79-5.77-.78-5.88-9.81-.23-10.79ZM74.16,66.6l1.72-5.57,2.26,1.46-3.98,4.11ZM80.27,68.45l-1.33-5.83h2.92s-1.59,5.83-1.59,5.83ZM82.67,62.48l2.26-1.46,1.72,5.84-3.98-4.38ZM85.59,60.36l1.46-2.25,4.12,3.97-5.58-1.72ZM87.18,57.31v-2.92s5.84,1.33,5.84,1.33l-5.84,1.59ZM87.04,53.59l-1.46-2.25,5.85-1.72-4.39,3.97ZM86.91,44.84l-1.99,5.83c-.57-.86-1.53-.86-2.25-1.45l4.24-4.38ZM80.27,43.25c.4-.04.42.65.51.95.45,1.59.66,3.29,1.08,4.89h-2.92s1.33-5.83,1.33-5.83ZM78.13,48.97c.13.56-1.93,1.35-2.38,1.71l-1.6-5.84,3.97,4.13ZM75.1,51.2l-.94,2.39c-.4.11-.44-.11-.67-.26-1.22-.84-2.92-2.93-4.12-3.98l5.72,1.85ZM68.94,55.42c1.5-.51,3.16-.59,4.68-1.03v2.92s-5.58-1.33-5.58-1.33c.08-.49.55-.44.89-.56Z"/>
</svg>