<svg width="1440" height="2052" viewBox="0 0 1440 2052" fill="none" xmlns="http://www.w3.org/2000/svg">
<path opacity="0.1" d="M2119.63 762.628C2050.63 541.921 1838.63 399.98 1604.05 417.21L1573.94 419.261L1567.67 390.134C1519.58 164.094 1321.37 3.69212 1085.95 0C1083.02 0 1080.52 0 1077.59 0C845.932 0 646.891 153.018 591.694 374.545L584.584 403.262L554.478 399.98C320.311 375.366 103.708 510.333 27.6043 728.579C-48.918 946.824 37.6362 1183.94 237.932 1305.78L263.444 1321.37L250.897 1348.44C154.722 1558.9 218.699 1802.99 406.868 1941.65C595.038 2080.31 870.602 2072.92 1049.99 1923.6L1072.99 1904.31L1095.15 1924.01C1190.49 2008.93 1291.27 2052 1411.69 2052C1511.63 2052 1611.99 2022.46 1699.39 1962.16C1892.15 1829.65 1964.08 1587.61 1875.01 1373.88L1863.72 1346.39L1890.06 1331.63C2094.12 1216.76 2188.62 982.515 2119.63 761.808V762.628ZM1830.27 1166.3H1825.25C1804.76 1164.66 1785.94 1155.63 1772.14 1140.46C1765.04 1132.25 1759.6 1123.23 1756.67 1113.38L1568.08 1101.48C1566.83 1186.4 1543.83 1265.99 1504.11 1335.73L1674.72 1453.88C1686.42 1446.9 1700.22 1442.8 1714.44 1442.8C1730.33 1442.8 1745.8 1447.72 1758.76 1456.75C1775.49 1468.64 1786.78 1485.87 1790.12 1505.98C1793.47 1526.08 1788.87 1546.18 1777.16 1562.59C1762.53 1582.69 1739.11 1594.59 1714.02 1594.59C1698.13 1594.59 1682.66 1589.66 1669.69 1580.64C1652.97 1568.74 1641.68 1551.51 1638.33 1531.82C1635.82 1518.28 1637.5 1504.74 1642.52 1492.03L1477.34 1377.57C1455.6 1407.93 1430.09 1435.83 1402.08 1460.44L1554.29 1681.97C1560.98 1680.33 1567.67 1679.1 1574.78 1679.1C1600.7 1679.1 1624.53 1691.81 1639.17 1712.73C1663 1747.6 1653.39 1794.78 1618.26 1817.75C1605.3 1826.37 1590.67 1830.47 1575.19 1830.47C1549.27 1830.47 1525.43 1817.76 1510.8 1796.83C1499.09 1780.01 1494.91 1759.91 1499.09 1740.22C1501.18 1729.14 1506.19 1718.89 1512.89 1709.86L1363.19 1491.62C1335.17 1512.13 1304.64 1529.36 1272.45 1543.72L1305.9 1706.17C1339.35 1709.45 1367.79 1733.25 1374.48 1766.47C1378.66 1786.17 1374.48 1806.68 1363.19 1823.5C1351.9 1840.32 1334.33 1851.8 1314.26 1855.91C1309.24 1857.14 1303.81 1857.55 1298.79 1857.55C1262.41 1857.55 1230.63 1832.11 1223.11 1796.83C1216.83 1765.24 1231.05 1734.48 1257.39 1718.07L1225.2 1562.18C1175.44 1578.59 1122.33 1587.61 1066.72 1587.61C1019.88 1587.61 974.725 1580.64 932.073 1569.15L901.543 1718.07C927.469 1734.48 942.107 1765.24 935.835 1796.83C928.726 1832.11 896.944 1857.55 860.146 1857.55C855.129 1857.55 849.693 1857.14 844.675 1855.91C824.604 1851.8 807.044 1840.32 795.754 1823.5C784.464 1806.68 780.282 1786.17 784.463 1766.47C791.154 1733.66 819.589 1709.45 853.041 1706.17L884.403 1553.15C850.114 1540.03 817.495 1523.62 787.388 1503.51L646.052 1709.86C652.742 1718.89 657.763 1729.14 659.854 1740.22C664.035 1759.91 659.853 1780.42 648.144 1797.24C633.927 1818.16 609.673 1830.88 584.165 1830.88C568.694 1830.88 554.057 1826.37 541.094 1818.17C505.969 1794.78 496.352 1747.6 520.187 1713.14C534.404 1692.22 558.658 1679.51 584.165 1679.51C591.274 1679.51 597.964 1680.74 604.655 1682.38L747.247 1474.39C716.303 1449.36 689.125 1420.24 665.29 1389.06L516.843 1492.03C521.861 1504.74 523.533 1518.28 521.024 1531.82C517.678 1551.92 506.388 1569.15 489.662 1581.05C476.699 1590.07 461.23 1595 445.34 1595C420.251 1595 396.416 1583.1 382.199 1563C370.49 1546.59 365.47 1526.49 369.233 1506.39C372.579 1486.28 383.869 1469.05 400.595 1457.16C413.558 1448.13 429.032 1443.21 444.922 1443.21C459.139 1443.21 472.518 1447.31 484.644 1454.29L637.69 1348.44C593.784 1276.24 567.442 1192.56 566.188 1103.12L392.234 1114.2C388.889 1124.05 383.871 1133.48 376.762 1141.28C362.963 1156.45 344.146 1165.48 323.656 1166.71H318.638C278.077 1166.71 244.208 1135.53 241.699 1096.15C240.445 1076.05 247.134 1056.36 260.933 1041.18C274.732 1026 293.55 1016.97 314.039 1015.74H319.057C352.091 1015.74 380.106 1036.26 390.978 1064.97L568.275 1053.9C571.202 1019.85 577.478 986.617 587.514 955.029L333.273 870.11C319.055 887.75 296.896 898.826 273.061 898.826C264.698 898.826 256.331 897.596 247.967 894.724C207.825 881.187 186.085 838.112 199.884 798.729C210.756 767.962 240.027 747.45 273.061 747.45C281.424 747.45 289.786 748.68 298.149 751.552C330.347 762.218 350.418 792.166 350 823.754L604.236 908.672C619.29 873.392 638.529 840.163 660.691 809.805L514.75 690.837C501.788 700.272 485.9 705.606 469.591 705.606C451.611 705.606 434.051 699.452 420.252 687.965C404.362 675.248 394.743 656.787 392.652 636.686C390.562 616.584 396.831 596.893 410.212 581.304C424.847 564.074 446.593 553.818 469.591 553.818C487.572 553.818 505.137 559.972 518.936 571.458C534.826 584.176 544.44 602.636 546.53 622.738C547.367 632.173 546.533 641.609 544.024 650.634L692.466 771.654C746.826 711.349 815.406 664.582 893.601 635.866L822.517 472.181C791.991 472.181 764.391 453.721 752.264 426.235C744.32 407.364 743.901 386.852 751.846 367.982C759.791 349.111 774.426 334.752 793.243 326.547C802.86 322.445 812.895 320.394 823.349 320.394C854.292 320.394 882.312 338.444 894.438 366.75C902.383 385.621 902.802 406.134 894.857 425.004C889.421 437.722 881.054 448.387 870.182 456.592L941.271 621.097C976.396 612.072 1012.77 606.739 1049.99 605.508V342.957C1019.47 332.701 996.884 304.805 996.884 271.576C996.884 229.732 1031.59 195.682 1074.24 195.682C1116.89 195.682 1151.6 229.732 1151.6 271.576C1151.6 304.395 1129.86 332.291 1100.17 342.547V606.329C1139.89 608.79 1178.78 615.353 1215.58 626.43L1289.17 456.592C1278.3 448.387 1269.52 437.722 1264.5 425.004C1256.98 406.134 1256.98 385.622 1264.92 367.161C1277.05 339.265 1305.06 320.804 1336.01 320.804C1346.46 320.804 1356.5 322.856 1366.12 326.958C1405.42 343.367 1423.82 387.673 1407.1 426.235C1394.97 453.721 1367.79 471.771 1336.84 472.181L1262.83 643.25C1335.59 673.607 1399.15 720.374 1449.75 778.628L1606.56 651.044C1604.05 642.019 1602.79 632.583 1603.63 623.148C1605.72 603.046 1615.34 584.586 1631.23 571.868C1645.03 560.792 1662.58 554.228 1680.57 554.228C1703.56 554.228 1725.31 564.074 1739.95 581.714C1752.91 597.303 1759.18 616.995 1757.51 637.096C1755.42 657.198 1745.8 675.658 1729.91 688.376C1716.11 699.862 1698.55 706.016 1680.57 706.016C1664.26 706.016 1648.37 700.682 1635.41 691.247L1480.27 817.6C1501.18 847.547 1518.74 879.545 1532.96 913.595L1800.16 824.164C1800.16 812.677 1802.25 801.19 1807.69 790.114C1816.89 772.064 1832.36 758.116 1852.01 751.962C1859.96 749.091 1868.32 747.86 1877.1 747.86C1910.14 747.86 1939.41 768.372 1950.28 799.139C1956.97 818.42 1955.72 838.932 1946.52 856.983C1937.32 875.033 1921.84 888.981 1902.19 895.134C1894.24 898.006 1885.88 899.237 1877.52 899.237C1853.69 899.237 1831.52 888.161 1817.3 870.521L1549.68 959.952C1558.46 989.899 1564.74 1021.08 1567.67 1053.49L1760.02 1065.38C1770.89 1036.67 1798.9 1016.15 1831.94 1016.15H1836.95C1879.61 1019.03 1911.81 1055.13 1908.88 1096.56C1906.37 1136.35 1872.5 1167.53 1831.94 1167.53L1830.27 1166.3Z" fill="url(#paint0_linear_8932_147468)"/>
<defs>
<linearGradient id="paint0_linear_8932_147468" x1="1071" y1="0" x2="1071" y2="2052" gradientUnits="userSpaceOnUse">
<stop stop-color="#1440A3"/>
<stop offset="1" stop-color="#08183D" stop-opacity="0"/>
</linearGradient>
</defs>
</svg>
