<svg width="1534" height="755" viewBox="0 0 1534 755" fill="none" xmlns="http://www.w3.org/2000/svg">
<g opacity="0.1">
<path d="M665.859 516.514L595.027 596.851C522.241 570.247 515.376 525.878 515.376 525.878L613.258 442.083C622.896 471.575 641.445 497.348 665.859 516.514Z" fill="#1440A3"/>
<path d="M698.957 253.79C690.001 257.86 681.499 262.673 673.452 268.274L545.838 143.611C538.337 136.303 534.336 126.589 534.336 116.7C534.336 112.237 535.154 107.817 536.791 103.486C537.7 101.079 540.882 100.423 542.746 102.26L698.957 253.79Z" fill="#1440A3"/>
<path d="M916.559 235.528L874.961 277.797C870.869 274.297 866.595 271.015 862.094 267.995L905.512 224.939L916.513 235.528H916.559Z" fill="#1440A3"/>
<path d="M900.002 220.206L855.993 263.875C849.401 259.762 842.446 256.087 835.217 252.936L884.135 204.891L895.228 215.568L897.092 217.406L898.137 218.368L900.002 220.206Z" fill="#1440A3"/>
<path d="M1005.79 114.274L985.7 134.183L982.836 137.071L929.644 189.842L927.462 187.786L926.69 187.042L924.643 184.985L921.688 182.185L913.914 174.702L943.193 145.91C943.193 145.91 943.329 145.56 943.193 145.473L932.554 135.277C932.554 135.277 932.417 134.927 932.508 134.84L955.422 111.736C955.422 111.736 955.786 111.605 955.922 111.736L966.333 121.538C966.333 121.538 966.651 121.625 966.788 121.538L989.883 99.3093C989.883 99.3093 990.246 99.2218 990.383 99.3093L1005.75 113.793C1005.75 113.793 1005.89 114.143 1005.79 114.23V114.274Z" fill="#1440A3"/>
<path d="M998.597 150.951C998.597 150.951 998.688 151.301 998.597 151.432L945.996 204.903L943.041 202.102L935.267 194.576L988.504 141.718L998.597 150.951Z" fill="#1440A3"/>
<path d="M944.857 223.261L933.718 234.026C931.218 236.388 927.172 236.388 924.671 234.026L923.762 233.194L904.032 214.204L902.167 212.366L899.212 209.566L893.984 204.533L891.075 201.689L886.755 197.532C884.255 195.126 884.255 191.231 886.755 188.825L897.894 178.104C900.395 175.698 904.441 175.698 906.941 178.104L944.766 214.51C947.267 216.917 947.267 220.811 944.766 223.218L944.857 223.261Z" fill="#1440A3"/>
<path d="M853.279 159.334H794.586C793.631 159.334 792.904 158.634 792.904 157.716V132.03C792.904 130.805 793.722 129.711 794.904 129.274C823.591 118.466 843.049 89.98 838.503 57.6437C834.32 27.7579 808.907 3.86661 777.765 0.453584C735.757 -4.18464 700.069 27.364 700.069 66.9202C700.069 95.2746 718.481 119.516 744.35 129.23C745.577 129.667 746.35 130.761 746.35 131.987V157.672C746.35 158.591 745.622 159.291 744.668 159.291H685.975C685.02 159.291 684.293 159.991 684.293 160.866V202.479C684.293 203.31 685.02 204.054 685.975 204.054H744.668C745.622 204.054 746.35 204.754 746.35 205.673V240.328C753.487 239.366 760.716 238.928 768.081 238.928C776.492 238.928 784.766 239.541 792.813 240.722V205.673C792.813 204.754 793.54 204.054 794.495 204.054H853.187C854.142 204.054 854.87 203.354 854.87 202.479V160.866C854.87 160.035 854.142 159.291 853.187 159.291L853.279 159.334ZM769.627 101.269C750.35 101.269 734.62 86.1731 734.62 67.5327C734.62 48.8923 750.305 33.84 769.627 33.84C788.948 33.84 804.678 48.9361 804.678 67.5327C804.678 86.1293 788.948 101.269 769.627 101.269Z" fill="#1440A3"/>
<path d="M605.737 398.287C605.964 410.452 607.647 422.31 610.647 433.643C601.6 433.906 595.281 431.849 591.917 430.274L603.646 397.5C604.328 397.85 605.01 398.112 605.783 398.287H605.737Z" fill="#1440A3"/>
<path d="M594.051 389.966C593.687 389.485 593.414 389.003 593.096 388.566C592.459 387.603 591.959 386.684 591.55 385.809C590.777 385.897 589.959 386.028 589.186 386.203C588.822 386.291 588.504 386.334 588.186 386.378C587.458 386.466 586.731 386.553 586.004 386.597C585.594 386.684 585.231 386.728 584.821 386.728C584.094 386.816 583.412 386.859 582.685 386.903C581.639 386.947 580.593 386.991 579.639 386.991C578.411 386.991 577.229 386.947 576.092 386.816C575.82 386.859 575.502 386.816 575.274 386.772C574.411 386.728 573.592 386.597 572.774 386.422C571.546 386.247 570.41 385.94 569.273 385.634C568.773 385.547 568.273 385.415 567.773 385.153C567.091 384.978 566.409 384.715 565.773 384.409L546.087 419.371C549.769 423.878 560.817 434.073 582.048 428.516L595.233 391.498C594.733 390.973 594.323 390.447 593.96 389.966H594.051Z" fill="#1440A3"/>
<path d="M557.629 378.672C556.947 377.971 556.266 377.14 555.675 376.309C554.356 374.515 553.265 372.458 552.355 370.183C552.219 369.964 552.128 369.658 552.037 369.395C551.719 368.607 551.492 367.732 551.31 366.901C551.219 366.726 551.174 366.507 551.128 366.332H549.446C547.945 366.332 546.536 366.288 545.127 366.201C543.809 366.157 542.399 366.026 541.126 365.851C540.944 365.851 540.717 365.807 540.535 365.763C539.399 365.676 538.262 365.457 537.171 365.282C535.625 365.019 534.171 364.669 532.807 364.232H532.761L495.936 404.05H495.982C500.574 409.039 512.894 418.753 537.262 415.383H537.307L557.811 378.978C557.811 378.978 557.629 378.803 557.584 378.715L557.629 378.672Z" fill="#1440A3"/>
<path d="M521.408 358.854C520.726 358.373 520.089 357.848 519.498 357.323C517.088 355.266 515.316 353.078 514.043 350.847C513.815 350.409 513.542 350.059 513.361 349.622C512.679 348.353 512.179 347.171 511.77 345.99H511.588C509.724 345.946 507.95 345.859 506.223 345.64C505.632 345.64 505.086 345.596 504.54 345.465C504.04 345.421 503.586 345.377 503.177 345.29C502.54 345.202 501.858 345.115 501.222 344.896C500.585 344.808 499.994 344.677 499.403 344.458H499.358L438.119 388.915C444.302 393.86 459.214 402.13 487.174 399.286L523.362 360.167C522.68 359.73 522.09 359.336 521.453 358.854H521.408Z" fill="#1440A3"/>
<path d="M482.124 335.273C481.669 334.88 481.306 334.486 480.851 334.048C478.942 332.079 477.351 329.935 476.032 327.835C475.805 327.441 475.577 327.135 475.396 326.741C473.986 324.334 472.941 322.015 472.213 320.002C472.168 319.871 472.122 319.74 472.077 319.609C472.031 319.521 472.031 319.433 471.986 319.258H471.94L372.377 365.203C377.287 371.898 391.698 384.937 428.705 383.668H428.751L488.671 340.13C486.17 338.643 484.033 337.024 482.124 335.186V335.273Z" fill="#1440A3"/>
<path d="M456.928 315.751C456.474 315.62 456.019 315.488 455.655 315.313C455.519 315.27 455.292 315.226 455.11 315.182C454.473 314.963 453.792 314.745 453.155 314.482C448.973 312.907 445.154 310.807 441.698 308.006C441.153 307.656 440.607 307.218 440.107 306.737C439.516 306.256 438.971 305.731 438.471 305.206C437.971 304.768 437.47 304.287 437.061 303.805C436.47 303.236 435.925 302.624 435.379 301.968L261.529 346.293C283.487 363.008 340.952 361.127 364.184 358.589H364.229L453.519 317.37L456.974 315.751H456.928Z" fill="#1440A3"/>
<path d="M429.899 293.608C429.763 293.346 429.536 293.039 429.399 292.777C429.263 292.514 429.081 292.164 428.944 291.858C426.489 287.045 424.989 282.319 424.08 278.6C423.853 277.637 423.625 276.762 423.489 275.93L169.397 307.917C178.898 320.912 202.63 343.097 251.548 339.028L429.854 293.608H429.899Z" fill="#1440A3"/>
<path d="M396.319 265.026C391.909 261.57 387.863 257.15 384.726 252.337L384.499 251.943L384.453 251.899L111.085 272.465C117.313 282.704 130.634 294.081 158.639 299.682H158.685L402.184 269.008C400.229 267.871 398.228 266.558 396.364 265.026H396.319Z" fill="#1440A3"/>
<path d="M378.62 242.853L367.754 226.225L367.709 226.182L367.618 226.007H60.6977C70.9723 252.611 99.2504 262.106 104.069 263.506L378.666 242.897L378.62 242.853Z" fill="#1440A3"/>
<path d="M345.064 206.013C343.154 203.343 341.427 200.412 339.972 197.392L329.879 176.083L0 177.702C5.00092 188.204 19.2311 209.688 54.283 216.558H354.111C350.655 213.364 347.61 209.863 345.018 206.056L345.064 206.013Z" fill="#1440A3"/>
<path d="M561.246 366.154C561.428 366.723 561.655 367.248 561.882 367.773C562.11 368.298 562.337 368.779 562.564 369.261C563.065 370.092 563.565 370.88 564.111 371.536C564.156 371.58 564.201 371.667 564.201 371.667L564.429 371.886L566.656 373.986H566.747L566.929 374.205C568.066 374.993 569.248 375.606 570.566 376.087C574.612 377.618 579.477 377.75 584.205 377.268C585.114 377.181 585.933 377.093 586.751 377.006C586.887 376.962 587.024 376.962 587.16 376.918C588.16 376.787 589.115 376.656 590.07 376.393C590.524 376.349 599.026 374.074 599.435 373.986L615.847 334.693L609.8 331.892C608.209 331.236 606.663 330.58 605.072 329.836C604.936 329.748 604.754 329.705 604.618 329.661C600.526 327.779 596.48 325.723 592.479 323.579C591.343 322.966 590.206 322.353 589.115 321.741L560.246 362.478C560.382 363.179 560.564 363.791 560.701 364.404C560.837 365.016 561.065 365.585 561.246 366.154Z" fill="#1440A3"/>
<path d="M522.357 345.681C522.585 346.162 522.903 346.687 523.222 347.169C523.449 347.563 523.767 347.913 524.131 348.307C524.312 348.569 524.585 348.875 524.858 349.094C525.085 349.444 525.403 349.707 525.767 350.013C526.267 350.494 526.813 350.932 527.404 351.326C529.086 352.551 530.904 353.514 532.996 354.257C533.587 354.476 534.132 354.695 534.769 354.87C536.542 355.439 538.542 355.92 540.679 356.227C541.861 356.358 543.043 356.489 544.316 356.62C546.816 356.795 549.544 356.839 552.454 356.752H552.499L580.777 316.714C577.958 314.964 575.185 313.214 572.458 311.332C572.276 311.201 572.003 311.069 571.821 310.894C570.73 310.194 569.639 309.407 568.639 308.663C566.82 307.394 565.047 306.037 563.274 304.681L521.13 343.012C521.266 343.406 521.448 343.8 521.63 344.237C521.812 344.719 522.085 345.2 522.357 345.637V345.681Z" fill="#1440A3"/>
<path d="M482.798 319.424C483.025 319.949 483.343 320.518 483.616 321.087C483.616 321.13 483.662 321.218 483.707 321.262C483.98 321.831 484.344 322.399 484.753 322.968C485.025 323.493 485.39 324.018 485.799 324.543C486.344 325.287 486.935 326.075 487.617 326.775C488.117 327.344 488.617 327.913 489.209 328.438C489.8 329.007 490.481 329.575 491.163 330.144C491.936 330.757 492.755 331.326 493.618 331.851C494.3 332.332 495.028 332.682 495.846 333.076C496.71 333.557 497.619 333.907 498.619 334.301L500.165 334.826C502.438 335.57 504.938 336.095 507.666 336.358C508.348 336.401 509.075 336.445 509.848 336.489C510.53 336.533 511.213 336.533 511.94 336.533C512.713 336.533 513.485 336.533 514.258 336.489H514.304L550.038 303.846L555.766 298.639C553.902 297.064 552.129 295.576 550.401 294.001C548.583 292.382 546.81 290.763 545.128 289.188C544.4 288.488 543.673 287.788 542.945 287.044H542.9L501.665 305.947L481.297 315.311C481.479 315.967 481.752 316.623 482.025 317.411C482.252 318.067 482.571 318.724 482.889 319.468L482.798 319.424Z" fill="#1440A3"/>
<path d="M496.143 256.98L513.055 254.792C510.918 252.91 508.827 251.204 506.645 249.628C505.554 248.841 504.463 248.053 503.417 247.353C502.28 246.653 501.144 245.953 500.007 245.253C498.962 244.64 497.962 244.071 496.916 243.546C495.598 242.89 494.188 242.277 492.87 241.665C489.278 240.133 485.505 238.908 481.55 238.033C480.549 237.814 479.549 237.552 478.503 237.376C477.685 237.245 476.776 237.114 475.912 236.939C474.457 236.676 472.957 236.458 471.366 236.326C470.229 236.195 469.047 236.108 467.82 236.064C466.729 235.976 465.592 235.889 464.456 235.889C462.91 235.845 461.364 235.801 459.773 235.801C458.454 235.801 457.045 235.801 455.635 235.845L399.034 234.095C397.716 234.095 396.397 234.051 395.034 233.963L391.533 233.701C390.76 233.613 389.942 233.526 389.169 233.351L386.578 232.913C385.441 232.695 384.304 232.432 383.168 232.169L389.624 242.102L390.351 243.196L393.124 247.309C395.67 251.291 398.989 254.879 402.626 257.723C408.855 262.668 415.855 265.512 422.72 265.906C424.175 266.037 425.63 266.037 427.04 265.906H427.494L430.222 265.556L431.995 265.337L445.588 263.587L496.143 257.023V256.98Z" fill="#1440A3"/>
<path d="M501.558 295.099L535.382 279.259C534.928 278.778 534.564 278.297 534.155 277.859C532.336 275.759 530.609 273.746 528.972 271.733L528.063 270.639C526.972 269.326 525.926 268.014 524.881 266.789C523.79 265.52 522.744 264.338 521.698 263.201H521.653L462.642 270.858H462.596L454.095 271.996L433.318 274.665V274.752C433.728 276.503 434.273 278.69 435.092 281.053C435.319 281.841 435.637 282.672 436.001 283.504C436.955 285.954 438.183 288.536 439.729 291.074C440.274 291.992 440.91 292.911 441.547 293.83C441.683 294.005 441.775 294.224 441.911 294.355C442.093 294.574 442.275 294.793 442.365 294.968C442.502 295.056 442.593 295.187 442.683 295.362C442.865 295.537 443.093 295.799 443.229 295.974C443.911 296.806 444.638 297.637 445.457 298.337C445.593 298.468 445.73 298.687 445.912 298.775L446.503 299.344C447.185 299.956 447.912 300.569 448.685 301.138C448.776 301.225 448.912 301.313 449.048 301.356C449.685 301.838 450.322 302.275 450.958 302.669C452.276 303.501 453.595 304.244 455.05 304.857C455.05 304.857 455.064 304.872 455.095 304.901C456.368 305.426 457.641 305.907 459.005 306.301C459.414 306.432 459.778 306.564 460.187 306.651C461.551 307.045 462.96 307.307 464.369 307.57C465.188 307.657 466.097 307.789 466.916 307.832C468.189 307.964 469.507 308.008 470.916 308.008C471.962 308.008 472.962 307.964 474.053 307.92H474.372L474.281 307.876L497.33 297.156L501.74 295.055L501.558 295.099Z" fill="#1440A3"/>
<path d="M641.138 297.989C633.818 306.784 627.499 316.411 622.271 326.65C620.861 326.125 619.452 325.556 618.043 324.987C617.452 324.768 616.86 324.506 616.042 324.156C609.45 321.443 602.949 318.38 596.584 314.923C594.811 313.916 593.038 312.954 591.311 311.991C590.947 311.772 590.629 311.554 590.265 311.379C590.265 311.335 590.22 311.335 590.22 311.335C589.765 311.072 589.31 310.81 588.855 310.547C588.355 310.197 587.855 309.935 587.401 309.584C579.899 305.034 572.716 300.045 566.124 294.795C564.942 293.876 563.851 293.001 562.76 292.082C560.714 290.375 558.759 288.713 556.895 287.05C553.849 284.293 550.985 281.668 548.712 279.349C548.303 278.998 547.985 278.692 547.666 278.342C547.621 278.255 547.53 278.167 547.484 278.123C547.257 277.861 547.03 277.642 546.848 277.467C543.165 273.616 539.71 269.766 536.71 265.959L535.801 264.909C534.937 263.815 534.073 262.765 533.254 261.802C532.982 261.408 532.664 261.102 532.391 260.752C531.709 259.964 531.027 259.133 530.39 258.389C529.708 257.645 529.027 256.901 528.345 256.201C527.981 255.807 527.617 255.457 527.254 255.064C527.254 255.064 527.238 255.034 527.208 254.976C526.617 254.363 526.026 253.795 525.435 253.226C524.844 252.613 524.253 252 523.662 251.432C522.434 250.25 521.252 249.113 520.024 248.019C516.387 244.737 512.705 241.893 508.841 239.399C506.795 238.086 504.658 236.773 502.476 235.723C497.702 233.229 492.747 231.216 487.473 229.772C485.519 229.203 483.472 228.722 481.381 228.372C477.88 227.628 474.198 227.103 470.425 226.797C469.152 226.665 467.924 226.622 466.606 226.578C464.514 226.447 462.423 226.403 460.241 226.403C458.832 226.403 457.331 226.403 455.831 226.447L399.366 224.696C392.911 224.696 386.591 223.602 380.545 221.458C379.863 221.24 379.135 220.977 378.408 220.714C378.181 220.627 377.862 220.496 377.635 220.364C376.68 219.927 375.725 219.533 374.771 219.095C374.725 219.052 374.68 219.052 374.634 219.008C374.089 218.789 373.498 218.483 372.952 218.22H372.861C372.316 217.87 371.816 217.608 371.27 217.301C370.906 217.126 370.543 216.864 370.179 216.645C363.45 212.663 357.631 207.281 353.267 200.893C351.63 198.574 350.221 196.123 348.993 193.542L337.627 169.563H337.582L496.839 167.944C516.342 167.462 534.118 178.095 542.62 195.029C571.898 253.795 611.996 283.505 641.138 298.076V297.989Z" fill="#1440A3"/>
<path d="M947.062 430.216C943.334 431.923 936.06 434.285 925.422 433.454C928.377 422.427 930.059 410.919 930.331 399.105C932.104 398.711 933.786 398.142 935.332 397.442L947.062 430.216Z" fill="#1440A3"/>
<path d="M945.083 389.952C945.447 389.471 945.72 388.989 946.038 388.552C946.675 387.589 947.175 386.67 947.584 385.795C948.357 385.883 949.175 386.014 949.948 386.189C950.312 386.276 950.63 386.32 950.948 386.364C951.676 386.451 952.403 386.539 953.13 386.583C953.539 386.67 953.903 386.714 954.312 386.714C955.04 386.801 955.722 386.845 956.449 386.889C957.495 386.933 958.54 386.976 959.495 386.976C960.723 386.976 961.905 386.933 963.041 386.801C963.314 386.845 963.632 386.802 963.859 386.758C964.723 386.714 965.542 386.583 966.36 386.408C967.588 386.233 968.724 385.926 969.861 385.62C970.361 385.532 970.861 385.401 971.361 385.139C972.043 384.964 972.724 384.701 973.361 384.395L993.047 419.356C989.364 423.863 978.317 434.059 957.085 428.502L943.901 391.483C944.401 390.958 944.811 390.433 945.174 389.952H945.083Z" fill="#1440A3"/>
<path d="M981.751 378.657C982.433 377.957 983.116 377.126 983.707 376.294C985.025 374.5 986.116 372.444 987.025 370.168C987.162 369.95 987.252 369.643 987.343 369.381C987.662 368.593 987.889 367.718 988.071 366.887C988.162 366.712 988.207 366.493 988.253 366.318H989.935C991.435 366.318 992.844 366.274 994.254 366.187C995.572 366.143 996.982 366.012 998.254 365.837C998.436 365.837 998.664 365.793 998.846 365.749C999.982 365.661 1001.12 365.443 1002.21 365.268C1003.76 365.005 1005.21 364.655 1006.57 364.217H1006.62L1043.44 404.036H1043.4C1038.81 409.024 1026.49 418.738 1002.12 415.369H1002.07L981.569 378.964C981.569 378.964 981.752 378.788 981.797 378.701L981.751 378.657Z" fill="#1440A3"/>
<path d="M1017.84 358.84C1018.52 358.359 1019.16 357.834 1019.75 357.309C1022.16 355.252 1023.93 353.064 1025.2 350.833C1025.43 350.395 1025.7 350.045 1025.89 349.607C1026.57 348.338 1027.07 347.157 1027.48 345.976H1027.66C1029.52 345.932 1031.3 345.844 1033.02 345.626C1033.62 345.626 1034.16 345.582 1034.71 345.451C1035.21 345.407 1035.66 345.363 1036.07 345.276C1036.71 345.188 1037.39 345.101 1038.02 344.882C1038.66 344.794 1039.25 344.663 1039.84 344.444H1039.89L1101.13 388.901C1094.94 393.846 1080.03 402.116 1052.07 399.271L1015.88 360.153C1016.57 359.715 1017.16 359.322 1017.79 358.84H1017.84Z" fill="#1440A3"/>
<path d="M1056.74 335.259C1057.19 334.865 1057.56 334.471 1058.01 334.034C1059.92 332.065 1061.51 329.921 1062.83 327.821C1063.06 327.427 1063.29 327.12 1063.47 326.727C1064.88 324.32 1065.92 322.001 1066.65 319.988C1066.7 319.857 1066.74 319.726 1066.79 319.594C1066.83 319.507 1066.83 319.419 1066.88 319.244H1066.92L1166.49 365.189C1161.58 371.884 1147.16 384.923 1110.16 383.654H1110.11L1050.19 340.116C1052.69 338.628 1054.83 337.009 1056.74 335.172V335.259Z" fill="#1440A3"/>
<path d="M1082.14 315.737C1082.6 315.605 1083.05 315.474 1083.42 315.299C1083.55 315.255 1083.78 315.212 1083.96 315.168C1084.6 314.949 1085.28 314.73 1085.92 314.468C1090.1 312.892 1093.92 310.792 1097.37 307.992C1097.92 307.642 1098.47 307.204 1098.97 306.723C1099.56 306.241 1100.1 305.716 1100.6 305.191C1101.1 304.754 1101.6 304.272 1102.01 303.791C1102.6 303.222 1103.15 302.61 1103.69 301.953L1277.54 346.279C1255.59 362.994 1198.12 361.113 1174.89 358.575H1174.84L1085.55 317.356L1082.1 315.737H1082.14Z" fill="#1440A3"/>
<path d="M1109.22 293.594C1109.36 293.331 1109.58 293.025 1109.72 292.763C1109.86 292.5 1110.04 292.15 1110.18 291.844C1112.63 287.031 1114.13 282.305 1115.04 278.585C1115.27 277.623 1115.49 276.748 1115.63 275.916L1369.72 307.902C1360.22 320.898 1336.49 343.083 1287.57 339.014L1109.27 293.594H1109.22Z" fill="#1440A3"/>
<path d="M1142.68 265.027C1147.09 261.57 1151.14 257.15 1154.27 252.337L1154.5 251.943L1154.55 251.9L1427.91 272.465C1421.69 282.704 1408.36 294.081 1380.36 299.682H1380.31L1136.81 269.009C1138.77 267.871 1140.77 266.558 1142.63 265.027H1142.68Z" fill="#1440A3"/>
<path d="M1160.37 242.839L1171.24 226.211L1171.28 226.167L1171.37 225.992H1478.29C1468.02 252.597 1439.74 262.092 1434.92 263.492L1160.32 242.883L1160.37 242.839Z" fill="#1440A3"/>
<path d="M1188.94 205.661C1190.85 202.992 1192.57 200.06 1194.03 197.041L1204.12 175.731L1534 177.35C1529 187.852 1514.77 209.337 1479.72 216.206H1179.89C1183.34 213.012 1186.39 209.512 1188.98 205.705L1188.94 205.661Z" fill="#1440A3"/>
<path d="M977.96 366.154C977.778 366.723 977.551 367.248 977.324 367.773C977.097 368.298 976.869 368.78 976.642 369.261C976.142 370.092 975.642 370.88 975.096 371.536C975.051 371.58 975.005 371.668 975.005 371.668L974.778 371.886L972.55 373.987H972.459L972.277 374.205C971.14 374.993 969.959 375.606 968.64 376.087C964.594 377.619 959.73 377.75 955.001 377.268C954.092 377.181 952.819 377.662 952.001 377.575C951.864 377.531 949.592 377.618 949.455 377.575C948.455 377.443 946.409 377.75 945.454 377.531C945 377.487 937.725 377.618 937.316 377.531L919.904 335.306L929.36 331.893C930.951 331.236 932.497 330.58 934.089 329.836C934.225 329.749 934.407 329.705 934.543 329.661C938.635 327.779 942.681 325.723 946.682 323.579C947.819 322.966 948.955 322.354 950.046 321.741L978.915 362.479C978.779 363.179 978.597 363.791 978.46 364.404C978.324 365.016 978.097 365.585 977.915 366.154H977.96Z" fill="#1440A3"/>
<path d="M1016.96 345.667C1016.73 346.148 1016.41 346.673 1016.1 347.155C1015.87 347.548 1015.55 347.899 1015.19 348.292C1015 348.555 1014.73 348.861 1014.46 349.08C1014.23 349.43 1013.91 349.692 1013.55 349.999C1013.05 350.48 1012.5 350.918 1011.91 351.312C1010.23 352.537 1008.41 353.499 1006.32 354.243C1005.73 354.462 1005.18 354.681 1004.55 354.856C1002.78 355.425 1000.77 355.906 998.638 356.212C997.456 356.344 996.274 356.475 995.001 356.606C992.501 356.781 989.773 356.825 986.863 356.737H986.818L958.54 316.7C961.359 314.95 964.132 313.199 966.86 311.318C967.041 311.186 967.314 311.055 967.496 310.88C968.587 310.18 969.678 309.393 970.678 308.649C972.497 307.38 974.27 306.023 976.043 304.667L1018.19 342.998C1018.05 343.392 1017.87 343.785 1017.69 344.223C1017.51 344.704 1017.23 345.186 1016.96 345.623V345.667Z" fill="#1440A3"/>
<path d="M1056.46 319.41C1056.23 319.935 1055.91 320.504 1055.64 321.072C1055.64 321.116 1055.59 321.204 1055.55 321.247C1055.28 321.816 1054.91 322.385 1054.5 322.954C1054.23 323.479 1053.87 324.004 1053.46 324.529C1052.91 325.273 1052.32 326.061 1051.64 326.761C1051.14 327.33 1050.64 327.898 1050.05 328.424C1049.46 328.992 1048.77 329.561 1048.09 330.13C1047.32 330.743 1046.5 331.311 1045.64 331.837C1044.96 332.318 1044.23 332.668 1043.41 333.062C1042.55 333.543 1041.64 333.893 1040.64 334.287L1039.09 334.812C1036.82 335.556 1034.32 336.081 1031.59 336.344C1030.91 336.387 1030.18 336.431 1029.41 336.475C1028.73 336.519 1028.04 336.519 1027.32 336.519C1026.54 336.519 1025.77 336.519 1025 336.475H1024.95L989.218 303.832L983.49 298.625C985.354 297.05 987.126 295.562 988.854 293.987C990.673 292.368 992.446 290.749 994.128 289.174C994.855 288.474 995.583 287.774 996.31 287.03H996.355L1037.59 305.933L1057.96 315.296C1057.78 315.953 1057.5 316.609 1057.23 317.397C1057 318.053 1056.68 318.71 1056.37 319.453L1056.46 319.41Z" fill="#1440A3"/>
<path d="M1042.88 256.965L1025.97 254.778C1028.1 252.896 1030.19 251.189 1032.38 249.614C1033.47 248.827 1034.56 248.039 1035.6 247.339C1036.74 246.639 1037.88 245.939 1039.01 245.239C1040.06 244.626 1041.06 244.057 1042.11 243.532C1043.42 242.876 1044.83 242.263 1046.15 241.651C1049.74 240.119 1053.52 238.894 1057.47 238.019C1058.47 237.8 1059.47 237.537 1060.52 237.362C1061.34 237.231 1062.25 237.1 1063.11 236.925C1064.56 236.662 1066.06 236.443 1067.66 236.312C1068.79 236.181 1069.97 236.093 1071.2 236.05C1072.29 235.962 1073.43 235.875 1074.57 235.875C1076.11 235.831 1077.66 235.787 1079.25 235.787C1080.57 235.787 1081.98 235.787 1083.39 235.831L1139.99 234.081C1141.31 234.081 1142.62 234.037 1143.99 233.949L1147.49 233.687C1148.26 233.599 1149.08 233.512 1149.85 233.337L1152.44 232.899C1153.58 232.68 1154.72 232.418 1155.85 232.155L1149.4 242.088L1148.67 243.182L1145.9 247.295C1143.35 251.277 1140.03 254.865 1136.4 257.709C1130.17 262.654 1123.17 265.498 1116.3 265.892C1114.85 266.023 1113.39 266.023 1111.98 265.892H1111.53L1108.8 265.542L1107.03 265.323L1093.43 263.573L1042.88 257.009V256.965Z" fill="#1440A3"/>
<path d="M1037.71 295.085L1003.88 279.245C1004.34 278.764 1004.7 278.282 1005.11 277.845C1006.93 275.744 1008.66 273.732 1010.29 271.719L1011.2 270.625C1012.29 269.312 1013.34 268 1014.38 266.774C1015.48 265.505 1016.52 264.324 1017.57 263.186H1017.61L1076.62 270.844H1076.67L1085.17 271.981L1105.95 274.651V274.738C1105.54 276.488 1104.99 278.676 1104.17 281.039C1103.95 281.827 1103.63 282.658 1103.26 283.489C1102.31 285.94 1101.08 288.521 1099.54 291.059C1098.99 291.978 1098.35 292.897 1097.72 293.816C1097.58 293.991 1097.49 294.21 1097.35 294.341C1097.17 294.56 1096.99 294.779 1096.9 294.954C1096.76 295.041 1096.67 295.173 1096.58 295.348C1096.4 295.523 1096.17 295.785 1096.04 295.96C1095.35 296.792 1094.63 297.623 1093.81 298.323C1093.67 298.454 1093.53 298.673 1093.35 298.761L1092.76 299.329C1092.08 299.942 1091.35 300.555 1090.58 301.123C1090.49 301.211 1090.35 301.298 1090.22 301.342C1089.58 301.824 1088.94 302.261 1088.31 302.655C1086.99 303.486 1085.67 304.23 1084.22 304.843C1084.22 304.843 1084.2 304.857 1084.17 304.886C1082.9 305.412 1081.62 305.893 1080.26 306.287C1079.85 306.418 1079.49 306.549 1079.08 306.637C1077.71 307.031 1076.3 307.293 1074.9 307.556C1074.08 307.643 1073.17 307.774 1072.35 307.818C1071.08 307.95 1069.76 307.993 1068.35 307.993C1067.3 307.993 1066.3 307.949 1065.21 307.906H1064.89L1064.98 307.862L1041.93 297.142L1037.52 295.041L1037.71 295.085Z" fill="#1440A3"/>
<path d="M1201.61 169.377H1201.56L1190.2 193.399C1188.97 195.937 1187.56 198.431 1185.92 200.75C1181.56 207.139 1175.74 212.565 1169.06 216.503C1168.65 216.722 1168.28 216.984 1167.92 217.159C1167.42 217.422 1166.87 217.728 1166.37 217.991H1166.24C1165.69 218.341 1165.15 218.603 1164.55 218.822C1164.51 218.866 1164.46 218.866 1164.42 218.91C1163.46 219.347 1162.51 219.741 1161.55 220.178C1161.33 220.266 1161.01 220.397 1160.78 220.528C1160.1 220.791 1159.37 221.054 1158.64 221.272C1152.64 223.416 1146.28 224.51 1139.87 224.51L1083.4 226.261C1081.86 226.217 1080.45 226.217 1079.04 226.217C1076.81 226.217 1074.72 226.261 1072.67 226.392C1071.31 226.436 1070.08 226.479 1068.76 226.611C1064.99 226.873 1061.26 227.398 1057.81 228.186C1055.67 228.58 1053.67 229.017 1051.76 229.586C1046.44 231.074 1041.49 233.043 1036.71 235.537C1034.53 236.631 1032.49 237.9 1030.35 239.213C1026.53 241.707 1022.8 244.551 1019.16 247.833C1017.94 248.927 1016.75 250.064 1015.53 251.246C1014.94 251.815 1014.35 252.427 1013.8 253.04C1013.16 253.609 1012.57 254.178 1011.98 254.79C1011.98 254.79 1011.97 254.819 1011.94 254.878C1011.57 255.271 1011.21 255.621 1010.85 256.015C1010.16 256.715 1009.48 257.416 1008.75 258.203C1008.12 258.947 1007.44 259.778 1006.75 260.566C1006.44 260.916 1006.21 261.222 1005.84 261.616C1005.03 262.623 1004.16 263.673 1003.3 264.723L1002.43 265.773C999.433 269.58 995.978 273.43 992.296 277.281C992.114 277.456 991.887 277.675 991.659 277.937C991.659 277.981 991.523 278.069 991.478 278.156C991.16 278.506 990.841 278.813 990.432 279.163C988.159 281.482 985.295 284.151 982.249 286.864C980.385 288.527 978.475 290.189 976.384 291.896C975.293 292.815 974.202 293.69 973.02 294.609C966.428 299.86 959.245 304.848 951.743 309.399C951.243 309.749 950.788 310.011 950.243 310.361C949.743 310.624 949.288 310.886 948.879 311.149C948.879 311.149 948.834 311.149 948.834 311.193C948.561 311.368 948.152 311.586 947.788 311.805C946.06 312.768 944.287 313.73 942.56 314.737C936.195 318.194 929.648 321.257 923.056 323.97C922.238 324.363 921.647 324.582 921.056 324.801C919.555 325.414 918.1 325.982 916.645 326.507C916.645 326.507 916.63 326.522 916.6 326.551L916.554 326.595C915.873 326.814 915.145 327.12 914.372 327.339C909.326 317.143 903.052 307.648 895.915 298.809C925.238 284.545 966.564 254.834 996.524 194.712C1004.98 177.734 1022.8 167.145 1042.31 167.627L1201.56 169.202L1201.61 169.377Z" fill="#1440A3"/>
<path d="M915.571 391.019C915.025 372.247 910.706 354.438 903.205 338.204C902.296 336.104 901.341 334.091 900.25 332.078C895.294 322.364 889.157 313.307 882.156 305.037C876.882 298.867 871.062 293.135 864.834 288.015C860.697 284.471 856.332 281.189 851.741 278.214C849.695 276.814 847.558 275.457 845.376 274.232C838.648 270.163 831.464 266.662 824.008 263.774C814.052 259.792 803.641 256.86 792.775 255.154C784.774 253.797 776.454 253.097 768.044 253.097C760.679 253.097 753.359 253.623 746.312 254.673C733.674 256.423 721.49 259.792 710.079 264.518C700.804 268.325 692.075 273.007 683.937 278.476C673.026 285.74 663.161 294.404 654.75 304.205C647.521 312.475 641.248 321.577 636.201 331.335C635.383 332.91 634.565 334.441 633.837 336.06C626.154 352.163 621.471 369.884 620.653 388.525C620.516 390.713 620.471 392.944 620.471 395.176C620.471 396.795 620.516 398.414 620.607 399.945C620.925 410.797 622.562 421.298 625.381 431.406C625.336 431.494 625.336 431.538 625.427 431.581C633.474 461.205 651.295 486.934 675.345 505.618C688.802 516.119 704.168 524.39 720.944 529.772C735.72 534.585 751.541 537.21 768.044 537.21C784.547 537.21 799.868 534.716 814.461 529.99C841.284 521.458 864.698 505.749 882.201 485.183H882.247C890.43 475.469 897.386 464.749 902.705 453.197C906.16 445.934 908.888 438.407 910.979 430.619C913.616 420.73 915.207 410.359 915.571 399.683C915.616 398.151 915.662 396.663 915.662 395.132C915.662 393.732 915.662 392.288 915.571 390.931V391.019ZM708.396 349.844C704.032 355.357 700.395 361.439 697.667 368.003L674.208 342.668L708.396 349.887V349.844ZM659.569 395.307L692.984 385.112C692.484 388.481 692.257 391.85 692.257 395.307C692.257 398.982 692.53 402.614 693.075 406.159L659.569 395.307ZM674.345 448.296L697.849 423.093C700.622 429.744 704.35 435.826 708.805 441.339L674.299 448.296H674.345ZM865.152 342.93L841.33 367.521C838.602 361.133 835.01 355.138 830.691 349.756L865.152 342.93ZM825.054 303.943L816.962 336.585C811.37 332.385 805.141 328.928 798.504 326.303L825.008 303.943H825.054ZM769.271 289.459L779.91 321.577C776.5 321.139 773.135 320.877 769.589 320.877C765.861 320.877 762.179 321.139 758.496 321.664L769.271 289.459ZM740.13 326.521C733.401 329.234 727.127 332.778 721.535 337.067L714.125 303.943L740.175 326.478L740.13 326.521ZM714.625 487.109L721.626 453.678C727.354 458.054 733.674 461.642 740.584 464.268L714.67 487.109H714.625ZM768.998 501.198L758.133 468.95C761.861 469.519 765.725 469.781 769.544 469.781C773.09 469.781 776.545 469.519 779.91 469.081L768.998 501.198ZM797.867 464.618C804.641 461.992 811.006 458.536 816.734 454.291L824.736 487.109L797.867 464.618ZM769.544 451.841C737.174 451.841 710.897 426.549 710.897 395.351C710.897 364.152 737.174 338.904 769.544 338.904C801.913 338.904 828.237 364.152 828.237 395.351C828.237 426.549 801.959 451.841 769.544 451.841ZM830.1 441.645C834.51 436.263 838.284 430.269 841.011 423.793L864.834 448.253L830.1 441.689V441.645ZM846.149 406.071C846.649 402.571 846.922 398.982 846.922 395.307C846.922 391.981 846.694 388.743 846.24 385.505L879.609 395.307L846.149 406.071Z" fill="#1440A3"/>
<path d="M963.818 514.422L927.357 523.567L947.451 542.601L981.412 531.881L963.818 514.422Z" fill="#1440A3"/>
<path d="M1012.87 553.095C1040.47 486.322 981.141 463 927.722 479.715L915.902 468.207C912.674 474.508 905.127 487.11 893.943 496.824C893.852 496.912 893.853 496.955 893.762 497.043C890.761 499.275 887.897 501.637 885.124 504.175L903.218 521.284C907.037 517.827 910.901 514.764 914.72 512.008L917.584 514.721L954.227 505.576L945.408 496.999C982.324 487.198 1009.74 509.995 996.235 545.394C994.916 543.863 993.144 542.287 990.871 540.625L957.319 551.258L978.232 573.617C975.64 576.593 972.822 579.568 969.685 582.631L983.506 594.752C986.415 591.645 989.325 588.363 992.189 584.95L999.463 592.52L1017.56 570.554L1008.65 561.234C1010.15 558.565 1011.6 555.852 1012.87 553.052V553.095Z" fill="#1440A3"/>
<path d="M1048.33 601.457C1048.33 601.107 1047.92 600.889 1047.6 601.02C1042.33 603.251 1006.32 617.604 961.177 616.86C960.722 616.86 960.449 617.341 960.767 617.647L984.09 643.551C984.09 643.551 858.158 688.14 825.97 542.255C808.331 547.68 789.509 550.656 769.914 550.656C750.319 550.656 730.316 547.462 712.176 541.686C682.535 686.914 553.92 643.508 553.92 643.508L577.424 617.341C577.652 617.122 577.425 616.772 577.152 616.772C531.143 617.604 494.5 602.683 490.136 600.845C489.908 600.757 489.681 600.889 489.636 601.151C486.226 637.207 505.366 677.638 507.684 682.364C507.775 682.582 508.093 682.626 508.275 682.451L525.642 665.605C627.57 734.609 699.447 736.185 730.998 735.353C758.094 734.609 768.869 754.956 768.914 755H769.051C769.051 755 779.871 734.609 806.966 735.353C838.518 736.228 910.395 734.609 1012.32 665.605L1029.55 682.32C1029.83 682.582 1030.23 682.539 1030.42 682.189C1033.05 676.719 1051.65 636.944 1048.37 601.414L1048.33 601.457Z" fill="#1440A3"/>
</g>
</svg>
