<svg width="20" height="20" viewBox="0 0 20 20" fill="none" xmlns="http://www.w3.org/2000/svg">
<path d="M14.2051 9.11523H16.4814V10.1562H14.2051V13.6973C14.2051 14.2428 14.3197 14.6549 14.5479 14.9326C14.776 15.2103 15.1531 15.3496 15.6787 15.3496C15.8373 15.3496 15.991 15.3344 16.1396 15.3047C16.2983 15.265 16.4471 15.2252 16.5859 15.1855L16.8096 16.1973C16.6707 16.2865 16.4718 16.3557 16.2139 16.4053C15.9661 16.4647 15.7233 16.4951 15.4854 16.4951C14.6026 16.4951 13.9423 16.2668 13.5059 15.8105C13.0695 15.3444 12.8516 14.6793 12.8516 13.8164V10.1562H11.4385V9.11523H12.8516V6.91309H14.2051V9.11523ZM11.3301 6.11719H7.56543V16.3604H6.18262V6.11719H2.41797V4.94141H11.3301V6.11719Z" fill="#464747"/>
</svg>
