<svg width="80" height="80" viewBox="0 0 80 80" fill="none" xmlns="http://www.w3.org/2000/svg">
<path d="M62.4201 26.9249C62.812 26.9251 63.2211 27.0734 63.6903 27.423C63.9928 27.7044 64.2639 27.9557 64.5204 28.1857C64.6957 28.3732 64.88 28.5839 65.0737 28.8205L65.0985 28.851L65.1318 28.8705C65.7375 29.2052 66.346 29.6062 66.9352 29.9934C67.3169 30.2452 67.7127 30.5051 68.1055 30.7458C68.1967 30.9007 68.2853 31.0502 68.3572 31.1775C68.2438 31.1055 68.1359 31.0335 68.0806 30.9975C66.916 30.1511 66.1385 29.6864 64.9988 29.1609L64.9686 29.1444H64.9327C62.8387 28.9729 61.8482 28.8898 61.2479 27.3242V27.3185C61.4134 27.2176 61.5746 27.1333 61.7345 27.0686C61.8786 27.0583 62.0209 27.0426 62.1443 27.0059L62.4201 26.9249Z" fill="#001F66"/>
<path d="M61.9284 29.3737C62.6532 29.3599 65.0847 29.7804 66.158 30.2838C65.7388 30.3568 65.1964 30.4362 64.6339 30.511C64.0524 30.5456 63.5399 30.6096 63.0538 30.7009C62.5469 30.7548 62.1182 30.7927 61.8703 30.8012H61.8566C61.0295 30.8869 59.9145 30.7875 59.1649 30.45H59.1676C59.2423 30.4168 59.3144 30.3808 59.3891 30.3476C60.3185 29.9161 61.1235 29.5452 61.9284 29.3737Z" fill="#001F66"/>
<path d="M58.2937 28.1041C59.2148 28.1456 60.595 28.4859 61.4608 28.9809C60.4512 29.4539 59.8178 29.6339 58.3988 30.0129C57.5689 30.0239 56.4431 29.7334 55.6879 29.3267C55.917 29.1395 56.1494 28.9512 56.3976 28.78C56.8472 28.617 57.2421 28.4175 57.6064 28.204C57.8191 28.1494 58.047 28.1141 58.2937 28.1041Z" fill="#001F66"/>
<path d="M61.873 22.7183C62.8274 23.0945 64.1994 23.7141 65.0431 24.9783C65.9007 26.3088 66.3987 27.667 67.0903 29.5453L67.104 29.5842C66.1727 29.061 65.5509 28.5787 64.8073 27.9142C64.5047 27.591 64.2181 27.3269 63.9412 27.1194C63.9079 27.0884 63.8741 27.0572 63.8399 27.0254C63.6353 26.8346 63.4195 26.6326 63.1816 26.4141H63.1843C62.7002 25.847 62.1469 24.1263 61.873 22.7183Z" fill="#001F66"/>
<path d="M54.6533 26.8512C55.6187 26.8844 56.9575 27.1387 57.8123 27.62C57.6973 27.6942 57.5805 27.7667 57.4616 27.8377C56.9835 27.9683 56.5775 28.1857 56.2128 28.4328C55.7739 28.5868 55.2808 28.7035 54.703 28.7624C53.8759 28.7873 52.7335 28.5108 51.9673 28.1124C52.2357 27.8929 52.5184 27.6689 52.8285 27.4717C53.178 27.3445 53.4834 27.1892 53.7823 27.013C54.0508 26.9262 54.3395 26.8684 54.6533 26.8512Z" fill="#001F66"/>
<path d="M56.9935 25.8192C57.9617 25.3103 58.8579 25.2522 59.3005 25.4237L59.328 25.4318C60.0639 25.595 60.7722 26.0958 61.5799 26.685C61.5633 26.6878 61.5466 26.6877 61.53 26.6877C61.1898 26.7043 60.8412 26.7237 60.595 26.9063L60.4291 27.0308L60.5618 27.1913C60.6586 27.3074 60.7886 27.5123 60.9297 27.728C61.0348 27.8912 61.1401 28.0544 61.2452 28.2038C61.1512 28.1872 61.0543 28.1706 60.9575 28.154C60.3269 28.0462 59.674 27.9354 59.0433 27.6864C58.2052 27.3379 57.5164 26.71 56.9908 25.8165L56.9935 25.8192Z" fill="#001F66"/>
<path d="M51.2479 25.4956C52.1552 25.5371 53.0156 25.5758 54.1054 26.3503C53.9486 26.4519 53.7979 26.5481 53.6478 26.6383C53.2732 26.7599 52.9383 26.932 52.6302 27.1278C52.246 27.2614 51.8056 27.3581 51.2479 27.4071C50.4208 27.4209 49.2812 27.1305 48.5205 26.7239H48.5232C49.2424 26.1458 50.0668 25.5426 51.223 25.4956H51.2479Z" fill="#001F66"/>
<path d="M52.9714 24.4915C54.1857 23.8774 55.9064 23.526 57.627 24.934C57.1927 25.0668 56.5758 25.2799 56.2909 25.4791L56.1193 25.598L56.2466 25.7611C56.4181 25.9797 56.714 26.32 56.9851 26.6105C56.4153 26.5385 55.9117 26.4084 55.4221 26.2812C55.1593 26.212 54.9104 26.1485 54.656 26.0931C54.2834 25.8803 53.991 25.6802 53.7437 25.4605L53.7902 25.4624L53.7875 25.4597L53.4306 25.1055C53.3759 25.0508 53.321 24.9955 53.2664 24.9402C53.1642 24.8037 53.0672 24.6558 52.9714 24.4915Z" fill="#001F66"/>
<path d="M58.1664 21.5813C59.0406 21.8468 60.0557 22.2094 60.8441 22.9895C61.5937 23.7862 62.0696 25.0476 62.4568 26.3338C61.5163 26.0379 59.8122 25.1526 59.187 24.5496L59.1897 24.5469C59.0907 24.3685 58.9989 24.1888 58.9134 24.0074C58.8239 23.7448 58.7073 23.4679 58.5798 23.1962C58.3992 22.6859 58.2634 22.1529 58.1664 21.5813Z" fill="#001F66"/>
<path d="M49.1799 23.0054C50.5018 22.3947 51.7518 22.5803 53.4857 23.6505C53.0514 23.7584 52.5397 23.9107 52.2741 24.0849L52.0999 24.1981L52.2244 24.3642C52.3793 24.5717 52.5784 24.7958 52.7942 25.0199C50.9696 24.8623 49.8357 24.2294 49.1799 23.0054Z" fill="#001F66"/>
<path d="M54.8497 20.4915C55.7403 20.7349 56.714 21.0447 57.436 21.9492C57.6841 22.3241 57.9681 22.8289 58.204 23.3283C58.3054 23.6146 58.4203 23.8943 58.5498 24.17C58.6202 24.3794 58.6702 24.5702 58.6892 24.7292C58.6062 24.7015 58.5204 24.6713 58.4374 24.6409C57.555 24.3283 56.7222 24.0322 55.9062 23.1V23.0973C55.4055 22.4362 54.9686 21.3463 54.8497 20.4915Z" fill="#001F66"/>
<path d="M50.8718 20.2451C51.793 20.2922 52.811 20.389 53.7072 21.1193L53.7902 21.1995C54.4126 21.8026 55.3199 22.6824 55.6463 23.5787C55.5578 23.5676 55.4692 23.5565 55.3835 23.5454C54.4319 23.4237 53.4498 23.2992 52.4568 22.5662C51.8288 22.0268 51.1706 21.0556 50.8718 20.2451Z" fill="#001F66"/>
<path d="M43.3808 60.4829C43.7792 60.5492 44.4017 60.6875 44.8277 60.7954H44.8304C46.5565 61.2795 47.8621 62.0764 49.6657 63.1745C50.8109 63.9629 52.4321 65.5035 53.0573 66.2144L50.8275 67C50.0917 66.3693 48.5316 64.6516 46.8111 63.6392C45.0905 62.6267 44.219 62.4193 43.3808 62.0597V60.4829Z" fill="#001F66"/>
<path d="M43.1429 62.7738C43.1429 62.9287 42.869 63.056 42.5315 63.056H42.2881C41.9506 63.056 41.6768 62.9287 41.6768 62.7738V60.5249C41.6768 60.3699 41.9506 60.2427 42.2881 60.2427H42.5315C42.869 60.2427 43.1429 60.3699 43.1429 60.5249V62.7738Z" fill="#001F66"/>
<path d="M40.714 60.4469C41.0763 60.4469 41.3198 60.5217 41.3918 60.5715V62.7291C41.3226 62.7761 41.0792 62.8536 40.714 62.8536H40.3712C40.0088 62.8536 39.7653 62.7789 39.6934 62.7291V60.5715C39.7626 60.5244 40.0061 60.4469 40.3712 60.4469H40.714Z" fill="#001F66"/>
<path d="M38.9354 60.243C39.2728 60.243 39.5466 60.3701 39.5467 60.525V62.7742C39.5466 62.9291 39.2728 63.0562 38.9354 63.0562H38.692C38.3546 63.0562 38.0808 62.9291 38.0807 62.7742V60.525C38.0808 60.3701 38.3546 60.243 38.692 60.243H38.9354Z" fill="#001F66"/>
<path d="M37.8095 62.0197C36.9713 62.3793 36.0998 62.5868 34.3792 63.5992C32.6586 64.6116 31.0983 66.3293 30.3625 66.96L28.133 66.1744C28.7582 65.4635 30.3792 63.9229 31.5244 63.1346C33.328 62.0364 34.6337 61.2395 36.3599 60.7554H36.3626C36.7886 60.6475 37.4111 60.5093 37.8095 60.4429V62.0197Z" fill="#001F66"/>
<path d="M9.29503 56.4553C11.9755 56.4055 13.5746 56.5523 15.9729 57.5537C16.5261 57.8248 17.0987 58.1179 17.7072 58.4249C19.2231 59.1911 20.7943 59.9879 22.2604 60.6241L22.2772 60.6295C26.9272 62.1593 28.1139 62.3557 30.9825 62.8287C31.1263 62.8536 31.2758 62.8787 31.4279 62.9036C31.1568 63.0834 30.9742 63.2494 30.7834 63.4209C30.7066 63.4914 30.6278 63.5625 30.5408 63.6373C30.4909 63.6781 30.4408 63.7196 30.3906 63.7615C30.3224 63.8161 30.2487 63.8733 30.1664 63.9325C26.2771 63.8274 22.3849 63.0805 19.1954 61.8246C16.2937 60.7348 14.7861 60.3974 11.2206 59.7086H11.2038C10.1974 59.6063 9.23245 59.5647 8.32549 59.5646C6.13534 59.5647 4.30195 59.8025 3.16527 59.9491C3.10718 59.9573 3.04899 59.9629 2.99643 59.9712C4.48741 57.9713 7.12081 56.4858 9.29503 56.4553Z" fill="#001F66"/>
<path d="M14.8 47.1217C15.6133 49.603 16.1002 50.3749 18.1776 52.8922C20.4293 55.5477 22.1721 57.1216 25.5662 58.8588C27.1485 59.6305 28.1471 60.3692 31.5633 60.7481C34.6588 61.2516 36.1443 60.56 37.403 60.5185C34.6782 61.2654 33.8177 61.805 32.122 62.7013C29.6794 62.3914 27.53 62.0151 23.5799 60.8146C20.3296 59.6141 18.2106 58.6127 16.4457 57.0415C15.0267 55.6916 13.7156 53.8492 13.5026 51.2932C13.4389 49.8548 13.721 48.715 14.7971 47.1244L14.8 47.1217Z" fill="#001F66"/>
<path d="M0.111328 33.941C2.30485 34.9645 3.99225 36.0072 4.91065 36.9117C6.05587 37.9878 6.70047 39.0778 7.25925 40.1013L7.27033 40.118C7.81521 40.923 7.99225 42.7569 8.16098 44.53C8.20745 45.0048 8.25405 45.4859 8.30767 45.9577C8.37527 46.8051 8.5121 47.6238 8.71234 48.4008C9.02256 50.2981 10.3486 52.4916 12.2107 54.1705L12.2217 54.1789C12.4237 54.3365 12.6699 54.5301 12.9465 54.7486C13.7653 55.3959 14.8663 56.2646 15.887 57.0502C15.1263 56.7293 14.3821 56.4469 13.6519 56.1703C11.4583 55.3377 9.56334 54.6158 8.33792 53.2604L8.32982 53.252C6.16387 51.1497 5.94516 49.5315 5.61598 47.0806C5.52193 46.3808 5.41403 45.5868 5.24805 44.721C4.9327 42.8925 4.19136 40.8011 3.04614 38.4996C2.06138 36.6242 1.17624 35.2466 0.11403 33.9437L0.111328 33.941Z" fill="#001F66"/>
<path d="M10.9023 38.837C12.562 37.6835 13.8098 38.1041 15.1486 38.7293C16.4349 39.4347 17.2344 40.5937 18.078 42.317C18.0144 42.281 17.9507 42.2479 17.887 42.2119C16.7031 41.5619 15.5855 40.9479 14.2218 41.006H14.2107C12.7778 41.1416 10.9991 42.118 10.7059 44.4222C10.5897 45.2465 10.6035 47.0639 11.1125 48.7015C11.4361 49.9601 12.6977 52.2755 13.4557 52.8176C13.6044 53.2117 13.8511 53.7995 14.2172 54.4666C14.4335 54.8832 14.6878 55.2895 14.9809 55.6865C15.0665 55.8069 15.155 55.9282 15.248 56.0488C13.782 54.9091 12.1058 53.537 11.5884 52.9395L11.5801 52.9284C10.4368 51.7816 9.59084 50.1988 9.11018 48.3687C9.09972 48.3069 9.09025 48.2453 9.08208 48.1842L9.02806 47.9627C8.88213 47.3351 8.7808 46.6175 8.69713 45.8742C8.67503 45.5816 8.66118 45.2856 8.65607 44.9865C8.60905 42.3116 9.38635 40.187 10.905 38.8343L10.9023 38.837Z" fill="#001F66"/>
<path d="M10.8718 21.4681C12.2052 22.6548 13.0462 23.8691 13.4363 25.1693C14.1721 27.5427 13.4501 29.7447 12.5262 31.0116L12.5151 31.0254C12.2053 31.5454 11.7405 32.1401 11.2508 32.7708C10.2688 34.0349 9.15136 35.468 8.84984 36.8207C8.54663 37.7007 8.34233 38.5336 8.22635 39.4008C8.12347 39.9201 8.06648 40.277 8.08939 40.9239C7.77182 40.0878 7.43023 39.5419 7.0353 38.9062C6.95233 38.7734 6.86637 38.6351 6.77786 38.4912V38.4942C6.77509 38.1346 6.77232 37.8026 6.76678 37.4955C6.74189 35.7722 6.72819 34.732 7.17632 32.6657C7.97299 30.1456 8.47097 29.2937 9.37553 27.7529L9.59948 27.3712C10.8083 25.753 10.9991 24.1374 10.8718 21.4681Z" fill="#001F66"/>
<path d="M15.1995 31.6832C15.8522 31.7511 16.6045 31.8144 17.2685 31.8596C18.1087 31.9911 19.1491 32.2016 20.4734 32.5109C22.3683 33.172 23.4361 34.3975 23.9756 35.1388C21.746 34.0849 20.6064 33.6671 18.1805 33.9437C16.1197 34.165 15.3892 34.425 13.2953 35.6864C11.9149 36.6048 11.1957 37.3158 10.0809 38.8622C9.5196 39.7123 8.92268 40.7457 8.52162 42.1395C8.47292 41.1482 8.50281 40.315 8.59212 39.5721C8.60905 39.4851 8.62753 39.3931 8.64777 39.2936C8.68373 39.111 8.72528 38.9036 8.77231 38.6574C8.96317 37.5731 9.88984 35.1333 10.5371 34.4499L10.5512 34.4332C11.4087 33.2991 12.3216 32.5909 13.8042 31.9077L13.8015 31.9049C14.2058 31.7783 14.6348 31.6957 15.1995 31.6832Z" fill="#001F66"/>
<path d="M18.0876 27.6883L18.338 27.7502C18.4555 27.7791 18.5873 27.7905 18.7224 27.7956C18.8924 27.854 19.0649 27.9341 19.2427 28.0322C18.7088 29.6228 17.7239 29.7474 15.6382 30.0102L15.605 30.0156L15.5744 30.0323C14.4597 30.6077 13.7018 31.1028 12.5843 31.9963C12.5289 32.0378 12.421 32.1152 12.3103 32.1926C12.3767 32.0627 12.4597 31.9078 12.5427 31.7502L12.54 31.7472C12.9245 31.4899 13.3063 31.2135 13.677 30.9451C14.2496 30.533 14.8388 30.1069 15.4307 29.7473L15.464 29.7279L15.4861 29.6976C15.7009 29.4109 15.9036 29.1595 16.0964 28.9407C16.3093 28.7357 16.5336 28.5122 16.7822 28.2621C17.2588 27.8677 17.6784 27.6975 18.0876 27.6883Z" fill="#001F66"/>
<path d="M18.6562 30.1096C19.4695 30.2479 20.2883 30.5827 21.2371 30.9727C21.3118 31.0059 21.3864 31.0363 21.4638 31.0667C20.728 31.4374 19.6187 31.5841 18.7889 31.5343H18.7805V31.5316H18.7724C18.4697 31.535 17.8957 31.5059 17.2382 31.4603C16.4263 31.3372 15.7953 31.2871 15.2716 31.2925C14.9774 31.2624 14.7034 31.2326 14.468 31.2023C15.5191 30.6518 17.9287 30.1234 18.6562 30.1096Z" fill="#001F66"/>
<path d="M22.2383 28.6851C22.513 28.6851 22.7656 28.7173 23.0009 28.7735C23.3506 28.9583 23.7178 29.1254 24.1214 29.26C24.3881 29.4253 24.6385 29.6103 24.8857 29.7943C24.1499 30.2314 23.0351 30.5718 22.208 30.5967C20.7724 30.2813 20.1333 30.1263 19.1044 29.7003H19.1014C19.9451 29.1664 21.3118 28.7681 22.2302 28.6851H22.2383Z" fill="#001F66"/>
<path d="M18.4209 23.4625C18.3333 24.054 18.1977 24.7014 18.0373 25.2981C17.8595 25.6919 17.7314 26.0785 17.644 26.5048C17.5221 26.8057 17.3972 27.0512 17.2731 27.2107C17.1237 27.3601 16.9826 27.5039 16.8471 27.6394C16.7284 27.7593 16.6153 27.8727 16.5075 27.9812C16.2858 28.1674 16.0591 28.3929 15.8235 28.6587C15.1088 29.3474 14.5482 29.8033 13.6216 30.3697C13.6963 30.1263 13.7683 29.8968 13.8374 29.6755C14.3105 28.154 14.6506 27.0557 15.3532 25.8552L15.3505 25.8579C16.1389 24.5578 17.4832 23.8802 18.4209 23.4625Z" fill="#001F66"/>
<path d="M25.8152 27.2742C26.1238 27.2771 26.4097 27.3209 26.6772 27.3933C26.9923 27.5617 27.3124 27.7084 27.6781 27.8229C27.9914 28.0052 28.2796 28.2143 28.5536 28.4196C27.804 28.8483 26.6783 29.1746 25.8484 29.1857C25.2603 29.152 24.7567 29.0513 24.3008 28.9048C23.955 28.6945 23.5753 28.5115 23.1397 28.4018C22.9883 28.3208 22.8388 28.2361 22.6894 28.1484H22.6864C23.497 27.6505 24.8 27.3517 25.8152 27.2742Z" fill="#001F66"/>
<path d="M21.1126 26.0488C21.5497 25.8608 22.4458 25.8802 23.4361 26.3449C22.9492 27.2577 22.2882 27.916 21.4695 28.2978C20.8471 28.5744 20.1996 28.7128 19.5744 28.8483C19.4777 28.8677 19.3837 28.8897 19.2897 28.9091C19.3892 28.7542 19.4887 28.5855 19.5855 28.4196C19.7155 28.1983 19.84 27.9908 19.9313 27.869L20.0558 27.7029L19.8843 27.5868C19.6326 27.4153 19.2812 27.4126 18.9409 27.4071H18.8947C19.6761 26.7832 20.3584 26.2533 21.0848 26.0599L21.1126 26.0488Z" fill="#001F66"/>
<path d="M29.1871 25.7722C30.3434 25.7722 31.19 26.3392 31.9342 26.8841C31.1928 27.3239 30.0697 27.6616 29.2398 27.6837C28.6823 27.6587 28.2392 27.5817 27.8505 27.4655C27.5329 27.2824 27.1898 27.1242 26.8088 27.0192C26.6554 26.9357 26.5011 26.8461 26.3406 26.7515H26.3379C27.3919 25.9299 28.2523 25.8552 29.1569 25.7722H29.1871Z" fill="#001F66"/>
<path d="M22.7613 25.4872C24.4182 24.0073 26.1528 24.2811 27.392 24.8427C27.3028 25.0122 27.2112 25.165 27.1143 25.3065C27.0612 25.3652 27.0081 25.424 26.9549 25.4818L26.6146 25.8524L26.657 25.8487C26.4199 26.0774 26.1371 26.2886 25.7763 26.5165C25.5247 26.5828 25.2785 26.6575 25.0186 26.7377C24.5345 26.8871 24.0363 27.0391 23.472 27.1359C23.7293 26.8316 24.0115 26.4804 24.1719 26.2563L24.2938 26.0875L24.1195 25.977C23.8263 25.7889 23.2011 25.6033 22.7613 25.4899V25.4872Z" fill="#001F66"/>
<path d="M22.0808 22.1623C22.011 22.7305 21.9004 23.2612 21.7458 23.7716C21.623 24.0638 21.5124 24.362 21.4316 24.6422C21.3564 24.8208 21.275 24.998 21.1872 25.1747C20.5758 25.8164 18.8608 26.7958 17.9452 27.1167C17.9646 26.9458 17.9896 26.7836 18.02 26.6272C18.1627 26.2717 18.2936 25.8582 18.409 25.4302C18.6335 24.9423 18.9455 24.4271 19.3753 23.7751C20.2605 22.7488 21.1263 22.4693 21.9617 22.201C22.0031 22.1871 22.0421 22.1762 22.0808 22.1623Z" fill="#001F66"/>
<path d="M27.6789 23.4914C28.9506 22.8077 29.9925 22.7309 31.1181 23.194C30.515 24.4471 29.4113 25.1305 27.5911 25.3657C27.7958 25.1333 27.9867 24.9009 28.1333 24.6852L28.2494 24.5136L28.0725 24.4056C27.8042 24.2451 27.2839 24.0932 26.8607 23.9936H26.858C26.9794 23.9111 27.0988 23.8334 27.2159 23.7605C27.3699 23.6823 27.5242 23.5933 27.6789 23.4914Z" fill="#001F66"/>
<path d="M25.3449 20.9367C25.2619 21.7942 24.8746 22.9008 24.4016 23.5841C23.6243 24.5494 22.8056 24.8815 21.9398 25.2327C21.8568 25.2659 21.7737 25.2992 21.6907 25.3324C21.7022 25.1701 21.7437 24.974 21.8061 24.7584C21.9195 24.4855 22.0193 24.2095 22.1059 23.9277C22.3215 23.4132 22.5874 22.8898 22.8221 22.4997L22.8248 22.5024C23.5052 21.5675 24.4652 21.2161 25.3449 20.9367Z" fill="#001F66"/>
<path d="M29.3089 20.5164C29.0434 21.3379 28.4292 22.3365 27.8234 22.9036C27.7107 22.9945 27.5975 23.0766 27.4844 23.1519C27.3272 23.2362 27.1669 23.3285 27.0036 23.4298C26.3119 23.7729 25.6187 23.8925 24.941 24.0074C24.8553 24.0212 24.7694 24.0351 24.6809 24.0517C24.9686 23.1444 25.8372 22.2232 26.4319 21.5953L26.5122 21.5094V21.5121C27.378 20.7431 28.3905 20.6021 29.3089 20.5164Z" fill="#001F66"/>
<path d="M69.3859 19.7583C69.2172 22.6816 69.0603 25.9278 70.2687 27.5538C70.703 28.2923 71.1678 28.8899 71.6186 29.468C72.2687 30.3006 72.9409 31.1637 73.5328 32.4803C74.2161 34.1733 74.3737 35.0254 74.3184 36.7653C73.9876 37.3209 73.6113 38.1552 73.2497 39.0761C73.2329 39.1189 73.2166 39.1621 73.2 39.2055C73.0982 39.4681 72.997 39.7366 72.8994 40.0073C72.9054 39.9302 72.9103 39.8538 72.915 39.7782C72.9986 39.2513 73.0133 38.752 72.9229 38.1879C72.8855 37.5439 72.799 36.995 72.6835 36.566V36.5549C71.9643 34.4084 70.7694 33.0943 69.7155 31.9325C69.3919 31.5757 69.0847 31.2382 68.8081 30.8952L68.7832 30.8703C67.5578 29.7998 66.2494 26.2757 67.0211 23.7861C67.4969 22.2012 68.3459 20.7597 69.3859 19.7583Z" fill="#001F66"/>
<path d="M70.8301 55.2052C73.2311 55.2384 75.0956 57.5204 76.3045 59.6282C74.5562 58.9035 72.9546 58.8234 69.3613 59.1968H69.3446C66.8108 59.6837 65.2949 60.3502 63.6878 61.0584C62.9603 61.3792 62.2049 61.7113 61.3225 62.0433C57.3585 63.4568 54.7361 63.4401 51.9588 63.4207C51.6518 63.4152 51.3363 63.4153 51.0182 63.4153L51.0128 63.4207C50.8081 63.4207 50.6033 63.4237 50.3958 63.4237C50.2907 63.349 50.194 63.2797 50.1027 63.2133C49.6767 62.9062 49.3391 62.6658 48.8633 62.3864C49.8111 62.2267 50.6965 62.0737 51.5499 61.9182C52.4657 61.7776 53.4758 61.5874 54.6303 61.3058C55.8492 61.0391 57.0806 60.7371 58.4236 60.3641L58.4374 60.3587C60.8329 59.4846 61.8427 58.9866 63.6767 58.0792L63.8094 58.0155C64.6365 57.6697 65.411 57.2409 66.1634 56.8288C67.682 55.9961 69.1151 55.2052 70.7361 55.2052H70.8301Z" fill="#001F66"/>
<path d="M65.9559 45.3213C66.7664 47.0391 67.1732 50.3364 67.1124 51.7196C66.9077 54.2147 65.577 55.7971 64.1689 57.1359C62.7471 58.2202 61.3751 58.7018 59.4747 59.3657C58.8025 59.6008 58.0418 59.8663 57.2009 60.1872C56.2823 60.4719 55.4492 60.7027 54.6829 60.893C53.5836 61.1353 52.4968 61.3475 51.3491 61.5551C50.3663 61.7007 49.4793 61.7912 48.6034 61.8801L48.2106 61.9188C47.0938 61.3276 46.7306 61.1693 45.7913 60.9025C45.6342 60.8442 45.4745 60.7889 45.3115 60.7363C46.3124 60.6764 47.6414 60.5214 49.6683 60.1899C52.9325 59.5509 53.9007 59.2216 55.5466 58.4194C58.4539 56.8841 60.3599 55.1996 62.3322 53.1359C64.2244 50.9866 65.5271 48.1678 65.9559 45.3213Z" fill="#001F66"/>
<path d="M65.353 38.4254C66.7361 37.7809 67.9477 37.9495 69.5023 39.0089L69.6131 39.0811C70.4099 39.5996 70.9752 40.2705 71.3382 41.1617C71.445 41.4724 71.5487 41.814 71.6483 42.1928C71.7985 42.9039 71.8618 43.7257 71.8453 44.6797C71.8434 44.7565 71.8407 44.8327 71.8385 44.9083C71.7994 45.3053 71.7592 45.7361 71.7153 46.2095C71.6711 46.6798 71.6212 47.197 71.5686 47.7558C71.5132 48.1731 71.4451 48.5647 71.3633 48.9385C70.8189 51.0763 69.6971 52.9554 67.4082 55.554C66.6392 56.1321 66.0306 56.4669 65.2506 56.7961C66.559 55.1391 66.9187 54.417 67.6794 52.8901L67.7902 52.6659L67.801 52.641C67.9504 52.1901 68.0668 51.861 68.1719 51.5678C68.3793 50.9841 68.5287 50.5636 68.7473 49.7143L68.75 49.72C69.2756 48.0326 69.4166 46.8457 69.3059 45.0144C69.1455 42.7157 68.003 41.2165 66.2409 40.998C65.5327 40.9288 63.826 40.8596 62.2134 41.5207C63.0598 39.9025 63.9671 39.1834 65.353 38.4254Z" fill="#001F66"/>
<path d="M79.8895 34.1699C78.8245 35.4174 78.0943 36.4548 77.0709 38.4022C76.0888 40.0675 75.3918 42.228 75.1096 44.4852C74.3904 48.2361 73.837 49.7769 71.5743 52.7367C70.6836 53.7215 69.6877 54.8226 68.0944 55.3814C68.1331 55.3371 68.1719 55.2929 68.2078 55.2514C69.1179 54.192 69.7209 53.4921 70.3406 52.5184C71.0937 51.2739 71.5448 50.1205 71.8174 48.7046C72.0786 47.5656 72.1863 46.3663 72.2294 44.982C72.3594 43.6463 72.4755 42.7218 72.6948 41.8522C72.8428 41.3677 73.008 40.8685 73.1816 40.3783C73.2195 40.2846 73.259 40.1893 73.3005 40.0922L73.3059 40.0784C73.8453 38.5238 74.2298 37.5694 75.8895 36.0341C77.1067 34.8364 78.8025 34.4298 79.8149 34.1864C79.8398 34.1809 79.8647 34.1754 79.8895 34.1699Z" fill="#001F66"/>
<path d="M64.6949 30.9009C65.1881 30.873 65.7324 30.8657 66.3544 30.8809C68.8412 31.4121 70.0806 33.0553 70.9851 34.2531L71.0764 34.3747L71.0845 34.383C71.8397 35.2655 72.2713 36.3969 72.4898 38.051V38.0651C72.5076 38.1533 72.5226 38.2398 72.5349 38.3249C72.5543 38.7291 72.5535 39.1709 72.5271 39.6443C72.4576 40.1247 72.325 40.6286 72.1578 41.2322L72.1497 41.2738C72.1359 41.5891 72.0997 41.7303 72.0527 41.9294C72.0418 41.9732 72.0307 42.017 72.0198 42.0634C71.937 41.6864 71.831 41.3372 71.6999 41.0139C71.0489 39.1393 70.2653 38.3316 69.4469 37.4897C69.3584 37.3956 69.2673 37.3015 69.1733 37.2047C67.9838 35.9958 67.5521 35.7108 66.3681 34.986L66.3517 34.9779C64.7887 34.2282 63.7706 33.8518 61.8868 33.5918H61.8757C61.4774 33.5586 61.1538 33.5448 60.8578 33.5448C60.1939 33.5448 59.6822 33.6195 58.8634 33.7412C58.4872 33.7965 58.0419 33.863 57.4859 33.9349C58.6311 32.9944 59.9229 32.1812 61.1704 31.6141C61.829 31.3927 62.429 31.2189 63.0759 31.0952C63.573 31.0428 64.1434 30.9745 64.6949 30.9009Z" fill="#001F66"/>
<path d="M40.3434 47.1632H40.3323C38.6974 47.0637 37.8482 46.7096 36.6698 46.0014L36.8717 45.6639C38.0142 46.35 38.7887 46.6708 40.3434 46.7677C41.8371 46.6957 42.7832 46.3057 43.909 45.6612L44.1054 46.0014C42.9547 46.6598 41.9256 47.0858 40.3516 47.1605H40.3406L40.3434 47.1632Z" fill="#001F66"/>
<path d="M40.3434 51.7746C40.2355 51.7746 40.1469 51.686 40.1469 51.5782V46.9668C40.1469 46.859 40.2355 46.7704 40.3434 46.7704C40.4512 46.7704 40.5397 46.859 40.5397 46.9668V51.5782C40.5397 51.686 40.4512 51.7746 40.3434 51.7746Z" fill="#001F66"/>
<path d="M39.4609 47.036L39.0792 49.6695L39.4609 47.036Z" fill="white"/>
<path d="M39.0792 49.8659C39.0792 49.8659 39.0598 49.8659 39.0515 49.8659C38.9436 49.8493 38.869 49.7497 38.8856 49.6418L39.2673 47.0083C39.2839 46.9004 39.3835 46.8258 39.4913 46.8424C39.5992 46.859 39.6739 46.9585 39.6573 47.0664L39.2756 49.6999C39.2617 49.7967 39.176 49.8686 39.0819 49.8686L39.0792 49.8659Z" fill="#001F66"/>
<path d="M38.5508 46.8341L38.1995 48.5823L38.5508 46.8341Z" fill="white"/>
<path d="M38.1995 48.7787C38.1995 48.7787 38.1746 48.7787 38.1608 48.776C38.0529 48.7538 37.9865 48.6515 38.0059 48.5436L38.3572 46.7953C38.3793 46.6902 38.4817 46.6183 38.5895 46.6404C38.6974 46.6625 38.7638 46.7649 38.7445 46.8728L38.3932 48.621C38.3738 48.7151 38.2936 48.7787 38.1995 48.7787Z" fill="#001F66"/>
<path d="M37.6905 46.4025L37.3696 47.7441L37.6905 46.4025Z" fill="white"/>
<path d="M37.3696 47.9405C37.3558 47.9405 37.3392 47.9406 37.3226 47.935C37.2175 47.9101 37.1511 47.805 37.176 47.6971L37.4969 46.3555C37.5218 46.2504 37.6297 46.184 37.7348 46.2089C37.8399 46.2338 37.9063 46.3389 37.8814 46.4468L37.5605 47.7884C37.5384 47.8797 37.4582 47.9405 37.3696 47.9405Z" fill="#001F66"/>
<path d="M41.2507 47.0415L41.5716 49.5394L41.2507 47.0415Z" fill="white"/>
<path d="M41.5688 49.7358C41.472 49.7358 41.3862 49.6639 41.3752 49.5643L41.0543 47.0664C41.0404 46.9585 41.1179 46.859 41.2258 46.8451C41.3337 46.8313 41.4333 46.9087 41.4471 47.0166L41.768 49.5145C41.7818 49.6224 41.7043 49.722 41.5965 49.7358C41.5882 49.7358 41.5799 49.7358 41.5716 49.7358H41.5688Z" fill="#001F66"/>
<path d="M42.1608 46.8368L42.4263 48.3693L42.1608 46.8368Z" fill="white"/>
<path d="M42.4263 48.5657C42.3323 48.5657 42.2493 48.4993 42.2327 48.4025L41.9671 46.87C41.9478 46.7621 42.0197 46.6598 42.1276 46.6432C42.2355 46.6238 42.3378 46.6957 42.3544 46.8036L42.62 48.3361C42.6393 48.444 42.5674 48.5464 42.4595 48.563C42.4484 48.563 42.4374 48.5657 42.4263 48.5657Z" fill="#001F66"/>
<path d="M43.0211 46.4053L43.2977 47.415L43.0211 46.4053Z" fill="white"/>
<path d="M43.2977 47.6114C43.2119 47.6114 43.1317 47.5533 43.1068 47.4675L42.8302 46.4578C42.8026 46.3527 42.8634 46.2448 42.9685 46.2172C43.0736 46.1868 43.1815 46.2504 43.2092 46.3555L43.4858 47.3652C43.5135 47.4703 43.4526 47.5782 43.3475 47.6058C43.3309 47.6114 43.3115 47.6141 43.2949 47.6141L43.2977 47.6114Z" fill="#001F66"/>
<path d="M41.5771 44.7068C41.5771 44.8341 41.472 44.9392 41.3448 44.9392C41.2175 44.9392 41.1124 44.8341 41.1124 44.7068C41.1124 44.5796 41.2175 44.4745 41.3448 44.4745C41.472 44.4745 41.5771 44.5796 41.5771 44.7068Z" fill="#001F66"/>
<path d="M41.5577 46.1757C41.5577 46.3029 41.4526 46.4081 41.3254 46.4081C41.1981 46.4081 41.093 46.3029 41.093 46.1757C41.093 46.0484 41.1981 45.9433 41.3254 45.9433C41.4526 45.9433 41.5577 46.0484 41.5577 46.1757Z" fill="#001F66"/>
<path d="M40.5481 45.4177C40.5481 45.545 40.4429 45.6501 40.3157 45.6501C40.1884 45.6501 40.0833 45.545 40.0833 45.4177C40.0833 45.2905 40.1884 45.1854 40.3157 45.1854C40.4429 45.1854 40.5481 45.2905 40.5481 45.4177Z" fill="#001F66"/>
<path d="M42.844 45.5395C42.844 45.6667 42.7389 45.7718 42.6117 45.7718C42.4844 45.7718 42.3793 45.6667 42.3793 45.5395C42.3793 45.4122 42.4844 45.3071 42.6117 45.3071C42.7389 45.3071 42.844 45.4122 42.844 45.5395Z" fill="#001F66"/>
<path d="M40.5066 44.4136C40.5066 44.5408 40.4015 44.646 40.2742 44.646C40.147 44.646 40.0418 44.5408 40.0418 44.4136C40.0418 44.2863 40.147 44.1812 40.2742 44.1812C40.4015 44.1812 40.5066 44.2863 40.5066 44.4136Z" fill="#001F66"/>
<path d="M38.4097 45.509C38.4097 45.6363 38.3046 45.7414 38.1774 45.7414C38.0501 45.7414 37.945 45.6363 37.945 45.509C37.945 45.3818 38.0501 45.2767 38.1774 45.2767C38.3046 45.2767 38.4097 45.3818 38.4097 45.509Z" fill="#001F66"/>
<path d="M39.5495 44.7538C39.5495 44.8811 39.4443 44.9862 39.3171 44.9862C39.1898 44.9862 39.0847 44.8811 39.0847 44.7538C39.0847 44.6266 39.1898 44.5215 39.3171 44.5215C39.4443 44.5215 39.5495 44.6266 39.5495 44.7538Z" fill="#001F66"/>
<path d="M39.7071 46.1453C39.7071 46.2725 39.602 46.3776 39.4748 46.3776C39.3475 46.3776 39.2424 46.2725 39.2424 46.1453C39.2424 46.018 39.3475 45.9129 39.4748 45.9129C39.602 45.9129 39.7071 46.018 39.7071 46.1453Z" fill="#001F66"/>
<path d="M38.6975 35.7194C39.0266 36.0955 39.2701 36.4938 39.4914 36.8561C39.5578 36.964 39.6215 37.0691 39.6851 37.1687C39.7045 38.8201 39.6908 40.3665 39.6797 41.733C39.6742 42.1949 39.6686 42.6377 39.6686 43.061C39.132 43.1523 38.6505 43.3017 38.2355 43.5091C37.9064 42.2201 37.3448 39.8577 36.9907 38.2311C37.3476 37.6502 37.768 37.0499 38.1442 36.516C38.3406 36.2394 38.5287 35.9683 38.6975 35.7194Z" fill="#001F66"/>
<path d="M31.8734 37.5311C33.4224 37.5947 34.8746 37.9738 36.0281 38.6211C36.2715 39.6252 36.537 40.9918 36.8164 42.4357C36.9326 43.0332 37.0516 43.6474 37.1705 44.2449C36.7584 44.6072 36.2963 45.094 36.0557 45.4259L35.9976 45.5091L35.9757 45.6085C35.9647 45.6527 35.9562 45.697 35.9479 45.7385C35.8621 45.6168 35.7735 45.4896 35.685 45.3624C35.2037 44.6709 34.6562 43.888 34.0642 43.2213L34.0474 43.2048C33.8428 42.9946 33.6519 42.7899 33.4693 42.5935C32.9161 42.0015 32.3933 41.4371 31.5303 40.7511V40.7484C31.6603 39.5534 31.7599 38.6127 31.8734 37.5311Z" fill="#001F66"/>
<path d="M25.6436 40.4523C27.5135 40.1812 29.7236 40.9253 30.3268 41.3043L30.3573 41.3208C31.4334 41.8934 33.2205 43.6613 34.6174 45.7719C33.4501 45.3514 32.5952 45.0692 30.4929 44.8866L29.8097 44.8259L29.9672 45.4923C30.1664 46.3222 30.5095 47.2849 30.9216 48.2005C30.125 47.4038 29.4058 46.4217 28.6257 45.354C28.291 44.8948 27.9451 44.4218 27.5716 43.9349V43.9376C26.6699 42.6735 26.2799 41.8824 25.6436 40.4523Z" fill="#001F66"/>
<path d="M23.4195 44.3639C24.5841 44.1758 26.1029 44.1177 26.41 44.3998L26.4543 44.4357C27.096 44.9032 27.5939 45.6418 28.1194 46.4218C28.4126 46.8534 28.7142 47.3016 29.049 47.7082C29.9424 48.7759 30.2744 49.0525 31.2868 49.744C32.0005 50.3111 33.0018 51.0829 33.7791 51.6777C32.9659 51.6887 32.1333 51.614 31.3781 51.4508L31.3395 51.44H31.3006C30.5565 51.4012 29.4556 50.8368 28.5732 50.3832C28.1223 50.1536 27.6933 49.9323 27.3392 49.794V49.7967C25.8235 48.7234 25.3394 47.3957 25.237 47.0637C25.0932 46.1232 24.3573 45.2767 23.4195 44.3639Z" fill="#001F66"/>
<path d="M31.268 46.1369C33.9729 46.5628 35.1844 46.9475 36.1968 47.9571L36.2273 47.9849C37.757 49.2684 38.8441 50.6903 39.5357 52.3196C37.06 52.4579 36.1249 52.1066 35.3393 51.4316L35.2839 51.39C32.8898 49.8529 31.6698 47.7327 31.268 46.1369Z" fill="#001F66"/>
<path d="M26.7641 50.9972C27.428 51 28.1805 51.2407 29.0573 51.733L29.0681 51.7384C31.1096 52.8117 33.0103 52.8561 35.2122 52.5656C35.3422 52.6846 35.5524 52.9337 35.699 53.1108C35.9009 53.3541 36.1221 53.6196 36.3517 53.8436C35.2286 55.2904 32.703 55.7359 30.7363 55.4067L30.7419 55.4094C28.9466 54.8672 28.0641 54.087 27.1291 53.2599C26.9936 53.1382 26.8552 53.0166 26.7141 52.8949C25.9119 52.2006 25.0157 51.8658 23.97 51.6058C24.9272 51.2407 25.9978 50.9972 26.7557 50.9972H26.7641Z" fill="#001F66"/>
<path d="M37.5003 53.2763C37.9523 53.2709 38.445 53.2768 38.8856 53.2823C39.4997 53.2878 40.0364 53.296 40.3933 53.2766C40.9272 53.3264 41.3421 53.4066 41.7432 53.4841C42.3379 53.6002 42.8828 53.7054 43.6242 53.6667C43.259 53.9986 42.8191 54.3471 42.3129 54.6376C41.2922 55.224 40.8773 55.8382 40.4403 56.4883C40.4209 56.5159 40.4016 56.5463 40.3822 56.5739C40.3629 56.538 40.3462 56.4994 40.3268 56.4634C40.1249 56.0596 39.8981 55.6003 39.2952 54.8618L39.2646 54.8285C38.7675 54.3231 38.2235 53.8615 37.5003 53.2763Z" fill="#001F66"/>
<path d="M42.6117 34.8894C43.0101 35.6308 43.3972 36.7568 43.7706 37.8467L43.873 38.1425C43.4885 39.9156 42.7391 42.632 42.4237 43.769C41.9064 43.5477 41.151 43.3403 40.5757 43.3016C40.5729 42.8065 40.5701 42.2808 40.5646 41.7275C40.5508 40.3333 40.5398 38.7538 40.5592 37.0692C40.9299 36.5436 41.8953 35.5395 42.6117 34.8894Z" fill="#001F66"/>
<path d="M48.8496 37.5341C48.8828 37.9324 48.9048 38.2864 48.9242 38.657C48.9518 39.1632 48.9823 39.6833 49.0487 40.3554C47.873 41.0248 47.4857 41.4013 46.6642 42.3861C45.8731 43.3127 45.2811 44.4303 44.7583 45.4206L44.7499 45.4095C44.3129 44.8286 43.699 44.2392 43.1623 43.8713L43.1594 43.8686C43.4249 42.6625 43.8068 41.4785 44.1443 40.4246C44.3517 39.7801 44.5482 39.1687 44.6948 38.6238C45.8483 37.9766 47.3006 37.5977 48.8496 37.5341Z" fill="#001F66"/>
<path d="M49.7652 41.1799C50.2189 40.9613 51.746 40.3142 53.5413 40.541C53.2038 41.9517 52.1664 44.3222 51.7211 44.9834C50.9963 46.0927 50.3655 46.8009 49.4638 47.4593C49.5412 47.0941 49.5992 46.7068 49.6877 46.1037L49.7652 45.5699L49.2258 45.5394C48.963 45.5256 48.7002 45.5172 48.4429 45.5172L48.4402 45.5145C47.5273 45.5145 46.6615 45.6142 45.826 45.8106C46.9602 43.7885 48.0694 41.9296 49.7485 41.1882L49.7652 41.1799Z" fill="#001F66"/>
<path d="M56.8939 41.9821C56.2853 43.0305 55.9035 44.1066 55.5854 45.0028C55.3364 45.7026 55.1207 46.3084 54.8884 46.6321L54.8716 46.6569C54.039 47.9875 53.5466 48.4938 51.6878 49.5007C50.49 49.9875 49.7071 50.2007 48.335 50.2201C48.4761 50.0015 48.584 49.7939 48.6946 49.5809C48.8025 49.3762 48.9161 49.1632 49.0682 48.9142C51.2452 47.4454 52.4984 46.2032 53.6325 43.3015C54.4541 42.2725 55.9534 41.9877 56.8939 41.9821Z" fill="#001F66"/>
<path d="M48.4788 46.6791C48.2188 48.4025 47.6379 50.1619 45.3447 51.6335L45.2895 51.6751C44.4929 52.3611 43.6047 52.6653 41.1704 52.361L41.1677 52.3583C41.9285 50.4828 43.0765 48.8423 44.4375 47.6943C45.6436 46.8009 46.8634 46.7096 48.4788 46.6791Z" fill="#001F66"/>
<path d="M54.6394 48.9891C55.7763 48.9891 57.2091 49.1632 58.1966 49.5504C57.9892 49.8104 57.7984 50.0595 57.6242 50.2863C56.8275 51.3181 56.2519 52.0623 55.4414 52.61C53.8537 53.6611 52.4512 54.3139 50.3517 54.3195H50.2466C48.3462 54.372 47.0376 54.408 45.3668 53.3375H45.3752C45.5024 53.1992 45.6437 53.0415 45.7958 52.8756C46.2411 52.3832 47.0515 51.4926 47.3586 51.2823C49.3447 51.4123 49.7264 51.3264 51.8232 50.6985L51.8758 50.682L51.9229 50.6542C52.3018 50.4412 52.6975 50.1534 53.082 49.874C53.5938 49.5006 54.299 48.9891 54.6089 48.9891H54.6394Z" fill="#001F66"/>
<path fill-rule="evenodd" clip-rule="evenodd" d="M34.2238 16.4513C37.4877 13.1839 42.7842 13.1828 46.0538 16.4488C49.3233 19.715 49.328 25.0117 46.064 28.2791C42.8001 31.5465 37.5033 31.5474 34.2338 28.2813C30.9643 25.0151 30.9598 19.7186 34.2238 16.4513ZM40.1331 27.9347L40.799 25.4529C40.359 25.5452 39.9038 25.5431 39.465 25.4464L40.1331 27.9347ZM37.3474 27.188L39.1709 25.3667C38.7512 25.2306 38.3548 25.0049 38.0117 24.6895L37.3474 27.188ZM42.2597 24.7092C41.9152 25.0201 41.5198 25.2413 41.1021 25.3735L42.9188 27.188L42.2597 24.7092ZM35.3089 25.1409L37.801 24.4763C37.4876 24.1291 37.265 23.7302 37.1329 23.309L35.3089 25.1409ZM43.1538 23.325C43.0209 23.7435 42.7984 24.139 42.4874 24.4823L44.9575 25.1409L43.1538 23.325ZM42.1343 20.408C41.0694 19.2956 39.3043 19.2569 38.1919 20.3218C37.0795 21.3867 37.0411 23.1518 38.106 24.2643C39.1709 25.3767 40.936 25.4153 42.0484 24.3504C43.1608 23.2855 43.1992 21.5204 42.1343 20.408ZM34.5647 22.3498L37.0584 23.0259C36.9629 22.5804 36.9647 22.1189 37.0632 21.6747L34.5647 22.3498ZM43.2268 21.6782C43.3244 22.1176 43.3275 22.5735 43.2359 23.0132L45.7015 22.3471L43.2268 21.6782ZM37.1375 21.3973C37.2729 20.9736 37.5 20.5734 37.818 20.2275L35.3089 19.5587L37.1375 21.3973ZM42.4614 20.2213C42.7793 20.5647 43.0069 20.9602 43.1444 21.3789L44.9575 19.5557L42.4614 20.2213ZM38.0171 20.0301C38.3654 19.7121 38.7667 19.4865 39.1909 19.3528L37.3474 17.5143L38.0171 20.0301ZM41.0775 19.3474C41.5021 19.4786 41.9037 19.7017 42.2524 20.0152L42.9188 17.5116L41.0775 19.3474ZM40.1331 16.7646L39.4575 19.2812C39.9021 19.1829 40.3635 19.1817 40.8082 19.2772L40.1331 16.7619V16.7646Z" fill="#001F66"/>
</svg>
