<svg width="129" height="128" viewBox="0 0 129 128" fill="none" xmlns="http://www.w3.org/2000/svg">
<path d="M119.292 64.0428C119.224 94.5836 94.5841 119.151 64.1372 119.113C33.6476 119.074 9.06308 94.4129 9.12708 63.9148C9.19108 33.4124 33.8908 8.88759 64.3377 8.96012C94.7718 9.03265 119.237 33.6385 119.292 64.0428ZM81.669 16.5164C82.3431 16.6529 83.0172 16.7895 83.7767 16.9431C83.5889 16.3927 83.2689 16.2732 82.8977 16.2092C82.3345 16.1111 81.7713 16.0001 81.2081 15.8892C80.9649 15.8423 80.7218 15.7868 80.5341 15.7484C80.4701 16.0812 80.4487 16.3671 80.3591 16.6273C80.086 17.4124 79.8129 18.1975 79.4929 18.9612C79.318 19.3793 79.4631 19.5969 79.8257 19.742C80.2183 19.8956 80.6151 20.0449 81.0204 20.1601C81.4983 20.2967 81.9847 20.3948 82.5137 20.5185C82.4028 20.0236 82.2621 19.9169 81.9165 19.8444C81.3447 19.7249 80.7773 19.5756 80.2141 19.422C79.9538 19.3495 79.8685 19.1959 80.005 18.91C80.3207 18.2273 80.598 17.5233 80.8967 16.8279C81.1271 16.2945 81.1314 16.2988 81.686 16.5292C81.3532 16.9431 81.0204 17.3569 80.6279 17.8433C80.8882 17.758 81.0759 17.6727 81.2722 17.6471C81.4044 17.63 81.5623 17.6727 81.686 17.7367C81.7287 17.758 81.7373 17.9799 81.6989 18.0055C81.5879 18.0737 81.4428 18.1207 81.3105 18.1164C81.0759 18.1079 80.837 18.0609 80.6023 18.0268C80.5852 18.078 80.5724 18.1249 80.5553 18.1761C80.7857 18.3127 81.0161 18.4535 81.3447 18.6455C80.9266 18.846 80.5767 19.0081 80.1628 19.2044C80.7559 19.4135 81.1953 19.2172 81.6262 18.9484C81.8097 19.2556 81.9761 19.5287 82.1852 19.8743C82.774 19.2385 81.9762 19.0465 81.8994 18.6625C82.2706 18.6967 82.6119 18.7265 82.949 18.7607C82.966 18.7095 82.9789 18.6583 82.9959 18.6028C82.7655 18.4577 82.5351 18.3169 82.3004 18.1719C82.3175 17.4636 82.9788 18.1164 83.1794 17.7623C82.8978 17.2759 82.3901 17.4295 81.9207 17.3527C82.181 17.1137 82.1809 16.926 81.9462 16.7511C81.8481 16.6785 81.7628 16.5975 81.669 16.5207V16.5164ZM64.1756 102.353C85.3724 102.336 102.477 85.2396 102.529 64.1239C102.58 42.974 85.3554 25.6044 63.9965 25.7068C43.0685 25.8049 25.7116 42.91 25.8737 64.3542C26.0316 85.214 43.03 102.379 64.1756 102.353ZM73.8353 14.5665C73.5878 14.8993 73.4044 15.1425 73.2252 15.3857C73.2423 15.4199 73.2637 15.454 73.2807 15.4881C73.8866 15.2577 74.565 15.4967 75.1922 15.1937C74.5863 14.1527 74.309 13.9863 73.4556 13.9991C72.1415 14.0119 70.8274 13.918 69.5132 13.8412C69.2188 13.8241 68.9287 13.7047 68.5532 13.6108C68.3826 13.9009 68.1564 14.302 67.909 14.6945C67.7212 14.9932 67.5463 15.3345 67.8876 15.5777C68.2844 15.8593 68.5149 15.4241 68.5831 15.1809C68.8306 14.3105 69.4535 14.3063 70.149 14.3916C70.2257 14.4001 70.3026 14.4044 70.3751 14.3916C70.7506 14.3489 70.8402 14.5452 70.8274 14.878C70.8189 15.2023 70.7847 15.4412 70.3623 15.4028C70.0167 15.3729 69.6668 15.3985 69.2146 15.3985C69.6498 16.0001 70.2257 15.774 70.6524 15.9447C70.6652 16.5633 70.6652 16.5804 70.1062 16.5548C69.7052 16.5335 69.3085 16.4481 68.9074 16.3969C68.7623 16.3799 68.6173 16.3969 68.5831 16.3969C68.6898 17.3783 68.7922 18.2999 68.886 19.1276H70.2684C70.2898 19.742 70.2855 19.7633 69.7394 19.742C68.6812 19.6993 67.6274 19.6268 66.5693 19.5799C66.4114 19.5713 66.2535 19.6225 66.0914 19.6439C66.0785 19.6908 66.0614 19.7377 66.0486 19.7889C66.134 19.8487 66.2279 19.8999 66.3047 19.9639C66.7484 20.3308 67.2647 20.2455 67.7767 20.2369C68.5532 20.2241 69.3297 20.2369 70.1148 20.2369C70.1617 21.2823 69.7649 22.2124 70.0209 23.1724C70.6353 22.3361 70.5457 21.2951 70.8486 20.3393C71.2454 20.3607 71.638 20.3607 72.0262 20.4033C72.9265 20.4972 73.8225 20.6167 74.7271 20.7148C74.8295 20.7276 74.9447 20.6508 75.0556 20.6167C75.0087 20.4972 74.9873 20.3137 74.9062 20.2753C74.5308 20.1089 74.1425 19.8956 73.7457 19.87C72.8156 19.8103 71.8812 19.8529 70.8956 19.8529C70.9298 19.55 70.9511 19.3495 70.9852 19.0636C71.3649 19.1191 71.7532 19.0935 72.0519 19.2428C72.4871 19.4604 72.5639 19.4988 72.7943 19.0679C73.0631 18.5601 73.2978 18.0353 73.5794 17.5361C73.8738 17.0113 73.8566 16.8449 73.3062 16.5932C73.0289 16.4695 72.709 16.414 72.4018 16.3969C72.069 16.3799 71.7319 16.4481 71.4033 16.478C71.2967 16.0428 71.4204 15.8849 71.8172 15.8892C72.1799 15.8892 72.5383 15.8167 72.9607 15.7697C72.5853 15.0913 72.0349 15.3687 71.5741 15.326C71.6125 15.0188 71.6509 14.7372 71.6935 14.4172C72.3549 14.4641 73.029 14.5111 73.8269 14.5665H73.8353ZM31.318 25.4593C31.7489 25.9372 32.197 26.334 32.517 26.8161C33.4514 28.2199 34.3431 29.6577 35.2433 31.0871C35.4865 31.4753 35.7852 31.7441 36.3484 31.7655C36.0711 31.1596 36.502 30.9676 36.8433 30.7116C37.7863 30.0033 38.7292 29.2993 39.6508 28.5697C40.1842 28.1473 40.6834 27.7889 41.3618 28.318C41.5922 28.4972 41.7969 28.3351 41.7713 28.0705C41.7415 27.7633 41.6817 27.4263 41.5196 27.1788C41.0844 26.526 40.5682 25.9287 40.1117 25.2929C39.2242 24.0599 38.1489 22.9548 37.5772 21.5084C37.543 21.4231 37.4321 21.3207 37.351 21.3121C36.8988 21.2695 36.4593 21.2481 36.071 21.5895C34.8678 22.6391 33.6519 23.6801 32.4231 24.7041C32.0733 24.9985 31.6679 25.2289 31.3223 25.4636L31.318 25.4593ZM110.034 46.3233C110.051 46.2977 110.068 46.2678 110.085 46.2423C109.56 45.6449 109.044 45.0433 108.506 44.4588C108.293 44.2241 108.246 44.0449 108.438 43.7548C108.877 43.0807 109.274 42.3809 109.756 41.5745C108.86 41.9543 108.092 42.2913 107.312 42.5943C107.179 42.6455 106.928 42.5943 106.825 42.4961C106.454 42.1207 106.125 41.7068 105.776 41.31C105.567 41.0753 105.349 40.8492 105.055 40.5249C105.14 41.4593 105.191 42.2615 105.298 43.0508C105.345 43.3964 105.229 43.5244 104.927 43.6439C104.193 43.9297 103.48 44.2583 102.755 44.574C103.544 44.8556 104.312 45.0561 105.093 45.2055C105.439 45.2737 105.515 45.4359 105.532 45.7516C105.584 46.5537 105.673 47.3559 105.754 48.2689C106.185 47.5479 106.556 46.9335 106.928 46.3148C107.316 45.662 107.312 45.6791 108.024 45.8668C108.69 46.0417 109.364 46.174 110.034 46.3233ZM112.948 56.8022C112.974 56.7767 112.999 56.7511 113.02 56.7255C112.564 56.0727 112.12 55.4113 111.642 54.7756C111.437 54.5068 111.459 54.3276 111.664 54.0759C112.159 53.4572 112.619 52.8087 113.131 52.1303C113.016 52.1303 112.969 52.1217 112.931 52.1303C112.47 52.2668 112.005 52.4076 111.544 52.5527C110.337 52.9324 110.341 52.9324 109.62 51.8657C109.326 51.4263 109.006 51.0039 108.698 50.5729C108.609 51.1617 108.613 51.7036 108.609 52.2454C108.606 53.0391 108.219 53.5582 107.448 53.8028C106.94 53.9649 106.433 54.1228 105.921 54.2849C106.633 54.6348 107.337 54.8908 108.054 55.1084C108.43 55.2236 108.575 55.4071 108.553 55.8167C108.515 56.5761 108.54 57.3356 108.54 58.2359C109.108 57.4764 109.599 56.8364 110.072 56.1793C110.23 55.9575 110.388 55.9105 110.644 56.0044C111.408 56.286 112.176 56.5377 112.944 56.8022H112.948ZM22.8743 40.4908C22.3793 41.1137 21.8588 41.758 21.3596 42.4108C21.2018 42.6199 21.078 42.6924 20.8007 42.5772C20.0241 42.2572 19.2306 41.9799 18.3346 41.6471C18.7527 42.2785 19.1111 42.8033 19.4482 43.3367C20.0668 44.318 20.0924 43.9468 19.3799 44.8812C19.0044 45.3719 18.6076 45.8497 18.2194 46.3361C18.9362 46.2295 19.589 46.0588 20.2375 45.8668C20.9671 45.6492 20.9671 45.6407 21.3895 46.2764C21.7692 46.8481 22.149 47.4241 22.5244 48.0001C22.6396 47.8337 22.6695 47.6929 22.678 47.5521C22.7036 46.8865 22.7292 46.2209 22.742 45.5596C22.7463 45.2695 22.87 45.1287 23.1559 45.0647C23.6849 44.9452 24.2098 44.7959 24.7346 44.6508C24.982 44.5825 25.2253 44.4972 25.605 44.382C24.7218 44.0535 23.9794 43.7633 23.2284 43.4988C22.9596 43.4049 22.8615 43.2641 22.87 42.974C22.8956 42.1505 22.8785 41.3271 22.8785 40.4993L22.8743 40.4908ZM22.4903 54.2167C22.486 54.174 22.4775 54.1356 22.4732 54.0929C21.9314 53.9863 21.3809 53.9009 20.8433 53.7644C19.5761 53.4401 19.8023 53.8113 19.6572 52.5484C19.6316 52.3223 19.6231 52.0961 19.5975 51.87C19.5506 51.4945 19.4951 51.119 19.4439 50.7436C18.9404 51.4348 18.5308 52.1345 18.1425 52.8471C18.0231 53.0647 17.9079 53.1457 17.6433 53.0817C16.8284 52.8897 16.0007 52.7361 15.0663 52.5399C15.6722 53.2183 16.1799 53.8326 16.7431 54.3959C17.0247 54.6775 16.982 54.8865 16.8071 55.1767C16.406 55.8423 16.022 56.5207 15.6337 57.1905C16.2993 56.9943 16.8967 56.7254 17.5025 56.4609C18.3175 56.1025 18.3132 56.1068 18.8978 56.7724C19.3202 57.2545 19.7554 57.7281 20.182 58.206C20.182 57.3655 20.0967 56.5719 19.99 55.7783C19.9516 55.4881 19.9985 55.3132 20.31 55.1894C21.0481 54.8908 21.765 54.5409 22.4903 54.2167ZM95.6081 25.7964C95.894 25.0711 96.7004 25.0583 97.2038 24.4865C96.9436 24.1879 96.7388 23.7655 96.406 23.5991C95.3735 23.0828 94.2173 22.8097 93.3469 21.9735C93.1591 21.79 93.0482 21.8796 92.9842 22.1271C92.9244 22.3575 92.8306 22.5921 92.6941 22.7799C91.6231 24.2049 90.2662 25.2545 88.5596 25.8092C87.9409 26.0097 87.3052 26.1548 86.678 26.3212C86.8615 26.4407 87.0578 26.4961 87.2541 26.5047C88.5127 26.5687 89.6348 26.1591 90.6589 25.4679C90.9618 25.2631 91.2007 25.1436 91.525 25.4295C91.7127 25.5916 91.9772 25.6641 92.2033 25.7879C93.0951 26.2913 93.9953 26.7863 94.8743 27.3111C95.4247 27.6396 95.4503 27.7164 95.0748 28.2156C94.614 28.83 94.1489 29.4529 93.5985 29.982C92.822 30.7329 92.5404 30.5068 92.0967 29.8967C92.0753 29.8668 92.0284 29.8497 91.9346 29.79C91.909 30.1825 91.8876 30.5367 91.8662 30.8865C91.8364 31.4113 92.0113 31.5649 92.5404 31.5137C93.1847 31.4497 93.6583 31.0999 94.0765 30.6348C94.6823 29.9649 95.2668 29.2695 95.9196 28.6465C96.3932 28.1943 96.3377 27.422 95.7319 27.1233C95.0705 26.7948 94.405 26.4705 93.7522 26.1292C93.0098 25.7409 92.2759 25.3356 91.4866 24.9047C91.7383 24.6871 91.9559 24.5249 92.1351 24.3287C92.3527 24.0897 92.5234 24.1153 92.7965 24.2689C93.7138 24.7895 94.6481 25.2673 95.6081 25.7751V25.7964ZM78.2172 19.8487C78.2342 19.9255 78.2386 19.9809 78.2556 20.0364C78.4604 20.6295 79.015 20.6039 79.4844 20.7148C80.022 20.8428 80.5596 20.958 81.0929 21.0817C80.9436 21.7857 80.9137 21.8113 80.3505 21.6535C79.9708 21.5468 79.5996 21.406 79.2924 21.2993C79.2071 21.662 79.1559 21.9991 79.0407 22.3148C78.8999 22.7116 78.6737 23.0785 78.5457 23.4796C78.4476 23.774 78.4477 24.1025 78.3965 24.4439C78.6311 24.4311 78.7591 24.3927 78.8657 24.4225C80.0519 24.7724 81.238 25.1265 82.4199 25.4977C82.518 25.5276 82.5948 25.6727 82.6589 25.7751C82.7314 25.8903 82.774 26.0268 82.8295 26.1505C82.9703 26.0823 83.1495 26.0439 83.2476 25.9372C83.3756 25.8007 83.4567 25.6129 83.5335 25.4337C83.8066 24.798 84.0156 24.1239 84.357 23.5265C84.5404 23.2065 84.5277 23.006 84.2802 22.8439C83.9901 22.6519 83.6572 22.5153 83.3329 22.3873C83.1196 22.302 82.8807 22.2807 82.6418 22.2252C82.7783 21.7729 82.9447 21.5767 83.4055 21.7687C84.1692 22.0887 84.9586 22.3489 85.7436 22.6263C85.893 22.6775 86.0594 22.6903 86.3026 22.7415C86.1319 22.2039 85.846 21.9564 85.4194 21.8497C85.0524 21.7559 84.6855 21.6748 84.3228 21.5681C82.3644 21.0007 80.4103 20.4247 78.4561 19.8529C78.3879 19.8316 78.311 19.8529 78.2129 19.8529L78.2172 19.8487ZM48.4018 20.1132C48.2823 19.7377 48.1841 19.4391 48.0647 19.0764C49.0033 18.6327 50.0231 18.1505 51.0471 17.6727C51.0215 17.6087 50.9959 17.5404 50.9703 17.4764C49.8823 16.9985 49.238 18.1207 48.3377 18.3127C47.9622 17.4081 47.2625 17.0497 46.6695 17.5148C47.0193 17.8988 47.3692 18.2785 47.7404 18.6839C46.8956 19.1447 46.0807 19.5884 45.1975 20.0705C46.1276 20.5143 46.6396 19.6993 47.3948 19.5457C47.6935 21.4999 46.9937 23.2108 46.3324 24.9516C46.5329 24.8193 46.6994 24.6657 46.8359 24.4865C47.6338 23.4284 47.9537 22.1911 48.1585 20.9111C48.1799 20.7788 48.3165 20.5911 48.4359 20.5569C48.7218 20.4716 49.0332 20.4844 49.3276 20.4204C49.6561 20.3479 49.861 20.4929 49.8866 20.7831C49.9548 21.5169 49.989 22.2551 50.0146 22.9889C50.0231 23.2833 49.8311 23.3985 49.5409 23.3985C49.2551 23.3985 48.9692 23.4369 48.5553 23.4668C48.9948 23.7697 49.3233 23.9788 49.6348 24.2092C50.07 24.5335 50.3389 24.5249 50.5565 24.0215C50.7399 23.5905 50.8338 23.0999 50.8508 22.6305C50.8722 21.8924 50.7527 21.1543 50.7741 20.4161C50.7869 20.0705 50.7015 19.8828 50.3943 19.8188C50.1553 19.7719 49.8951 19.7463 49.6561 19.7889C49.2295 19.87 48.8156 20.0065 48.4103 20.1175L48.4018 20.1132ZM60.6513 114.756C60.7281 114.765 60.805 114.773 60.8818 114.782C61.3554 112.717 61.6754 110.613 62.1532 108.548C62.1874 108.689 62.1917 108.826 62.1874 108.958C62.1021 110.784 62.0082 112.615 61.9356 114.441C61.9314 114.569 62.0508 114.697 62.1105 114.829C62.183 114.705 62.3068 114.586 62.3153 114.462C62.4262 112.499 62.5287 110.537 62.6226 108.57C62.6525 107.994 62.6737 107.422 62.6695 106.846C62.6695 106.744 62.5159 106.552 62.4476 106.556C62.3239 106.569 62.2045 106.688 62.0935 106.778C62.0551 106.812 62.0551 106.889 62.0423 106.948C61.7607 108.403 61.4834 109.858 61.2018 111.309C61.1164 111.761 61.0269 112.209 60.9159 112.789C60.8519 112.61 60.8262 112.563 60.822 112.512C60.6428 110.648 60.4678 108.779 60.2929 106.914C60.2417 106.381 60.2205 106.355 59.6359 106.449C59.6317 106.517 59.6231 106.594 59.6189 106.667C59.5122 108.992 59.4098 111.322 59.2988 113.647C59.286 113.903 59.2476 114.159 59.2561 114.415C59.2561 114.509 59.3586 114.594 59.4141 114.688C59.4951 114.603 59.5889 114.526 59.6486 114.428C59.6828 114.372 59.67 114.279 59.6743 114.206C59.7084 113.237 59.734 112.273 59.7809 111.305C59.8279 110.357 59.8919 109.41 59.9517 108.463C59.973 108.463 59.9943 108.463 60.0156 108.463C60.2247 110.562 60.438 112.657 60.6471 114.756H60.6513ZM21.893 71.2065C21.7735 71.2193 21.654 71.2193 21.5431 71.2492C20.31 71.5521 19.0812 71.8593 17.8482 72.1665C16.7346 72.4439 15.6167 72.7127 14.5073 73.0028C14.4177 73.0241 14.3623 73.1692 14.2897 73.2588C14.3879 73.2972 14.4818 73.3484 14.5842 73.374C14.6396 73.3868 14.7036 73.3612 14.7633 73.3441C15.8172 73.0839 16.8753 72.815 17.9292 72.5548C18.6844 72.367 19.4439 72.1878 20.2033 72.0044C20.2076 72.0257 20.2161 72.0513 20.2204 72.0727C18.3217 72.8791 16.4231 73.6812 14.5244 74.4876C14.5458 74.5686 14.5628 74.6497 14.5842 74.7308C16.6279 74.5686 18.6716 74.4108 20.7196 74.2486C20.5276 74.3724 20.3271 74.4236 20.1223 74.4748C18.4967 74.8716 16.8668 75.2684 15.237 75.6609C14.9639 75.7249 14.7719 75.8102 14.9895 76.1686C17.5196 75.55 20.0497 74.9271 22.6183 74.2999C22.5585 74.0737 22.5159 73.9201 22.4647 73.7196C20.4465 73.8774 18.4455 74.0396 16.4487 74.1974C16.4999 74.095 16.5639 74.0481 16.6321 74.0182C18.2919 73.3313 19.9431 72.6231 21.6156 71.9702C22.0679 71.791 22.0594 71.5735 21.893 71.198V71.2065ZM61.5175 16.2433C61.8716 15.646 62.1831 15.0956 62.5159 14.5623C62.7378 14.2039 62.7037 13.9863 62.2898 13.8967C61.9997 13.8327 61.6583 13.8369 61.3809 13.9351C60.7409 14.1527 60.2118 14.7201 59.4396 14.5068C59.4097 14.4983 59.2562 14.7159 59.269 14.8097C59.3415 15.2535 59.4865 15.6887 59.542 16.1324C59.8065 18.1377 60.0455 20.1473 60.3057 22.1569C60.3313 22.3617 60.4295 22.5537 60.4935 22.7543C60.5533 22.7457 60.6087 22.7415 60.6684 22.7329C60.7026 22.4769 60.7879 22.2167 60.7666 21.9649C60.5831 19.934 60.391 17.9073 60.182 15.8807C60.0838 14.9121 60.5148 14.4599 61.5644 14.558C61.4876 14.9847 61.462 15.4284 61.3212 15.8295C61.1676 16.2732 61.2871 16.5249 61.6071 16.8407C61.9185 17.1436 62.1489 17.5532 62.3367 17.9543C62.5287 18.3639 62.4135 18.4791 61.9399 18.4833C61.6754 18.4833 61.4108 18.4833 61.0524 18.4833C61.5943 18.8247 62.0764 19.0977 62.5244 19.4135C62.8529 19.6439 63.0237 19.5159 63.1517 19.2172C63.3522 18.7436 63.2839 18.2657 63.1175 17.8049C62.8487 17.0668 62.2642 16.6231 61.5175 16.2519V16.2433ZM95.0493 92.8897C96.9565 94.6945 98.821 96.4524 100.686 98.2188C100.933 98.4535 101.035 98.3084 101.155 98.0737C99.6572 96.6572 98.1724 95.2577 96.6876 93.854C96.8625 93.8625 96.9905 93.9308 97.1185 93.9991C98.7057 94.9036 100.293 95.8038 101.872 96.7169C102.192 96.9046 102.367 96.8535 102.473 96.478C100.54 94.6561 98.5991 92.83 96.6705 91.0124C96.3591 91.2001 96.3975 91.3494 96.6023 91.5372C97.0588 91.951 97.5068 92.382 97.9591 92.8086C98.9105 93.7047 99.8621 94.6006 100.814 95.4967C100.796 95.518 100.784 95.5436 100.767 95.5649C98.9703 94.5367 97.1783 93.5084 95.365 92.4716C95.2498 92.6209 95.1645 92.7404 95.0493 92.8855V92.8897ZM89.622 107.623C89.9249 107.55 90.0103 107.443 89.8524 107.175C89.3447 106.317 88.8497 105.451 88.3505 104.589C87.8556 103.731 87.3692 102.874 86.8785 102.016L86.9469 101.969C88.4018 103.518 89.8525 105.067 91.3202 106.628C91.4695 106.517 91.5804 106.432 91.7084 106.338C90.3943 104.06 89.1015 101.807 87.7959 99.5628C87.7362 99.4647 87.5612 99.4348 87.4375 99.3708C87.446 99.5116 87.4077 99.678 87.4674 99.7889C88.1117 100.932 88.7729 102.067 89.4257 103.207C89.7287 103.731 90.0274 104.256 90.3303 104.781C90.3047 104.802 90.2749 104.819 90.2493 104.841C88.8327 103.322 87.4119 101.803 85.9869 100.275C85.829 100.391 85.7094 100.476 85.5729 100.574C86.9297 102.933 88.2694 105.272 89.6177 107.618L89.622 107.623ZM110.977 76.318C110.977 76.3393 110.972 76.3649 110.968 76.3863C110.738 76.3863 110.503 76.3948 110.273 76.3863C108.613 76.3052 106.949 76.2284 105.289 76.1345C104.892 76.1132 104.722 76.2412 104.807 76.6678C105.515 76.8769 106.228 77.086 106.936 77.2993C108.613 77.8028 110.29 78.3148 111.971 78.8055C112.09 78.8396 112.244 78.7457 112.385 78.7116C112.287 78.6135 112.21 78.4598 112.095 78.4214C110.943 78.0588 109.786 77.7175 108.63 77.3676C107.964 77.167 107.299 76.9622 106.637 76.7617C106.987 76.7062 107.316 76.6935 107.644 76.7105C109.261 76.7831 110.879 76.8684 112.491 76.9367C112.619 76.9409 112.773 76.8812 112.875 76.8001C112.931 76.7575 112.952 76.5484 112.914 76.5185C112.786 76.4247 112.628 76.3649 112.47 76.318C110.921 75.8486 109.377 75.3878 107.828 74.927C107.022 74.6881 106.215 74.4534 105.409 74.2145C105.37 74.2615 105.332 74.3084 105.289 74.3553C105.383 74.4662 105.456 74.6412 105.575 74.6839C106.335 74.9356 107.103 75.1617 107.871 75.3921C108.907 75.7036 109.944 76.0108 110.981 76.318H110.977ZM65.2337 108.57C65.2337 108.57 65.2764 108.638 65.2977 108.715C65.5068 109.453 65.7159 110.195 65.925 110.938C66.2535 112.103 66.5735 113.267 66.9191 114.424C66.9575 114.552 67.1452 114.633 67.2647 114.739C67.3287 114.607 67.4524 114.471 67.4481 114.343C67.3201 111.838 67.1836 109.329 67.0343 106.825C67.0257 106.697 66.9106 106.573 66.8466 106.445C66.7826 106.581 66.6589 106.722 66.6674 106.859C66.7271 108.309 66.8082 109.76 66.885 111.207C66.9106 111.693 66.949 112.184 66.9831 112.67C66.8722 112.623 66.8465 112.563 66.8252 112.499C66.2919 110.626 65.75 108.753 65.2295 106.88C65.1356 106.547 64.9905 106.462 64.6577 106.628C64.6577 106.761 64.6534 106.893 64.6577 107.029C64.7388 108.629 64.8199 110.229 64.9009 111.829C64.9479 112.721 64.9949 113.613 65.0588 114.5C65.0674 114.62 65.1783 114.731 65.2423 114.85C65.3148 114.722 65.3874 114.599 65.4513 114.471C65.4641 114.449 65.4513 114.411 65.4513 114.381C65.3831 113.156 65.2978 111.936 65.2466 110.712C65.2167 109.978 65.2423 109.244 65.2423 108.574L65.2337 108.57ZM98.6076 100.446C99.2391 100.442 99.5804 100.071 99.4823 99.567C99.4098 99.1873 99.2775 98.8033 99.0941 98.4663C98.4327 97.246 97.5452 96.1921 96.47 95.326C95.8215 94.8055 95.0833 94.3745 94.3409 93.9991C93.8161 93.7345 93.3425 94.1143 93.351 94.7159C93.351 94.9505 93.3937 95.2022 93.4919 95.4156C94.4561 97.4892 95.975 99.0636 97.9377 100.211C98.1766 100.352 98.4711 100.403 98.6076 100.446ZM38.7036 107.768C38.9767 107.938 39.1772 108.135 39.4119 108.194C39.6679 108.263 40.0434 108.318 40.2098 108.186C41.2679 107.332 41.9804 106.27 41.9719 104.836C41.9719 104.721 42.006 104.551 42.0828 104.499C42.8081 104.034 43.2093 103.326 43.5165 102.567C43.6402 102.255 43.7212 101.892 43.6871 101.564C43.6273 100.975 43.0641 100.864 42.6161 100.587C41.3063 102.989 40.0178 105.357 38.7036 107.763V107.768ZM84.2503 109.619C83.99 107.388 83.2604 105.336 81.8737 103.548C81.6775 103.296 81.3873 103.1 81.11 102.929C80.7559 102.712 80.4274 102.844 80.2866 103.198C80.1586 103.522 80.0903 103.893 80.0903 104.248C80.0903 105.323 80.4572 106.325 80.837 107.311C81.2679 108.425 81.7756 109.513 82.629 110.383C82.9234 110.682 83.2605 111.006 83.7383 110.797C84.1949 110.592 84.2076 110.14 84.246 109.717C84.246 109.688 84.246 109.658 84.246 109.628L84.2503 109.619ZM107.555 89.2887C108.327 88.2262 108.327 87.7228 107.542 86.7799C106.399 85.3975 104.918 84.4673 103.284 83.8017C102.175 83.3494 101.692 83.5756 101.065 84.5825C100.886 84.8684 100.959 84.9878 101.21 85.15C102.051 85.6833 102.874 86.2422 103.706 86.7884C104.982 87.6204 106.258 88.4481 107.551 89.2929L107.555 89.2887ZM16.1671 79.9319C16.5383 81.2076 16.8455 81.4764 18.0743 81.3825C19.9473 81.2417 21.6113 80.4951 23.0833 79.3601C24.0305 78.6348 24.0903 77.9265 23.4119 76.8385C21.0097 77.8625 18.5991 78.8951 16.1671 79.9319ZM34.8893 101.039C34.9618 101.048 35.0385 101.06 35.111 101.069C35.1196 101.278 35.2007 101.513 35.1324 101.692C34.8081 102.52 34.454 103.339 34.0785 104.141C33.9292 104.457 33.9591 104.64 34.3602 104.798C34.8082 103.71 35.2476 102.626 35.6956 101.543C35.7511 101.415 35.8066 101.223 35.909 101.184C37.0439 100.787 37.6455 99.87 38.149 98.8801C38.6012 98.0012 38.486 97.6769 37.6881 97.0838C37.4833 96.9303 37.3767 96.9303 37.2188 97.1436C35.7468 99.1489 34.2663 101.15 32.7815 103.151C32.5937 103.403 32.6237 103.552 32.9565 103.642C33.6007 102.776 34.245 101.909 34.8893 101.039ZM77.6028 112.871C77.1164 111.975 76.6599 111.057 76.1351 110.183C75.8876 109.773 75.7382 109.449 75.8577 108.92C76.054 108.062 75.7511 107.213 75.4226 106.411C74.9405 105.229 74.6204 105.105 73.4471 105.557C73.4215 105.566 73.4087 105.6 73.3789 105.634C73.3831 105.685 73.3789 105.745 73.3959 105.801C74.0701 108.263 74.7441 110.724 75.431 113.178C75.4652 113.306 75.6444 113.391 75.7553 113.498C75.7766 113.344 75.8535 113.173 75.8151 113.037C75.5932 112.175 75.3414 111.317 75.1153 110.456C75.0897 110.353 75.1666 110.225 75.1965 110.106C75.3202 110.136 75.478 110.131 75.5591 110.208C75.6999 110.34 75.8108 110.511 75.9004 110.682C76.2631 111.36 76.6343 112.034 76.9671 112.73C77.1207 113.045 77.2785 113.097 77.5985 112.871H77.6028ZM47.2199 103.032C47.1687 103.125 47.1175 103.198 47.0876 103.283C46.1873 105.656 45.287 108.024 44.3996 110.4C44.3612 110.503 44.438 110.648 44.4594 110.771C44.566 110.699 44.7282 110.652 44.7708 110.554C44.997 110.025 45.1889 109.487 45.3937 108.949C45.5559 108.536 45.7222 108.126 45.8929 107.708C46.3025 107.938 46.3495 108.041 46.277 108.557C46.1575 109.38 46.0422 110.204 45.8972 111.023C45.8374 111.347 45.9484 111.471 46.3452 111.497C46.486 110.315 46.6183 109.137 46.7676 107.96C46.7847 107.823 46.8146 107.631 46.9042 107.567C47.749 106.983 48.069 106.082 48.3293 105.165C48.7175 103.808 48.5895 103.578 47.3137 103.032C47.3009 103.027 47.2839 103.032 47.2284 103.032H47.2199ZM59.269 17.6215C58.757 16.9687 58.2023 17.3697 57.6988 17.4167C57.7031 16.7852 58.3943 16.286 57.9591 15.6247C58.1767 15.4924 58.3986 15.3559 58.6375 15.2151C58.1127 14.6135 57.5921 15.1084 57.1057 15.1511C56.9777 14.3063 56.4572 13.9351 55.766 14.2167C56.005 14.6092 56.2439 14.9975 56.4956 15.4113C55.8386 15.6033 55.2285 15.7868 54.6141 15.966L54.5927 16.1068C55.5655 16.3329 55.5654 17.2503 56.022 17.9073C55.2156 18.1292 54.4775 18.3297 53.7009 18.5431C54.0849 18.9868 54.5201 19.0593 55.0748 18.8716C55.8001 18.6241 56.5298 18.3809 57.2679 18.1633C57.8994 17.9756 58.5394 17.822 59.2732 17.6257L59.269 17.6215ZM42.1042 19.2855C42.309 19.5671 42.5437 19.8017 42.6631 20.0833C43.3757 21.7175 44.0497 23.3687 44.3228 25.1479C44.3996 25.6343 44.6855 25.9585 45.2785 26.2359C45.2401 25.8561 45.2615 25.566 45.1804 25.31C44.8817 24.3585 44.5618 23.4199 44.229 22.4812C43.862 21.4487 43.478 20.4204 43.0855 19.3537C43.3884 19.1959 43.67 19.0508 44.0242 18.8631C44.0114 19.1404 44.0156 19.3239 43.99 19.4988C43.926 19.9639 44.0028 20.3521 44.4423 20.6337C44.6642 20.7745 44.8391 21.0092 44.9884 21.2311C45.2316 21.598 45.1676 21.7303 44.7409 21.8497C44.6172 21.8839 44.5021 21.9393 44.3826 21.982C44.6471 22.1399 44.9201 22.1953 45.1847 22.2764C45.4364 22.3575 45.6882 22.4599 45.8674 22.1697C46.0466 21.8839 46.0636 21.5809 45.8204 21.3335C45.5388 21.0433 45.2274 20.7745 44.9117 20.5228C44.3869 20.1047 44.3314 19.9596 44.5618 19.3324C44.6172 19.1745 44.6855 19.0252 44.7537 18.8716C45.0396 18.2359 44.8817 17.9969 44.1905 18.0908C43.9857 18.1164 43.781 18.2615 43.6146 18.398C43.2391 18.7137 42.9446 19.1489 42.3644 19.1191C42.2833 19.1191 42.198 19.2215 42.1042 19.2855ZM30.2215 89.3527C27.9345 90.8119 25.686 92.2455 23.4119 93.6918C23.5313 93.8326 23.6167 93.9308 23.7233 94.0502C24.086 93.8156 24.4401 93.5852 24.7943 93.3633C25.6092 92.8428 25.3362 92.7916 26.0274 93.6108C26.1938 93.8113 26.1852 93.9649 26.0018 94.1526C25.6647 94.4983 25.3703 94.8822 25.0332 95.2278C24.79 95.4753 24.854 95.6332 25.157 95.8038C26.949 93.7772 28.7366 91.759 30.5286 89.7366C30.4177 89.5916 30.3367 89.4892 30.23 89.3484L30.2215 89.3527ZM104.406 94.0502C104.692 93.8113 104.713 93.6705 104.402 93.4785C103.066 92.6551 101.744 91.806 100.421 90.9655C99.5847 90.4364 98.7485 89.9031 97.9207 89.3825C97.6349 89.6001 97.6049 89.7665 97.8438 90.0311C98.9404 91.2343 100.016 92.4631 101.099 93.6748C101.739 94.3916 102.384 95.1041 103.054 95.8465C103.169 95.7057 103.254 95.6076 103.356 95.4838C103.096 95.2022 102.857 94.9335 102.614 94.6732C102.108 94.1356 102.101 93.588 102.593 93.0305C102.61 93.0092 102.644 92.9964 102.699 92.9622C103.254 93.3164 103.826 93.6748 104.41 94.046L104.406 94.0502ZM20.7836 89.6129C22.8274 87.8721 24.8582 86.1441 26.9062 84.3991C26.8124 84.2497 26.7356 84.126 26.6375 83.9809C24.2012 85.0817 21.7906 86.1655 19.4012 87.2449C19.4652 87.6588 19.6572 87.6716 19.926 87.535C20.1948 87.4028 20.4764 87.2876 20.7495 87.1638C21.4876 86.8268 21.4791 86.8311 21.8972 87.5222C22.0466 87.7697 22.0593 87.9361 21.8076 88.1281C21.4321 88.4054 21.0994 88.7383 20.7324 89.0241C20.4764 89.2246 20.4551 89.3953 20.7879 89.6172L20.7836 89.6129ZM30.6481 101.799C32.2097 99.4476 33.7116 97.1905 35.2305 94.9121C35.1153 94.8055 35.0087 94.7073 34.8722 94.5793C32.8199 96.3457 30.7847 98.0908 28.7537 99.8401C28.9585 100.076 29.1534 100.115 29.3383 99.9553C29.7693 99.5841 30.2001 99.2086 30.6481 98.8204C30.8743 99.0337 31.062 99.2257 31.271 99.4007C31.4886 99.5841 31.493 99.742 31.3223 99.9724C31.0023 100.408 30.7164 100.873 30.4177 101.329C30.3964 101.363 30.3879 101.41 30.358 101.487C30.4305 101.568 30.5116 101.653 30.6481 101.807V101.799ZM94.5159 104.29C94.4903 104.239 94.4732 104.179 94.4391 104.137C92.7409 102.217 91.0428 100.292 89.3319 98.3852C89.2593 98.3041 89.0631 98.3425 88.9223 98.3255C88.918 98.4663 88.8583 98.6327 88.9137 98.7436C89.75 100.484 90.6033 102.217 91.4524 103.949C91.7681 104.593 92.0839 105.233 92.4167 105.907C92.5703 105.784 92.6727 105.703 92.7836 105.617C92.613 105.276 92.4465 104.956 92.2886 104.632C91.9729 103.992 92.1137 103.465 92.711 103.053C92.7324 103.036 92.7665 103.044 92.8348 103.032C93.2103 103.454 93.6029 103.889 93.9826 104.333C94.1874 104.572 94.3453 104.563 94.5159 104.29ZM51.751 113.208C51.7724 113.092 51.798 113.007 51.8108 112.922C52.1052 110.387 52.3996 107.857 52.677 105.319C52.694 105.182 52.6172 104.96 52.5105 104.905C52.2289 104.751 52.2034 105.041 52.1351 105.208C51.4695 106.859 50.8081 108.51 50.151 110.161C49.8353 110.951 49.5324 111.744 49.2209 112.533C49.5495 112.713 49.6903 112.623 49.7884 112.32C49.9378 111.864 50.1383 111.424 50.3047 110.968C50.39 110.733 50.5138 110.656 50.7484 110.754C50.885 110.81 51.0343 110.857 51.1836 110.878C51.5079 110.925 51.606 111.087 51.5505 111.407C51.4694 111.885 51.4311 112.367 51.3671 112.845C51.3329 113.109 51.4141 113.255 51.7469 113.212L51.751 113.208ZM46.4093 102.754C46.3751 102.81 46.3366 102.852 46.311 102.908C45.7009 104.171 45.1165 105.447 44.4765 106.697C44.1223 107.392 43.6999 108.058 43.2647 108.706C43.1751 108.839 42.8465 108.92 42.6844 108.864C42.5606 108.821 42.4413 108.514 42.4669 108.344C42.5351 107.9 42.6247 107.443 42.8081 107.038C43.4951 105.528 44.2332 104.034 44.9329 102.528C45.014 102.357 45.0524 101.986 44.9927 101.961C44.613 101.781 44.6428 102.195 44.5618 102.362C43.8194 103.864 43.0769 105.37 42.3985 106.901C42.1084 107.554 41.9548 108.275 41.797 108.979C41.7202 109.325 41.8225 109.692 42.1852 109.871C42.5521 110.05 42.8551 109.854 43.1367 109.632C43.2177 109.568 43.2988 109.491 43.3543 109.402C43.7297 108.839 44.1522 108.297 44.4594 107.695C45.206 106.227 45.8973 104.734 46.6141 103.253C46.7293 103.015 46.8274 102.793 46.4135 102.75L46.4093 102.754ZM54.3196 105.374C54.2726 105.519 54.2173 105.647 54.1917 105.775C53.8631 107.324 53.4962 108.868 53.2231 110.43C53.0738 111.283 53.0567 112.167 53.0226 113.033C53.0098 113.4 53.2017 113.724 53.5815 113.831C53.9783 113.941 54.2599 113.681 54.4391 113.378C54.6652 112.99 54.9042 112.585 55.0066 112.154C55.4972 110.148 55.9452 108.13 56.3932 106.112C56.4103 106.027 56.3207 105.92 56.2823 105.826C56.1842 105.907 56.0178 105.971 55.9965 106.069C55.8386 106.714 55.7191 107.367 55.5741 108.015C55.2882 109.265 55.0023 110.515 54.6951 111.757C54.6354 112 54.5159 112.243 54.358 112.44C54.2428 112.585 54.0039 112.755 53.8631 112.721C53.7138 112.687 53.5559 112.448 53.509 112.269C53.4407 112.013 53.4278 111.727 53.4705 111.463C53.5729 110.776 53.7052 110.093 53.846 109.415C54.102 108.203 54.375 107 54.6396 105.792C54.6908 105.566 54.7036 105.357 54.3238 105.37L54.3196 105.374ZM22.7463 74.7137C20.2204 75.6353 17.7628 76.5313 15.2839 77.4359C15.4759 77.9991 15.6423 78.4897 15.8172 78.9975C16.1671 78.8652 16.4572 78.7542 16.7601 78.6433C16.6407 78.238 16.5383 77.8838 16.4231 77.487C17.1953 77.2054 17.925 76.9409 18.693 76.6593C18.8252 76.9964 18.9447 77.2993 19.0599 77.5937C19.9772 77.4273 19.9729 77.4316 19.7937 76.5825C19.7724 76.4759 19.8108 76.2753 19.8748 76.2497C20.5404 75.9809 21.2146 75.742 21.8972 75.486C22.038 75.8615 22.1575 76.1814 22.2897 76.5484C22.614 76.4375 22.9042 76.3393 23.2412 76.2241C23.0791 75.7249 22.9255 75.2556 22.7506 74.7137H22.7463ZM108.502 85.3591C108.417 85.3463 108.365 85.3462 108.331 85.3292C107.952 85.1414 107.572 84.9537 107.201 84.7532C106.626 84.4488 106.444 83.998 106.655 83.4007C106.663 83.375 106.646 83.3452 106.633 83.2769C106.377 83.1447 106.104 83.0039 105.81 82.8503C105.648 83.1788 105.507 83.4732 105.349 83.8017C104.705 83.4732 104.086 83.166 103.48 82.8289C103.395 82.782 103.344 82.5558 103.378 82.4407C103.45 82.1846 103.583 81.95 103.702 81.6812C103.382 81.5233 103.096 81.3825 102.776 81.2247C102.546 81.7452 102.349 82.1889 102.145 82.6582C104.543 83.8828 106.876 85.0732 109.236 86.2806C109.36 86.0118 109.462 85.7985 109.56 85.5767C109.811 85.022 109.66 84.6195 109.108 84.3692C109.087 84.3606 109.052 84.3692 108.988 84.3735C108.839 84.6807 108.681 85.0049 108.511 85.3548L108.502 85.3591ZM50.582 105.412C50.8636 104.744 50.6858 104.309 50.0486 104.107C49.9761 104.085 49.8993 104.077 49.831 104.047C49.5452 103.911 49.4428 104.034 49.3618 104.312C48.9735 105.63 48.5553 106.94 48.1585 108.254C47.8001 109.436 47.446 110.618 47.0791 111.838C47.5911 112.009 48.069 112.167 48.5426 112.324C48.8214 111.696 48.6763 111.271 48.1074 111.049C48.0093 111.01 47.9197 110.963 47.7917 110.908C48.0391 110.106 48.2823 109.321 48.5341 108.497C48.8711 108.6 49.1655 108.689 49.5069 108.792C49.6093 108.442 49.6988 108.122 49.797 107.789C49.5282 107.691 49.3063 107.635 49.11 107.529C49.0161 107.473 48.8967 107.303 48.9223 107.217C49.0887 106.59 49.2765 105.967 49.4941 105.357C49.5239 105.267 49.7457 105.182 49.8609 105.199C50.1084 105.233 50.343 105.34 50.582 105.412ZM111.361 81.3612C111.472 81.0753 111.578 80.8279 111.668 80.5761C111.867 80.0158 111.675 79.6574 111.092 79.5009C111.053 79.4924 111.007 79.5137 110.955 79.5265C110.823 79.8593 110.687 80.1921 110.541 80.5633C109.901 80.3116 109.308 80.0556 108.698 79.8422C108.353 79.7228 108.276 79.5649 108.408 79.215C108.621 78.6518 108.596 78.6433 108.028 78.4214C107.922 78.3788 107.811 78.3447 107.674 78.2977C107.542 78.6305 107.423 78.9335 107.29 79.2663C106.544 78.9633 105.84 78.6732 105.106 78.3745C105.187 78.1569 105.255 77.9905 105.311 77.8241C105.366 77.6577 105.404 77.4828 105.447 77.3206C104.329 76.7831 104.551 76.8897 104.231 77.7644C104.223 77.7943 104.21 77.8198 104.197 77.8497C103.984 78.4257 103.984 78.4257 104.56 78.6519C105.848 79.1638 107.137 79.6801 108.429 80.1964C109.394 80.5804 110.358 80.9687 111.361 81.3655V81.3612ZM113.972 72.5889C114.083 72.0086 114.177 71.5137 114.279 70.9633C113.916 70.8951 113.618 70.8353 113.294 70.7713C113.191 71.1894 113.106 71.5478 113.016 71.9233C112.406 71.791 111.847 71.6673 111.288 71.5564C110.674 71.4327 110.687 71.4369 110.751 70.8055C110.768 70.6433 110.721 70.383 110.614 70.3233C110.401 70.2081 110.132 70.1996 109.863 70.1441C109.774 70.5025 109.688 70.8268 109.603 71.1681C108.818 70.9889 108.088 70.8268 107.337 70.6561C107.405 70.2551 107.465 69.918 107.529 69.5297C107.188 69.4614 106.885 69.4017 106.544 69.3292C106.433 69.8625 106.335 70.3447 106.224 70.8652C108.805 71.4369 111.352 72.0001 113.968 72.5804L113.972 72.5889ZM35.6956 104.004C35.4951 104.307 35.35 104.559 35.1708 104.794C34.9404 105.101 35.0471 105.404 35.2476 105.617C35.4097 105.792 35.7127 105.95 35.9303 105.924C36.2034 105.895 36.502 105.724 36.711 105.528C37.7564 104.542 38.3708 103.356 38.2642 101.871C38.2172 101.21 38.358 100.595 38.8444 100.126C39.0321 99.9468 39.3436 99.7676 39.5655 99.7974C39.7319 99.8231 39.8514 100.186 39.9922 100.399C40.005 100.42 40.0391 100.433 40.0818 100.463C40.197 100.292 40.3037 100.113 40.4317 99.951C40.6578 99.6737 40.7431 99.4007 40.4657 99.1105C40.2012 98.8332 39.8983 98.6881 39.5399 98.9228C39.2412 99.119 38.9212 99.3111 38.6866 99.5756C37.8631 100.497 37.3809 101.555 37.4876 102.831C37.5431 103.488 37.3894 104.09 36.9372 104.593C36.711 104.845 36.4977 105.135 36.1095 104.994C35.7425 104.862 35.7511 104.516 35.7469 104.192C35.7469 104.154 35.7298 104.115 35.6956 103.992V104.004ZM69.9228 113.199C69.9569 113.425 69.974 113.728 70.0594 114.014C70.1063 114.168 70.2343 114.334 70.3708 114.419C70.8828 114.731 71.4418 114.441 71.557 113.767C71.813 112.286 71.6081 110.899 70.5244 109.76C70.0294 109.24 69.6241 108.681 69.6967 107.925C69.7223 107.648 69.8204 107.294 70.0167 107.149C70.1745 107.034 70.5244 107.179 70.7975 107.213C70.7932 107.26 70.806 107.213 70.7975 107.175C70.7676 106.948 70.7634 106.714 70.6908 106.505C70.6268 106.33 70.4988 106.074 70.3623 106.048C70.1404 106.01 69.8546 106.078 69.6583 106.202C69.5047 106.3 69.3895 106.539 69.3469 106.731C69.0098 108.327 69.3127 109.76 70.5074 110.938C70.9298 111.352 71.1516 111.842 71.1857 112.423C71.2071 112.802 71.2881 113.272 70.8615 113.412C70.6054 113.498 70.2471 113.284 69.91 113.203L69.9228 113.199ZM111.898 75.0039C112.206 75.0892 112.44 75.1404 112.666 75.2172C113.106 75.3708 113.357 75.1532 113.528 74.7905C113.729 74.3639 113.575 73.8774 113.042 73.5703C111.834 72.8663 110.571 72.5249 109.21 73.1521C108.63 73.4166 108.041 73.5233 107.414 73.2631C106.663 72.9473 106.565 72.5249 107.145 71.9617C107.162 71.9447 107.154 71.9063 107.162 71.8593C106.949 71.7953 106.727 71.7526 106.522 71.6673C106.164 71.518 105.916 71.6886 105.865 71.9873C105.814 72.2689 105.835 72.6487 105.993 72.8577C106.219 73.1521 106.573 73.3868 106.919 73.5489C108.088 74.0993 109.274 74.1121 110.456 73.5404C111.122 73.2161 111.757 73.3953 112.346 73.7623C112.717 73.9926 112.73 74.4236 112.389 74.7052C112.265 74.8076 112.112 74.8758 111.898 75.0081V75.0039ZM20.2119 86.0375C19.3543 85.4273 19.3031 85.0348 19.9772 84.3735C21.0524 83.3239 22.341 82.6497 23.8044 82.3255C24.726 82.1207 25.0845 82.4748 24.9522 83.4177C25.1527 83.3153 25.3361 83.2172 25.5281 83.1319C25.8439 82.9911 26.0572 82.8033 25.9804 82.4108C25.9036 82.0311 25.6988 81.7708 25.3105 81.7153C25.0289 81.6769 24.7345 81.6556 24.4572 81.694C22.7121 81.9286 21.2188 82.7393 19.8535 83.7889C19.3756 84.1558 18.966 84.6551 18.6418 85.167C18.3218 85.6662 18.6418 86.3489 19.1879 86.3916C19.5036 86.4172 19.8364 86.1783 20.2161 86.0375H20.2119ZM33.0076 92.7148C31.0961 94.6689 29.2358 96.5719 27.3372 98.5132C27.4609 98.6412 27.542 98.7223 27.67 98.8588C28.5148 98.0311 29.317 97.246 30.1746 96.4097C30.341 96.6188 30.5245 96.8534 30.7165 97.0966C31.0066 96.8321 31.2454 96.6145 31.4972 96.3884C31.2838 96.1537 31.1089 95.983 30.9681 95.7911C30.9127 95.7143 30.8829 95.535 30.9298 95.4881C31.4631 94.9206 32.0134 94.3745 32.6705 93.7047C32.9094 94.0417 33.1058 94.3191 33.2423 94.511C33.5666 94.2764 33.8226 94.0929 34.0956 93.8967C33.6988 93.4657 33.3745 93.1116 33.0076 92.7191V92.7148ZM103.088 80.7212C103.715 80.9857 104.295 81.2332 104.88 81.4764C106.586 82.1974 108.297 82.9228 110.004 83.6439C110.409 83.8145 110.414 83.8102 110.507 83.4049C110.375 83.3409 110.243 83.2727 110.106 83.2129C109.372 82.9015 108.643 82.5729 107.896 82.2913C107.525 82.1505 107.435 81.9713 107.623 81.6214C107.704 81.4678 107.738 81.2929 107.802 81.0966C107.474 80.9601 107.188 80.8406 106.889 80.7169C106.8 80.9345 106.714 81.0839 106.676 81.2417C106.591 81.6172 106.416 81.694 106.066 81.5148C105.677 81.3185 105.259 81.182 104.863 80.9942C104.129 80.6487 104.133 80.879 104.44 80.0556C104.491 79.919 104.534 79.7825 104.585 79.6375C104.325 79.5265 104.107 79.4156 103.877 79.3516C103.792 79.326 103.612 79.3772 103.587 79.4412C103.408 79.8508 103.258 80.2732 103.088 80.7212ZM86.1618 109.683C86.1831 109.628 86.2087 109.572 86.23 109.517C85.7521 108.493 85.2786 107.469 84.8007 106.445C85.0909 106.24 85.5047 106.099 85.5772 105.86C85.6497 105.621 85.3766 105.28 85.2486 104.973C84.9158 105.131 84.6471 105.259 84.3271 105.408C84.0625 104.849 83.8065 104.324 83.5591 103.795C83.2305 103.096 83.2348 103.096 83.8961 102.737C83.9857 102.686 84.0711 102.626 84.1948 102.549C84.054 102.247 83.9174 101.948 83.7596 101.611C83.2945 101.85 82.8679 102.072 82.4626 102.281C82.4626 102.353 82.4541 102.387 82.4626 102.413C83.5591 104.785 84.6557 107.153 85.7693 109.517C85.8162 109.615 86.0295 109.632 86.166 109.688L86.1618 109.683ZM31.5185 90.9825C30.8743 91.5969 30.2642 92.1772 29.6583 92.7575C28.4338 93.9222 27.2092 95.087 25.989 96.2561C25.8652 96.3756 25.5921 96.495 25.8438 96.7084C25.9079 96.7596 26.1596 96.67 26.2662 96.5761C26.7057 96.1879 27.1238 95.7697 27.5505 95.3644C27.8406 95.0871 28.1394 94.814 28.4423 94.5324C28.694 94.8012 28.9073 95.0316 29.1462 95.2876C29.398 95.0486 29.6242 94.8353 29.8674 94.6006C29.6413 94.3105 29.4407 94.0545 29.2231 93.7729C29.8461 93.1841 30.4434 92.6252 31.0535 92.0492C31.3309 92.3478 31.5612 92.5996 31.8343 92.894C32.0817 92.6294 32.2951 92.3991 32.5298 92.1516C32.2013 91.7676 31.8897 91.4049 31.5271 90.9825H31.5185ZM78.8188 112.495C79.1204 112.435 79.2383 112.276 79.1729 112.017C78.8998 110.921 78.5799 109.837 78.3623 108.728C78.2044 107.917 78.1746 107.076 78.085 106.253C78.0125 105.583 77.9314 104.913 77.8546 104.243C77.8076 104.222 77.7607 104.201 77.7137 104.179C77.6327 104.312 77.4748 104.444 77.4791 104.572C77.5004 105.037 77.573 105.502 77.6242 105.967C77.7095 106.701 77.7949 107.439 77.8802 108.173C77.2914 107.149 76.7794 106.112 76.2802 105.067C76.1437 104.777 75.9815 104.73 75.6871 104.93C76.8476 107.422 78.358 109.747 78.8146 112.495H78.8188ZM95.7319 103.189C94.2727 101.363 92.8092 99.5329 91.2946 97.6385C91.542 97.4508 91.7425 97.2972 91.9686 97.1265C91.7212 96.8193 91.5164 96.5719 91.2946 96.2988C90.7399 96.7937 90.2279 97.2503 89.7074 97.7153C89.9378 98.0012 90.1298 98.2444 90.3346 98.5004C90.4455 98.4321 90.5393 98.398 90.5905 98.334C90.8764 97.9926 91.0812 98.0268 91.3457 98.398C91.7255 98.9398 92.1778 99.4348 92.5917 99.951C93.4535 101.022 94.3068 102.097 95.1686 103.164C95.318 103.347 95.4887 103.578 95.7319 103.185V103.189ZM72.5212 106.927C72.8071 106.744 73.1655 106.637 73.2423 106.428C73.3276 106.193 73.1655 105.869 73.1057 105.566C72.5681 105.681 72.1116 105.784 71.6551 105.873C71.0791 105.984 71.1046 105.976 71.1644 106.552C71.207 106.927 71.3564 107.055 71.7148 106.965C71.8257 106.94 71.941 106.944 72.0647 106.931C72.0903 107.021 72.1074 107.076 72.1202 107.132C72.5341 109.295 72.9436 111.458 73.366 113.617C73.3874 113.732 73.5111 113.831 73.5879 113.933C73.6434 113.805 73.7671 113.668 73.75 113.557C73.5409 112.354 73.3148 111.155 73.0886 109.952C72.8966 108.92 72.7047 107.883 72.5212 106.919V106.927ZM58.5693 20.9964C58.5863 20.7063 58.5649 20.4929 58.6161 20.3009C58.7057 19.9852 58.8508 19.6823 58.9532 19.3665C58.9831 19.2727 58.9831 19.0977 58.9276 19.0551C58.6247 18.8375 58.3346 18.654 57.8994 18.7948C57.0588 19.0636 56.197 19.2471 55.3436 19.4732C55.254 19.4988 55.1687 19.5628 55.1857 19.5543C55.3863 20.0108 55.5698 20.4247 55.749 20.8385C55.8898 21.1628 56.0306 21.4871 56.1117 21.6748C57.0503 21.4145 57.8482 21.1969 58.5693 21.0007V20.9964ZM22.3154 90.1761C22.5415 90.014 22.7335 89.8689 22.9297 89.7366C24.534 88.6358 26.1426 87.5393 27.7383 86.4257C27.845 86.3532 27.862 86.1569 27.9218 86.0204C27.781 86.0374 27.6103 86.0118 27.5036 86.0844C26.3772 86.8396 25.2594 87.6119 24.1372 88.3799C23.1687 89.0454 22.2044 89.711 21.2103 90.3937C21.509 90.8716 21.7863 91.3068 22.0764 91.7719C22.3793 91.55 22.6396 91.358 22.9042 91.166C22.7036 90.8289 22.5244 90.5345 22.3111 90.1761H22.3154ZM99.0257 87.9319C98.6844 88.1537 98.7825 88.2988 99.0385 88.4822C100.319 89.4124 101.59 90.3596 102.866 91.2982C103.638 91.8657 104.415 92.4247 105.217 93.0092C105.524 92.5398 105.801 92.1174 106.096 91.6652C105.805 91.4519 105.554 91.2684 105.264 91.0593C105.119 91.2727 104.969 91.4476 104.875 91.6439C104.7 92.0065 104.53 91.9852 104.223 91.759C102.507 90.4748 100.775 89.2161 99.0257 87.9361V87.9319ZM97.7372 101.508C97.4428 101.274 97.2209 101.082 96.982 100.907C96.854 100.813 96.6577 100.783 96.5639 100.668C95.446 99.2982 94.341 97.9201 93.2359 96.542C93.1591 96.4481 93.0225 96.3158 93.0438 96.2476C93.2316 95.7356 92.7239 95.6161 92.5703 95.2663C92.438 95.3644 92.3271 95.4199 92.2503 95.5052C92.118 95.6545 91.8834 95.9276 91.9132 95.966C92.1052 96.1964 92.1479 96.606 92.5917 96.5889C92.6898 96.5889 92.8178 96.7169 92.8946 96.815C94.0124 98.2017 95.126 99.5884 96.2396 100.979C96.3036 101.06 96.4231 101.176 96.4018 101.24C96.2226 101.747 96.7303 101.875 96.8924 102.251C97.1527 102.016 97.3745 101.82 97.7329 101.504L97.7372 101.508ZM24.9266 80.3585C24.7602 80.0129 24.6321 79.7484 24.4828 79.4412C24.1841 79.6844 23.6892 79.5905 23.6508 80.1153C23.6508 80.1708 23.5186 80.2305 23.4418 80.2689C21.8887 81.0369 20.3356 81.8092 18.7783 82.5601C18.6289 82.6327 18.4199 82.5601 18.2535 82.607C17.9847 82.6838 17.7159 82.7777 17.4855 82.927C17.43 82.9612 17.5196 83.247 17.5708 83.4092C17.6135 83.55 17.6988 83.6737 17.7799 83.8444C18.0999 83.6396 18.5479 83.6823 18.6204 83.1831C18.6289 83.1148 18.7783 83.0593 18.8679 83.0124C20.4338 82.2358 21.9996 81.4593 23.5655 80.687C23.6593 80.6401 23.8002 80.5676 23.8599 80.6017C24.2994 80.8705 24.5255 80.4225 24.9266 80.3542V80.3585ZM36.2717 95.8679C36.0711 96.1708 35.8791 96.4183 35.7298 96.6913C35.653 96.8279 35.6871 97.0412 35.5975 97.1564C34.4882 98.5303 33.3703 99.8913 32.2481 101.257C32.1713 101.346 32.069 101.5 31.9922 101.496C31.4588 101.444 31.4375 101.935 31.1431 102.178C31.4077 102.413 31.6295 102.609 31.8855 102.835C32.086 102.545 32.3975 102.298 32.3847 102.063C32.3719 101.786 32.4786 101.653 32.6108 101.487C33.7116 100.147 34.8082 98.8033 35.9132 97.4678C35.99 97.3782 36.0925 97.2204 36.165 97.2289C36.7111 97.2972 36.7154 96.798 36.9884 96.5548C36.7452 96.3244 36.5362 96.1281 36.2674 95.8679H36.2717ZM63.2583 114.782C63.4418 114.795 63.5655 114.816 63.6807 114.803C63.8471 114.782 64.1372 114.761 64.15 114.692C64.2012 114.419 64.1927 114.129 64.1543 113.852C64.1287 113.656 63.9538 113.468 63.958 113.28C63.9964 111.497 64.0605 109.713 64.1202 107.93C64.1202 107.827 64.1116 107.665 64.1713 107.631C64.6151 107.349 64.3719 106.944 64.4188 106.513C64.0946 106.526 63.7149 106.436 63.5698 106.581C63.4162 106.735 63.3778 107.162 63.4759 107.379C63.5826 107.61 63.7361 107.789 63.7233 108.079C63.6508 109.845 63.6039 111.616 63.5484 113.383C63.5484 113.498 63.5485 113.677 63.4802 113.724C63.0621 114.01 63.2711 114.389 63.2583 114.782ZM69.3383 114.569C69.3383 114.449 69.3597 114.368 69.3383 114.3C69.2103 113.924 69.0012 113.566 68.9457 113.182C68.6983 111.356 68.4893 109.525 68.2717 107.695C68.2589 107.597 68.2503 107.448 68.31 107.396C68.6556 107.098 68.4466 106.748 68.3527 106.462C68.3228 106.377 67.9004 106.424 67.6615 106.419C67.5932 106.419 67.5249 106.462 67.4396 106.492C67.4566 106.628 67.4482 106.752 67.4866 106.863C67.6103 107.213 67.8321 107.546 67.8791 107.904C68.1137 109.688 68.3057 111.475 68.5062 113.259C68.519 113.361 68.549 113.511 68.4935 113.562C68.1223 113.929 68.4252 114.279 68.4423 114.658C68.7666 114.624 69.0354 114.599 69.3469 114.569H69.3383ZM91.8662 29.0945C92.2716 28.7916 92.6215 28.4887 93.0098 28.2497C93.2743 28.0876 93.3255 27.9511 93.2018 27.6695C93.0652 27.3665 92.8519 27.2215 92.549 27.1063C91.8748 26.8503 91.222 26.5559 90.6332 26.3084C90.39 26.9527 90.1426 27.6183 89.8908 28.2881C90.7996 28.2412 91.2604 28.9409 91.8662 29.0903V29.0945ZM82.7655 20.574C82.7613 20.6081 82.7527 20.6465 82.7484 20.6807C83.0215 20.7191 83.3116 20.8343 83.5676 20.7788C84.1521 20.6508 84.5788 20.7447 84.822 21.342C84.8561 21.4231 85.0353 21.4401 85.1462 21.4871C85.206 21.3463 85.3127 21.2012 85.3042 21.0647C85.2956 20.9324 85.1847 20.7873 85.0866 20.6807C84.8903 20.4673 84.9329 20.318 85.1633 20.1772C85.3767 20.0449 85.5814 19.8999 85.782 19.7633C85.5046 19.1617 84.1906 18.8289 83.3927 19.1404C83.6274 19.5031 83.862 19.8615 84.1479 20.3009C83.6316 20.4033 83.1964 20.4887 82.7612 20.5697L82.7655 20.574ZM84.2631 16.9303C84.2802 17.7111 83.8962 18.2785 83.1623 18.6668C83.3628 18.6967 83.5549 18.7052 83.7298 18.6583C84.1735 18.5345 84.4509 18.2017 84.5831 17.7879C84.7282 17.3399 85.0439 17.3783 85.3383 17.4935C85.6754 17.6257 85.4748 17.8988 85.4023 18.1121C85.142 18.8972 85.4023 19.3495 86.2215 19.4305C86.3708 19.4433 86.5372 19.294 86.6951 19.2172C86.5628 19.0935 86.4519 18.9271 86.2983 18.8503C86.1362 18.7692 85.9314 18.7777 85.6455 18.7308C85.8162 18.4577 85.9442 18.2615 86.0594 18.0609C86.149 17.8988 86.3196 17.6428 86.2684 17.5745C86.1148 17.374 85.8845 17.1735 85.6498 17.1137C85.2103 17.0028 84.7453 16.9857 84.2717 16.9303H84.2631ZM55.429 115.994C55.4716 116.015 55.5186 116.032 55.5612 116.053C56.0988 115.456 56.3505 114.722 56.47 113.946C56.534 113.532 56.5127 113.105 56.4913 112.683C56.4913 112.61 56.2268 112.469 56.1799 112.499C55.8642 112.708 55.7063 113.852 55.9879 114.099C56.2098 114.296 56.1671 114.475 56.0946 114.654C55.9538 115 55.7702 115.328 55.6038 115.665C55.5484 115.776 55.4887 115.883 55.4332 115.994H55.429Z" fill="#151515"/>
<path d="M64.3718 87.7185C60.0283 96.0001 49.7456 97.1692 43.6486 92.7361C40.231 90.2529 38.247 86.9036 37.9569 82.6582C37.6668 78.4428 39.1431 74.8417 42.0359 71.7612C41.1825 71.5606 40.3803 71.4156 39.6081 71.1767C36.2331 70.1356 33.6092 68.1132 31.7788 65.0796C30.5244 62.9975 29.9014 60.7233 29.8971 58.3041C29.8886 55.0956 30.87 52.1985 32.8412 49.6684C35.303 46.5153 38.5115 44.5953 42.4795 43.998C44.9712 43.6225 47.3947 43.9169 49.7414 44.8172C49.9078 44.8812 50.0742 44.9409 50.2918 45.022C50.3003 44.8556 50.3132 44.7447 50.3089 44.6295C50.1425 40.0087 51.8406 36.1985 55.2795 33.1393C57.6774 31.006 60.4977 29.7943 63.6764 29.5468C68.31 29.1884 72.2908 30.6689 75.4183 34.1719C77.9313 36.9879 78.9766 40.3329 78.7462 44.0876C78.7334 44.3265 78.6993 44.5655 78.6779 44.8087C78.6779 44.8343 78.7036 44.8599 78.7335 44.9196C79.2071 44.7532 79.6806 44.5697 80.167 44.4204C83.9643 43.2385 87.6892 43.4263 91.2092 45.3036C95.0535 47.3516 97.4982 50.5431 98.2619 54.8823C99.047 59.3367 97.8267 63.262 94.8614 66.6455C93.1206 68.6337 90.9787 70.0375 88.4785 70.8908C88.423 70.9121 88.3633 70.9292 88.3078 70.9548C88.2822 70.9676 88.2652 70.9932 88.1969 71.0529C88.3932 71.3047 88.5979 71.5521 88.7857 71.8167C91.1409 75.1489 91.9088 78.814 91.0128 82.799C89.7328 88.495 84.8603 93.0518 79.1046 93.9137C74.6715 94.575 70.614 93.6236 67.1025 90.7777C66.1639 90.0182 65.4428 88.9942 64.6278 88.0854C64.5382 87.9873 64.4742 87.8678 64.3633 87.71L64.3718 87.7185ZM63.2454 38.6647C62.998 39.3431 62.7462 40.0214 62.4988 40.6998C62.5372 40.7212 62.5756 40.7382 62.614 40.7596C63.0919 40.2561 63.5697 39.7569 64.0475 39.2492C63.7446 39.0316 63.4886 38.8524 63.2369 38.6732C62.5372 37.6961 62.5414 36.8428 63.2454 36.0193C63.5014 35.823 63.7574 35.6268 64.039 35.4049C63.5611 34.9057 63.0919 34.4108 62.6183 33.9159C62.5799 33.9372 62.5414 33.9585 62.4988 33.9799C62.7505 34.6625 63.0065 35.3452 63.2583 36.0279C62.5244 35.7889 61.7862 35.55 61.0523 35.3153C61.0353 35.3537 61.014 35.3878 60.9969 35.4263C61.5302 35.8743 62.0635 36.3223 62.6651 36.8342C61.8673 37.0007 61.1804 37.1414 60.4892 37.2865C60.4892 37.3206 60.4934 37.3548 60.4976 37.3889C61.1888 37.534 61.8801 37.6791 62.6523 37.8412C62.0507 38.3575 61.5217 38.8097 60.9969 39.262C61.0182 39.2919 61.0395 39.326 61.0566 39.3559C61.7862 39.1255 62.5158 38.8951 63.2412 38.6689L63.2454 38.6647ZM66.0785 38.6817C66.7953 38.8993 67.5121 39.1169 68.2289 39.3345C68.2502 39.3047 68.2672 39.2705 68.2886 39.2407C67.7638 38.7884 67.239 38.3361 66.6545 37.8326C67.4225 37.6748 68.1052 37.534 68.7836 37.3975C68.7836 37.3548 68.7836 37.3164 68.7836 37.2737C68.0966 37.1329 67.4097 36.9921 66.6374 36.8342C67.2476 36.3137 67.7723 35.87 68.3014 35.422C68.28 35.3921 68.263 35.3623 68.2417 35.3367C67.559 35.5415 66.8806 35.742 66.1126 35.9724C66.3601 35.2428 66.5692 34.6241 66.7783 34.0054C66.7399 33.9841 66.7057 33.9585 66.6673 33.9372C66.1937 34.4321 65.7243 34.9313 65.2209 35.4604C66.0699 35.8444 66.5905 36.4204 66.5564 37.2695C66.5393 37.7516 66.2534 38.2209 66.0913 38.6988C65.8267 38.8694 65.5622 39.0359 65.2465 39.2449C65.7414 39.7655 66.2192 40.2689 66.6928 40.7681C66.7312 40.7468 66.7654 40.7255 66.8038 40.7041C66.5606 40.03 66.3217 39.3601 66.0785 38.686V38.6817ZM68.7409 59.6268C68.6598 59.3665 68.5872 59.1404 68.5147 58.91C68.3483 58.3937 68.1478 57.8817 68.0198 57.3569C67.9686 57.1436 68.0028 56.7809 68.1393 56.6785C68.4166 56.4737 68.8006 56.4993 69.031 56.8108C69.3638 57.2545 69.6668 57.7239 69.9526 58.2017C70.2854 58.7607 71.0961 59.0124 71.655 58.6839C71.9537 58.5089 72.0561 58.2743 71.8001 57.9799C71.574 57.7153 71.3393 57.4593 71.1174 57.1905C70.9937 57.0412 70.8657 56.8833 70.7974 56.7041C70.6609 56.3671 70.6993 56.0342 71.0278 55.8209C71.3436 55.6161 71.6465 55.6631 71.9323 55.9319C72.2395 56.222 72.5638 56.4993 72.9051 56.7425C73.447 57.1351 74.6503 57.1351 75.2049 56.7767C75.5463 56.5548 75.5547 56.2433 75.2176 56.0172C75.0427 55.902 74.8422 55.8252 74.6545 55.7228C74.1254 55.4327 73.5836 55.1639 73.0673 54.8439C72.7601 54.6519 72.6235 54.3404 72.7814 53.9777C72.9435 53.6023 73.2508 53.5383 73.6135 53.6279C74.2151 53.7815 74.838 53.8839 75.4097 54.1057C76.5446 54.5537 77.4022 54.0161 78.247 53.406C78.3921 53.2993 78.55 53.0135 78.5031 52.8897C78.439 52.7276 78.183 52.574 77.991 52.5484C77.3339 52.4673 76.6641 52.4631 76.0027 52.3862C75.4353 52.318 74.8636 52.2369 74.3217 52.0748C73.9036 51.9511 73.6603 51.4433 73.7585 51.0935C73.8779 50.6711 74.2278 50.6412 74.5947 50.6412C75.9856 50.6327 77.3766 50.6284 78.7718 50.5985C79.1003 50.5943 79.4758 50.59 79.7318 50.4321C79.8897 50.334 79.847 49.9372 79.911 49.6769C80.0432 49.1223 80.4913 48.6999 80.935 48.7639C81.0886 48.7852 81.3403 48.9985 81.3361 49.1095C81.2934 49.8305 81.7286 50.1932 82.3089 50.3596C83.0598 50.5729 83.8363 50.7564 84.6128 50.8204C85.8032 50.9185 87.0022 50.8929 88.1926 50.9398C88.3676 50.9484 88.534 51.0764 88.7046 51.1489C88.6065 51.3068 88.534 51.4988 88.3974 51.6097C88.2396 51.7335 88.0305 51.8273 87.8299 51.8615C87.4886 51.9169 87.1387 51.9511 86.7932 51.9383C84.8134 51.8572 82.8337 51.7591 80.8583 51.6652C80.4956 51.6481 80.1457 51.6652 80.0561 52.1303C79.9622 52.6081 80.1115 52.9879 80.5552 53.1116C81.1355 53.2695 81.7329 53.3633 82.3302 53.4359C83.2006 53.5425 84.0752 53.598 84.9457 53.7004C85.0865 53.7175 85.2956 53.8369 85.3297 53.9521C85.3596 54.0545 85.223 54.2508 85.1121 54.3447C84.5404 54.8396 83.8235 54.878 83.1366 54.8097C82.0699 54.7073 81.0161 54.5111 79.9579 54.3404C79.4886 54.2636 79.0235 54.1484 78.5627 54.0503C78.3281 54.8481 78.6353 55.6289 79.4161 55.9276C80.2566 56.2476 81.1527 56.4268 82.0359 56.6444C82.2364 56.6913 82.4881 56.6017 82.4881 56.926C82.4881 57.2033 82.3985 57.4551 82.0827 57.4892C81.3659 57.566 80.6534 57.6812 79.928 57.4337C78.9979 57.1137 78.0508 56.8577 77.1078 56.5804C76.8305 56.4993 76.5873 56.4865 76.4294 56.8236C76.2758 57.1479 76.31 57.4252 76.5745 57.6385C76.822 57.8305 77.1078 57.9756 77.3809 58.1292C77.7222 58.3212 78.0806 58.4833 78.4176 58.6839C78.6822 58.8417 78.6438 59.0252 78.4176 59.2215C78.0763 59.5159 77.7222 59.4903 77.368 59.2897C76.647 58.8759 75.9472 58.4278 75.2262 58.014C74.7568 57.7452 74.454 57.8391 74.2535 58.3425C74.1681 58.5601 74.1468 58.8588 74.2236 59.0764C74.5393 59.9553 75.2177 60.4887 76.0497 60.8556C76.1777 60.911 76.3014 60.9793 76.4294 61.0433C76.0923 61.6492 76.054 61.6705 75.4908 61.4401C75.1665 61.3079 74.838 61.1884 74.535 61.0263C73.8822 60.6807 73.1867 60.3735 72.9904 59.5457C72.9776 59.4945 72.9222 59.4476 72.8752 59.4135C72.5851 59.1873 71.8342 59.2556 71.5099 59.55C71.1771 59.8529 71.2582 60.2071 71.4545 60.5399C71.6678 60.9025 71.9537 61.2353 72.1201 61.6151C72.3164 62.0588 72.6279 62.3233 73.0673 62.4556C74.07 62.7542 75.0726 62.7287 76.0454 62.3319C76.7409 62.0503 76.8176 61.8966 76.7152 61.1542C76.9243 61.1372 77.1292 61.1287 77.3383 61.1031C77.8332 61.0433 78.3281 61.0007 78.8188 60.9111C79.3649 60.8129 79.7148 60.5143 79.7532 59.9127C79.7788 59.5073 80.0561 59.3068 80.4401 59.247C80.5895 59.2257 80.743 59.2172 80.8923 59.2129C82.4923 59.1916 83.4865 58.3596 83.9985 56.8919C84.135 56.5036 84.3697 56.2519 84.7708 56.1409C85.7052 55.8806 86.3622 55.2577 86.759 54.4086C86.9851 53.9308 87.3265 53.6663 87.7574 53.4145C88.1841 53.1671 88.598 52.8769 88.9521 52.5356C89.6134 51.8998 90.262 51.2428 90.855 50.5388C91.3372 49.967 91.7724 49.3441 92.1478 48.6999C92.374 48.3073 92.2331 48.1495 91.7894 48.1367C90.7142 48.1025 89.6432 48.0769 88.568 48.0471C85.7393 47.966 82.9148 47.8764 80.086 47.8039C77.1078 47.7228 74.1297 47.6502 71.1473 47.582C70.4135 47.5649 70.1404 47.8039 70.1617 48.5463C70.1788 49.1137 70.294 49.6855 70.4007 50.2444C70.5159 50.8673 70.7334 51.4775 70.7889 52.1047C70.8614 52.9196 70.3451 53.342 69.5942 53.0391C68.8305 52.7361 68.1308 52.2711 67.4097 51.8615C67.03 51.6481 66.6673 51.4092 66.2918 51.1831C66.1169 51.0764 65.831 51.0252 65.7713 50.8801C65.639 50.5431 66.0017 50.4919 66.2022 50.3553C66.2918 50.2956 66.3856 50.2486 66.4752 50.1889C67.559 49.4892 68.0369 48.0983 67.6145 46.8865C67.047 45.2609 65.2636 44.3735 63.4716 44.8513C62.3452 45.1543 61.5302 45.8327 61.2188 46.9889C60.9116 48.1367 61.2785 49.1095 62.1233 49.9073C62.3494 50.1207 62.6652 50.2401 62.9041 50.4407C63.0321 50.5473 63.1047 50.7393 63.1473 50.91C63.1558 50.9484 62.9382 51.0551 62.8188 51.1148C62.4689 51.2812 62.102 51.4177 61.7692 51.6054C60.9585 52.0662 60.1905 52.6167 59.3457 53.0007C58.4923 53.3889 57.9462 52.9367 58.0486 51.9895C58.1083 51.4391 58.3131 50.9015 58.3985 50.3511C58.5051 49.6556 58.6161 48.9473 58.6033 48.2476C58.5947 47.7228 58.3132 47.5521 57.7841 47.5649C56.6364 47.5948 55.4843 47.6289 54.3366 47.6588C48.6193 47.8124 42.9062 47.966 37.1889 48.1239C36.5873 48.1409 36.4251 48.3543 36.7537 48.8748C37.1377 49.4849 37.59 50.0567 38.0593 50.6028C38.4945 51.1063 39.0321 51.5159 39.4502 52.0279C39.9452 52.638 40.4742 53.1713 41.208 53.4871C41.5793 53.6492 41.8225 53.9222 42.0102 54.302C42.4028 55.1084 42.9702 55.7783 43.8662 56.0599C44.3782 56.222 44.6982 56.4993 44.8945 57.0327C45.398 58.398 46.3665 59.1788 47.8726 59.1959C48.039 59.1959 48.2054 59.2086 48.3718 59.2342C48.7515 59.2897 49.0204 59.4646 49.063 59.887C49.1228 60.4801 49.4726 60.8172 50.0443 60.9111C50.535 60.9921 51.0343 61.0348 51.5249 61.0945C51.7255 61.1201 51.926 61.1457 52.1308 61.1756C51.9814 61.8199 52.0497 61.9948 52.6257 62.2551C53.7051 62.7372 54.8187 62.7969 55.9451 62.43C56.167 62.3575 56.4273 62.2295 56.5425 62.046C56.8967 61.4871 57.2166 60.9025 57.4897 60.2966C57.6903 59.8529 57.4299 59.4945 56.8923 59.3239C56.3249 59.1489 55.9409 59.2982 55.7745 59.742C55.7105 59.9084 55.6251 60.0791 55.4971 60.1985C54.8016 60.8641 53.9398 61.2353 53.0395 61.5041C52.8944 61.5468 52.5916 61.3463 52.4935 61.1799C52.3313 60.9111 52.63 60.8897 52.8007 60.8214C52.9116 60.7745 53.0225 60.7276 53.1292 60.6679C53.7692 60.318 54.2897 59.8444 54.5841 59.166C54.7718 58.7308 54.678 58.27 54.3708 57.9927C54.0166 57.6769 53.7137 57.9329 53.4236 58.0993C52.9926 58.3468 52.5916 58.6497 52.1564 58.8972C51.8022 59.0935 51.431 59.3281 51.047 59.3793C50.8038 59.4092 50.5222 59.1361 50.2576 58.9953C50.3942 58.8246 50.5052 58.6198 50.6716 58.4876C50.8465 58.351 51.0769 58.287 51.2774 58.1804C51.5846 58.0182 51.9003 57.8689 52.1862 57.6769C52.4848 57.4807 52.5787 57.1948 52.4166 56.8492C52.2545 56.495 51.9899 56.4737 51.6657 56.5719C50.727 56.8577 49.7798 57.1222 48.8454 57.4337C48.1372 57.6684 47.4375 57.5489 46.7335 57.4636C46.4135 57.4252 46.3323 57.1777 46.3366 56.8961C46.3409 56.5676 46.5969 56.6657 46.7932 56.6145C47.6977 56.3841 48.6151 56.1751 49.494 55.8636C50.0615 55.6631 50.3047 55.1255 50.3601 54.5281C50.3943 54.1569 50.2961 53.9991 49.8779 54.0929C48.8625 54.3191 47.8385 54.5324 46.8102 54.6988C45.927 54.8396 45.0225 54.9335 44.1649 54.5964C43.8876 54.4855 43.687 54.1825 43.4481 53.9692C43.7211 53.8497 43.9857 53.6577 44.2673 53.6193C45.27 53.4956 46.2854 53.4359 47.2923 53.3249C47.6337 53.2865 47.9793 53.1969 48.3036 53.086C48.6876 52.9537 48.8497 52.5484 48.7559 52.1132C48.6705 51.7121 48.3889 51.6353 48.039 51.6524C47.6166 51.6737 47.1942 51.7036 46.7718 51.7207C45.0779 51.7932 43.3884 51.8743 41.6945 51.9169C41.3276 51.9255 40.9307 51.8487 40.5937 51.7079C40.3889 51.6183 40.2695 51.3239 40.1116 51.1233C40.3292 51.055 40.5467 50.9356 40.7686 50.9271C41.9334 50.8759 43.1025 50.9271 44.2588 50.799C45.1334 50.7052 45.9953 50.4364 46.8401 50.1804C47.2241 50.0652 47.4716 49.7367 47.4673 49.2759C47.4631 48.7809 47.7361 48.5975 48.1969 48.798C48.726 49.0284 48.9478 49.4807 48.9478 50.0353C48.9478 50.3767 49.0715 50.5345 49.4214 50.5388C50.4496 50.5559 51.4779 50.5943 52.5062 50.6113C53.112 50.6241 53.7179 50.5772 54.3195 50.6327C54.567 50.654 54.9169 50.8247 54.9979 51.0252C55.0833 51.2257 54.9766 51.6097 54.8145 51.7847C54.6054 52.0108 54.2726 52.1644 53.9654 52.2454C53.5601 52.3479 53.1292 52.3521 52.7068 52.3905C52.0284 52.4503 51.35 52.4844 50.6759 52.5697C50.2876 52.6167 50.1723 52.9153 50.3814 53.2225C50.791 53.8199 52.2758 54.3788 52.9713 54.2039C53.7478 54.0033 54.5201 53.8028 55.3009 53.6065C55.6422 53.5212 55.8939 53.6535 56.039 53.9692C56.1883 54.2934 56.0859 54.5665 55.8214 54.7756C55.6336 54.9249 55.4289 55.0572 55.2155 55.1724C54.7078 55.4412 54.183 55.6758 53.6838 55.9617C53.5387 56.0471 53.3681 56.2604 53.3766 56.4012C53.3851 56.5505 53.5772 56.7596 53.7308 56.8108C54.5414 57.0881 55.3521 57.2161 56.086 56.5932C56.3718 56.35 56.6705 56.1153 56.9521 55.8636C57.2422 55.6033 57.5452 55.6332 57.8225 55.838C58.0871 56.0343 58.1895 56.3372 58.0359 56.6444C57.9079 56.8961 57.7158 57.118 57.5409 57.3399C57.3659 57.566 57.1739 57.7793 56.9862 57.9969C56.7344 58.2913 56.871 58.4919 57.1398 58.6583C57.7116 59.0124 58.5436 58.7351 58.8892 58.1292C59.1623 57.6471 59.4822 57.1863 59.8236 56.7511C60.0369 56.478 60.3995 56.4695 60.6427 56.6657C60.7793 56.7767 60.839 57.1052 60.7964 57.3014C60.6769 57.8134 60.4806 58.3084 60.3185 58.8119C60.2331 59.0764 60.1563 59.3452 60.0752 59.6097C60.1094 59.6567 60.1393 59.7078 60.1735 59.7548C60.5105 59.6993 60.8774 59.7036 61.1846 59.5713C62.183 59.1361 62.6139 58.2572 62.6694 57.2503C62.7249 56.2604 62.6395 55.262 62.5542 54.2721C62.503 53.6705 62.3323 53.0732 62.2128 52.4758H63.1814C63.2539 56.9857 63.3265 61.4657 63.4033 66.0097C62.3025 65.8518 61.3041 65.7153 60.3099 65.5532C60.1265 65.5233 59.9131 65.4252 59.7937 65.2887C59.5803 65.0412 59.2902 64.734 59.2902 64.4566C59.2902 64.0641 59.7296 63.9831 60.0838 63.9319C60.2331 63.9105 60.391 63.9062 60.5318 63.8636C60.8475 63.7654 61.1803 63.6887 61.4619 63.5308C62.055 63.2023 62.3452 62.3873 62.1574 61.7089C62.0294 61.2439 61.5984 61.0177 60.8219 61.0092C59.8022 60.9964 58.8976 61.3548 58.0571 61.8967C57.2422 62.4257 56.9052 63.2236 56.9564 64.1495C57.0118 65.1265 57.2422 66.078 58.2662 66.5089C58.9019 66.7777 59.5846 66.927 60.2502 67.1276C60.3782 67.166 60.5019 67.2129 60.7152 67.2812C60.4336 67.4689 60.2417 67.5884 60.0583 67.7206C58.838 68.6124 58.6673 69.6918 59.6145 70.8694C60.0625 71.4241 60.6086 71.8977 61.1376 72.4353C61.095 72.4823 61.0012 72.5761 60.9201 72.6828C60.2716 73.5062 60.4635 74.6966 61.351 75.23C61.7648 75.4775 62.2128 75.6737 62.6395 75.8956C62.7376 75.9468 62.823 76.0151 62.9723 76.1089C62.3067 76.4716 61.56 76.702 61.5686 77.5596C61.5771 78.3873 62.3025 78.7073 62.8657 79.1212C62.5798 79.6417 61.9825 80.0812 62.3793 80.6913C62.678 81.1521 63.1516 81.502 63.5612 81.9158C63.2326 82.1974 62.6993 82.3468 62.439 82.9569C62.887 82.8545 63.2326 82.7735 63.6294 82.6839C63.6465 82.8801 63.6636 83.038 63.6678 83.1958C63.6892 84.1174 63.719 85.0433 63.7147 85.9649C63.7147 86.3361 63.83 86.4769 64.2097 86.4598C64.5425 86.447 64.7771 86.4598 64.7728 85.999C64.7643 85.0177 64.8198 84.0321 64.8497 83.0508C64.854 82.8929 64.8753 82.735 64.8923 82.5473C65.3147 82.6924 65.6732 82.8161 66.0359 82.9398C66.0828 82.8716 66.1254 82.8033 66.1723 82.7393C65.8865 82.5388 65.6006 82.334 65.3019 82.1249C66.8976 80.8534 66.6844 80.4993 65.3574 79.1084C65.4854 79.0273 65.6134 78.9463 65.7328 78.8695C66.0486 78.6646 66.3943 78.494 66.6759 78.2508C67.3031 77.7047 67.2817 77.0177 66.6588 76.4631C66.5436 76.3606 66.424 76.2583 66.2662 76.126C66.6502 75.934 66.9745 75.7847 67.2902 75.6055C68.0753 75.166 68.3654 74.6284 68.1265 73.7665C67.99 73.2759 67.6529 72.8449 67.3841 72.3457C67.414 72.3329 67.559 72.2903 67.6785 72.2135C68.1222 71.9361 68.6129 71.6972 68.9969 71.3473C70.2257 70.2294 70.1148 68.7873 68.7665 67.8102C68.6044 67.6908 68.4379 67.5713 68.1947 67.3964C68.408 67.3409 68.502 67.3153 68.6001 67.294C69.2444 67.1404 69.9099 67.0337 70.5328 66.8204C72.0262 66.3126 72.7175 64.7084 72.1159 63.2492C71.51 61.7814 69.1548 60.6423 67.6273 61.0775C67.1751 61.2055 66.8379 61.4572 66.7227 61.9351C66.6075 62.4086 66.7526 62.8567 67.1366 63.1041C67.6486 63.4327 68.2332 63.6503 68.7921 63.9063C69.0097 64.0087 69.2572 64.0556 69.4535 64.1878C69.8887 64.4737 69.927 64.9303 69.5132 65.2375C69.2316 65.4465 68.8902 65.6471 68.5532 65.7025C67.6742 65.8433 66.7825 65.9159 65.895 65.9969C65.2977 66.0481 65.2934 66.0353 65.3062 65.4422C65.4 61.9052 65.4897 58.3639 65.5878 54.8268C65.6092 54.046 65.6518 53.2695 65.6817 52.4801H66.5947C66.5606 52.6337 66.535 52.7489 66.5094 52.8684C66.2065 54.1825 65.9462 55.5137 66.087 56.8663C66.1553 57.4977 66.3345 58.1505 66.6246 58.7094C67.0555 59.5415 67.879 59.8487 68.7238 59.614L68.7409 59.6268ZM66.3899 37.3377C66.3857 36.3521 65.6092 35.5884 64.6321 35.6012C63.6764 35.6097 62.9126 36.3862 62.9126 37.3334C62.9126 38.3105 63.6976 39.0828 64.6747 39.0742C65.6304 39.0614 66.3985 38.2892 66.3899 37.3377ZM64.7174 33.4209C64.6748 33.4209 64.6363 33.4209 64.5937 33.4209C64.4486 34.0695 64.2993 34.7223 64.1457 35.3964H65.1612C65.0076 34.7095 64.8625 34.0652 64.7174 33.4209ZM64.5894 41.2417C64.6363 41.2417 64.679 41.2332 64.726 41.2332C64.8668 40.5889 65.0076 39.9446 65.1526 39.279H64.1499C64.3035 39.9617 64.4443 40.6017 64.5894 41.2417Z" fill="#151515"/>
<path d="M72.5469 17.5831C72.1202 17.5319 71.6935 17.4849 71.2413 17.4337C71.173 17.1095 71.2199 16.8791 71.6423 16.9047C71.7916 16.9132 71.941 16.9047 72.0946 16.9047C72.7602 16.9047 72.7986 16.9601 72.5469 17.5831Z" fill="#151515"/>
<path d="M72.4018 17.9927C72.2823 18.7223 72.2695 18.7308 71.6594 18.6199C71.4844 18.59 71.3053 18.5857 71.1346 18.5687C71.0493 18.0439 71.0876 17.9927 71.557 17.9927C71.8343 17.9927 72.1159 17.9927 72.4018 17.9927Z" fill="#151515"/>
<path d="M70.0977 16.8833C70.1959 16.9388 70.3922 17.0241 70.5543 17.1564C70.5756 17.1735 70.4476 17.4977 70.3495 17.5233C70.1234 17.5831 69.8717 17.5617 69.6327 17.5361C69.5431 17.5276 69.4108 17.4252 69.3895 17.3441C69.3596 17.2289 69.381 17.0071 69.4493 16.9772C69.5986 16.9047 69.7948 16.9217 70.0977 16.8833Z" fill="#151515"/>
<path d="M69.334 18.5516C69.3511 18.3212 69.3596 18.1463 69.3724 17.9585C69.6582 17.9713 69.9143 17.9585 70.1575 18.0055C70.2641 18.0268 70.4348 18.1932 70.422 18.2401C70.3708 18.3767 70.2599 18.5687 70.1489 18.5857C69.9057 18.6241 69.6498 18.5729 69.3383 18.5516H69.334Z" fill="#151515"/>
<path d="M92.805 23.774C93.3767 23.1027 94.0223 22.9377 94.742 23.2791C95.1089 23.454 95.4759 23.6289 95.8428 23.8124C96.0817 23.9319 96.15 24.094 95.9324 24.3073C95.8684 24.3713 95.8044 24.4353 95.7489 24.5079C95.4588 24.8876 95.1516 24.9559 94.7079 24.6999C94.1106 24.3543 93.4663 24.094 92.805 23.774Z" fill="#151515"/>
<path d="M81.9164 22.4641C81.669 23.4455 81.8567 23.6844 83.2561 24.1281C83.1409 24.4737 83.0257 24.8151 82.9361 25.0839C81.5793 24.7041 80.2823 24.3372 78.9426 23.9617C79.045 23.7015 79.1175 23.4711 79.2284 23.262C79.2711 23.1809 79.4161 23.0956 79.5014 23.1127C80.0348 23.2065 80.487 23.0188 80.79 22.6177C81.1526 22.1399 81.5111 22.2807 81.9207 22.4641H81.9164ZM79.8983 23.5095C80.1159 23.9276 81.5964 24.4225 82.1084 24.2519C81.8524 23.7399 80.6578 23.3388 79.8983 23.5095Z" fill="#151515"/>
<path d="M83.4396 23.6588C83.094 23.5308 82.7613 23.4412 82.4669 23.2791C82.3602 23.2236 82.262 22.9377 82.3132 22.8567C82.39 22.7415 82.6034 22.6903 82.7655 22.6647C82.8722 22.6476 82.9958 22.7201 83.111 22.7585C83.6657 22.9505 83.6785 22.9761 83.4438 23.6588H83.4396Z" fill="#151515"/>
<path d="M79.7788 21.9009C80.069 21.9735 80.3078 22.0375 80.551 22.0972C80.5723 22.1399 80.5937 22.1868 80.6108 22.2295C80.2524 22.4769 79.894 22.7244 79.5356 22.9719C79.4929 22.9377 79.4545 22.9036 79.4118 22.8695C79.5271 22.5623 79.6423 22.2551 79.7746 21.9009H79.7788Z" fill="#151515"/>
<path d="M81.4342 21.918C81.6988 21.2311 81.7372 21.214 82.2662 21.4615C82.2065 22.1271 82.1468 22.1612 81.4342 21.918Z" fill="#151515"/>
<path d="M98.6844 98.9996C98.6631 99.4007 98.4925 99.614 98.1341 99.5542C97.8866 99.5116 97.6263 99.4305 97.4215 99.294C96.1329 98.4364 95.0748 97.3569 94.3452 95.9788C94.3111 95.9105 94.2514 95.8422 94.2557 95.774C94.2642 95.4881 94.2044 95.1297 94.3495 94.9463C94.4519 94.8225 94.9085 94.8481 95.1175 94.9633C96.6109 95.7868 97.7159 97.0028 98.5309 98.4876C98.6205 98.654 98.646 98.8588 98.6844 98.9953V98.9996Z" fill="#151515"/>
<path d="M39.574 107.051C39.9367 106.398 40.278 105.762 40.6364 105.135C40.709 105.007 40.8412 104.909 40.9479 104.798C41.1058 104.947 41.3191 105.075 41.4002 105.259C41.4727 105.417 41.4471 105.664 41.3703 105.826C41.1698 106.244 40.9564 106.667 40.6748 107.034C40.3377 107.477 40.0604 107.465 39.574 107.051Z" fill="#151515"/>
<path d="M41.3703 103.77C41.7458 103.083 42.1083 102.413 42.471 101.747C43.0598 101.978 43.175 102.217 42.919 102.746C42.7441 103.108 42.535 103.463 42.2833 103.774C42.0401 104.081 41.7159 104.162 41.366 103.77H41.3703Z" fill="#151515"/>
<path d="M83.6999 108.937C83.67 109.124 83.6658 109.278 83.6231 109.419C83.4951 109.816 83.1751 109.948 82.8551 109.688C82.5692 109.453 82.309 109.163 82.1127 108.847C81.3916 107.695 80.9094 106.445 80.679 105.105C80.5766 104.512 80.7175 104 81.0204 103.932C81.5153 103.821 81.7756 104.205 81.9932 104.529C82.8935 105.877 83.4823 107.354 83.7041 108.937H83.6999Z" fill="#151515"/>
<path d="M106.889 88.3329C105.247 87.2577 103.625 86.1953 102.017 85.1414C102.303 84.4118 102.716 84.1985 103.523 84.4801C104.867 84.9537 106.027 85.7388 106.932 86.8524C107.367 87.39 107.337 87.7654 106.894 88.3287L106.889 88.3329Z" fill="#151515"/>
<path d="M22.6225 77.6535C23.0151 78.366 22.9383 78.7799 22.3068 79.2791C21.4577 79.9532 20.4807 80.3841 19.4353 80.6572C19.0599 80.7553 18.6674 80.8236 18.2791 80.8279C17.669 80.8364 17.4513 80.6103 17.3105 79.9233C19.0641 79.1724 20.8305 78.4172 22.6183 77.6535H22.6225Z" fill="#151515"/>
<path d="M35.5633 100.122C36.0838 99.4134 36.5916 98.7265 37.0951 98.0439C37.5985 98.2103 37.8033 98.5174 37.5644 98.9228C37.2699 99.4177 36.8988 99.8828 36.4935 100.292C36.165 100.621 35.9302 100.548 35.5633 100.122Z" fill="#151515"/>
<path d="M74.0359 106.5C74.6375 106.244 74.8508 106.274 75.0471 106.795C75.2433 107.32 75.3414 107.887 75.431 108.446C75.478 108.723 75.3542 108.996 75.0257 109.052C74.919 109.069 74.7142 108.984 74.6929 108.907C74.4625 108.117 74.2578 107.32 74.0402 106.5H74.0359Z" fill="#151515"/>
<path d="M47.2199 104.158C47.8386 104.341 48.0178 104.568 47.8599 105.063C47.6978 105.575 47.4631 106.065 47.2242 106.547C47.1602 106.68 46.998 106.795 46.8529 106.855C46.5969 106.965 46.2428 106.744 46.3196 106.535C46.6012 105.745 46.9127 104.96 47.2199 104.158Z" fill="#151515"/>
<path d="M56.6407 17.7537C56.2994 17.1863 56.0177 16.7127 55.7233 16.222C56.1457 16.1068 56.6577 15.966 57.2252 15.8081C57.43 16.4055 57.2593 16.9644 57.1313 17.502C57.0972 17.6343 56.7644 17.694 56.645 17.7537H56.6407Z" fill="#151515"/>
<path d="M29.2657 90.5345C28.502 91.3793 27.734 92.2284 26.9233 93.1244C26.7185 92.8598 26.5394 92.6294 26.3303 92.3564C27.3244 91.7078 28.2716 91.0849 29.2231 90.462C29.2359 90.4876 29.2529 90.5089 29.2657 90.5345Z" fill="#151515"/>
<path d="M99.0002 90.5686C99.9175 91.1617 100.83 91.7505 101.795 92.3735C101.594 92.6423 101.424 92.8769 101.215 93.1543C100.429 92.2924 99.6785 91.4775 98.9319 90.6582C98.9532 90.6284 98.9789 90.5985 99.0002 90.5686Z" fill="#151515"/>
<path d="M25.4983 85.0348C24.645 85.7516 23.7959 86.4641 22.8956 87.2193C22.7249 86.9377 22.5756 86.686 22.3879 86.3788C23.429 85.8924 24.4358 85.423 25.4385 84.9537C25.4556 84.9793 25.477 85.0049 25.494 85.0305L25.4983 85.0348Z" fill="#151515"/>
<path d="M34.0657 95.9148C33.4257 96.8534 32.7857 97.7964 32.0732 98.8374C31.8556 98.5644 31.6807 98.3468 31.4631 98.078C32.2994 97.3441 33.1527 96.5975 34.0017 95.8465C34.0231 95.8679 34.0444 95.8934 34.0614 95.9148H34.0657Z" fill="#151515"/>
<path d="M89.8566 99.5927C90.5948 100.442 91.3287 101.287 92.1095 102.183C91.9132 102.336 91.7382 102.498 91.542 102.613C91.4737 102.652 91.2817 102.613 91.2519 102.562C90.7526 101.594 90.2705 100.617 89.7841 99.6439C89.8097 99.6268 89.8353 99.6097 89.8609 99.5969L89.8566 99.5927Z" fill="#151515"/>
<path d="M52.1735 106.343C52.0242 107.512 51.8748 108.685 51.717 109.918C51.4098 109.837 51.1409 109.764 50.8081 109.675C51.2476 108.54 51.6742 107.435 52.1009 106.325C52.1222 106.33 52.1479 106.338 52.1692 106.343H52.1735Z" fill="#151515"/>
<path d="M56.0262 19.8273C56.6492 19.6524 57.2508 19.4817 57.9292 19.2897C57.9292 19.7548 57.9378 20.1345 57.9207 20.5143C57.9207 20.5697 57.8054 20.638 57.7286 20.6764C57.6348 20.7233 57.5281 20.7447 57.43 20.7788C56.2737 21.1799 56.214 21.1457 56.0262 19.8316V19.8273Z" fill="#151515"/>
<path d="M92.4636 27.6097C92.3612 27.7505 92.3228 27.8145 92.2759 27.87C91.7895 28.4503 91.2305 28.4759 90.6929 27.9255C90.6331 27.8657 90.6247 27.6993 90.6588 27.6055C90.8978 26.9313 90.9915 26.8972 91.6572 27.2044C91.9131 27.3239 92.1607 27.4561 92.4636 27.6055V27.6097Z" fill="#151515"/>
<path d="M84.0156 19.4647C84.3612 19.5031 84.6215 19.5287 84.8946 19.5585C84.677 20.1345 84.5703 20.126 84.0156 19.4647Z" fill="#151515"/>
<path fill-rule="evenodd" clip-rule="evenodd" d="M36.1778 22.2387C36.5362 21.9529 36.8136 22.2172 37.027 22.4775C37.6285 23.2113 38.2215 23.9581 38.7932 24.7133C39.2369 25.3021 39.6511 25.9121 40.0778 26.5137C40.0437 26.5563 40.0052 26.5949 39.9711 26.6375C39.5914 26.3132 39.2116 25.9889 38.7636 25.6091C38.8532 25.9078 38.9215 26.1471 38.994 26.3945C38.0981 26.4329 37.8762 26.2493 37.7653 25.4387C37.744 25.2894 37.7396 25.1358 37.714 24.9908C37.6031 24.3765 37.219 24.2568 36.7028 24.6662C36.8863 25.0033 37.0739 25.3363 37.2574 25.6691C37.219 25.7118 37.1762 25.7502 37.1378 25.7929C36.6983 25.49 36.259 25.1869 35.7811 24.8541C36.02 24.5768 36.2207 24.3465 36.417 24.1204L36.3107 23.9533C36.0232 24.0971 35.7317 24.2451 35.4611 24.3804C35.1881 24.1969 34.9149 23.9495 34.5907 23.8258C34.4499 23.7703 34.2067 23.9792 33.9465 24.0987C34.3647 24.3888 34.7018 24.6196 35.0815 24.8841C34.5781 25.4175 34.1297 25.8911 33.5665 26.4841C33.8567 26.3817 34.0701 26.3559 34.2195 26.245C34.5565 25.989 34.8725 25.7074 35.1711 25.4087C35.3588 25.2211 35.4995 25.221 35.7128 25.3745C36.1906 25.7201 36.6942 26.023 37.1678 26.3729C37.2915 26.4625 37.4065 26.6591 37.4065 26.8041C37.4065 27.5166 37.3684 28.2335 37.3428 28.9716C37.8761 28.3572 37.97 27.6102 37.9828 26.8166C38.7721 26.9361 39.5101 27.478 40.2995 26.8679C40.4019 27.03 40.5 27.188 40.6024 27.3587C39.3864 27.8494 38.5501 28.8092 37.5432 29.5345C37.0056 29.9228 36.4852 30.3284 35.922 30.7508C34.7145 28.9759 33.5325 27.235 32.2824 25.4004C33.588 24.3423 34.8765 23.2798 36.1778 22.2387ZM35.3374 29.38C35.5818 29.4767 35.8143 29.5583 36.0074 29.5116C36.1227 29.4849 36.2241 29.4137 36.3057 29.2745C36.6428 28.6986 36.9116 28.0798 37.2103 27.4825H37.2061L37.2057 27.482L37.2061 27.4816H37.2053L37.0911 27.3887L37.0895 27.39L37.0865 27.3875C36.5149 28.0402 35.9432 28.6931 35.3374 29.38ZM36.024 26.4362C35.944 26.1001 35.7776 25.9222 35.5499 25.977C35.4731 25.9946 35.3893 26.0389 35.299 26.1129C34.8511 26.4798 34.4797 26.949 34.1128 27.3287C34.5608 27.6999 34.9917 28.0585 35.4099 28.4041C35.4106 28.4033 35.4112 28.4021 35.412 28.4012C35.4126 28.4018 35.4134 28.4023 35.414 28.4029C35.7846 27.9982 36.1083 27.6487 36.3599 27.3716H36.3615L36.3611 27.3704H36.3657C36.2292 27.0035 36.0966 26.7263 36.024 26.4362ZM36.6686 23.01C36.2591 22.8735 35.9176 23.0696 35.602 23.3V23.3012C35.6062 23.3481 35.6148 23.3993 35.619 23.4462C35.6458 23.4526 35.6723 23.4601 35.699 23.467C35.8971 23.5214 36.0957 23.5852 36.297 23.6237C36.3723 23.6386 36.4479 23.65 36.5236 23.6554C36.5667 23.6589 36.6102 23.6481 36.6545 23.6304C36.763 23.5883 36.8755 23.5013 36.9836 23.4425C36.9896 23.4394 36.9956 23.4361 37.0015 23.4333C36.9875 23.4149 36.974 23.3951 36.9607 23.3745C36.869 23.2327 36.7917 23.0511 36.6686 23.01Z" fill="#151515"/>
<path d="M65.3959 68.0961C65.9463 68.4161 66.5393 68.6806 67.0428 69.0689C67.5463 69.4529 67.542 69.8497 67.0428 70.2209C66.5351 70.6006 65.942 70.8652 65.2807 71.2449V68.2199C65.3191 68.1772 65.3618 68.1388 65.4002 68.0961H65.3959Z" fill="#151515"/>
<path d="M63.4375 71.0614C62.6567 70.959 62.0423 70.6518 61.5857 70.0716C61.3383 69.7558 61.3256 69.406 61.6669 69.1585C62.1149 68.8343 62.5927 68.5527 63.0705 68.2753C63.3009 68.1431 63.4375 68.2412 63.4375 68.5185C63.4375 69.342 63.4375 70.1697 63.4375 71.0614Z" fill="#151515"/>
<path d="M65.11 75.3665V73.7409C65.7628 73.758 66.3303 74.1633 66.3474 74.5772C66.3602 74.9484 65.7713 75.3324 65.11 75.3623V75.3665Z" fill="#151515"/>
<path d="M63.4929 73.5191V75.0252C62.9297 75.0081 62.422 74.7094 62.3836 74.3895C62.3409 74.0182 62.8145 73.6343 63.4929 73.5191Z" fill="#151515"/>
<path d="M59.4353 62.4001C59.3927 62.3575 59.2263 62.2678 59.205 62.1484C59.1623 61.8924 59.7725 61.4913 60.1522 61.534C60.2845 61.5468 60.4849 61.6705 60.5105 61.7772C60.5617 62.0161 59.9388 62.4044 59.4353 62.4001Z" fill="#151515"/>
<path d="M68.9756 62.3361C68.7068 62.1868 68.438 62.0545 68.199 61.8881C68.1222 61.8369 68.054 61.6492 68.0924 61.5852C68.1478 61.4871 68.3185 61.3676 68.4038 61.3932C68.6854 61.4743 68.9628 61.5937 69.2188 61.7388C69.2999 61.7857 69.3682 61.9863 69.334 62.0801C69.2999 62.1783 69.1377 62.2295 68.9799 62.3361H68.9756Z" fill="#151515"/>
<path d="M65.0588 77.9351V76.9025C65.1015 76.8727 65.1399 76.8471 65.1826 76.8172C65.3404 76.9964 65.6305 77.1841 65.6262 77.3591C65.622 77.5297 65.3148 77.6918 65.0588 77.9351Z" fill="#151515"/>
<path d="M63.5356 77.2225V78.0759C63.3308 77.9094 63.0748 77.7857 63.0876 77.6961C63.1132 77.5084 63.2796 77.342 63.3863 77.1628C63.4375 77.1841 63.4887 77.2012 63.5356 77.2225Z" fill="#151515"/>
<path d="M64.9351 80.5548C64.9735 80.5377 65.0119 80.5164 65.046 80.4993C65.157 80.6529 65.3447 80.8065 65.3489 80.9644C65.3532 81.1009 65.1527 81.246 65.0417 81.3868C65.0076 81.3655 64.9692 81.3399 64.9351 81.3185V80.5548Z" fill="#151515"/>
<path d="M35.35 27.8529C35.1409 27.6268 34.9532 27.422 34.7441 27.1959C34.9404 27.0081 35.0983 26.8588 35.2561 26.7095C35.7852 27.1575 35.8065 27.3111 35.35 27.8529Z" fill="#151515"/>
</svg>
