<svg width="20" height="20" viewBox="0 0 20 20" fill="none" xmlns="http://www.w3.org/2000/svg">
<path fill-rule="evenodd" clip-rule="evenodd" d="M6.18227 6.11682V16.3608H7.56598V6.11682H11.3303V4.94141H2.41797V6.11682H6.18227ZM13.5063 15.8104C13.9427 16.2666 14.6023 16.4948 15.4851 16.4948C15.7232 16.4948 15.9662 16.465 16.2142 16.4055C16.4721 16.3559 16.6705 16.2865 16.8093 16.1972L16.5862 15.1855C16.4473 15.2251 16.2985 15.2648 16.1398 15.3045C15.991 15.3343 15.8373 15.3491 15.6786 15.3491C15.1529 15.3491 14.7759 15.2103 14.5478 14.9325C14.3197 14.6548 14.2056 14.2432 14.2056 13.6976V10.1565H16.482V9.11498H14.2056V6.91294H12.8516V9.11498H11.4382V10.1565H12.8516V13.8166C12.8516 14.6796 13.0698 15.3442 13.5063 15.8104Z" fill="white"/>
</svg>
