<svg id="Layer_45" viewBox="0 0 36 36" xmlns="http://www.w3.org/2000/svg" data-name="Layer 45">
    <path fill="#001f66" d="m28 3h-3v-1c0-.55-.45-1-1-1h-12c-.55 0-1 .45-1 1v1h-3c-1.65 0-3 1.35-3 3v26c0 1.65 1.35 3 3 3h20c1.65 0 3-1.35 3-3v-26c0-1.65-1.35-3-3-3zm-2.29 23.71c-.2.19-.45.29-.71.29s-.51-.1-.71-.29l-3.1-3.11c-1.2.9-2.65 1.4-4.19 1.4-3.86 0-7-3.14-7-7s3.14-7 7-7 7 3.14 7 7c0 1.54-.5 2.99-1.4 4.19l3.11 3.1c.39.39.39 1.03 0 1.42zm-12.71-23.71h10v2h-10zm9 15c0 1.34-.52 2.59-1.47 3.54-.94.94-2.19 1.46-3.53 1.46-2.76 0-5-2.24-5-5s2.24-5 5-5 5 2.24 5 5z"/>
</svg>