<?xml version="1.0" encoding="iso-8859-1"?>
<!-- Generator: Adobe Illustrator 16.0.0, SVG Export Plug-In . SVG Version: 6.00 Build 0)  -->
<!DOCTYPE svg PUBLIC "-//W3C//DTD SVG 1.1//EN" "http://www.w3.org/Graphics/SVG/1.1/DTD/svg11.dtd">
<svg version="1.1" id="Capa_1" xmlns="http://www.w3.org/2000/svg" xmlns:xlink="http://www.w3.org/1999/xlink" x="0px" y="0px"
	 width="29.726px" height="29.726px" viewBox="0 0 29.726 29.726" 
fill="#001f66"
	 xml:space="preserve">
<g>
	<path d="M29.058,19.203c-0.234-0.266-0.662-0.582-1.357-0.582c-0.014,0-0.031,0.006-0.047,0.006
		c0.479-1.416,0.764-2.924,0.764-4.502C28.417,6.324,22.093,0,14.292,0C6.491,0,0.167,6.324,0.167,14.125
		c0,7.801,6.323,14.126,14.124,14.126c2.28,0,4.432-0.548,6.338-1.509c0.03,0.07,0.067,0.154,0.092,0.209l0.104,1.832
		c0.029,0.529,0.468,0.942,0.998,0.942h5.365c0.553,0,1-0.448,1-1v-2.093c0.213-0.738,1.178-4.121,1.346-5.512
		C29.589,20.668,29.6,19.816,29.058,19.203z M14.088,5.021c1.117,0,1.931,0.837,1.931,1.905c0,1.067-0.813,1.854-1.956,1.854
		c-1.169,0-1.931-0.787-1.931-1.854C12.132,5.858,12.894,5.021,14.088,5.021z M17.313,23.229h-6.045v-1.93l0.837-0.077
		c0.458-0.05,0.737-0.202,0.737-0.812v-7.062c0-0.558-0.153-0.735-0.636-0.735l-0.888-0.053v-2.107h4.546v10.667l1.447,0.076
		L17.313,23.229L17.313,23.229z M28.541,21.001c-0.179,1.469-1.354,5.489-1.354,5.489v2.234h-5.365l-0.114-2.018
		c0,0-1.667-3.676-1.792-5.207c-0.088-1.069,1.236-1.27,1.236-1.27s-0.069-5.423,0.334-7.063c0.049-0.196,0.424-0.293,0.801-0.293
		c0.381,0,0.764,0.098,0.82,0.293c0.434,1.476,0.476,6.458,0.476,6.458c0.202-0.202,0.438-0.271,0.667-0.271
		c0.531,0,1.037,0.375,1.037,0.375c0.242-0.225,0.472-0.305,0.677-0.305c0.511,0,0.87,0.494,0.87,0.494s0.385-0.225,0.5-0.25
		c0.138-0.031,0.258-0.045,0.367-0.045C28.612,19.623,28.586,20.627,28.541,21.001z"/>
</g>
<g>
</g>
<g>
</g>
<g>
</g>
<g>
</g>
<g>
</g>
<g>
</g>
<g>
</g>
<g>
</g>
<g>
</g>
<g>
</g>
<g>
</g>
<g>
</g>
<g>
</g>
<g>
</g>
<g>
</g>
</svg>
