<svg id="Layer_1" viewBox="0 0 64 64" xmlns="http://www.w3.org/2000/svg" data-name="Layer 1">
    <path fill="#FFFFFF" d="m18.14 36h17.7l11.38-15.99v-8.01c0-2.21-1.79-4-4-4h-27.5c-2.21 0-4 1.79-4 4v15.93c.84 1.29 2.08 2.58 3.8 3.12l3.03.95-3.03.95c-1.72.54-2.96 1.83-3.8 3.12v15.93c0 2.21 1.79 4 4 4h27.5c2.21 0 4-1.79 4-4v-10.65l-1.49 2.09-12.92 7.5 2.51-12.94h-17.18c-.55 0-1-.45-1-1s.45-1 1-1zm0-20h22.67c.55 0 1 .45 1 1s-.45 1-1 1h-22.67c-.55 0-1-.45-1-1s.45-1 1-1zm0 12c-.55 0-1-.45-1-1s.45-1 1-1h22.67c.55 0 1 .45 1 1s-.45 1-1 1zm0 18h11.25c.55 0 1 .45 1 1s-.45 1-1 1h-11.25c-.55 0-1-.45-1-1s.45-1 1-1z"/>
    <g>
        <path fill="#FFFFFF" d="m37.53 37.08-1.92 9.92 8.73-5.07z"/>
        <path fill="#FFFFFF" d="m61.22 18.2-.75 1.06-6.82-4.85.75-1.06c1.34-1.88 3.95-2.33 5.83-.99 1.89 1.34 2.33 3.95.99 5.84z"/>
        <g>
            <path fill="#FFFFFF" d="m59.31 20.89-1.41 1.98-3.41-2.42s-3.41-2.43-3.41-2.43l1.41-1.98z"/>
            <path fill="#FFFFFF" d="m38.55 30.7h21.4v3.18h-21.4z" transform="matrix(.58 -.815 .815 .58 -5.61 53.71)"/>
            <path fill="#FFFFFF" d="m49.93 19.65-12.4 17.43 2.59 1.85 12.4-17.44z"/>
        </g>
    </g>
    <path fill="#FFFFFF" d="m56.75 24.5-12.4 17.43-8.74 5.07 1.92-9.92 12.4-17.43 2.59 1.84-12.4 17.43v.01l1.63 1.15 12.4-17.43z"/>
    <path fill="#FFFFFF" d="m51.33 50.8c3.31 1.04 4.42 5.2 4.42 5.2s1.11-4.16 4.42-5.2c-3.31-1.04-4.42-5.2-4.42-5.2s-1.11 4.16-4.42 5.2z"/>
    <path fill="#FFFFFF" d="m3.22 32c4.49 1.41 6 7.06 6 7.06s1.51-5.65 6-7.06c-4.49-1.41-6-7.06-6-7.06s-1.51 5.65-6 7.06z"/>
</svg>