<svg height="512pt" viewBox="-31 0 512 512" width="512pt" xmlns="http://www.w3.org/2000/svg">
    <path fill="#001f66" d="m308.789062 226h-167.578124l83.789062 83.789062zm0 0"/>
    <path fill="#001f66" d="m0 105v15h450v-15c0-57.890625-47.109375-105-105-105h-240c-57.890625 0-105 47.109375-105 105zm105-60h240c8.289062 0 15 6.710938 15 15s-6.710938 15-15 15h-240c-8.289062 0-15-6.710938-15-15s6.710938-15 15-15zm0 0"/>
    <path fill="#001f66" d="m120 247.210938v107.578124l53.789062-53.789062zm0 0"/>
    <path fill="#001f66" d="m0 497c0 8.289062 6.710938 15 15 15h30c8.289062 0 15-6.710938 15-15v-45h330v45c0 8.289062 6.710938 15 15 15h30c8.289062 0 15-6.710938 15-15v-347h-450zm90-286c0-8.207031 6.726562-15 15-15h240c8.207031 0 15 6.726562 15 15v180c0 8.207031-6.726562 15-15 15h-240c-8.269531 0-15-6.789062-15-15zm0 0"/>
    <path fill="#001f66" d="m330 354.789062v-107.578124l-53.789062 53.789062zm0 0"/>
    <path fill="#001f66" d="m235.605469 341.605469c-2.929688 2.929687-6.769531 4.394531-10.605469 4.394531s-7.675781-1.464844-10.605469-4.394531l-19.394531-19.394531-53.789062 53.789062h167.578124l-53.789062-53.789062zm0 0"/>
</svg>