<svg width="80" height="80" viewBox="0 0 80 80" fill="none" xmlns="http://www.w3.org/2000/svg">
<path d="M29.0123 53.1154C28.8313 53.3941 28.6245 53.6786 28.4549 53.986C28.4147 54.0579 28.475 54.2648 28.544 54.3021C29.6933 54.8969 30.8858 55.3452 32.2018 55.3768C33.7592 55.417 34.9919 54.7848 35.9574 53.5924C36.8108 52.5407 37.2877 51.3023 37.6641 50.0236C37.7245 49.8139 37.8251 49.7248 38.0262 49.653C38.3997 49.5179 38.7733 49.3541 39.1123 49.1415C39.4399 48.9375 39.7186 48.6559 40.029 48.4002C40.2761 48.6157 40.5117 48.88 40.799 49.0582C41.1841 49.2967 41.6065 49.4834 42.026 49.6558C42.2127 49.7305 42.3104 49.811 42.3679 50.0093C42.6581 51.0322 43.0345 52.0206 43.6035 52.9258C44.4109 54.2159 45.4942 55.1268 47.0487 55.3423C48.1233 55.4917 49.1635 55.2819 50.1663 54.9026C50.5944 54.7417 51.0025 54.5349 51.4277 54.3596C51.6461 54.2705 51.6921 54.124 51.5771 53.9401C51.4019 53.6585 51.2065 53.3912 50.9852 53.0694C52.6518 53.0177 54.2781 52.7074 55.8757 51.9258C55.5769 53.7562 54.7494 55.2877 53.965 56.8652C53.7351 56.5376 53.5282 56.2417 53.2983 55.9112C53.1632 56.0348 53.0684 56.1095 52.9851 56.1928C51.4938 57.7071 49.6692 58.5375 47.5802 58.8335C46.2901 59.0145 45.0028 59.23 43.7155 59.4369C43.5201 59.4685 43.3247 59.5346 43.138 59.6064C42.4397 59.865 41.7358 60.1121 41.0519 60.4081C40.687 60.5661 40.3623 60.8104 40.0462 61C38.1325 59.934 36.1096 59.23 33.9086 59.0174C32.8914 58.9197 31.8742 58.7329 30.8829 58.4829C29.4347 58.118 28.2049 57.3249 27.1475 56.2761C27.0383 56.1669 26.978 56.0118 26.8946 55.8796C26.8401 55.8997 26.7855 55.9227 26.7309 55.9428C26.524 56.2359 26.3142 56.5319 26.1073 56.825C25.5097 56.1468 24.231 52.9315 24.1965 52.0293C24.9781 52.2764 25.7568 52.5781 26.5642 52.7591C27.3774 52.943 28.2135 53.0091 29.0152 53.124L29.0123 53.1154Z" fill="#001F66"/>
<path d="M43.296 49.5323C41.9915 49.5208 41.049 49.084 40.3048 48.2249C40.0203 47.9002 40.0261 47.9002 39.7445 48.222C38.7244 49.38 37.4314 49.7708 35.9602 49.4116C34.5379 49.0639 33.5954 48.1444 33.2305 46.702C32.9776 45.7049 33.1874 44.7768 33.7276 43.9177C33.9374 43.5815 33.9373 43.5815 33.5667 43.4292C32.038 42.8028 31.1415 41.4724 31.1818 39.8891C31.2364 37.7485 33.3368 36.0445 35.4459 36.4267C35.7016 36.4727 36.0292 36.5962 36.2016 36.4899C36.3424 36.4037 36.305 36.0244 36.3453 35.7744C36.6182 34.0447 38.2475 32.7459 40.1209 32.7631C41.8794 32.7804 43.4684 34.1424 43.704 35.8377C43.7184 35.9382 43.7414 36.0359 43.7529 36.1365C43.7893 36.4372 43.9598 36.5522 44.2644 36.4813C46.6751 35.9239 48.9422 37.7111 48.8532 40.1506C48.7957 41.7051 47.9538 42.774 46.5429 43.3976C46.1119 43.5901 46.1119 43.5786 46.3476 43.9694C47.0573 45.1561 47.1377 46.3802 46.4682 47.5956C45.7528 48.8944 44.5948 49.4863 43.296 49.5294V49.5323ZM41.2473 44.7739C41.4829 44.6619 41.6898 44.567 41.8938 44.4693C42.2185 44.9061 42.5259 45.3026 42.8133 45.7135C42.8794 45.8083 42.8995 45.9491 42.8937 46.0698C42.8851 46.3514 43.046 46.5842 43.3132 46.6273C43.5575 46.6675 43.8132 46.4865 43.8592 46.2394C43.908 45.9779 43.7385 45.748 43.4512 45.679C43.3678 45.6589 43.2558 45.6532 43.2127 45.5957C42.865 45.1503 42.5317 44.6963 42.1897 44.2395C42.3794 44.0584 42.5403 43.9062 42.6955 43.7596C42.7472 43.7883 42.7788 43.8027 42.8046 43.8228C43.1322 44.1016 43.592 44.228 43.7299 44.7279C43.7558 44.8228 44.0747 44.8975 44.2442 44.8745C44.4569 44.8458 44.5201 44.6331 44.477 44.4234C44.431 44.1906 44.2615 44.0987 44.0402 44.0872C43.9454 44.0814 43.8276 44.1159 43.7586 44.0728C43.4684 43.8889 43.1926 43.682 42.9569 43.5154C43.1552 42.9263 43.3391 42.3861 43.523 41.8402C44.1293 41.777 44.2586 41.8143 44.8821 42.0212C45.0172 42.0672 45.2672 41.9781 45.362 41.866C45.4396 41.7741 45.4281 41.4781 45.3448 41.4092C45.2183 41.3057 44.9195 41.231 44.8247 41.3057C44.5804 41.5011 44.3276 41.4724 44.0661 41.4724C43.3305 41.4666 43.4857 41.5586 43.3592 40.8661C43.3564 40.8489 43.3736 40.8259 43.3937 40.7799C43.8535 40.6334 44.3275 40.4725 44.8103 40.3403C44.9453 40.3029 45.112 40.3173 45.2499 40.3604C45.5286 40.4437 45.7872 40.369 45.8993 40.1219C46.0142 39.8662 45.9281 39.6622 45.7011 39.5214C45.4683 39.3748 45.2011 39.4553 45.0344 39.6995C44.9827 39.7771 44.931 39.8891 44.8534 39.915C44.3189 40.0989 43.7759 40.2656 43.2299 40.4408C43.1178 40.2225 43.0173 40.0271 42.911 39.8173C43.0546 39.711 43.1782 39.6162 43.3075 39.53C43.5604 39.3662 43.7672 39.1363 44.135 39.1852C44.3419 39.2139 44.5287 39.007 44.477 38.7829C44.4425 38.6306 44.2816 38.4122 44.158 38.4007C44.0058 38.3864 43.8161 38.53 43.6753 38.645C43.5948 38.7111 43.6063 38.8892 43.5259 38.9553C43.2673 39.1651 42.9857 39.3432 42.7558 39.5012C42.2386 39.1363 41.7616 38.8001 41.2703 38.4553C41.2961 38.3777 41.3248 38.2714 41.3651 38.168C41.4915 37.849 41.5001 37.4755 41.8737 37.2715C41.9541 37.2284 41.9627 36.9152 41.8995 36.7715C41.8076 36.5646 41.5806 36.5388 41.3766 36.6422C41.1668 36.7457 41.1122 36.9296 41.1668 37.1508C41.1927 37.2514 41.2559 37.3663 41.23 37.4525C41.1438 37.7715 41.026 38.0818 40.9168 38.4094C40.6755 38.3663 40.46 38.326 40.2215 38.2829C40.2215 37.7916 40.2042 37.3347 40.2301 36.8778C40.2387 36.7054 40.3163 36.5244 40.4054 36.375C40.5433 36.1394 40.5548 35.9325 40.3623 35.7371C40.1899 35.5589 39.8709 35.5532 39.6928 35.7285C39.4974 35.921 39.4974 36.1279 39.6324 36.3664C39.7244 36.5301 39.7933 36.7169 39.8163 36.9008C39.8479 37.1537 39.8307 37.4152 39.8221 37.6709C39.8019 38.372 39.9715 38.2714 39.2014 38.395C39.1813 38.3979 39.1583 38.3864 39.1267 38.3777C39.1037 38.3231 39.0664 38.2657 39.052 38.2025C38.9658 37.8174 38.6813 37.4726 38.8767 37.0272C38.9112 36.9468 38.7216 36.6997 38.5836 36.625C38.3825 36.5158 38.1526 36.625 38.1038 36.8405C38.0693 36.9899 38.1555 37.1853 38.2302 37.3404C38.2819 37.4496 38.4428 37.5071 38.4888 37.6134C38.6066 37.8979 38.69 38.1996 38.7733 38.4496C38.2676 38.8059 37.7906 39.1421 37.2877 39.4984C36.9947 39.2024 36.4746 39.122 36.3395 38.5846C36.2849 38.3663 36.0464 38.3174 35.8338 38.3864C35.6125 38.4582 35.5177 38.6306 35.5666 38.8605C35.6154 39.0903 35.7763 39.1909 36.0033 39.1967C36.0982 39.1995 36.2188 39.1622 36.2878 39.2082C36.578 39.3921 36.8539 39.5989 37.1469 39.8058C37.0291 40.0271 36.9257 40.2225 36.8165 40.4293C36.3395 40.2771 35.8798 40.1478 35.4287 39.9811C35.2706 39.9236 35.1212 39.8001 35.0062 39.6708C34.8166 39.4639 34.6155 39.3662 34.3569 39.507C34.1212 39.6363 34.0322 39.8403 34.1385 40.1018C34.242 40.3518 34.5149 40.4466 34.7821 40.3546C34.8942 40.3173 35.0264 40.2627 35.1269 40.2914C35.6499 40.4437 36.1642 40.619 36.6929 40.7885C36.6671 40.9638 36.6556 41.119 36.6154 41.2684C36.5953 41.3402 36.5148 41.4552 36.4717 41.4523C36.0637 41.4178 35.6384 41.6046 35.2419 41.3115C35.1356 41.231 34.8453 41.2914 34.716 41.3891C34.627 41.4552 34.6155 41.7195 34.6701 41.8546C34.7534 42.0528 34.9976 42.1649 35.1729 42.0183C35.5522 41.7023 35.9775 41.8488 36.3826 41.8258C36.4544 41.8229 36.578 41.9206 36.6039 41.9953C36.7677 42.4867 36.9085 42.9867 37.0694 43.5269C36.9429 43.6188 36.7619 43.7481 36.5809 43.8774C36.3941 44.0096 36.2332 44.1475 35.9545 44.1073C35.8395 44.0901 35.6298 44.3142 35.5666 44.4693C35.4919 44.659 35.6183 44.84 35.8338 44.8975C36.0637 44.9578 36.2562 44.8975 36.3654 44.6647C36.4142 44.5584 36.4314 44.4119 36.5119 44.3487C36.7763 44.1332 37.0636 43.9464 37.2791 43.7941C37.4917 43.9636 37.6642 44.1016 37.8394 44.2423C37.6297 44.5268 37.44 44.7854 37.2446 45.0469C37.124 45.2078 37.0148 45.3773 36.8797 45.5268C36.8136 45.5986 36.7044 45.6503 36.6067 45.6733C36.2993 45.748 36.1154 45.9779 36.1844 46.248C36.2505 46.5123 36.4372 46.6416 36.7044 46.6244C36.986 46.6072 37.1671 46.3514 37.1441 46.0555C37.1354 45.9635 37.1297 45.8486 37.1786 45.7825C37.4946 45.3371 37.8251 44.9032 38.1584 44.455C38.3825 44.5699 38.5865 44.6762 38.7905 44.7797C38.7503 44.9061 38.7244 45.0009 38.6871 45.0957C38.5578 45.4262 38.5463 45.8083 38.167 46.021C38.0865 46.067 38.0808 46.3802 38.1469 46.521C38.2388 46.7192 38.4543 46.7623 38.667 46.6474C38.8738 46.5353 38.9687 46.3371 38.8652 46.1445C38.7589 45.9434 38.8106 45.7882 38.8767 45.6101C38.9371 45.4434 38.9917 45.2739 39.0405 45.1015C39.0894 44.9291 39.187 44.9004 39.3623 44.9061C39.8048 44.9262 40.2502 44.9118 40.6927 44.9118C40.7674 44.9118 40.8594 44.9032 40.9168 44.9377C41.0404 45.0182 41.2473 45.9377 41.1869 46.0899C41.0892 46.3342 41.1467 46.5296 41.3823 46.6531C41.6122 46.7738 41.8076 46.6962 41.9283 46.4893C42.0605 46.2623 41.9886 46.067 41.7731 45.9118C41.6812 45.8457 41.5835 45.7595 41.5432 45.6589C41.4312 45.3802 41.3507 45.09 41.2473 44.7739Z" fill="#001F66"/>
<path d="M35.4114 30.6023V28.8151H38.6296C38.6296 28.1513 38.6411 27.5278 38.6152 26.9071C38.6124 26.8066 38.4457 26.6945 38.3337 26.6227C36.2821 25.3354 36.0953 22.235 37.9831 20.7236C39.9543 19.1432 42.8708 20.2897 43.2903 22.824C43.5632 24.4762 43.0115 25.7836 41.5835 26.6974C41.503 26.7491 41.4168 26.8612 41.4168 26.9502C41.4024 27.5508 41.4082 28.1542 41.4082 28.7978H44.6235V30.5736H41.4197V32.7258C40.4772 32.4126 39.5778 32.404 38.6382 32.7258V30.6023H35.4114ZM41.911 22.9878C41.7271 22.1028 41.0117 21.4218 40.1899 21.3414C39.414 21.2638 38.644 21.7293 38.2963 22.5166C37.9113 23.393 37.986 24.2435 38.5578 25.0164C39.2618 25.9618 40.5548 26.025 41.3594 25.1716C41.593 24.9222 41.7495 24.6424 41.8487 24.3308C41.9947 23.8727 42.0034 23.4498 41.911 22.9878Z" fill="#001F66"/>
<path d="M47.7153 36.8979C50.0169 35.9756 51.4737 34.0964 52.784 32.0649C53.0972 31.5764 53.3816 31.0678 53.7006 30.5851C54.1287 29.9357 54.7494 29.5765 55.5223 29.5593C57.367 29.5191 59.2118 29.5104 61.0593 29.4817C61.7978 29.4702 62.5334 29.43 63.2719 29.4185C63.6713 29.4127 63.7173 29.4903 63.6627 29.8754C63.4558 31.3753 62.4501 32.0821 61.1025 32.3867C60.3008 32.5677 59.4732 32.6338 58.6543 32.7344C57.8124 32.835 56.9647 32.9068 56.1228 33.0074C55.6344 33.0648 55.3356 33.3665 55.0396 33.7573C54.4822 34.4929 53.8816 35.2055 53.2207 35.8492C52.0685 36.9727 50.7467 37.8605 49.2497 38.4841C48.9767 38.599 48.8704 38.553 48.7152 38.2915C48.4279 37.8088 48.0601 37.3721 47.7182 36.9008L47.7153 36.8979Z" fill="#001F66"/>
<path d="M32.3369 36.9008C31.926 37.4439 31.5179 37.9783 31.0553 38.5875C30.6013 38.372 30.0554 38.1565 29.5468 37.8663C27.8888 36.9181 26.4636 35.6911 25.2769 34.1941C25.1936 34.0906 25.0959 33.9872 25.0471 33.8665C24.7942 33.2487 24.2914 33.0189 23.6765 32.9556C22.688 32.8579 21.6995 32.7631 20.7082 32.6654C19.829 32.5792 18.9583 32.47 18.1308 32.1224C17.0992 31.6913 16.5246 30.9213 16.3694 29.8208C16.3292 29.5334 16.424 29.4013 16.7257 29.4099C18.3693 29.453 20.0129 29.4961 21.6536 29.5277C22.5932 29.5449 23.5328 29.5277 24.4724 29.5507C25.2999 29.5708 25.9493 29.9386 26.386 30.6512C27.3055 32.1453 28.2049 33.6539 29.452 34.9124C30.2766 35.7457 31.1933 36.4497 32.3024 36.8692C32.3311 36.8807 32.3541 36.9094 32.3369 36.8951V36.9008Z" fill="#001F66"/>
<path d="M2.36158 32.2919C2.62019 32.2718 2.8271 32.2517 3.03398 32.2373C4.97353 32.1051 6.91307 31.9844 8.85261 31.8379C10.5221 31.7143 12.1915 31.5678 13.8609 31.4184C14.6281 31.3494 15.3924 31.2603 16.1596 31.1684C16.3751 31.1425 16.5188 31.1741 16.6682 31.3724C17.0763 31.9183 17.5245 32.4356 17.9584 32.9643C17.9412 32.9987 17.9211 33.0303 17.9038 33.0648C17.3119 33.1338 16.72 33.2056 16.128 33.266C14.6396 33.4211 13.1512 33.5763 11.6628 33.7171C10.2835 33.8464 8.90433 33.9613 7.52223 34.0763C6.8987 34.128 6.2723 34.1452 5.65164 34.2171C4.98789 34.2946 4.42181 34.0676 3.87299 33.7516C3.26383 33.4039 2.75237 32.9528 2.36446 32.289L2.36158 32.2919Z" fill="#001F66"/>
<path d="M62.0392 33.0533C62.4443 32.539 62.8236 32.108 63.1426 31.6396C63.4328 31.2144 63.769 31.1454 64.2661 31.2086C65.8407 31.4011 67.4211 31.5391 68.9986 31.6741C70.5674 31.8092 72.1392 31.9212 73.7109 32.0304C74.9034 32.1137 76.0987 32.177 77.2912 32.2488C77.4004 32.2545 77.5096 32.2775 77.659 32.2948C77.5958 32.404 77.5584 32.493 77.5009 32.5706C76.9176 33.3838 76.1073 33.878 75.1735 34.1883C75.0298 34.2343 74.8632 34.2314 74.708 34.2199C72.7943 34.0705 70.8778 33.924 68.9641 33.7544C67.2745 33.605 65.5849 33.4326 63.8954 33.266C63.3121 33.2085 62.7288 33.1309 62.0334 33.0505L62.0392 33.0533Z" fill="#001F66"/>
<path d="M16.3464 30.8753C15.766 30.9385 15.2143 31.0046 14.6597 31.0563C12.9932 31.2115 11.3237 31.3667 9.65427 31.5075C8.41871 31.6138 7.18317 31.7057 5.94474 31.789C4.79538 31.8666 3.64599 31.9212 2.4995 31.9959C2.24377 32.0132 2.06563 31.9471 1.90185 31.7316C1.4967 31.1971 1.05707 30.6914 0.646174 30.1627C0.496758 29.9731 0.384712 29.7547 0.232422 29.5104C0.327244 29.4903 0.373193 29.4731 0.422041 29.4731C2.61444 29.5076 4.80397 29.542 6.99638 29.5823C8.2147 29.6053 9.43301 29.6426 10.6513 29.6685C12.3064 29.7001 13.9615 29.7346 15.6137 29.7518C15.9183 29.7547 16.1223 29.792 16.1424 30.1656C16.1539 30.3897 16.266 30.6081 16.3435 30.8724L16.3464 30.8753Z" fill="#001F66"/>
<path d="M63.7172 30.8638C63.7977 30.5276 63.8437 30.2259 63.9528 29.9529C63.9902 29.8552 64.1856 29.7719 64.312 29.7662C65.4642 29.7288 66.6136 29.7058 67.7658 29.6857C70.5818 29.6311 73.4006 29.5765 76.2165 29.5334C77.3889 29.5162 78.5612 29.5306 79.768 29.5306C79.7134 29.634 79.6675 29.769 79.5841 29.8754C79.064 30.5449 78.5382 31.2115 78.0009 31.8695C77.9377 31.9471 77.7911 31.9959 77.6848 31.9902C76.4004 31.9241 75.1189 31.858 73.8373 31.7689C72.5443 31.6799 71.2542 31.5707 69.9611 31.4615C68.5474 31.3408 67.1366 31.2115 65.7257 31.0822C65.1913 31.0333 64.6597 30.9787 64.1253 30.9242C63.9931 30.9098 63.8638 30.8868 63.7144 30.8667L63.7172 30.8638Z" fill="#001F66"/>
<path d="M33.1357 44.4119C32.8454 45.1992 32.7047 45.9951 32.969 46.7824C33.1443 47.3025 33.4259 47.7881 33.6902 48.2737C33.7736 48.4231 33.7966 48.5093 33.7017 48.653C32.9604 49.7708 32.2305 50.8943 31.4892 52.0091C31.4346 52.0925 31.2881 52.1902 31.2076 52.1729C30.0927 51.9201 28.9893 51.627 28.1072 50.8397C27.8745 50.6328 27.6504 50.4087 27.455 50.1673C27.0498 49.6644 27.0843 49.8052 27.4147 49.3311C28.1906 48.2163 29.1072 47.2249 30.1157 46.3169C30.9088 45.6043 31.7565 44.9722 32.7363 44.5326C32.8282 44.4923 32.9231 44.4578 33.0179 44.4234C33.0466 44.4147 33.0782 44.4176 33.1357 44.4119Z" fill="#001F66"/>
<path d="M5.36143 34.5331C6.33551 34.4556 7.26937 34.3923 8.20322 34.309C9.57096 34.1883 10.9387 34.0619 12.3064 33.9297C13.5075 33.8148 14.7057 33.6941 15.9068 33.5734C16.5964 33.5045 17.2832 33.424 17.9728 33.3608C18.0705 33.3522 18.2026 33.3809 18.2658 33.4441C18.4957 33.6711 18.7026 33.9182 18.967 34.2142C18.5532 34.3521 18.1825 34.4929 17.8061 34.5964C14.7402 35.444 11.634 36.1078 8.50778 36.6882C7.89288 36.8031 7.36418 36.6566 6.86709 36.3118C6.31539 35.9296 5.86714 35.4555 5.53383 34.8722C5.47636 34.7688 5.4304 34.6596 5.36718 34.5303L5.36143 34.5331Z" fill="#001F66"/>
<path d="M61.0794 34.2171C61.3438 33.9211 61.5536 33.674 61.7806 33.4441C61.838 33.3838 61.9559 33.3493 62.0421 33.3579C63.2977 33.4815 64.5505 33.6223 65.8062 33.7487C67.0619 33.8751 68.3176 33.9987 69.5732 34.1107C71.2628 34.2602 72.9523 34.3981 74.662 34.5446C74.6419 34.6078 74.6304 34.6739 74.5988 34.7285C74.1822 35.5072 73.5931 36.1106 72.8116 36.5359C72.3087 36.8117 71.803 36.7284 71.2829 36.6336C68.2658 36.079 65.2718 35.4296 62.315 34.6107C61.9185 34.5015 61.5306 34.3607 61.0823 34.2171H61.0794Z" fill="#001F66"/>
<path d="M71.6047 37.0071C70.9582 37.76 70.2082 38.2887 69.2141 38.441C68.398 38.5645 67.6222 38.4639 66.8493 38.1795C64.6224 37.3577 62.3897 36.556 60.1571 35.7428C59.9502 35.6681 59.7491 35.5704 59.5364 35.4814C59.6945 35.1911 59.8698 34.9613 60.2031 34.9009C60.318 34.8808 60.4531 34.8176 60.522 34.7285C60.772 34.4067 61.0364 34.5073 61.3697 34.5935C63.5448 35.1624 65.7257 35.7227 67.9153 36.2428C69.0847 36.5215 70.2772 36.7083 71.4582 36.941C71.5013 36.9497 71.5386 36.9755 71.6047 37.0071Z" fill="#001F66"/>
<path d="M8.43307 36.9841C9.15717 36.8491 9.8468 36.7313 10.5307 36.5876C13.223 36.0244 15.9211 35.4727 18.5532 34.6509C18.5963 34.6366 18.6423 34.6308 18.6796 34.6107C18.9928 34.4297 19.2716 34.424 19.5215 34.7372C19.5905 34.8262 19.7255 34.8866 19.8405 34.9096C20.1738 34.9699 20.3462 35.1998 20.5157 35.5043C19.6077 35.852 18.7198 36.2112 17.8205 36.5359C16.1539 37.1393 14.4816 37.7312 12.8093 38.3117C11.249 38.8547 9.5106 38.3346 8.43595 36.987L8.43307 36.9841Z" fill="#001F66"/>
<path d="M21.7398 36.5416C20.9726 37.0186 20.2197 37.4956 19.4612 37.9554C18.9756 38.2513 18.4641 38.507 17.9814 38.8059C17.0762 39.3691 16.0936 39.4466 15.0792 39.2857C14.5304 39.1967 13.9931 39.0501 13.4558 38.9093C13.2575 38.8576 13.0736 38.7455 12.8007 38.622C12.996 38.5473 13.1023 38.507 13.2115 38.4668C15.6482 37.5732 18.082 36.6767 20.5215 35.7859C20.6192 35.7515 20.7743 35.7428 20.8462 35.7974C21.1479 36.0216 21.4295 36.2744 21.7398 36.5359V36.5416Z" fill="#001F66"/>
<path d="M58.275 36.5646C58.617 36.2773 58.9014 36.0273 59.2003 35.7974C59.2606 35.7515 59.3899 35.74 59.4675 35.7687C62.0104 36.6939 64.5534 37.6278 67.0964 38.5588C67.1165 38.5645 67.128 38.5875 67.1711 38.6277C66.7286 38.9438 66.2228 39.0903 65.72 39.1564C64.9614 39.2541 64.1914 39.3231 63.4299 39.2915C63.019 39.2742 62.5851 39.0789 62.2173 38.872C60.9071 38.1335 59.6169 37.3548 58.2808 36.5675L58.275 36.5646Z" fill="#001F66"/>
<path d="M29.4031 28.6341C29.702 28.3553 29.975 28.1025 30.3313 27.772C30.3629 27.8295 30.4117 27.9473 30.4893 28.0335C32.4001 30.1742 34.3166 32.312 36.2361 34.4441C36.3769 34.5992 36.397 34.7257 36.3165 34.9182C36.193 35.2113 36.1125 35.5245 35.9976 35.8721C33.7793 33.4384 31.5754 31.0161 29.4031 28.6312V28.6341Z" fill="#001F66"/>
<path d="M56.8297 37.8404C56.9504 37.5962 57.0481 37.395 57.1429 37.1968C57.209 37.056 57.2579 36.806 57.3412 36.7916C57.6142 36.7485 57.9417 36.714 58.1773 36.8232C58.6802 37.0589 59.1284 37.4037 59.6111 37.6824C60.5967 38.2484 61.5881 38.8059 62.5823 39.3576C62.7748 39.4639 62.9932 39.5242 63.2949 39.6449C63.0765 39.8087 62.9271 39.9754 62.7403 40.0529C61.884 40.4006 60.999 40.3748 60.1083 40.2052C60.0336 40.1909 59.9588 40.1535 59.8985 40.1075C58.8727 39.3547 57.8526 38.599 56.8268 37.8433L56.8297 37.8404Z" fill="#001F66"/>
<path d="M16.832 39.6133C18.579 38.9697 20.0675 37.8692 21.6478 36.9353C21.8059 36.8405 21.9869 36.737 22.1622 36.7227C22.6736 36.6853 22.7369 36.7485 22.9208 37.2514C22.9581 37.3548 23.0127 37.4525 23.0644 37.5531C23.1104 37.6393 23.1621 37.7255 23.2282 37.8347C22.188 38.6019 21.1622 39.3719 20.1163 40.1133C19.941 40.2368 19.6767 40.2541 19.4468 40.2799C18.7745 40.3604 18.1049 40.346 17.4642 40.1161C17.2257 40.0299 17.0188 39.8604 16.7975 39.7282C16.809 39.6909 16.8205 39.6535 16.8349 39.6162L16.832 39.6133Z" fill="#001F66"/>
<path d="M24.8344 34.1826C24.1592 34.3406 23.4926 34.5216 22.8173 34.6452C21.9955 34.7946 21.1622 34.8981 20.3232 34.7486C19.9726 34.6854 19.6652 34.5533 19.4267 34.2774C18.9468 33.72 18.4583 33.1683 17.9785 32.6108C17.9095 32.5304 17.8636 32.4327 17.7601 32.2718C19.0302 32.8723 20.3232 32.9154 21.599 33.039C22.2972 33.1051 22.9954 33.1683 23.6908 33.2459C24.2253 33.3062 24.6477 33.5303 24.8287 34.1826H24.8344Z" fill="#001F66"/>
<path d="M62.2317 32.3982C61.9903 32.7028 61.7317 33.0476 61.4559 33.3723C61.2318 33.6366 60.9674 33.8665 60.7548 34.1366C60.387 34.6107 59.8813 34.7802 59.3181 34.8032C57.9417 34.8607 56.6142 34.5849 55.3097 34.1768C55.2781 34.1682 55.2551 34.1395 55.2263 34.1194C55.3786 33.5389 55.801 33.3005 56.3498 33.2459C57.5452 33.1223 58.7463 33.0476 59.9358 32.8896C60.7059 32.7861 61.4616 32.5677 62.2288 32.3982H62.2317Z" fill="#001F66"/>
<path d="M23.4121 38.0387C23.9063 38.4812 24.4092 38.8432 25.0901 38.8174C25.1016 38.8461 25.116 38.872 25.1275 38.9007C24.2597 39.5759 23.4293 40.3087 22.5041 40.8948C22.1076 41.1477 21.5185 41.1534 21.0157 41.1621C20.5904 41.1678 20.4008 40.777 20.2399 40.4035C21.2973 39.6133 22.3489 38.8289 23.4092 38.0358L23.4121 38.0387Z" fill="#001F66"/>
<path d="M59.7922 40.3834C59.5307 41.0816 59.1629 41.2827 58.4733 41.1707C57.8411 41.0672 57.2837 40.8374 56.7952 40.4092C56.1918 39.8805 55.5568 39.3892 54.8672 38.8231C55.5711 38.8317 56.0539 38.5415 56.505 38.1594C56.5682 38.1076 56.7722 38.1479 56.8642 38.214C57.7233 38.8404 58.5681 39.4783 59.4215 40.1133C59.5451 40.2052 59.6715 40.2943 59.795 40.3805L59.7922 40.3834Z" fill="#001F66"/>
<path d="M52.6403 36.7686C52.9765 36.4641 53.261 36.194 53.5627 35.9497C53.6316 35.8923 53.7954 35.8836 53.8787 35.9239C54.7666 36.3577 55.689 36.6623 56.6803 36.7313C56.8872 36.7457 56.9475 36.8405 56.8987 37.0387C56.5855 38.372 54.8988 38.9725 53.8672 38.0875C53.4219 37.7054 53.0598 37.2284 52.6403 36.7715V36.7686Z" fill="#001F66"/>
<path d="M27.4061 36.7744C26.9723 37.237 26.5872 37.7427 26.1131 38.1335C25.1017 38.9668 23.415 38.3174 23.1392 37.0272C23.0932 36.8175 23.1794 36.7428 23.3748 36.7284C24.3546 36.6595 25.2683 36.3606 26.1447 35.9296C26.2338 35.8865 26.3976 35.8808 26.4637 35.9354C26.774 36.1882 27.0642 36.4669 27.4061 36.7744Z" fill="#001F66"/>
<path d="M59.3784 35.1164C58.8267 36.079 57.7693 36.5905 56.7464 36.4641C55.9102 36.3606 55.1028 36.1595 54.3356 35.8147C54.2063 35.7572 54.0799 35.6854 53.9305 35.6107C54.2724 35.2199 54.5885 34.8463 54.9218 34.4872C54.9678 34.4354 55.0999 34.4211 55.1746 34.4441C56.5309 34.8665 57.913 35.1337 59.3784 35.1136V35.1164Z" fill="#001F66"/>
<path d="M26.1131 35.6078C25.3172 36.0445 24.4925 36.2917 23.6247 36.4238C23.4925 36.4439 23.3575 36.4554 23.2253 36.4727C22.2685 36.5934 21.1622 36.0187 20.691 35.1595C21.28 35.1021 21.8806 35.0848 22.4668 34.9814C23.2512 34.8406 24.027 34.6423 24.8028 34.4556C24.9723 34.4153 25.0758 34.4125 25.1993 34.5647C25.4752 34.9124 25.7827 35.2371 26.1131 35.6107V35.6078Z" fill="#001F66"/>
<path d="M51.0025 52.3539C50.5801 51.8913 50.1376 51.4057 49.6922 50.9201C48.79 49.9288 47.8906 48.9346 46.9797 47.949C46.8159 47.7738 46.7498 47.633 46.8763 47.4002C46.9912 47.1876 47.0458 46.9433 47.1492 46.6474C48.6721 48.3484 50.1778 50.0294 51.7122 51.7419C51.4766 51.9431 51.2524 52.1356 50.9996 52.3539H51.0025Z" fill="#001F66"/>
<path d="M24.5385 42.139C25.5068 41.4523 26.4004 40.8173 27.3142 40.1707C27.6504 40.5845 28.1101 40.9293 28.8687 40.892C28.4118 41.481 28.0411 42.0356 27.5843 42.5126C27.4291 42.6763 27.0642 42.685 26.7941 42.685C26.2884 42.685 25.7712 42.6706 25.2769 42.5786C25.0212 42.5298 24.8 42.3028 24.5385 42.1419V42.139Z" fill="#001F66"/>
<path d="M55.4562 42.0988C55.1229 42.547 54.6402 42.7051 54.1201 42.7194C53.6776 42.7309 53.2265 42.6936 52.7868 42.6304C52.6115 42.6045 52.4104 42.4867 52.2955 42.3488C51.9277 41.9034 51.5915 41.4293 51.1979 40.9063C51.9162 40.9264 52.3961 40.6018 52.7294 40.1736C53.646 40.823 54.5396 41.4552 55.4534 42.1017L55.4562 42.0988Z" fill="#001F66"/>
<path d="M25.389 39.0271C25.7309 39.5443 26.0585 40.0817 26.8515 40.096C26.7079 40.2311 26.6131 40.346 26.4952 40.4265C25.7941 40.9035 25.0988 41.3891 24.3776 41.8344C24.0327 42.0471 23.6334 41.981 23.2914 41.7856C23.0472 41.6477 22.846 41.435 22.6248 41.254C23.573 40.4897 24.4724 39.7627 25.3861 39.0243L25.389 39.0271Z" fill="#001F66"/>
<path d="M57.3843 41.2282C57.0251 41.7138 56.5768 42.0011 55.9533 41.9293C55.8786 41.9206 55.7895 41.9149 55.7321 41.8747C54.9275 41.3316 54.1258 40.7857 53.327 40.2368C53.2925 40.2138 53.2724 40.1707 53.2178 40.1018C53.9678 40.0817 54.3184 39.5645 54.6574 39.0214C55.5712 39.7598 56.4705 40.4839 57.39 41.2282H57.3843Z" fill="#001F66"/>
<path d="M48.2182 42.5729C48.3819 42.2453 48.5859 42.0557 49.0112 42.0672C49.6893 42.0816 50.1462 41.6161 50.583 41.1592C50.6663 41.073 50.7381 40.9782 50.8387 40.8575C51.0915 41.2138 51.3243 41.55 51.5685 41.8775C51.8156 42.208 52.0742 42.5269 52.3271 42.8516C51.5714 43.6274 49.2497 43.4694 48.221 42.5729H48.2182Z" fill="#001F66"/>
<path d="M31.8254 42.5758C30.7249 43.4838 28.3773 43.6102 27.7251 42.866C28.2164 42.2109 28.7049 41.5528 29.1934 40.9006C29.4836 41.1678 29.7508 41.4753 30.0755 41.6908C30.3514 41.8747 30.6962 42.0499 31.0123 42.0557C31.426 42.0643 31.6501 42.2252 31.8254 42.5758Z" fill="#001F66"/>
<path d="M25.5815 38.7656C26.5269 38.418 27.0067 37.622 27.6188 36.9295C27.9406 37.1594 28.2538 37.3807 28.6446 37.6623C28.2911 38.2312 27.9865 38.8404 27.5728 39.3604C27.0527 40.0156 26.4033 39.9552 25.9033 39.2829C25.7913 39.1334 25.7051 38.9639 25.5815 38.7656Z" fill="#001F66"/>
<path d="M54.4218 38.7513C54.4132 38.7973 54.416 38.8231 54.4074 38.8404C54.1718 39.2771 53.9362 39.7369 53.3701 39.7915C52.7811 39.8489 52.4564 39.4323 52.1834 39.0013C51.9104 38.5703 51.6835 38.1076 51.4306 37.6479C51.7754 37.3979 52.0886 37.1709 52.4219 36.9295C53.034 37.6077 53.5138 38.4266 54.4218 38.7513Z" fill="#001F66"/>
<path d="M48.402 31.5304C46.9222 33.0246 45.4712 34.4872 44.023 35.9497C44.0287 35.9555 44.0172 35.9497 44.0144 35.944C43.7788 35.3923 43.9971 35.0274 44.4195 34.6366C45.5401 33.5935 46.6062 32.4959 47.6923 31.4184C47.7957 31.3178 47.8791 31.1971 47.9998 31.0506C48.1751 31.2603 48.3072 31.4184 48.402 31.5333V31.5304Z" fill="#001F66"/>
<path d="M52.58 39.9811C52.3328 40.1593 52.0886 40.3949 51.7955 40.527C51.2898 40.7598 50.8703 40.5529 50.6893 40.0127C50.5111 39.4869 50.3588 38.9553 50.1835 38.3892C50.5082 38.1996 50.8416 38.0071 51.1892 37.8059C51.3904 38.1852 51.5599 38.5616 51.7783 38.9064C51.9966 39.2513 52.2639 39.5645 52.5771 39.9782L52.58 39.9811Z" fill="#001F66"/>
<path d="M27.5354 39.9811C28.0095 39.2369 28.4492 38.5473 28.9003 37.8375C29.1876 38.0013 29.5152 38.1881 29.86 38.3864C29.6761 38.9725 29.5181 39.5587 29.3083 40.1276C29.1531 40.5472 28.7566 40.7081 28.3141 40.5644C27.955 40.4466 27.6705 40.2225 27.5354 39.9782V39.9811Z" fill="#001F66"/>
<path d="M49.9077 38.5099C50.06 38.984 50.1979 39.4179 50.3358 39.8518C50.3675 39.9466 50.3847 40.0472 50.4192 40.142C50.4795 40.3058 50.6404 40.4983 50.5944 40.6161C50.5111 40.8345 50.3301 41.027 50.1548 41.1937C49.7784 41.5471 49.379 41.8804 48.7497 41.7655C49.1692 40.8345 49.2755 39.8805 48.9796 38.895C49.2899 38.7685 49.5744 38.6478 49.9077 38.5099Z" fill="#001F66"/>
<path d="M30.1301 38.5099C30.4548 38.6421 30.7393 38.757 31.0611 38.8863C30.7795 39.8633 30.8628 40.8173 31.291 41.7454C31.2737 41.7741 31.2565 41.8 31.2392 41.8287C30.9892 41.7684 30.722 41.7482 30.4979 41.6362C30.2537 41.5155 30.0381 41.3201 29.8313 41.1362C29.5324 40.869 29.3371 40.6219 29.5985 40.1478C29.8658 39.6622 29.9548 39.0788 30.133 38.5099H30.1301Z" fill="#001F66"/>
<path d="M52.4938 26.8382C52.6288 26.9675 52.7409 27.0738 52.8242 27.1543C51.6633 28.3266 50.5283 29.4731 49.379 30.6339C49.2583 30.4903 49.1233 30.3322 48.9911 30.1771C49.4824 29.6771 49.9566 29.1915 50.4364 28.7088C50.81 28.3323 50.8128 28.3352 50.5169 27.8985C50.6002 27.8065 50.6864 27.7088 50.8272 27.5508C50.9421 27.7261 51.0427 27.8841 51.1548 28.0594C51.6375 27.6197 52.0484 27.2433 52.4938 26.8382Z" fill="#001F66"/>
<path d="M48.7095 31.9126C48.7239 31.9327 48.7871 32.0074 48.8704 32.1051C48.2641 32.7401 47.6665 33.3694 47.0659 33.9987C46.5114 34.582 45.9309 35.1452 45.408 35.7543C45.1235 36.0848 44.7931 36.1566 44.477 36.1566C45.8648 34.7659 47.2843 33.3407 48.7095 31.9126Z" fill="#001F66"/>
<path d="M28.5728 26.5365C29.0038 26.5365 29.7307 27.0048 29.8974 27.3927C30.0066 27.6456 29.8572 27.9473 29.5325 28.1657C29.2853 28.3323 29.0727 28.3036 28.8888 28.0824C28.5842 27.7203 28.3256 27.3382 28.2883 26.8468C28.271 26.6399 28.3601 26.5307 28.5756 26.5365H28.5728Z" fill="#001F66"/>
<path d="M49.7468 31.5189C49.5686 31.7086 49.4077 31.8781 49.2181 32.0793C48.8101 31.585 48.4135 31.1052 48.017 30.6224C48.1951 30.4472 48.356 30.2863 48.5486 30.0995C48.948 30.5736 49.3474 31.0477 49.7439 31.5189H49.7468Z" fill="#001F66"/>
<path d="M49.6979 31.0937C49.7066 30.9816 49.6692 30.8265 49.7295 30.7632C50.2611 30.2058 50.8071 29.6627 51.3501 29.1168C51.3875 29.1254 51.422 29.134 51.4593 29.1426C51.4478 29.2375 51.4737 29.3668 51.4191 29.4242C50.8961 29.9903 50.3617 30.5449 49.8301 31.1023L49.6979 31.0937Z" fill="#001F66"/>
<path d="M40.029 44.6963C38.2906 44.6992 36.8883 43.3516 36.8854 41.6735C36.8797 39.9639 38.2704 38.6019 40.0175 38.6019C41.7559 38.6019 43.1552 39.9495 43.1609 41.6276C43.1667 43.3372 41.7817 44.6935 40.029 44.6992V44.6963ZM41.7817 41.639C41.7788 40.7109 40.9829 39.9323 40.0318 39.9265C39.0721 39.9179 38.2618 40.7138 38.2647 41.6563C38.2676 42.5988 39.0778 43.3746 40.0491 43.3631C41.0001 43.3516 41.7875 42.57 41.7846 41.639H41.7817Z" fill="#001F66"/>
<path d="M41.7128 23.5395C41.7214 24.0136 41.595 24.4446 41.3134 24.8268C40.6582 25.7233 39.4485 25.7463 38.7618 24.8756C38.1957 24.1602 38.1785 23.0051 38.7244 22.2752C39.4256 21.3385 40.7243 21.3557 41.3507 22.3442C41.5949 22.7297 41.7063 23.091 41.7157 23.5395H41.7128Z" fill="#001F66"/>
<path d="M40.0232 43.0729C39.1986 43.0729 38.5607 42.458 38.5578 41.6563C38.5578 40.8431 39.2072 40.2081 40.0376 40.2138C40.8479 40.2196 41.4886 40.8546 41.4858 41.6534C41.4858 42.4522 40.8479 43.07 40.0232 43.07V43.0729Z" fill="#001F66"/>
</svg>
