<svg width="129" height="128" viewBox="0 0 129 128" fill="none" xmlns="http://www.w3.org/2000/svg">
<path d="M122.051 58.5942C121.083 58.6454 120.31 59.1233 119.615 59.7462C118.143 61.0646 117.396 62.7926 116.871 64.6401C116.278 66.7265 115.967 68.8683 116.027 71.0187C116.15 75.2555 114.636 78.9078 112.285 82.2955C109.84 85.8113 106.858 88.8065 103.461 91.4049C103.402 91.4518 103.329 91.4859 103.184 91.567C103.235 91.2598 103.41 91.1147 103.534 90.9483C106.653 86.7073 108.795 82.0225 109.917 76.8726C110.258 75.2982 110.343 73.6939 110.548 72.1025C110.983 68.6977 111.879 65.4507 113.97 62.6475C115.852 60.1217 118.331 58.5558 121.479 58.1163C121.667 58.0907 121.863 58.1163 122.055 58.1163V58.5985L122.051 58.5942Z" fill="#151515"/>
<path d="M87.8112 69.2694C88.865 69.7174 89.7354 70.2593 90.576 70.8481C93.2768 72.7339 94.6591 75.3963 95.1285 78.5921C95.1413 78.6646 95.1456 78.7755 95.1029 78.8182C95.009 78.9078 94.928 78.8054 94.8597 78.7499C94.6122 78.5409 94.3776 78.3275 94.1301 78.1185C93.8016 77.8411 93.473 77.551 93.0037 77.4059C93.0122 77.9265 93.1744 78.3915 93.281 78.8609C93.6736 80.5377 94.049 82.2145 94.1472 83.9339C94.2837 86.2635 93.7802 88.4054 92.1717 90.1931C91.9456 90.4449 91.7365 90.7137 91.5573 90.9953C91.1648 91.6225 91.0538 92.2753 91.4421 92.9537C91.5274 93.0987 91.6 93.2395 91.4378 93.3846C91.2928 93.5126 91.1733 93.423 91.0453 93.3547C90.3669 92.9963 89.7098 93.0731 89.0784 93.4614C88.8053 93.6278 88.5536 93.8326 88.3104 94.0417C86.4842 95.6545 84.3253 96.1665 81.953 95.9958C79.9392 95.8507 77.9978 95.3387 76.0394 94.895C75.8816 94.8609 75.6725 94.6902 75.5573 94.8865C75.4634 95.0443 75.6341 95.2193 75.7365 95.3558C76.0309 95.7398 76.3424 96.1067 76.6453 96.4779C76.752 96.6102 76.9013 96.7211 76.9226 96.9131C73.4069 97.0881 68.3808 93.2225 67.4336 89.6129C67.6469 89.5873 67.8005 89.7195 67.9584 89.8049C69.3834 90.5899 70.9066 90.9569 72.528 91.0081C73.3472 91.0337 74.1664 91.0806 74.9856 91.0763C75.3482 91.0763 75.4848 91.1574 75.3397 91.5542C74.849 92.9025 74.8789 92.9366 76.3168 92.9153C77.1914 92.9025 78.0405 92.7617 78.864 92.4502C80.4938 91.8315 81.2661 90.4662 80.9888 88.7382C80.7456 87.2321 80.0885 85.8966 79.3205 84.6081C78.4928 83.2257 77.52 81.9457 76.4917 80.7083C76.2954 80.4694 76.1632 80.4353 75.92 80.6614C73.121 83.2598 69.8186 84.8129 66.017 85.2054C61.1914 85.7003 56.8949 84.3563 53.136 81.2971C52.9866 81.1734 52.8416 81.0454 52.6965 80.9217C52.2926 80.5803 51.9271 80.6116 51.6 81.0155C50.2773 82.6411 49.0485 84.3265 48.1525 86.2337C47.6661 87.2747 47.2906 88.3457 47.312 89.519C47.3376 90.7137 47.8666 91.6182 48.9162 92.1899C50.1749 92.8726 51.5488 92.9622 52.9482 92.9153C53.1786 92.9067 53.2512 92.783 53.2554 92.5739C53.2597 92.2283 53.1616 91.9041 53.0208 91.5969C52.8458 91.2171 52.9397 91.0763 53.3621 91.0806C54.5525 91.1019 55.7386 91.0422 56.9248 90.9227C58.145 90.8033 59.2714 90.4107 60.3466 89.8305C60.4874 89.7537 60.6368 89.6897 60.7818 89.6257C60.8074 89.6129 60.8416 89.6257 60.8885 89.6257C60.8928 89.6683 60.9184 89.7238 60.9013 89.7537C59.7536 92.1643 58.2432 94.2678 55.8538 95.6075C54.5568 96.3329 53.1402 96.6785 51.6981 96.9387C51.6085 96.9558 51.4976 97.0198 51.4421 96.9046C51.3952 96.8022 51.489 96.7254 51.5488 96.6571C51.9456 96.1921 52.3765 95.7569 52.688 95.2278C52.752 95.1211 52.8672 94.9974 52.7818 94.8779C52.6922 94.7499 52.5472 94.8438 52.4234 94.8694C50.7466 95.2534 49.0826 95.6758 47.376 95.9062C44.5557 96.2859 41.9701 95.8678 39.7941 93.8497C39.0517 93.1627 38.1813 92.847 37.1957 93.4145C37.0848 93.4785 36.9824 93.4742 36.8885 93.3803C36.7776 93.2737 36.7818 93.1585 36.8544 93.0305C37.4389 92.0278 37.0378 91.1873 36.368 90.4449C35.3525 89.3185 34.6485 88.0513 34.3456 86.5622C34.0128 84.9067 34.1706 83.2641 34.4778 81.6342C34.7253 80.3073 35.0368 78.9974 35.3184 77.6747C35.3354 77.6022 35.3866 77.5254 35.2928 77.4145C34.4864 77.7003 33.9701 78.4257 33.2576 78.8993C32.8138 75.6907 37.0805 70.0715 40.4512 69.3633C40.528 69.5254 40.4042 69.6406 40.3402 69.7558C39.4826 71.2961 39.1114 72.9515 39.1114 74.7051C39.1114 75.4433 39.0901 76.1857 39.0944 76.9238C39.0944 77.3121 38.9621 77.3889 38.5952 77.2481C37.2682 76.7489 37.2298 76.7915 37.2597 78.1825C37.281 79.2577 37.4474 80.2987 37.9552 81.2545C38.5738 82.4278 39.568 82.9526 40.8821 82.8971C41.0826 82.8886 41.3002 82.8758 41.296 82.607C41.296 82.3297 41.5392 82.0182 41.1637 81.7793C40.3488 81.2545 40.208 80.8833 40.528 79.9787C40.6986 79.4966 40.9162 79.0273 41.1509 78.5707C41.3856 78.1142 41.8122 77.9051 42.32 78.0075C42.6144 78.0673 42.8106 78.0033 42.9898 77.7771C43.3312 77.3505 43.681 76.9323 44.0394 76.5185C44.2101 76.3222 44.24 76.1686 44.0608 75.9382C43.6725 75.439 43.6725 75.0422 44.0266 74.5259C44.4234 73.9499 44.9397 73.4891 45.4944 73.071C45.8485 72.8065 46.241 72.7894 46.6293 73.0113C46.8085 73.1137 46.9706 73.2545 47.1797 73.0369C47.3845 72.8278 47.585 72.6699 47.4912 72.303C47.0901 70.7542 46.9365 69.1755 46.9792 67.5755C47.0389 65.3953 47.504 63.3089 48.3658 61.3078C48.5066 60.9835 48.5024 60.7403 48.2421 60.4886C48.0458 60.3009 47.8794 60.0833 47.7088 59.8657C47.4314 59.5158 47.1754 59.2257 46.6378 59.4475C46.3136 59.5798 45.9808 59.3537 45.729 59.1105C45.2384 58.6283 44.6624 58.2187 44.3296 57.5958C44.24 57.4294 44.1546 57.4379 44.0394 57.5574C44.0181 57.5787 43.9925 57.6043 43.9712 57.6257C43.4819 58.058 43.0097 58.0466 42.5546 57.5915C42.337 57.3739 42.1408 57.135 41.9061 56.9473C41.5221 56.6401 41.5946 56.4011 41.9274 56.1025C42.4309 55.6545 42.9045 55.1681 43.3824 54.6945C43.5104 54.5665 43.7152 54.4555 43.5914 54.2123C43.489 54.0118 43.3952 53.8369 43.1264 53.7814C42.0384 53.5553 41.8165 53.2865 41.7781 52.1942C41.7653 51.7803 41.6885 51.3665 41.7482 50.9441C41.8336 50.3211 42.1194 49.903 42.7466 49.7537C42.6912 49.5489 42.5461 49.5787 42.4266 49.5702C39.7813 49.3014 37.84 47.2491 37.729 44.6081C37.6266 42.1547 39.4186 39.9318 41.9104 39.4283C45.712 38.6603 48.9888 42.3638 47.7344 46.0502C47.5338 46.6433 47.6106 46.9931 48.0629 47.3686C48.4213 47.663 48.7413 48.0086 49.0528 48.3585C49.3045 48.6443 49.4837 48.6358 49.7525 48.3627C51.3269 46.7755 52.9141 45.2054 54.5013 43.6267C54.9621 43.1659 54.9664 43.1659 55.4357 43.6438C55.7514 43.9638 56.0416 44.3137 56.3786 44.6081C56.6816 44.8769 56.6133 45.0518 56.3573 45.3035C54.753 46.8822 53.1744 48.4865 51.5573 50.0523C51.1904 50.4065 51.2288 50.5942 51.5701 50.9185C52.4661 51.7718 53.3322 52.655 54.1941 53.5467C54.4288 53.7942 54.5994 53.807 54.8853 53.6235C57.8293 51.7121 61.0762 50.8075 64.5706 50.8843C67.7194 50.9526 70.6592 51.8145 73.3173 53.5297C73.7482 53.8113 73.9744 53.7643 74.3114 53.4059C75.1477 52.5142 76.0181 51.6566 76.8928 50.8075C77.153 50.5558 77.1445 50.4022 76.8928 50.1505C75.2629 48.5505 73.6586 46.9291 72.0288 45.3291C71.7301 45.0347 71.696 44.847 72.0245 44.5611C72.3872 44.2454 72.7157 43.887 73.0314 43.5243C73.296 43.2171 73.4922 43.2385 73.7696 43.5243C75.3568 45.1243 76.961 46.6987 78.544 48.2987C78.8426 48.6017 79.0432 48.6657 79.3504 48.3158C79.7088 47.9019 80.097 47.5179 80.5066 47.1553C80.8096 46.8865 80.8181 46.639 80.6858 46.2721C79.585 43.2342 81.3472 40.0854 84.4917 39.4283C87.2778 38.8481 90.1194 40.8107 90.5376 43.6097C90.9856 46.6006 88.9205 49.3142 86.0106 49.5659C85.8741 49.5787 85.7162 49.5275 85.6224 49.6982C85.7077 49.8603 85.8912 49.8518 86.0192 49.9371C86.3008 50.1206 86.5482 50.3467 86.561 50.6923C86.5909 51.3963 86.6336 52.1089 86.497 52.8086C86.3818 53.3761 86.096 53.6321 85.5285 53.7217C85.4346 53.7387 85.3365 53.7558 85.2426 53.7643C84.9482 53.7857 84.8544 54.0203 84.752 54.2379C84.6496 54.4598 84.833 54.5622 84.9525 54.6774C85.4688 55.1851 85.9765 55.7014 86.5098 56.1878C86.7957 56.4481 86.7701 56.6443 86.5013 56.8961C86.113 57.2545 85.7418 57.6342 85.3792 58.0225C85.1658 58.2529 84.9909 58.2486 84.7776 58.0225C84.5898 57.8262 84.3893 57.519 84.176 57.5019C83.9413 57.4849 83.8645 57.8945 83.664 58.0779C83.3482 58.3766 83.0581 58.7009 82.7466 59.0038C82.3669 59.3707 81.936 59.5883 81.3941 59.3835C81.2149 59.3153 81.0826 59.3494 80.9717 59.503C80.9632 59.5158 80.9504 59.5286 80.9418 59.5371C80.0672 60.2923 79.8154 61.0262 80.3146 62.255C81.5818 65.3654 81.6842 68.6337 80.9546 71.919C80.9162 72.0897 80.8821 72.2646 80.8394 72.4353C80.7584 72.7681 81.0485 72.8705 81.2106 73.0539C81.3813 73.2459 81.5178 73.1137 81.6757 73.0241C82.1152 72.7681 82.5461 72.815 82.9386 73.1179C83.4208 73.4934 83.8688 73.9115 84.2528 74.3894C84.6666 74.9099 84.6837 75.4134 84.2997 75.9339C84.1504 76.1387 84.1248 76.2795 84.2997 76.4758C84.6795 76.9153 85.0421 77.3633 85.4048 77.8113C85.5498 77.9862 85.7077 78.0502 85.9509 78.0203C86.625 77.9307 87.0176 78.1526 87.3077 78.7585C87.5637 79.2918 87.8496 79.8209 87.952 80.4139C88.0544 81.0027 87.888 81.4465 87.3461 81.6939C86.8384 81.9243 87.0261 82.2913 87.0688 82.6283C87.1157 82.9867 87.4229 82.8929 87.6448 82.8929C88.929 82.9142 89.8592 82.3297 90.4394 81.1947C91.0666 79.9659 91.1392 78.639 91.088 77.295C91.0794 77.0219 90.913 76.9366 90.6613 76.9793C90.3456 77.0347 90.0298 77.1115 89.7397 77.2523C89.4069 77.4145 89.2618 77.3163 89.2661 76.9537C89.2661 76.4374 89.2405 75.9254 89.2533 75.4091C89.3002 73.3654 88.9845 71.407 87.9349 69.6107C87.8965 69.5467 87.888 69.4657 87.8282 69.2737L87.8112 69.2694ZM64.1781 62.4513C61.0421 62.447 58.4992 64.943 58.4906 68.0449C58.4778 71.2065 60.9781 73.7323 64.1226 73.7451C67.2842 73.7579 69.8272 71.2577 69.8314 68.1259C69.8357 64.9729 67.3312 62.4598 64.1738 62.4555L64.1781 62.4513ZM47.7642 74.5003C47.7386 74.7137 47.6874 74.9398 47.5424 75.119C47.0944 75.6651 46.6122 76.1857 46.0576 76.6251C45.84 76.7958 45.5456 76.9409 45.2938 76.8299C44.752 76.5867 44.5088 76.9067 44.2442 77.2609C44.0309 77.5425 43.8048 77.8155 43.5701 78.0801C43.3994 78.2678 43.361 78.4001 43.5829 78.5921C43.9541 78.9121 44.0096 79.3302 43.8432 79.7782C43.6896 80.2006 43.5189 80.6187 43.361 81.0369C43.1562 81.5702 42.8746 82.0182 42.2304 82.0779C41.9445 82.1035 41.9957 82.3425 42.0042 82.5259C42.017 82.8033 42.2218 82.6966 42.3626 82.671C42.4736 82.6539 42.5802 82.6113 42.6869 82.5729C45.3834 81.6001 47.5936 79.8678 49.7525 78.0545C49.9445 77.8923 49.9146 77.743 49.7909 77.5553C49.0058 76.3521 48.3701 75.0763 47.8922 73.7195C47.8538 73.6086 47.8496 73.3782 47.6234 73.5019C47.4357 73.6001 47.4613 73.7451 47.568 73.9073C47.6874 74.0822 47.7685 74.2742 47.7685 74.5046L47.7642 74.5003ZM82.9984 76.8427C82.6826 76.8555 82.4565 76.8043 82.2858 76.6507C81.808 76.2241 81.2874 75.8401 80.9077 75.3153C80.5834 74.8673 80.4256 74.4022 80.7669 73.8945C80.8778 73.7281 80.8864 73.583 80.7029 73.4934C80.4768 73.3825 80.4768 73.6086 80.4384 73.7238C79.969 75.0635 79.3461 76.3307 78.5653 77.5126C78.3733 77.807 78.4629 77.9649 78.689 78.1526C79.504 78.831 80.3274 79.4966 81.1893 80.1153C82.6442 81.1563 84.1546 82.095 85.8741 82.6326C86.0192 82.6795 86.2666 82.863 86.3264 82.5259C86.369 82.2913 86.3434 82.0737 86.0106 82.0566C85.665 82.0395 85.392 81.8561 85.2341 81.5531C84.9354 80.9857 84.6282 80.4182 84.4618 79.7953C84.368 79.4454 84.2912 79.0315 84.577 78.7883C85.0805 78.3574 84.7946 78.0673 84.496 77.743C84.4106 77.6491 84.3253 77.551 84.2442 77.4529C83.8987 77.0433 83.6554 76.4075 83.0026 76.8427H82.9984ZM80.6218 58.8417C80.5706 58.7563 80.5365 58.6881 80.4938 58.6198C80.0202 57.8987 80.033 57.4806 80.5877 56.8619C80.9845 56.4225 81.3898 55.9745 81.8933 55.6545C82.1536 55.4881 82.1365 55.3814 81.9402 55.1894C81.2405 54.5025 80.5408 53.8198 79.8624 53.1158C79.6021 52.847 79.4314 52.8299 79.1669 53.1115C78.3562 53.9563 77.5285 54.7883 76.688 55.6033C76.4192 55.8593 76.4021 56.0129 76.6752 56.2902C77.5968 57.2331 78.3818 58.2913 79.0389 59.439C79.3319 59.951 79.6775 59.978 80.0757 59.5201C80.1397 59.4475 80.208 59.3793 80.2677 59.3025C80.3872 59.1531 80.5024 58.9995 80.6261 58.8417H80.6218ZM48.8522 60.1473C48.912 60.0705 48.9632 60.015 49.0016 59.9467C49.7568 58.5558 50.6784 57.2843 51.7877 56.1494C51.9328 56.0001 51.9285 55.8891 51.7877 55.7441C50.8789 54.8353 49.9701 53.9265 49.0656 53.0134C48.8864 52.8342 48.7498 52.8513 48.5792 53.0219C47.8453 53.7643 47.1029 54.4982 46.3605 55.2321C46.1941 55.3942 46.1941 55.4966 46.4074 55.6331C46.9536 55.983 47.3973 56.4566 47.8154 56.943C48.2848 57.4891 48.2976 57.967 47.9008 58.5601C47.7984 58.7137 47.6917 58.8502 47.8496 59.0294C48.1312 59.3579 48.4085 59.6907 48.6944 60.0193C48.7328 60.0662 48.7925 60.0918 48.8608 60.1473H48.8522ZM45.2469 44.4502C45.2469 42.8374 43.792 41.7366 42.2176 42.1462C41.2362 42.4022 40.4896 43.3451 40.464 44.3691C40.4341 45.4273 41.0869 46.3958 42.0469 46.7201C42.2986 46.8054 42.5248 46.8694 42.5589 46.4811C42.576 46.2891 42.6656 46.1355 42.8874 46.1398C43.105 46.1398 43.1989 46.3019 43.2245 46.4854C43.28 46.8737 43.4976 46.7969 43.745 46.6987C44.688 46.3233 45.2512 45.487 45.2469 44.4502ZM83.0837 44.9238C83.0965 45.4955 83.5744 46.2081 84.4789 46.6518C84.7818 46.7969 85.0592 46.9163 85.1274 46.4086C85.1488 46.2379 85.2811 46.127 85.473 46.1398C85.6224 46.1483 85.7333 46.2337 85.7418 46.3702C85.7888 46.9505 86.1216 46.7969 86.4458 46.6561C87.5168 46.1953 88.0928 44.9622 87.777 43.8187C87.4613 42.6881 86.3136 41.8945 85.2256 42.0609C83.9072 42.2614 83.0752 43.2043 83.0837 44.9281V44.9238ZM54.5696 62.5067C54.5525 62.5323 54.5397 62.5579 54.5226 62.5793C55.5978 63.6545 56.673 64.7297 57.744 65.8049C57.9274 65.9883 58.0128 65.8859 58.0853 65.7025C58.3242 65.1009 58.64 64.5419 59.0496 64.0427C59.2117 63.8422 59.1733 63.7355 58.9344 63.6715C57.4794 63.2833 56.0245 62.895 54.5696 62.5067ZM84.816 49.647C84.3125 49.455 83.8218 49.3611 83.3696 49.1606C83.1776 49.0753 83.0666 49.2033 82.9557 49.3185C82.4778 49.7963 82.0128 50.2827 81.5221 50.7478C81.3002 50.9569 81.3344 51.0934 81.5392 51.2939C82.3328 52.0662 83.1136 52.8555 83.9029 53.6363C83.9712 53.7046 84.0309 53.8411 84.2187 53.7259C83.8517 53.4145 83.5445 53.0731 83.536 52.5697C83.536 52.2625 83.536 51.9595 83.536 51.6523C83.5146 50.7137 83.6896 49.8987 84.8202 49.6513L84.816 49.647ZM54.5312 73.6001C54.5482 73.6257 54.5653 73.6513 54.5866 73.6811C56.0117 73.2971 57.4368 72.9174 58.8576 72.5291C59.0282 72.4822 59.2928 72.4651 59.0624 72.1665C58.657 71.6459 58.3242 71.0785 58.0768 70.4641C57.9872 70.2422 57.8805 70.2465 57.7269 70.4043C56.6645 71.471 55.5978 72.5377 54.5312 73.6001ZM69.6309 77.8027C69.6949 77.6278 69.7205 77.5937 69.712 77.5681C69.3365 76.1558 68.9568 74.7435 68.5856 73.3313C68.5045 73.0283 68.3978 73.0625 68.1973 73.2246C67.7322 73.6001 67.2245 73.9158 66.6613 74.1206C66.2602 74.2657 66.3413 74.415 66.5802 74.6454C67.1776 75.2299 67.7706 75.8187 68.3552 76.4161C68.7776 76.8513 69.1744 77.3035 69.6309 77.8027ZM73.7866 62.5963C73.7738 62.5665 73.761 62.5366 73.7482 62.5067C72.2933 62.895 70.8384 63.2833 69.3834 63.6715C69.1274 63.7398 69.136 63.8593 69.2853 64.047C69.6778 64.5419 70.0064 65.071 70.224 65.6641C70.3136 65.9073 70.4117 65.9755 70.625 65.7622C71.6746 64.6998 72.7328 63.6502 73.7866 62.5963ZM58.593 77.6363C58.6229 77.6534 58.6528 77.6705 58.6826 77.6918C59.7578 76.6209 60.833 75.5499 61.8997 74.4705C62.0661 74.2998 61.8954 74.2273 61.7589 74.1633C61.4432 74.0097 61.1274 73.8475 60.8074 73.6982C60.4618 73.5403 60.1504 73.0198 59.8688 73.1606C59.5744 73.3057 59.6 73.8731 59.4933 74.2571C59.1818 75.3793 58.8874 76.5099 58.5888 77.6406L58.593 77.6363ZM75.28 68.1345C75.28 68.1089 75.28 68.0833 75.28 68.0577C73.8122 67.6651 72.3445 67.2726 70.8768 66.8715C70.6421 66.8075 70.5952 66.9014 70.625 67.1147C70.7189 67.7675 70.7232 68.4246 70.625 69.0774C70.5909 69.295 70.6378 69.3803 70.8768 69.3163C72.3445 68.9195 73.8165 68.527 75.2842 68.1302L75.28 68.1345ZM73.7397 73.6769C73.761 73.6513 73.7781 73.6299 73.7994 73.6043C72.737 72.5377 71.6704 71.4753 70.608 70.4086C70.4117 70.2081 70.3221 70.2977 70.2368 70.5067C69.9978 71.087 69.7034 71.6417 69.2981 72.1281C69.072 72.4011 69.2256 72.4694 69.4645 72.5334C70.8896 72.9131 72.3146 73.2971 73.7397 73.6811V73.6769ZM69.7333 58.5686C69.6992 58.5473 69.6693 58.5259 69.6352 58.5046C68.5813 59.5542 67.5274 60.6081 66.4736 61.6577C66.3029 61.8241 66.3626 61.9265 66.5589 62.0075C67.169 62.2593 67.745 62.5793 68.257 63.0017C68.4533 63.1595 68.5258 63.087 68.5813 62.8779C68.9653 61.4401 69.3493 60.0022 69.7376 58.5601L69.7333 58.5686ZM58.6997 58.5089L58.593 58.5601C58.9813 60.015 59.3696 61.4657 59.7578 62.9206C59.809 63.1169 59.9029 63.151 60.0608 63.0145C60.5728 62.5921 61.1445 62.2721 61.7589 62.0161C61.9936 61.9179 62.0064 61.807 61.8314 61.6321C60.7861 60.591 59.745 59.5499 58.6997 58.5046V58.5089ZM52.9184 68.0961C54.5184 68.527 55.9904 68.9195 57.4538 69.3163C57.6928 69.3803 57.7354 69.295 57.7056 69.0774C57.6117 68.4417 57.6032 67.8017 57.697 67.1659C57.744 66.8374 57.6117 66.8203 57.3514 66.9014C56.9674 67.0166 56.5792 67.1105 56.1909 67.2129C55.1456 67.4945 54.1002 67.7803 52.9184 68.0961ZM64.2293 57.0838C64.1909 57.0838 64.1525 57.0795 64.1141 57.0753C64.0458 57.3014 63.9776 57.5233 63.9136 57.7537C63.6064 58.8971 63.2992 60.0449 62.992 61.1926C62.9194 61.4529 62.8682 61.6918 63.2821 61.6278C63.8709 61.5339 64.464 61.5339 65.0528 61.6278C65.3173 61.6705 65.4197 61.5595 65.3514 61.3035C64.976 59.8955 64.5962 58.4875 64.2208 57.0795L64.2293 57.0838ZM64.097 79.1041L64.2208 79.1211C64.6005 77.7046 64.9845 76.2881 65.36 74.8673C65.4325 74.5942 65.2789 74.5217 65.0357 74.5643C64.4469 74.6582 63.8538 74.6582 63.265 74.5643C63.009 74.5217 62.8896 74.6241 62.9621 74.8843C63.3376 76.2923 63.7173 77.7003 64.097 79.1083V79.1041ZM44.0821 53.7259C44.1333 53.7601 44.1845 53.7899 44.2357 53.8241C45.1274 52.9366 46.0192 52.0449 46.9109 51.1574C47.0346 51.0337 46.9792 50.9313 46.881 50.8289C46.3477 50.2955 45.8186 49.7622 45.2853 49.2289C45.2 49.1435 45.1018 49.1094 44.9781 49.1521C44.5002 49.3099 44.0181 49.4593 43.5274 49.6171C43.5573 49.6641 43.5658 49.6982 43.5914 49.711C43.6469 49.7409 43.7109 49.7665 43.7706 49.775C44.3637 49.8731 44.6837 50.2443 44.7221 50.8203C44.7946 51.8401 45.217 52.9409 44.0778 53.7302L44.0821 53.7259ZM86.1216 78.6817C85.3408 78.8054 84.8501 79.1297 85.2597 79.9702C85.4133 80.2859 85.5114 80.6315 85.648 80.9558C85.8485 81.4379 86.0405 81.5105 86.561 81.3227C87.2608 81.0625 87.4058 80.8833 87.2352 80.3926C87.073 79.9233 86.8725 79.4667 86.689 79.0017C86.5952 78.7627 86.416 78.6518 86.1258 78.6817H86.1216ZM47.457 57.9286C47.4741 57.6171 47.3589 57.4635 47.2224 57.3227C46.9322 57.0241 46.6336 56.7339 46.3562 56.4225C46.0746 56.1067 45.8016 56.0342 45.4517 56.3286C44.8586 56.8321 44.7477 57.1137 45.0805 57.519C45.3664 57.8646 45.6949 58.1718 46.0064 58.4918C46.2069 58.6923 46.4458 58.8758 46.7274 58.7179C47.073 58.5217 47.3802 58.2571 47.457 57.9286ZM82.2517 73.5446C81.7952 73.6086 81.5562 73.9414 81.3429 74.2742C81.1637 74.5515 81.3258 74.7947 81.5221 74.9995C81.8464 75.3323 82.1749 75.6566 82.4992 75.9894C82.8149 76.3137 83.105 76.1771 83.3781 75.9297C83.6725 75.6566 84.0522 75.3366 83.745 74.9185C83.3994 74.4491 82.9344 74.0609 82.512 73.647C82.4522 73.5873 82.337 73.5787 82.2517 73.5446ZM47.056 74.5387C47.0304 74.1846 46.7744 73.9969 46.5653 73.7835C46.2709 73.4806 45.9722 73.4379 45.6608 73.7707C45.3322 74.1163 44.9866 74.4534 44.6496 74.7947C44.4064 75.0422 44.4021 75.311 44.624 75.5627C44.7904 75.7547 44.9824 75.9297 45.1744 76.0961C45.2853 76.1899 45.4389 76.271 45.5712 76.1686C46.1173 75.7505 46.6037 75.2683 47.0133 74.7137C47.0474 74.6667 47.0474 74.5942 47.0602 74.5473L47.056 74.5387ZM80.8608 57.7793C80.8608 58.1419 81.1125 58.3169 81.3173 58.5131C81.6928 58.8801 81.9189 58.8758 82.2986 58.5046C82.5163 58.2913 82.7296 58.0737 82.9429 57.8603C83.6042 57.1905 83.5445 56.7211 82.7381 56.2305C82.6101 56.1537 82.4608 56.0598 82.337 56.1622C81.7994 56.5889 81.3002 57.0582 80.8992 57.6214C80.865 57.6683 80.8736 57.7451 80.865 57.775L80.8608 57.7793ZM43.2245 79.4838C43.1861 78.9035 42.7381 78.8395 42.3754 78.7115C42.0554 78.6006 41.7696 78.6731 41.6288 79.0273C41.4496 79.471 41.2704 79.919 41.0954 80.3627C40.9589 80.6998 41.0613 80.9686 41.377 81.1265C41.6032 81.2417 41.8506 81.3227 42.0896 81.3995C42.256 81.4507 42.4309 81.4081 42.512 81.2545C42.8064 80.6699 43.0453 80.0641 43.2245 79.4838ZM44.0778 51.5969C44.0778 51.5243 44.0778 51.3494 44.0778 51.1702C44.0608 50.543 43.8816 50.3937 43.1946 50.4193C42.6144 50.4406 42.3669 50.6966 42.3968 51.2555C42.4138 51.6225 42.448 51.9894 42.465 52.3563C42.4864 52.9323 42.6144 53.0646 43.1818 53.0731C43.9968 53.0859 44.1888 52.8811 44.1162 52.079C44.1034 51.951 44.0992 51.823 44.0821 51.5926L44.0778 51.5969ZM85.1317 53.0731C85.4176 53.0561 85.8016 53.1201 85.8442 52.6294C85.8869 52.1217 85.9253 51.6097 85.9296 51.0977C85.9296 50.6369 85.6266 50.4065 85.0805 50.4065C84.5045 50.4065 84.2784 50.5899 84.2528 51.0934C84.2357 51.4305 84.24 51.7675 84.2101 52.1003C84.1418 52.8129 84.3594 53.0603 85.1317 53.0774V53.0731Z" fill="#151515"/>
<path d="M18.721 72.9259C18.4266 72.5547 18.4906 72.1451 18.4522 71.7569C18.145 68.6849 18.0298 65.6086 18.2816 62.5238C18.5504 59.2555 19.1733 56.0683 20.2485 52.975C20.3594 52.655 20.2485 52.4758 20.048 52.2582C18.7978 50.8843 17.9573 49.3227 18.0298 47.4027C18.081 46.1099 18.5162 44.9238 19.1733 43.8102C19.361 43.4945 19.5274 43.5115 19.7621 43.759C20.6624 44.7019 21.8912 46.2977 21.9509 48.7979C22.2709 48.1963 22.4842 47.6673 22.8085 47.2193C23.2778 46.575 23.1925 46.1313 22.6805 45.4955C20.8288 43.1958 20.7477 40.5547 22.3093 38.0502C22.5312 37.6961 22.6848 37.6491 22.9792 37.9691C24.4725 39.5862 25.2704 41.4294 24.8224 43.7931C25.36 43.0337 25.8208 42.3809 26.2858 41.7323C26.448 41.5062 26.2858 41.3867 26.1664 41.2374C25.3258 40.2347 24.7072 39.1169 24.5322 37.8027C24.3018 36.0918 24.8394 34.5686 25.7653 33.1563C25.953 32.8705 26.1109 33.0283 26.256 33.1947C27.7792 34.9313 28.6069 36.8683 27.9754 39.2193C27.9584 39.279 27.9456 39.343 27.937 39.407C27.937 39.4198 27.9498 39.4326 27.9882 39.5094C28.4234 38.9974 28.8032 38.4641 29.2768 38.0289C29.8442 37.5041 29.8698 37.0689 29.5072 36.3606C28.176 33.7579 28.6026 31.1766 30.5909 29.0219C31.0602 28.5142 31.1114 28.5185 31.457 29.1414C32.4896 30.9803 32.8437 32.8918 32.0117 34.9014C32.6389 34.2998 33.2618 33.7067 33.8805 33.1051C34.0426 32.9515 34.0469 32.7254 34.1024 32.5291C34.6314 30.7243 35.5488 29.2011 37.2469 28.2625C38.2752 27.6907 39.393 27.4134 40.5621 27.3281C41.1125 27.2897 41.1552 27.3579 41.0528 27.887C40.4682 30.9505 38.3818 32.9729 35.297 33.4507C34.9301 33.5062 34.64 33.6427 34.4096 33.9542C34.0469 34.4406 33.6416 34.9014 33.2576 35.3707C33.3472 35.4859 33.4154 35.4091 33.4709 35.3793C35.1349 34.3979 36.8672 34.4833 38.6378 35.0379C39.0645 35.1702 39.0602 35.3451 38.8384 35.6865C37.1957 38.1526 34.5461 39.0742 31.6661 38.1313C31.3077 38.0161 31.1114 38.0673 30.9109 38.3702C30.5482 38.9078 30.1472 39.4198 29.7973 39.9787C30.6421 39.599 31.4954 39.3601 32.4128 39.3814C33.0442 39.3985 33.6586 39.5051 34.2645 39.6801C34.7594 39.8251 34.785 39.9062 34.5077 40.3414C33.1168 42.5302 30.9621 43.4006 28.3893 42.7649C27.9754 42.6625 27.7792 42.7649 27.5829 43.0977C27.3098 43.567 26.9984 44.0107 26.7381 44.5099C27.5488 44.0107 28.4021 43.6907 29.3322 43.5713C30.1557 43.4689 30.9664 43.5286 31.7728 43.7035C32.0885 43.7718 32.1781 43.8955 32.0288 44.1985C30.8554 46.5451 28.7861 48.0939 25.8293 47.7483C24.8394 47.6331 24.8394 47.6203 24.3829 48.5078C24.0757 49.1051 23.7813 49.711 23.4826 50.3126C23.6149 50.4107 23.6576 50.3083 23.7045 50.2614C25.0741 48.9003 26.7808 48.4651 28.6368 48.4566C29.1488 48.4566 29.1914 48.5334 29.0549 49.0326C28.1845 52.1473 25.6629 54.0203 22.433 53.9222C22.0874 53.9137 21.9509 54.0203 21.8442 54.3233C20.9098 57.007 20.321 59.759 19.9925 62.5793C19.6725 65.3057 19.5872 68.0577 19.1349 70.767C19.0154 71.4923 18.8576 72.2091 18.721 72.9302V72.9259Z" fill="#151515"/>
<path d="M106.303 48.6785C106.397 46.8395 107.165 45.3206 108.347 43.9809C108.863 43.3963 108.944 43.4134 109.311 44.0833C110.898 46.9718 110.548 49.8305 108.291 52.2369C108.027 52.5185 107.997 52.7446 108.116 53.0902C109.17 56.1238 109.776 59.2513 110.04 62.4555C110.305 65.6555 110.198 68.8427 109.84 72.0257C109.806 72.3286 109.895 72.6614 109.648 73.0198C109.362 71.7825 109.149 70.6219 109.004 69.4486C108.637 66.4534 108.543 63.4283 108.044 60.4502C107.69 58.3553 107.173 56.303 106.478 54.2934C106.38 54.0075 106.239 53.9094 105.919 53.9179C102.672 54.0118 100.176 52.1729 99.2842 49.0454C99.1349 48.5249 99.1818 48.4481 99.7237 48.4523C101.635 48.4694 103.376 48.9515 104.839 50.4705C104.69 49.8731 104.383 49.4806 104.225 49.0326C103.862 48.0001 103.329 47.5905 102.083 47.7526C99.6512 48.0641 97.3002 46.4854 96.3061 44.2155C96.1568 43.8742 96.2549 43.7633 96.5877 43.695C98.256 43.3494 99.8474 43.4731 101.324 44.3947C101.4 44.4417 101.465 44.5313 101.644 44.4843C101.264 43.9041 100.906 43.3451 100.534 42.7905C100.385 42.5686 100.184 42.7094 100.01 42.7521C98.8149 43.0379 97.6245 43.0977 96.464 42.6113C95.312 42.1291 94.4629 41.2971 93.7802 40.2731C93.5626 39.9489 93.6522 39.7953 94.0021 39.6886C95.5381 39.2363 97.04 39.2107 98.5717 39.9275C98.1066 39.3131 97.6544 38.6859 97.1722 38.0843C97.0357 37.9094 96.8394 38.0758 96.6816 38.1227C95.2309 38.5579 93.776 38.6731 92.3381 38.0801C91.1093 37.5723 90.2005 36.6806 89.441 35.6097C89.2021 35.2726 89.3301 35.1403 89.6629 35.0337C91.4805 34.4491 93.2597 34.3851 94.9536 35.4305C95.0048 35.4603 95.056 35.4859 95.1541 35.4603C94.6762 34.8801 94.1984 34.3041 93.7205 33.7238C93.5242 33.4891 93.2426 33.4806 92.9781 33.4379C90.0256 32.9771 87.9349 31.0017 87.3034 28.0662C87.1413 27.3153 87.1968 27.2513 87.9562 27.3195C91.1093 27.5969 93.1914 29.2481 94.1386 32.2902C94.3093 32.8363 94.5653 33.2715 94.9792 33.6513C95.4272 34.0566 95.8496 34.4918 96.3445 34.9697C95.4826 32.8619 95.8368 30.9377 96.8949 29.0902C97.2234 28.5099 97.2874 28.5014 97.7354 29.0134C98.8789 30.3233 99.6512 31.7953 99.5914 33.5873C99.553 34.7307 99.1946 35.8017 98.6229 36.7873C98.4224 37.1286 98.4736 37.3462 98.7296 37.6278C99.28 38.2251 99.792 38.8609 100.411 39.5819C100.325 39.1041 100.257 38.767 100.206 38.4299C99.8986 36.3265 100.778 34.6454 102.117 33.135C102.322 32.9046 102.463 32.9857 102.599 33.2075C103.978 35.3921 104.349 37.6363 103.022 39.9873C102.762 40.4481 102.476 40.8961 102.105 41.2843C101.938 41.4593 101.938 41.5958 102.079 41.7878C102.531 42.4107 102.971 43.0422 103.487 43.7718C103.346 42.863 103.308 42.0651 103.495 41.2673C103.798 39.9787 104.468 38.9035 105.364 37.9435C105.65 37.6363 105.808 37.6833 106.004 38.0246C107.557 40.7211 107.532 43.2385 105.492 45.7046C105.134 46.1398 105.044 46.4513 105.373 46.9377C105.74 47.4795 106 48.0897 106.311 48.6699L106.303 48.6785Z" fill="#151515"/>
<path d="M58.96 107.413C58.0597 108.868 56.6389 108.971 55.201 108.937C52.4917 108.877 49.8293 108.476 47.2224 107.721C43.2885 106.573 39.7258 104.755 36.8117 101.816C33.8421 98.8203 32.1226 95.1809 31.3333 91.0721C31.1242 89.9841 30.9962 88.8875 30.9152 87.7355C31.1669 87.8166 31.1882 88.0257 31.2608 88.175C32.272 90.3297 33.3216 92.4587 34.6101 94.4683C37.6053 99.1361 41.8506 102.029 47.1797 103.416C49.7866 104.094 52.4362 104.465 55.12 104.597C55.696 104.627 56.2762 104.67 56.848 104.742C57.6714 104.849 58.401 105.152 58.913 105.988C58.9557 105.702 58.9856 105.506 59.0112 105.31C59.1264 104.448 59.7322 103.979 60.6794 104.013C61.5541 104.047 62.1216 104.568 62.16 105.408C62.1856 105.89 62.1685 106.372 62.1685 106.854C62.1685 109.248 62.1472 111.646 62.177 114.04C62.1941 115.388 61.3578 115.925 60.0394 115.686C59.4805 115.584 59.1093 115.123 59.024 114.534C58.9258 113.848 58.9728 113.152 58.9685 112.465C58.96 110.78 58.9685 109.094 58.9685 107.405L58.96 107.413Z" fill="#151515"/>
<path d="M69.4048 105.997C70.1045 104.93 71.0944 104.73 72.1525 104.678C75.6938 104.508 79.1925 104.085 82.5845 103.002C87.632 101.389 91.4677 98.2699 94.1856 93.7387C95.2565 91.9595 96.1696 90.0993 97.0485 88.2219C97.1253 88.0555 97.1594 87.855 97.4069 87.7142C97.3642 88.6998 97.2448 89.6257 97.0869 90.5473C96.481 94.127 95.1754 97.4081 92.8928 100.267C90.2432 103.582 86.8 105.745 82.8448 107.153C79.9178 108.194 76.9056 108.792 73.7994 108.894C73.2704 108.911 72.7456 108.924 72.2122 108.907C71.0218 108.86 70.0618 108.446 69.4304 107.345C69.328 107.546 69.3664 107.725 69.3664 107.891C69.3664 109.79 69.3664 111.684 69.3664 113.583C69.3664 113.775 69.3664 113.967 69.3536 114.163C69.2896 115.686 68.2613 115.878 67.1946 115.695C66.5973 115.593 66.1792 115.046 66.1749 114.389C66.1621 111.386 66.1578 108.378 66.1749 105.374C66.1792 104.58 66.7978 104.06 67.6512 104.026C68.5813 103.987 69.2 104.452 69.3152 105.272C69.345 105.476 69.3664 105.681 69.4048 106.001V105.997Z" fill="#151515"/>
<path d="M96.1013 96.3755C96.4469 95.8422 96.7754 95.3387 97.104 94.8353C99.4336 91.2513 101.426 87.5009 102.864 83.4646C103.756 80.9558 104.396 78.383 104.635 75.7334C105.223 69.1585 103.402 63.407 98.6613 58.6838C98.4522 58.4747 98.1877 58.3041 98.0725 57.9883C98.3712 57.9286 98.6016 58.0566 98.8405 58.1334C104.357 59.9083 107.481 63.7953 108.56 69.3675C109.652 75.0337 108.381 80.3499 105.825 85.4059C103.619 89.7793 100.475 93.3633 96.5109 96.2347C96.4341 96.2902 96.353 96.3457 96.2677 96.3926C96.2464 96.4054 96.2122 96.3883 96.1056 96.3755H96.1013Z" fill="#151515"/>
<path d="M30.2538 58.0097C30.1685 58.2657 29.9424 58.4107 29.7674 58.5857C26.6784 61.6107 24.6944 65.2289 23.9221 69.4955C23.3504 72.6742 23.5424 75.8315 24.1994 78.9718C25.0741 83.1489 26.7338 87.023 28.769 90.7521C29.7461 92.5483 30.8426 94.2678 31.9648 95.9745C32.0458 96.0982 32.1909 96.2049 32.144 96.4609C31.6448 96.0854 31.1626 95.7441 30.7061 95.3814C25.3514 91.1019 21.776 85.6619 20.1162 79.0059C19.2117 75.3835 19.0453 71.727 20.0565 68.0918C21.473 62.9931 24.6474 59.567 29.7802 58.0523C29.904 58.0182 30.0277 57.9883 30.1514 57.9627C30.177 57.9585 30.2069 57.9883 30.2538 58.0097Z" fill="#151515"/>
<path d="M25.0826 91.5585C24.8352 91.3707 24.609 91.2086 24.3872 91.0337C20.7904 88.1921 17.6501 84.9281 15.2096 81.0283C13.8698 78.8865 12.8672 76.5995 12.4789 74.0779C12.3637 73.3313 12.3296 72.5803 12.321 71.8209C12.2997 69.0646 12.0565 66.3339 11.1562 63.7014C10.657 62.2422 9.95303 60.8982 8.8053 59.823C8.20797 59.2641 7.5253 58.8587 6.73597 58.6326C6.53543 58.5771 6.21117 58.6283 6.2709 58.2913C6.32637 57.967 6.6293 58.0865 6.82983 58.1121C8.8565 58.3723 10.6656 59.1531 12.2485 60.4417C14.6506 62.3915 16.0245 64.9857 16.9077 67.887C17.5434 69.9734 17.7824 72.1238 18.0042 74.2827C18.3242 77.4529 19.2245 80.4865 20.4917 83.4049C21.6778 86.1398 23.0901 88.751 24.9205 91.119C25.0016 91.2214 25.1466 91.311 25.0826 91.5542V91.5585Z" fill="#151515"/>
<path d="M13.2469 95.7057C13.7674 94.8054 14.544 94.1953 15.4186 93.7174C18.0469 92.2838 20.7306 92.4545 23.4186 93.5382C25.808 94.5025 27.856 96.0086 29.6906 97.7835C33.04 101.013 36.5173 104.081 40.2634 106.846C40.3701 106.923 40.5749 106.987 40.4981 107.157C40.4341 107.307 40.2378 107.238 40.1013 107.23C37.7589 107.072 35.5018 106.517 33.3258 105.647C30.5994 104.559 28.2229 102.95 26.1792 100.843C24.3744 98.9825 22.369 97.3867 19.9925 96.3073C18.529 95.6417 17.0016 95.2449 15.376 95.2833C14.6464 95.3003 13.9552 95.4966 13.2469 95.7099V95.7057Z" fill="#151515"/>
<path d="M115.152 95.7355C114.619 95.6758 114.213 95.4283 113.753 95.3643C111.713 95.0699 109.827 95.5905 108.018 96.4566C105.876 97.4806 104.012 98.9057 102.382 100.617C99.1776 103.983 95.265 106.001 90.7424 106.901C89.8933 107.072 89.0314 107.187 88.1653 107.23C88.0458 107.234 87.8752 107.298 87.824 107.149C87.7685 106.995 87.9477 106.944 88.0416 106.876C90.3541 105.161 92.5898 103.347 94.7274 101.423C96.3274 99.9851 97.8592 98.4662 99.472 97.0411C101.511 95.2363 103.747 93.7302 106.427 93.039C109.311 92.2966 111.973 92.7105 114.286 94.7073C114.61 94.9889 114.892 95.3046 115.143 95.7398L115.152 95.7355Z" fill="#151515"/>
<path d="M98.8576 114.36C98.4693 114.219 98.081 114.082 97.697 113.941C95.3248 113.067 92.897 112.384 90.3797 112.09C88.08 111.821 85.8272 112.047 83.6298 112.785C81.7397 113.421 79.8666 114.095 77.9082 114.505C76.0224 114.901 74.1237 115.042 72.208 114.953C71.3333 114.91 70.5397 114.628 69.9381 113.941C69.0378 112.909 69.3493 111.509 70.5909 110.938C71.3717 110.575 72.1994 110.601 73.0101 110.694C75.7237 111.014 78.3221 110.63 80.8437 109.589C82.2986 108.988 83.7706 108.433 85.3322 108.147C87.9093 107.678 90.2773 108.301 92.5387 109.483C94.8682 110.699 96.8736 112.358 98.8064 114.112C98.849 114.15 98.8789 114.21 98.9173 114.261C98.9002 114.296 98.8832 114.33 98.8661 114.364L98.8576 114.36Z" fill="#151515"/>
<path d="M29.3152 114.283C30.0917 113.613 30.7829 112.998 31.4954 112.405C32.9205 111.215 34.4394 110.174 36.0906 109.325C39.137 107.755 42.2517 107.593 45.4602 108.804C47.0986 109.423 48.7072 110.118 50.4266 110.515C51.9669 110.869 53.52 110.822 55.0773 110.716C55.8965 110.66 56.7114 110.562 57.5093 110.848C59.0282 111.39 59.3824 112.99 58.2261 114.112C57.5861 114.731 56.7882 114.923 55.9306 114.965C52.5344 115.128 49.2917 114.398 46.1173 113.272C44.816 112.811 43.5061 112.376 42.1322 112.162C39.7386 111.787 37.392 112.073 35.0624 112.606C33.3045 113.007 31.6021 113.583 29.9125 114.21C29.7674 114.266 29.6309 114.364 29.3194 114.291L29.3152 114.283Z" fill="#151515"/>
<path d="M62.5909 109.888C62.5909 108.459 62.5909 107.029 62.5909 105.6C62.5909 104.585 63.1626 104.013 64.1696 104.017C65.1722 104.017 65.7397 104.589 65.7397 105.609C65.7397 108.484 65.7397 111.356 65.7397 114.232C65.7397 114.872 65.5264 115.396 64.9077 115.614C64.272 115.836 63.6064 115.866 63.0389 115.392C62.6976 115.106 62.5824 114.714 62.5824 114.274C62.5909 112.815 62.5824 111.352 62.5824 109.892L62.5909 109.888Z" fill="#151515"/>
<path d="M122.051 58.5003C120.758 58.6881 119.76 59.3878 118.937 60.3563C117.631 61.8923 116.991 63.7355 116.56 65.6641C116.176 67.3793 115.92 69.1243 115.98 70.8737C116.133 75.1915 114.597 78.9249 112.174 82.3681C109.78 85.7729 106.887 88.7041 103.589 91.2385C103.53 91.2854 103.461 91.3238 103.342 91.3281C103.423 91.2043 103.504 91.0763 103.589 90.9569C106.875 86.4513 109.115 81.4891 110.13 75.9937C110.437 74.3339 110.471 72.6401 110.757 70.9761C111.265 67.9979 112.148 65.1649 113.983 62.7115C115.997 60.015 118.651 58.3979 122.051 58.1121V58.5003ZM119.623 59.0763C118.378 59.3537 116.586 60.463 115.382 61.7259C112.716 64.5249 111.632 68.0107 111.086 71.7227C110.873 73.1649 110.821 74.6283 110.565 76.0662C109.861 80.0043 108.449 83.6865 106.529 87.1809C106.162 87.8465 105.77 88.4993 105.39 89.1563C108.359 86.5494 111.005 83.6779 113.01 80.2603C114.58 77.5851 115.557 74.7521 115.515 71.5947C115.489 69.7345 115.66 67.8785 116.039 66.0481C116.59 63.3985 117.447 60.911 119.623 59.0763Z" fill="#151515"/>
<path d="M95.1029 78.8609C94.369 78.3318 93.8186 77.6193 92.944 77.3121C92.8672 77.6107 92.9994 77.8625 93.0549 78.1142C93.52 80.2305 94.0704 82.3297 94.1002 84.5185C94.1301 86.7158 93.5285 88.6699 92.0096 90.2998C91.7664 90.5601 91.553 90.8417 91.3952 91.1617C91.0965 91.7761 91.041 92.3905 91.3952 93.0049C91.4634 93.1201 91.553 93.2097 91.4165 93.3334C91.3354 93.4059 91.2672 93.4443 91.1648 93.3803C90.0768 92.7019 89.1893 93.1883 88.3829 93.9094C87.0005 95.1467 85.4005 95.8294 83.5488 95.9403C82.1408 96.0257 80.7541 95.8763 79.3802 95.5905C78.2325 95.3515 77.0933 95.0785 75.9498 94.8182C75.7664 94.7755 75.5829 94.7457 75.361 94.6987C75.6341 95.6075 76.3637 96.1451 76.8587 96.8619C72.801 96.4395 69.6138 94.3787 67.4805 89.7025C67.6085 89.6171 67.6981 89.7281 67.7792 89.7793C69.3152 90.6795 70.9962 91.0422 72.7584 91.0891C73.5136 91.1105 74.2688 91.1275 75.024 91.1233C75.3568 91.1233 75.4165 91.2299 75.2757 91.5243C75.1136 91.8571 75.0154 92.2155 74.9941 92.591C74.9813 92.8086 75.024 92.9537 75.3013 92.9622C76.432 93.0006 77.5541 92.9622 78.6336 92.5867C80.5408 91.9297 81.3642 90.5089 80.9888 88.5249C80.6517 86.7329 79.76 85.1926 78.7829 83.695C78.0789 82.6198 77.2725 81.6171 76.4661 80.6102C76.2485 80.3371 76.1162 80.3542 75.873 80.5846C69.1701 86.8054 59.0666 86.7969 52.4021 80.5675C52.2101 80.3883 52.0949 80.2945 51.8773 80.559C50.4394 82.3169 49.0698 84.1174 48.0885 86.1825C47.632 87.1467 47.2778 88.1409 47.2394 89.2203C47.184 90.7606 47.8581 91.8443 49.2789 92.4459C50.4778 92.9494 51.7408 93.0134 53.0208 92.9622C53.2725 92.9537 53.3152 92.8171 53.3066 92.6209C53.2896 92.2795 53.2256 91.9467 53.0677 91.6438C52.8757 91.2683 52.9312 91.119 53.3962 91.119C54.3605 91.119 55.3248 91.1105 56.289 91.0465C57.7738 90.9483 59.1605 90.543 60.4576 89.8177C60.5429 89.7707 60.6282 89.7238 60.7136 89.6854C60.7392 89.6769 60.7733 89.6897 60.8032 89.6939C59.6042 93.4145 55.1882 96.8193 51.4378 96.8833C51.937 96.1622 52.6624 95.6161 52.9568 94.6902C51.8986 94.9334 50.8917 95.1681 49.8848 95.3942C48.2037 95.7697 46.5098 96.0513 44.7733 95.9403C43.0325 95.8294 41.4837 95.2534 40.161 94.1014C39.7728 93.7643 39.3845 93.423 38.8981 93.2267C38.3477 93.0049 37.8058 92.9921 37.2768 93.2907C37.1616 93.3547 37.0634 93.4998 36.9013 93.3462C36.7434 93.1969 36.8586 93.0987 36.9269 92.975C37.2554 92.3947 37.2128 91.8059 36.9397 91.2171C36.7776 90.863 36.5429 90.5558 36.2784 90.2742C34.7765 88.6529 34.1834 86.7115 34.209 84.5313C34.2346 82.4875 34.7168 80.5206 35.1605 78.5494C35.2458 78.1611 35.3312 77.7729 35.4378 77.295C34.5034 77.6022 33.9573 78.3275 33.2448 78.8395C33.7098 74.2358 36.2954 71.2662 40.4128 69.4145C38.8768 71.8507 39.0048 74.5771 38.9792 77.3078C38.4586 77.1841 38.0234 76.9153 37.5114 76.9238C37.281 76.9238 37.153 76.975 37.1488 77.2395C37.1232 78.6475 37.2128 80.0385 37.8954 81.3142C38.544 82.5217 39.5893 83.0166 40.9248 82.9739C41.104 82.9697 41.377 82.9995 41.3557 82.7222C41.3258 82.3894 41.616 81.9755 41.168 81.7281C40.4256 81.3142 40.2805 80.9729 40.5066 80.1579C40.656 79.6118 40.9077 79.1083 41.1637 78.6091C41.4069 78.1398 41.7824 77.9606 42.337 78.0971C42.6485 78.1739 42.8021 78.0715 42.9728 77.8497C43.3397 77.3803 43.7237 76.9238 44.112 76.4758C44.2698 76.2923 44.321 76.1686 44.1333 75.951C43.681 75.4347 43.681 75.0465 44.0864 74.4833C44.4661 73.9542 44.9568 73.5361 45.4602 73.1393C45.8016 72.8705 46.1984 72.8491 46.5909 73.0667C46.7573 73.1606 46.8981 73.3782 47.1242 73.135C47.3418 72.9003 47.6704 72.7766 47.5424 72.3201C47.137 70.8566 46.9706 69.3547 47.0005 67.8401C47.0432 65.5531 47.4954 63.343 48.4341 61.2523C48.5664 60.9537 48.545 60.7531 48.3146 60.5313C48.1056 60.3307 47.9306 60.0961 47.7472 59.8742C47.4485 59.5115 47.2096 59.0721 46.5994 59.3835C46.4117 59.4817 46.1386 59.4006 45.9637 59.2513C45.3109 58.6838 44.5898 58.1803 44.2186 57.2801C43.9456 57.5446 43.6768 57.7835 43.4336 58.0438C43.2928 58.1931 43.1989 58.2059 43.0496 58.0481C42.6144 57.5958 42.1749 57.1478 41.7226 56.7126C41.552 56.5505 41.6202 56.4609 41.7525 56.3329C42.3157 55.7825 42.8746 55.2278 43.4293 54.6646C43.5402 54.5537 43.7749 54.4641 43.6512 54.2422C43.5274 54.0161 43.472 53.7089 43.1093 53.7046C42.8661 53.7046 42.6314 53.6491 42.4138 53.5339C42.128 53.3803 41.9146 53.1627 41.8762 52.8342C41.8122 52.2283 41.7098 51.6182 41.7696 51.0081C41.8208 50.4875 41.9744 50.0267 42.5632 49.8731C42.6741 49.8433 42.8533 49.8603 42.8106 49.6598C42.768 49.4806 42.6058 49.5446 42.4906 49.5318C40.7157 49.3697 39.3546 48.5377 38.4501 47.0059C37.2554 44.9835 37.6437 42.3809 39.3504 40.7766C41.0826 39.1467 43.6938 38.9249 45.665 40.239C47.6362 41.5574 48.4512 44.0619 47.5722 46.2721C47.4058 46.6945 47.4656 46.9249 47.7813 47.2065C48.225 47.6033 48.6432 48.0299 49.04 48.4694C49.2746 48.7297 49.4112 48.751 49.6714 48.4822C51.3013 46.8353 52.9568 45.2182 54.5866 43.5755C54.8426 43.3195 54.992 43.2683 55.248 43.567C55.568 43.9467 55.9264 44.2966 56.3018 44.6251C56.5706 44.8598 56.5706 45.0006 56.3061 45.2566C54.672 46.8523 53.072 48.4779 51.4293 50.0651C51.088 50.3979 51.105 50.5643 51.4336 50.8801C52.3637 51.7675 53.264 52.6891 54.1557 53.6107C54.3818 53.8454 54.5354 53.8966 54.8341 53.7003C58.0426 51.6225 61.5754 50.7393 65.377 50.9953C68.1845 51.183 70.7872 52.0363 73.1765 53.5254C73.7994 53.9137 73.7994 53.9179 74.3328 53.3803C75.1946 52.5142 76.048 51.6395 76.9226 50.7862C77.1786 50.5387 77.1914 50.4022 76.9269 50.1462C75.2714 48.5291 73.6416 46.8822 71.9818 45.2651C71.7045 44.9963 71.713 44.847 71.9904 44.5995C72.3744 44.2582 72.737 43.8913 73.0784 43.5073C73.296 43.2641 73.4197 43.3025 73.633 43.5158C75.28 45.167 76.944 46.7969 78.5824 48.4566C78.8554 48.7339 79.0048 48.7169 79.248 48.4438C79.6576 47.9915 80.0885 47.5563 80.5408 47.1425C80.8139 46.895 80.8736 46.6945 80.7242 46.3275C79.6789 43.7377 80.9162 40.8278 83.4762 39.7654C86.049 38.6987 88.9632 39.8763 90.0853 42.4321C91.4762 45.5979 89.2874 49.2587 85.8485 49.5233C85.712 49.5318 85.4858 49.4251 85.4602 49.6726C85.4389 49.8774 85.6608 49.8518 85.776 49.8987C86.2922 50.1035 86.5184 50.4833 86.4928 51.0294C86.4672 51.5585 86.4544 52.0918 86.4117 52.6166C86.3605 53.2907 85.9936 53.6705 85.3237 53.6449C84.8885 53.6278 84.7861 53.9094 84.6368 54.1867C84.4704 54.4939 84.7776 54.5793 84.9098 54.7201C85.4218 55.2534 85.9509 55.7739 86.48 56.2859C86.6378 56.4395 86.7189 56.5462 86.5098 56.7382C86.0661 57.1563 85.6394 57.5958 85.217 58.0353C85.0677 58.1931 84.9653 58.1846 84.833 58.0267C84.6069 57.7537 84.3765 57.4891 84.112 57.1862C83.6725 58.0225 83.0538 58.5387 82.4821 59.0891C82.1664 59.3921 81.761 59.4689 81.3643 59.3025C81.1296 59.2043 81.0058 59.2513 80.8821 59.4347C80.865 59.4603 80.8394 59.4817 80.8181 59.5073C80.4554 59.9382 79.9349 60.3179 79.7813 60.8129C79.632 61.2993 80.1013 61.8155 80.2762 62.3233C81.4026 65.583 81.569 68.8854 80.7584 72.2347C80.6602 72.6315 80.9034 73.0795 81.2789 73.2203C81.4197 73.2758 81.4837 73.1777 81.5733 73.1137C82.017 72.7979 82.465 72.8406 82.8618 73.1649C83.3226 73.5361 83.7749 73.9286 84.1418 74.4022C84.5856 74.9825 84.5941 75.4006 84.129 75.9595C83.9584 76.1643 83.9968 76.2753 84.1461 76.4459C84.4021 76.7361 84.6538 77.0262 84.8842 77.3377C85.2341 77.8113 85.584 78.2209 86.2837 78.0843C86.6336 78.0161 86.9365 78.255 87.0986 78.5793C87.3717 79.1254 87.6576 79.6673 87.8069 80.2603C87.9776 80.9473 87.7984 81.3825 87.1626 81.6854C86.6378 81.9371 86.9408 82.3595 86.9194 82.6966C86.8981 83.0337 87.2309 82.9569 87.4314 82.9654C88.865 83.0251 89.9701 82.3041 90.5632 80.9259C91.0709 79.7483 91.152 78.5025 91.1264 77.2395C91.1221 76.9878 91.0154 76.911 90.7765 76.911C90.2645 76.9025 89.825 77.167 89.3002 77.2993C89.249 74.5814 89.424 71.8465 87.8666 69.4059C89.808 70.2763 91.5146 71.4198 92.8416 73.0838C94.177 74.7606 94.7445 76.7275 95.0688 78.8481L95.1029 78.8609ZM58.4309 68.1046C58.4394 71.2705 61.008 73.8433 64.1653 73.8433C67.3226 73.8433 69.8912 71.2747 69.8997 68.1046C69.9082 64.9174 67.3269 62.3403 64.1397 62.3446C60.9866 62.3531 58.4224 64.9345 58.4309 68.1003V68.1046ZM41.9232 82.4278C41.8634 82.7435 41.936 82.8545 42.273 82.7521C42.8746 82.5686 43.4592 82.3553 44.0224 82.0779C46.16 81.0326 48.0202 79.5862 49.8293 78.063C50.0512 77.8753 50 77.7387 49.872 77.5425C49.057 76.3222 48.4128 75.0166 47.9392 73.6257C47.905 73.5233 47.9264 73.3227 47.7514 73.3441C47.6405 73.3611 47.5424 73.4806 47.4485 73.5617C47.2992 73.6897 47.4272 73.7921 47.4954 73.8902C47.8154 74.3382 47.7514 74.7819 47.4186 75.1702C47.0304 75.6182 46.608 76.0363 46.1813 76.4545C45.9466 76.6849 45.5968 76.8982 45.3152 76.7531C44.7136 76.4459 44.4917 76.8555 44.2058 77.2054C43.9626 77.5041 43.7194 77.8027 43.4634 78.0929C43.3013 78.2763 43.2373 78.3958 43.489 78.5835C43.8602 78.8609 43.9712 79.2534 43.8005 79.7014C43.5957 80.239 43.3866 80.7809 43.1648 81.3099C43.0069 81.6897 42.7253 81.9798 42.3072 81.9969C41.9658 82.0097 41.8976 82.159 41.9232 82.4235V82.4278ZM80.5024 73.3014C79.9946 74.8587 79.3034 76.3009 78.4032 77.6363C78.2325 77.8881 78.4032 77.9734 78.544 78.0971C79.5936 78.9974 80.673 79.8593 81.8208 80.6315C83.105 81.4934 84.4277 82.2785 85.9296 82.7051C86.0746 82.7478 86.3648 83.0123 86.4032 82.6241C86.4245 82.4065 86.5696 82.0139 86.0533 82.0139C85.7162 82.0139 85.4346 81.8177 85.2768 81.519C84.9781 80.9515 84.6922 80.3798 84.5088 79.7569C84.3722 79.2918 84.432 78.8907 84.8288 78.5878C85.0592 78.4129 85.0293 78.2806 84.8587 78.0843C84.5088 77.6875 84.1717 77.2737 83.8432 76.8598C83.6896 76.6635 83.5488 76.5611 83.2842 76.7062C82.9813 76.8683 82.64 76.8385 82.3712 76.6294C81.8165 76.1942 81.2704 75.7377 80.865 75.1489C80.6218 74.7947 80.5109 74.3851 80.7712 74.0225C81.0613 73.6129 80.8394 73.4806 80.4981 73.3014H80.5024ZM48.8693 60.335C49.7013 58.7606 50.6741 57.3697 51.8773 56.1537C52.0266 56.0043 52.0096 55.9062 51.8645 55.7611C50.9088 54.8097 49.9616 53.8497 49.0144 52.8897C48.8992 52.7745 48.8096 52.7019 48.6602 52.8513C47.7984 53.7302 46.928 54.6006 46.0405 55.4966C46.7274 55.8465 47.2394 56.3713 47.7216 56.9302C48.272 57.5702 48.2677 57.9585 47.7472 58.6326C47.6448 58.7649 47.5936 58.8502 47.7216 58.9953C48.0928 59.4134 48.4512 59.8443 48.8693 60.3307V60.335ZM82.273 55.4966C81.4069 54.6177 80.5536 53.7686 79.7216 52.8982C79.5168 52.6849 79.4101 52.7958 79.265 52.9451C78.352 53.871 77.4389 54.8011 76.513 55.7142C76.3168 55.9062 76.3168 56.0171 76.5088 56.2134C77.6266 57.3569 78.5568 58.6411 79.3034 60.0577C79.4101 60.2582 79.4869 60.3393 79.6618 60.1174C79.952 59.7547 80.2549 59.4006 80.5706 59.055C80.7157 58.8929 80.7157 58.7862 80.5706 58.6155C80.0714 58.0225 80.0586 57.6427 80.5408 57.0369C81.0229 56.4353 81.5733 55.9019 82.2773 55.5051L82.273 55.4966ZM87.9136 44.4758C87.9178 43.2001 86.9792 42.1377 85.729 42.0097C84.4874 41.8817 83.3354 42.7009 83.0666 43.8955C82.7893 45.1414 83.4677 46.383 84.6538 46.7841C84.897 46.8651 85.1658 46.9889 85.1744 46.5409C85.1744 46.3574 85.2213 46.1611 85.4602 46.1739C85.7162 46.1867 85.6949 46.4043 85.6778 46.575C85.6437 46.8779 85.7461 46.9206 86.032 46.8523C87.1285 46.5963 87.9093 45.6193 87.9136 44.4715V44.4758ZM40.4128 44.4801C40.417 45.5894 41.1509 46.5451 42.2048 46.8353C42.4906 46.9121 42.7168 46.9675 42.6485 46.5323C42.6229 46.3702 42.6442 46.1867 42.8661 46.1782C43.0709 46.1697 43.1477 46.319 43.1477 46.4982C43.1434 46.9334 43.3738 46.895 43.6768 46.7926C44.8586 46.383 45.537 45.1457 45.2597 43.8998C44.9952 42.7051 43.8346 41.8859 42.5973 42.0139C41.3514 42.1419 40.4085 43.2086 40.417 44.4801H40.4128ZM59.3866 63.7185C57.68 63.2619 56.0458 62.8267 54.4074 62.3915C54.3904 62.4299 54.3733 62.4683 54.3562 62.5067C55.4997 63.6502 56.6389 64.7894 57.7781 65.9329C57.9061 66.0609 58.0128 66.1163 58.0896 65.8945C58.3626 65.1137 58.8021 64.431 59.3866 63.7227V63.7185ZM59.3866 72.4651C58.832 71.7953 58.3968 71.1595 58.145 70.4257C58.0128 70.0374 57.889 70.1355 57.6757 70.3531C56.6261 71.4113 55.568 72.4651 54.5184 73.519C54.4586 73.5787 54.3434 73.6214 54.4245 73.7921C56.0501 73.3569 57.6842 72.9217 59.3866 72.4651ZM73.9914 62.5067C73.9701 62.4683 73.9488 62.4299 73.9274 62.3915C72.289 62.831 70.6506 63.2705 68.944 63.727C69.4986 64.3798 69.9338 65.0326 70.1941 65.7793C70.3178 66.1377 70.433 66.0609 70.6336 65.8518C71.329 65.1435 72.0373 64.4438 72.7413 63.7441C73.1594 63.3302 73.5776 62.9206 73.9957 62.5067H73.9914ZM58.4565 77.8625C58.4906 77.8838 58.5248 77.9051 58.5632 77.9265C59.7194 76.7702 60.8714 75.6097 62.032 74.4534C62.1941 74.2913 62.1173 74.223 61.9466 74.159C61.2469 73.903 60.6112 73.5361 60.0352 73.0582C59.8474 72.9003 59.7706 72.9686 59.7152 73.1819C59.3013 74.7435 58.8789 76.3051 58.4608 77.8625H58.4565ZM69.8528 77.8411C69.8314 77.8753 69.8528 77.8625 69.8442 77.8497C69.4346 76.2838 69.0208 74.7222 68.6154 73.1563C68.5514 72.9046 68.4362 72.9387 68.2826 73.071C67.6597 73.5915 66.9557 73.9627 66.2474 74.2187C67.4506 75.4262 68.6581 76.6379 69.8528 77.8411ZM74.0384 73.7579C72.8181 72.5334 71.6618 71.3686 70.497 70.2081C70.3008 70.0161 70.2666 70.2294 70.2197 70.3574C69.9765 70.9889 69.6693 71.5905 69.2213 72.0982C68.9184 72.4395 69.0762 72.5078 69.409 72.5931C70.6464 72.9131 71.8837 73.2502 73.121 73.5745C73.3941 73.647 73.6544 73.7707 74.0426 73.7579H74.0384ZM69.8698 58.3339C69.84 58.3126 69.8058 58.287 69.776 58.2657C68.6197 59.4219 67.4634 60.5739 66.3072 61.7302C66.1578 61.8795 66.192 61.9563 66.384 62.0246C67.0837 62.2806 67.7237 62.6433 68.2912 63.1254C68.4661 63.2747 68.5557 63.2449 68.6154 63.0145C69.0293 61.4529 69.4517 59.8955 69.8698 58.3339ZM58.4565 58.3126C58.8789 59.8955 59.3013 61.4827 59.728 63.0699C59.7621 63.1979 59.8346 63.2833 59.9669 63.1723C60.6154 62.6262 61.3536 62.2337 62.096 61.9563C60.8672 60.7275 59.6682 59.5286 58.4565 58.3126ZM75.4976 68.1473C75.4976 68.1131 75.4976 68.0747 75.5018 68.0406C73.9146 67.6182 72.3274 67.1958 70.7402 66.7691C70.5056 66.7051 70.5013 66.8459 70.5269 67.0038C70.6506 67.7249 70.6592 68.4417 70.5269 69.1585C70.48 69.4187 70.5866 69.4699 70.817 69.4059C71.1712 69.3035 71.5296 69.2139 71.8837 69.1201C73.0869 68.7958 74.2944 68.4715 75.4976 68.143V68.1473ZM64.1013 79.3729C64.144 79.3729 64.1866 79.3729 64.2336 79.3729C64.6517 77.8155 65.0698 76.2539 65.4922 74.6966C65.5605 74.4491 65.4538 74.4406 65.2448 74.4619C64.8309 74.5089 64.4128 74.5302 63.9989 74.543C63.6106 74.5601 63.2266 74.4193 62.8341 74.5089C62.9237 74.8971 63.0048 75.2854 63.1114 75.6737C63.44 76.9067 63.777 78.1398 64.1098 79.3729H64.1013ZM64.2293 56.8193C64.1866 56.8193 64.1397 56.8193 64.097 56.8193C63.6746 58.3894 63.2522 59.9595 62.8298 61.5297C62.7829 61.7089 62.8554 61.7558 63.0346 61.7259C63.7856 61.6022 64.5365 61.6022 65.2874 61.7259C65.5093 61.7643 65.5392 61.679 65.4922 61.4913C65.0741 59.9339 64.656 58.3766 64.2336 56.8193H64.2293ZM52.8288 68.0534C52.8288 68.0833 52.8288 68.1131 52.8288 68.143C54.3989 68.5654 55.9733 68.9878 57.5434 69.4102C57.8336 69.487 57.825 69.3163 57.7909 69.1201C57.6714 68.4331 57.6672 67.7505 57.7909 67.0635C57.8421 66.799 57.761 66.7094 57.4922 66.7862C56.9973 66.9227 56.5024 67.0465 56.0074 67.183C54.945 67.4731 53.8869 67.7633 52.8245 68.0534H52.8288ZM83.233 49.0283C83.1776 49.0582 83.1136 49.0753 83.0709 49.1179C82.4821 49.7067 81.8933 50.2998 81.3088 50.8929C81.1893 51.0123 81.2789 51.0891 81.3643 51.1702C82.2389 52.0406 83.1136 52.911 83.9968 53.7771C84.0565 53.8369 84.1248 54.0161 84.2528 53.8454C84.3381 53.7345 84.3765 53.6363 84.193 53.551C83.7237 53.3334 83.617 52.8897 83.5787 52.4331C83.5274 51.8529 83.6256 51.2811 83.6853 50.7094C83.7152 50.4107 83.8986 50.1803 84.1546 50.0139C84.3466 49.8902 84.56 49.8305 84.7818 49.7878C84.8672 49.7707 84.9312 49.7195 84.9226 49.6257C84.9226 49.5873 84.88 49.5275 84.8501 49.5233C84.2997 49.4081 83.7536 49.2843 83.2373 49.0283H83.233ZM45.0805 49.0411C44.6666 49.2161 44.2314 49.3782 43.7706 49.4593C43.6341 49.4849 43.3952 49.4337 43.408 49.6726C43.4208 49.8859 43.6298 49.8006 43.7536 49.8262C44.2442 49.9158 44.5856 50.2145 44.6496 50.7051C44.7264 51.311 44.8074 51.9169 44.7605 52.5313C44.7264 52.9494 44.6026 53.3206 44.1845 53.5169C44.0309 53.5894 43.9328 53.6662 44.0693 53.8369C44.2144 54.0203 44.2869 53.8369 44.3594 53.7686C45.217 52.9238 46.0704 52.0662 46.9322 51.2257C47.0944 51.0678 47.1072 50.9654 46.9408 50.799C46.3989 50.2699 45.8741 49.7281 45.3408 49.1947C45.2725 49.1265 45.2128 49.0497 45.0848 49.0497L45.0805 49.0411ZM82.1962 73.4507C81.8336 73.5275 81.6117 73.8347 81.3685 74.1078C81.1424 74.3595 81.1381 74.6454 81.3557 74.8929C81.7312 75.3067 82.1322 75.7035 82.529 76.0961C82.7637 76.3265 83.024 76.3009 83.2629 76.1089C83.4122 75.9894 83.5488 75.8529 83.6768 75.7121C84.0266 75.3281 84.0394 75.0849 83.6896 74.7137C83.3525 74.351 82.9941 74.0054 82.64 73.6555C82.5248 73.5403 82.3925 73.4507 82.1877 73.4593L82.1962 73.4507ZM42.1706 81.4721C42.4352 81.4977 42.576 81.3611 42.6613 81.1478C42.8618 80.6443 43.0581 80.1366 43.2672 79.6331C43.4122 79.279 43.2757 79.0401 42.9685 78.8779C42.785 78.7798 42.5888 78.7115 42.3925 78.639C42.0085 78.4897 41.7354 78.6134 41.5818 78.9889C41.441 79.3302 41.3344 79.6886 41.1637 80.0086C40.656 80.9686 41.249 81.2843 42.1706 81.4721ZM86.1344 78.575C86.0149 78.6134 85.8485 78.6646 85.6821 78.7286C84.9696 79.0145 84.8928 79.1979 85.1658 79.8934C85.3109 80.2689 85.4517 80.6443 85.601 81.0155C85.7973 81.4849 86.0149 81.5745 86.5184 81.3995C87.312 81.1265 87.4826 80.9259 87.3034 80.3969C87.1328 79.8977 86.9237 79.407 86.7189 78.9206C86.625 78.6987 86.4416 78.5707 86.1344 78.575ZM45.8442 56.0555C45.4048 56.1793 45.1104 56.5035 44.8928 56.8705C44.7093 57.1819 44.9056 57.4465 45.1317 57.6769C45.4389 57.9841 45.729 58.3041 46.0405 58.5985C46.4288 58.9611 46.6293 58.9569 47.0304 58.5942C47.1584 58.4747 47.2778 58.3467 47.3973 58.2145C47.6362 57.9414 47.6277 57.6555 47.3888 57.3953C47.0048 56.9857 46.6037 56.5931 46.2069 56.2006C46.113 56.1067 45.9936 56.0555 45.8485 56.0555H45.8442ZM42.3498 51.7291C42.3498 51.7291 42.3626 51.7291 42.3712 51.7291C42.3712 51.9851 42.3584 52.2411 42.3712 52.4971C42.4053 52.9793 42.6314 53.1542 43.1904 53.1457C43.9456 53.1371 44.1717 52.9963 44.1888 52.4758C44.2016 52.0278 44.1802 51.5798 44.1504 51.1318C44.1077 50.479 43.937 50.3382 43.2757 50.3553C42.4992 50.3766 42.337 50.5515 42.3498 51.3451C42.3498 51.4731 42.3498 51.6011 42.3498 51.7291ZM83.4976 57.199C83.5146 56.7809 82.849 56.0769 82.4736 56.0683C82.337 56.0641 82.2176 56.1067 82.1237 56.2006C81.7141 56.6102 81.3002 57.0113 80.9077 57.4337C80.6858 57.6683 80.7072 57.9457 80.9162 58.1718C81.1978 58.479 81.4154 58.9099 81.9402 58.863C81.9829 58.863 82.0341 58.8289 82.064 58.7947C82.5162 58.3425 82.9685 57.8859 83.4122 57.4251C83.472 57.3611 83.4805 57.2502 83.4976 57.199ZM85.9722 51.7078C85.9722 51.7078 85.9765 51.7078 85.9808 51.7078C85.9808 51.4987 85.9808 51.2897 85.9808 51.0806C85.9723 50.5942 85.6864 50.3382 85.1317 50.3126C84.5984 50.287 84.2272 50.5345 84.1888 50.9782C84.1504 51.4561 84.1248 51.9382 84.129 52.4203C84.129 52.9366 84.3893 53.1073 85.1061 53.1286C85.7376 53.1457 85.8869 53.0347 85.9296 52.4758C85.9509 52.2198 85.9552 51.9638 85.968 51.7078H85.9722ZM47.1114 74.3809C47.0816 74.1121 46.7744 73.903 46.5269 73.6641C46.241 73.3825 45.9424 73.3654 45.648 73.6726C45.3152 74.0225 44.9738 74.3595 44.6325 74.6966C44.304 75.0166 44.3125 75.3409 44.6154 75.6651C44.7562 75.8187 44.9013 75.9681 45.0634 76.1003C45.3237 76.3179 45.5797 76.3222 45.8272 76.0662C46.1856 75.695 46.5482 75.3366 46.9109 74.9697C47.0389 74.8417 47.1328 74.6966 47.1114 74.3809Z" fill="#151515"/>
<path d="M18.6058 72.7553C18.5248 71.9446 18.4266 71.1339 18.3669 70.319C17.9872 65.1222 18.2176 59.9766 19.681 54.9377C19.8645 54.3062 20.0565 53.6747 20.2784 53.0561C20.3978 52.7233 20.3893 52.5057 20.1077 52.2241C17.7866 49.8603 17.4538 46.6561 19.1861 43.8785C19.3994 43.5371 19.5018 43.5713 19.7536 43.8273C21.1957 45.2779 21.8997 47.0017 21.8485 49.1009C22.3562 48.1579 22.8298 47.2747 23.3077 46.3915C23.4186 46.1825 23.2224 46.1099 23.1285 45.999C22.1216 44.847 21.392 43.5713 21.3024 42.0011C21.217 40.5334 21.6778 39.2193 22.416 37.9777C22.5909 37.6833 22.7061 37.743 22.9024 37.9521C24.481 39.6545 25.3002 41.5873 24.6901 44.0747C25.313 43.2001 25.8549 42.4363 26.3968 41.6726C26.5376 41.4721 26.3498 41.3867 26.256 41.2715C25.3856 40.2091 24.7242 39.0486 24.5706 37.6577C24.3872 36.0107 24.929 34.5601 25.7994 33.199C25.9914 32.8961 26.1066 33.1137 26.2261 33.2459C27.8304 35.0379 28.5813 37.0518 27.8517 39.4539C27.8261 39.5435 27.809 39.6331 27.7536 39.8635C28.5344 38.9505 29.2298 38.1398 29.921 37.3291C30.0789 37.1457 29.8869 37.039 29.8186 36.911C29.089 35.5883 28.6325 34.2017 28.8458 32.6699C29.0549 31.1638 29.8016 29.9307 30.8341 28.847C31.0858 28.5825 31.1669 28.7617 31.2778 28.9537C32.3829 30.8097 32.8394 32.7425 31.969 34.8331C31.9477 34.8886 31.9392 34.9526 31.8922 35.1403C32.3232 34.7179 32.6517 34.3595 33.0144 34.0481C33.6885 33.4721 34.0938 32.7723 34.3797 31.9147C35.4165 28.847 37.7461 27.5585 40.7584 27.3622C41.0698 27.3409 41.0826 27.4475 41.0357 27.7206C40.5066 30.8395 38.3264 32.9814 35.1946 33.4081C34.8874 33.4507 34.6613 33.5531 34.465 33.8006C33.9701 34.4321 33.4496 35.0422 32.929 35.6737C33.0912 35.759 33.1509 35.6267 33.232 35.5755C34.9813 34.4235 36.8245 34.4662 38.7317 35.1147C39.12 35.247 38.9322 35.4134 38.8128 35.6011C37.217 38.0843 34.5077 39.0315 31.6661 38.0587C31.2906 37.9307 31.0944 37.9905 30.8768 38.3062C30.4458 38.9377 29.9765 39.5435 29.5498 40.2006C30.2752 39.7995 31.0261 39.5137 31.8496 39.4497C32.7114 39.3814 33.5434 39.5137 34.3669 39.7569C34.6997 39.855 34.6656 39.9787 34.5205 40.2219C33.2106 42.415 30.9109 43.3579 28.385 42.6966C27.9754 42.5899 27.7578 42.6454 27.5488 43.0251C27.233 43.6011 26.849 44.1387 26.4949 44.6891C26.6058 44.7958 26.6613 44.7019 26.7082 44.6635C28.257 43.5115 29.9893 43.3963 31.8069 43.7505C32.1013 43.8102 32.0928 43.9254 31.9818 44.1686C30.7786 46.7926 28.2016 48.1537 25.3344 47.6289C24.9589 47.5606 24.7626 47.6203 24.5834 47.983C24.1397 48.8875 23.6533 49.7707 23.2522 50.7137C23.3802 50.735 23.4058 50.6539 23.4485 50.607C24.8053 49.0411 26.5973 48.5334 28.5856 48.4993C29.0165 48.4907 29.1189 48.6059 28.9909 49.0497C28.0736 52.1345 25.7141 53.9009 22.4672 53.8625C22.0618 53.8582 21.8997 53.9691 21.7632 54.3531C20.6624 57.5147 20.0693 60.7702 19.7664 64.0939C19.5018 66.9867 19.3696 69.8966 18.5973 72.751L18.6058 72.7553ZM18.785 69.8881C18.8832 68.9921 18.9984 68.1515 19.0666 67.3067C19.233 65.3739 19.3824 63.4411 19.6384 61.5169C20.2101 57.1606 21.5669 53.0603 23.521 49.1435C25.6885 44.7958 28.4106 40.8107 31.376 36.9793C32.161 35.9681 32.9632 34.9697 33.761 33.967C32.8608 34.8246 31.9946 35.7078 31.1584 36.6166C27.5701 40.5121 24.4341 44.7233 22.1685 49.5403C20.0224 54.1014 18.9045 58.9142 18.6826 63.9318C18.5973 65.8945 18.6058 67.8657 18.7936 69.8881H18.785ZM34.7594 33.0241C37.9808 32.7041 39.7002 30.9505 40.4981 28.2027C40.6389 27.7249 40.3018 27.8273 40.0757 27.8614C37.5328 28.2454 35.4592 29.4187 34.5546 32.7425C34.4906 32.9771 34.4906 33.0881 34.7594 33.0241ZM21.4176 48.7041C21.4346 46.9419 20.7434 45.6491 19.7664 44.4715C19.5744 44.2411 19.4677 44.2454 19.3312 44.5185C18.0597 47.0529 18.2602 49.4294 20.1674 51.6651C20.3765 51.9126 20.4874 51.9126 20.6325 51.6139C21.1018 50.6326 21.4474 49.6257 21.4176 48.7041ZM22.8085 53.4486C25.4794 53.3718 27.5488 51.8486 28.4234 49.391C28.5514 49.0326 28.4704 48.9558 28.1077 48.9558C25.5264 48.9814 23.3632 50.5729 22.5226 53.0603C22.3733 53.5083 22.625 53.4571 22.8085 53.4443V53.4486ZM32.0117 32.6955C31.9818 31.5691 31.6618 30.5579 31.1626 29.5894C31.0218 29.3121 30.9237 29.3675 30.7616 29.5638C28.9354 31.7569 28.7946 34.0651 30.0704 36.4886C30.16 36.6593 30.2368 36.7489 30.4074 36.5441C31.3418 35.4177 31.9648 34.1633 32.0074 32.6998L32.0117 32.6955ZM21.729 41.4593C21.7162 43.1574 22.3605 44.3819 23.2736 45.5041C23.4912 45.7771 23.5765 45.6491 23.7002 45.423C24.9546 43.1147 24.6773 40.6443 22.945 38.6262C22.7445 38.3958 22.6549 38.3915 22.5184 38.6646C22.0533 39.6075 21.712 40.5846 21.729 41.455V41.4593ZM26.0298 33.6982C24.4341 36.1814 24.6901 38.6689 26.4608 40.8406C26.6656 41.0923 26.7338 40.9046 26.8277 40.751C28.2101 38.5323 27.8901 35.6054 26.0298 33.6982ZM26.4992 47.2577C28.6837 47.3601 30.2026 46.2806 31.3205 44.5014C31.5168 44.1899 31.4314 44.0747 31.0944 44.0619C30.7573 44.0491 30.4202 44.0278 30.0832 44.0235C27.9413 44.0022 26.4565 45.0774 25.3685 46.831C25.168 47.1553 25.3344 47.2278 25.5904 47.2491C25.8933 47.2747 26.1962 47.2534 26.5034 47.2534L26.4992 47.2577ZM33.7141 38.0161C35.7322 38.0161 37.1061 37.1073 38.2154 35.7078C38.3776 35.503 38.3264 35.4177 38.0789 35.3579C37.7034 35.2641 37.328 35.2001 36.9482 35.1489C34.8149 34.8673 33.2277 35.7974 31.9434 37.4017C31.7813 37.6022 31.824 37.6833 32.08 37.7473C32.673 37.8966 33.2704 37.9947 33.7184 38.0118L33.7141 38.0161ZM32.4042 39.8806C30.8042 39.855 29.392 40.5889 28.432 41.9414C28.2826 42.1547 28.2698 42.2571 28.56 42.3169C30.6848 42.7521 32.3488 42.3595 33.8634 40.4182C34.081 40.1409 33.9402 40.0726 33.6928 40.0171C33.2704 39.9233 32.8394 39.8934 32.4042 39.8849V39.8806Z" fill="#151515"/>
<path d="M95.4016 35.6907C94.8213 34.991 94.2539 34.2998 93.6864 33.6129C93.5456 33.4422 93.3493 33.4507 93.1573 33.4209C90 32.9857 87.8325 30.8822 87.2864 27.7547C87.2266 27.4049 87.2992 27.3537 87.6234 27.3622C90.896 27.4731 93.2768 29.3377 94.1514 32.5163C94.2538 32.8918 94.4245 33.1819 94.7018 33.4422C95.2608 33.967 95.8069 34.5089 96.3573 35.0422C96.4341 34.8971 96.3274 34.7905 96.2848 34.6753C95.4954 32.6017 95.9818 30.703 97.0741 28.8854C97.2576 28.5825 97.377 28.7233 97.5349 28.8854C99.7578 31.2577 100.172 33.9243 98.529 36.8257C98.3584 37.1329 98.3712 37.3035 98.5973 37.5595C99.2416 38.2721 99.8517 39.0145 100.539 39.8209C100.449 39.2278 100.274 38.7499 100.223 38.2465C100.027 36.2369 100.846 34.6241 102.139 33.1819C102.386 32.9089 102.471 33.1051 102.587 33.2886C104.234 35.9211 104.234 38.4385 102.322 40.9387C101.857 41.5489 101.857 41.5446 102.309 42.1846C102.723 42.7734 103.133 43.3665 103.632 44.0833C103.001 41.4294 103.939 39.4369 105.676 37.6918C107.003 39.4753 107.664 42.1846 106.205 44.6038C105.898 45.1158 105.552 45.5979 105.147 46.0331C105.053 46.1355 104.92 46.2166 105.023 46.4001C105.496 47.2705 105.962 48.1451 106.478 49.1009C106.346 46.7798 107.323 45.0347 108.871 43.5286C110.57 45.9734 110.8 48.8449 108.94 51.3579C108.692 51.695 108.423 52.015 108.129 52.3094C107.941 52.4971 107.907 52.6507 107.993 52.8982C108.914 55.4795 109.503 58.1377 109.827 60.8598C110.156 63.599 110.181 66.3425 110.032 69.0902C109.977 70.1185 109.874 71.1425 109.789 72.1665C109.772 72.3542 109.742 72.5462 109.678 72.7339C109.375 71.5649 109.166 70.3787 109.025 69.1841C108.705 66.4235 108.594 63.6417 108.167 60.8897C107.813 58.5985 107.25 56.3627 106.499 54.1697C106.393 53.8582 106.213 53.8539 105.957 53.8539C103.982 53.8582 102.207 53.3505 100.846 51.8145C100.108 50.9825 99.6384 50.0054 99.3013 48.9515C99.1989 48.6273 99.2544 48.495 99.6256 48.495C101.729 48.4865 103.594 49.0497 105.061 50.8161C104.942 50.3126 104.733 49.967 104.558 49.6086C104.276 49.0326 103.961 48.4694 103.687 47.8891C103.551 47.6033 103.384 47.535 103.082 47.599C102.288 47.7611 101.482 47.7654 100.684 47.6289C98.576 47.2747 97.2618 45.9265 96.3146 44.1174C96.1525 43.8059 96.336 43.7761 96.5536 43.7334C98.4309 43.3579 100.202 43.5371 101.793 44.7403C101.439 44.0022 100.974 43.3451 100.53 42.671C100.415 42.4961 100.274 42.6155 100.142 42.6497C99.2288 42.8886 98.3029 42.9867 97.3728 42.8118C95.7472 42.5046 94.6336 41.4806 93.7589 40.1409C93.5882 39.8806 93.7162 39.8251 93.9381 39.7569C95.5936 39.2406 97.1978 39.2449 98.7125 40.2134C98.849 40.111 98.7125 40.047 98.6741 39.9915C98.2517 39.407 97.8037 38.8353 97.3941 38.2379C97.2064 37.9691 97.0357 37.9222 96.72 38.0289C93.8741 39.0102 91.2458 38.1441 89.569 35.6907C89.249 35.2214 89.2448 35.2086 89.7952 35.0337C91.681 34.4363 93.4986 34.4662 95.1882 35.6353C95.2266 35.6609 95.2693 35.6865 95.312 35.7035C95.3205 35.7078 95.3418 35.695 95.4016 35.6737V35.6907ZM94.5653 33.9627C95.3717 34.9782 96.1866 35.9851 96.976 37.0091C100.312 41.327 103.333 45.8454 105.607 50.8289C107.621 55.2449 108.671 59.8913 109.051 64.7083C109.119 65.5702 109.174 66.4363 109.255 67.2982C109.337 68.143 109.439 68.9835 109.533 69.8283C109.733 66.8545 109.746 63.8891 109.396 60.9281C108.991 57.4977 108.138 54.1953 106.811 51.0081C104.967 46.5921 102.348 42.6667 99.2885 39.0145C97.8037 37.2438 96.2336 35.5585 94.5653 33.9585V33.9627ZM93.4432 33.0113C93.8613 33.0411 93.8656 33.0411 93.7461 32.6187C93.6864 32.4054 93.6138 32.1921 93.537 31.9787C92.6368 29.5126 90.8277 28.2113 88.2762 27.8571C88.0202 27.823 87.713 27.7291 87.8368 28.2283C88.4981 30.9206 90.6869 32.7979 93.4474 33.007L93.4432 33.0113ZM109.793 47.4923C109.819 46.5494 109.49 45.5382 109.012 44.5611C108.889 44.3051 108.799 44.1899 108.556 44.4715C106.606 46.7414 106.444 49.1521 107.715 51.6566C107.843 51.9083 107.954 51.9083 108.129 51.6993C109.106 50.5217 109.806 49.2331 109.793 47.4923ZM100.44 48.9643C100.342 48.9643 100.248 48.9686 100.15 48.9643C99.8773 48.9473 99.7792 49.007 99.8773 49.3185C100.645 51.7505 102.949 53.4486 105.501 53.4529C105.774 53.4529 105.923 53.4443 105.812 53.0945C105.049 50.7009 102.928 49.0625 100.44 48.9643ZM99.0794 33.5574C99.1136 31.9233 98.465 30.6817 97.5434 29.5425C97.3429 29.295 97.2704 29.3974 97.1466 29.6107C95.8496 31.8678 96.1312 34.5387 97.8634 36.4886C98.0896 36.7403 98.1621 36.6635 98.2816 36.4203C98.7466 35.4774 99.0965 34.5046 99.0752 33.5574H99.0794ZM106.597 41.4422C106.614 40.5803 106.273 39.6075 105.808 38.6646C105.701 38.447 105.625 38.3659 105.411 38.6006C103.675 40.5121 103.372 43.1446 104.63 45.4358C104.767 45.6833 104.857 45.7558 105.061 45.4998C105.97 44.3734 106.614 43.1489 106.602 41.4422H106.597ZM100.641 37.6705C100.641 38.703 100.978 39.8891 101.49 40.7425C101.605 40.9387 101.686 41.071 101.891 40.815C103.658 38.5921 103.803 36.3393 102.467 33.9201C102.343 33.6939 102.25 33.6897 102.096 33.8902C101.238 35.0081 100.607 36.2155 100.637 37.6747L100.641 37.6705ZM98.064 44.0321C98.064 44.0321 97.9701 44.0193 97.8762 44.0321C97.552 44.0918 97.0698 43.9041 96.9333 44.1942C96.8053 44.4673 97.1936 44.7702 97.3856 45.039C98.6869 46.8779 100.513 47.4838 102.68 47.2619C103.026 47.2278 103.154 47.1211 102.919 46.7542C101.806 45.0091 100.304 43.9638 98.064 44.0278V44.0321ZM94.6421 38.0118C95.0602 37.999 95.6405 37.8966 96.2165 37.7558C96.464 37.6961 96.5664 37.6321 96.3786 37.3889C94.689 35.2385 92.6197 34.6923 90.2346 35.3622C89.9616 35.439 89.9786 35.5414 90.1194 35.7206C91.233 37.1201 92.6112 38.0203 94.6421 38.0161V38.0118ZM95.9946 39.8806C95.504 39.8806 95.056 39.919 94.6165 40.0171C94.4074 40.0641 94.241 40.1238 94.4458 40.3883C95.9562 42.3425 97.6458 42.7606 99.7877 42.3041C100.039 42.2486 100.069 42.1547 99.9157 41.9585C98.9045 40.6785 97.6714 39.8123 95.9946 39.8806Z" fill="#151515"/>
<path d="M96.2933 96.2987C97.5605 94.2891 98.8106 92.2881 99.92 90.2017C101.947 86.4001 103.564 82.4449 104.34 78.1825C105.266 73.0753 104.882 68.1345 102.365 63.4881C101.396 61.6961 100.167 60.0918 98.7168 58.6582C98.5248 58.4662 98.2986 58.3126 98.0896 58.1377C98.1237 58.0907 98.1578 58.0438 98.1877 57.9926C98.576 58.1121 98.9685 58.2187 99.3525 58.3553C104.238 60.1089 107.148 63.6289 108.342 68.5995C109.396 72.9814 108.884 77.2907 107.429 81.4977C105.33 87.5734 101.618 92.4673 96.4085 96.2305C96.3701 96.2561 96.3274 96.2731 96.289 96.2945L96.2933 96.2987ZM99.6597 58.9142C99.7066 59.0209 99.7152 59.055 99.7322 59.0763C99.8261 59.1873 99.92 59.2939 100.018 59.4049C103.146 62.9462 104.865 67.0891 105.177 71.791C105.381 74.8715 104.984 77.9051 104.17 80.8833C102.915 85.4785 100.854 89.7025 98.3712 93.743C98.2645 93.9137 98.1152 94.063 98.0896 94.2849C98.2602 94.3147 98.32 94.1782 98.4096 94.1014C104.067 89.0411 107.553 82.8331 108.338 75.2129C108.603 72.6315 108.419 70.0801 107.634 67.5969C106.337 63.5009 103.76 60.5569 99.6597 58.9099V58.9142Z" fill="#151515"/>
<path d="M30.2453 58.031C29.2 59.0294 28.2869 60.0235 27.4848 61.1115C24.7413 64.8235 23.4912 69.0091 23.5381 73.6043C23.585 78.0118 24.7541 82.1633 26.4693 86.1825C27.9114 89.5617 29.7333 92.7275 31.7728 95.7782C31.8709 95.9233 31.9605 96.0726 31.9989 96.2902C31.5637 95.9659 31.1157 95.6587 30.6976 95.3174C24.9333 90.6582 21.2128 84.7361 19.8389 77.4273C19.1093 73.5361 19.2629 69.679 20.8416 65.9755C22.5994 61.8454 25.7098 59.247 30.0064 58.0353C30.049 58.0225 30.1002 58.0353 30.2453 58.0353V58.031ZM30.1813 94.3361C30.2069 94.3062 30.2325 94.2763 30.2581 94.2465C30.1514 94.0673 30.0448 93.8881 29.9381 93.7131C27.6426 89.9798 25.7013 86.0801 24.4384 81.8689C23.3077 78.0929 22.7957 74.2614 23.3077 70.3233C23.8154 66.4491 25.3301 63.0187 27.8005 60.0022C28.0778 59.6651 28.3637 59.3323 28.7264 58.9057C28.5173 58.9825 28.4277 59.0123 28.3424 59.0465C25.1082 60.399 22.7701 62.6774 21.345 65.8731C19.7109 69.5382 19.5445 73.3739 20.24 77.2481C21.4218 83.8145 24.6261 89.2843 29.537 93.7771C29.7461 93.9691 29.9637 94.1483 30.177 94.3318L30.1813 94.3361Z" fill="#151515"/>
<path d="M24.9802 91.4262C24.4085 90.9782 23.888 90.5942 23.393 90.1761C20.0352 87.3089 17.0485 84.1174 14.8213 80.2689C13.2298 77.5211 12.3296 74.5942 12.3552 71.3771C12.3808 68.5697 12.0352 65.7963 11.0069 63.151C10.4522 61.7259 9.69277 60.4331 8.46397 59.4646C7.91357 59.0337 7.3077 58.7137 6.62076 58.5601C6.47143 58.5259 6.21117 58.5601 6.27943 58.2785C6.34343 58.0097 6.56957 58.1462 6.7189 58.1633C9.90183 58.543 12.385 60.1259 14.2922 62.6518C16.0373 64.9601 16.9205 67.6267 17.4666 70.4299C17.8336 72.3115 17.8549 74.2315 18.209 76.1131C19.2245 81.5233 21.4346 86.4129 24.656 90.863C24.7626 91.0123 24.9205 91.1361 24.976 91.4262H24.9802ZM22.9152 89.1563C21.7205 87.1851 20.6794 85.1457 19.8048 83.0209C18.6954 80.3243 17.8976 77.5425 17.5605 74.6454C17.3642 72.9601 17.2405 71.2662 16.865 69.6022C16.2421 66.8758 15.2394 64.3286 13.3792 62.191C12.112 60.7361 10.5802 59.6694 8.61756 58.9995C10.768 60.8043 11.6469 63.1467 12.2101 65.6598C12.6794 67.7547 12.8245 69.8838 12.833 72.0171C12.8416 74.2998 13.4048 76.4289 14.3776 78.4641C16.3957 82.6881 19.472 86.0715 22.9194 89.1606L22.9152 89.1563Z" fill="#151515"/>
<path d="M97.2576 87.919C97.1893 90.0267 96.8309 92.0875 96.161 94.0886C94.2794 99.6907 90.5461 103.629 85.2426 106.108C81.1082 108.045 76.7306 108.941 72.161 108.851C71.3504 108.834 70.608 108.608 70.0106 108.028C68.9653 107.017 69.2085 105.651 70.5354 105.058C71.1797 104.768 71.8709 104.734 72.5621 104.7C75.681 104.555 78.7616 104.149 81.7781 103.3C87.5253 101.683 91.7749 98.2059 94.6762 93.0219C95.5296 91.4945 96.3018 89.9243 97.057 88.3457C97.1253 88.2006 97.1936 88.0598 97.2618 87.9147L97.2576 87.919ZM96.4896 90.5558C96.4042 90.7009 96.3146 90.8459 96.2378 90.9995C95.7557 91.9809 95.2266 92.9323 94.6677 93.871C92.1077 98.1761 88.5621 101.325 83.8304 103.074C80.2122 104.41 76.449 104.96 72.6176 105.131C71.9136 105.161 71.201 105.186 70.5568 105.528C69.7162 105.971 69.5456 106.799 70.1386 107.541C70.4928 107.985 70.9664 108.258 71.5253 108.344C72.9504 108.561 74.3712 108.412 75.7962 108.262C78.5226 107.981 81.168 107.345 83.7066 106.313C89.9786 103.765 94.2794 99.3963 96.1013 92.7702C96.2976 92.0534 96.4981 91.3323 96.4896 90.5601V90.5558Z" fill="#151515"/>
<path d="M31.056 87.9105C31.5637 88.943 32.0586 89.9798 32.5749 91.0081C33.8762 93.6065 35.4037 96.047 37.473 98.1206C40.2634 100.92 43.6768 102.575 47.4613 103.548C50.1962 104.252 52.9824 104.576 55.7941 104.704C56.4384 104.734 57.0784 104.772 57.6885 105.011C59.1477 105.587 59.4037 107.072 58.2304 108.113C57.7056 108.578 57.0698 108.83 56.3829 108.838C49.8506 108.92 43.8005 107.379 38.5738 103.309C34.6826 100.28 32.4469 96.2091 31.457 91.4177C31.2181 90.2699 31.0858 89.1051 31.056 87.9147V87.9105ZM31.8069 90.5003C31.7258 90.8374 31.8282 91.0678 31.8752 91.2982C32.865 96.1537 35.169 100.233 39.1626 103.228C44.2314 107.025 50.0512 108.472 56.2976 108.42C57.0144 108.416 57.6842 108.147 58.1664 107.558C58.7808 106.803 58.6058 105.967 57.744 105.515C57.1722 105.216 56.5408 105.156 55.9221 105.135C53.4304 105.054 50.9685 104.751 48.528 104.248C41.7141 102.844 36.5301 99.2129 33.1808 93.0603C32.7285 92.2326 32.289 91.4006 31.8026 90.4961L31.8069 90.5003Z" fill="#151515"/>
<path d="M29.5925 114.261C31.9946 111.945 34.5504 109.858 37.7162 108.685C40.2592 107.742 42.7936 107.896 45.3066 108.817C46.241 109.158 47.1754 109.5 48.1013 109.867C50.4864 110.81 52.9525 111.061 55.4869 110.737C56.1653 110.652 56.8352 110.66 57.488 110.886C58.1834 111.13 58.704 111.569 58.8362 112.324C58.9685 113.092 58.6442 113.707 58.0682 114.193C57.4197 114.739 56.6389 114.889 55.8197 114.923C52.4917 115.051 49.296 114.377 46.2026 113.229C43.5232 112.239 40.8053 111.693 37.9424 112.038C35.681 112.312 33.5008 112.892 31.3546 113.63C30.7658 113.835 30.1856 114.052 29.5968 114.266L29.5925 114.261ZM31.5466 112.994C32.7968 112.691 34.0042 112.333 35.2373 112.06C37.9594 111.45 40.6901 111.262 43.4336 111.919C45.025 112.299 46.5354 112.943 48.1013 113.412C50.4992 114.125 52.9354 114.547 55.4442 114.509C56.2464 114.496 57.057 114.441 57.7312 113.912C58.1962 113.545 58.5077 113.071 58.4181 112.461C58.3242 111.821 57.8805 111.458 57.2832 111.283C56.7712 111.134 56.2549 111.087 55.713 111.147C53.6949 111.381 51.6853 111.394 49.7013 110.835C48.1525 110.4 46.6848 109.76 45.1744 109.222C42.721 108.352 40.2677 108.194 37.7888 109.12C35.7322 109.888 33.936 111.083 32.2293 112.435C31.9989 112.619 31.7728 112.811 31.5466 112.998V112.994Z" fill="#151515"/>
<path d="M98.7637 114.223C97.232 113.707 95.7215 113.169 94.1685 112.768C91.745 112.137 89.296 111.748 86.7786 112.03C85.3621 112.188 84.0096 112.572 82.6784 113.05C80.1013 113.98 77.4773 114.709 74.7253 114.884C73.7312 114.948 72.7328 114.991 71.7429 114.842C71.0048 114.726 70.3605 114.419 69.8954 113.813C69.1146 112.802 69.4218 111.539 70.5781 110.997C71.2053 110.703 71.8837 110.613 72.5578 110.716C75.745 111.206 78.753 110.575 81.6757 109.325C82.9173 108.796 84.1973 108.378 85.5413 108.173C87.2437 107.913 88.9077 108.083 90.5248 108.664C93.7418 109.82 96.3104 111.94 98.768 114.223H98.7637ZM96.865 113.105C96.72 112.952 96.673 112.892 96.6133 112.841C95.1413 111.642 93.6053 110.537 91.8944 109.696C89.7013 108.612 87.4101 108.181 84.9866 108.702C83.4592 109.03 82.0256 109.645 80.5749 110.195C78.6378 110.933 76.6538 111.403 74.5632 111.292C73.889 111.258 73.2192 111.198 72.5493 111.134C71.8624 111.07 71.201 111.134 70.5952 111.48C69.904 111.881 69.7034 112.597 70.0789 113.301C70.4458 113.98 71.073 114.287 71.7941 114.411C73.0272 114.62 74.2645 114.513 75.4933 114.385C77.9466 114.138 80.3018 113.459 82.6101 112.61C84.7093 111.838 86.864 111.42 89.1125 111.514C90.9984 111.595 92.833 111.949 94.6421 112.448C95.3461 112.644 96.0416 112.858 96.865 113.101V113.105Z" fill="#151515"/>
<path d="M87.7685 107.153C88.72 106.419 89.5861 105.762 90.4394 105.088C93.3109 102.827 96.0074 100.378 98.6442 97.8475C100.487 96.0811 102.523 94.5707 104.908 93.5937C107.421 92.5697 109.947 92.3435 112.473 93.5425C113.471 94.0161 114.341 94.6603 115.003 95.5691C114.964 95.6033 114.934 95.6417 114.926 95.6374C112.741 94.831 110.651 95.2747 108.607 96.1323C106.196 97.1393 104.144 98.6923 102.356 100.565C99.1008 103.983 95.1328 106.005 90.5333 106.88C89.6672 107.046 88.7925 107.162 87.7728 107.153H87.7685ZM89.232 106.607C89.8122 106.607 90.2645 106.496 90.7168 106.406C94.1856 105.702 97.3557 104.35 100.099 102.08C101.401 101.005 102.497 99.7078 103.807 98.6411C105.765 97.0454 107.865 95.7185 110.352 95.0913C111.414 94.8225 112.494 94.7499 113.603 94.8438C113.535 94.6561 113.398 94.5878 113.283 94.5195C112.899 94.2891 112.519 94.0374 112.114 93.8539C109.691 92.7702 107.297 93.0603 104.933 94.0545C102.651 95.0145 100.705 96.4822 98.9301 98.1761C96.8138 100.194 94.6805 102.195 92.4192 104.047C91.3909 104.888 90.3498 105.715 89.2362 106.611L89.232 106.607Z" fill="#151515"/>
<path d="M40.5749 107.157C38.9493 107.149 37.5029 106.872 36.0736 106.492C32.2293 105.476 28.9013 103.59 26.1237 100.71C24.1781 98.6923 21.9765 97.007 19.3397 95.9702C17.744 95.343 16.1013 95.0358 14.3861 95.343C14.0448 95.4027 13.7162 95.535 13.2725 95.6673C13.5925 95.1595 13.9466 94.8139 14.3349 94.5067C16.6218 92.7105 19.1861 92.3563 21.9381 93.0945C24.4938 93.7771 26.6485 95.1979 28.6197 96.9003C30.7872 98.7691 32.7584 100.851 34.96 102.682C36.6282 104.068 38.3008 105.451 40.0458 106.744C40.1866 106.846 40.3232 106.957 40.5706 107.149L40.5749 107.157ZM14.6464 94.831C14.8554 94.831 14.9664 94.8395 15.073 94.831C16.609 94.6987 18.0725 95.0187 19.489 95.5691C22.1898 96.623 24.4426 98.3467 26.4309 100.408C29.2426 103.326 32.6304 105.195 36.5344 106.168C37.345 106.368 38.1642 106.56 39.12 106.62C38.9152 106.449 38.8085 106.36 38.6976 106.27C35.7109 103.957 32.8394 101.508 30.1386 98.863C28.5386 97.2971 26.8362 95.855 24.8608 94.7713C22.6293 93.5467 20.2954 92.8043 17.7141 93.3547C16.6048 93.5894 15.5978 94.0459 14.6421 94.8267L14.6464 94.831Z" fill="#151515"/>
<path d="M69.281 109.901C69.281 111.33 69.281 112.764 69.281 114.193C69.281 115.187 68.7562 115.699 67.7578 115.699C66.7594 115.699 66.2218 115.192 66.2176 114.202C66.209 111.326 66.209 108.446 66.2176 105.57C66.2176 104.58 66.7594 104.09 67.7749 104.098C68.7818 104.102 69.2768 104.597 69.281 105.613C69.281 107.042 69.281 108.476 69.281 109.905V109.901ZM66.6698 109.858C66.6698 111.322 66.6698 112.781 66.6698 114.244C66.6698 114.62 66.7594 114.944 67.1093 115.145C67.9498 115.622 68.8586 115.106 68.8586 114.15C68.8586 111.309 68.8586 108.463 68.8586 105.621C68.8586 104.862 68.5557 104.55 67.8304 104.542C66.9514 104.533 66.6741 104.781 66.6698 105.621C66.6613 107.034 66.6698 108.45 66.6698 109.862V109.858Z" fill="#151515"/>
<path d="M59.0453 109.867C59.0453 108.437 59.0453 107.004 59.0453 105.574C59.0453 104.597 59.553 104.102 60.5386 104.094C61.5584 104.085 62.1045 104.572 62.1088 105.553C62.1216 108.446 62.1216 111.339 62.1088 114.232C62.1088 115.209 61.5498 115.704 60.5344 115.695C59.5658 115.686 59.0496 115.174 59.0453 114.202C59.041 112.755 59.0453 111.309 59.0453 109.862V109.867ZM59.4677 109.867C59.4677 111.313 59.4677 112.76 59.4677 114.202C59.4677 114.91 59.8261 115.268 60.5258 115.281C61.2768 115.294 61.648 114.965 61.648 114.232C61.6565 111.339 61.6565 108.45 61.648 105.557C61.648 104.772 61.3493 104.525 60.4832 104.538C59.7834 104.546 59.4677 104.862 59.4634 105.579C59.4634 107.008 59.4634 108.437 59.4634 109.867H59.4677Z" fill="#151515"/>
<path d="M65.7013 109.897C65.7013 111.313 65.7013 112.725 65.7013 114.142C65.7013 115.183 65.1893 115.699 64.1738 115.704C63.1541 115.704 62.6293 115.192 62.6293 114.163C62.6293 111.317 62.6293 108.472 62.6293 105.626C62.6293 104.597 63.1456 104.094 64.1781 104.098C65.1808 104.098 65.697 104.606 65.7013 105.609C65.7056 107.038 65.7013 108.472 65.7013 109.901V109.897ZM65.2832 109.918C65.2832 108.472 65.2917 107.025 65.2832 105.579C65.2789 104.87 64.9376 104.546 64.2464 104.542C63.4314 104.533 63.0517 104.811 63.0517 105.51C63.0389 108.433 63.0389 111.36 63.0517 114.283C63.0517 114.816 63.3418 115.14 63.8197 115.256C64.6986 115.465 65.2832 115.008 65.2832 114.112C65.2874 112.713 65.2832 111.317 65.2832 109.918Z" fill="#151515"/>
<path fill-rule="evenodd" clip-rule="evenodd" d="M65.1295 12.096C66.2644 12.3946 67.3056 12.8554 68.1291 13.7343C68.9141 14.5706 69.4304 15.5307 69.5882 16.6614C69.648 17.1094 69.789 17.2461 70.2541 17.1693C72.942 16.7299 75.5233 18.3254 76.3553 20.9151C77.1788 23.4751 76.0223 26.2784 73.6074 27.4901C73.1894 27.6992 73.1425 27.8443 73.3557 28.258C74.6016 30.6602 73.8977 33.5874 71.7174 35.196C69.5542 36.7959 66.5248 36.5953 64.6091 34.6839C64.2379 34.3127 64.0585 34.3512 63.7086 34.6968C62.1513 36.2668 59.779 36.6847 57.6799 35.8143C55.7003 34.9908 54.3991 32.9941 54.3778 30.7968C54.3693 29.871 54.5567 29.0047 54.9961 28.2026C55.1838 27.8571 55.1626 27.725 54.7916 27.533C52.7094 26.4578 51.6685 24.7039 51.7112 22.3743C51.771 19.1403 54.8512 16.6317 58.0382 17.1564C58.3497 17.2076 58.6316 17.3099 58.717 16.8022C59.1223 14.3404 60.5771 12.817 62.9707 12.1685C63.0475 12.1471 63.1202 12.1174 63.197 12.0918H65.1253L65.1295 12.096ZM64.8141 16.0818C64.4557 15.7277 63.8709 15.7232 63.5082 16.073C63.1456 16.4272 63.0602 17.0759 63.457 17.3618C63.9007 17.6818 63.8754 18.07 63.8711 18.501C63.8669 18.966 63.8711 19.4355 63.8711 19.9005L63.837 19.8835C63.837 20.5277 63.8412 21.1676 63.837 21.8118C63.837 21.9782 63.888 22.2003 63.6449 22.2472C63.3974 22.2941 63.3844 22.0506 63.3161 21.9055C63.1455 21.56 63.0049 21.2016 62.8428 20.8518C62.7532 20.6598 62.7106 20.4892 62.8045 20.263C62.9793 19.845 62.766 19.4139 62.3778 19.2901C61.9853 19.1664 61.5626 19.363 61.4303 19.7385C61.2939 20.1352 61.486 20.5233 61.9253 20.6897C62.0661 20.7409 62.1942 20.788 62.2582 20.933C62.4673 21.4023 62.6721 21.8717 62.8811 22.341C62.9281 22.439 62.9408 22.5244 62.8428 22.5926C62.766 22.6481 62.6637 22.7504 62.5911 22.6651C62.1474 22.1318 61.3368 21.927 61.2216 21.0993C61.1618 20.6769 60.7945 20.4037 60.402 20.4464C60.0181 20.4891 59.7451 20.8137 59.7536 21.2147C59.7665 21.6029 60.0737 21.9866 60.4449 21.9226C60.863 21.8502 61.0679 22.085 61.3153 22.3026C61.5201 22.4861 61.7334 22.661 61.9211 22.8572C62.0406 22.9809 62.3179 23.0407 62.1728 23.301C62.0405 23.5399 61.8441 23.4035 61.6649 23.348C60.5386 22.9854 59.408 22.6227 58.2774 22.2643C57.983 22.1704 57.7567 22.0593 57.6457 21.7051C57.4835 21.2018 56.8822 21.0055 56.4086 21.223C55.9052 21.4534 55.7003 22.0296 55.9478 22.516C56.1825 22.9767 56.8053 23.2198 57.2149 22.9085C57.5818 22.6312 57.8805 22.7207 58.2303 22.8401C58.4137 22.9041 58.5973 22.9596 58.7807 23.0193C59.7237 23.3265 60.6711 23.6379 61.6141 23.9451C61.7505 23.992 61.8953 24.0348 61.8741 24.231C61.857 24.4016 61.7161 24.4318 61.5924 24.4318C60.9013 24.4361 60.2057 24.824 59.5103 24.3205C59.1903 24.0903 58.8234 24.2908 58.6186 24.6364C58.4181 24.9734 58.4822 25.2977 58.7766 25.5451C59.0838 25.8097 59.4679 25.8481 59.7324 25.5451C60.2999 24.8967 61.0552 25.1355 61.7378 25.0501C61.934 25.0247 62.0916 25.2979 61.8911 25.396C61.2683 25.6947 60.8073 26.3859 59.9753 26.211C59.5828 26.13 59.2373 26.4116 59.1691 26.7955C59.0966 27.1965 59.3227 27.5635 59.6895 27.6489C60.0863 27.7385 60.5089 27.5548 60.5686 27.1793C60.6241 26.838 60.8204 26.693 61.0849 26.5522C61.358 26.4071 61.614 26.2405 61.8828 26.0997C62.0492 26.0143 62.2155 25.7758 62.4245 26.0189C62.6293 26.2621 62.3649 26.3987 62.2582 26.548C61.5713 27.5166 60.8627 28.472 60.1716 29.4405C60.0009 29.6795 59.8261 29.8287 59.5061 29.7989C59.1904 29.769 58.9558 29.9528 58.7936 30.213C58.5548 30.597 58.593 31.0494 58.9045 31.3651C59.2202 31.6851 59.5915 31.7659 60.0053 31.5739C60.3978 31.3904 60.5942 30.9768 60.5132 30.5289C60.4791 30.3198 60.3467 30.1319 60.5216 29.8972C61.3109 28.8391 62.0789 27.768 62.8511 26.7014C62.9322 26.5947 63.0049 26.501 63.167 26.5693C63.3461 26.6461 63.3506 26.7826 63.3207 26.9276C63.2695 27.1793 63.1968 27.4268 63.1499 27.6785C63.0731 28.1008 63.0091 28.4976 62.5953 28.7835C62.271 29.0096 62.2967 29.4792 62.5741 29.7693C62.8513 30.0593 63.1797 30.1148 63.5295 29.893C63.8623 29.6797 63.9778 29.2656 63.7645 28.9243C63.628 28.7068 63.5423 28.5064 63.602 28.2547C63.6958 27.8622 63.7855 27.4739 63.8666 27.0814C63.8964 26.932 63.9094 26.7868 64.1099 26.7868C64.3275 26.7825 64.3659 26.932 64.3957 27.1026C64.4597 27.4311 64.5111 27.7638 64.6049 28.088C64.6945 28.3952 64.6989 28.66 64.5111 28.9501C64.3021 29.2786 64.4513 29.705 64.7841 29.9055C65.1168 30.1018 65.5433 30.0166 65.7695 29.701C66.0127 29.3639 65.9702 28.9031 65.5991 28.6897C65.3004 28.519 65.2276 28.2801 65.1636 27.9985C65.0954 27.687 65.0144 27.3754 64.9632 27.0597C64.9376 26.8976 64.8609 26.7014 65.0741 26.5905C65.3215 26.4625 65.3814 26.6888 65.4753 26.8168C66.2049 27.8151 66.9303 28.8219 67.6641 29.816C67.8176 30.025 67.8604 30.2044 67.7836 30.4689C67.613 31.0491 67.9841 31.5826 68.5686 31.6722C69.0678 31.7489 69.5883 31.3138 69.6353 30.7805C69.6822 30.2515 69.2684 29.8033 68.6882 29.7947C68.4578 29.7904 68.304 29.7435 68.1632 29.5472C67.4166 28.502 66.6571 27.4653 65.902 26.4243C65.8124 26.3006 65.6801 26.1851 65.8507 26.0101C66.0171 25.8354 66.141 25.9806 66.2732 26.0489C66.5292 26.1854 66.7766 26.3347 67.0282 26.4797C67.3396 26.6589 67.6595 26.7911 67.7449 27.2389C67.8174 27.5973 68.3127 27.747 68.6711 27.6147C69.0209 27.4824 69.213 27.0767 69.0978 26.7055C68.9826 26.3302 68.6112 26.1213 68.2316 26.198C68.0822 26.2279 67.9583 26.3643 67.7791 26.2576C67.3397 25.9932 66.8918 25.7415 66.4482 25.4855C66.3629 25.4344 66.2945 25.366 66.3116 25.2551C66.3286 25.1527 66.3884 25.0376 66.4866 25.0547C67.1692 25.1784 67.9372 24.8967 68.5174 25.511C68.7947 25.8054 69.2213 25.7926 69.5157 25.528C69.8144 25.2635 69.8529 24.8454 69.6141 24.5297C69.3794 24.2183 68.9399 24.1032 68.637 24.3676C68.3255 24.645 67.9926 24.6066 67.647 24.581C67.3782 24.5596 67.1049 24.5255 66.8361 24.4914C66.6612 24.4701 66.4525 24.4783 66.4141 24.2522C66.3715 23.9921 66.6017 23.988 66.7595 23.9368C67.9499 23.5485 69.1404 23.1686 70.3266 22.7718C70.5569 22.6951 70.7317 22.7081 70.9449 22.853C71.4398 23.1901 72.0461 23.0365 72.3149 22.5501C72.5922 22.0467 72.3915 21.4577 71.8624 21.223C71.3462 20.9884 70.7873 21.2402 70.5953 21.8118C70.5356 21.9909 70.4886 22.1319 70.2882 22.196C69.021 22.6013 67.7579 23.0193 66.4907 23.4289C66.3585 23.4715 66.2133 23.5186 66.1195 23.3351C66.0256 23.1517 66.1579 23.0706 66.2603 22.9768C66.5931 22.6739 66.93 22.3751 67.2628 22.0722C67.3865 21.957 67.5061 21.9099 67.6895 21.9226C68.1844 21.9568 68.5172 21.654 68.5257 21.206C68.5342 20.7879 68.2315 20.4592 67.822 20.4464C67.3783 20.4336 67.0581 20.7409 67.0495 21.2443C67.0495 21.4278 66.9983 21.5475 66.8703 21.6585C66.5291 21.9528 66.2006 22.2599 65.8636 22.5585C65.757 22.6523 65.6673 22.7632 65.4924 22.648C65.3132 22.5286 65.3898 22.4006 65.4453 22.2726C65.569 21.9783 65.7013 21.684 65.8378 21.3939C65.9914 21.0653 66.0983 20.741 66.5207 20.596C66.8918 20.4679 66.9728 19.9987 66.7895 19.6489C66.6018 19.2948 66.2092 19.1495 65.8466 19.303C65.501 19.4524 65.2833 19.8704 65.4495 20.216C65.5903 20.5061 65.5223 20.7326 65.4028 20.9843C65.2535 21.3043 65.1252 21.6327 64.9716 21.9526C64.9076 22.0892 64.8779 22.2984 64.6603 22.2643C64.4086 22.2259 64.4641 22.0082 64.4641 21.8418V18.3218C64.4641 17.9677 64.4641 17.6646 64.8182 17.4043C65.2405 17.0971 65.1894 16.4487 64.8141 16.0818Z" fill="#151515"/>
</svg>
