<svg width="20" height="18" viewBox="0 0 20 18" fill="none" xmlns="http://www.w3.org/2000/svg">
<path fill-rule="evenodd" clip-rule="evenodd" d="M4.68098 3.80974C5.41645 1.94785 7.25617 0.1875 10 0.1875C12.9514 0.1875 15.4672 2.25146 16.0216 5.59207C16.7732 5.6868 17.5795 5.91685 18.2535 6.35737C19.1107 6.91764 19.75 7.82297 19.75 9.13489C19.75 10.4038 19.2245 11.3424 18.3602 11.936C17.5309 12.5055 16.4427 12.7232 15.332 12.7232H12.4375C12.101 12.7232 11.8281 12.4426 11.8281 12.0965C11.8281 11.7503 12.101 11.4697 12.4375 11.4697H15.332C16.3161 11.4697 17.1322 11.272 17.6835 10.8934C18.1998 10.5388 18.5312 9.99662 18.5312 9.13489C18.5312 8.31612 18.1613 7.78238 17.5998 7.4154C17.01 7.02988 16.2108 6.83788 15.4542 6.79934C15.1541 6.78404 14.9095 6.54593 14.8783 6.23847C14.5713 3.217 12.46 1.44107 10 1.44107C7.67707 1.44107 6.1919 3.01729 5.70528 4.57835C5.63086 4.81708 5.42528 4.98724 5.18263 5.01095C4.11376 5.1154 3.17166 5.44032 2.51124 5.9729C1.87222 6.48822 1.46875 7.21688 1.46875 8.24172C1.46875 9.26473 1.88962 10.0479 2.5742 10.5913C3.27349 11.1464 4.2762 11.4697 5.42969 11.4697H7.5625C7.89905 11.4697 8.17188 11.7503 8.17188 12.0965C8.17188 12.4426 7.89905 12.7232 7.5625 12.7232H5.42969C4.0695 12.7232 2.78705 12.3437 1.82961 11.5837C0.857453 10.8121 0.25 9.66788 0.25 8.24172C0.25 6.81738 0.836761 5.73032 1.75927 4.98638C2.56466 4.33689 3.60141 3.96605 4.68098 3.80974Z" fill="#464747"/>
<path fill-rule="evenodd" clip-rule="evenodd" d="M7.13127 14.1646C7.36906 13.9197 7.75489 13.9193 7.99306 14.1639L10 16.225L12.0069 14.1639C12.2451 13.9193 12.6309 13.9197 12.8687 14.1646C13.1065 14.4096 13.1062 14.8064 12.8681 15.051L10.4306 17.5543C10.1927 17.7986 9.80734 17.7986 9.56944 17.5543L7.13194 15.051C6.89378 14.8064 6.89348 14.4096 7.13127 14.1646Z" fill="#464747"/>
<path fill-rule="evenodd" clip-rule="evenodd" d="M10 7.08216C10.3365 7.08216 10.6094 7.36278 10.6094 7.70895V16.4851C10.6094 16.8313 10.3365 17.1119 10 17.1119C9.66345 17.1119 9.39062 16.8313 9.39062 16.4851V7.70895C9.39062 7.36278 9.66345 7.08216 10 7.08216Z" fill="#464747"/>
</svg>
