<svg width="20" height="20" viewBox="0 0 20 20" fill="none" xmlns="http://www.w3.org/2000/svg">
<path d="M8.72363 3.60815C11.9754 3.60815 14.6112 6.24414 14.6113 9.49585C14.6113 10.9417 14.0893 12.265 13.2246 13.2898L16.1895 16.2546L16.2539 16.3328C16.382 16.5268 16.3603 16.7908 16.1895 16.9617C16.0186 17.1324 15.7546 17.1542 15.5605 17.0261L15.4824 16.9617L12.5176 13.9968C11.4928 14.8615 10.1695 15.3835 8.72363 15.3835C5.47199 15.3834 2.83604 12.7475 2.83594 9.49585C2.83606 6.24422 5.472 3.60828 8.72363 3.60815ZM8.72363 4.60815C6.02429 4.60828 3.83606 6.79651 3.83594 9.49585C3.83604 12.1952 6.02427 14.3834 8.72363 14.3835C11.4231 14.3835 13.6112 12.1953 13.6113 9.49585C13.6112 6.79643 11.4231 4.60815 8.72363 4.60815Z" fill="#464747"/>
</svg>
