<svg width="20" height="20" viewBox="0 0 20 20" fill="none" xmlns="http://www.w3.org/2000/svg">
<path d="M10.3711 3.20093C14.1579 3.39273 17.1689 6.52371 17.1689 10.3582C17.1687 14.3159 13.9607 17.524 10.0029 17.5242C6.04502 17.5242 2.83615 14.316 2.83594 10.3582C2.83594 6.40011 6.04489 3.19116 10.0029 3.19116L10.3711 3.20093ZM7.84668 12.7625C7.98569 13.5674 8.18862 14.2848 8.44141 14.8748C8.68391 15.4406 8.96028 15.8669 9.24121 16.1443C9.48541 16.3853 9.71299 16.4956 9.91699 16.5193L10.0029 16.5242C10.2282 16.5241 10.4849 16.4194 10.7637 16.1443C11.0447 15.8669 11.3209 15.4407 11.5635 14.8748C11.8163 14.2848 12.0202 13.5675 12.1592 12.7625H7.84668ZM4.32227 12.7625C5.00319 14.3689 6.34641 15.6253 8.00879 16.1931C7.82924 15.9159 7.66645 15.6052 7.52246 15.2693C7.21719 14.557 6.98127 13.7039 6.83105 12.7625H4.32227ZM13.1748 12.7625C13.0246 13.7039 12.7877 14.557 12.4824 15.2693C12.3385 15.6049 12.1755 15.9151 11.9961 16.1921C13.6584 15.6243 15.0017 14.3689 15.6826 12.7625H13.1748ZM3.99902 8.95288C3.8938 9.40432 3.83594 9.87467 3.83594 10.3582C3.83597 10.8414 3.89386 11.3112 3.99902 11.7625H6.70703C6.66662 11.3076 6.64552 10.8378 6.64551 10.3582C6.64551 9.87823 6.66659 9.40793 6.70703 8.95288H3.99902ZM7.71387 8.95288C7.67095 9.40351 7.64551 9.87383 7.64551 10.3582C7.64552 10.8422 7.67001 11.312 7.71289 11.7625H12.292C12.3349 11.312 12.3594 10.8422 12.3594 10.3582C12.3594 9.87385 12.3349 9.40349 12.292 8.95288H7.71387ZM13.2979 8.95288C13.3383 9.40794 13.3594 9.87822 13.3594 10.3582C13.3594 10.8379 13.3383 11.3076 13.2979 11.7625H16.0068C16.112 11.3113 16.1689 10.8414 16.1689 10.3582C16.1689 9.87472 16.112 9.40427 16.0068 8.95288H13.2979ZM8.00977 4.52124C6.34689 5.08886 5.00339 6.3461 4.32227 7.95288H6.83105C6.98125 7.01169 7.21728 6.15919 7.52246 5.44702C7.66671 5.11044 7.82981 4.79888 8.00977 4.52124ZM10.0029 4.19116C9.77752 4.19116 9.52016 4.29574 9.24121 4.57104C8.96022 4.84847 8.68395 5.27464 8.44141 5.84058C8.1886 6.43047 7.98571 7.14795 7.84668 7.95288H12.1592C12.0202 7.14789 11.8163 6.43051 11.5635 5.84058C11.3209 5.27457 11.0447 4.84846 10.7637 4.57104C10.4849 4.29588 10.2283 4.19126 10.0029 4.19116ZM11.9951 4.52222C12.1749 4.79972 12.3383 5.11065 12.4824 5.44702C12.7876 6.15924 13.0246 7.01159 13.1748 7.95288H15.6826C15.0015 6.34616 13.658 5.08983 11.9951 4.52222Z" fill="white"/>
</svg>
