<svg width="129" height="128" viewBox="0 0 129 128" fill="none" xmlns="http://www.w3.org/2000/svg">
<path d="M64.4529 119.407C33.8268 119.411 8.99059 94.5321 9.03326 63.8975C9.08019 33.3225 33.8994 8.52894 64.4615 8.5332C95.0961 8.5332 119.962 33.4249 119.898 64.0297C119.839 94.6729 95.0321 119.445 64.4487 119.411L64.4529 119.407ZM64.4615 118.306C66.3943 118.293 68.3271 118.199 70.2514 117.999C74.2663 117.581 78.1874 116.736 82.0018 115.417C91.8279 112.025 100.063 106.317 106.616 98.2484C114.121 89.0111 118.128 78.4041 118.751 66.53C118.921 63.2575 118.768 59.9849 118.328 56.7295C117.718 52.2111 116.57 47.8463 114.872 43.6137C114.727 43.2553 114.625 43.2553 114.33 43.4559C110.328 46.1695 106.326 48.8745 102.311 51.5711C102.021 51.7673 101.983 51.938 102.085 52.258C103.186 55.7567 103.774 59.3449 103.873 63.01C103.941 65.5273 103.757 68.0276 103.339 70.5108C102.046 78.1908 98.7826 84.9279 93.5004 90.6367C86.8914 97.7748 78.7249 101.948 69.0439 103.108C64.8881 103.607 60.758 103.437 56.6705 102.588C48.0007 100.783 40.6919 96.5673 34.8935 89.8815C28.1607 82.1204 24.9564 73.0409 25.2167 62.7497C25.3106 59.0463 25.9463 55.4367 27.094 51.9209C27.222 51.5327 27.1708 51.3321 26.8167 51.0932C22.9127 48.4564 19.0257 45.8025 15.1345 43.1487C14.4561 42.6836 14.4562 42.6836 14.1404 43.4687C10.8892 51.5156 9.63051 59.8655 10.3345 68.5183C10.6545 72.4649 11.3841 76.3305 12.5788 80.098C16.278 91.7759 23.1175 101.209 33.0844 108.305C42.4583 114.974 52.9671 118.233 64.4658 118.297L64.4615 118.306ZM26.2748 64.0255C26.2748 85.1497 43.3841 102.259 64.5126 102.272C85.6625 102.285 102.768 85.1839 102.776 64.0169C102.785 42.914 85.6412 25.7705 64.5297 25.7748C43.4268 25.7748 26.2748 42.9311 26.2791 64.0255H26.2748ZM64.4743 9.63827C62.6652 9.62974 60.8605 9.7364 59.0599 9.91134C56.7645 10.1332 54.4945 10.5044 52.2502 11.0207C47.2668 12.1641 42.5478 13.986 38.0764 16.4692C33.9249 18.7775 30.149 21.5935 26.7228 24.8831C24.4572 27.0591 22.4178 29.4356 20.5575 31.9657C18.4199 34.8799 16.6194 37.9903 15.0919 41.2628C14.9852 41.4889 14.8786 41.6724 15.1858 41.8815C19.2306 44.6121 23.2625 47.3599 27.2945 50.1119C27.5718 50.3039 27.6615 50.2612 27.7724 49.9583C28.165 48.8916 28.6257 47.8505 29.1249 46.8265C31.574 41.826 34.9276 37.5337 39.1815 33.9412C42.8764 30.818 47.0108 28.4543 51.5762 26.8628C56.7218 25.0708 62.0124 24.4137 67.4439 24.7977C70.0167 24.9812 72.5383 25.4079 75.0172 26.1033C82.5948 28.2239 88.9734 32.2516 94.166 38.1609C97.3062 41.7364 99.6999 45.7599 101.377 50.2143C101.573 50.7391 101.577 50.7391 102.034 50.4319C105.976 47.7737 109.914 45.1071 113.865 42.4575C114.185 42.2399 114.228 42.0521 114.07 41.7364C113.562 40.7167 113.097 39.6799 112.564 38.6729C109.274 32.4692 104.965 27.0889 99.6145 22.5407C95.7148 19.2255 91.4354 16.5247 86.7719 14.4212C79.6807 11.2255 72.2439 9.66387 64.4743 9.64254V9.63827Z" fill="#151515"/>
<path d="M80.7133 110.353C80.564 109.406 80.4146 108.459 80.261 107.511C80.0946 106.496 79.9282 105.485 79.7533 104.469C79.7149 104.235 79.7447 104.094 80.005 104.017C80.406 103.897 80.7986 103.74 81.1954 103.595C81.3234 103.548 81.3959 103.577 81.4471 103.71C81.4983 103.842 81.477 103.915 81.3405 103.957C80.8626 104.102 80.9991 104.435 81.1101 104.751C81.669 106.338 82.2364 107.921 82.7996 109.504C83.0258 110.135 83.2605 110.763 83.4695 111.398C83.5762 111.718 83.7042 111.957 84.0967 111.791C84.2546 111.723 84.3186 111.791 84.374 111.927C84.4338 112.081 84.3271 112.124 84.2247 112.162C83.6957 112.354 83.1709 112.542 82.6418 112.725C82.548 112.759 82.4284 112.811 82.3559 112.67C82.2876 112.529 82.326 112.435 82.4668 112.367C82.6887 112.264 82.6845 112.072 82.6205 111.889C81.9506 109.995 81.2722 108.104 80.5938 106.214C80.5725 106.155 80.534 106.108 80.4316 106.125C80.581 106.987 80.726 107.848 80.8754 108.706C81.0972 109.977 81.3191 111.253 81.5367 112.525C81.5623 112.678 81.6946 112.849 81.4343 112.951C81.1741 113.058 81.1399 112.845 81.0631 112.717C80.0775 111.091 79.1047 109.457 78.1149 107.831C78.021 107.678 77.9869 107.447 77.7138 107.409C78.3538 109.205 78.9853 110.972 79.6167 112.738C79.7191 113.028 79.7916 113.34 80.2183 113.173C80.3847 113.109 80.3932 113.246 80.4402 113.34C80.4999 113.459 80.4146 113.515 80.325 113.549C79.958 113.685 79.5954 113.817 79.2242 113.945C79.1304 113.98 79.0365 113.971 78.9938 113.856C78.9554 113.745 78.9469 113.643 79.0834 113.587C79.4589 113.438 79.3692 113.169 79.2668 112.887C78.4604 110.63 77.6498 108.373 76.8562 106.108C76.7538 105.813 76.63 105.63 76.2887 105.753C76.182 105.792 76.1138 105.775 76.0754 105.66C76.037 105.54 76.0498 105.442 76.1778 105.395C76.5276 105.267 76.8775 105.131 77.2359 105.02C77.4578 104.951 77.4748 105.182 77.5474 105.297C78.5031 106.888 79.4461 108.484 80.3933 110.076C80.4573 110.178 80.5255 110.28 80.5938 110.379C80.6322 110.37 80.6706 110.366 80.7133 110.357V110.353Z" fill="#151515"/>
<path d="M91.7511 102.374C92.0925 102.293 92.3741 102.208 92.66 102.165C93.6029 102.024 94.3538 102.336 94.8573 103.159C95.365 103.991 95.4418 104.857 94.9298 105.724C94.7122 106.091 94.4135 106.389 94.0679 106.637C93.3724 107.14 92.6727 107.631 91.9687 108.121C91.8493 108.207 91.7256 108.36 91.5762 108.156C91.444 107.972 91.6103 107.904 91.7127 107.831C92.0028 107.631 91.9773 107.405 91.7981 107.153C90.3901 105.152 88.9863 103.147 87.5826 101.141C87.4034 100.885 87.2071 100.838 86.9554 101.022C86.8402 101.107 86.7207 101.192 86.6055 101.009C86.486 100.813 86.661 100.761 86.7634 100.689C87.4887 100.177 88.2012 99.6393 88.9564 99.1743C89.7116 98.7092 90.5436 98.6665 91.3074 99.1316C91.9943 99.5497 92.3143 100.211 92.2716 101.035C92.246 101.517 91.9431 101.892 91.7426 102.374H91.7511ZM92.1607 102.703C91.717 102.673 91.2221 103.019 90.7186 103.364C90.4839 103.522 90.5052 103.637 90.6503 103.842C91.1964 104.597 91.7255 105.365 92.2631 106.129C92.9244 107.068 93.0823 107.072 93.8802 106.21C94.4476 105.591 94.6396 104.896 94.2855 104.107C93.9186 103.283 93.3383 102.728 92.165 102.703H92.1607ZM89.669 99.5071C89.349 99.4943 88.9436 99.6777 88.5511 99.9167C88.2269 100.113 88.1714 100.318 88.4018 100.633C88.8797 101.286 89.3362 101.96 89.797 102.622C90.1184 103.085 90.491 103.124 90.9149 102.737C90.9703 102.686 91.03 102.63 91.077 102.571C91.5719 101.96 91.6188 101.286 91.3074 100.599C91.0215 99.9679 90.5736 99.5156 89.6648 99.5071H89.669ZM91.6786 102.413L91.6957 102.383H91.6615L91.6786 102.413Z" fill="#151515"/>
<path d="M66.9959 112.333C67.0471 113.058 67.1153 113.958 67.1793 114.863C67.2092 115.281 67.4311 115.464 67.8492 115.473C69.1335 115.507 69.9186 114.978 70.341 113.779C70.3837 113.66 70.4221 113.544 70.452 113.421C70.4818 113.288 70.533 113.182 70.6952 113.19C70.9 113.207 70.8359 113.369 70.8274 113.476C70.7548 114.125 70.6695 114.773 70.597 115.426C70.5714 115.635 70.4733 115.708 70.2642 115.72C68.8178 115.814 67.3714 115.917 65.925 116.011C65.7799 116.019 65.5538 116.13 65.5197 115.848C65.4898 115.588 65.7074 115.661 65.8439 115.635C66.2109 115.563 66.2535 115.277 66.2322 114.991C66.1084 113.216 65.9805 111.445 65.8482 109.675C65.8055 109.069 65.7415 108.463 65.7074 107.857C65.6903 107.541 65.5794 107.349 65.2296 107.375C65.0802 107.388 64.9436 107.383 64.9436 107.174C64.9436 106.961 65.093 106.969 65.2338 106.961C66.6632 106.859 68.0967 106.765 69.526 106.658C69.7607 106.641 69.893 106.671 69.9229 106.961C69.9826 107.533 70.0978 108.1 70.1831 108.672C70.2002 108.779 70.2642 108.936 70.0807 108.983C69.9271 109.022 69.8589 108.924 69.8077 108.796C69.7351 108.625 69.6455 108.459 69.5644 108.292C69.0653 107.225 68.0498 107.097 67.1026 107.264C66.8252 107.311 66.6631 107.473 66.6887 107.789C66.7655 108.77 66.8338 109.747 66.8935 110.728C66.9063 110.929 66.9788 111.01 67.1793 110.984C67.3201 110.967 67.461 110.972 67.6018 110.967C68.3698 110.929 68.5532 110.711 68.4679 109.931C68.4594 109.867 68.4466 109.807 68.4424 109.747C68.4338 109.623 68.4039 109.491 68.5916 109.465C68.7836 109.436 68.8391 109.542 68.8477 109.704C68.8818 110.204 68.9159 110.699 68.9543 111.198C68.9885 111.65 69.0226 112.098 69.0482 112.55C69.0567 112.665 69.0908 112.806 68.9031 112.836C68.694 112.866 68.677 112.734 68.66 112.584C68.6344 112.337 68.6087 112.089 68.566 111.842C68.5063 111.488 68.3101 111.279 67.9218 111.326C67.8749 111.33 67.8279 111.326 67.781 111.33C67.2349 111.347 66.976 111.684 67.0045 112.341L66.9959 112.333Z" fill="#151515"/>
<path d="M36.7752 98.1929C36.7197 99.7801 35.8749 100.953 34.7272 101.926C33.0632 103.339 31.3736 103.381 29.6114 102.101C29.2232 101.82 28.8604 101.495 28.4892 101.184C28.3911 101.103 28.2247 101.035 28.3569 100.851C28.4849 100.68 28.5959 100.774 28.7026 100.877C28.9586 101.12 29.1591 101.03 29.3725 100.796C31.0066 98.9737 32.645 97.1519 34.2919 95.3385C34.5223 95.0868 34.5479 94.8991 34.262 94.69C34.1596 94.6175 34.0573 94.5321 34.181 94.3871C34.2663 94.2889 34.3516 94.2676 34.454 94.3657C35.3372 95.202 36.2888 95.9785 36.6514 97.2159C36.7453 97.5359 36.7709 97.8601 36.7752 98.1929ZM36.1138 97.6639C36.1266 97.0281 35.973 96.4905 35.5719 96.0297C35.3714 95.7951 35.2135 95.7439 34.9788 96.0084C33.349 97.8345 31.7063 99.6521 30.0636 101.47C29.8716 101.683 29.8802 101.815 30.1149 101.995C30.9255 102.609 31.7874 102.652 32.662 102.208C34.0999 101.478 35.1538 100.356 35.845 98.9012C36.0327 98.5044 36.1224 98.0735 36.1138 97.6681V97.6639Z" fill="#151515"/>
<path d="M48.9479 113.003C49.477 112.981 49.925 112.819 50.2834 112.465C50.5053 112.247 50.7186 112.017 50.9234 111.782C51.0258 111.663 51.1282 111.641 51.2477 111.718C51.4013 111.816 51.2605 111.91 51.2178 111.991C50.8978 112.563 50.565 113.126 50.2492 113.698C50.1426 113.894 50.0402 113.95 49.8098 113.869C48.4146 113.378 47.0109 112.909 45.6157 112.427C45.4962 112.384 45.3127 112.371 45.381 112.158C45.4407 111.966 45.5645 112 45.7138 112.047C46.1661 112.192 46.2855 111.868 46.3964 111.548C46.9298 110.003 47.4588 108.454 47.9879 106.91C48.214 106.248 48.4359 105.583 48.6706 104.921C48.7815 104.606 48.8071 104.337 48.4231 104.2C48.261 104.145 48.2013 104.038 48.2738 103.876C48.3592 103.684 48.4957 103.816 48.5896 103.851C49.9634 104.311 51.3287 104.789 52.7026 105.25C52.933 105.327 52.9799 105.446 52.9202 105.668C52.7666 106.223 52.63 106.782 52.485 107.341C52.4551 107.46 52.4551 107.605 52.2759 107.588C52.1052 107.571 52.1053 107.443 52.0967 107.311C52.0839 107.076 52.0754 106.846 52.0412 106.615C51.9047 105.664 51.1496 104.951 50.2024 104.849C49.8738 104.815 49.6776 104.917 49.5709 105.246C49.2893 106.12 48.9906 106.987 48.6749 107.853C48.5682 108.151 48.6492 108.288 48.9393 108.348C49.0161 108.365 49.0844 108.399 49.1612 108.424C49.989 108.706 50.1213 108.642 50.4242 107.801C50.4456 107.742 50.4711 107.686 50.4882 107.627C50.5266 107.503 50.5565 107.375 50.7357 107.439C50.885 107.494 50.9063 107.592 50.8593 107.733C50.5436 108.646 50.2322 109.559 49.9164 110.472C49.878 110.583 49.844 110.724 49.6648 110.669C49.4685 110.609 49.4898 110.485 49.5538 110.34C49.5752 110.297 49.5794 110.251 49.5922 110.208C50.0103 108.924 49.733 109.039 48.6621 108.646C48.4957 108.587 48.4061 108.651 48.3506 108.817C47.9922 109.879 47.621 110.937 47.2668 112C47.1474 112.354 47.3693 112.567 47.6552 112.704C48.069 112.9 48.5169 112.964 48.9393 113.003H48.9479Z" fill="#151515"/>
<path d="M37.2615 107.191C37.8034 107.149 38.2557 106.914 38.6866 106.624C38.789 106.556 38.8914 106.483 38.9981 106.415C39.1005 106.351 39.1772 106.415 39.2412 106.483C39.3137 106.56 39.2626 106.628 39.2029 106.684C38.6951 107.191 38.1831 107.695 37.6754 108.203C37.5388 108.339 37.4237 108.254 37.3042 108.173C36.084 107.336 34.8594 106.5 33.6391 105.664C33.5282 105.587 33.3745 105.523 33.4855 105.34C33.6007 105.152 33.7202 105.263 33.8354 105.34C34.2108 105.574 34.4114 105.323 34.5991 105.058C35.1751 104.226 35.7469 103.385 36.3186 102.549C37.0567 101.47 37.7906 100.386 38.5372 99.3065C38.7591 98.9865 38.8829 98.6964 38.4733 98.4404C38.341 98.3551 38.3666 98.2783 38.4391 98.1759C38.5671 97.9881 38.6781 98.1161 38.7847 98.1887C39.685 98.8031 40.5852 99.4217 41.4855 100.036C41.7287 100.203 41.9591 100.395 42.2193 100.535C42.5521 100.715 42.6205 100.898 42.3986 101.227C42.117 101.653 41.8866 102.118 41.6263 102.562C41.5623 102.669 41.541 102.869 41.3405 102.775C41.1698 102.699 41.221 102.541 41.2509 102.404C41.2765 102.28 41.3149 102.165 41.3362 102.041C41.541 100.941 41.2039 100.224 40.2354 99.6607C39.8727 99.4516 39.5869 99.4431 39.3309 99.8441C38.8402 100.604 38.3239 101.346 37.7991 102.084C37.637 102.315 37.637 102.468 37.893 102.6C37.9484 102.63 37.9954 102.669 38.0466 102.703C38.8487 103.262 38.9554 103.24 39.5357 102.447C39.6167 102.336 39.6466 102.063 39.9025 102.229C40.15 102.391 39.941 102.524 39.8599 102.647C39.3607 103.385 38.8573 104.115 38.3538 104.849C38.2599 104.981 38.1916 105.195 37.9697 105.02C37.7607 104.853 38.0039 104.759 38.0423 104.631C38.0466 104.619 38.0551 104.606 38.0636 104.593C38.7975 103.501 38.4988 103.475 37.5303 102.809C37.3681 102.699 37.3127 102.809 37.2402 102.912C36.6172 103.825 35.9901 104.738 35.3671 105.655C35.1794 105.928 35.2092 106.197 35.4524 106.411C35.9687 106.863 36.566 107.149 37.253 107.196L37.2615 107.191Z" fill="#151515"/>
<path d="M18.5479 81.5657C17.8268 81.5743 17.1527 81.4121 16.5298 81.0537C15.3863 80.3924 15.0834 79.1721 15.7874 78.05C16.0135 77.6873 16.2866 77.3588 16.6322 77.1156C18.3346 75.9167 20.2119 75.2937 22.3069 75.5753C23.6978 75.7631 24.5469 76.7444 24.4829 77.9988C24.4445 78.7369 24.0349 79.2831 23.4973 79.7396C22.0722 80.9471 20.3869 81.4676 18.5522 81.5657H18.5479ZM17.9207 80.7423C19.6445 80.6441 21.253 80.1449 22.7592 79.3129C23.0749 79.138 23.3608 78.9247 23.6125 78.6644C24.2866 77.9732 24.1287 76.9961 23.2626 76.5652C22.9085 76.386 22.5288 76.3092 22.132 76.3135C20.6557 76.3263 19.2861 76.7913 17.9378 77.3332C17.3405 77.5721 16.7815 77.8751 16.3122 78.3273C15.9239 78.7028 15.7405 79.1508 15.8941 79.6841C16.0434 80.2089 16.4146 80.5119 16.9394 80.6484C17.2636 80.7337 17.5879 80.7252 17.9165 80.7508L17.9207 80.7423Z" fill="#151515"/>
<path d="M111.544 56.5588C112.743 56.6228 113.831 56.7551 114.74 57.5145C115.798 58.3977 115.892 59.6564 114.962 60.6676C114.663 60.9919 114.313 61.2649 113.916 61.4484C112.159 62.2505 110.333 62.4639 108.447 61.9945C108.05 61.8964 107.683 61.7257 107.346 61.4911C106.057 60.5993 105.993 58.8713 107.226 57.9028C108.186 57.1476 109.317 56.8148 110.507 56.6569C110.879 56.6057 111.25 56.5844 111.54 56.5588H111.544ZM112.014 57.4975C111.698 57.5231 111.263 57.5444 110.832 57.5913C109.808 57.7108 108.796 57.8729 107.858 58.3295C107.26 58.6239 106.731 58.9951 106.8 59.7631C106.868 60.5268 107.423 60.8639 108.071 61.0943C108.156 61.1241 108.25 61.1412 108.34 61.1668C109.249 61.4015 110.166 61.3289 111.079 61.2265C112.21 61.1028 113.34 60.9535 114.356 60.3817C114.872 60.0916 115.243 59.6777 115.175 59.0335C115.107 58.3636 114.672 57.9881 114.066 57.7876C113.439 57.5828 112.79 57.5103 112.014 57.4975Z" fill="#151515"/>
<path d="M61.5986 106.731C62.0253 106.709 62.422 106.833 62.8103 107.012C63.0919 107.14 63.382 107.204 63.6636 107.038C63.9154 106.888 63.9965 106.957 64.0434 107.225C64.1544 107.87 64.2908 108.51 64.4103 109.15C64.4316 109.256 64.5426 109.397 64.3549 109.461C64.1714 109.521 64.069 109.431 64.0093 109.252C63.8002 108.638 63.5059 108.079 63.0109 107.644C62.6483 107.324 62.2386 107.123 61.7479 107.11C61.206 107.093 60.8349 107.332 60.6215 107.844C60.2375 108.753 60.421 109.585 61.206 110.182C61.8247 110.652 62.4946 111.057 63.1346 111.501C63.5698 111.808 63.9709 112.158 64.1843 112.67C64.5384 113.519 64.4274 114.329 63.8812 115.055C63.2967 115.836 62.486 116.121 61.5303 115.985C61.2402 115.942 60.95 115.874 60.677 115.75C60.3527 115.601 60.0243 115.516 59.7 115.737C59.5677 115.827 59.5122 115.789 59.4781 115.648C59.2818 114.782 59.0812 113.92 58.8807 113.054C58.8594 112.956 58.8551 112.862 58.9874 112.845C59.077 112.832 59.1837 112.806 59.2349 112.909C59.2818 113.007 59.3117 113.109 59.3501 113.212C59.5933 113.881 59.9474 114.479 60.4679 114.969C60.7708 115.255 61.1165 115.456 61.5219 115.537C62.2472 115.682 62.8018 115.452 63.1303 114.88C63.51 114.227 63.4418 113.327 62.9682 112.776C62.5757 112.32 62.0551 112.025 61.5559 111.71C61.0141 111.368 60.4807 111.019 60.0455 110.541C59.1794 109.581 59.2732 108.028 60.2503 107.183C60.6343 106.85 61.0781 106.692 61.5944 106.731H61.5986Z" fill="#151515"/>
<path d="M89.2935 107.947C89.285 108.117 89.2849 108.292 89.2593 108.459C88.9436 110.494 87.2882 111.236 85.5858 110.076C84.2503 109.167 83.542 107.793 83.0087 106.321C82.7143 105.51 82.5479 104.678 82.7101 103.799C83.0343 102.093 84.7153 101.333 86.166 102.285C87.6295 103.245 88.4573 104.674 89.0034 106.291C89.1826 106.824 89.2978 107.375 89.2935 107.942V107.947ZM83.3757 103.94C83.3757 104.23 83.3885 104.461 83.4482 104.691C83.8749 106.398 84.694 107.904 85.7778 109.273C86.021 109.581 86.3154 109.841 86.6695 110.016C87.4461 110.408 88.3207 110.007 88.5426 109.163C88.6236 108.855 88.6279 108.548 88.581 108.237C88.3079 106.483 87.4802 104.981 86.4519 103.573C86.1746 103.193 85.8418 102.861 85.4492 102.6C84.6599 102.076 83.764 102.4 83.4738 103.304C83.4013 103.531 83.3714 103.761 83.38 103.936L83.3757 103.94Z" fill="#151515"/>
<path d="M110.32 87.01C110.618 86.3913 110.921 85.8111 111.058 85.1668C111.241 84.2964 110.861 83.618 110.311 83.0036C110.217 82.8969 110.115 82.7988 110.017 82.7007C109.914 82.5983 109.799 82.4916 109.923 82.3423C110.047 82.1929 110.149 82.3423 110.239 82.3977C110.836 82.7988 111.42 83.2127 112.018 83.6052C112.188 83.7161 112.197 83.8143 112.116 83.9849C111.527 85.2735 110.951 86.5705 110.362 87.8591C110.209 88.1961 109.995 88.1919 109.71 87.8377C109.014 86.9759 108.331 86.1012 107.644 85.2351C106.539 83.8399 105.43 82.4489 104.338 81.0495C104.107 80.7508 104.001 80.7679 103.868 81.1135C103.672 81.6212 103.408 82.0991 103.305 82.6452C103.156 83.4345 103.476 84.0447 104.005 84.5823C104.116 84.6932 104.223 84.8041 104.338 84.9151C104.44 85.0175 104.474 85.1241 104.372 85.2436C104.257 85.3759 104.176 85.2436 104.095 85.1924C103.544 84.8127 102.998 84.4201 102.443 84.0447C102.264 83.9252 102.239 83.8057 102.324 83.618C102.9 82.3551 103.476 81.0964 104.031 79.8249C104.137 79.5817 104.269 79.5988 104.415 79.7225C104.581 79.8591 104.722 80.0297 104.858 80.2004C106.591 82.3721 108.319 84.5439 110.047 86.7199C110.123 86.8137 110.209 86.8991 110.315 87.0143L110.32 87.01Z" fill="#151515"/>
<path d="M54.4477 107.2C54.1661 108.604 53.8887 110.007 53.6071 111.411C53.4578 112.158 53.317 112.909 53.1634 113.655C53.0909 114.018 53.0396 114.355 53.5473 114.419C53.6967 114.436 53.7095 114.539 53.6925 114.658C53.6711 114.812 53.5559 114.812 53.445 114.79C53.0482 114.713 52.6513 114.632 52.2545 114.547C52.1564 114.526 52.0156 114.539 52.0369 114.368C52.054 114.231 52.1095 114.129 52.2802 114.155C52.6215 114.21 52.7026 113.988 52.7581 113.719C53.2189 111.381 53.6839 109.043 54.1447 106.705C54.2045 106.398 54.2087 106.108 53.846 105.967C53.7479 105.928 53.7095 105.847 53.7521 105.741C53.7948 105.63 53.8802 105.617 53.9783 105.634C54.3154 105.698 54.6525 105.762 54.9853 105.835C55.1858 105.877 55.173 106.052 55.2029 106.206C55.6338 108.407 56.069 110.605 56.5042 112.806C56.5341 112.956 56.5426 113.113 56.6663 113.267C57.0546 111.304 57.4385 109.372 57.814 107.43C57.8737 107.123 57.9336 106.786 57.4642 106.718C57.3234 106.696 57.3149 106.585 57.3362 106.462C57.3661 106.3 57.4641 106.325 57.5793 106.347C57.9932 106.428 58.4071 106.504 58.8167 106.581C58.9533 106.607 59.0514 106.662 59.0215 106.829C58.9959 106.965 58.9319 107.016 58.7911 106.978C58.3303 106.85 58.2621 107.187 58.1981 107.499C57.9378 108.783 57.6903 110.067 57.4386 111.347C57.1997 112.555 56.965 113.762 56.7176 114.965C56.6877 115.119 56.7644 115.375 56.453 115.366C56.1884 115.358 56.1756 115.161 56.1372 114.982C55.7276 113.032 55.3223 111.078 54.9169 109.128C54.7847 108.488 54.6482 107.848 54.5159 107.208C54.4946 107.208 54.469 107.2 54.4477 107.196V107.2Z" fill="#151515"/>
<path d="M107.371 55.5476C108.208 55.4409 109.006 55.1636 109.82 54.9673C111.122 54.6516 112.415 54.3145 113.712 53.9945C114.053 53.9092 114.309 53.7812 114.172 53.3631C114.13 53.2265 114.126 53.1199 114.309 53.0943C114.446 53.0772 114.514 53.1284 114.544 53.2564C114.642 53.666 114.744 54.0713 114.842 54.4809C114.872 54.6089 114.829 54.69 114.701 54.7327C114.561 54.7796 114.501 54.7156 114.467 54.5919C114.369 54.2079 114.096 54.2975 113.831 54.3615C111.873 54.8607 109.91 55.3556 107.952 55.8505C107.666 55.9231 107.38 56.0041 107.094 56.0724C106.736 56.1535 106.364 56.2089 106.399 56.7124C106.407 56.8105 106.335 56.8404 106.249 56.8532C106.164 56.866 106.083 56.8404 106.061 56.7551C105.959 56.3796 105.852 56.0041 105.784 55.6244C105.759 55.4751 105.951 55.4153 106.057 55.3343C107.824 54.0287 109.59 52.7231 111.352 51.4132C111.463 51.3321 111.565 51.234 111.672 51.1444C111.715 51.1231 111.792 51.1359 111.762 51.0548C111.762 51.0463 111.668 51.0719 111.617 51.0804C109.701 51.5583 107.781 52.0361 105.865 52.5183C105.588 52.5865 105.409 52.7401 105.528 53.0601C105.588 53.2223 105.507 53.282 105.37 53.3247C105.17 53.3887 105.17 53.2223 105.14 53.1156C105.029 52.7273 104.935 52.3305 104.837 51.938C104.803 51.81 104.799 51.6948 104.961 51.6393C105.136 51.5796 105.17 51.6777 105.208 51.8143C105.319 52.2153 105.601 52.1727 105.916 52.0916C108.361 51.4687 110.806 50.8543 113.251 50.2441C113.426 50.2015 113.648 50.0223 113.78 50.2911C113.921 50.5727 113.66 50.6751 113.494 50.7988C111.531 52.2879 109.569 53.7769 107.606 55.266C107.508 55.3385 107.427 55.4324 107.337 55.5135C107.316 55.5348 107.295 55.5561 107.278 55.5775C107.307 55.5647 107.337 55.5561 107.367 55.5433L107.371 55.5476Z" fill="#151515"/>
<path d="M46.4989 105.233C46.6013 103.748 46.2855 103.121 45.2189 102.647C44.677 102.408 44.4979 102.468 44.2291 103.006C43.828 103.799 43.4354 104.593 43.0301 105.382C42.9234 105.587 42.9107 105.724 43.1581 105.809C43.2605 105.843 43.3544 105.903 43.4525 105.954C44.2333 106.351 44.3826 106.3 44.7922 105.515C44.8477 105.404 44.9032 105.288 44.98 105.195C45.0397 105.126 45.1208 105.182 45.1891 105.22C45.3171 105.297 45.2829 105.399 45.2274 105.502C44.7879 106.376 44.3443 107.255 43.9091 108.134C43.8408 108.275 43.7639 108.318 43.6189 108.241C43.4525 108.151 43.5165 108.049 43.572 107.929C43.6872 107.673 43.7939 107.417 43.9048 107.157C44.0328 106.859 43.9133 106.649 43.6573 106.487C42.7869 105.92 42.757 105.928 42.292 106.846C41.908 107.609 41.524 108.377 41.1443 109.145C40.9821 109.478 40.8797 109.803 41.3448 109.99C41.4643 110.037 41.5112 110.11 41.4472 110.242C41.3746 110.396 41.2892 110.4 41.1527 110.327C40.5554 110.024 39.9538 109.73 39.3565 109.427C39.2413 109.372 39.1304 109.308 39.2029 109.145C39.2712 108.992 39.365 108.983 39.4973 109.064C39.8685 109.286 40.0818 109.081 40.2397 108.77C40.5938 108.079 40.9437 107.379 41.2935 106.684C42.0061 105.263 42.7143 103.842 43.4354 102.425C43.5975 102.105 43.6616 101.841 43.2648 101.657C43.1283 101.593 43.0856 101.508 43.1624 101.359C43.2563 101.184 43.3629 101.269 43.4696 101.325C44.7794 101.982 46.0808 102.647 47.3949 103.296C47.6168 103.407 47.6339 103.518 47.54 103.735C47.3139 104.247 47.1219 104.776 46.9085 105.293C46.8616 105.408 46.8488 105.596 46.6397 105.536C46.4392 105.48 46.5074 105.323 46.4989 105.229V105.233Z" fill="#151515"/>
<path d="M17.7415 84.9364C17.75 84.5268 18.2279 84.0831 18.8636 83.7801C19.9729 83.2468 21.0908 82.7391 22.2087 82.2185C23.0151 81.8431 23.8129 81.4633 24.6236 81.1007C24.9351 80.9599 25.0673 80.7679 24.9393 80.4436C24.8796 80.2943 24.8456 80.1919 25.0376 80.1151C25.2338 80.0383 25.2508 80.1919 25.2935 80.29C25.5623 80.8532 25.8226 81.4164 26.0829 81.9839C26.1341 82.0948 26.2236 82.21 26.0444 82.2953C25.8994 82.3636 25.8055 82.3167 25.7458 82.1801C25.5879 81.8217 25.3533 81.8175 25.029 81.9711C23.1687 82.8457 21.3127 83.7289 19.4354 84.5652C18.181 85.1241 18.3559 85.9945 18.9959 86.8095C19.3671 87.2788 19.8919 87.3599 20.566 87.0569C22.1276 86.3487 23.6765 85.6233 25.2295 84.9023C25.5111 84.77 25.797 84.642 26.0743 84.5055C26.3901 84.3561 26.6674 84.1855 26.4754 83.7588C26.4156 83.6265 26.4967 83.5668 26.6119 83.5156C26.7613 83.4473 26.804 83.5412 26.8509 83.6479C27.0258 84.0276 27.205 84.4116 27.3842 84.7913C27.4397 84.9065 27.4994 85.0175 27.3287 85.0943C27.2092 85.1497 27.1197 85.1327 27.0599 85.0089C26.8466 84.5951 26.5393 84.7103 26.2236 84.8596C24.4316 85.6959 22.6397 86.5321 20.8434 87.3599C19.2562 88.0895 17.7244 87.0783 17.7372 84.9407L17.7415 84.9364Z" fill="#151515"/>
<path d="M107.056 68.6761C107.555 68.7017 108.05 68.7273 108.549 68.7615C108.66 68.77 108.822 68.7401 108.835 68.9236C108.848 69.0857 108.767 69.1753 108.604 69.2223C108.186 69.3375 107.764 69.4484 107.376 69.6575C107.196 69.7556 107.021 69.858 106.902 70.0287C106.65 70.3828 106.783 70.7327 107.235 70.8095C108.34 70.9972 109.449 71.1636 110.554 71.3385C111.77 71.5263 112.986 71.714 114.198 71.9017C114.838 71.9999 114.847 71.9956 115.021 71.3769C115.056 71.2617 115.068 71.1679 115.218 71.1807C115.388 71.1935 115.423 71.3001 115.401 71.4409C115.282 72.226 115.154 73.0111 115.034 73.7919C115.017 73.9199 114.97 73.9924 114.83 73.9839C114.684 73.9753 114.655 73.8943 114.655 73.7663C114.646 73.4975 114.834 73.186 114.552 72.9812C114.335 72.8233 114.044 72.8575 113.784 72.8191C111.6 72.482 109.415 72.1449 107.231 71.8164C107.004 71.7823 106.748 71.7012 106.591 71.9487C106.42 72.2132 106.484 72.4905 106.638 72.7423C106.911 73.1945 107.337 73.4889 107.764 73.7748C107.875 73.8516 108.037 73.8943 108.028 74.0692C108.024 74.1972 108.054 74.3679 107.807 74.2953C107.239 74.1332 106.667 73.9839 106.091 73.8388C105.904 73.7919 105.857 73.698 105.887 73.5017C106.13 71.9828 106.377 70.4596 106.591 68.9321C106.642 68.5823 106.842 68.6505 107.056 68.6761Z" fill="#151515"/>
<path d="M27.0215 86.4255C26.6588 86.4639 26.3473 86.4937 26.0401 86.5321C25.8951 86.5492 25.7927 86.498 25.7415 86.37C25.6732 86.1908 25.8353 86.1652 25.9377 86.114C26.4241 85.8665 26.919 85.6361 27.3969 85.3801C27.6017 85.2692 27.6999 85.3332 27.8109 85.5039C28.6386 86.8052 29.4705 88.1065 30.3068 89.3993C30.4177 89.57 30.3964 89.6724 30.2428 89.7876C29.7948 90.1247 29.3553 90.4703 28.9073 90.8073C28.8305 90.8671 28.741 90.978 28.6258 90.8628C28.5148 90.7519 28.4935 90.6367 28.5916 90.4873C28.7708 90.2143 28.9415 89.9327 29.0909 89.6468C29.189 89.4548 29.2572 89.2457 29.3212 89.0367C29.398 88.7764 29.3511 88.5332 29.1335 88.3583C28.9073 88.1791 28.6983 88.29 28.4892 88.4223C27.0471 89.3481 25.605 90.2697 24.1586 91.1956C23.5954 91.5583 23.0365 91.9295 22.4647 92.2793C22.1533 92.4671 22.038 92.6676 22.2769 92.9919C22.3622 93.1113 22.5543 93.2649 22.2983 93.41C22.0721 93.5337 22.038 93.3119 21.9612 93.1967C21.5686 92.5993 21.1847 91.9935 20.7964 91.3876C20.7153 91.2596 20.5788 91.1401 20.7964 91.0036C21.0311 90.8585 21.0567 91.0889 21.1335 91.1913C21.5004 91.6991 21.5516 91.7161 22.0636 91.3876C23.9793 90.1631 25.8994 88.9385 27.8109 87.7055C28.0455 87.5519 28.3996 87.4452 28.31 87.0612C28.2247 86.6985 27.9175 86.5577 27.5762 86.498C27.3756 86.4639 27.1794 86.4383 27.0258 86.4169L27.0215 86.4255Z" fill="#151515"/>
<path d="M19.2776 54.9375C18.0445 54.9375 16.8114 54.9375 15.5826 54.9375C15.173 54.9375 14.7591 54.9033 14.533 55.3599C14.4733 55.4836 14.3538 55.4623 14.2429 55.4324C14.0722 55.3855 14.1532 55.266 14.1746 55.1679C14.3068 54.5919 14.4434 54.0159 14.58 53.4399C14.6141 53.2991 14.6482 53.1583 14.853 53.2095C15.0237 53.2479 15.028 53.3588 14.9896 53.4953C14.8829 53.8879 15.109 54.0073 15.4333 54.0201C16.18 54.0415 16.9309 54.0457 17.6818 54.0671C17.8482 54.0713 17.9464 54.0116 17.9848 53.8495C17.9976 53.7897 18.0146 53.73 18.0274 53.666C18.1084 53.2223 18.4285 52.7359 18.2621 52.3647C18.0914 51.9935 17.5111 51.9209 17.1143 51.7119C16.7858 51.5369 16.4444 51.3833 16.1074 51.2212C15.8428 51.0932 15.6167 51.1103 15.5015 51.4217C15.4503 51.5625 15.3778 51.6308 15.2242 51.5881C15.0536 51.5412 15.0749 51.426 15.109 51.2937C15.2029 50.9311 15.2882 50.5684 15.3735 50.2057C15.4034 50.0735 15.4503 49.9753 15.6253 50.0095C15.7746 50.0393 15.7874 50.1332 15.7788 50.2484C15.7447 50.6153 15.988 50.7604 16.2738 50.8969C18.565 52.0319 20.8519 53.1753 23.1388 54.3145C23.2498 54.37 23.3735 54.4127 23.4674 54.4937C23.638 54.6431 23.6295 54.8735 23.5911 55.0527C23.5527 55.2233 23.3522 55.138 23.22 55.138C21.9101 55.1423 20.6001 55.138 19.2903 55.138C19.2903 55.074 19.2903 55.01 19.2903 54.946L19.2776 54.9375ZM22.0039 54.1055C20.9543 53.5892 19.9175 53.0772 18.8764 52.5695C18.6844 52.4756 18.6844 52.642 18.6546 52.7572C18.5692 53.09 18.4925 53.4228 18.4029 53.7513C18.3303 54.0244 18.437 54.1097 18.7058 54.1055C19.7895 54.0969 20.8775 54.1055 22.0039 54.1055Z" fill="#151515"/>
<path d="M111.083 77.794C110.746 77.6745 110.576 77.8964 110.456 78.3145C110.119 79.5092 110.102 79.5049 111.199 80.1108C111.566 80.3156 111.932 80.5204 112.304 80.7209C112.56 80.8575 112.786 80.8575 112.922 80.5545C112.978 80.4351 113.025 80.3369 113.195 80.4009C113.366 80.4649 113.349 80.5673 113.311 80.6953C113.2 81.0665 113.084 81.4377 112.974 81.8132C112.939 81.9284 112.905 82.0265 112.756 81.9753C112.641 81.9369 112.564 81.8815 112.585 81.7407C112.649 81.3311 112.372 81.1647 112.073 80.9983C109.833 79.7396 107.593 78.4767 105.353 77.218C105.178 77.1199 105.012 77.0431 105.003 76.7785C104.995 76.4884 105.067 76.4116 105.37 76.4372C107.93 76.6505 110.495 76.8511 113.055 77.0473C113.456 77.0772 113.848 77.0772 114.074 76.6591C114.147 76.5183 114.241 76.5567 114.347 76.5865C114.501 76.6335 114.471 76.7487 114.441 76.8553C114.271 77.4356 114.096 78.0201 113.921 78.6004C113.891 78.6985 113.891 78.8393 113.729 78.8009C113.596 78.7711 113.49 78.7071 113.528 78.5449C113.656 78.0457 113.353 77.9689 112.965 77.9433C112.376 77.9049 111.783 77.8452 111.079 77.7855L111.083 77.794ZM106.539 77.4527C106.633 77.538 106.663 77.5807 106.702 77.602C107.363 77.9732 108.024 78.3487 108.69 78.7156C109.461 79.1423 109.944 78.9218 110.141 78.0543C110.196 77.8153 110.158 77.7257 109.893 77.7087C108.796 77.6361 107.696 77.5423 106.539 77.4527Z" fill="#151515"/>
<path d="M13.9996 59.8655C13.893 60.8255 14.3793 61.5209 15.2668 61.9817C15.4204 62.0628 15.574 62.1311 15.7234 62.2164C15.766 62.242 15.813 62.3145 15.8087 62.3615C15.8002 62.4681 15.7063 62.4681 15.6295 62.4511C14.9213 62.2676 14.213 62.0799 13.5047 61.8964C13.3597 61.858 13.3639 61.7556 13.3767 61.6404C13.5346 60.1044 13.6881 58.5727 13.8503 57.0367C13.8673 56.8916 13.8631 56.7039 14.1063 56.7337C14.3367 56.7636 14.2599 56.9343 14.2557 57.058C14.2471 57.4377 14.4477 57.5743 14.8018 57.6084C16.5213 57.7791 18.2407 57.9625 19.9644 58.1417C20.6002 58.2057 21.2359 58.2612 21.8716 58.3337C22.2513 58.3764 22.4732 58.2399 22.5159 57.8473C22.5287 57.7279 22.5116 57.5871 22.7036 57.5956C22.9127 57.6041 22.9085 57.7492 22.8957 57.8943C22.8317 58.594 22.7591 59.2895 22.6909 59.9892C22.6781 60.1471 22.6055 60.2111 22.4476 60.1897C22.3068 60.1684 22.2641 60.0788 22.2983 59.9551C22.4263 59.4473 22.1106 59.3236 21.7095 59.2852C19.4781 59.0591 17.2466 58.8287 15.0109 58.6153C14.1234 58.53 14.0252 58.6409 13.9996 59.554C13.9996 59.6308 13.9996 59.7119 13.9996 59.8612V59.8655Z" fill="#151515"/>
<path d="M13.2744 66.1204C13.2744 65.3737 13.2744 64.6228 13.2744 63.8761C13.2744 63.7225 13.2317 63.5433 13.4706 63.5305C13.6797 63.5177 13.6797 63.6756 13.6882 63.8164C13.7096 64.226 13.957 64.3369 14.3197 64.3284C16.6749 64.2559 19.0301 64.1919 21.3853 64.1193C21.748 64.1065 21.9869 63.9657 21.9698 63.5561C21.9655 63.4324 21.9528 63.3001 22.1405 63.2873C22.3581 63.2745 22.3453 63.4239 22.3539 63.5647C22.3795 64.2175 22.405 64.8745 22.4264 65.5273C22.4264 65.6553 22.4819 65.826 22.26 65.8431C22.0381 65.8601 22.051 65.7065 22.051 65.5657C22.051 65.1732 21.8333 65.058 21.4749 65.0708C19.1026 65.1433 16.7347 65.2116 14.3624 65.2756C13.94 65.2884 13.7138 65.4975 13.7394 65.9156C13.765 66.3807 13.7992 66.85 13.9357 67.3023C14.1576 68.0191 14.7421 68.3391 15.3736 68.6079C15.429 68.6335 15.5016 68.6335 15.5486 68.6719C15.6766 68.7615 15.9794 68.7017 15.9154 68.9321C15.8642 69.1241 15.6125 68.9961 15.4589 68.9791C14.8871 68.9151 14.3154 68.8212 13.7437 68.7657C13.509 68.7401 13.4279 68.6548 13.4322 68.4159C13.445 67.6521 13.4365 66.8884 13.4365 66.1247C13.3853 66.1247 13.3341 66.1247 13.2787 66.1247L13.2744 66.1204Z" fill="#151515"/>
<path d="M104.423 95.5775C104.376 95.0356 104.163 94.5577 103.894 94.0927C103.834 93.9903 103.711 93.8665 103.86 93.7684C103.984 93.6873 104.048 93.8367 104.112 93.9092C104.538 94.3828 104.952 94.8692 105.387 95.3385C105.554 95.5177 105.528 95.6415 105.387 95.8121C104.419 96.9727 103.455 98.1375 102.486 99.2937C102.405 99.3919 102.345 99.6095 102.132 99.4303C101.961 99.2895 102.072 99.1913 102.158 99.0804C102.409 98.7647 102.307 98.5087 102.025 98.2783C100.199 96.7679 98.3773 95.2575 96.5554 93.7428C96.2568 93.4953 96.0008 93.4911 95.7576 93.7983C95.6723 93.9007 95.5868 93.986 95.446 93.8836C95.2711 93.7513 95.3949 93.6361 95.4802 93.5337C95.9069 93.0175 96.3378 92.5012 96.7645 91.9892C96.8583 91.8783 96.9522 91.7631 97.1058 91.9039C97.2424 92.0276 97.1485 92.1385 97.0631 92.2196C96.7303 92.5524 96.8967 92.7913 97.1869 93.0303C98.9746 94.5108 100.762 95.9913 102.55 97.4719C103.015 97.8559 103.199 97.8345 103.591 97.3524C104.159 96.6569 104.457 96.0255 104.423 95.5689V95.5775Z" fill="#151515"/>
<path d="M115.785 65.7065C115.785 66.0948 115.785 66.4873 115.785 66.8756C115.785 66.9908 115.819 67.1359 115.627 67.1529C115.418 67.1743 115.423 67.042 115.397 66.8927C115.303 66.3081 115.192 66.21 114.612 66.2015C112.38 66.1588 110.153 66.1204 107.922 66.082C107.239 66.0692 107.235 66.0735 107.103 66.7348C107.077 66.8713 107.098 67.0335 106.885 67.0164C106.667 66.9993 106.71 66.8329 106.71 66.7007C106.727 65.954 106.744 65.2031 106.77 64.4564C106.774 64.3113 106.736 64.1193 106.992 64.1364C107.213 64.1535 107.162 64.3241 107.162 64.4521C107.167 64.9001 107.388 65.0879 107.832 65.0964C110.076 65.1305 112.321 65.1775 114.569 65.2159C115.222 65.2287 115.29 65.1689 115.431 64.5204C115.461 64.3839 115.487 64.2772 115.653 64.2857C115.819 64.2943 115.853 64.3967 115.853 64.5375C115.853 64.9257 115.853 65.3183 115.853 65.7065C115.832 65.7065 115.811 65.7065 115.79 65.7065H115.785Z" fill="#151515"/>
<path d="M101.189 85.8665C101.334 85.9177 101.466 85.9519 101.377 86.1865C101.099 86.9204 101.108 86.9247 101.791 87.3513C103.587 88.4735 105.383 89.5956 107.179 90.7177C107.824 91.1188 107.858 91.1231 108.391 90.5855C108.502 90.4745 108.57 90.4447 108.703 90.5343C108.839 90.6281 108.784 90.7135 108.724 90.8073C108.293 91.4943 107.866 92.1812 107.435 92.8681C107.371 92.9663 107.303 93.0388 107.171 92.9705C107.022 92.8937 107.051 92.7956 107.098 92.6591C107.333 92.002 107.312 91.9337 106.727 91.5668C104.841 90.3849 102.943 89.2159 101.061 88.0212C100.668 87.7737 100.378 87.7737 100.122 88.1791C100.046 88.2985 99.9815 88.4948 99.7682 88.3455C99.5548 88.1961 99.7298 88.0681 99.8023 87.9529C100.182 87.33 100.575 86.7113 100.967 86.0884C101.023 85.9988 101.052 85.8836 101.189 85.8623V85.8665Z" fill="#151515"/>
<path d="M99.4098 101.534C99.6316 101.547 99.7938 101.419 99.9473 101.291C100.071 101.188 100.165 101.201 100.267 101.316C100.374 101.44 100.284 101.512 100.208 101.589C99.6146 102.144 99.0173 102.694 98.4242 103.245C98.3389 103.321 98.262 103.39 98.1511 103.27C98.0444 103.155 98.0743 103.07 98.1554 102.946C98.5607 102.357 98.565 102.306 98.0957 101.794C96.5682 100.126 95.0279 98.466 93.5005 96.802C93.2231 96.5033 92.9586 96.4777 92.6557 96.7508C92.5405 96.8532 92.4125 97.0537 92.2333 96.8361C92.0712 96.6399 92.2887 96.5588 92.3826 96.4692C92.9159 95.9657 93.4535 95.4708 93.9954 94.9716C94.0935 94.882 94.1874 94.7497 94.3453 94.8991C94.5031 95.0527 94.3708 95.138 94.2855 95.2447C93.9356 95.6799 93.9314 95.8591 94.294 96.2516C95.7959 97.8815 97.2978 99.5071 98.8039 101.137C98.9703 101.32 99.1282 101.525 99.414 101.529L99.4098 101.534Z" fill="#151515"/>
<path d="M17.541 70.3103C17.5239 70.1439 17.5623 70.0415 17.7586 70.0244C17.9506 70.0073 17.9975 70.1012 18.0231 70.2633C18.262 71.7225 18.5052 73.1817 18.7569 74.6367C18.7911 74.8329 18.7272 74.9183 18.5352 74.9567C18.3645 74.9908 18.3175 74.9183 18.2919 74.7689C18.0445 73.2799 17.7927 71.7908 17.541 70.3017V70.3103Z" fill="#151515"/>
<path fill-rule="evenodd" clip-rule="evenodd" d="M64.5252 25.7759C85.6366 25.7759 102.776 42.915 102.772 64.018C102.763 85.1848 85.6583 102.286 64.5085 102.273C43.3843 102.26 26.2745 85.1466 26.2702 64.0267H26.2748C26.2748 42.9323 43.4266 25.7802 64.5252 25.7759ZM77.0473 67.58C73.2572 64.7608 67.2673 65.6858 64.8764 70.8334C64.5432 70.1715 64.1678 69.5703 63.7489 69.0346C62.2579 67.1231 60.2138 66.0471 57.5452 66.0405C54.1242 66.0277 51.705 67.7631 50.1518 70.8209C50.103 70.7329 50.0595 70.6539 50.0193 70.5796C50.0148 70.5713 50.0105 70.5629 50.006 70.5546C49.9651 70.4787 49.9277 70.4072 49.891 70.3359C49.537 69.6596 49.0985 69.0506 48.5939 68.5175C46.7937 66.6115 44.1476 65.679 41.4727 66.1259C38.0295 66.7019 35.2518 69.5988 34.8806 72.995C34.5114 76.401 36.1773 79.5406 39.0981 81.0609C39.318 81.1759 39.5451 81.2823 39.7789 81.3784C41.6003 82.1248 43.4515 82.1245 45.3198 81.5959L45.321 81.5967C45.3367 81.6202 45.3561 81.6461 45.3773 81.6759C45.1922 81.8568 45.0073 82.0421 44.8264 82.2271C43.0216 84.0831 42.2706 86.3192 42.5906 88.8621C43.0558 92.5953 46.0084 95.3217 49.5198 95.7484C52.9288 96.1621 56.2099 94.3829 57.716 91.2171C57.7885 91.0635 57.8611 90.9055 57.9464 90.7263C59.427 93.8879 61.8076 95.7186 65.2935 95.7784C68.7698 95.8338 71.2052 94.0808 72.7668 91.0275C73.1501 91.8688 73.638 92.5954 74.2018 93.21C76.9482 96.2104 81.508 96.5379 84.6343 94.4384C88.1927 92.049 89.8524 85.8965 85.5089 81.8688C90.3388 82.5856 93.7991 79.4752 94.6823 75.9296C95.2235 73.7477 94.7984 71.5139 93.6648 69.7209C92.7964 68.3463 91.5113 67.23 89.9248 66.595C86.0601 65.0466 81.4705 66.6712 79.5881 70.8163C78.9983 69.4509 78.109 68.3687 77.0473 67.58ZM44.1989 35.2863C43.7681 35.2863 43.6573 35.4014 43.6573 35.828C43.6743 40.0861 43.6655 44.3486 43.6698 48.6067C43.6698 48.7602 43.6911 48.9182 43.7039 49.0717H43.7127C43.7127 53.5048 43.7167 57.9337 43.7039 62.3625C43.7039 62.7551 43.8066 62.8488 44.1906 62.8488C57.6561 62.8403 71.1176 62.8403 84.5831 62.8488C84.9371 62.8488 85.0565 62.7806 85.0523 62.3967C85.0395 53.5178 85.0395 44.6431 85.0523 35.7642C85.0523 35.3461 84.9115 35.2946 84.5489 35.2946C79.2113 35.3074 73.8778 35.3034 68.5402 35.3034C67.1535 35.3034 65.7626 35.3074 64.376 35.3117C64.2352 35.3074 64.0943 35.2946 63.9535 35.2946C57.3701 35.2946 50.7866 35.2948 44.1989 35.2863Z" fill="#151515"/>
<path d="M36.6647 23.4272C37.1297 23.4826 37.279 23.8282 37.4966 24.0842C38.0428 24.7285 38.0513 24.737 38.5932 24.1184C39.0199 23.6362 39.4379 23.1498 40.1419 23.0901C40.3254 23.073 40.5602 23.0048 40.654 23.201C40.7394 23.3845 40.5345 23.4954 40.4065 23.6064C39.9116 24.0373 39.4209 24.4682 38.9217 24.8906C38.7297 25.0528 38.6657 25.1509 38.926 25.3301C40.5729 26.465 42.4289 26.9216 44.3958 26.977C45.1723 26.9984 45.279 26.8064 45.0742 26.0725C44.9249 25.552 44.7628 25.0314 44.5879 24.4469C44.8354 24.528 44.9164 24.6901 45.0188 24.8224C45.582 25.552 46.1068 26.3072 46.8236 26.9002C47.1436 27.1648 47.0113 27.3866 46.7169 27.553C45.9532 27.9925 45.117 28.0352 44.2679 27.9669C42.173 27.8048 40.2572 27.1093 38.4993 25.9786C38.1452 25.7525 37.9532 25.7738 37.646 26.0682C36.9079 26.7765 36.2764 27.6085 35.3761 28.1418C35.2268 28.2314 35.3078 28.3168 35.3633 28.4064C35.8796 29.2256 36.3916 30.0405 36.9079 30.8597C37.1127 31.184 37.2406 31.0133 37.3686 30.7914C37.8081 30.0192 38.2433 29.2469 38.6871 28.4789C38.7553 28.3594 38.8193 28.1248 38.9942 28.2101C39.1564 28.2912 39.0326 28.5002 38.99 28.6325C38.5121 30.0618 38.0001 31.4826 37.5777 32.9333C37.4582 33.3429 37.2235 33.441 36.8267 33.296C36.1825 33.0613 36.0417 32.8394 36.1014 32.1696C36.1356 31.7813 36.0076 31.4272 35.8327 31.0944C34.8343 29.1914 33.8188 27.297 32.4279 25.633C32.0567 25.1936 31.7281 24.7114 31.1819 24.4597C31.0454 24.3957 30.9473 24.2933 30.9558 24.1354C30.9643 23.9477 31.118 23.8453 31.2631 23.8282C31.9074 23.7386 32.2913 23.2778 32.6966 22.8512C33.6182 21.8784 34.6679 21.0336 35.5084 19.9797C35.7729 19.6512 37.0486 19.5829 37.3729 19.8346C37.518 19.9456 37.4796 20.0778 37.4369 20.2144C37.2748 20.7349 37.3346 21.264 37.3388 21.793C37.3388 22.0021 37.3601 22.1557 37.6289 22.1514C37.7313 22.1514 37.8508 22.2069 37.8807 22.3306C37.9148 22.4842 37.7825 22.544 37.6886 22.6165C37.3473 22.8853 37.0103 23.1498 36.6689 23.4186L36.6647 23.4272ZM33.5756 25.3472C33.6737 25.2704 33.759 25.2021 33.8401 25.1338C34.5142 24.5578 35.0774 23.8538 35.7601 23.2949C36.4854 22.7018 36.4769 22.1216 36.1057 21.3834C35.8625 20.9013 35.7474 20.8373 35.3122 21.1658C34.6636 21.6565 34.0918 22.2282 33.5414 22.8213C32.526 23.9221 32.5303 23.9306 33.3922 25.1509C33.4178 25.1893 33.4391 25.232 33.4732 25.2661C33.4988 25.296 33.5372 25.3173 33.5756 25.3472ZM37.454 25.3472C37.3815 25.2832 37.3259 25.2277 37.2619 25.1893C36.8566 24.9248 36.4471 24.6688 36.0503 24.4C35.8455 24.2634 35.7004 24.3061 35.5298 24.4682C35.0519 24.9162 34.5654 25.3514 34.0662 25.7781C33.9126 25.9104 33.9041 26.0042 34.0023 26.1621C34.2881 26.6272 34.5697 27.0922 34.8385 27.5658C34.958 27.7834 35.0518 27.8218 35.2396 27.6298C35.9137 26.9344 36.5964 26.256 37.2748 25.5648C37.3388 25.5008 37.39 25.4282 37.4583 25.3429L37.454 25.3472Z" fill="#151515"/>
<path d="M90.6973 24.5204C90.1511 24.7977 89.7373 25.2543 89.2381 25.5956C89.0845 25.7023 88.9351 25.8217 88.7687 25.8943C88.5767 25.9796 88.3207 25.9199 88.3036 25.7279C88.2695 25.2031 87.813 25.1945 87.5143 24.994C87.3138 24.8617 87.1986 24.9129 87.0663 25.1092C86.7122 25.6383 86.6994 25.6383 87.2882 25.89C87.6039 26.0265 87.813 26.2697 88.0092 26.5343C88.0647 26.6111 88.1202 26.7007 88.0648 26.7903C87.9922 26.914 87.8684 26.8713 87.7703 26.8329C87.4076 26.6921 87.0536 26.5343 86.6952 26.3849C86.4093 26.2697 85.7906 26.7604 85.8376 27.0633C85.8546 27.1871 85.9784 27.1743 86.0509 27.2041C86.4989 27.3791 86.9554 27.5412 87.4077 27.7076C87.5229 27.7503 87.6509 27.7759 87.7576 27.8313C87.9538 27.9337 88.2908 28.0063 88.1927 28.2793C88.1031 28.514 87.8087 28.3647 87.6082 28.3049C86.1447 27.8783 84.7111 27.3449 83.2178 27.0249C82.4455 26.8585 82.1511 26.4916 82.1255 25.6767C82.1255 25.5657 82.1041 25.4463 82.2193 25.3865C82.3345 25.3268 82.4285 25.4036 82.5096 25.4761C83.1538 26.0735 83.9645 26.3593 84.7581 26.6836C85.3341 26.9183 85.2786 26.338 85.4621 26.1119C85.7095 25.8089 85.3042 25.826 85.1805 25.7577C84.8818 25.5871 84.5661 25.4463 84.34 25.1775C84.2546 25.0751 84.1138 24.9641 84.2077 24.8148C84.3143 24.6527 84.4636 24.7764 84.5831 24.8233C84.8988 24.9513 85.2232 25.0751 85.5218 25.2372C85.8376 25.4079 86.0423 25.3439 86.1703 25.0196C86.2471 24.8276 86.5586 24.61 86.405 24.4777C86.1618 24.2687 85.8162 23.9913 85.509 24.0681C84.9373 24.2047 85.0866 23.8377 85.1506 23.6201C85.2957 23.1465 85.5133 22.6943 85.6967 22.2335C85.8887 21.7599 86.1532 21.2991 85.9527 20.7572C85.9228 20.6761 85.94 20.5993 86.0296 20.5695C86.1917 20.514 86.3239 20.6164 86.3964 20.7145C86.6226 21.0303 86.9255 21.2265 87.2668 21.3929C88.2183 21.8623 88.214 21.8708 88.726 20.8724C87.9964 20.5951 87.2797 20.3049 86.5501 20.0489C86.0551 19.874 85.846 19.4943 85.6583 19.0548C85.8887 18.9396 86.0295 19.0676 86.1788 19.1316C87.0194 19.4985 87.8685 19.8527 88.6919 20.2537C89.0674 20.4329 89.1314 20.1983 89.1997 19.9636C89.2679 19.7247 89.4941 19.426 89.0376 19.2937C88.6194 19.1743 88.1757 19.0847 87.8215 18.658C88.5895 18.7433 89.2637 18.8329 89.9421 18.8841C90.6119 18.9396 91.286 18.9097 91.9474 18.786C92.1991 18.7391 92.4253 18.7391 92.5576 18.9823C92.724 19.2937 92.9586 19.6265 92.8434 19.9849C92.7538 20.2665 92.4424 20.1385 92.2248 20.0873C91.7426 19.9679 91.2647 19.8185 90.7868 19.6905C90.6247 19.6479 90.4583 19.5924 90.2578 19.6436C90.3644 20.0489 90.8679 20.5012 90.053 20.834C90.7911 21.1199 91.4397 21.3844 92.0925 21.6276C92.5234 21.7897 92.7708 22.1055 92.9116 22.5236C92.9543 22.6516 93.0225 22.818 92.886 22.9119C92.7836 22.9844 92.6472 22.9033 92.5362 22.8393C91.7298 22.37 90.9149 21.9092 90.0701 21.5167C89.9335 21.4527 89.7842 21.2436 89.6178 21.41C89.4215 21.6063 89.2466 21.8324 89.1058 22.0713C89.0375 22.1865 89.2124 22.1908 89.285 22.2164C89.5196 22.2975 89.7544 22.3999 89.9976 22.4297C90.7144 22.5193 91.0514 23.0185 91.3287 23.5988C91.4738 23.906 91.4695 24.1279 91.0812 24.2303C90.9276 24.2729 90.7527 24.3284 90.6887 24.5161L90.7015 24.5033L90.6973 24.5204ZM88.3719 23.1721C88.7389 23.3556 89.1911 23.4111 89.4386 23.778C89.6221 24.0468 89.7372 23.9871 89.9122 23.7695C90.3047 23.2703 90.3005 23.1977 89.7373 22.9289C89.6263 22.8777 89.5154 22.818 89.4002 22.7711C88.9479 22.5776 88.6052 22.7113 88.3719 23.1721ZM87.6082 24.3028C87.8301 24.4521 88.1501 24.4692 88.2439 24.6953C88.4957 25.3055 88.7346 24.9428 88.9906 24.7252C89.1485 24.5887 89.3106 24.4607 89.5154 24.29C89.1741 24.1279 88.9564 24.0169 88.7303 23.9188C87.8855 23.5561 88.1117 23.5049 87.6039 24.3028H87.6082ZM87.8898 22.178C87.8898 22.1311 87.8088 22.1183 87.7362 22.0841C87.54 21.9945 87.3223 21.9305 87.1516 21.7983C86.7932 21.5252 86.6268 21.6489 86.4946 22.0244C86.4135 22.2505 86.405 22.3913 86.6653 22.4767C86.8573 22.5364 87.0322 22.6431 87.2157 22.7241C87.476 22.8351 87.9196 22.5065 87.8855 22.1737L87.8898 22.178ZM86.2386 22.7113C85.8077 23.6073 85.8119 23.5945 86.4903 23.8975C86.725 24.0041 86.8189 23.9529 86.9725 23.7567C87.2455 23.4025 87.2328 23.1935 86.7848 23.0399C86.6013 22.9759 86.4434 22.8351 86.2386 22.7113ZM90.1853 19.6393L90.2024 19.6137H90.1725L90.1853 19.6393Z" fill="#151515"/>
<path d="M99.0727 38.1481C99.0897 38.2889 99.1197 38.4255 99.1239 38.5663C99.1453 39.0783 98.996 39.1679 98.5181 39.0228C97.4472 38.6985 96.3336 38.5236 95.3181 38.0244C94.9085 37.8239 94.4818 37.6489 94.2215 37.2223C94.9682 37.3673 95.702 37.5465 96.4445 37.6233C97.174 37.6959 97.9249 37.9049 98.646 37.4313C98.39 37.1967 98.3346 36.7444 97.8226 36.9193C97.6476 36.9791 97.6476 36.7487 97.6903 36.6121C97.8268 36.1599 98.0786 35.7887 98.5181 35.5967C99.653 35.1017 100.647 34.3679 101.654 33.6639C101.948 33.4591 102.209 33.2201 102.332 32.8532C102.443 32.5247 102.64 32.6185 102.746 32.8361C103.591 34.5385 105.119 35.5967 106.484 36.8041C106.894 37.1668 107.158 38.0841 106.966 38.5833C106.923 38.69 106.859 38.7711 106.744 38.8052C105.639 39.138 104.799 39.8804 103.954 40.6143C103.647 40.8788 103.369 41.1775 103.062 41.4377C102.537 41.8772 101.94 42.0991 101.244 41.9583C100.814 41.8687 100.694 41.6895 100.942 41.3567C101.398 40.7508 101.215 40.3284 100.737 39.8463C100.178 39.2873 99.6872 38.6516 99.1709 38.05C99.1282 38.0159 99.0856 37.9775 99.0472 37.9433C99.0002 38.0201 99.0257 38.0841 99.0727 38.1481ZM103.28 39.778C102.234 38.3529 100.771 37.2991 99.973 35.6905C99.7255 35.8484 99.4781 36.0105 99.2263 36.1684C98.7314 36.4841 98.7357 36.4799 99.1239 36.9492C99.8877 37.8751 100.728 38.7327 101.556 39.6031C101.799 39.8548 101.88 40.3583 102.269 40.3497C102.64 40.3369 102.951 40.0127 103.28 39.7823V39.778ZM101.663 34.5897C102.435 35.4601 103.203 36.3049 104.022 37.09C104.453 37.5039 104.828 37.9433 104.956 38.5876C105.204 38.4041 105.404 38.2335 105.631 38.0969C106.002 37.8708 105.998 37.6404 105.763 37.2948C105.055 36.2751 104.18 35.4132 103.28 34.5727C103.049 34.3551 102.866 33.9327 102.593 33.9583C102.294 33.9839 102.021 34.3039 101.739 34.4959C101.714 34.5129 101.701 34.5428 101.667 34.5855L101.663 34.5897ZM101.287 34.8073C101.044 34.9695 100.796 35.1529 100.528 35.3065C100.314 35.4303 100.327 35.5071 100.489 35.6777C101.146 36.3647 101.786 37.0687 102.435 37.7684C102.742 38.1012 103.058 38.4255 103.369 38.754C103.553 38.9503 103.51 39.4068 103.787 39.394C104.035 39.3855 104.274 39.0911 104.517 38.9204C104.56 38.8905 104.598 38.8479 104.607 38.8436C103.553 37.4399 102.136 36.3775 101.291 34.8073H101.287Z" fill="#151515"/>
<path d="M56.7986 16.2089C57.477 16.4692 57.4855 16.8532 57.2764 17.314C57.1612 17.57 57.2594 17.6767 57.5453 17.6639C58.1213 17.634 58.7016 17.6084 59.2648 17.4889C59.8322 17.3695 60.2204 17.6553 60.5959 17.9967C60.6898 18.082 60.7452 18.1972 60.6898 18.3337C60.2972 19.2937 60.4039 20.3305 60.2503 21.3247C60.1564 21.9263 60.0754 22.5279 59.8152 23.0868C59.717 23.2959 59.6061 23.5092 59.4567 23.6841C58.9191 24.3327 58.6418 24.3241 58.0957 23.6969C57.9122 23.4879 57.7117 23.2873 57.5111 23.0911C57.3106 22.8991 57.1015 22.7156 56.8327 22.4724C57.3532 22.3913 57.78 22.5449 58.2066 22.6089C58.6034 22.6687 58.821 22.5663 58.949 22.1823C59.3245 21.0388 59.4226 19.8697 59.3116 18.6751C59.286 18.402 59.1154 18.2996 58.8764 18.2783C58.3047 18.2271 57.7244 18.3295 57.1527 18.1801C56.9351 18.1247 56.9608 18.3465 56.9224 18.4575C56.6578 19.2383 56.3975 20.0191 56.0391 20.7657C55.5314 21.8153 54.8829 22.7583 54.0338 23.5604C53.8333 23.7481 53.6328 23.9401 53.2786 23.9913C54.7592 21.6617 56.1372 19.3577 56.2012 16.4351C55.574 16.6655 55.0621 16.8404 54.5629 17.0495C54.1448 17.2201 53.7394 17.1647 53.3298 17.0367C53.2444 17.0111 53.1378 16.9812 53.1335 16.8703C53.1335 16.7551 53.2487 16.7252 53.3255 16.6996C53.8972 16.4991 54.4775 16.3156 55.0492 16.1193C55.6807 15.906 56.3079 15.6927 56.9692 15.4708C56.5255 14.9503 56.1884 14.4255 55.8855 13.8836C55.813 13.7556 55.6679 13.602 55.7746 13.4569C55.8898 13.3033 56.0903 13.3673 56.2525 13.3972C57.1997 13.5551 57.6776 14.1524 57.669 15.2361C58.4413 14.9503 59.2007 14.69 59.9431 14.3956C60.4508 14.1908 60.9372 14.1567 61.4236 14.434C61.5388 14.5023 61.7095 14.5492 61.6925 14.7199C61.6754 14.8863 61.5005 14.9161 61.3725 14.9503C60.5746 15.1593 59.7724 15.3471 58.9788 15.5689C58.2962 15.7567 57.6178 15.9743 56.7943 16.2217L56.7986 16.2089Z" fill="#151515"/>
<path d="M90.6844 24.5332C91.2178 24.7807 91.7554 25.0281 92.2887 25.2799C92.4722 25.3652 92.6129 25.3951 92.7836 25.2201C93.462 24.5119 94.1959 23.8505 94.6055 22.9332C94.7207 22.6729 94.8615 22.7156 95.0364 22.8607C95.6978 23.4068 95.685 24.0169 95.0109 24.5545C94.5245 24.9385 93.9911 25.2671 93.5474 25.7748C94.0252 26.0223 94.516 26.1503 94.9938 26.2996C95.4248 26.4361 95.9495 27.1828 95.9282 27.6223C95.9197 27.7887 95.8386 27.8825 95.7021 27.9423C95.062 28.2153 94.6268 28.7273 94.1746 29.2265C93.445 30.0372 92.7453 30.882 91.9176 31.5988C91.2648 32.1663 90.565 32.6527 89.6263 32.6143C89.1954 32.5972 88.9948 32.4351 89.0546 31.9785C89.1271 31.4452 89.0077 30.9076 88.9863 30.2377C89.221 30.5279 89.3703 30.7156 89.5239 30.8991C89.9421 31.394 90.0999 31.4324 90.6802 31.1252C90.9276 30.9929 91.1666 30.8436 91.3885 30.6729C92.5448 29.7556 93.5474 28.6975 94.4221 27.5071C94.6823 27.1529 94.6268 26.9183 94.2727 26.7092C94.2343 26.6836 94.1917 26.6623 94.1533 26.6367C93.1933 26.0863 93.1975 26.0948 92.3569 26.7945C91.0513 27.8868 89.6988 28.9151 88.0903 29.538C87.3692 29.8196 86.6184 29.9604 85.8162 29.9007C88.0733 28.8297 90.2023 27.5881 92.101 25.8089C91.3543 25.6297 90.6589 25.4335 90.6844 24.5247L90.6716 24.5375L90.6844 24.5332Z" fill="#151515"/>
<path d="M26.1853 37.8111C26.693 37.5636 26.8551 37.8879 27.0769 38.0969C27.6999 38.6815 27.7042 38.6857 28.0882 37.9519C28.3143 37.5252 28.6514 37.2095 29.0567 36.9663C29.1378 36.9193 29.2273 36.8553 29.3169 36.9151C29.4236 36.9833 29.4023 37.0985 29.381 37.2095C29.2828 37.7172 28.9457 38.1012 28.7068 38.5321C28.3911 39.1124 28.3825 39.1081 28.8945 39.5007C29.206 39.7353 29.5218 39.9657 29.8205 40.2132C30.0039 40.3668 30.0849 40.3199 30.1959 40.1279C30.6908 39.2831 31.1687 38.4255 31.6082 37.5508C31.877 37.0175 32.3549 36.7273 32.9223 36.5993C33.2509 36.5268 33.3746 36.6719 33.2039 36.9833C33.0844 37.2009 32.9522 37.4143 32.8029 37.6148C31.3735 39.5817 30.0081 41.5913 29.0055 43.8185C28.7836 44.3135 28.31 44.5097 27.862 44.7316C27.781 44.77 27.67 44.7913 27.606 44.7017C27.5036 44.5567 27.6061 44.4287 27.6786 44.3177C28.1607 43.6095 28.6087 42.8799 29.0097 42.1204C29.1463 41.8601 29.2871 41.5956 29.4492 41.3524C29.5815 41.1561 29.5687 41.0367 29.3554 40.9044C28.9458 40.6527 28.5447 40.3839 28.1479 40.1023C27.9601 39.97 27.8706 39.9871 27.7596 40.1919C27.5378 40.6015 27.3031 41.0111 26.949 41.3268C26.7997 41.4591 26.6162 41.6681 26.4285 41.5359C26.2109 41.3865 26.4028 41.1647 26.4882 40.9983C26.7058 40.5844 26.9362 40.1791 27.1581 39.7695C27.2135 39.6671 27.3159 39.5476 27.1581 39.4537C26.8381 39.2617 26.5607 39.0015 26.2066 38.8692C25.8311 38.7284 25.541 38.754 25.3447 39.1849C25.1741 39.5476 24.9266 39.8804 24.581 40.1151C24.4658 40.1961 24.3036 40.2644 24.1926 40.1663C24.0732 40.0553 24.2269 39.9444 24.2823 39.8463C24.9778 38.6303 25.6732 37.4143 26.2407 36.13C26.3857 35.8015 26.6674 35.6479 26.9575 35.4943C27.0471 35.4473 27.1623 35.3791 27.2605 35.4815C27.3501 35.5796 27.2903 35.6905 27.2391 35.7844C26.949 36.3519 26.6503 36.9151 26.3559 37.4825C26.3217 37.5508 26.2834 37.6148 26.181 37.8111H26.1853Z" fill="#151515"/>
<path d="M22.4391 35.1188C23.8514 38.6516 23.7916 41.9668 22.9553 43.362C22.8145 43.2084 22.8914 43.0377 22.8957 42.8841C22.9981 40.4223 22.6737 38.0372 21.6625 35.7673C21.4492 35.2852 21.398 35.2724 21.0054 35.6351C20.8433 35.7844 20.6983 35.9465 20.5319 36.0873C20.421 36.1812 20.2673 36.2324 20.1436 36.1385C19.9942 36.0233 20.1052 35.8825 20.1777 35.7716C20.3825 35.4601 20.6044 35.1572 20.8049 34.8415C20.9031 34.6921 21.0354 34.658 21.1975 34.6324C22.1191 34.4788 23.0365 34.3039 23.9581 34.1588C25.7245 33.8815 27.2775 33.1391 28.7025 32.0852C29.0396 31.8335 29.3853 31.5988 29.7309 31.3556C29.8205 31.2916 29.9271 31.2361 30.0338 31.3001C30.1276 31.3556 30.1276 31.4708 30.0935 31.5519C29.7393 32.4137 29.462 33.3439 28.7324 33.9668C28.1863 34.4361 27.4269 34.4361 26.7399 34.5385C25.4301 34.7348 24.1117 34.8713 22.7975 35.0377C22.6781 35.0548 22.5586 35.0889 22.4348 35.1188H22.4391Z" fill="#151515"/>
<path d="M51.3031 19.3065C51.5761 19.2852 51.8493 19.2681 52.1223 19.2425C52.5959 19.1956 52.6471 19.1145 52.5106 18.6452C52.3484 18.0948 52.0668 17.6041 51.6658 17.2073C51.3543 16.8959 51.3116 16.5716 51.3926 16.1876C51.4694 15.8207 51.5676 15.4623 51.6401 15.0953C51.6871 14.8564 51.6188 14.7199 51.3458 14.8479C51.333 14.8564 51.3159 14.8607 51.3031 14.8692C50.5806 15.1081 50.2834 15.6059 50.4114 16.3625C50.821 18.7903 51.2647 21.2095 51.5847 23.6543C51.6359 24.0553 51.6615 24.4607 51.6743 24.866C51.6786 25.0409 51.6999 25.2799 51.4781 25.3439C51.2946 25.3993 51.1666 25.2329 51.0514 25.1092C50.6973 24.7252 50.5181 24.2772 50.5351 23.7481C50.6162 21.2137 50.0828 18.7604 49.5367 16.3113C49.4556 15.9444 49.2892 15.6116 49.0716 15.3001C48.8327 14.9588 48.9009 14.754 49.2807 14.8095C50.1383 14.9332 50.7186 14.4383 51.3372 14.0031C51.7767 13.6916 52.4892 13.6959 52.9031 14.0201C53.1676 14.2249 53.0439 14.434 52.9159 14.6345C52.6556 15.0441 52.3655 15.4281 52.1309 15.8505C51.7853 16.4735 51.8279 16.6996 52.3186 17.2201C52.7239 17.6511 53.142 18.0777 53.4577 18.5812C53.6284 18.85 53.7351 19.1316 53.6369 19.4644C53.4534 20.0916 53.1591 20.2281 52.5745 19.9551C52.1521 19.7588 51.7255 19.5711 51.3031 19.3791C51.3031 19.3535 51.3031 19.3279 51.3031 19.3065Z" fill="#151515"/>
<path d="M69.7735 19.8057C70.3879 19.8399 70.9383 19.8783 71.4972 19.9039C71.6551 19.9124 71.8727 19.9977 71.9196 19.7503C71.9751 19.4644 72.0647 19.1316 71.9025 18.8884C71.8044 18.7433 71.4503 18.7092 71.3052 18.8159C70.853 19.1529 70.8828 18.7433 70.8487 18.5343C70.8017 18.2441 70.8273 17.9455 70.8188 17.6468C70.8102 17.4121 70.7932 17.1817 70.6567 16.9769C70.6055 16.9044 70.5031 16.8319 70.5628 16.7337C70.6311 16.6143 70.7591 16.674 70.8572 16.6911C71.8001 16.8447 72.7516 16.7593 73.6945 16.7167C74.0742 16.6996 74.7442 17.0751 74.8509 17.4207C74.8978 17.5743 74.8167 17.6511 74.7057 17.7236C74.437 17.8943 74.2449 18.1417 74.0529 18.3849C73.9975 18.4532 73.8823 18.5257 73.942 18.6196C74.2876 19.1615 73.8695 18.9481 73.6391 18.9353C73.3745 18.9225 73.1143 18.9353 72.8242 18.9353C72.8669 19.0932 72.9948 19.2511 72.8711 19.4388C72.7815 19.5753 72.6791 19.7247 72.7218 19.9295C72.9991 19.9295 73.2764 19.9295 73.558 19.9295C73.6818 19.9295 73.8183 19.9039 73.9292 19.9465C74.1895 20.0404 74.5564 20.1471 74.5266 20.4372C74.501 20.6761 74.1297 20.5737 73.9121 20.578C73.5537 20.5865 73.1953 20.578 72.8369 20.5396C72.5937 20.5097 72.5255 20.5993 72.47 20.8212C72.2354 21.7812 72.2268 21.7769 73.2295 21.8281C73.6775 21.8537 74.1426 21.8409 74.518 22.1567C74.6503 22.2676 74.8125 22.3956 74.7399 22.5791C74.6717 22.754 74.4711 22.7967 74.3004 22.7668C73.7159 22.6729 73.1313 22.5876 72.5596 22.4468C72.214 22.3615 72.1372 22.4937 72.0902 22.7839C71.9793 23.4751 71.8044 24.1535 71.4801 24.7807C71.4204 24.8916 71.3863 25.1007 71.2199 25.0495C71.0663 25.0025 71.0962 24.8063 71.1133 24.674C71.2071 23.9956 71.2967 23.3172 71.4247 22.6431C71.4759 22.37 71.4246 22.2847 71.143 22.2889C70.678 22.2932 70.2044 22.2249 69.7436 22.3273C69.4065 22.4041 69.3084 22.1652 69.1591 21.9775C68.9884 21.7641 69.1719 21.6532 69.2914 21.5081C69.4492 21.3161 69.6071 21.1199 69.7266 20.9065C69.9101 20.578 70.0337 20.2281 69.7777 19.81L69.7735 19.8057ZM72.4102 18.3508C73.3788 18.3465 73.3916 18.3295 73.5452 17.5359C73.5922 17.3012 73.5281 17.1604 73.2892 17.1433C72.7303 17.1007 72.1714 17.0964 71.6124 17.1988C71.4418 17.2287 71.3905 17.2969 71.3735 17.4676C71.2839 18.3081 71.3052 18.3423 72.1287 18.3508C72.2225 18.3508 72.3164 18.3508 72.4102 18.3508ZM70.9895 21.7172C71.0364 21.7172 71.0833 21.7257 71.1302 21.7172C71.2838 21.6831 71.5185 21.8367 71.5783 21.6276C71.6807 21.2777 71.7746 20.9151 71.7447 20.5396C71.7447 20.5097 71.6167 20.4799 71.5485 20.4628C71.0877 20.3433 70.789 20.4116 70.55 20.9321C70.2044 21.6873 69.9527 21.6873 70.9895 21.7215V21.7172Z" fill="#151515"/>
<path d="M74.3986 23.4836C74.8509 23.5476 75.1111 23.7609 75.3969 23.8975C75.734 24.0596 75.9773 24.0169 76.0797 23.6372C76.5618 21.8921 76.9458 20.13 76.9629 18.3039C76.9629 17.9199 76.8562 17.7279 76.4253 17.8175C75.973 17.9156 75.6061 17.698 75.2776 17.4164C75.2264 17.3695 75.1709 17.2884 75.1752 17.2244C75.1837 17.1305 75.2904 17.1391 75.3629 17.1348C76.6429 17.1049 77.9186 17.0708 79.1986 17.0495C79.3138 17.0495 79.4376 17.1177 79.54 17.1817C79.8088 17.3396 80.1884 17.5444 80.0946 17.8431C80.0007 18.1375 79.5997 17.9327 79.3352 17.9199C78.9597 17.8985 78.5757 17.7833 78.2173 17.8473C77.7394 17.9327 78.0679 18.4063 77.9655 18.6921C77.5388 19.8655 77.4792 21.1284 77.2829 22.3572C77.1762 23.0356 77.0994 23.7183 76.8988 24.3753C76.8348 24.5801 76.7581 24.7935 76.6386 24.9727C76.1906 25.6468 75.6914 25.6127 75.2988 24.9257C75.0343 24.4564 74.7229 24.0127 74.3815 23.4751L74.3986 23.4836ZM77.8845 17.8388L77.9186 17.8559V17.8303L77.8845 17.8388Z" fill="#151515"/>
<path d="M109.782 35.9167C109.782 36.6591 109.718 36.7188 109.061 36.578C108.639 36.4884 108.225 36.5567 107.807 36.5908C107.73 36.5993 107.649 36.6036 107.623 36.6975C107.491 37.2095 107.316 36.9705 107.132 36.7316C106.318 35.6692 105.349 34.7348 104.491 33.7065C104.432 33.6383 104.385 33.5401 104.274 33.5615C103.677 33.6596 103.894 33.2671 104.031 33.0751C104.299 32.6996 104.641 32.3711 104.952 32.0255C105.285 31.6585 105.682 31.3428 105.686 30.7753C105.686 30.562 105.861 30.5705 105.981 30.69C106.079 30.7839 106.19 30.9161 106.198 31.0399C106.237 31.522 106.552 31.8207 106.859 32.1321C107.747 33.0281 108.523 34.0265 109.471 34.8671C109.816 35.1743 109.718 35.6137 109.782 35.9252V35.9167ZM107.397 35.7033C107.619 35.6265 107.9 35.5369 108.174 35.4303C108.754 35.2041 108.779 35.1188 108.387 34.6153C107.896 33.9881 107.367 33.4036 106.804 32.8404C106.272 32.3113 105.746 32.3014 105.225 32.8105C105.17 32.866 105.119 32.9257 105.055 32.9684C104.841 33.1135 104.846 33.2415 105.021 33.442C105.673 34.1972 106.407 34.8713 107.107 35.5796C107.171 35.6436 107.231 35.7247 107.401 35.7033H107.397Z" fill="#151515"/>
<path d="M70.3496 15.3812C70.8146 15.2916 71.2028 15.3471 71.5868 15.3513C71.766 15.3513 71.877 15.3087 71.9325 15.1295C72.0605 14.7497 72.197 14.37 72.3378 13.9732C71.958 13.9263 71.5442 14.0116 71.3735 13.5295C71.5271 13.4484 71.6893 13.4783 71.8258 13.5124C72.3335 13.6404 72.5981 13.4697 72.7005 12.9492C72.7986 12.4372 73.0589 11.9551 72.9053 11.4004C72.8498 11.1999 73.0205 11.1444 73.1997 11.1487C73.4557 11.1572 74.0402 11.6393 74.1042 11.8911C74.1469 12.0575 74.0359 12.1471 73.9549 12.2623C73.8567 12.3988 73.7501 12.5396 73.6776 12.6932C73.5538 12.9407 73.4557 13.2009 73.3405 13.4655C73.6648 13.5465 73.9464 13.4569 74.1981 13.3673C74.6802 13.1967 75.0087 13.4143 75.333 13.7001C75.5335 13.8793 75.5463 14.0671 75.3244 14.2505C74.9831 14.5364 74.7954 14.9289 74.565 15.3599C75.0684 15.3343 75.5037 15.4025 75.8152 15.7823C75.9005 15.8889 76.0455 15.9871 75.9602 16.1407C75.8876 16.2729 75.734 16.2217 75.6188 16.2089C74.6887 16.1108 73.7629 15.9956 72.8242 15.9871C72.3549 15.9828 71.8898 15.9828 71.4205 15.9785C70.9853 15.9785 70.6567 15.7737 70.3367 15.3897L70.3496 15.3812ZM73.285 15.3641C73.7799 15.5348 73.989 15.1892 74.1212 14.7284C74.1682 14.5663 74.2365 14.4041 74.2834 14.242C74.3346 14.0671 74.309 13.9647 74.0872 13.9177C73.46 13.7855 73.1399 13.9305 72.8967 14.5065C72.8583 14.5919 72.8242 14.6772 72.7901 14.7668C72.6194 15.1679 72.7843 15.3684 73.285 15.3684V15.3641Z" fill="#151515"/>
<path d="M67.9133 17.634C66.9235 18.2655 66.1469 19.0121 65.0589 19.2041C65.0205 18.9439 65.221 18.9183 65.3277 18.8329C66.4498 17.9583 67.5122 17.0239 68.3869 15.8932C68.6087 15.6073 68.805 15.3087 68.8562 14.9417C68.8946 14.6601 69.0397 14.6516 69.2445 14.7497C69.3554 14.8009 69.4706 14.8564 69.5773 14.9161C70.2386 15.2916 70.2556 15.5775 69.6327 16.0212C69.2231 16.3113 68.9074 16.7039 68.532 17.0281C68.3784 17.1604 68.3911 17.2713 68.4935 17.4249C68.7581 17.826 68.7495 18.2185 68.5874 18.6921C68.2077 19.7972 68.101 20.9705 67.8407 22.1097C67.7511 22.4937 67.606 22.8521 67.3927 23.1807C67.205 23.4665 67.0173 23.3983 66.932 23.1252C66.757 22.562 66.6461 22.0372 66.9874 21.4313C67.6274 20.3049 67.7555 19.0207 67.9091 17.634H67.9133Z" fill="#151515"/>
<path d="M100.553 42.5428C100.575 43.3449 100.519 44.0105 99.892 44.4585C99.7171 44.5865 99.525 44.7401 99.2946 44.6292C99.0727 44.5225 99.1112 44.2921 99.1026 44.0916C99.077 43.3108 99.3842 42.5983 99.5378 41.8516C99.636 41.378 99.7512 40.9087 99.7682 40.4223C99.7682 40.3156 99.7853 40.1748 99.9005 40.1535C100.033 40.1279 100.067 40.2815 100.101 40.3753C100.378 41.1092 100.502 41.8772 100.549 42.5428H100.553Z" fill="#151515"/>
<path d="M66.6248 15.0569C67.0258 14.7241 67.4482 14.4127 67.8236 14.0543C68.5618 13.346 69.3085 12.6292 69.5986 11.5924C69.6626 11.362 69.8034 11.3236 69.9783 11.4303C70.149 11.5369 70.3069 11.6649 70.4434 11.8143C70.8274 12.2239 70.8103 12.3092 70.4135 12.6975C69.8034 13.2991 69.2103 13.9135 68.485 14.3828C67.926 14.7455 67.333 15.0313 66.6248 15.0569Z" fill="#151515"/>
<path d="M78.2471 15.3599C77.8119 15.3727 77.3767 15.3983 76.9543 15.2617C76.7751 15.202 76.5959 15.1423 76.4807 14.9844C76.374 14.8393 76.357 14.7199 76.5959 14.7241C77.3596 14.7369 78.1191 14.7156 78.8743 14.5919C78.917 14.5833 78.9725 14.5919 79.0109 14.6089C79.2797 14.7241 79.6722 14.8393 79.6552 15.1337C79.6381 15.4324 79.237 15.3385 78.9938 15.3599C78.7463 15.3812 78.4989 15.3641 78.2471 15.3641V15.3599Z" fill="#151515"/>
<path d="M42.8424 67.7887C46.2771 67.8015 49.0248 70.5833 49.0163 74.0351C49.0077 77.4484 46.1618 80.2644 42.7655 80.2217C39.3309 80.1791 36.5661 77.3801 36.5789 73.9583C36.5959 70.5407 39.4035 67.7759 42.8424 67.7887Z" fill="#151515"/>
<path d="M80.133 81.6255C83.5591 81.6255 86.3453 84.3903 86.3538 87.7951C86.3624 91.2511 83.5634 94.0415 80.0988 94.0287C76.6514 94.0159 73.9079 91.2511 73.9165 87.7865C73.925 84.3689 76.6941 81.6255 80.1287 81.6255H80.133Z" fill="#151515"/>
<path d="M63.7235 73.9924C63.7235 77.4271 60.9714 80.1876 57.5154 80.2217C54.1362 80.2516 51.2989 77.4185 51.2861 74.0009C51.2733 70.5919 54.0808 67.7887 57.5069 67.7887C60.9544 67.7887 63.7192 70.5492 63.7192 73.9924H63.7235Z" fill="#151515"/>
<path d="M66.0189 73.9668C66.0274 70.5151 68.8008 67.7716 72.2611 67.7844C75.7043 67.7972 78.4434 70.5748 78.4264 74.0436C78.4136 77.4527 75.6359 80.2047 72.2055 80.2175C68.7922 80.2303 66.0061 77.4143 66.0189 73.9668Z" fill="#151515"/>
<path d="M50.4797 81.6255C53.9357 81.6255 56.6963 84.3775 56.6963 87.8335C56.6963 91.2596 53.94 94.0201 50.5139 94.0329C47.0664 94.0415 44.2717 91.2767 44.2589 87.8463C44.2461 84.4159 47.0322 81.6297 50.4797 81.6297V81.6255Z" fill="#151515"/>
<path d="M80.7303 73.9668C80.7388 70.5193 83.508 67.7759 86.9725 67.7844C90.4114 67.7929 93.1549 70.5791 93.1378 74.0436C93.1207 77.4569 90.3602 80.2004 86.917 80.2175C83.5122 80.2345 80.7218 77.4185 80.7303 73.9668Z" fill="#151515"/>
<path d="M71.621 87.8249C71.621 91.2809 68.8647 94.0329 65.4045 94.0287C61.9527 94.0244 59.205 91.2639 59.2135 87.7993C59.2221 84.3689 61.9698 81.6255 65.4087 81.6212C68.8733 81.6212 71.621 84.3604 71.621 87.8207V87.8249Z" fill="#151515"/>
<path d="M60.5405 81.4719C59.4354 82.4319 58.5138 83.5369 57.9591 85.0047C57.4599 83.7673 56.7602 82.7689 55.8087 81.8644C56.1757 81.7961 56.453 81.9199 56.7346 81.9369C57.9292 82.0137 59.1026 81.9241 60.2333 81.4932C60.3186 81.4591 60.4167 81.4505 60.5063 81.4335C60.5191 81.4463 60.532 81.4591 60.5448 81.4719H60.5405Z" fill="#151515"/>
<path d="M70.6866 81.8345C72.2994 82.082 73.75 81.9668 75.1964 81.4719C74.181 82.3807 73.3661 83.4047 72.7815 84.7145C72.2653 83.6095 71.6253 82.6921 70.6866 81.8345Z" fill="#151515"/>
<path d="M66.8381 79.9316C65.3021 79.7353 63.8173 79.8676 62.3538 80.418C63.4248 79.5092 64.2866 78.4553 64.8668 77.1028C65.3703 78.2121 66.0104 79.1209 66.8381 79.9316Z" fill="#151515"/>
<path d="M81.5367 79.9359C80.0349 79.7097 78.597 79.8975 77.1591 80.3369C78.1874 79.4452 78.9938 78.4084 79.574 77.1071C80.0775 78.2079 80.7261 79.1167 81.5367 79.9316V79.9359Z" fill="#151515"/>
<path d="M50.1597 77.1199C50.4498 77.7215 50.7314 78.2335 51.0812 78.7156C51.4183 79.1807 51.8322 79.5817 52.293 80.0553C50.757 79.7311 49.3234 79.8207 47.8855 80.226C48.8412 79.3428 49.605 78.3401 50.1597 77.1199Z" fill="#151515"/>
<path d="M60.7624 81.3097L60.7752 81.3311L60.7453 81.3268L60.7624 81.3097Z" fill="#151515"/>
<path d="M60.5021 81.4335C60.5362 81.4249 60.5959 81.3993 60.6002 81.4036C60.6258 81.4591 60.5746 81.4591 60.5405 81.4719C60.5277 81.4591 60.5149 81.4463 60.5021 81.4335Z" fill="#151515"/>
<path d="M47.7576 80.3113L47.7448 80.2857H47.7788L47.7576 80.3113Z" fill="#151515"/>
<path d="M45.3212 81.5956L45.4364 81.5828C45.4194 81.6084 45.3981 81.6383 45.381 81.6639C45.3597 81.6425 45.3383 81.6212 45.3212 81.5956Z" fill="#151515"/>
<path fill-rule="evenodd" clip-rule="evenodd" d="M44.2374 35.5023C48.6021 35.5108 52.9627 35.5106 57.3232 35.5106H63.992C64.0602 35.5106 64.1286 35.5109 64.2011 35.5152L64.1928 48.281C64.1928 48.524 64.1926 48.7797 64.1586 48.8227C64.116 48.8568 63.8727 48.8569 63.6424 48.8569H43.9432L43.9386 48.8656C43.9301 48.7803 43.9261 48.6992 43.9261 48.6139V45.0339C43.9261 41.9662 43.926 38.8983 43.9132 35.8306C43.9132 35.626 43.9432 35.5664 43.9603 35.5494C43.9774 35.5323 44.037 35.5023 44.2374 35.5023ZM54.6653 45.0344C54.2344 45.1581 53.8544 45.1157 53.449 45.0773C53.641 45.8111 53.829 46.5065 54.0465 47.3256C54.2684 46.5108 54.4562 45.8154 54.6653 45.0389V45.0344ZM52.0795 44.3773C51.9088 45.1367 51.6443 45.8153 51.5461 46.5406V46.5489C52.0453 46.0114 52.549 45.4781 53.0482 44.9448C52.7325 44.8338 52.4208 44.6333 52.0795 44.3773ZM56.5765 46.4764V46.4723L56.5749 46.4706C56.5754 46.4726 56.576 46.4745 56.5765 46.4764ZM56.0178 44.3902C55.685 44.6248 55.3564 44.8255 55.0578 44.9535L56.5749 46.4706C56.4004 45.811 56.2092 45.1091 56.0178 44.3902ZM54.0636 39.6114C52.6385 39.6072 51.4653 40.7678 51.4653 42.1844C51.461 43.5838 52.613 44.7486 54.0082 44.7614C55.4545 44.7741 56.602 43.6478 56.6149 42.2144C56.6277 40.7723 55.4971 39.6201 54.0636 39.6114ZM49.7586 44.7189C50.4199 44.544 51.1195 44.3605 51.832 44.1685C51.6272 43.823 51.4354 43.4943 51.269 43.2085L49.7586 44.7189ZM56.8282 43.106C56.713 43.5198 56.4402 43.8057 56.2824 44.1639C56.598 44.245 56.8794 44.3347 57.1695 44.3902C57.581 44.4708 57.963 44.7238 58.4119 44.6302C57.8898 44.1292 57.3716 43.6282 56.8282 43.106ZM58.4119 44.6302C58.4146 44.6327 58.4173 44.6352 58.4199 44.6377V44.6289C58.4173 44.6295 58.4145 44.6297 58.4119 44.6302ZM56.939 41.5785C56.9902 42.0009 56.986 42.3805 56.939 42.7944H56.9436C57.6817 42.5938 58.3815 42.4019 59.1878 42.1844C58.3729 41.9668 57.6772 41.7791 56.939 41.5785ZM48.9307 42.1885C49.7158 42.3976 50.4283 42.5897 51.1707 42.7902C51.1197 42.3735 51.115 42.0033 51.1699 41.5827C50.4107 41.7874 49.707 41.9795 48.9307 42.1885ZM51.1699 41.5827H51.1707V41.5785C51.1705 41.5799 51.1701 41.5813 51.1699 41.5827ZM58.3995 39.7394C57.6584 39.7361 57.0022 40.0767 56.2482 40.2131C56.4956 40.5715 56.7002 40.879 56.8836 41.3952C57.4254 40.7984 57.9127 40.2685 58.3995 39.7394ZM51.2474 41.2031C51.4351 40.8874 51.6273 40.5545 51.8278 40.2089C51.1238 40.0212 50.4327 39.8375 49.669 39.6327C50.2365 40.1959 50.7396 40.6996 51.2474 41.2031ZM55.0449 39.4194C55.3563 39.5559 55.6762 39.7354 56.0132 39.9956V39.9998C56.2137 39.2574 56.3973 38.5663 56.5807 37.8752C56.0603 38.3956 55.5525 38.9074 55.0449 39.4194ZM51.5549 37.8198C51.6317 38.5578 51.913 39.2405 52.0836 39.9956C52.4335 39.714 52.7665 39.5432 53.0865 39.3981C52.5647 38.8593 52.0597 38.3416 51.5549 37.8198ZM58.3995 39.7394C58.4005 39.7394 58.4017 39.7393 58.4028 39.7394L58.4111 39.731V39.7269C58.4073 39.731 58.4033 39.7352 58.3995 39.7394ZM53.4361 39.3298C53.8457 39.2316 54.2128 39.236 54.6607 39.3256C54.4516 38.5491 54.26 37.8536 54.0424 37.0473C53.8248 37.8707 53.6366 38.5746 53.4361 39.3298Z" fill="#151515"/>
<path d="M58.4029 39.7353L58.3986 39.714L58.4111 39.7269L58.4029 39.7353Z" fill="#151515"/>
<path d="M51.5549 37.8198L51.5335 37.8196L51.5463 37.8111L51.5549 37.8198Z" fill="#151515"/>
<path d="M51.5421 46.5492H51.5335L51.5461 46.5406L51.5421 46.5492Z" fill="#151515"/>
<path d="M58.4199 44.6377C58.4199 44.659 58.42 44.6804 58.42 44.7017C58.3389 44.6804 58.4284 44.6545 58.4199 44.6289L58.42 44.6335L58.4199 44.6377Z" fill="#151515"/>
</svg>
