<svg width="16" height="17" viewBox="0 0 16 17" fill="none" xmlns="http://www.w3.org/2000/svg">
<path d="M15.4942 0.934505C15.7676 1.20787 15.7676 1.65137 15.4942 1.92474L8.98932 8.42962L15.4942 14.9345L15.584 15.0449C15.7631 15.3165 15.7333 15.6857 15.4942 15.9247C15.2551 16.1637 14.886 16.1937 14.6143 16.0146L14.504 15.9247L7.99908 9.41986L1.4942 15.9247C1.22083 16.198 0.777313 16.1981 0.503967 15.9247C0.230622 15.6514 0.230663 15.2079 0.503967 14.9345L7.00885 8.42962L0.503967 1.92474L0.414124 1.81439C0.235043 1.54274 0.264949 1.17358 0.503967 0.934505C0.74304 0.695433 1.11218 0.665573 1.38385 0.844662L1.4942 0.934505L7.99908 7.43939L14.504 0.934505C14.7773 0.661155 15.2208 0.661154 15.4942 0.934505Z" fill="#464747"/>
</svg>
