<svg width="129" height="128" viewBox="0 0 129 128" fill="none" xmlns="http://www.w3.org/2000/svg">
<path d="M98.6989 43.3403C99.3026 43.3406 99.9327 43.5687 100.655 44.1062C101.121 44.5389 101.539 44.9253 101.934 45.2788C102.204 45.5672 102.488 45.8912 102.786 46.2549L102.824 46.3019L102.876 46.3318C103.809 46.8464 104.746 47.463 105.653 48.0585C106.241 48.4455 106.851 48.8452 107.456 49.2153C107.597 49.4535 107.733 49.6834 107.844 49.879C107.669 49.7685 107.503 49.6577 107.418 49.6024C105.624 48.3009 104.426 47.5864 102.671 46.7783L102.624 46.753H102.569C99.3436 46.4892 97.8181 46.3615 96.8935 43.9542V43.9455C97.1483 43.7904 97.3967 43.6607 97.6429 43.5612C97.8649 43.5453 98.0841 43.5212 98.2741 43.4649L98.6989 43.3403Z" fill="currentColor"/>
<path d="M97.9416 47.1056C99.058 47.0843 102.803 47.7309 104.456 48.505C103.811 48.6172 102.975 48.7393 102.109 48.8543C101.213 48.9075 100.424 49.0058 99.6751 49.1463C98.8943 49.2292 98.234 49.2875 97.8522 49.3004H97.831C96.557 49.4323 94.8397 49.2794 93.685 48.7604H93.6892C93.8042 48.7094 93.9154 48.6541 94.0304 48.603C95.462 47.9395 96.7018 47.3693 97.9416 47.1056Z" fill="currentColor"/>
<path d="M92.3431 45.1534C93.7619 45.2172 95.8878 45.7404 97.2214 46.5017C95.6663 47.2289 94.6907 47.5057 92.505 48.0884C91.2268 48.1054 89.4927 47.6586 88.3295 47.0333C88.6824 46.7455 89.0404 46.4559 89.4226 46.1926C90.1151 45.942 90.7234 45.6353 91.2846 45.307C91.6122 45.223 91.9632 45.1688 92.3431 45.1534Z" fill="currentColor"/>
<path d="M97.8563 36.8721C99.3263 37.4506 101.44 38.4033 102.739 40.3471C104.06 42.393 104.827 44.4814 105.892 47.3694L105.913 47.4292C104.479 46.6248 103.521 45.8832 102.376 44.8614C101.91 44.3645 101.468 43.9584 101.042 43.6393C100.991 43.5917 100.938 43.5436 100.886 43.4948C100.571 43.2013 100.238 42.8908 99.8719 42.5548H99.876C99.1304 41.6829 98.2782 39.0371 97.8563 36.8721Z" fill="currentColor"/>
<path d="M86.7359 43.2269C88.2229 43.2779 90.2851 43.6689 91.6017 44.409C91.4245 44.5232 91.2447 44.6347 91.0616 44.7438C90.3252 44.9446 89.6997 45.2789 89.138 45.6589C88.462 45.8955 87.7025 46.075 86.8125 46.1656C85.5386 46.2039 83.779 45.7787 82.5987 45.1662C83.0122 44.8287 83.4477 44.4842 83.9252 44.181C84.4637 43.9854 84.9341 43.7466 85.3944 43.4757C85.8079 43.3423 86.2526 43.2534 86.7359 43.2269Z" fill="currentColor"/>
<path d="M90.3405 41.6402C91.8317 40.8576 93.2122 40.7683 93.8939 41.032L93.9364 41.0445C95.0697 41.2955 96.1607 42.0654 97.4049 42.9714C97.3793 42.9757 97.3535 42.9756 97.3279 42.9756C96.8039 43.0011 96.267 43.0309 95.8878 43.3116L95.6323 43.5031L95.8366 43.7498C95.9858 43.9285 96.1861 44.2434 96.4034 44.5752C96.5652 44.8261 96.7274 45.077 96.8893 45.3066C96.7445 45.2811 96.5953 45.2557 96.4462 45.2302C95.4748 45.0643 94.4692 44.894 93.4978 44.5112C92.2068 43.9753 91.1459 43.0098 90.3363 41.636L90.3405 41.6402Z" fill="currentColor"/>
<path d="M81.4907 41.1425C82.8882 41.2063 84.2134 41.2659 85.8921 42.4568C85.6506 42.613 85.4184 42.7608 85.1872 42.8996C84.6103 43.0865 84.0944 43.3512 83.6198 43.6522C83.028 43.8577 82.3497 44.0063 81.4907 44.0817C80.2168 44.1029 78.4615 43.6564 77.2898 43.0312H77.294C78.4018 42.1423 79.6715 41.2149 81.4524 41.1425H81.4907Z" fill="currentColor"/>
<path d="M84.1453 39.5986C86.0158 38.6544 88.6661 38.114 91.3162 40.279C90.6473 40.4831 89.6971 40.811 89.2583 41.1172L88.994 41.3L89.19 41.5508C89.4542 41.8869 89.9101 42.4102 90.3276 42.8568C89.4499 42.7462 88.6743 42.5461 87.9201 42.3504C87.5154 42.2441 87.132 42.1464 86.7401 42.0613C86.1663 41.734 85.7158 41.4264 85.3349 41.0885L85.4065 41.0914L85.4024 41.0873L84.8527 40.5427C84.7684 40.4586 84.6838 40.3737 84.5997 40.2885C84.4424 40.0786 84.2929 39.8512 84.1453 39.5986Z" fill="currentColor"/>
<path d="M92.1472 35.1238C93.4935 35.5321 95.0572 36.0897 96.2715 37.2891C97.4261 38.5141 98.159 40.4537 98.7555 42.4314C97.3068 41.9763 94.6821 40.6151 93.7192 39.6879L93.7233 39.6838C93.5707 39.4095 93.4294 39.1332 93.2977 38.8543C93.1599 38.4505 92.9802 38.0247 92.7838 37.6069C92.5057 36.8223 92.2965 36.0028 92.1472 35.1238Z" fill="currentColor"/>
<path d="M78.3055 37.3136C80.3415 36.3746 82.2669 36.66 84.9376 38.3056C84.2687 38.4714 83.4804 38.7055 83.0714 38.9735L82.803 39.1475L82.9949 39.403C83.2335 39.722 83.5401 40.0666 83.8724 40.4111C81.0621 40.1687 79.3156 39.1956 78.3055 37.3136Z" fill="currentColor"/>
<path d="M87.0384 33.4482C88.4103 33.8225 89.91 34.2988 91.0221 35.6895C91.4043 36.2661 91.8417 37.0422 92.205 37.81C92.3612 38.2504 92.5382 38.6804 92.7376 39.1043C92.8461 39.4263 92.9231 39.7196 92.9523 39.9641C92.8245 39.9216 92.6923 39.8751 92.5645 39.8283C91.2053 39.3477 89.9227 38.8924 88.6657 37.459V37.4549C87.8946 36.4383 87.2216 34.7625 87.0384 33.4482Z" fill="currentColor"/>
<path d="M80.9115 33.0694C82.3303 33.1417 83.8983 33.2907 85.2788 34.4135L85.4065 34.5369C86.3652 35.4641 87.7627 36.817 88.2655 38.1951C88.1291 38.1781 87.9927 38.161 87.8606 38.144C86.3949 37.9568 84.8823 37.7654 83.3527 36.6383C82.3855 35.8088 81.3717 34.3156 80.9115 33.0694Z" fill="currentColor"/>
<path d="M69.3733 94.9393C69.9869 95.0414 70.9457 95.254 71.6019 95.4199H71.6061C74.2647 96.1642 76.2757 97.3895 79.0537 99.0781C80.8176 100.29 83.3147 102.659 84.2777 103.752L80.8433 104.96C79.7099 103.99 77.3069 101.349 74.6568 99.7925C72.0067 98.2358 70.6643 97.9168 69.3733 97.3638V94.9393Z" fill="currentColor"/>
<path d="M69.0069 98.4619C69.0069 98.7001 68.585 98.8958 68.0652 98.8958H67.6902C67.1704 98.8958 66.7486 98.7001 66.7486 98.4619V95.0039C66.7486 94.7657 67.1704 94.57 67.6902 94.57H68.0652C68.585 94.57 69.0069 94.7657 69.0069 95.0039V98.4619Z" fill="currentColor"/>
<path d="M65.2657 94.8841C65.8237 94.8841 66.1988 94.999 66.3097 95.0755V98.3931C66.2031 98.4654 65.8281 98.5846 65.2657 98.5846H64.7377C64.1795 98.5846 63.8045 98.4697 63.6937 98.3931V95.0755C63.8003 95.0032 64.1754 94.8841 64.7377 94.8841H65.2657Z" fill="currentColor"/>
<path d="M62.5262 94.5705C63.0458 94.5705 63.4675 94.766 63.4678 95.0041V98.4625C63.4676 98.7006 63.0458 98.8961 62.5262 98.8961H62.1513C61.6316 98.8961 61.2098 98.7006 61.2096 98.4625V95.0041C61.2099 94.766 61.6316 94.5705 62.1513 94.5705H62.5262Z" fill="currentColor"/>
<path d="M60.7919 97.3024C59.5009 97.8553 58.1586 98.1743 55.5084 99.731C52.8582 101.288 50.4549 103.929 49.3215 104.899L45.8876 103.691C46.8505 102.598 49.3472 100.229 51.1111 99.0166C53.8892 97.328 55.9004 96.1028 58.5592 95.3584H58.5633C59.2195 95.1925 60.1783 94.9799 60.7919 94.8778V97.3024Z" fill="currentColor"/>
<path d="M16.872 88.7465C21.0006 88.67 23.4636 88.8957 27.1577 90.4354C28.0098 90.8522 28.8917 91.3029 29.829 91.775C32.1638 92.9532 34.584 94.1783 36.8422 95.1565L36.868 95.1648C44.0303 97.517 45.8581 97.819 50.2765 98.5464C50.498 98.5847 50.7283 98.6232 50.9626 98.6614C50.545 98.9379 50.2638 99.1932 49.9698 99.4569C49.8516 99.5653 49.7301 99.6747 49.5962 99.7896C49.5193 99.8524 49.4422 99.9162 49.3648 99.9807C49.2598 100.065 49.1463 100.153 49.0195 100.244C43.0289 100.082 37.0338 98.9335 32.1212 97.0024C27.6519 95.3267 25.3297 94.8079 19.8378 93.7488H19.812C18.2618 93.5915 16.7756 93.5275 15.3786 93.5274C12.0052 93.5276 9.18125 93.8931 7.43046 94.1185C7.34099 94.1313 7.25135 94.1398 7.1704 94.1526C9.46692 91.0775 13.5231 88.7934 16.872 88.7465Z" fill="currentColor"/>
<path d="M25.3512 74.3951C26.6038 78.2103 27.3537 79.3972 30.5535 83.2678C34.0217 87.351 36.7061 89.771 41.934 92.4421C44.3711 93.6288 45.9092 94.7645 51.1712 95.3472C55.939 96.1213 58.2272 95.0579 60.1658 94.9941C55.969 96.1426 54.6435 96.9722 52.0317 98.3503C48.2695 97.874 44.9588 97.2953 38.8745 95.4494C33.8681 93.6034 30.6043 92.0638 27.886 89.6479C25.7002 87.5722 23.6808 84.7393 23.3527 80.8092C23.2547 78.5975 23.6891 76.8449 25.3466 74.3992L25.3512 74.3951Z" fill="currentColor"/>
<path d="M2.72656 54.1283C6.10517 55.702 8.70424 57.3053 10.1188 58.6961C11.8828 60.3507 12.8756 62.0266 13.7363 63.6004L13.7534 63.6262C14.5926 64.8639 14.8653 67.6837 15.1252 70.41C15.1968 71.1401 15.2686 71.8799 15.3511 72.6052C15.4553 73.9082 15.666 75.167 15.9744 76.3618C16.4523 79.279 18.4947 82.6519 21.3628 85.2333L21.3799 85.2462C21.6909 85.4886 22.0702 85.7862 22.4962 86.1222C23.7574 87.1175 25.4532 88.4532 27.0254 89.6612C25.8537 89.1678 24.7075 88.7337 23.5826 88.3083C20.204 87.0281 17.2852 85.9181 15.3977 83.8339L15.3853 83.8211C12.0491 80.5885 11.7122 78.1004 11.2052 74.3319C11.0604 73.2558 10.8942 72.035 10.6385 70.7037C10.1528 67.8922 9.01091 64.6765 7.24696 61.1377C5.73017 58.2539 4.36682 56.1357 2.73072 54.1324L2.72656 54.1283Z" fill="currentColor"/>
<path d="M19.3476 61.6565C21.904 59.8829 23.8259 60.5295 25.8881 61.4908C27.8692 62.5754 29.1007 64.3575 30.4002 67.0073C30.3022 66.952 30.204 66.901 30.106 66.8457C28.2824 65.8462 26.561 64.9022 24.4605 64.9915H24.4434C22.2364 65.2 19.4967 66.7012 19.0451 70.2443C18.8661 71.5118 18.8874 74.3062 19.6713 76.8242C20.1698 78.7595 22.113 82.3195 23.2805 83.1532C23.5096 83.7591 23.8895 84.6629 24.4534 85.6886C24.7867 86.3293 25.1782 86.954 25.6297 87.5644C25.7615 87.7495 25.8979 87.9361 26.0412 88.1214C23.7831 86.3691 21.2013 84.2593 20.4044 83.3405L20.3915 83.3235C18.6305 81.5601 17.3276 79.1265 16.5872 76.3124C16.5711 76.2174 16.5565 76.1227 16.544 76.0287L16.4607 75.6881C16.236 74.7232 16.0799 73.6198 15.951 72.4769C15.917 72.0271 15.8957 71.5718 15.8878 71.112C15.8154 66.999 17.0126 63.7323 19.3517 61.6523L19.3476 61.6565Z" fill="currentColor"/>
<path d="M19.3007 34.9498C21.3544 36.7745 22.6498 38.6417 23.2506 40.6408C24.3839 44.2901 23.2719 47.676 21.8488 49.624L21.8317 49.6452C21.3545 50.4448 20.6386 51.3592 19.8844 52.3289C18.3719 54.2727 16.6507 56.4762 16.1862 58.5561C15.7192 59.9093 15.4045 61.1899 15.2259 62.5233C15.0674 63.3218 14.9796 63.8705 15.0149 64.8652C14.5258 63.5797 13.9997 62.7402 13.3914 61.7628C13.2636 61.5587 13.1312 61.3459 12.9948 61.1248V61.1294C12.9906 60.5764 12.9863 60.0659 12.9778 59.5937C12.9394 56.9439 12.9183 55.3446 13.6086 52.1673C14.8357 48.2925 15.6027 46.9825 16.9959 44.6134L17.3409 44.0265C19.2028 41.5383 19.4966 39.0542 19.3007 34.9498Z" fill="currentColor"/>
<path d="M25.9664 50.6566C26.9718 50.761 28.1305 50.8584 29.1533 50.9278C30.4474 51.1301 32.0498 51.4537 34.0897 51.9293C37.0084 52.9459 38.6531 54.8301 39.4839 55.97C36.0498 54.3495 34.2945 53.7071 30.558 54.1324C27.3838 54.4727 26.2587 54.8725 23.0334 56.812C20.9073 58.2241 19.7994 59.3174 18.0824 61.6951C17.2179 63.0023 16.2984 64.5913 15.6807 66.7344C15.6057 65.2101 15.6517 63.9291 15.7893 62.7867C15.8154 62.6529 15.8438 62.5115 15.875 62.3584C15.9304 62.0777 15.9944 61.7588 16.0668 61.3802C16.3608 59.713 17.7881 55.9616 18.7851 54.9108L18.8068 54.8851C20.1276 53.1413 21.5336 52.0523 23.8173 51.0018L23.8132 50.9976C24.4359 50.8028 25.0966 50.6759 25.9664 50.6566Z" fill="currentColor"/>
<path d="M30.4148 44.5141L30.8006 44.6092C30.9816 44.6537 31.1846 44.6712 31.3927 44.679C31.6545 44.7689 31.9202 44.8921 32.194 45.0429C31.3717 47.4886 29.8547 47.6802 26.6422 48.0842L26.591 48.0925L26.544 48.1183C24.827 49.0029 23.6595 49.7642 21.9383 51.138C21.853 51.2018 21.6868 51.3209 21.5163 51.44C21.6186 51.2401 21.7464 51.002 21.8742 50.7596L21.87 50.7551C22.4622 50.3595 23.0504 49.9344 23.6213 49.5218C24.5033 48.8881 25.4108 48.233 26.3226 47.6801L26.3738 47.6502L26.4079 47.6036C26.7387 47.1627 27.051 46.7763 27.3478 46.4398C27.6758 46.1246 28.0213 45.7809 28.4043 45.3964C29.1383 44.7899 29.7846 44.5281 30.4148 44.5141Z" fill="currentColor"/>
<path d="M31.2907 48.2371C32.5433 48.4498 33.8046 48.9645 35.266 49.5642C35.381 49.6152 35.4959 49.662 35.6151 49.7087C34.4818 50.2787 32.7732 50.5043 31.495 50.4277H31.4821V50.4236H31.4696C31.0034 50.4289 30.1193 50.384 29.1067 50.3139C27.856 50.1247 26.8842 50.0476 26.0775 50.056C25.6244 50.0097 25.2023 49.9638 24.8397 49.9172C26.4587 49.0708 30.1701 48.2583 31.2907 48.2371Z" fill="currentColor"/>
<path d="M36.8081 46.0468C37.2313 46.0468 37.6203 46.0962 37.9827 46.1826C38.5213 46.4668 39.087 46.7238 39.7086 46.9307C40.1194 47.1849 40.505 47.4694 40.8857 47.7523C39.7524 48.4243 38.0354 48.9477 36.7615 48.986C34.5502 48.5011 33.5659 48.2628 31.981 47.6078H31.9764C33.276 46.7869 35.381 46.1744 36.7956 46.0468H36.8081Z" fill="currentColor"/>
<path d="M30.9283 38.0165C30.7933 38.9259 30.5845 39.9214 30.3374 40.8389C30.0636 41.4444 29.8663 42.0388 29.7316 42.6944C29.5439 43.1569 29.3516 43.5345 29.1603 43.7797C28.9303 44.0094 28.7129 44.2305 28.5042 44.4389C28.3214 44.6233 28.1471 44.7976 27.9811 44.9644C27.6396 45.2507 27.2904 45.5975 26.9276 46.0061C25.8267 47.0651 24.9633 47.766 23.536 48.6371C23.6511 48.2628 23.762 47.9098 23.8685 47.5696C24.5971 45.2302 25.1209 43.5414 26.2032 41.6954L26.199 41.6996C27.4133 39.7006 29.4839 38.6587 30.9283 38.0165Z" fill="currentColor"/>
<path d="M42.3175 43.8773C42.7928 43.8819 43.2332 43.9491 43.6452 44.0605C44.1305 44.3194 44.6235 44.5449 45.1869 44.721C45.6694 45.0014 46.1133 45.3228 46.5354 45.6385C45.3808 46.2977 43.6468 46.7995 42.3687 46.8165C41.4628 46.7646 40.6871 46.6098 39.9849 46.3845C39.4524 46.0611 38.8674 45.7798 38.1966 45.6111C37.9634 45.4865 37.733 45.3564 37.5029 45.2215H37.4984C38.7468 44.4559 40.7538 43.9964 42.3175 43.8773Z" fill="currentColor"/>
<path d="M35.0742 41.9932C35.7474 41.704 37.1277 41.734 38.653 42.4485C37.9031 43.8519 36.8849 44.8642 35.6239 45.4512C34.6652 45.8765 33.6679 46.0893 32.705 46.2977C32.556 46.3275 32.4112 46.3614 32.2664 46.3912C32.4198 46.1531 32.573 45.8936 32.7221 45.6385C32.9223 45.2983 33.1141 44.9791 33.2547 44.792L33.4465 44.5365L33.1823 44.3579C32.7945 44.0943 32.2533 44.0902 31.7293 44.0817H31.6581C32.8616 43.1223 33.9125 42.3076 35.0314 42.0102L35.0742 41.9932Z" fill="currentColor"/>
<path d="M47.5111 41.5679C49.2921 41.5679 50.5962 42.4396 51.7424 43.2775C50.6005 43.9538 48.8705 44.473 47.5923 44.507C46.7336 44.4686 46.0512 44.3502 45.4523 44.1714C44.9631 43.89 44.4347 43.6467 43.8479 43.4852C43.6116 43.3568 43.374 43.2191 43.1268 43.0736H43.1226C44.746 41.8103 46.0713 41.6955 47.4645 41.5679H47.5111Z" fill="currentColor"/>
<path d="M37.6136 41.1297C40.1658 38.8542 42.8374 39.2752 44.7462 40.1386C44.6088 40.3993 44.4677 40.6342 44.3185 40.8518C44.2367 40.942 44.1549 41.0324 44.073 41.1214L43.5487 41.6912L43.614 41.6854C43.2489 42.0371 42.8133 42.3619 42.2576 42.7122C41.87 42.8143 41.4909 42.9291 41.0905 43.0524C40.3448 43.2821 39.5775 43.5158 38.7083 43.6647C39.1046 43.1968 39.5393 42.6567 39.7864 42.3122L39.9741 42.0526L39.7057 41.8827C39.2541 41.5935 38.2911 41.3082 37.6136 41.1338V41.1297Z" fill="currentColor"/>
<path d="M36.5655 36.0173C36.458 36.8909 36.2876 37.7069 36.0495 38.4916C35.8604 38.9409 35.69 39.3995 35.5656 39.8304C35.4497 40.105 35.3243 40.3775 35.1891 40.6491C34.2474 41.6359 31.6059 43.1418 30.1956 43.6352C30.2254 43.3724 30.264 43.1231 30.3108 42.8825C30.5306 42.3359 30.7322 41.7001 30.91 41.042C31.2558 40.2919 31.7362 39.4995 32.3983 38.497C33.7617 36.9191 35.0953 36.4892 36.382 36.0767C36.4459 36.0554 36.5058 36.0385 36.5655 36.0173Z" fill="currentColor"/>
<path d="M45.1881 38.0609C47.1469 37.0096 48.7516 36.8916 50.4853 37.6036C49.5565 39.5304 47.8564 40.5812 45.0529 40.9427C45.3681 40.5855 45.6622 40.2282 45.888 39.8964L46.0669 39.6327L45.7943 39.4665C45.3811 39.2198 44.5797 38.9862 43.9278 38.8331H43.9236C44.1107 38.7062 44.2945 38.5868 44.4749 38.4746C44.7121 38.3543 44.9498 38.2175 45.1881 38.0609Z" fill="currentColor"/>
<path d="M41.5931 34.1327C41.4653 35.4513 40.8687 37.1528 40.1401 38.2034C38.9429 39.6877 37.6818 40.1982 36.3483 40.7384C36.2205 40.7894 36.0925 40.8406 35.9646 40.8917C35.9824 40.6421 36.0462 40.3405 36.1423 40.009C36.317 39.5894 36.4707 39.165 36.6042 38.7317C36.9362 37.9406 37.3459 37.1359 37.7072 36.5361L37.7114 36.5402C38.7595 35.1026 40.2382 34.5623 41.5931 34.1327Z" fill="currentColor"/>
<path d="M47.6988 33.4864C47.2898 34.7497 46.3438 36.2851 45.4107 37.1571C45.2371 37.2969 45.0627 37.4231 44.8885 37.5388C44.6463 37.6684 44.3994 37.8104 44.1479 37.9662C43.0826 38.4937 42.0149 38.6775 40.971 38.8543C40.839 38.8755 40.7067 38.8969 40.5703 38.9224C41.0134 37.5273 42.3514 36.1109 43.2674 35.1454L43.391 35.0133V35.0175C44.7246 33.835 46.2842 33.6183 47.6988 33.4864Z" fill="currentColor"/>
<path d="M109.428 32.3209C109.168 36.8156 108.927 41.807 110.788 44.3072C111.457 45.4428 112.173 46.3617 112.867 47.2506C113.868 48.5308 114.904 49.8578 115.816 51.8824C116.868 54.4854 117.111 55.7956 117.026 58.471C116.516 59.3253 115.936 60.6081 115.38 62.0241C115.354 62.0899 115.328 62.1563 115.303 62.223C115.146 62.6268 114.99 63.0397 114.84 63.4558C114.849 63.3373 114.857 63.2199 114.864 63.1036C114.993 62.2934 115.015 61.5257 114.876 60.6583C114.818 59.6681 114.685 58.8242 114.507 58.1644V58.1474C113.4 54.8469 111.559 52.8264 109.936 51.04C109.437 50.4913 108.964 49.9724 108.538 49.445L108.5 49.4068C106.612 47.7607 104.597 42.3421 105.786 38.5141C106.519 36.077 107.826 33.8606 109.428 32.3209Z" fill="currentColor"/>
<path d="M111.653 86.8244C115.351 86.8754 118.223 90.3842 120.085 93.6252C117.392 92.5109 114.925 92.3877 109.39 92.9619H109.364C105.462 93.7105 103.127 94.7354 100.652 95.8242C99.531 96.3176 98.3675 96.8282 97.0083 97.3386C90.9027 99.5121 86.8635 99.4864 82.5858 99.4566C82.1129 99.4481 81.6269 99.4483 81.137 99.4483L81.1286 99.4566C80.8133 99.4566 80.4978 99.4612 80.1783 99.4612C80.0164 99.3464 79.8674 99.2397 79.7268 99.1376C79.0707 98.6655 78.5507 98.2957 77.8178 97.8662C79.2777 97.6206 80.6415 97.3854 81.9558 97.1463C83.3664 96.9301 84.9224 96.6376 86.7005 96.2047C88.578 95.7946 90.4746 95.3302 92.5432 94.7567L92.5645 94.7484C96.2543 93.4043 97.8096 92.6386 100.635 91.2435L100.839 91.1455C102.113 90.6138 103.306 89.9545 104.465 89.3207C106.804 88.0405 109.011 86.8244 111.508 86.8244H111.653Z" fill="currentColor"/>
<path d="M104.145 71.6268C105.393 74.2681 106.02 79.3381 105.926 81.4648C105.611 85.3014 103.561 87.7344 101.393 89.793C99.2026 91.4603 97.0893 92.2007 94.1622 93.2215C93.1269 93.583 91.9552 93.9913 90.66 94.4846C89.2451 94.9224 87.9619 95.2774 86.7816 95.57C85.0884 95.9426 83.4144 96.2687 81.6467 96.5881C80.1329 96.8118 78.7665 96.951 77.4175 97.0878L76.8125 97.1472C75.0923 96.2382 74.5329 95.9948 73.086 95.5845C72.8441 95.4949 72.5981 95.4099 72.3471 95.3291C73.8887 95.2368 75.9358 94.9986 79.0578 94.4888C84.0854 93.5063 85.5767 92.9999 88.1119 91.7664C92.5899 89.4058 95.5257 86.8156 98.5636 83.6426C101.478 80.3377 103.485 76.0035 104.145 71.6268Z" fill="currentColor"/>
<path d="M103.216 61.0236C105.347 60.0326 107.213 60.2918 109.607 61.9208L109.778 62.0317C111.005 62.829 111.876 63.8606 112.435 65.2309C112.6 65.7086 112.759 66.2339 112.913 66.8163C113.144 67.9097 113.242 69.1734 113.216 70.6402C113.213 70.7583 113.209 70.8755 113.206 70.9917C113.146 71.6021 113.084 72.2645 113.016 72.9925C112.948 73.7156 112.871 74.5109 112.79 75.3701C112.705 76.0117 112.6 76.6139 112.474 77.1886C111.635 80.4757 109.908 83.3651 106.382 87.3606C105.198 88.2495 104.26 88.7643 103.059 89.2705C105.074 86.7227 105.628 85.6124 106.8 83.2646L106.97 82.9199L106.987 82.8816C107.217 82.1883 107.396 81.6822 107.558 81.2314C107.878 80.3339 108.108 79.6873 108.445 78.3815L108.449 78.3902C109.258 75.7957 109.475 73.9706 109.305 71.1549C109.058 67.6204 107.298 65.3152 104.584 64.9792C103.493 64.8728 100.864 64.7664 98.3806 65.7829C99.6843 63.2948 101.082 62.189 103.216 61.0236Z" fill="currentColor"/>
<path d="M125.607 54.4802C123.966 56.3985 122.842 57.9936 121.265 60.9879C119.753 63.5484 118.679 66.8704 118.244 70.3412C117.136 76.1086 116.284 78.4777 112.799 83.0287C111.427 84.5429 109.893 86.236 107.439 87.0952C107.498 87.0271 107.558 86.9592 107.614 86.8954C109.015 85.2664 109.944 84.1902 110.899 82.6931C112.059 80.7795 112.753 79.0061 113.173 76.8289C113.576 75.0776 113.742 73.2336 113.808 71.1051C114.008 69.0513 114.187 67.6297 114.525 66.2926C114.753 65.5476 115.007 64.78 115.275 64.0263C115.333 63.8823 115.394 63.7357 115.458 63.5864L115.466 63.5652C116.297 61.1749 116.889 59.7073 119.446 57.3467C121.32 55.505 123.932 54.8799 125.492 54.5056C125.53 54.4971 125.568 54.4887 125.607 54.4802Z" fill="currentColor"/>
<path d="M102.203 49.4538C102.962 49.4109 103.801 49.3996 104.759 49.4231C108.589 50.2398 110.498 52.7665 111.891 54.6082L112.032 54.7951L112.045 54.808C113.208 56.1648 113.872 57.9044 114.209 60.4479V60.4695C114.236 60.6051 114.259 60.7381 114.279 60.8691C114.308 61.4905 114.307 62.1698 114.266 62.8977C114.159 63.6365 113.955 64.4112 113.698 65.3393L113.685 65.4033C113.664 65.8881 113.608 66.1051 113.536 66.4114C113.519 66.4787 113.502 66.546 113.485 66.6174C113.358 66.0378 113.194 65.5008 112.992 65.0037C111.99 62.1213 110.783 60.8794 109.522 59.5847C109.386 59.4402 109.246 59.2954 109.101 59.1465C107.269 57.2878 106.604 56.8495 104.78 55.7351L104.755 55.7226C102.347 54.57 100.779 53.9912 97.8775 53.5914H97.8604C97.247 53.5403 96.7485 53.5191 96.2926 53.5191C95.2701 53.5191 94.4818 53.6339 93.2206 53.8211C92.6412 53.9061 91.9553 54.0083 91.099 54.1189C92.8629 52.6728 94.8525 51.4223 96.774 50.5504C97.7884 50.2099 98.7127 49.9428 99.7091 49.7525C100.475 49.672 101.353 49.567 102.203 49.4538Z" fill="currentColor"/>
<path d="M64.6948 74.4589H64.6777C62.1596 74.3058 60.8516 73.7614 59.0365 72.6725L59.3475 72.1536C61.1072 73.2084 62.3002 73.7018 64.6948 73.8507C66.9956 73.7401 68.4527 73.1404 70.1869 72.1493L70.4894 72.6725C68.7169 73.6848 67.1319 74.3398 64.7075 74.4547H64.6905L64.6948 74.4589Z" fill="currentColor"/>
<path d="M64.6948 81.5493C64.5286 81.5493 64.3922 81.4132 64.3922 81.2473V74.1569C64.3922 73.9911 64.5286 73.8549 64.6948 73.8549C64.861 73.8549 64.9973 73.9911 64.9973 74.1569V81.2473C64.9973 81.4132 64.861 81.5493 64.6948 81.5493Z" fill="currentColor"/>
<path d="M63.3356 74.2633L62.7476 78.3125L63.3356 74.2633Z" fill="white"/>
<path d="M62.7476 78.6145C62.7476 78.6145 62.7178 78.6145 62.705 78.6145C62.5388 78.589 62.4238 78.4359 62.4494 78.27L63.0374 74.2207C63.0629 74.0549 63.2163 73.94 63.3825 73.9655C63.5486 73.9911 63.6637 74.1442 63.6381 74.3101L63.0501 78.3593C63.0288 78.5082 62.8967 78.6188 62.7519 78.6188L62.7476 78.6145Z" fill="currentColor"/>
<path d="M61.9338 73.9528L61.3927 76.6409L61.9338 73.9528Z" fill="white"/>
<path d="M61.3927 76.9429C61.3927 76.9429 61.3544 76.9429 61.333 76.9387C61.1669 76.9046 61.0646 76.7473 61.0944 76.5814L61.6355 73.8932C61.6696 73.7316 61.8273 73.621 61.9934 73.655C62.1596 73.6891 62.2619 73.8464 62.2321 74.0123L61.6909 76.7005C61.6611 76.8451 61.5376 76.9429 61.3927 76.9429Z" fill="currentColor"/>
<path d="M60.6087 73.2892L60.1145 75.3521L60.6087 73.2892Z" fill="white"/>
<path d="M60.1145 75.6541C60.0932 75.6541 60.0676 75.6541 60.042 75.6456C59.8801 75.6073 59.7778 75.4457 59.8162 75.2798L60.3104 73.2169C60.3488 73.0553 60.515 72.9532 60.6769 72.9915C60.8388 73.0298 60.941 73.1914 60.9027 73.3573L60.4084 75.4202C60.3744 75.5606 60.2508 75.6541 60.1145 75.6541Z" fill="currentColor"/>
<path d="M66.0923 74.2718L66.5865 78.1126L66.0923 74.2718Z" fill="white"/>
<path d="M66.5823 78.4146C66.4332 78.4146 66.3011 78.304 66.2841 78.1509L65.7898 74.3101C65.7685 74.1442 65.8878 73.9911 66.054 73.9698C66.2201 73.9485 66.3735 74.0676 66.3948 74.2335L66.8891 78.0743C66.9104 78.2402 66.7911 78.3933 66.6249 78.4146C66.6121 78.4146 66.5993 78.4146 66.5866 78.4146H66.5823Z" fill="currentColor"/>
<path d="M67.4941 73.957L67.9031 76.3134L67.4941 73.957Z" fill="white"/>
<path d="M67.9031 76.6154C67.7582 76.6154 67.6304 76.5133 67.6049 76.3644L67.1959 74.0081C67.166 73.8422 67.2768 73.6848 67.443 73.6593C67.6091 73.6295 67.7668 73.7401 67.7923 73.906L68.2014 76.2624C68.2312 76.4282 68.1204 76.5856 67.9542 76.6111C67.9372 76.6111 67.9202 76.6154 67.9031 76.6154Z" fill="currentColor"/>
<path d="M68.8192 73.2935L69.2452 74.846L68.8192 73.2935Z" fill="white"/>
<path d="M69.2453 75.148C69.1132 75.148 68.9896 75.0587 68.9513 74.9268L68.5252 73.3743C68.4826 73.2127 68.5764 73.0468 68.7383 73.0043C68.9002 72.9575 69.0663 73.0553 69.1089 73.2169L69.535 74.7694C69.5776 74.9311 69.4839 75.0969 69.322 75.1395C69.2964 75.148 69.2666 75.1522 69.241 75.1522L69.2453 75.148Z" fill="currentColor"/>
<path d="M66.5951 70.6819C66.5951 70.8776 66.4332 71.0392 66.2372 71.0392C66.0412 71.0392 65.8793 70.8776 65.8793 70.6819C65.8793 70.4863 66.0412 70.3246 66.2372 70.3246C66.4332 70.3246 66.5951 70.4863 66.5951 70.6819Z" fill="currentColor"/>
<path d="M66.5652 72.9405C66.5652 73.1361 66.4033 73.2978 66.2074 73.2978C66.0114 73.2978 65.8495 73.1361 65.8495 72.9405C65.8495 72.7448 66.0114 72.5832 66.2074 72.5832C66.4033 72.5832 66.5652 72.7448 66.5652 72.9405Z" fill="currentColor"/>
<path d="M65.0101 71.775C65.0101 71.9707 64.8482 72.1323 64.6522 72.1323C64.4562 72.1323 64.2943 71.9707 64.2943 71.775C64.2943 71.5794 64.4562 71.4178 64.6522 71.4178C64.8482 71.4178 65.0101 71.5794 65.0101 71.775Z" fill="currentColor"/>
<path d="M68.5465 71.9622C68.5465 72.1578 68.3846 72.3195 68.1886 72.3195C67.9926 72.3195 67.8307 72.1578 67.8307 71.9622C67.8307 71.7665 67.9926 71.6049 68.1886 71.6049C68.3846 71.6049 68.5465 71.7665 68.5465 71.9622Z" fill="currentColor"/>
<path d="M64.9462 70.231C64.9462 70.4267 64.7843 70.5883 64.5883 70.5883C64.3923 70.5883 64.2304 70.4267 64.2304 70.231C64.2304 70.0354 64.3923 69.8738 64.5883 69.8738C64.7843 69.8738 64.9462 70.0354 64.9462 70.231Z" fill="currentColor"/>
<path d="M61.7165 71.9154C61.7165 72.1111 61.5546 72.2727 61.3586 72.2727C61.1626 72.2727 61.0007 72.1111 61.0007 71.9154C61.0007 71.7197 61.1626 71.5581 61.3586 71.5581C61.5546 71.5581 61.7165 71.7197 61.7165 71.9154Z" fill="currentColor"/>
<path d="M63.472 70.7542C63.472 70.9499 63.31 71.1115 63.114 71.1115C62.918 71.1115 62.7561 70.9499 62.7561 70.7542C62.7561 70.5586 62.918 70.3969 63.114 70.3969C63.31 70.3969 63.472 70.5586 63.472 70.7542Z" fill="currentColor"/>
<path d="M63.7148 72.8937C63.7148 73.0893 63.5529 73.251 63.3569 73.251C63.1609 73.251 62.999 73.0893 62.999 72.8937C62.999 72.698 63.1609 72.5364 63.3569 72.5364C63.5529 72.5364 63.7148 72.698 63.7148 72.8937Z" fill="currentColor"/>
<path d="M62.1597 56.8627C62.6667 57.4411 63.0417 58.0534 63.3826 58.6106C63.4848 58.7764 63.5829 58.9381 63.6809 59.0912C63.7107 61.6304 63.6896 64.0081 63.6726 66.1093C63.6641 66.8196 63.6555 67.5005 63.6555 68.1512C62.8289 68.2916 62.0873 68.5213 61.4482 68.8403C60.9411 66.8583 60.0762 63.2258 59.5308 60.7248C60.0804 59.8316 60.7281 58.9085 61.3075 58.0876C61.61 57.6623 61.8998 57.2455 62.1597 56.8627Z" fill="currentColor"/>
<path d="M51.6487 59.6484C54.0346 59.7462 56.2715 60.3291 58.0481 61.3244C58.4231 62.8684 58.832 64.9696 59.2623 67.1899C59.4412 68.1086 59.6246 69.0529 59.8078 69.9716C59.173 70.5288 58.4613 71.2772 58.0906 71.7876L58.0011 71.9155L57.9674 72.0684C57.9504 72.1364 57.9373 72.2044 57.9246 72.2682C57.7925 72.0811 57.656 71.8856 57.5197 71.69C56.7784 70.6267 55.935 69.4228 55.0232 68.3978L54.9974 68.3724C54.6821 68.0492 54.3881 67.7344 54.1069 67.4324C53.2548 66.5222 52.4495 65.6544 51.1202 64.5996V64.5955C51.3205 62.758 51.474 61.3115 51.6487 59.6484Z" fill="currentColor"/>
<path d="M42.0532 64.1401C44.9334 63.7233 48.3376 64.8674 49.2666 65.4502L49.3136 65.4755C50.971 66.356 53.7236 69.0742 55.8753 72.3196C54.0773 71.6731 52.7606 71.2391 49.5225 70.9584L48.4702 70.865L48.7128 71.8897C49.0195 73.1657 49.548 74.6459 50.1828 76.0538C48.9557 74.8288 47.848 73.3188 46.6465 71.677C46.1309 70.971 45.5981 70.2436 45.0229 69.4951V69.4992C43.634 67.5555 43.0332 66.339 42.0532 64.1401Z" fill="currentColor"/>
<path d="M38.6275 70.1546C40.4212 69.8654 42.7606 69.776 43.2336 70.2099L43.3018 70.2651C44.2902 70.9839 45.0571 72.1195 45.8666 73.3189C46.3182 73.9824 46.7828 74.6717 47.2984 75.2969C48.6745 76.9386 49.1859 77.3638 50.7452 78.4271C51.8445 79.2991 53.3868 80.4859 54.5841 81.4004C53.3314 81.4174 52.0491 81.3024 50.8859 81.0515L50.8264 81.0348H50.7665C49.6204 80.9753 47.9248 80.1074 46.5656 79.4099C45.8711 79.0569 45.2103 78.7167 44.6649 78.504V78.5081C42.3302 76.8579 41.5846 74.8164 41.4269 74.3058C41.2054 72.8597 40.0719 71.5582 38.6275 70.1546Z" fill="currentColor"/>
<path d="M50.7163 72.8808C54.8826 73.5357 56.7486 74.1272 58.3079 75.6795L58.3549 75.7223C60.7111 77.6959 62.3856 79.8821 63.4508 82.3874C59.6375 82.6 58.1973 82.0598 56.9872 81.022L56.9019 80.9581C53.2142 78.5945 51.3352 75.3345 50.7163 72.8808Z" fill="currentColor"/>
<path d="M43.7791 80.354C44.8016 80.3583 45.9607 80.7284 47.3113 81.4855L47.3279 81.4938C50.4723 83.1441 53.3999 83.2123 56.7914 82.7657C56.9917 82.9486 57.3154 83.3317 57.5412 83.6039C57.8522 83.9781 58.193 84.3863 58.5465 84.7308C56.8166 86.9553 52.9266 87.6403 49.8973 87.1341L49.906 87.1383C47.1408 86.3046 45.7813 85.1049 44.3412 83.8332C44.1325 83.6461 43.9193 83.4591 43.7021 83.272C42.4665 82.2044 41.086 81.6897 39.4755 81.2899C40.9497 80.7284 42.5987 80.354 43.7662 80.354H43.7791Z" fill="currentColor"/>
<path d="M60.3158 83.8585C61.012 83.8501 61.7708 83.8591 62.4495 83.8676C63.3954 83.8761 64.222 83.8886 64.7717 83.8589C65.594 83.9354 66.2331 84.0588 66.8509 84.1779C67.7669 84.3565 68.6063 84.5182 69.7481 84.4587C69.1857 84.9691 68.5081 85.5049 67.7284 85.9515C66.1563 86.8532 65.5173 87.7977 64.8441 88.7972C64.8143 88.8397 64.7844 88.8864 64.7546 88.9289C64.7248 88.8736 64.6991 88.8143 64.6693 88.759C64.3583 88.138 64.009 87.4318 63.0803 86.2963L63.0333 86.2452C62.2675 85.468 61.4296 84.7583 60.3158 83.8585Z" fill="currentColor"/>
<path d="M68.1887 55.5866C68.8022 56.7265 69.3985 58.4578 69.9737 60.1337L70.1314 60.5885C69.5392 63.3148 68.3848 67.4916 67.8991 69.2398C67.1023 68.8996 65.9388 68.5808 65.0526 68.5213C65.0483 67.7599 65.0441 66.9516 65.0355 66.1009C65.0142 63.9572 64.9974 61.5285 65.0272 58.9382C65.5982 58.1301 67.0852 56.5861 68.1887 55.5866Z" fill="currentColor"/>
<path d="M77.7967 59.653C77.8478 60.2654 77.8817 60.8098 77.9115 61.3797C77.9541 62.158 78.0011 62.9577 78.1034 63.9912C76.2925 65.0205 75.696 65.5993 74.4305 67.1135C73.212 68.5383 72.3003 70.2567 71.495 71.7794L71.4821 71.7623C70.8089 70.8691 69.8633 69.9629 69.0368 69.3972L69.0322 69.3931C69.4412 67.5386 70.0294 65.718 70.5492 64.0975C70.8688 63.1065 71.1714 62.1665 71.3972 61.3286C73.1739 60.3334 75.4108 59.7508 77.7967 59.653Z" fill="currentColor"/>
<path d="M79.207 65.2588C79.9059 64.9228 82.258 63.9277 85.0231 64.2765C84.5033 66.4456 82.9055 70.0906 82.2195 71.1072C81.1032 72.8128 80.1317 73.9018 78.7427 74.9141C78.862 74.3527 78.9513 73.757 79.0876 72.8298L79.207 72.009L78.3761 71.9621C77.9713 71.9408 77.5665 71.928 77.1703 71.928L77.1661 71.9239C75.7601 71.9239 74.4264 72.0771 73.1396 72.3791C74.8865 69.2699 76.595 66.4117 79.1812 65.2717L79.207 65.2588Z" fill="currentColor"/>
<path d="M90.1871 66.4924C89.2498 68.1044 88.6616 69.759 88.1716 71.1371C87.7882 72.2131 87.4559 73.1445 87.0981 73.6422L87.0723 73.6804C85.7898 75.7263 85.0314 76.5048 82.1682 78.053C80.3233 78.8016 79.1175 79.1294 77.0042 79.1591C77.2215 78.8231 77.3875 78.5039 77.558 78.1764C77.7241 77.8616 77.8991 77.534 78.1334 77.1512C81.4865 74.8927 83.4168 72.9828 85.1637 68.5211C86.4291 66.9389 88.7385 66.5009 90.1871 66.4924Z" fill="currentColor"/>
<path d="M77.2256 73.7146C76.8251 76.3644 75.9303 79.0696 72.3981 81.3325L72.3133 81.3964C71.0862 82.4513 69.7182 82.9189 65.9687 82.451L65.9646 82.4469C67.1363 79.5631 68.9046 77.0407 71.0009 75.2755C72.8585 73.9018 74.7374 73.7613 77.2256 73.7146Z" fill="currentColor"/>
<path d="M86.7145 77.2663C88.4656 77.2663 90.6726 77.5341 92.1936 78.1295C91.8741 78.5292 91.5803 78.9122 91.3119 79.2609C90.0848 80.8475 89.1983 81.9918 87.9499 82.834C85.5043 84.4502 83.3442 85.4539 80.1104 85.4624H79.9485C77.0214 85.5432 75.0058 85.5986 72.4323 83.9525H72.4452C72.6412 83.7399 72.8587 83.4975 73.093 83.2423C73.779 82.4852 75.0271 81.1157 75.5001 80.7924C78.5593 80.9923 79.1473 80.8603 82.3768 79.8948L82.4579 79.8695L82.5303 79.8267C83.1141 79.4992 83.7235 79.0567 84.3158 78.6271C85.104 78.0529 86.1903 77.2664 86.6675 77.2663H86.7145Z" fill="currentColor"/>
<path fill-rule="evenodd" clip-rule="evenodd" d="M55.269 27.2359C60.2964 22.2119 68.4543 22.2102 73.4904 27.2321C78.5264 32.2542 78.5336 40.3985 73.5062 45.4225C68.4788 50.4465 60.3204 50.4479 55.2844 45.4258C50.2485 40.4037 50.2416 32.2598 55.269 27.2359ZM64.3709 44.8929L65.3966 41.0769C64.719 41.2189 64.0178 41.2156 63.3419 41.0669L64.3709 44.8929ZM60.0802 43.7448L62.8888 40.9444C62.2424 40.7351 61.6319 40.388 61.1034 39.903L60.0802 43.7448ZM67.6464 39.9333C67.1159 40.4114 66.5068 40.7515 65.8635 40.9547L68.6617 43.7448L67.6464 39.9333ZM56.9404 40.5971L60.7788 39.5753C60.2961 39.0414 59.9533 38.428 59.7498 37.7805L56.9404 40.5971ZM69.0237 37.805C68.8189 38.4485 68.4762 39.0566 67.9972 39.5844L71.8019 40.5971L69.0237 37.805ZM67.4533 33.3198C65.8131 31.6093 63.0943 31.5499 61.3809 33.1873C59.6675 34.8247 59.6084 37.5388 61.2486 39.2492C62.8888 40.9597 65.6076 41.0191 67.321 39.3817C69.0344 37.7443 69.0935 35.0303 67.4533 33.3198ZM55.7941 36.3055L59.635 37.3452C59.4879 36.6601 59.4907 35.9506 59.6425 35.2675L55.7941 36.3055ZM69.136 35.2729C69.2865 35.9486 69.2912 36.6494 69.1501 37.3256L72.9478 36.3013L69.136 35.2729ZM59.7569 34.8409C59.9655 34.1895 60.3152 33.5741 60.805 33.0423L56.9404 32.0139L59.7569 34.8409ZM67.9572 33.0328C68.4468 33.5607 68.7974 34.1689 69.0091 34.8127L71.8019 32.0093L67.9572 33.0328ZM61.1117 32.7387C61.6482 32.2499 62.2664 31.9029 62.9196 31.6974L60.0802 28.8704L61.1117 32.7387ZM65.8256 31.6891C66.4796 31.8908 67.0982 32.2338 67.6352 32.7159L68.6617 28.8662L65.8256 31.6891ZM64.3709 27.7177L63.3303 31.5873C64.0151 31.4361 64.7258 31.4342 65.4107 31.5811L64.3709 27.7135V27.7177Z" fill="currentColor"/>
</svg>
