<svg width="129" height="128" viewBox="0 0 129 128" fill="none" xmlns="http://www.w3.org/2000/svg">
<path d="M48.688 82.8796C48.4192 83.2935 48.112 83.7159 47.8603 84.1724C47.8006 84.2791 47.8902 84.5863 47.9926 84.6417C49.6992 85.5249 51.4699 86.1905 53.424 86.2375C55.7365 86.2972 57.567 85.3585 59.0006 83.5879C60.2678 82.0263 60.976 80.1873 61.535 78.2887C61.6245 77.9772 61.7739 77.8449 62.0726 77.7383C62.6272 77.5378 63.1819 77.2945 63.6854 76.9788C64.1718 76.6759 64.5857 76.2577 65.0465 75.878C65.4134 76.198 65.7632 76.5905 66.1899 76.8551C66.7616 77.2092 67.3888 77.4865 68.0118 77.7425C68.2891 77.8535 68.4341 77.9729 68.5195 78.2673C68.9504 79.7863 69.5094 81.254 70.3542 82.598C71.5531 84.5137 73.1616 85.8663 75.4699 86.1863C77.0656 86.4081 78.6102 86.0967 80.0992 85.5335C80.735 85.2945 81.3408 84.9873 81.9723 84.7271C82.2966 84.5948 82.3648 84.3772 82.1942 84.1041C81.9339 83.686 81.6438 83.2892 81.3153 82.8113C83.7899 82.7345 86.2048 82.2737 88.5771 81.1132C88.1334 83.8311 86.9046 86.1052 85.7398 88.4476C85.3985 87.9612 85.0912 87.5217 84.7499 87.0311C84.5494 87.2146 84.4086 87.3255 84.2848 87.4492C82.0704 89.6977 79.3611 90.9308 76.2592 91.3703C74.3435 91.6391 72.432 91.9591 70.5206 92.2663C70.2304 92.3132 69.9403 92.4114 69.663 92.518C68.6262 92.902 67.5808 93.2689 66.5654 93.7084C66.0235 93.9431 65.5414 94.3057 65.072 94.5873C62.2304 93.0044 59.2267 91.9591 55.9584 91.6433C54.448 91.4983 52.9376 91.221 51.4656 90.8498C49.3152 90.3079 47.4891 89.1303 45.919 87.5729C45.7568 87.4108 45.6672 87.1804 45.5435 86.9841C45.4624 87.014 45.3814 87.0481 45.3003 87.078C44.9931 87.5132 44.6816 87.9527 44.3744 88.3879C43.487 87.3809 41.5883 82.6065 41.5371 81.2668C42.6976 81.6337 43.8539 82.0817 45.0528 82.3505C46.2603 82.6236 47.5019 82.7217 48.6923 82.8924L48.688 82.8796Z" fill="#151515"/>
<path d="M69.8977 77.5591C67.9606 77.542 66.5611 76.8935 65.456 75.6177C65.0336 75.1356 65.0421 75.1356 64.624 75.6135C63.1093 77.3329 61.1894 77.9132 59.0048 77.3799C56.8928 76.8636 55.4934 75.4983 54.9515 73.3564C54.576 71.8759 54.8875 70.4977 55.6896 69.222C56.0011 68.7228 56.0011 68.7228 55.4507 68.4967C53.1808 67.5665 51.8496 65.5911 51.9094 63.2401C51.9904 60.0615 55.1094 57.5313 58.2411 58.0988C58.6208 58.1671 59.1072 58.3505 59.3632 58.1927C59.5723 58.0647 59.5168 57.5015 59.5766 57.1303C59.9819 54.5617 62.4011 52.6332 65.183 52.6588C67.7942 52.6844 70.1536 54.7068 70.5035 57.2241C70.5248 57.3735 70.559 57.5185 70.576 57.6679C70.6301 58.1145 70.8833 58.2851 71.3355 58.1799C74.9153 57.3521 78.2816 60.006 78.1494 63.6284C78.064 65.9367 76.8139 67.5239 74.719 68.4497C74.079 68.7356 74.079 68.7185 74.4289 69.2988C75.4827 71.0609 75.6022 72.8785 74.608 74.6833C73.5456 76.6119 71.8262 77.4908 69.8977 77.5548V77.5591ZM66.8555 70.4935C67.2054 70.3271 67.5126 70.1863 67.8155 70.0412C68.2977 70.6897 68.7542 71.2785 69.1808 71.8887C69.279 72.0295 69.3088 72.2385 69.3003 72.4177C69.2875 72.8359 69.5264 73.1815 69.9232 73.2455C70.2859 73.3052 70.6656 73.0364 70.7339 72.6695C70.8064 72.2812 70.5547 71.9399 70.128 71.8375C70.0043 71.8076 69.8379 71.7991 69.7739 71.7137C69.2576 71.0524 68.7627 70.3783 68.2549 69.6999C68.5365 69.4311 68.7755 69.2049 69.0059 68.9873C69.0827 69.03 69.1296 69.0513 69.168 69.0812C69.6544 69.4951 70.3371 69.6828 70.5419 70.4252C70.5803 70.566 71.0539 70.6769 71.3056 70.6428C71.6214 70.6001 71.7153 70.2844 71.6513 69.9729C71.583 69.6273 71.3312 69.4908 71.0027 69.4737C70.8619 69.4652 70.687 69.5164 70.5846 69.4524C70.1537 69.1793 69.744 68.8722 69.3942 68.6247C69.6886 67.75 69.9616 66.9479 70.2347 66.1372C71.135 66.0434 71.327 66.0988 72.2528 66.406C72.4533 66.4743 72.8246 66.342 72.9654 66.1756C73.0806 66.0391 73.0635 65.5996 72.9398 65.4972C72.7521 65.3436 72.3083 65.2327 72.1675 65.3436C71.8048 65.6337 71.4294 65.5911 71.0411 65.5911C69.9488 65.5825 70.1792 65.7191 69.9915 64.6908C69.9872 64.6652 70.0128 64.6311 70.0427 64.5628C70.7254 64.3452 71.4293 64.1063 72.1461 63.91C72.3467 63.8545 72.5942 63.8759 72.799 63.9399C73.2128 64.0636 73.5968 63.9527 73.7632 63.5857C73.9339 63.206 73.8059 62.9031 73.4689 62.694C73.1233 62.4764 72.7264 62.5959 72.479 62.9585C72.4022 63.0737 72.3254 63.2401 72.2102 63.2785C71.4166 63.5516 70.6101 63.7991 69.7995 64.0593C69.6331 63.7351 69.4838 63.4449 69.3259 63.1335C69.5392 62.9756 69.7227 62.8348 69.9147 62.7068C70.2902 62.4636 70.5974 62.1223 71.1435 62.1948C71.4507 62.2375 71.7281 61.9303 71.6513 61.5975C71.6001 61.3713 71.3611 61.0471 71.1777 61.03C70.9515 61.0087 70.6699 61.222 70.4608 61.3927C70.3414 61.4908 70.3584 61.7553 70.239 61.8535C69.855 62.1649 69.4369 62.4295 69.0955 62.6641C68.3275 62.1223 67.6192 61.6231 66.8896 61.1111C66.928 60.9959 66.9707 60.838 67.0304 60.6844C67.2182 60.2108 67.231 59.6561 67.7856 59.3532C67.9051 59.2892 67.9179 58.8242 67.824 58.6108C67.6875 58.3036 67.3504 58.2652 67.0475 58.4188C66.736 58.5724 66.655 58.8455 66.736 59.174C66.7744 59.3233 66.8683 59.494 66.8299 59.622C66.7019 60.0956 66.527 60.5564 66.3648 61.0428C66.0064 60.9788 65.6864 60.9191 65.3323 60.8551C65.3323 60.1255 65.3067 59.4471 65.3451 58.7687C65.3579 58.5127 65.4731 58.2439 65.6054 58.022C65.8102 57.6721 65.8272 57.3649 65.5414 57.0748C65.2854 56.8103 64.8118 56.8017 64.5472 57.062C64.2571 57.3479 64.2571 57.6551 64.4577 58.0092C64.5942 58.2524 64.6965 58.5297 64.7307 58.8028C64.7776 59.1783 64.752 59.5665 64.7392 59.9463C64.7094 60.9873 64.9611 60.838 63.8177 61.0215C63.7878 61.0257 63.7537 61.0087 63.7067 60.9959C63.6726 60.9148 63.6171 60.8295 63.5958 60.7356C63.4678 60.1639 63.0454 59.6519 63.3355 58.9905C63.3867 58.8711 63.1051 58.5041 62.9003 58.3932C62.6016 58.2311 62.2603 58.3932 62.1878 58.7132C62.1366 58.9351 62.2646 59.2252 62.3755 59.4556C62.4523 59.6177 62.6912 59.7031 62.7595 59.8609C62.9344 60.2833 63.0582 60.7313 63.1819 61.1025C62.431 61.6316 61.7227 62.1308 60.976 62.6599C60.5408 62.2204 59.7686 62.1009 59.568 61.3031C59.487 60.9788 59.1328 60.9063 58.8171 61.0087C58.4886 61.1153 58.3478 61.3713 58.4203 61.7127C58.4928 62.054 58.7318 62.2033 59.0689 62.2119C59.2097 62.2161 59.3889 62.1607 59.4913 62.2289C59.9222 62.502 60.3318 62.8092 60.767 63.1164C60.592 63.4449 60.4384 63.7351 60.2763 64.0423C59.568 63.8161 58.8854 63.6241 58.2155 63.3767C57.9809 63.2913 57.7589 63.1079 57.5883 62.9159C57.3067 62.6087 57.008 62.4636 56.624 62.6727C56.2741 62.8647 56.1419 63.1676 56.2998 63.5559C56.4534 63.9271 56.8587 64.0679 57.2555 63.9313C57.4219 63.8759 57.6182 63.7948 57.7675 63.8375C58.544 64.0636 59.3077 64.3239 60.0928 64.5756C60.0544 64.8359 60.0374 65.0663 59.9777 65.2881C59.9478 65.3948 59.8283 65.5655 59.7643 65.5612C59.1585 65.51 58.527 65.7873 57.9382 65.3521C57.7803 65.2327 57.3493 65.3223 57.1573 65.4673C57.0251 65.5655 57.008 65.958 57.0891 66.1585C57.2128 66.4529 57.5755 66.6193 57.8358 66.4017C58.399 65.9324 59.0304 66.15 59.632 66.1159C59.7387 66.1116 59.9222 66.2567 59.9606 66.3676C60.2038 67.0972 60.4128 67.8396 60.6518 68.6417C60.464 68.7783 60.1953 68.9703 59.9265 69.1623C59.6491 69.3585 59.4102 69.5633 58.9963 69.5036C58.8256 69.478 58.5142 69.8108 58.4203 70.0412C58.3094 70.3228 58.4971 70.5916 58.8171 70.6769C59.1584 70.7665 59.4443 70.6769 59.6065 70.3313C59.679 70.1735 59.7045 69.9559 59.824 69.862C60.2165 69.542 60.6432 69.2647 60.9632 69.0385C61.279 69.2903 61.535 69.4951 61.7953 69.7041C61.4838 70.1265 61.2022 70.5105 60.912 70.8988C60.7328 71.1377 60.5707 71.3895 60.3702 71.6114C60.272 71.718 60.1099 71.7948 59.9648 71.8289C59.5083 71.9399 59.2353 72.2812 59.3377 72.6823C59.4358 73.0748 59.7131 73.2668 60.1099 73.2412C60.528 73.2156 60.7968 72.8359 60.7627 72.3964C60.7499 72.2599 60.7414 72.0892 60.8139 71.9911C61.2832 71.3298 61.7739 70.6855 62.2689 70.0199C62.6017 70.1905 62.9046 70.3484 63.2075 70.502C63.1478 70.6897 63.1094 70.8305 63.0539 70.9713C62.8619 71.462 62.8448 72.0295 62.2816 72.3452C62.1621 72.4135 62.1536 72.8785 62.2518 73.0876C62.3883 73.382 62.7083 73.446 63.024 73.2753C63.3312 73.1089 63.472 72.8145 63.3184 72.5287C63.1606 72.23 63.2374 71.9996 63.3355 71.7351C63.4251 71.4876 63.5062 71.2359 63.5787 70.9799C63.6512 70.7239 63.7963 70.6812 64.0566 70.6897C64.7136 70.7196 65.375 70.6983 66.032 70.6983C66.143 70.6983 66.2795 70.6855 66.3648 70.7367C66.5483 70.8561 66.8555 72.2215 66.7659 72.4476C66.6208 72.8103 66.7062 73.1004 67.056 73.2839C67.3974 73.4631 67.6875 73.3479 67.8667 73.0407C68.063 72.7036 67.9563 72.4135 67.6363 72.1831C67.4998 72.0849 67.3547 71.9569 67.2949 71.8076C67.1286 71.3937 67.0091 70.9628 66.8555 70.4935Z" fill="#151515"/>
<path d="M58.1899 49.4503V46.7964H62.9686C62.9686 45.8108 62.9856 44.8849 62.9472 43.9633C62.943 43.814 62.6955 43.6476 62.5291 43.5409C59.4827 41.6295 59.2054 37.0257 62.0086 34.7815C64.9355 32.4348 69.2662 34.1372 69.8891 37.9004C70.2944 40.3537 69.4752 42.2951 67.3547 43.6519C67.2352 43.7287 67.1072 43.8951 67.1072 44.0273C67.0859 44.9191 67.0944 45.8151 67.0944 46.7708H71.8689V49.4076H67.1115V52.6033C65.712 52.1383 64.3766 52.1255 62.9814 52.6033V49.4503H58.1899ZM67.8411 38.1436C67.568 36.8295 66.5056 35.8183 65.2854 35.6988C64.1334 35.5836 62.9899 36.2748 62.4736 37.4439C61.9019 38.7452 62.0129 40.0081 62.8619 41.1559C63.9073 42.5596 65.8273 42.6535 67.0219 41.3863C67.3689 41.0159 67.6012 40.6004 67.7486 40.1377C67.9653 39.4575 67.9783 38.8296 67.8411 38.1436Z" fill="#151515"/>
<path d="M76.4598 58.7985C79.8774 57.4289 82.0406 54.6385 83.9861 51.622C84.4512 50.8967 84.8736 50.1415 85.3472 49.4247C85.983 48.4604 86.9046 47.9271 88.0523 47.9015C90.7915 47.8417 93.5307 47.8289 96.2742 47.7863C97.3707 47.7692 98.463 47.7095 99.5595 47.6924C100.153 47.6839 100.221 47.7991 100.14 48.3708C99.8326 50.598 98.3392 51.6476 96.3382 52.0999C95.1478 52.3687 93.919 52.4668 92.703 52.6161C91.4528 52.7655 90.1941 52.8721 88.944 53.0215C88.2187 53.1068 87.775 53.5548 87.3355 54.1351C86.5078 55.2273 85.616 56.2855 84.6347 57.2412C82.9238 58.9095 80.9611 60.2279 78.7382 61.1537C78.3328 61.3244 78.175 61.2561 77.9446 60.8679C77.5179 60.1511 76.9717 59.5025 76.464 58.8028L76.4598 58.7985Z" fill="#151515"/>
<path d="M53.6246 58.8028C53.0144 59.6092 52.4085 60.4028 51.7216 61.3073C51.0475 60.9873 50.2368 60.6673 49.4816 60.2364C47.0197 58.8284 44.9035 57.0065 43.1413 54.7836C43.0176 54.63 42.8726 54.4764 42.8 54.2972C42.4246 53.3799 41.6779 53.0385 40.7648 52.9447C39.2971 52.7996 37.8293 52.6588 36.3573 52.5137C35.0517 52.3857 33.7589 52.2236 32.5301 51.7073C30.9984 51.0673 30.1451 49.9239 29.9147 48.2897C29.8549 47.8631 29.9957 47.6668 30.4437 47.6796C32.8843 47.7436 35.3248 47.8076 37.7611 47.8545C39.1563 47.8801 40.5515 47.8545 41.9467 47.8887C43.1755 47.9185 44.1397 48.4647 44.7883 49.5228C46.1536 51.7415 47.4891 53.9815 49.3408 55.8503C50.5654 57.0876 51.9264 58.1329 53.5734 58.7559C53.616 58.7729 53.6502 58.8156 53.6246 58.7943V58.8028Z" fill="#151515"/>
<path d="M9.11469 51.9591C9.49869 51.9292 9.80593 51.8993 10.1131 51.878C12.9931 51.6817 15.8731 51.5025 18.7531 51.2849C21.2321 51.1015 23.711 50.8839 26.1899 50.662C27.3291 50.5596 28.464 50.4273 29.6032 50.2908C29.9232 50.2524 30.1366 50.2993 30.3584 50.5937C30.9643 51.4044 31.6299 52.1724 32.2742 52.9575C32.2486 53.0087 32.2187 53.0556 32.1931 53.1068C31.3142 53.2092 30.4352 53.3159 29.5563 53.4055C27.3462 53.6359 25.136 53.8663 22.9259 54.0753C20.8779 54.2673 18.8299 54.438 16.7777 54.6087C15.8518 54.6855 14.9217 54.7111 14.0001 54.8177C13.0145 54.9329 12.1739 54.5959 11.359 54.1265C10.4544 53.6103 9.69496 52.9404 9.11896 51.9548L9.11469 51.9591Z" fill="#151515"/>
<path d="M97.7291 53.0897C98.3307 52.326 98.8939 51.686 99.3675 50.9905C99.7984 50.3591 100.298 50.2567 101.036 50.3505C103.374 50.6364 105.721 50.8412 108.063 51.0417C110.393 51.2423 112.726 51.4087 115.06 51.5708C116.831 51.6945 118.606 51.7884 120.377 51.8951C120.539 51.9036 120.701 51.9377 120.923 51.9633C120.829 52.1255 120.773 52.2577 120.688 52.3729C119.822 53.5804 118.619 54.3143 117.232 54.7751C117.019 54.8433 116.771 54.8391 116.541 54.822C113.699 54.6001 110.853 54.3825 108.012 54.1308C105.503 53.9089 102.994 53.6529 100.485 53.4055C99.6192 53.3201 98.7531 53.2049 97.7206 53.0855L97.7291 53.0897Z" fill="#151515"/>
<path d="M29.8806 49.8556C29.0187 49.9495 28.1995 50.0476 27.376 50.1244C24.9014 50.3548 22.4224 50.5852 19.9435 50.7943C18.1088 50.9521 16.2742 51.0887 14.4353 51.2124C12.7286 51.3276 11.0219 51.4087 9.31948 51.5196C8.93975 51.5452 8.67523 51.4471 8.43203 51.1271C7.83043 50.3335 7.17763 49.5825 6.5675 48.7975C6.34563 48.5159 6.17926 48.1916 5.95312 47.8289C6.09393 47.7991 6.16215 47.7735 6.23469 47.7735C9.49015 47.8247 12.7414 47.8759 15.9968 47.9356C17.8059 47.9697 19.6149 48.0252 21.424 48.0636C23.8816 48.1105 26.3392 48.1617 28.7926 48.1873C29.2448 48.1916 29.5478 48.2471 29.5777 48.8017C29.5947 49.1345 29.7611 49.4588 29.8763 49.8513L29.8806 49.8556Z" fill="#151515"/>
<path d="M100.221 49.8385C100.34 49.3393 100.409 48.8913 100.571 48.486C100.626 48.3409 100.916 48.2172 101.104 48.2087C102.815 48.1532 104.522 48.1191 106.233 48.0892C110.414 48.0081 114.6 47.9271 118.781 47.8631C120.522 47.8375 122.262 47.8588 124.054 47.8588C123.973 48.0124 123.905 48.2129 123.781 48.3708C123.009 49.3649 122.228 50.3548 121.43 51.3319C121.337 51.4471 121.119 51.5196 120.961 51.5111C119.054 51.4129 117.151 51.3148 115.248 51.1825C113.328 51.0503 111.412 50.8881 109.492 50.726C107.393 50.5468 105.298 50.3548 103.203 50.1628C102.41 50.0903 101.62 50.0092 100.827 49.9281C100.63 49.9068 100.438 49.8727 100.217 49.8428L100.221 49.8385Z" fill="#151515"/>
<path d="M54.8107 69.9559C54.3797 71.1249 54.1707 72.3068 54.5632 73.4759C54.8235 74.2481 55.2416 74.9692 55.6342 75.6903C55.7579 75.9121 55.792 76.0401 55.6513 76.2535C54.5504 77.9132 53.4667 79.5815 52.3659 81.2369C52.2848 81.3607 52.0672 81.5057 51.9478 81.4801C50.2923 81.1047 48.6539 80.6695 47.344 79.5004C46.9984 79.1932 46.6657 78.8604 46.3755 78.502C45.7739 77.7553 45.8251 77.9644 46.3158 77.2604C47.4678 75.6049 48.8289 74.1329 50.3265 72.7847C51.5041 71.7266 52.7627 70.7879 54.2177 70.1351C54.3542 70.0753 54.495 70.0241 54.6358 69.9729C54.6784 69.9601 54.7253 69.9644 54.8107 69.9559Z" fill="#151515"/>
<path d="M13.5691 55.2871C15.0155 55.1719 16.4022 55.078 17.7889 54.9543C19.8198 54.7751 21.8507 54.5873 23.8816 54.3911C25.6651 54.2204 27.4443 54.0412 29.2278 53.862C30.2518 53.7596 31.2715 53.6401 32.2955 53.5463C32.4406 53.5335 32.6368 53.5761 32.7307 53.67C33.072 54.0071 33.3792 54.374 33.7718 54.8135C33.1574 55.0183 32.607 55.2273 32.048 55.3809C27.4955 56.6396 22.8832 57.6252 18.2411 58.4871C17.328 58.6577 16.543 58.4401 15.8048 57.9281C14.9856 57.3607 14.32 56.6567 13.8251 55.7905C13.7398 55.6369 13.6715 55.4748 13.5777 55.2828L13.5691 55.2871Z" fill="#151515"/>
<path d="M96.304 54.8177C96.6965 54.3783 97.008 54.0113 97.3451 53.67C97.4304 53.5804 97.6054 53.5292 97.7334 53.542C99.5979 53.7255 101.458 53.9345 103.323 54.1223C105.187 54.31 107.052 54.4935 108.916 54.6599C111.425 54.8817 113.934 55.0865 116.473 55.3041C116.443 55.398 116.426 55.4961 116.379 55.5772C115.76 56.7335 114.885 57.6295 113.725 58.2609C112.978 58.6705 112.227 58.5468 111.455 58.406C106.975 57.5825 102.529 56.6183 98.1387 55.4023C97.5499 55.2401 96.9739 55.0311 96.3083 54.8177H96.304Z" fill="#151515"/>
<path d="M111.933 58.9607C110.973 60.0785 109.859 60.8636 108.383 61.0897C107.171 61.2732 106.019 61.1239 104.872 60.7015C101.565 59.4812 98.2496 58.2908 94.9344 57.0833C94.6272 56.9724 94.3285 56.8273 94.0128 56.6951C94.2475 56.2641 94.5078 55.9228 95.0027 55.8332C95.1734 55.8033 95.3739 55.7095 95.4763 55.5772C95.8475 55.0993 96.24 55.2487 96.7349 55.3767C99.9648 56.2215 103.203 57.0535 106.454 57.8257C108.191 58.2396 109.962 58.5169 111.715 58.8625C111.779 58.8753 111.835 58.9137 111.933 58.9607Z" fill="#151515"/>
<path d="M18.1302 58.9265C19.2054 58.726 20.2294 58.5511 21.2448 58.3377C25.2427 57.5015 29.2491 56.6823 33.1573 55.462C33.2213 55.4407 33.2896 55.4321 33.3451 55.4023C33.8102 55.1335 34.2241 55.1249 34.5953 55.59C34.6977 55.7223 34.8982 55.8119 35.0689 55.846C35.5638 55.9356 35.8198 56.2769 36.0715 56.7292C34.7232 57.2455 33.4048 57.7788 32.0694 58.2609C29.5947 59.1569 27.1115 60.0359 24.6283 60.8977C22.3115 61.7041 19.7302 60.9319 18.1344 58.9308L18.1302 58.9265Z" fill="#151515"/>
<path d="M37.8891 58.2695C36.7499 58.9777 35.632 59.686 34.5056 60.3687C33.7846 60.8081 33.0251 61.1879 32.3083 61.6316C30.9643 62.4679 29.5051 62.5831 27.999 62.3441C27.184 62.2119 26.3861 61.9943 25.5883 61.7852C25.2939 61.7084 25.0209 61.542 24.6155 61.3585C24.9057 61.2476 25.0635 61.1879 25.2256 61.1281C28.8438 59.8012 32.4577 58.47 36.0801 57.1473C36.2251 57.0961 36.4555 57.0833 36.5622 57.1644C37.0102 57.4972 37.4283 57.8727 37.8891 58.2609V58.2695Z" fill="#151515"/>
<path d="M92.1398 58.3036C92.6475 57.8769 93.0699 57.5057 93.5136 57.1644C93.6032 57.0961 93.7952 57.0791 93.9104 57.1217C97.6864 58.4956 101.462 59.8823 105.238 61.2647C105.268 61.2732 105.285 61.3073 105.349 61.3671C104.692 61.8364 103.941 62.054 103.195 62.1521C102.068 62.2972 100.925 62.3996 99.7942 62.3527C99.184 62.3271 98.5398 62.0369 97.9936 61.7297C96.048 60.6332 94.1323 59.4769 92.1483 58.3079L92.1398 58.3036Z" fill="#151515"/>
<path d="M49.2683 46.5276C49.712 46.1137 50.1174 45.7383 50.6465 45.2476C50.6934 45.3329 50.7659 45.5079 50.8811 45.6359C53.7184 48.8145 56.5643 51.9889 59.4144 55.1548C59.6235 55.3852 59.6534 55.5729 59.5339 55.8588C59.3504 56.294 59.231 56.7591 59.0603 57.2753C55.7664 53.6615 52.4939 50.0647 49.2683 46.5233V46.5276Z" fill="#151515"/>
<path d="M89.9936 60.198C90.1729 59.8354 90.3179 59.5367 90.4587 59.2423C90.5568 59.0332 90.6294 58.662 90.7531 58.6407C91.1585 58.5767 91.6448 58.5255 91.9947 58.6876C92.7414 59.0375 93.407 59.5495 94.1237 59.9633C95.5872 60.8039 97.0593 61.6316 98.5355 62.4508C98.8214 62.6087 99.1456 62.6983 99.5937 62.8775C99.2694 63.1207 99.0475 63.3681 98.7702 63.4833C97.4987 63.9996 96.1846 63.9612 94.8619 63.7095C94.751 63.6881 94.64 63.6327 94.5504 63.5644C93.0272 62.4465 91.5126 61.3244 89.9894 60.2023L89.9936 60.198Z" fill="#151515"/>
<path d="M30.6016 62.8305C33.1957 61.8748 35.4059 60.2407 37.7526 58.854C37.9872 58.7132 38.256 58.5596 38.5163 58.5383C39.2758 58.4828 39.3696 58.5767 39.6427 59.3233C39.6982 59.4769 39.7792 59.622 39.856 59.7713C39.9243 59.8993 40.0011 60.0273 40.0992 60.1895C38.5547 61.3287 37.0315 62.4721 35.4784 63.5729C35.2182 63.7564 34.8257 63.782 34.4843 63.8204C33.4859 63.9399 32.4918 63.9185 31.5403 63.5772C31.1862 63.4492 30.879 63.1975 30.5504 63.0012C30.5675 62.9457 30.5846 62.8903 30.6059 62.8348L30.6016 62.8305Z" fill="#151515"/>
<path d="M42.4843 54.7665C41.4817 55.0012 40.4918 55.27 39.4891 55.4535C38.2688 55.6753 37.0315 55.8289 35.7856 55.6071C35.2651 55.5132 34.8086 55.3169 34.4544 54.9073C33.7419 54.0796 33.0165 53.2604 32.304 52.4327C32.2016 52.3132 32.1334 52.1681 31.9798 51.9292C33.8657 52.8209 35.7857 52.8849 37.6801 53.0684C38.7169 53.1665 39.7536 53.2604 40.7861 53.3756C41.5797 53.4652 42.207 53.798 42.4758 54.7665H42.4843Z" fill="#151515"/>
<path d="M98.015 52.1169C97.6565 52.5692 97.2726 53.0812 96.863 53.5633C96.5302 53.9559 96.1377 54.2972 95.8219 54.6983C95.2758 55.4023 94.5249 55.654 93.6886 55.6881C91.6449 55.7735 89.6736 55.3639 87.7366 54.758C87.6896 54.7452 87.6555 54.7025 87.6128 54.6727C87.839 53.8108 88.4662 53.4567 89.2811 53.3756C91.056 53.1921 92.8395 53.0812 94.6059 52.8465C95.7494 52.6929 96.8715 52.3687 98.0107 52.1169H98.015Z" fill="#151515"/>
<path d="M40.3723 60.4924C41.1062 61.1495 41.8528 61.6871 42.864 61.6487C42.8811 61.6913 42.9024 61.7297 42.9195 61.7724C41.6309 62.7751 40.3979 63.8631 39.024 64.7335C38.4352 65.1089 37.5606 65.1175 36.8139 65.1303C36.1824 65.1388 35.9009 64.5585 35.6619 64.0039C37.2321 62.8305 38.7936 61.6657 40.368 60.4881L40.3723 60.4924Z" fill="#151515"/>
<path d="M94.3926 63.974C94.0043 65.0108 93.4582 65.3095 92.4342 65.1431C91.4955 64.9895 90.6678 64.6481 89.9425 64.0124C89.0464 63.2273 88.1035 62.4977 87.0795 61.6572C88.1248 61.67 88.8416 61.2391 89.5115 60.6716C89.6054 60.5948 89.9083 60.6545 90.0448 60.7527C91.3206 61.6828 92.575 62.63 93.8422 63.5729C94.0257 63.7095 94.2134 63.8417 94.3968 63.9697L94.3926 63.974Z" fill="#151515"/>
<path d="M83.7728 58.6065C84.272 58.1543 84.6945 57.7532 85.1424 57.3905C85.2449 57.3052 85.488 57.2924 85.6118 57.3521C86.9302 57.9964 88.2998 58.4487 89.7718 58.5511C90.079 58.5724 90.1686 58.7132 90.096 59.0076C89.631 60.9873 87.1264 61.8791 85.5947 60.5649C84.9334 59.9975 84.3957 59.2892 83.7728 58.6108V58.6065Z" fill="#151515"/>
<path d="M46.303 58.6151C45.6587 59.302 45.087 60.0529 44.383 60.6332C42.8811 61.8705 40.3766 60.9063 39.967 58.9905C39.8987 58.6791 40.0267 58.5681 40.3168 58.5468C41.7718 58.4444 43.1286 58.0007 44.4299 57.3607C44.5622 57.2967 44.8054 57.2881 44.9035 57.3692C45.3643 57.7447 45.7953 58.1585 46.303 58.6151Z" fill="#151515"/>
<path d="M93.7782 56.1532C92.959 57.5825 91.3888 58.342 89.8699 58.1543C88.6283 58.0007 87.4294 57.702 86.2902 57.19C86.0982 57.1047 85.9105 56.998 85.6886 56.8871C86.1963 56.3068 86.6656 55.7521 87.1606 55.2188C87.2288 55.142 87.4251 55.1207 87.536 55.1548C89.5499 55.782 91.6022 56.1788 93.7782 56.1489V56.1532Z" fill="#151515"/>
<path d="M44.383 56.8828C43.2011 57.5313 41.9766 57.8983 40.688 58.0945C40.4918 58.1244 40.2912 58.1415 40.0949 58.1671C38.6741 58.3463 37.0315 57.4929 36.3318 56.2172C37.2064 56.1319 38.0982 56.1063 38.9686 55.9527C40.1334 55.7436 41.2853 55.4492 42.4373 55.1719C42.6891 55.1121 42.8427 55.1079 43.0261 55.334C43.4357 55.8503 43.8923 56.3324 44.383 56.8871V56.8828Z" fill="#151515"/>
<path d="M81.3408 81.7489C80.7136 81.062 80.0566 80.3409 79.3953 79.6199C78.0555 78.1479 76.72 76.6716 75.3675 75.2081C75.1243 74.9479 75.0262 74.7388 75.2139 74.3932C75.3846 74.0775 75.4656 73.7148 75.6192 73.2753C77.8806 75.8012 80.1163 78.2972 82.3947 80.8401C82.0448 81.1388 81.712 81.4247 81.3366 81.7489H81.3408Z" fill="#151515"/>
<path d="M42.0448 66.5809C43.4827 65.5612 44.8097 64.6183 46.1665 63.6583C46.6657 64.2727 47.3483 64.7847 48.4747 64.7292C47.7963 65.6039 47.2459 66.4273 46.5675 67.1356C46.3371 67.3788 45.7952 67.3916 45.3942 67.3916C44.6432 67.3916 43.8752 67.3703 43.1414 67.2337C42.7616 67.1612 42.4331 66.8241 42.0448 66.5852V66.5809Z" fill="#151515"/>
<path d="M87.9542 66.5212C87.4592 67.1868 86.7424 67.4215 85.9702 67.4428C85.3131 67.4599 84.6432 67.4044 83.9904 67.3105C83.7301 67.2721 83.4315 67.0972 83.2608 66.8924C82.7147 66.2311 82.2155 65.5271 81.631 64.7505C82.6977 64.7804 83.4102 64.2983 83.9051 63.6625C85.2662 64.6268 86.5931 65.5655 87.9499 66.5255L87.9542 66.5212Z" fill="#151515"/>
<path d="M43.3078 61.9601C43.8155 62.7281 44.3019 63.526 45.4795 63.5473C45.2661 63.7479 45.1254 63.9185 44.9504 64.038C43.9094 64.7463 42.8768 65.4673 41.8059 66.1287C41.2939 66.4444 40.7009 66.3463 40.1931 66.0561C39.8305 65.8513 39.5318 65.5356 39.2032 65.2668C40.6112 64.1319 41.9467 63.0524 43.3035 61.9559L43.3078 61.9601Z" fill="#151515"/>
<path d="M90.8171 65.2284C90.2838 65.9495 89.6182 66.3761 88.6923 66.2695C88.5814 66.2567 88.4491 66.2481 88.3638 66.1884C87.1691 65.382 85.9787 64.5713 84.7926 63.7564C84.7414 63.7223 84.7115 63.6583 84.6304 63.5559C85.744 63.526 86.2646 62.758 86.768 61.9516C88.1248 63.0481 89.4603 64.1233 90.8256 65.2284H90.8171Z" fill="#151515"/>
<path d="M77.2065 67.2252C77.4497 66.7388 77.7525 66.4572 78.384 66.4743C79.3909 66.4956 80.0694 65.8044 80.7179 65.126C80.8417 64.998 80.9483 64.8572 81.0977 64.678C81.4731 65.2071 81.8187 65.7063 82.1814 66.1927C82.5483 66.6833 82.9323 67.1569 83.3078 67.6391C82.1856 68.7911 78.7381 68.5564 77.2107 67.2252H77.2065Z" fill="#151515"/>
<path d="M52.8651 67.2295C51.231 68.5777 47.7451 68.7655 46.7766 67.6604C47.5062 66.6876 48.2315 65.7105 48.9568 64.742C49.3878 65.1388 49.7846 65.5953 50.2667 65.9153C50.6763 66.1884 51.1883 66.4487 51.6577 66.4572C52.2721 66.47 52.6048 66.7089 52.8651 67.2295Z" fill="#151515"/>
<path d="M43.5936 61.5719C44.9974 61.0556 45.7099 59.8737 46.6187 58.8455C47.0966 59.1868 47.5617 59.5153 48.1419 59.9335C47.6171 60.7783 47.1648 61.6828 46.5504 62.4551C45.7782 63.4279 44.8139 63.3383 44.0715 62.3399C43.9051 62.118 43.7771 61.8663 43.5936 61.5719Z" fill="#151515"/>
<path d="M86.4182 61.5505C86.4054 61.6188 86.4096 61.6572 86.3968 61.6828C86.047 62.3313 85.6971 63.014 84.8566 63.0951C83.9819 63.1804 83.4998 62.5617 83.0944 61.9217C82.6891 61.2817 82.352 60.5948 81.9766 59.9121C82.4886 59.5409 82.9537 59.2039 83.4486 58.8455C84.3574 59.8524 85.0699 61.0684 86.4182 61.5505Z" fill="#151515"/>
<path d="M77.4795 50.8284C75.2822 53.0471 73.1275 55.2188 70.9771 57.3905C70.9856 57.3991 70.9686 57.3905 70.9643 57.382C70.6145 56.5628 70.9387 56.0209 71.5659 55.4407C73.2299 53.8919 74.8128 52.262 76.4256 50.662C76.5792 50.5127 76.703 50.3335 76.8822 50.1159C77.1425 50.4273 77.3387 50.662 77.4795 50.8327V50.8284Z" fill="#151515"/>
<path d="M83.6832 63.3767C83.3163 63.6412 82.9536 63.9911 82.5184 64.1873C81.7675 64.5329 81.1446 64.2257 80.8758 63.4236C80.6113 62.6428 80.3851 61.8535 80.1248 61.0129C80.607 60.7313 81.1019 60.4455 81.6182 60.1468C81.9168 60.71 82.1685 61.2689 82.4928 61.7809C82.8171 62.2929 83.2139 62.758 83.679 63.3724L83.6832 63.3767Z" fill="#151515"/>
<path d="M46.4949 63.3767C47.1989 62.2716 47.8517 61.2476 48.5216 60.1937C48.9483 60.4369 49.4347 60.7143 49.9467 61.0087C49.6737 61.8791 49.439 62.7495 49.1275 63.5943C48.8971 64.2172 48.3083 64.4561 47.6513 64.2428C47.1179 64.0679 46.6955 63.7351 46.4949 63.3724V63.3767Z" fill="#151515"/>
<path d="M79.7153 61.1921C79.9414 61.8961 80.1462 62.5404 80.351 63.1847C80.3979 63.3255 80.4235 63.4748 80.4747 63.6156C80.5643 63.8588 80.8032 64.1447 80.7349 64.3196C80.6112 64.6439 80.3425 64.9297 80.0822 65.1772C79.5233 65.702 78.9302 66.1969 77.9958 66.0263C78.6187 64.6439 78.7766 63.2273 78.3371 61.7639C78.7979 61.5761 79.2203 61.3969 79.7153 61.1921Z" fill="#151515"/>
<path d="M50.3478 61.1921C50.8299 61.3884 51.2523 61.5591 51.7302 61.7511C51.312 63.2017 51.4358 64.6183 52.0715 65.9964C52.0459 66.0391 52.0203 66.0775 51.9947 66.1201C51.6235 66.0305 51.2267 66.0007 50.8939 65.8343C50.5312 65.6551 50.2112 65.3649 49.904 65.0919C49.4603 64.6951 49.1702 64.3281 49.5584 63.6241C49.9552 62.9031 50.0875 62.0369 50.352 61.1921H50.3478Z" fill="#151515"/>
<path d="M83.5553 43.8609C83.7558 44.0529 83.9222 44.2108 84.0459 44.3303C82.3222 46.0711 80.6368 47.7735 78.9302 49.4972C78.751 49.2839 78.5504 49.0492 78.3542 48.8188C79.0838 48.0764 79.7878 47.3553 80.5003 46.6385C81.055 46.0796 81.0593 46.0839 80.6198 45.4353C80.7435 45.2988 80.8715 45.1537 81.0806 44.9191C81.2512 45.1793 81.4006 45.414 81.567 45.6743C82.2838 45.0215 82.8939 44.4625 83.5553 43.8609Z" fill="#151515"/>
<path d="M77.936 51.3959C77.9574 51.4257 78.0512 51.5367 78.1749 51.6817C77.2747 52.6247 76.3873 53.5591 75.4955 54.4935C74.6721 55.3596 73.8102 56.1959 73.0336 57.1004C72.6112 57.5911 72.1206 57.6978 71.6513 57.6978C73.7121 55.6327 75.8198 53.5164 77.936 51.3959Z" fill="#151515"/>
<path d="M48.0353 43.4129C48.6753 43.4129 49.7547 44.1084 50.0022 44.6844C50.1643 45.0599 49.9425 45.5079 49.4603 45.8321C49.0934 46.0796 48.7777 46.0369 48.5046 45.7084C48.0523 45.1708 47.6683 44.6033 47.6128 43.8737C47.5872 43.5665 47.7195 43.4044 48.0395 43.4129H48.0353Z" fill="#151515"/>
<path d="M79.4763 50.8113C79.2118 51.0929 78.9729 51.3447 78.6913 51.6433C78.0854 50.9095 77.4966 50.1969 76.9078 49.4801C77.1723 49.2199 77.4112 48.9809 77.6971 48.7036C78.2902 49.4076 78.8832 50.1116 79.472 50.8113H79.4763Z" fill="#151515"/>
<path d="M79.4038 50.1799C79.4166 50.0135 79.3611 49.7831 79.4507 49.6892C80.24 48.8615 81.0507 48.0551 81.8571 47.2444C81.9126 47.2572 81.9638 47.27 82.0192 47.2828C82.0022 47.4236 82.0406 47.6156 81.9595 47.7009C81.183 48.5415 80.3894 49.3649 79.6001 50.1927L79.4038 50.1799Z" fill="#151515"/>
<path d="M65.0464 70.3783C62.4651 70.3825 60.3829 68.3815 60.3787 65.8897C60.3701 63.3511 62.4352 61.3287 65.0294 61.3287C67.6107 61.3287 69.6885 63.3297 69.6971 65.8215C69.7056 68.3601 67.6491 70.374 65.0464 70.3825V70.3783ZM67.6491 65.8385C67.6448 64.4604 66.4629 63.3041 65.0507 63.2956C63.6256 63.2828 62.4224 64.4647 62.4267 65.8641C62.431 67.2636 63.6341 68.4156 65.0763 68.3985C66.4885 68.3815 67.6576 67.2209 67.6534 65.8385H67.6491Z" fill="#151515"/>
<path d="M67.5467 38.9628C67.5595 39.6668 67.3718 40.3068 66.9537 40.8743C65.9809 42.2055 64.1846 42.2396 63.1649 40.9468C62.3243 39.8844 62.2987 38.1692 63.1094 37.0855C64.1505 35.6945 66.079 35.7201 67.0091 37.1879C67.3716 37.7603 67.5371 38.2969 67.551 38.9628H67.5467Z" fill="#151515"/>
<path d="M65.0379 67.9676C63.8134 67.9676 62.8662 67.0546 62.8619 65.8641C62.8619 64.6567 63.8262 63.7137 65.0592 63.7223C66.2624 63.7308 67.2139 64.6737 67.2096 65.8599C67.2096 67.046 66.2625 67.9633 65.0379 67.9633V67.9676Z" fill="#151515"/>
</svg>
