<svg width="18" height="19" viewBox="0 0 18 19" fill="none" xmlns="http://www.w3.org/2000/svg">
<path d="M9.64258 18.4297H8.35742V15.8584H9.64258V18.4297ZM4.95508 14.3848L3.02637 16.3135L2.11621 15.4033L4.04492 13.4746L4.95508 14.3848ZM15.8838 15.4033L14.9736 16.3135L13.0449 14.3848L13.9551 13.4746L15.8838 15.4033ZM9 4.92969C10.1935 4.92969 11.3377 5.40413 12.1816 6.24805C13.0256 7.09196 13.5 8.23621 13.5 9.42969C13.5 10.6232 13.0256 11.7674 12.1816 12.6113C11.3377 13.4552 10.1935 13.9297 9 13.9297C7.80653 13.9297 6.66227 13.4552 5.81836 12.6113C4.97445 11.7674 4.5 10.6232 4.5 9.42969C4.5 8.23621 4.97445 7.09196 5.81836 6.24805C6.66227 5.40413 7.80653 4.92969 9 4.92969ZM2.57129 10.0723H0V8.78711H2.57129V10.0723ZM18 10.0723H15.4287V8.78711H18V10.0723ZM4.95508 4.47461L4.04492 5.38477L2.11621 3.45605L3.02637 2.5459L4.95508 4.47461ZM15.8838 3.45605L13.9551 5.38477L13.0449 4.47461L14.9736 2.5459L15.8838 3.45605ZM9.64258 3.00098H8.35742V0.429688H9.64258V3.00098Z" fill="white"/>
</svg>
