<svg width="24" height="25" viewBox="0 0 24 25" fill="none" xmlns="http://www.w3.org/2000/svg">
<path d="M5.67784 3.97654C5.93056 3.75205 6.301 3.74372 6.56163 3.93846L6.66612 4.03514L13.5235 11.749C13.7592 12.0142 13.7592 12.4145 13.5235 12.6797L6.66612 20.3935L6.56163 20.4892C6.301 20.6843 5.93068 20.6767 5.67784 20.4521C5.425 20.2274 5.37309 19.8599 5.53624 19.5781L5.62022 19.4638L12.0636 12.2138L5.62022 4.96482C5.36338 4.67588 5.38889 4.23338 5.67784 3.97654ZM12.6778 3.97654C12.9306 3.75205 13.301 3.74372 13.5616 3.93846L13.6661 4.03514L20.5235 11.749C20.7592 12.0142 20.7592 12.4145 20.5235 12.6797L13.6661 20.3935L13.5616 20.4892C13.301 20.6843 12.9307 20.6767 12.6778 20.4521C12.425 20.2274 12.3731 19.8599 12.5362 19.5781L12.6202 19.4638L19.0636 12.2138L12.6202 4.96482C12.3634 4.67588 12.3889 4.23338 12.6778 3.97654Z" fill="#C7C6C6"/>
</svg>
