<svg width="11" height="11" viewBox="0 0 11 11" fill="none" xmlns="http://www.w3.org/2000/svg">
<path d="M10.2283 1.04C10.4236 1.23526 10.4236 1.55177 10.2283 1.74703L6.20684 5.76852L10.2283 9.79L10.2928 9.86813C10.4209 10.0622 10.3992 10.3262 10.2283 10.497C10.0575 10.6678 9.79347 10.6896 9.59941 10.5615L9.52129 10.497L5.4998 6.47555L1.47832 10.497C1.28305 10.6922 0.96653 10.6923 0.771289 10.497C0.576048 10.3018 0.576089 9.98527 0.771289 9.79L4.79277 5.76852L0.771289 1.74703C0.576048 1.55179 0.576089 1.23527 0.771289 1.04C0.966551 0.844739 1.28306 0.844739 1.47832 1.04L5.4998 5.06149L9.52129 1.04C9.71655 0.844749 10.0331 0.844749 10.2283 1.04Z" fill="white"/>
</svg>
