<svg width="80" height="80" viewBox="0 0 80 80" fill="none" xmlns="http://www.w3.org/2000/svg">
<path d="M41.0262 2.0151C41.8911 2.17072 42.7533 2.34743 43.5525 2.73515C46.4311 4.13306 48.1293 6.41456 48.4842 9.61129C48.7865 12.357 47.8822 14.7176 45.9027 16.6272C44.4752 18.0067 42.7455 18.7584 40.7607 18.9245C36.7806 19.2595 32.9845 16.6773 31.9356 12.6841C31.1706 9.77482 31.7989 7.14253 33.7522 4.86367C35.1323 3.25212 36.9147 2.34216 39.0125 2.05467C39.0598 2.04939 39.1045 2.02829 39.1518 2.0151C39.7775 2.0151 40.4032 2.0151 41.0288 2.0151H41.0262ZM42.8454 10.4606C42.8427 8.90442 41.6124 7.67531 40.0667 7.68059C38.5393 7.6885 37.3274 8.91761 37.3248 10.4632C37.3248 12.0352 38.5262 13.2459 40.0877 13.2459C41.6519 13.2459 42.848 12.0379 42.8427 10.4606H42.8454ZM37.4142 5.72615C37.3984 5.7367 37.38 5.74989 37.3642 5.76044C37.5509 6.45676 37.7349 7.15308 37.9189 7.8494C37.9557 7.98655 38.0267 7.99974 38.1292 7.92061C38.3684 7.73334 38.6313 7.583 38.9152 7.47486C39.0309 7.43002 39.0388 7.36936 38.952 7.28232C38.4394 6.76536 37.9268 6.24575 37.4142 5.72615ZM44.7802 7.80984C44.7644 7.7861 44.7486 7.76499 44.7302 7.74126C44.0546 7.92061 43.379 8.09997 42.7034 8.27932C42.5746 8.31361 42.5115 8.37164 42.6193 8.50088C42.8059 8.72771 42.9452 8.98619 43.0583 9.25786C43.1082 9.37655 43.1661 9.41084 43.2686 9.30797C43.7707 8.80683 44.2754 8.3057 44.7802 7.8072V7.80984ZM42.7533 5.84485C42.7087 5.8554 42.6718 5.85276 42.6561 5.86858C42.175 6.34334 41.6965 6.8181 41.2181 7.29287C41.1156 7.39309 41.1734 7.44058 41.2733 7.48014C41.5125 7.57245 41.7307 7.69906 41.941 7.84413C42.2092 8.03139 42.2144 8.02875 42.2959 7.72543C42.4142 7.27968 42.5378 6.83657 42.6508 6.39082C42.6955 6.21674 42.777 6.0453 42.756 5.84485H42.7533ZM35.4399 7.73862C35.4267 7.76499 35.411 7.79137 35.3978 7.81775C35.8973 8.31097 36.3994 8.80419 36.8963 9.29742C36.9935 9.39501 37.0593 9.38446 37.1118 9.25786C37.2301 8.97564 37.3826 8.71452 37.5666 8.47186C37.6481 8.36636 37.5982 8.31361 37.493 8.28459C36.8095 8.09996 36.1234 7.91798 35.4373 7.73598L35.4399 7.73862ZM42.7586 15.1897C42.7744 15.1766 42.7901 15.166 42.8085 15.1528C42.6298 14.475 42.4484 13.7971 42.2723 13.1193C42.2355 12.9742 42.1908 12.9082 42.0436 13.0269C41.8148 13.2116 41.5572 13.3487 41.2838 13.4569C41.1655 13.5043 41.1287 13.5518 41.2365 13.66C41.7465 14.1664 42.2512 14.6781 42.7586 15.1897ZM37.3721 15.1502C37.3879 15.1634 37.401 15.1766 37.4168 15.1924C37.9242 14.6807 38.4315 14.1664 38.9415 13.66C39.0546 13.5465 39.002 13.4991 38.8889 13.4569C38.6313 13.3593 38.3895 13.23 38.1765 13.0559C37.9951 12.9082 37.9373 12.9795 37.89 13.1667C37.7217 13.8288 37.5456 14.4908 37.3721 15.1528V15.1502ZM40.0456 15.8359C40.0745 15.8359 40.1035 15.8359 40.1324 15.8359C40.3138 15.1555 40.4925 14.4776 40.6739 13.7997C40.7081 13.6679 40.6582 13.6494 40.5399 13.6626C40.2375 13.6969 39.9352 13.6969 39.6329 13.6626C39.5172 13.6494 39.4647 13.6679 39.4988 13.7997C39.6828 14.4776 39.8616 15.1581 40.043 15.8359H40.0456ZM40.1271 5.08787H40.0483C39.8669 5.76836 39.6881 6.44621 39.5041 7.12143C39.4673 7.26386 39.5251 7.30342 39.6539 7.27968C39.9352 7.22693 40.2139 7.22957 40.4952 7.27968C40.6187 7.30342 40.716 7.28496 40.6687 7.11615C40.4873 6.4383 40.3059 5.76308 40.1245 5.08523L40.1271 5.08787ZM45.49 10.4975C45.4873 10.4791 45.4821 10.4606 45.4795 10.4395C44.8144 10.2601 44.1466 10.0834 43.4815 9.89878C43.3238 9.85394 43.2528 9.90142 43.2712 10.0623C43.3028 10.3261 43.3107 10.5846 43.2712 10.8483C43.2476 11.0145 43.3238 11.0857 43.4947 11.0382C44.1571 10.8562 44.8222 10.6769 45.4873 10.4975H45.49ZM34.6013 10.4685C35.3584 10.6742 36.0314 10.8615 36.707 11.0435C36.8752 11.0883 36.9199 10.9881 36.9042 10.8483C36.8726 10.5951 36.8674 10.3419 36.9042 10.0887C36.9304 9.91725 36.8621 9.85922 36.686 9.9067C36.0209 10.0913 35.3531 10.2654 34.6013 10.4685ZM35.4451 13.1219C35.4583 13.1456 35.4741 13.1694 35.4872 13.1931C36.1681 13.0085 36.8516 12.8265 37.5325 12.6366C37.677 12.597 37.5929 12.5047 37.543 12.4335C37.3826 12.2119 37.2301 11.9851 37.1329 11.724C37.0724 11.5657 36.9909 11.5578 36.8779 11.6739C36.6386 11.9192 36.3968 12.1592 36.1549 12.4018C35.9183 12.6419 35.6817 12.8819 35.4451 13.1193V13.1219ZM44.6803 13.1878L44.7302 13.1087C44.2413 12.6208 43.7523 12.1328 43.2633 11.6475C43.1792 11.5631 43.103 11.5789 43.0609 11.6871C42.9505 11.9719 42.7901 12.2278 42.6061 12.4704C42.543 12.5548 42.5509 12.6155 42.6561 12.6445C43.3317 12.8265 44.0047 13.0058 44.6803 13.1878Z" fill="#001F66"/>
<path d="M40.8685 20.631C41.5704 20.6126 42.2696 20.6838 42.9637 20.784C46.5599 21.3063 49.8144 22.6646 52.6667 24.925C56.865 28.251 59.4833 32.566 60.3062 37.8702C61.2709 44.0843 59.712 49.6706 55.661 54.4816C52.5143 58.219 48.4816 60.4978 43.6813 61.3893C42.3143 61.6425 40.9289 61.7876 39.5409 61.6847C36.1549 61.4342 33.4656 59.9123 31.5492 57.0875C30.4819 55.5128 29.943 53.7536 29.851 51.844C29.617 46.8827 33.0398 42.3672 38.0425 41.3307C38.7023 41.1935 39.3726 41.1276 40.0509 41.1223C45.2061 41.0985 49.4359 37.4165 50.1982 32.297C50.8528 27.9002 48.3975 23.3978 44.3569 21.5779C43.8023 21.3274 43.237 21.119 42.6482 20.966C42.062 20.8157 41.4652 20.7234 40.8658 20.631H40.8685ZM36.9252 51.4035C36.9226 53.1707 38.3211 54.5897 40.0719 54.6029C41.8175 54.6134 43.237 53.1971 43.2476 51.4325C43.2581 49.6627 41.8622 48.2358 40.114 48.2305C38.3316 48.2253 36.9252 49.6232 36.9226 51.4061L36.9252 51.4035Z" fill="#001F66"/>
<path d="M8.06044 62.3441C8.64404 62.2149 9.20662 62.1621 9.76919 62.1041C10.8102 61.996 11.8539 61.9564 12.9001 61.9722C15.1005 62.0039 17.2246 62.4259 19.304 63.1328C20.416 63.5099 21.5044 63.9425 22.5875 64.3962C23.4287 64.7496 24.3146 64.958 25.19 65.198C26.5202 65.5593 27.8714 65.8363 29.2227 66.1079C29.433 66.1501 29.5539 66.1106 29.6328 65.9075C29.6959 65.744 29.7879 65.591 29.8746 65.438C30.0113 65.1927 29.9903 65.1479 29.7064 65.1109C28.8914 65.0028 28.0844 64.8551 27.2905 64.6441C25.1716 64.0796 23.1895 63.2304 21.4886 61.8034C19.4854 60.1207 18.334 57.9737 18.0343 55.3678C17.9212 54.3813 17.9528 53.3922 18.0395 52.4032C18.0448 52.3451 18.0395 52.2845 18.1 52.2423C18.1999 52.2554 18.1973 52.3504 18.2236 52.4137C18.9675 54.26 20.0427 55.9032 21.2914 57.4356C23.0974 59.6538 25.2426 61.4737 27.7137 62.9033C28.6049 63.4176 29.5276 63.8634 30.4819 64.2485C30.6475 64.3144 30.7763 64.3276 30.9367 64.201C32.7348 62.7899 35.0193 62.8057 36.7964 64.2458C36.9646 64.383 37.0514 64.3012 37.1697 64.2089C37.982 63.5601 38.9073 63.1934 39.9484 63.1644C41.0525 63.1328 42.0488 63.4651 42.9216 64.1482C43.1135 64.2986 43.2371 64.3091 43.4447 64.1482C45.1824 62.8004 47.5378 62.8374 49.2151 64.23C49.3465 64.3408 49.4543 64.3592 49.6094 64.2959C52.0148 63.3227 54.1915 61.9775 56.15 60.2684C58.0375 58.6199 59.6227 56.7182 60.8976 54.558C61.2867 53.8987 61.639 53.2208 61.9203 52.5087C61.9544 52.419 61.9991 52.3346 62.0543 52.2106C62.2042 52.4612 62.1753 52.7144 62.1884 52.9412C62.2962 54.6609 62.1621 56.3489 61.5102 57.9684C60.7741 59.7962 59.5648 61.2416 57.9717 62.3679C55.958 63.7922 53.6893 64.5702 51.284 64.9922C50.9948 65.0424 50.703 65.0766 50.4138 65.1189C50.1404 65.1584 50.1194 65.2059 50.2587 65.4538C50.3113 65.5488 50.3639 65.6411 50.4112 65.7387C50.6662 66.2636 50.5821 66.1844 51.1157 66.0789C53.0926 65.6886 55.059 65.256 56.9754 64.6309C57.7273 64.3856 58.4476 64.048 59.1836 63.7579C61.108 63.0009 63.0717 62.3837 65.1327 62.1279C66.5129 61.9564 67.8983 61.938 69.2837 62.025C70.1039 62.0777 70.9188 62.1595 71.7311 62.2756C71.8547 62.294 71.9756 62.323 72.1149 62.4153C71.7995 62.5762 71.484 62.7424 71.1633 62.8954C67.4303 64.6731 63.4844 65.773 59.4597 66.6355C57.814 66.9889 56.1552 67.2395 54.4806 67.3872C53.4107 67.4821 52.3381 67.556 51.2629 67.5164C50.9632 67.5059 50.8817 67.6087 50.8791 67.9015C50.8581 70.3703 48.8102 72.3906 46.3496 72.4091C45.2507 72.417 44.2702 72.1031 43.4158 71.4121C43.2344 71.2644 43.1214 71.2828 42.9426 71.4226C41.2286 72.7546 38.9363 72.7572 37.238 71.4226C37.0251 71.2565 36.9015 71.2591 36.6938 71.42C35.2664 72.5093 33.7049 72.7019 32.046 72.0504C30.4083 71.4068 29.2516 69.6871 29.2384 67.9147C29.2384 67.6404 29.1911 67.5085 28.873 67.5111C25.5423 67.5428 22.2799 67.0232 19.0464 66.2556C16.2467 65.5936 13.489 64.7944 10.8234 63.6946C9.95584 63.3359 9.10409 62.9402 8.26549 62.5182C8.19714 62.4839 8.1209 62.4628 8.06044 62.3441ZM33.647 66.8623C33.5261 67.0126 33.3894 67.0126 33.2737 67.0443C32.2511 67.3239 31.2022 67.4162 30.1506 67.4979C29.7668 67.5296 29.7511 67.5612 29.7826 67.9516C29.8694 69.0515 30.2847 69.9852 31.0891 70.758C32.4982 72.1084 34.8537 72.2165 36.3574 70.9795C36.5177 70.8477 36.5414 70.7501 36.4126 70.5707C35.1507 68.8035 35.1507 66.733 36.4126 64.9949C36.5414 64.8182 36.5309 64.7206 36.36 64.5887C35.4346 63.8687 34.3857 63.626 33.2422 63.7658C32.6428 63.8396 32.0907 64.0612 31.5886 64.4067C31.4283 64.5175 31.3994 64.5993 31.6097 64.6731C31.7674 64.7285 31.9225 64.7891 32.0802 64.8366C32.5061 64.9659 32.932 65.0898 33.3578 65.2164C32.6822 65.3246 31.9961 65.3562 31.3468 65.2481C30.7027 65.14 30.4582 65.4512 30.2374 65.9207C30.2243 65.9471 30.2137 65.9734 30.198 65.9998C30.0849 66.1765 30.1138 66.2794 30.3373 66.3137C31.0786 66.4324 31.82 66.5616 32.5613 66.6856C32.9109 66.7436 33.2632 66.8016 33.6444 66.8623H33.647ZM46.5678 66.8649C46.6808 66.8438 46.7939 66.8174 46.9069 66.799C47.8612 66.6407 48.8155 66.4825 49.7671 66.3216C49.8854 66.3005 50.0537 66.3005 49.959 66.0947C49.8355 65.8284 49.6909 65.5725 49.5069 65.3404C49.4332 65.2455 49.3333 65.2112 49.2203 65.2296C48.6367 65.3246 48.0505 65.2586 47.4642 65.3008C47.2513 65.3167 47.0331 65.285 46.8175 65.2745C47.3749 65.0503 47.9322 64.8788 48.4895 64.7021C48.5631 64.6784 48.6682 64.6731 48.684 64.594C48.7051 64.4885 48.5894 64.4595 48.521 64.412C47.1251 63.4387 45.143 63.5073 43.8023 64.5597C43.6156 64.7048 43.6182 64.805 43.7497 64.987C45.0115 66.7146 45.0194 68.8484 43.7602 70.5681C43.6077 70.7764 43.6209 70.8951 43.8312 71.0402C44.7434 71.6785 45.7318 71.966 46.8491 71.8077C48.7051 71.5492 50.2745 69.9509 50.3376 67.825C50.3455 67.6008 50.264 67.5138 50.0405 67.4953C49.4858 67.4531 48.9311 67.4056 48.3791 67.3344C47.7613 67.2553 47.1488 67.1498 46.5625 66.8649H46.5678ZM40.0903 63.742C39.1571 63.6972 38.3474 64.0269 37.6061 64.5676C37.422 64.7021 37.3905 64.8208 37.5351 65.0239C38.7733 66.77 38.7706 68.8167 37.5298 70.5602C37.3957 70.7474 37.4063 70.845 37.5877 70.9874C39.0256 72.1321 41.1287 72.1374 42.5693 71.0033C42.7402 70.8687 42.7507 70.7817 42.6193 70.6024C41.3338 68.851 41.3311 66.7462 42.6193 64.9738C42.7665 64.7707 42.7192 64.6731 42.5483 64.5518C41.8122 64.0216 41.013 63.6998 40.0929 63.742H40.0903ZM44.1361 67.854C44.144 66.9124 43.8811 66.1264 43.3843 65.4169C43.1976 65.1505 43.1713 65.1505 42.9768 65.4169C41.9568 66.8122 41.9752 68.8114 43.0057 70.1988C43.1424 70.3808 43.2292 70.3755 43.3527 70.1988C43.8627 69.4735 44.1466 68.6769 44.1361 67.854ZM36.0419 67.9991C36.0419 68.669 36.3232 69.5447 36.7964 70.1672C36.8936 70.2964 36.9594 70.4019 37.1145 70.1962C38.1345 68.8405 38.1581 66.8016 37.1565 65.438C36.9804 65.198 36.941 65.2006 36.7648 65.4565C36.2811 66.1607 36.0288 66.9388 36.0419 67.9964V67.9991Z" fill="#001F66"/>
<path d="M14.6562 26.3915C15.0926 26.1963 15.4554 26.0354 15.8155 25.8719C17.1168 25.2811 18.468 24.9408 19.9087 25.0173C20.2583 25.0358 20.282 25.0463 20.1584 25.3681C19.0963 28.1244 17.1405 29.7623 14.1909 30.1342C13.8255 30.179 13.4496 30.179 13.0815 30.1104C12.8949 30.0762 12.7897 30.1368 12.7293 30.3214C12.1562 32.1282 11.6935 33.9587 11.5226 35.8551C11.4543 36.6015 11.4701 37.3427 11.4806 38.0891C11.4832 38.3423 11.4438 38.5665 11.3071 38.7854C11.0678 39.1758 10.8496 39.5793 10.5946 40.0224C10.4948 39.8404 10.4869 39.698 10.4737 39.5582C10.3607 38.0864 10.4369 36.62 10.5973 35.1588C10.7708 33.5683 11.0179 31.9831 11.5962 30.485C11.796 29.9654 11.7329 29.6832 11.3228 29.306C10.3817 28.4382 10.0005 27.2671 9.83491 26.0275C9.65089 24.6691 9.80074 23.3477 10.3423 22.0817C10.4159 21.9103 10.5158 21.752 10.5946 21.5858C10.6893 21.3854 10.7918 21.388 10.9469 21.5384C11.9774 22.5354 12.7582 23.6932 13.2235 25.0569C13.3471 25.4129 13.4496 25.7769 13.6283 26.1488C13.7677 25.8323 13.886 25.5026 14.0516 25.1993C14.2566 24.8169 14.2382 24.4845 14.0752 24.0704C13.3418 22.1951 13.2472 20.2908 13.999 18.3917C14.275 17.6928 14.7246 17.1204 15.3976 16.7433C15.6289 16.6114 15.7682 16.6325 15.926 16.8646C16.6226 17.8748 16.9249 19.001 16.9801 20.2117C16.988 20.3594 16.9854 20.5044 16.9906 20.6521C16.9906 20.668 17.009 20.6838 17.0274 20.7181C17.2483 20.5967 17.356 20.3673 17.5322 20.209C18.029 19.7659 18.1184 19.2701 18.0001 18.5975C17.6952 16.862 17.9765 15.2214 19.0885 13.7839C19.7352 12.9478 20.5554 12.3253 21.4492 11.7873C21.6384 11.6739 21.7199 11.7082 21.7541 11.935C21.9276 13.0269 21.9881 14.1163 21.8041 15.2108C21.7857 15.3163 21.7699 15.4192 21.7541 15.5221C21.8566 15.5854 21.9171 15.5115 21.9697 15.4667C22.3403 15.1634 22.6637 14.8495 22.8503 14.3695C23.5575 12.5443 24.9008 11.4312 26.791 10.9644C27.7505 10.727 28.7232 10.7085 29.7037 10.7243C29.9377 10.727 29.9877 10.8061 29.9325 11.0277C29.3778 13.2828 27.372 15.1423 25.0901 15.4983C24.5801 15.5775 24.0649 15.6566 23.547 15.5695C23.2105 15.5142 22.9502 15.6117 22.7215 15.8808C22.5033 16.1366 22.2352 16.3503 22.0196 16.6246C22.5296 16.5349 23.016 16.4426 23.5102 16.4109C24.5565 16.345 25.6001 16.3371 26.6254 16.6087C26.6359 16.6087 26.6438 16.614 26.6543 16.6167C27.1853 16.7723 27.2142 16.8461 26.9093 17.313C26.0838 18.5685 24.8561 19.241 23.4734 19.671C21.9802 20.1352 20.4476 20.2433 18.8939 20.1193C18.7914 20.1114 18.6941 20.1062 18.6232 20.1906C18.4023 20.4596 18.1841 20.7313 17.9975 21.0636C18.2288 21.0214 18.4602 20.9792 18.6941 20.9423C19.722 20.7787 20.7551 20.7207 21.7883 20.842C22.2431 20.8948 22.2694 20.9766 22.0564 21.3933C21.2888 22.8993 20.0638 23.8831 18.5101 24.4792C17.5506 24.8485 16.549 25.0094 15.5264 25.0331C15.2977 25.0384 15.1636 25.1149 15.0847 25.3285C14.9612 25.6635 14.8218 25.9958 14.6615 26.402L14.6562 26.3915Z" fill="#001F66"/>
<path d="M58.437 15.5379C58.253 14.7941 58.2451 14.0529 58.2688 13.3092C58.2846 12.8397 58.3529 12.3728 58.4213 11.9086C58.4528 11.695 58.5369 11.6686 58.7131 11.7715C60.5638 12.8634 61.9413 14.3141 62.2278 16.556C62.3356 17.4053 62.3015 18.2599 62.1043 19.0986C62.0412 19.365 62.0806 19.5707 62.2752 19.7606C62.5801 20.0561 62.7878 20.4491 63.1795 20.7497C63.2058 20.333 63.1953 19.9664 63.24 19.5998C63.3635 18.5869 63.6895 17.6585 64.2731 16.8198C64.4124 16.6219 64.5412 16.6061 64.7358 16.7143C65.669 17.2312 66.1553 18.0752 66.413 19.0617C66.8809 20.8579 66.7416 22.6198 65.9976 24.3236C65.9056 24.532 65.903 24.7008 66.0002 24.9065C66.1922 25.3101 66.3578 25.7268 66.5576 26.1858C66.689 25.9879 66.71 25.8112 66.7547 25.6477C67.1937 24.0599 68.0166 22.7042 69.1917 21.5568C69.3757 21.3775 69.473 21.3827 69.5991 21.6149C70.2721 22.8519 70.4798 24.1812 70.3799 25.5686C70.3063 26.5972 70.0566 27.5784 69.515 28.4725C69.2469 28.913 68.9262 29.3034 68.5187 29.6199C68.3688 29.7359 68.3399 29.8493 68.4109 30.0234C69.0944 31.7326 69.3888 33.5287 69.5886 35.346C69.6964 36.3298 69.7516 37.3189 69.7464 38.308C69.7437 38.8513 69.7358 39.4026 69.6359 39.9407C69.5098 39.9697 69.4914 39.8721 69.4572 39.8141C69.2153 39.4 68.9814 38.9806 68.7395 38.5665C68.6869 38.4768 68.6817 38.3819 68.6869 38.2843C68.842 35.557 68.2795 32.9432 67.4566 30.3689C67.3935 30.1711 67.3015 30.0814 67.0781 30.1052C65.2799 30.3004 63.7053 29.7386 62.3015 28.6387C61.2157 27.7894 60.4875 26.6763 60.0144 25.3892C59.8882 25.049 59.9092 25.0384 60.2694 25.0173C61.9203 24.925 63.4319 25.4129 64.8961 26.1145C65.0723 26.1989 65.2379 26.3071 65.5034 26.3572C65.3194 25.922 65.1616 25.5211 64.9802 25.1307C64.9172 24.9936 64.7594 25.0331 64.6359 25.0279C63.6054 24.9857 62.5933 24.8353 61.6258 24.4555C60.0643 23.8462 58.8445 22.844 58.0848 21.3221C57.9139 20.9818 57.9507 20.8922 58.3345 20.8394C59.2388 20.7181 60.1484 20.7603 61.0501 20.8711C61.4234 20.9185 61.7967 20.9897 62.2173 21.0003C61.986 20.7181 61.7573 20.4359 61.5207 20.1563C61.4576 20.0824 61.3603 20.1009 61.2709 20.1088C59.6989 20.2328 58.1452 20.1246 56.6363 19.6393C55.2667 19.1988 54.0495 18.5289 53.2424 17.2708C53.2056 17.2128 53.1741 17.1521 53.1347 17.0941C52.998 16.8936 53.0637 16.7749 53.274 16.6932C53.8471 16.469 54.4491 16.3977 55.0537 16.3766C56.1079 16.3397 57.1594 16.3503 58.2189 16.7037C57.8456 16.3186 57.5117 15.9652 57.1673 15.6223C57.0595 15.5142 56.9071 15.5458 56.773 15.559C55.7924 15.6619 54.8382 15.5326 53.9259 15.1713C51.999 14.4064 50.8081 12.9742 50.2298 11.0013C50.1877 10.8536 50.1746 10.7296 50.3928 10.7217C51.9096 10.6742 53.4054 10.7665 54.7908 11.4866C56.0895 12.1618 56.9255 13.2327 57.4092 14.5989C57.5222 14.9181 58.0716 15.4403 58.4265 15.5405L58.437 15.5379Z" fill="#001F66"/>
<path d="M5.39216 36.6305C5.90479 39.487 7.05359 42.1166 8.2208 44.7384C9.36435 47.31 10.6341 49.8183 11.9354 52.3108C13.0106 54.3681 14.1252 56.4043 15.2556 58.4326C15.2977 58.5091 15.3634 58.5751 15.3555 58.6858C15.2398 58.736 15.1557 58.6515 15.0689 58.6067C14.0122 58.0607 13.0474 57.3776 12.1588 56.589C10.3134 54.9458 8.90167 52.9729 7.81596 50.7626C6.56725 48.2252 5.81278 45.5376 5.47365 42.7286C5.30541 41.3359 5.21866 39.938 5.25546 38.5348C5.27123 37.8992 5.28701 37.2635 5.39216 36.6305Z" fill="#001F66"/>
<path d="M64.833 58.7069C64.8015 58.6041 64.8514 58.5513 64.883 58.4933C66.1816 56.1564 67.4645 53.8116 68.6896 51.4325C70.3904 48.1303 72.0361 44.8043 73.3873 41.3386C73.9735 39.8299 74.4993 38.3001 74.7438 36.6912C74.7464 36.6674 74.7622 36.6437 74.7964 36.5672C74.912 37.7831 74.962 38.9463 74.9094 40.1121C74.8516 41.394 74.7385 42.6705 74.523 43.9392C74.1628 46.0572 73.5661 48.1013 72.6854 50.061C71.9625 51.6699 71.0608 53.168 69.9567 54.5396C68.6422 56.1749 67.0938 57.5359 65.2431 58.5355C65.1169 58.6041 64.996 58.6937 64.8278 58.7096L64.833 58.7069Z" fill="#001F66"/>
<path d="M72.3463 28.5648C72.2753 29.1979 72.2201 29.7623 72.1465 30.3215C71.9993 31.4503 71.9073 32.5845 71.8941 33.7186C71.8836 34.7578 72.0229 35.7891 72.1833 36.8151C72.6959 40.1016 72.2254 43.2587 70.8925 46.2919C70.0855 48.1277 69.0103 49.7893 67.638 51.2558C67.5749 51.3244 67.525 51.4167 67.3778 51.4431C67.5171 51.058 67.638 50.6887 67.78 50.3274C68.7421 47.8349 69.3152 45.2501 69.6491 42.602C69.8042 41.3649 69.8646 40.1253 69.9409 38.883C70.0828 36.6068 70.1538 34.32 70.6375 32.0781C70.8689 31.0072 71.1922 29.9733 71.8389 29.0686C71.9625 28.8945 72.0939 28.7257 72.3463 28.5596V28.5648Z" fill="#001F66"/>
<path d="M12.7871 51.4088C12.3244 51.087 11.9827 50.6624 11.6488 50.2324C9.59832 47.6028 8.3207 44.6408 7.90271 41.3201C7.68714 39.5951 7.7923 37.8807 8.0841 36.1716C8.31544 34.8238 8.30755 33.4628 8.19977 32.1018C8.11039 30.9782 7.97369 29.8599 7.84225 28.7416C7.83699 28.7046 7.85276 28.6677 7.86065 28.6044C8.08673 28.7178 8.21291 28.8998 8.3391 29.0792C8.97528 29.9654 9.29863 30.9808 9.52734 32.0306C9.83491 33.4417 9.9795 34.8739 10.0689 36.3114C10.1845 38.1498 10.2555 39.9908 10.4343 41.8212C10.7392 44.9283 11.4227 47.9536 12.5847 50.8602C12.6557 51.0422 12.7188 51.2268 12.7871 51.4088Z" fill="#001F66"/>
<path d="M58.4738 62.7978C64.557 57.0163 66.5497 49.9476 65.3457 41.8001C65.4797 41.8925 65.5323 42.0243 65.598 42.1457C66.3078 43.4565 66.6706 44.8808 66.8783 46.342C67.3015 49.2935 67.0492 52.1895 66.066 55.0064C65.1222 57.7047 63.5528 59.973 61.3787 61.8245C61.3051 61.8878 61.2184 61.9432 61.129 61.9722C60.3035 62.2465 59.4754 62.5129 58.6474 62.7793C58.6132 62.7899 58.5737 62.7872 58.4712 62.7978H58.4738Z" fill="#001F66"/>
<path d="M21.6831 62.7793C21.5044 62.7872 21.3703 62.7292 21.2362 62.6844C20.65 62.4971 20.069 62.2887 19.4775 62.1226C19.0701 62.0065 18.7336 61.7982 18.426 61.5159C15.5921 58.9127 13.9254 55.6922 13.326 51.8967C13.1289 50.6518 13.0447 49.4016 13.1157 48.1488C13.2314 46.0809 13.5758 44.0605 14.5484 42.1931C14.6194 42.0586 14.6851 41.9162 14.8271 41.7764C13.6231 49.9423 15.6105 57.0189 21.6831 62.782V62.7793Z" fill="#001F66"/>
<path d="M17.753 69.6053C18.5574 69.6396 19.2882 69.6423 20.0138 69.7056C20.8235 69.7742 21.6358 69.7583 22.4455 69.761C24.0964 69.7689 25.7473 69.7451 27.3746 69.3943C27.8425 69.2941 28.3105 69.1807 28.7416 68.9618C28.9309 68.8668 28.9992 68.9222 29.0413 69.1121C29.2016 69.8216 29.5092 70.4652 29.9719 71.0244C30.1375 71.2222 30.0849 71.3145 29.8956 71.4305C28.852 72.0794 27.7479 72.5937 26.5938 73.0131C25.5423 73.3955 24.4645 73.6698 23.3524 73.7964C23.0948 73.8255 22.895 73.7859 22.6926 73.5881C21.2257 72.1427 19.6905 70.7791 17.9081 69.7267C17.8766 69.7082 17.8476 69.6792 17.7504 69.6053H17.753Z" fill="#001F66"/>
<path d="M62.3593 69.6502C61.9781 69.8981 61.5943 70.1408 61.221 70.3993C59.875 71.333 58.6579 72.4196 57.4959 73.5723C57.3014 73.7648 57.1042 73.8334 56.844 73.7991C54.4964 73.5063 52.346 72.6676 50.3271 71.4569C50.0247 71.2749 50.0274 71.267 50.2508 70.9795C50.6741 70.4283 50.9737 69.8164 51.1341 69.1385C51.1709 68.9855 51.1919 68.8484 51.4154 68.9539C52.3434 69.3864 53.3423 69.5157 54.3413 69.6291C56.1526 69.8348 57.9691 69.7557 59.7856 69.7346C60.64 69.724 61.4944 69.6475 62.3461 69.6027C62.3514 69.6185 62.3567 69.637 62.3619 69.6528L62.3593 69.6502Z" fill="#001F66"/>
<path d="M40.0851 34.1064C38.3237 34.1064 36.8542 32.6425 36.8621 30.8938C36.87 29.1082 38.3185 27.6522 40.0877 27.6522C41.8464 27.6522 43.2896 29.0923 43.308 30.8674C43.3264 32.6293 41.8569 34.1064 40.0824 34.1064H40.0851Z" fill="#001F66"/>
<path d="M75.1749 48.5233C75.1013 49.0429 74.9304 49.5282 74.7622 50.0162C73.7843 52.8331 72.5303 55.5155 70.8373 57.9763C70.0697 59.092 69.2232 60.1391 68.1533 60.9911C67.7852 61.2838 67.3935 61.4263 66.9256 61.4605C65.7689 61.5476 64.6148 61.6742 63.4581 61.7797C63.027 61.8193 62.5959 61.8852 62.0727 61.872C67.4829 58.3799 71.9467 54.0675 75.1776 48.5233H75.1749Z" fill="#001F66"/>
<path d="M5.01098 48.4785C8.22343 54.0595 12.6898 58.3799 18.0133 61.8905C17.4349 61.8404 16.8566 61.7955 16.2782 61.7401C15.1426 61.632 14.0069 61.5107 12.8686 61.4078C12.3533 61.3603 12.0326 60.999 11.6883 60.6983C10.3107 59.4929 9.28023 58.0027 8.35487 56.4386C6.92741 54.0253 5.82592 51.4668 5.01886 48.7791C4.9952 48.7 4.94 48.6182 5.01098 48.4811V48.4785Z" fill="#001F66"/>
<path d="M12.0221 47.9483C11.9485 47.7083 11.867 47.4683 11.7987 47.2256C11.3491 45.6061 11.0232 43.9682 10.9863 42.2802C10.9811 42.0955 10.9627 41.9083 10.9417 41.7236C10.8549 40.9693 11.0705 40.2783 11.3439 39.5872C12.1483 37.5537 13.0106 35.5465 14.2093 33.7081C15.0505 32.4183 16.018 31.2472 17.356 30.4375C17.4559 30.3768 17.548 30.3004 17.6768 30.3004C17.7399 30.4111 17.6557 30.4876 17.6137 30.5667C16.1021 33.4206 14.7771 36.3536 13.7913 39.4342C12.9764 41.9716 12.4138 44.559 12.1693 47.2151C12.1483 47.4551 12.1168 47.6977 12.0905 47.9378C12.0668 47.943 12.0458 47.9457 12.0221 47.9509V47.9483Z" fill="#001F66"/>
<path d="M68.1138 47.9457C67.6117 41.6234 65.3877 35.8656 62.425 30.3109C62.6616 30.2951 62.7957 30.4164 62.935 30.5034C63.8236 31.0626 64.5491 31.8011 65.1906 32.6241C66.4656 34.2593 67.3778 36.103 68.1796 38.0021C68.5213 38.8144 68.8289 39.6426 69.1496 40.4629C69.31 40.8717 69.2416 41.299 69.2258 41.7157C69.1733 43.0477 69.0628 44.3744 68.7658 45.68C68.5923 46.4423 68.3925 47.1992 68.1165 47.9483L68.1138 47.9457Z" fill="#001F66"/>
<path d="M43.8995 77.919C41.3443 77.0037 38.8206 77.0064 36.2233 78.0192C36.4835 77.6631 36.6965 77.3967 36.8779 77.1119C37.4851 76.1544 37.6613 75.0757 37.7322 73.9705C37.7612 73.5221 37.769 73.0711 37.84 72.6254C37.8768 72.3933 37.9688 72.3405 38.1976 72.4355C39.4699 72.9683 40.7475 72.9524 42.0146 72.4223C42.2092 72.3405 42.2854 72.3985 42.3196 72.5832C42.4063 73.0474 42.409 73.5169 42.4379 73.9863C42.5194 75.321 42.8007 76.5896 43.6787 77.6526C43.7523 77.7422 43.8233 77.8319 43.8943 77.9216L43.8995 77.919Z" fill="#001F66"/>
<path d="M44.1125 72.2192C44.6514 72.4803 45.1456 72.6834 45.6819 72.7572C46.5389 72.8759 47.3749 72.8179 48.1872 72.5067C48.3265 72.4539 48.4527 72.3933 48.5841 72.5383C49.1914 73.2215 50.0169 73.5432 50.8318 73.8729C51.4916 74.1393 52.1699 74.3662 52.8376 74.6141C52.9086 74.6405 52.9901 74.651 53.0374 74.7222C53.04 74.8093 52.969 74.8066 52.9165 74.8172C51.3944 75.1495 50.0379 75.801 48.9285 76.9167C48.776 77.0697 48.6788 76.9905 48.5657 76.8771C47.8559 76.1623 47.1409 75.4502 46.4311 74.7381C45.7686 74.0734 45.1062 73.4087 44.4411 72.7441C44.3096 72.6122 44.1861 72.4777 44.1098 72.2218L44.1125 72.2192Z" fill="#001F66"/>
<path d="M36.0445 72.2877C36.013 72.4434 35.9157 72.5594 35.8053 72.6676C34.4094 74.0655 33.0135 75.4634 31.6175 76.8639C31.4966 76.9853 31.3993 77.0723 31.2337 76.9061C30.1585 75.83 28.8546 75.1785 27.3851 74.8435C27.3036 74.8251 27.2063 74.8304 27.1301 74.7275C27.2431 74.6299 27.3825 74.5983 27.5139 74.5534C28.4813 74.2132 29.4514 73.8756 30.3715 73.4166C30.8131 73.1977 31.2285 72.9445 31.5571 72.57C31.6596 72.4539 31.7595 72.4144 31.9172 72.475C33.2658 72.9867 34.5934 72.9339 35.8947 72.3062C35.9367 72.2851 35.9762 72.2482 36.0472 72.2877H36.0445Z" fill="#001F66"/>
<path d="M31.5729 70.5549C31.4598 70.5707 31.3888 70.5206 31.3257 70.4599C31.0208 70.1645 30.7816 69.8216 30.6054 69.4365C30.5397 69.2915 30.5607 69.2045 30.7448 69.2335C31.82 69.397 32.9031 69.31 33.9835 69.3363C34.0755 69.3363 34.2175 69.2862 34.249 69.3864C34.2885 69.5078 34.136 69.5473 34.0571 69.608C33.3132 70.1566 32.4246 70.3254 31.5755 70.5575L31.5729 70.5549Z" fill="#001F66"/>
<path d="M45.9027 69.3732C46.042 69.3099 46.1708 69.339 46.2944 69.3337C47.3354 69.3073 48.3791 69.397 49.4148 69.2335C49.5778 69.2071 49.6436 69.2572 49.5699 69.4234C49.5305 69.513 49.4858 69.6001 49.4385 69.6845C48.9653 70.5549 48.826 70.6155 47.8901 70.3676C47.2644 70.2014 46.6572 70.001 46.1262 69.6133C46.042 69.5526 45.9343 69.513 45.9001 69.3706L45.9027 69.3732Z" fill="#001F66"/>
<path d="M40.0851 71.4411C39.5304 71.4121 38.9888 71.296 38.4841 71.0375C38.308 70.9479 38.2606 70.8476 38.3632 70.6657C38.8705 69.7715 38.9678 68.7719 39.0835 67.7802C39.1913 66.8755 39.2281 65.9655 39.207 65.0529C39.2018 64.8076 39.3043 64.7232 39.5383 64.7338C39.8984 64.747 40.2612 64.7496 40.6214 64.7338C40.879 64.7232 40.9657 64.8261 40.9605 65.0767C40.9394 66.1449 40.992 67.2104 41.1419 68.2707C41.2602 69.1069 41.3811 69.9403 41.8175 70.6868C41.9174 70.8582 41.8516 70.9505 41.6939 71.0349C41.1892 71.2987 40.6503 71.4121 40.0824 71.4437L40.0851 71.4411Z" fill="#001F66"/>
</svg>
