<svg width="24" height="24" viewBox="0 0 24 24" fill="none" xmlns="http://www.w3.org/2000/svg">
<path d="M13.6839 15.9724C13.9571 16.2456 13.9568 16.6892 13.6839 16.9626L12.0452 18.6013C11.6191 19.0274 11.1101 19.3623 10.5491 19.5866C9.98812 19.8109 9.38567 19.9204 8.77763 19.9099C7.55003 19.8885 6.37037 19.3805 5.49442 18.5046C4.61876 17.6288 4.11152 16.4497 4.09013 15.2224C4.06893 13.9937 4.53732 12.8162 5.39872 11.9548L7.03739 10.3151C7.31077 10.0423 7.7544 10.042 8.02763 10.3151C8.30084 10.5884 8.30054 11.032 8.02763 11.3054L6.38798 12.945C5.80068 13.5326 5.4748 14.3415 5.48954 15.198C5.50449 16.0558 5.86042 16.8911 6.48466 17.5153C7.10894 18.1396 7.9442 18.4946 8.80204 18.5095C9.22634 18.5168 9.64365 18.4411 10.0296 18.2868C10.4154 18.1325 10.7638 17.9023 11.055 17.611L12.6946 15.9724L12.804 15.8825C13.0756 15.7034 13.4448 15.7334 13.6839 15.9724ZM14.971 9.02999C15.2442 9.30322 15.2439 9.74683 14.971 10.0202L10.0218 14.9694C9.7484 15.2428 9.3049 15.2428 9.03153 14.9694C8.75823 14.6961 8.75819 14.2526 9.03153 13.9792L13.9817 9.02999C14.2551 8.75717 14.6978 8.75686 14.971 9.02999ZM19.9104 8.77706C19.921 9.38506 19.8113 9.98757 19.5872 10.5485C19.3629 11.1096 19.0279 11.6185 18.6018 12.0446L16.9632 13.6833L16.8528 13.7732C16.5811 13.9526 16.2122 13.9225 15.9729 13.6833C15.6998 13.4099 15.6997 12.9674 15.9729 12.6941L17.6116 11.0544C17.9028 10.7631 18.1332 10.4148 18.2874 10.029C18.4416 9.6431 18.5174 9.22573 18.51 8.80148C18.5026 8.37713 18.412 7.95335 18.2415 7.55538C18.0709 7.15734 17.8246 6.79279 17.5159 6.48409C17.2072 6.17542 16.8426 5.92911 16.4446 5.75851C16.0467 5.58801 15.6228 5.49642 15.1985 5.48898C14.7743 5.48162 14.3569 5.55846 13.971 5.71261C13.5853 5.86677 13.2368 6.09646 12.9456 6.38741L11.3059 8.02706C11.0326 8.30039 10.5891 8.30041 10.3157 8.02706C10.0424 7.7537 10.0424 7.31018 10.3157 7.03683L11.9554 5.39815C12.3815 4.97215 12.8904 4.63707 13.4515 4.4128C14.0124 4.18869 14.615 4.07902 15.2229 4.08956C15.8308 4.10021 16.4339 4.23037 16.9964 4.4714C17.5587 4.71244 18.0713 5.06009 18.5052 5.49386C18.9392 5.92787 19.2875 6.441 19.5286 7.00362C19.7697 7.56623 19.8998 8.16912 19.9104 8.77706Z" fill="#F9F9F9"/>
</svg>
