<svg width="32" height="32" viewBox="0 0 32 32" fill="none" xmlns="http://www.w3.org/2000/svg">
<path d="M30.2344 23.2007C30.2343 23.5249 30.0595 23.8242 29.7773 23.9839L21.293 28.7837C21.0335 28.9305 20.7174 28.9393 20.4502 28.8072L11.1807 24.2183L3.11133 28.7837C2.83285 28.9413 2.4913 28.9389 2.21484 28.7779C1.93833 28.6166 1.76761 28.3206 1.76758 28.0005L1.76758 8.80032C1.76765 8.47608 1.94243 8.17681 2.22461 8.01711L10.71 3.21731L10.8096 3.16848C11.0473 3.07045 11.3181 3.07829 11.5518 3.19387L20.8213 7.78176L28.8916 3.21731C29.1702 3.05982 29.5116 3.06193 29.7881 3.22317C30.0644 3.38449 30.2344 3.68051 30.2344 4.00051L30.2344 23.2007ZM3.56836 9.32473L3.56836 26.4566L10.2529 22.6753L10.2529 5.5425L3.56836 9.32473ZM12.0527 5.44973L12.0527 22.6411L19.9502 26.5503L19.9502 9.35891L12.0527 5.44973ZM21.75 9.32473L21.75 26.4566L28.4346 22.6753L28.4346 5.5425L21.75 9.32473Z" fill="white"/>
</svg>
