<svg width="18" height="14" viewBox="0 0 18 14" fill="none" xmlns="http://www.w3.org/2000/svg">
<path d="M17.9336 1.16699C17.9334 1.45688 17.7275 1.69904 17.4541 1.75488L17.334 1.7666L0.666992 1.7666C0.33573 1.7666 0.0675587 1.49821 0.0673828 1.16699C0.0673828 0.835622 0.335621 0.567383 0.666992 0.567383L17.334 0.567383L17.4541 0.579102C17.7276 0.635011 17.9336 0.877008 17.9336 1.16699ZM17.9336 7C17.9334 7.28986 17.7275 7.53203 17.4541 7.58789L17.334 7.60059L0.666992 7.60059C0.33573 7.60059 0.0675588 7.33122 0.0673829 7C0.0675584 6.66878 0.33573 6.40039 0.666992 6.40039L17.334 6.40039L17.4541 6.41211C17.7275 6.46797 17.9334 6.71014 17.9336 7ZM17.9336 12.834C17.9333 13.1237 17.7275 13.3661 17.4541 13.4219L17.334 13.4336L0.666992 13.4336C0.335839 13.4336 0.0677358 13.1651 0.067383 12.834C0.067383 12.5026 0.335621 12.2334 0.666992 12.2334L17.334 12.2334L17.4541 12.2461C17.7275 12.302 17.9336 12.544 17.9336 12.834Z" fill="#464747"/>
</svg>
