<svg width="24" height="24" viewBox="0 0 24 24" fill="none" xmlns="http://www.w3.org/2000/svg">
<path d="M8 7V3.6C8 3.26863 8.26863 3 8.6 3H15.4C15.7314 3 16 3.26863 16 3.6V7" stroke="#EEEEEE" stroke-width="1.2"/>
<path d="M6.09794 20.3151L6.42867 18L6.92651 14.5151C6.96874 14.2196 7.22189 14 7.52048 14H16.4797C16.7783 14 17.0314 14.2196 17.0737 14.5151L17.5715 18L17.9022 20.3151C17.9539 20.6766 17.6734 21 17.3083 21H6.69191C6.32678 21 6.0463 20.6766 6.09794 20.3151Z" stroke="#EEEEEE" stroke-width="1.2"/>
<path d="M17 10.0101L17.01 9.99902" stroke="#EEEEEE" stroke-width="1.2" stroke-linecap="round" stroke-linejoin="round"/>
<path d="M17.5 18H20C20.5523 18 21 17.5523 21 17V10C21 8.34315 19.6569 7 18 7H6C4.34315 7 3 8.34315 3 10V17C3 17.5523 3.44772 18 4 18H6.5" stroke="#EEEEEE" stroke-width="1.4"/>
</svg>
