<svg width="24" height="24" viewBox="0 0 24 24" fill="none" xmlns="http://www.w3.org/2000/svg">
<path d="M6.56084 19.2484C6.32331 19.2484 6.0881 19.2017 5.86865 19.1108C5.64919 19.0199 5.44979 18.8866 5.28183 18.7187C5.11387 18.5507 4.98064 18.3513 4.88974 18.1319C4.79884 17.9125 4.75205 17.6773 4.75205 17.4397C4.75205 17.2022 4.79884 16.967 4.88974 16.7476C4.98064 16.5281 5.11387 16.3288 5.28183 16.1608C5.44979 15.9928 5.64919 15.8596 5.86865 15.7687C6.0881 15.6778 6.32331 15.631 6.56084 15.631C7.04056 15.631 7.50063 15.8216 7.83985 16.1608C8.17906 16.5 8.36963 16.96 8.36963 17.4397C8.36963 17.9194 8.17906 18.3795 7.83985 18.7187C7.50063 19.0579 7.04056 19.2484 6.56084 19.2484ZM5.767 12.0055C5.53229 12.0287 5.2978 11.9593 5.11354 11.8121C4.92927 11.6649 4.8098 11.4515 4.7806 11.2175C4.75141 10.9834 4.81479 10.7473 4.95725 10.5593C5.0997 10.3713 5.30995 10.2465 5.54317 10.2113C6.57628 10.0822 7.62504 10.1742 8.61987 10.4813C9.6147 10.7884 10.5328 11.3035 11.3134 11.9925C12.0939 12.6815 12.719 13.5286 13.1472 14.4776C13.5754 15.4265 13.7968 16.4557 13.7969 17.4968V18.3441C13.7969 18.5839 13.7016 18.814 13.532 18.9836C13.3624 19.1532 13.1324 19.2484 12.8925 19.2484C12.6526 19.2484 12.4226 19.1532 12.253 18.9836C12.0834 18.814 11.9881 18.5839 11.9881 18.3441V17.4977C11.988 16.713 11.821 15.9374 11.4983 15.2221C11.1755 14.5069 10.7044 13.8684 10.116 13.3491C9.52774 12.8298 8.83574 12.4416 8.08594 12.2101C7.33614 11.9786 6.54568 11.9091 5.767 12.0064V12.0055ZM4.75205 5.74209C4.74405 5.62349 4.75951 5.50447 4.79755 5.39185C4.83559 5.27923 4.89545 5.17521 4.97373 5.08575C5.052 4.99629 5.14715 4.92313 5.25372 4.87047C5.36029 4.8178 5.47621 4.78667 5.59482 4.77884C12.6515 4.30854 18.7511 9.64674 19.2215 16.7021C19.2595 17.2694 19.2595 17.8385 19.2215 18.4057C19.2135 18.5242 19.1824 18.64 19.1297 18.7465C19.077 18.853 19.0039 18.948 18.9145 19.0263C18.8251 19.1045 18.7211 19.1643 18.6086 19.2023C18.4961 19.2404 18.3771 19.2559 18.2586 19.248C18.1401 19.2401 18.0243 19.2089 17.9178 19.1562C17.8113 19.1036 17.7163 19.0304 17.638 18.941C17.5598 18.8516 17.5 18.7477 17.4619 18.6352C17.4239 18.5226 17.4084 18.4037 17.4163 18.2852C17.4489 17.7977 17.4489 17.3093 17.4163 16.8226C17.013 10.764 11.7752 6.17976 5.71716 6.58391C5.59841 6.59216 5.4792 6.57689 5.36636 6.53896C5.25352 6.50104 5.14928 6.44122 5.05962 6.36292C4.96996 6.28463 4.89663 6.1894 4.84385 6.08271C4.79107 5.97602 4.75988 5.85996 4.75205 5.74118V5.74209Z" fill="#EEEEEE"/>
</svg>
