<svg width="24" height="24" viewBox="0 0 24 24" fill="none" xmlns="http://www.w3.org/2000/svg">
<path d="M18.3244 3.47654C18.0716 3.25205 17.7012 3.24372 17.4406 3.43846L17.3361 3.53514L10.4787 11.249C10.243 11.5142 10.243 11.9145 10.4787 12.1797L17.3361 19.8935L17.4406 19.9892C17.7012 20.1843 18.0715 20.1767 18.3244 19.9521C18.5772 19.7274 18.6291 19.3599 18.466 19.0781L18.382 18.9638L11.9386 11.7138L18.382 4.46482C18.6388 4.17588 18.6133 3.73338 18.3244 3.47654ZM11.3244 3.47654C11.0716 3.25205 10.7012 3.24372 10.4406 3.43846L10.3361 3.53514L3.47866 11.249C3.24299 11.5142 3.24299 11.9145 3.47866 12.1797L10.3361 19.8935L10.4406 19.9892C10.7012 20.1843 11.0715 20.1767 11.3244 19.9521C11.5772 19.7274 11.6291 19.3599 11.466 19.0781L11.382 18.9638L4.93862 11.7138L11.382 4.46482C11.6388 4.17588 11.6133 3.73338 11.3244 3.47654Z" fill="#C7C6C6"/>
</svg>
