<svg width="20" height="20" viewBox="0 0 20 20" fill="none" xmlns="http://www.w3.org/2000/svg">
<path d="M10.3672 3.2002C14.154 3.392 17.165 6.52297 17.165 10.3574C17.1649 14.3152 13.9568 17.5233 9.99902 17.5234C6.04115 17.5234 2.83221 14.3153 2.83203 10.3574C2.83203 6.39942 6.04104 3.1905 9.99902 3.19043L10.3672 3.2002ZM7.84277 12.7617C7.98178 13.5667 8.18472 14.2841 8.4375 14.874C8.67999 15.4398 8.95639 15.8661 9.2373 16.1436C9.48147 16.3845 9.70911 16.4948 9.91309 16.5186L9.99902 16.5234C10.2243 16.5233 10.481 16.4187 10.7598 16.1436C11.0408 15.8661 11.317 15.44 11.5596 14.874C11.8124 14.284 12.0163 13.5668 12.1553 12.7617H7.84277ZM4.31836 12.7617C4.99926 14.3682 6.34254 15.6245 8.00488 16.1924C7.82533 15.9152 7.66254 15.6045 7.51855 15.2686C7.21329 14.5562 6.97736 13.7032 6.82715 12.7617H4.31836ZM13.1709 12.7617C13.0207 13.7032 12.7838 14.5562 12.4785 15.2686C12.3346 15.6042 12.1716 15.9144 11.9922 16.1914C13.6545 15.6236 14.9978 14.3681 15.6787 12.7617H13.1709ZM3.99512 8.95215C3.88989 9.40359 3.83203 9.87393 3.83203 10.3574C3.83206 10.8407 3.88996 11.3105 3.99512 11.7617H6.70312C6.66271 11.3069 6.64161 10.8371 6.6416 10.3574C6.6416 9.87748 6.66268 9.40721 6.70312 8.95215H3.99512ZM7.70996 8.95215C7.66704 9.40279 7.6416 9.87308 7.6416 10.3574C7.64161 10.8415 7.6661 11.3113 7.70898 11.7617H12.2881C12.331 11.3113 12.3555 10.8415 12.3555 10.3574C12.3555 9.8731 12.331 9.40278 12.2881 8.95215H7.70996ZM13.2939 8.95215C13.3344 9.40722 13.3555 9.87747 13.3555 10.3574C13.3555 10.8371 13.3344 11.3068 13.2939 11.7617H16.0029C16.1081 11.3105 16.165 10.8406 16.165 10.3574C16.165 9.87397 16.1081 9.40356 16.0029 8.95215H13.2939ZM8.00586 4.52051C6.34302 5.08815 4.99947 6.3454 4.31836 7.95215H6.82715C6.97735 7.01095 7.21338 6.15846 7.51855 5.44629C7.6628 5.10971 7.82591 4.79815 8.00586 4.52051ZM9.99902 4.19043C9.77365 4.19047 9.5162 4.29506 9.2373 4.57031C8.95633 4.84774 8.68004 5.27392 8.4375 5.83984C8.18469 6.42974 7.9818 7.14721 7.84277 7.95215H12.1553C12.0162 7.14715 11.8124 6.42978 11.5596 5.83984C11.317 5.27384 11.0408 4.84772 10.7598 4.57031C10.481 4.29519 10.2243 4.19053 9.99902 4.19043ZM11.9912 4.52148C12.171 4.79899 12.3344 5.10992 12.4785 5.44629C12.7837 6.15851 13.0207 7.01085 13.1709 7.95215H15.6787C14.9976 6.34545 13.654 5.08909 11.9912 4.52148Z" fill="white"/>
</svg>
