<svg width="20" height="20" viewBox="0 0 20 20" fill="none" xmlns="http://www.w3.org/2000/svg">
<path d="M8.71973 3.6084C11.9715 3.6084 14.6073 6.24439 14.6074 9.49609C14.6073 10.9418 14.0853 12.2653 13.2207 13.29L16.1855 16.2549L16.25 16.333C16.378 16.5271 16.3563 16.7911 16.1855 16.9619C16.0147 17.1325 15.7506 17.1544 15.5566 17.0264L15.4785 16.9619L12.5137 13.9971C11.4889 14.8616 10.1655 15.3838 8.71973 15.3838C5.46824 15.3836 2.8323 12.7476 2.83203 9.49609C2.83216 6.24451 5.46815 3.60859 8.71973 3.6084ZM8.71973 4.6084C6.02044 4.60859 3.83216 6.79679 3.83203 9.49609C3.8323 12.1953 6.02052 14.3836 8.71973 14.3838C11.4191 14.3838 13.6072 12.1954 13.6074 9.49609C13.6073 6.79667 11.4192 4.6084 8.71973 4.6084Z" fill="#464747"/>
</svg>
