<svg width="10" height="10" viewBox="0 0 10 10" fill="none" xmlns="http://www.w3.org/2000/svg">
<path fill-rule="evenodd" clip-rule="evenodd" d="M4.67857 2.00056V0.714844H5.32143V2.00056H4.67857ZM2.01329 1.77299L2.97757 2.73727L2.52243 3.19242L1.55814 2.22813L2.01329 1.77299ZM8.44186 2.22813L7.47757 3.19242L7.02243 2.73727L7.98671 1.77299L8.44186 2.22813ZM2.75 5.21484C2.75 4.61811 2.98705 4.04581 3.40901 3.62385C3.83097 3.2019 4.40326 2.96484 5 2.96484C5.59674 2.96484 6.16903 3.2019 6.59099 3.62385C7.01295 4.04581 7.25 4.61811 7.25 5.21484C7.25 5.81158 7.01295 6.38388 6.59099 6.80583C6.16903 7.22779 5.59674 7.46484 5 7.46484C4.40326 7.46484 3.83097 7.22779 3.40901 6.80583C2.98705 6.38388 2.75 5.81158 2.75 5.21484ZM1.78571 5.53627H0.5V4.89342H1.78571V5.53627ZM9.5 5.53627H8.21429V4.89342H9.5V5.53627ZM1.55814 8.20156L2.52243 7.23727L2.97757 7.69242L2.01329 8.6567L1.55814 8.20156ZM7.98671 8.6567L7.02243 7.69242L7.47757 7.23727L8.44186 8.20156L7.98671 8.6567ZM4.67857 9.71484V8.42913H5.32143V9.71484H4.67857Z" fill="white"/>
</svg>
