<svg width="32" height="33" viewBox="0 0 32 33" fill="none" xmlns="http://www.w3.org/2000/svg">
<path d="M30.2344 25.0732C30.2342 27.0367 28.6314 28.6395 26.668 28.6396L5.33496 28.6396C3.37135 28.6396 1.76776 27.0368 1.76758 25.0732L1.76758 9.07324C1.76758 7.10952 3.37124 5.50586 5.33496 5.50586L26.668 5.50586C28.6315 5.50604 30.2344 7.10963 30.2344 9.07324L30.2344 25.0732ZM16.5176 19.1436C16.2078 19.3604 15.7952 19.3602 15.4854 19.1436L3.56836 10.8018L3.56836 25.0732C3.56854 26.0427 4.36546 26.8398 5.33496 26.8398L26.668 26.8398C27.6373 26.8397 28.4344 26.0426 28.4346 25.0732L28.4346 10.8008L16.5176 19.1436ZM28.3779 8.64355C28.1839 7.87923 27.4893 7.30679 26.668 7.30664L5.33496 7.30664C4.51372 7.30664 3.81727 7.87845 3.62305 8.64258L16.001 17.3076L28.3779 8.64355Z" fill="white"/>
</svg>
