<svg width="24" height="25" viewBox="0 0 24 25" fill="none" xmlns="http://www.w3.org/2000/svg">
<path d="M19.25 6.30893V19.5661C19.25 19.9093 18.9718 20.1875 18.6286 20.1875H5.37143C5.02822 20.1875 4.75 19.9093 4.75 19.5661V6.30893C4.75 5.96572 5.02822 5.6875 5.37143 5.6875H18.6286C18.9718 5.6875 19.25 5.96572 19.25 6.30893Z" stroke="#464747" stroke-width="1.4" stroke-linecap="round" stroke-linejoin="round"/>
<path d="M5 16.1042L8.81058 13.5968C9.42733 13.1909 10.2175 13.1579 10.866 13.5108L19 17.9375" stroke="#464747" stroke-width="1.4" stroke-linecap="round" stroke-linejoin="round"/>
<path d="M14.5 11.4375C13.6716 11.4375 13 10.7659 13 9.9375C13 9.1091 13.6716 8.4375 14.5 8.4375C15.3284 8.4375 16 9.1091 16 9.9375C16 10.7659 15.3284 11.4375 14.5 11.4375Z" stroke="#464747" stroke-width="1.4" stroke-linecap="round" stroke-linejoin="round"/>
</svg>
