<svg width="24" height="24" viewBox="0 0 24 24" fill="none" xmlns="http://www.w3.org/2000/svg">
<path d="M5.67759 3.47654C5.93031 3.25205 6.30076 3.24372 6.56138 3.43846L6.66587 3.53514L13.5233 11.249C13.759 11.5142 13.759 11.9145 13.5233 12.1797L6.66587 19.8935L6.56138 19.9892C6.30075 20.1843 5.93044 20.1767 5.67759 19.9521C5.42476 19.7274 5.37285 19.3599 5.53599 19.0781L5.61998 18.9638L12.0633 11.7138L5.61998 4.46482C5.36313 4.17588 5.38865 3.73338 5.67759 3.47654ZM12.6776 3.47654C12.9303 3.25205 13.3008 3.24372 13.5614 3.43846L13.6659 3.53514L20.5233 11.249C20.759 11.5142 20.759 11.9145 20.5233 12.1797L13.6659 19.8935L13.5614 19.9892C13.3008 20.1843 12.9304 20.1767 12.6776 19.9521C12.4248 19.7274 12.3728 19.3599 12.536 19.0781L12.62 18.9638L19.0633 11.7138L12.62 4.46482C12.3631 4.17588 12.3886 3.73338 12.6776 3.47654Z" fill="#464747"/>
</svg>
