<svg width="131" height="130" viewBox="0 0 131 130" fill="none" xmlns="http://www.w3.org/2000/svg">
<path d="M67.0187 3.40622C68.4225 3.65796 69.8219 3.94382 71.119 4.57102C75.791 6.83235 78.5473 10.523 79.1233 15.6942C79.6139 20.1358 78.1462 23.9545 74.9334 27.0436C72.6166 29.275 69.8092 30.491 66.5878 30.7598C60.1281 31.3017 53.967 27.1246 52.2646 20.6649C51.023 15.9587 52.0427 11.7006 55.2129 8.01422C57.4529 5.40729 60.3457 3.93529 63.7505 3.47022C63.8273 3.46169 63.8998 3.42756 63.9766 3.40622C64.9921 3.40622 66.0076 3.40622 67.023 3.40622H67.0187ZM69.9713 17.0681C69.967 14.5508 67.9702 12.5625 65.4614 12.571C62.9825 12.5838 61.0155 14.5721 61.0113 17.0724C61.0113 19.6153 62.9612 21.5737 65.4956 21.5737C68.0342 21.5737 69.9755 19.6196 69.967 17.0681H69.9713ZM61.1564 9.40941C61.1308 9.42648 61.1009 9.44782 61.0753 9.46488C61.3782 10.5913 61.6769 11.7177 61.9756 12.8441C62.0353 13.066 62.1505 13.0873 62.3169 12.9593C62.7051 12.6564 63.1318 12.4131 63.5926 12.2382C63.7803 12.1657 63.7931 12.0676 63.6523 11.9268C62.8203 11.0905 61.9883 10.2499 61.1564 9.40941ZM73.1115 12.7801C73.0859 12.7417 73.0603 12.7076 73.0305 12.6692C71.9339 12.9593 70.8374 13.2494 69.7409 13.5396C69.5318 13.595 69.4294 13.6889 69.6043 13.898C69.9073 14.2649 70.1334 14.683 70.3169 15.1225C70.3979 15.3145 70.4918 15.37 70.6582 15.2036C71.4731 14.3929 72.2923 13.5822 73.1115 12.7758V12.7801ZM69.822 9.60142C69.7494 9.61849 69.6897 9.61422 69.6641 9.63982C68.8833 10.4078 68.1067 11.1758 67.3302 11.9438C67.1638 12.1059 67.2577 12.1828 67.4198 12.2468C67.8081 12.3961 68.1622 12.6009 68.5035 12.8356C68.9387 13.1385 68.9473 13.1342 69.0795 12.6436C69.2715 11.9225 69.4721 11.2057 69.6555 10.4846C69.7281 10.203 69.8603 9.92569 69.8262 9.60142H69.822ZM57.9521 12.6649C57.9307 12.7075 57.9051 12.7502 57.8838 12.7929C58.6945 13.5908 59.5094 14.3886 60.3158 15.1865C60.4737 15.3444 60.5803 15.3273 60.6657 15.1225C60.8577 14.666 61.1051 14.2435 61.4038 13.851C61.5361 13.6803 61.455 13.595 61.2843 13.5481C60.175 13.2494 59.0614 12.955 57.9478 12.6606L57.9521 12.6649ZM69.8305 24.7182C69.8561 24.6969 69.8817 24.6798 69.9115 24.6585C69.6214 23.562 69.327 22.4654 69.0412 21.3689C68.9814 21.1342 68.9089 21.0276 68.6699 21.2196C68.2987 21.5182 67.8806 21.7401 67.4369 21.915C67.2449 21.9918 67.1852 22.0686 67.3601 22.2436C68.1878 23.0628 69.007 23.8905 69.8305 24.7182ZM61.0881 24.6542C61.1137 24.6756 61.135 24.6969 61.1606 24.7225C61.9841 23.8948 62.8075 23.0628 63.6353 22.2436C63.8187 22.0601 63.7334 21.9833 63.5499 21.915C63.1318 21.7572 62.7393 21.5481 62.3937 21.2665C62.0993 21.0275 62.0054 21.1428 61.9286 21.4457C61.6556 22.5166 61.3697 23.5876 61.0881 24.6585V24.6542ZM65.4273 25.7636C65.4742 25.7636 65.5211 25.7636 65.5681 25.7636C65.8625 24.6628 66.1526 23.5662 66.447 22.4697C66.5025 22.2564 66.4214 22.2265 66.2294 22.2478C65.7388 22.3033 65.2481 22.3033 64.7574 22.2478C64.5697 22.2265 64.4843 22.2564 64.5398 22.4697C64.8385 23.5662 65.1286 24.667 65.423 25.7636H65.4273ZM65.5595 8.37689H65.4315C65.1371 9.47769 64.847 10.5742 64.5484 11.6665C64.4886 11.8969 64.5825 11.9609 64.7915 11.9225C65.2481 11.8372 65.7003 11.8414 66.1569 11.9225C66.3574 11.9609 66.5153 11.931 66.4385 11.658C66.1441 10.5614 65.8497 9.46915 65.5553 8.37262L65.5595 8.37689ZM74.2635 17.1278C74.2593 17.098 74.2507 17.0681 74.2465 17.034C73.167 16.7438 72.0833 16.458 71.0038 16.1593C70.7478 16.0868 70.6326 16.1635 70.6625 16.4238C70.7137 16.8505 70.7265 17.2686 70.6625 17.6953C70.6241 17.9641 70.7478 18.0793 71.0251 18.0025C72.1003 17.7081 73.1798 17.418 74.2593 17.1278H74.2635ZM56.591 17.0809C57.8198 17.4137 58.9121 17.7166 60.0086 18.011C60.2817 18.0835 60.3542 17.9214 60.3286 17.6953C60.2774 17.2857 60.2689 16.8761 60.3286 16.4665C60.3713 16.1891 60.2603 16.0953 59.9745 16.1721C58.895 16.4707 57.8113 16.7524 56.591 17.0809ZM57.9606 21.3731C57.9819 21.4116 58.0075 21.45 58.0289 21.4884C59.1339 21.1897 60.2433 20.8953 61.3484 20.5881C61.583 20.5241 61.4465 20.3748 61.3654 20.2596C61.1051 19.9012 60.8577 19.5342 60.6998 19.1118C60.6017 18.8558 60.4694 18.843 60.2859 19.0308C59.8977 19.4276 59.5051 19.8158 59.1126 20.2084C58.7286 20.5966 58.3446 20.9849 57.9606 21.3689V21.3731ZM72.9494 21.4798L73.0305 21.3518C72.2369 20.5625 71.4433 19.7732 70.6497 18.9881C70.5132 18.8516 70.3894 18.8771 70.3212 19.0521C70.142 19.5129 69.8817 19.9268 69.583 20.3193C69.4806 20.4558 69.4934 20.554 69.6641 20.6009C70.7606 20.8953 71.8529 21.1854 72.9494 21.4798Z" fill="#151515"/>
<path d="M66.7627 33.5203C67.902 33.4905 69.0369 33.6057 70.1633 33.7678C76.0001 34.6126 81.2822 36.8099 85.9115 40.4665C92.7254 45.8467 96.975 52.827 98.3105 61.4073C99.8763 71.4596 97.3462 80.4964 90.7713 88.2788C85.6641 94.3246 79.119 98.011 71.3281 99.4532C69.1094 99.8628 66.8609 100.097 64.6081 99.931C59.1126 99.5257 54.7478 97.0638 51.6374 92.4942C49.9052 89.947 49.0305 87.1012 48.8811 84.0121C48.5014 75.9865 54.0566 68.682 62.1761 67.0051C63.247 66.7833 64.335 66.6766 65.4358 66.6681C73.8027 66.6297 80.6678 60.6734 81.9051 52.3918C82.9675 45.2793 78.9825 37.9961 72.4246 35.0521C71.5243 34.6467 70.607 34.3097 69.6513 34.0622C68.6998 33.819 67.7313 33.6697 66.7585 33.5203H66.7627ZM60.3628 83.2995C60.3585 86.1582 62.6283 88.4537 65.4699 88.475C68.303 88.4921 70.607 86.2009 70.6241 83.3465C70.6411 80.4836 68.3755 78.1753 65.5382 78.1668C62.6454 78.1582 60.3627 80.4195 60.3585 83.3038L60.3628 83.2995Z" fill="#151515"/>
<path d="M13.5148 100.998C14.462 100.789 15.375 100.703 16.2881 100.609C17.9777 100.434 19.6716 100.37 21.3697 100.396C24.9409 100.447 28.3883 101.13 31.7633 102.273C33.5681 102.884 35.3345 103.583 37.0924 104.317C38.4577 104.889 39.8956 105.226 41.3164 105.614C43.4753 106.199 45.6684 106.647 47.8614 107.086C48.2028 107.154 48.399 107.09 48.527 106.762C48.6294 106.497 48.7787 106.25 48.9195 106.002C49.1414 105.606 49.1073 105.533 48.6465 105.473C47.3238 105.298 46.0139 105.06 44.7254 104.718C41.2865 103.805 38.0694 102.431 35.3089 100.123C32.0577 97.4009 30.1889 93.9278 29.7025 89.7123C29.519 88.1166 29.5702 86.5166 29.711 84.9166C29.7196 84.8228 29.711 84.7246 29.8091 84.6563C29.9713 84.6777 29.967 84.8313 30.0097 84.9337C31.2171 87.9203 32.9622 90.5785 34.9889 93.0574C37.9201 96.6457 41.4017 99.5897 45.4123 101.902C46.8587 102.734 48.3563 103.455 49.9051 104.078C50.1739 104.185 50.383 104.206 50.6433 104.001C53.5617 101.719 57.2694 101.744 60.1537 104.074C60.4268 104.296 60.5675 104.164 60.7595 104.014C62.0779 102.965 63.5798 102.372 65.2694 102.325C67.0614 102.273 68.6785 102.811 70.095 103.916C70.4065 104.159 70.607 104.176 70.9441 103.916C73.7643 101.736 77.5873 101.796 80.3094 104.048C80.5228 104.228 80.6977 104.257 80.9494 104.155C84.8534 102.581 88.3862 100.405 91.5649 97.6398C94.6283 94.9732 97.2011 91.8969 99.2705 88.4025C99.9019 87.3358 100.474 86.2393 100.93 85.0873C100.986 84.9422 101.058 84.8057 101.148 84.6051C101.391 85.0105 101.344 85.4201 101.365 85.787C101.54 88.5689 101.323 91.2995 100.265 93.9193C99.0699 96.8761 97.1073 99.2142 94.5217 101.036C91.2534 103.34 87.5713 104.599 83.6673 105.281C83.1979 105.362 82.7243 105.418 82.255 105.486C81.8113 105.55 81.7771 105.627 82.0033 106.028C82.0886 106.182 82.1739 106.331 82.2507 106.489C82.6646 107.338 82.5281 107.21 83.3942 107.039C86.6027 106.408 89.7942 105.708 92.9046 104.697C94.1249 104.3 95.2939 103.754 96.4886 103.285C99.6118 102.06 102.799 101.062 106.144 100.648C108.384 100.37 110.633 100.341 112.881 100.481C114.212 100.567 115.535 100.699 116.853 100.887C117.054 100.917 117.25 100.964 117.476 101.113C116.964 101.373 116.452 101.642 115.932 101.889C109.873 104.765 103.469 106.544 96.9366 107.94C94.2657 108.511 91.5734 108.917 88.8556 109.156C87.119 109.309 85.3782 109.429 83.6331 109.365C83.1467 109.348 83.0145 109.514 83.0102 109.988C82.9761 113.981 79.6523 117.249 75.6587 117.279C73.8753 117.292 72.2838 116.784 70.8971 115.666C70.6027 115.428 70.4193 115.457 70.1292 115.684C67.3473 117.838 63.6267 117.842 60.8705 115.684C60.5249 115.415 60.3243 115.419 59.9873 115.679C57.6705 117.441 55.1361 117.753 52.4438 116.699C49.7857 115.658 47.9083 112.876 47.887 110.009C47.887 109.565 47.8102 109.352 47.2939 109.356C41.8881 109.407 36.5931 108.567 31.3451 107.325C26.8011 106.254 22.3254 104.961 17.999 103.182C16.591 102.602 15.2086 101.962 13.8476 101.279C13.7366 101.224 13.6129 101.19 13.5148 100.998ZM55.0422 108.306C54.846 108.55 54.6241 108.55 54.4364 108.601C52.7766 109.053 51.0742 109.202 49.3675 109.335C48.7446 109.386 48.719 109.437 48.7702 110.069C48.911 111.848 49.5852 113.358 50.8908 114.608C53.1777 116.793 57.0006 116.968 59.4412 114.967C59.7014 114.753 59.7398 114.596 59.5307 114.305C57.4827 111.447 57.4827 108.097 59.5307 105.286C59.7398 105 59.7227 104.842 59.4454 104.629C57.9435 103.464 56.2411 103.071 54.3851 103.297C53.4123 103.417 52.5163 103.775 51.7014 104.334C51.4412 104.513 51.3942 104.646 51.7355 104.765C51.9916 104.855 52.2433 104.953 52.4993 105.03C53.1905 105.239 53.8817 105.439 54.5729 105.644C53.4763 105.819 52.3628 105.87 51.3089 105.695C50.2635 105.52 49.8667 106.024 49.5084 106.783C49.487 106.826 49.47 106.869 49.4444 106.911C49.2609 107.197 49.3078 107.364 49.6705 107.419C50.8737 107.611 52.0769 107.82 53.2801 108.021C53.8475 108.114 54.4193 108.208 55.038 108.306H55.0422ZM76.0129 108.311C76.1964 108.277 76.3798 108.234 76.5633 108.204C78.1121 107.948 79.6609 107.692 81.2054 107.432C81.3974 107.398 81.6705 107.398 81.5169 107.065C81.3163 106.634 81.0817 106.22 80.783 105.845C80.6636 105.691 80.5014 105.636 80.3179 105.665C79.3707 105.819 78.4193 105.712 77.4678 105.781C77.1222 105.806 76.7681 105.755 76.4182 105.738C77.3227 105.375 78.2273 105.098 79.1318 104.812C79.2513 104.774 79.422 104.765 79.4475 104.637C79.4817 104.466 79.294 104.42 79.183 104.343C76.9174 102.768 73.7003 102.879 71.5243 104.582C71.2214 104.816 71.2257 104.978 71.439 105.273C73.487 108.068 73.4998 111.519 71.4561 114.301C71.2086 114.638 71.2299 114.83 71.5713 115.065C73.0518 116.097 74.6561 116.562 76.4694 116.306C79.4817 115.888 82.0289 113.303 82.1313 109.864C82.1441 109.501 82.0118 109.36 81.6491 109.33C80.7489 109.262 79.8486 109.185 78.9526 109.07C77.9499 108.942 76.9558 108.772 76.0043 108.311H76.0129ZM65.4998 103.259C63.9851 103.186 62.671 103.72 61.4678 104.594C61.1692 104.812 61.1179 105.004 61.3526 105.333C63.3622 108.157 63.3579 111.468 61.3441 114.288C61.1265 114.591 61.1435 114.749 61.4379 114.98C63.7718 116.831 67.1851 116.84 69.5233 115.005C69.8006 114.788 69.8177 114.647 69.6043 114.357C67.5179 111.524 67.5137 108.119 69.6043 105.252C69.8433 104.923 69.7665 104.765 69.4892 104.569C68.2945 103.711 66.9974 103.191 65.5041 103.259H65.4998ZM72.0662 109.911C72.079 108.388 71.6523 107.116 70.8459 105.968C70.543 105.537 70.5003 105.537 70.1846 105.968C68.5291 108.225 68.559 111.46 70.2315 113.704C70.4534 113.998 70.5942 113.99 70.7947 113.704C71.6225 112.53 72.0833 111.242 72.0662 109.911ZM58.9291 110.145C58.9291 111.229 59.3857 112.646 60.1537 113.653C60.3116 113.862 60.4182 114.032 60.6699 113.7C62.3254 111.506 62.3638 108.208 60.7382 106.002C60.4523 105.614 60.3884 105.618 60.1025 106.032C59.3174 107.172 58.9078 108.43 58.9291 110.141V110.145Z" fill="#151515"/>
<path d="M24.2198 42.8387C24.9281 42.523 25.5169 42.2627 26.1014 41.9982C28.2134 41.0425 30.4065 40.4921 32.7446 40.6158C33.3121 40.6457 33.3505 40.6627 33.1499 41.1833C31.4262 45.6419 28.2518 48.2915 23.4646 48.8931C22.8715 48.9657 22.2614 48.9657 21.6641 48.8547C21.3611 48.7993 21.1905 48.8974 21.0924 49.1961C20.1622 52.1187 19.4113 55.0798 19.134 58.1475C19.023 59.355 19.0486 60.554 19.0657 61.7614C19.07 62.171 19.0059 62.5337 18.7841 62.8878C18.3958 63.5193 18.0417 64.1721 17.6278 64.8889C17.4657 64.5945 17.4529 64.3641 17.4316 64.138C17.2481 61.7572 17.3718 59.3849 17.6321 57.0212C17.9137 54.4484 18.3148 51.8841 19.2534 49.4606C19.5777 48.6201 19.4753 48.1636 18.8097 47.5534C17.2822 46.1497 16.6635 44.2553 16.3948 42.2499C16.0961 40.0526 16.3393 37.915 17.2182 35.867C17.3377 35.5897 17.4998 35.3337 17.6278 35.0649C17.7814 34.7406 17.9478 34.7449 18.1996 34.9881C19.8721 36.6009 21.1393 38.4739 21.8945 40.6798C22.095 41.2558 22.2614 41.8446 22.5515 42.4462C22.7777 41.9342 22.9697 41.4009 23.2385 40.9102C23.5713 40.2915 23.5414 39.7539 23.2769 39.0841C22.0865 36.0505 21.9329 32.9699 23.1532 29.8979C23.6012 28.7673 24.3307 27.8414 25.423 27.2313C25.7985 27.018 26.0246 27.0521 26.2806 27.4275C27.4113 29.0617 27.9019 30.8835 27.9915 32.8419C28.0043 33.0809 28.0001 33.3156 28.0086 33.5545C28.0086 33.5801 28.0385 33.6057 28.0683 33.6612C28.4267 33.4649 28.6017 33.0937 28.8876 32.8377C29.694 32.1209 29.839 31.3187 29.647 30.2307C29.1521 27.4233 29.6086 24.7694 31.4134 22.4441C32.463 21.0915 33.7942 20.0846 35.2449 19.2142C35.5521 19.0307 35.6843 19.0862 35.7398 19.4531C36.0214 21.2195 36.1195 22.9817 35.8209 24.7523C35.791 24.923 35.7654 25.0894 35.7398 25.2558C35.9062 25.3582 36.0043 25.2388 36.0897 25.1662C36.6913 24.6756 37.2161 24.1678 37.519 23.3913C38.6667 20.4387 40.847 18.6382 43.9147 17.883C45.4721 17.499 47.0507 17.4691 48.6422 17.4947C49.0219 17.499 49.103 17.627 49.0134 17.9854C48.1131 21.6334 44.8577 24.6414 41.1542 25.2174C40.3265 25.3454 39.4902 25.4734 38.6497 25.3326C38.1035 25.243 37.6811 25.4009 37.3099 25.8361C36.9558 26.2499 36.5206 26.5955 36.1707 27.0393C36.9985 26.8942 37.7878 26.7449 38.59 26.6937C40.2881 26.587 41.9819 26.5742 43.646 27.0137C43.663 27.0137 43.6758 27.0222 43.6929 27.0265C44.5547 27.2782 44.6017 27.3977 44.1068 28.1529C42.767 30.1838 40.7745 31.2718 38.5302 31.9673C36.1068 32.7182 33.6193 32.8931 31.0977 32.6926C30.9313 32.6798 30.7734 32.6713 30.6582 32.8078C30.2998 33.243 29.9457 33.6825 29.6427 34.2201C30.0182 34.1518 30.3937 34.0835 30.7734 34.0238C32.4417 33.7593 34.1185 33.6654 35.7953 33.8617C36.5334 33.947 36.5761 34.0793 36.2305 34.7534C34.9846 37.1897 32.9963 38.7811 30.4748 39.7454C28.9174 40.3427 27.2918 40.603 25.6321 40.6414C25.2609 40.6499 25.0433 40.7737 24.9153 41.1193C24.7147 41.6611 24.4886 42.1987 24.2283 42.8558L24.2198 42.8387Z" fill="#151515"/>
<path d="M95.2769 25.2814C94.9782 24.0782 94.9654 22.8793 95.0038 21.6761C95.0294 20.9166 95.1403 20.1614 95.2513 19.4105C95.3025 19.0649 95.439 19.0222 95.7249 19.1886C98.7286 20.955 100.964 23.3017 101.429 26.9284C101.604 28.3022 101.549 29.6846 101.229 31.0414C101.126 31.4724 101.19 31.8052 101.506 32.1124C102.001 32.5902 102.338 33.226 102.974 33.7124C103.017 33.0382 103 32.4452 103.072 31.8521C103.273 30.2137 103.802 28.7118 104.749 27.355C104.975 27.035 105.184 27.0094 105.5 27.1844C107.014 28.0206 107.804 29.386 108.222 30.9817C108.981 33.8873 108.755 36.7374 107.548 39.4937C107.398 39.8308 107.394 40.1038 107.552 40.4366C107.864 41.0894 108.132 41.7636 108.457 42.506C108.67 42.186 108.704 41.9001 108.777 41.6356C109.489 39.067 110.825 36.874 112.732 35.018C113.03 34.7278 113.188 34.7364 113.393 35.1118C114.485 37.1129 114.822 39.2633 114.66 41.5076C114.541 43.1716 114.136 44.7588 113.257 46.2052C112.821 46.9177 112.301 47.5492 111.64 48.0612C111.396 48.2489 111.349 48.4324 111.465 48.714C112.574 51.4788 113.052 54.3844 113.376 57.3241C113.551 58.9156 113.641 60.5156 113.632 62.1156C113.628 62.9945 113.615 63.8862 113.453 64.7566C113.248 64.8035 113.218 64.6457 113.163 64.5518C112.77 63.882 112.39 63.2035 111.998 62.5337C111.913 62.3886 111.904 62.235 111.913 62.0771C112.164 57.6654 111.251 53.4372 109.916 49.2729C109.813 48.9529 109.664 48.8078 109.301 48.8462C106.383 49.162 103.827 48.2532 101.549 46.474C99.7868 45.1001 98.6049 43.2996 97.8369 41.2174C97.6321 40.667 97.6662 40.65 98.2507 40.6158C100.93 40.4665 103.384 41.2558 105.76 42.3908C106.046 42.5273 106.315 42.7022 106.746 42.7833C106.447 42.0793 106.191 41.4308 105.897 40.7993C105.794 40.5774 105.538 40.6414 105.338 40.6329C103.665 40.5646 102.022 40.3214 100.452 39.707C97.9179 38.7214 95.9382 37.1001 94.7051 34.6382C94.4278 34.0878 94.4875 33.9428 95.1105 33.8574C96.5782 33.6612 98.0545 33.7294 99.5179 33.9086C100.124 33.9854 100.73 34.1006 101.412 34.1177C101.037 33.6612 100.666 33.2046 100.282 32.7524C100.179 32.6329 100.021 32.6628 99.8764 32.6756C97.3249 32.8761 94.8033 32.7012 92.3542 31.9161C90.1313 31.2036 88.1558 30.1198 86.8459 28.0846C86.7862 27.9908 86.735 27.8926 86.671 27.7988C86.4491 27.4745 86.5558 27.2825 86.8971 27.1502C87.8273 26.7876 88.8043 26.6724 89.7857 26.6382C91.4966 26.5785 93.2033 26.5956 94.9228 27.1673C94.3169 26.5444 93.775 25.9726 93.2161 25.418C93.0412 25.243 92.7937 25.2942 92.5761 25.3156C90.9846 25.482 89.4358 25.2729 87.9553 24.6884C84.8278 23.451 82.895 21.1342 81.9564 17.9428C81.8881 17.7038 81.8667 17.5033 82.2209 17.4905C84.6827 17.4137 87.1105 17.563 89.359 18.7278C91.4667 19.8201 92.8235 21.5524 93.6086 23.7625C93.7921 24.2788 94.6838 25.1236 95.2598 25.2857L95.2769 25.2814Z" fill="#151515"/>
<path d="M9.18408 59.402C10.0161 64.0228 11.8806 68.2766 13.775 72.5177C15.631 76.6777 17.6918 80.7353 19.8038 84.7673C21.5489 88.0953 23.358 91.3892 25.1926 94.6702C25.2609 94.794 25.3676 94.9006 25.3548 95.0798C25.167 95.1609 25.0305 95.0243 24.8897 94.9518C23.1745 94.0686 21.6086 92.9636 20.1665 91.6878C17.1713 89.0297 14.8801 85.8382 13.118 82.2627C11.0913 78.1582 9.86675 73.8105 9.31635 69.2665C9.04328 67.0137 8.90248 64.7523 8.96222 62.4825C8.98782 61.4542 9.01342 60.4259 9.18408 59.402Z" fill="#151515"/>
<path d="M105.658 95.1139C105.606 94.9475 105.688 94.8622 105.739 94.7683C107.846 90.9881 109.929 87.195 111.917 83.3465C114.677 78.0046 117.348 72.6244 119.541 67.018C120.493 64.5774 121.346 62.1028 121.743 59.5001C121.747 59.4617 121.773 59.4233 121.828 59.2996C122.016 61.2665 122.097 63.1481 122.012 65.034C121.918 67.1076 121.734 69.1726 121.385 71.2249C120.8 74.651 119.832 77.9577 118.402 81.1278C117.229 83.7305 115.765 86.1539 113.973 88.3726C111.84 91.0179 109.327 93.2196 106.323 94.8366C106.118 94.9476 105.922 95.0926 105.649 95.1182L105.658 95.1139Z" fill="#151515"/>
<path d="M117.852 46.3545C117.737 47.3785 117.647 48.2915 117.528 49.1961C117.289 51.0222 117.139 52.8569 117.118 54.6915C117.101 56.3726 117.327 58.0409 117.587 59.7006C118.419 65.0169 117.656 70.1241 115.492 75.0308C114.182 78.0004 112.437 80.6883 110.21 83.0606C110.108 83.1715 110.027 83.3209 109.788 83.3635C110.014 82.7406 110.21 82.1433 110.441 81.5588C112.002 77.5268 112.932 73.3454 113.474 69.0617C113.726 67.0606 113.824 65.0553 113.948 63.0457C114.178 59.3636 114.293 55.6643 115.078 52.0377C115.454 50.3054 115.979 48.6329 117.028 47.1694C117.229 46.8878 117.442 46.6147 117.852 46.3459V46.3545Z" fill="#151515"/>
<path d="M21.1862 83.3081C20.4353 82.7876 19.8806 82.1006 19.3388 81.4051C16.0108 77.1513 13.9372 72.3598 13.2587 66.9881C12.9089 64.1977 13.0796 61.4244 13.5532 58.6596C13.9286 56.4793 13.9158 54.2777 13.7409 52.0761C13.5958 50.2585 13.374 48.4494 13.1606 46.6404C13.1521 46.5806 13.1777 46.5209 13.1905 46.4185C13.5574 46.602 13.7622 46.8963 13.967 47.1865C14.9995 48.6201 15.5244 50.2627 15.8956 51.9609C16.3948 54.2435 16.6294 56.5604 16.7745 58.8857C16.9622 61.8596 17.0774 64.8377 17.3675 67.7987C17.8625 72.8249 18.9718 77.7187 20.8577 82.4206C20.9729 82.715 21.0753 83.0137 21.1862 83.3081Z" fill="#151515"/>
<path d="M95.3366 101.732C105.21 92.379 108.444 80.9444 106.49 67.7646C106.707 67.914 106.793 68.1273 106.899 68.3236C108.051 70.4441 108.64 72.7481 108.977 75.1118C109.664 79.8862 109.254 84.571 107.659 89.1278C106.127 93.4926 103.58 97.1619 100.051 100.157C99.9318 100.26 99.791 100.349 99.6459 100.396C98.3062 100.84 96.9622 101.271 95.6182 101.702C95.5627 101.719 95.4987 101.714 95.3323 101.732H95.3366Z" fill="#151515"/>
<path d="M35.6246 101.702C35.3345 101.714 35.1169 101.621 34.8993 101.548C33.9478 101.245 33.0049 100.908 32.0449 100.639C31.3835 100.452 30.8374 100.114 30.3382 99.658C25.7387 95.4468 23.0337 90.2371 22.0609 84.0974C21.7409 82.0835 21.6043 80.0612 21.7195 78.0345C21.9073 74.6894 22.4662 71.4212 24.0449 68.4003C24.1601 68.1827 24.2668 67.9524 24.4972 67.7262C22.543 80.9358 25.7686 92.3833 35.6246 101.706V101.702Z" fill="#151515"/>
<path d="M29.2459 112.744C30.5515 112.799 31.7377 112.804 32.9153 112.906C34.2294 113.017 35.5478 112.991 36.8619 112.996C39.5414 113.008 42.2209 112.97 44.8619 112.402C45.6214 112.24 46.3809 112.057 47.0806 111.703C47.3878 111.549 47.4987 111.639 47.567 111.946C47.8273 113.094 48.3265 114.135 49.0774 115.039C49.3462 115.359 49.2609 115.509 48.9537 115.696C47.2598 116.746 45.4678 117.578 43.5947 118.256C41.8881 118.875 40.1387 119.319 38.334 119.524C37.9158 119.57 37.5915 119.506 37.263 119.186C34.8822 116.848 32.3905 114.642 29.4977 112.94C29.4465 112.91 29.3995 112.863 29.2417 112.744H29.2459Z" fill="#151515"/>
<path d="M101.643 112.816C101.024 113.217 100.401 113.61 99.7953 114.028C97.6107 115.538 95.6353 117.296 93.7494 119.161C93.4337 119.472 93.1137 119.583 92.6913 119.528C88.8811 119.054 85.391 117.697 82.1142 115.739C81.6236 115.445 81.6278 115.432 81.9905 114.967C82.6774 114.075 83.1638 113.085 83.4241 111.989C83.4838 111.741 83.5179 111.519 83.8806 111.69C85.3867 112.39 87.0081 112.599 88.6294 112.782C91.5692 113.115 94.5174 112.987 97.4657 112.953C98.8523 112.936 100.239 112.812 101.621 112.74C101.63 112.765 101.638 112.795 101.647 112.821L101.643 112.816Z" fill="#151515"/>
<path d="M65.4913 55.3187C62.6326 55.3187 60.2475 52.9508 60.2603 50.122C60.2731 47.2334 62.6241 44.8782 65.4956 44.8782C68.35 44.8782 70.6924 47.2078 70.7222 50.0793C70.7521 52.9294 68.367 55.3187 65.487 55.3187H65.4913Z" fill="#151515"/>
<path d="M122.443 78.6404C122.323 79.4809 122.046 80.266 121.773 81.0553C120.186 85.6121 118.15 89.9513 115.403 93.9321C114.157 95.7369 112.783 97.4308 111.046 98.8089C110.449 99.2825 109.813 99.5129 109.054 99.5683C107.177 99.7091 105.304 99.9139 103.426 100.085C102.726 100.149 102.027 100.255 101.178 100.234C109.958 94.5849 117.203 87.6089 122.447 78.6404H122.443Z" fill="#151515"/>
<path d="M8.56542 78.5678C13.7793 87.5961 21.0283 94.5849 29.6683 100.264C28.7297 100.183 27.791 100.11 26.8523 100.021C25.0091 99.8457 23.166 99.6494 21.3185 99.483C20.4822 99.4062 19.9617 98.8217 19.4028 98.3353C17.167 96.3854 15.4945 93.9748 13.9926 91.4446C11.6758 87.5406 9.88808 83.402 8.57822 79.0542C8.53982 78.9262 8.45022 78.794 8.56542 78.5721V78.5678Z" fill="#151515"/>
<path d="M19.9446 77.7102C19.8251 77.322 19.6929 76.9337 19.582 76.5412C18.8524 73.9214 18.3233 71.2718 18.2635 68.5412C18.255 68.2425 18.2251 67.9396 18.191 67.6409C18.0502 66.4206 18.4001 65.3027 18.8438 64.1849C20.1494 60.8953 21.5489 57.6484 23.4945 54.6745C24.8598 52.5881 26.4299 50.6937 28.6017 49.3838C28.7638 49.2857 28.9131 49.1619 29.1222 49.1619C29.2246 49.3412 29.0881 49.4649 29.0198 49.5929C26.5665 54.2094 24.4161 58.954 22.8161 63.9374C21.4934 68.042 20.5804 72.2276 20.1835 76.5241C20.1494 76.9124 20.0982 77.3049 20.0556 77.6932C20.0172 77.7017 19.983 77.706 19.9446 77.7145V77.7102Z" fill="#151515"/>
<path d="M110.982 77.706C110.168 67.4788 106.558 58.1646 101.749 49.179C102.133 49.1534 102.351 49.3497 102.577 49.4905C104.019 50.395 105.197 51.5897 106.238 52.9209C108.307 55.5662 109.788 58.5486 111.089 61.6206C111.644 62.9348 112.143 64.2745 112.664 65.6014C112.924 66.2628 112.813 66.954 112.787 67.6281C112.702 69.7828 112.523 71.9289 112.041 74.0409C111.759 75.274 111.435 76.4985 110.987 77.7102L110.982 77.706Z" fill="#151515"/>
<path d="M71.6822 126.192C67.535 124.712 63.439 124.716 59.2235 126.354C59.6459 125.778 59.9915 125.348 60.2859 124.887C61.2715 123.338 61.5574 121.593 61.6726 119.805C61.7195 119.08 61.7323 118.35 61.8475 117.629C61.9073 117.254 62.0566 117.168 62.4278 117.322C64.4929 118.184 66.5665 118.158 68.623 117.301C68.9388 117.168 69.0625 117.262 69.1179 117.561C69.2587 118.312 69.263 119.071 69.3099 119.831C69.4422 121.99 69.8987 124.042 71.3238 125.761C71.4433 125.906 71.5585 126.052 71.6737 126.197L71.6822 126.192Z" fill="#151515"/>
<path d="M72.0278 116.972C72.9025 117.394 73.7046 117.723 74.575 117.842C75.966 118.034 77.3227 117.941 78.6412 117.437C78.8673 117.352 79.0721 117.254 79.2854 117.488C80.271 118.593 81.6107 119.114 82.9334 119.647C84.0043 120.078 85.1051 120.445 86.1889 120.846C86.3041 120.889 86.4363 120.906 86.5131 121.021C86.5174 121.162 86.4022 121.158 86.3169 121.175C83.8465 121.712 81.6449 122.766 79.8443 124.571C79.5969 124.818 79.439 124.69 79.2555 124.507C78.1035 123.351 76.943 122.199 75.791 121.047C74.7158 119.972 73.6406 118.896 72.5611 117.821C72.3478 117.608 72.1473 117.39 72.0235 116.976L72.0278 116.972Z" fill="#151515"/>
<path d="M58.9334 117.083C58.8822 117.335 58.7243 117.522 58.5451 117.697C56.2795 119.959 54.0139 122.22 51.7483 124.486C51.5521 124.682 51.3942 124.823 51.1254 124.554C49.3803 122.813 47.2641 121.759 44.879 121.217C44.7467 121.188 44.5889 121.196 44.4651 121.03C44.6486 120.872 44.8748 120.821 45.0881 120.748C46.6582 120.198 48.2326 119.652 49.7259 118.909C50.4427 118.555 51.1169 118.145 51.6502 117.54C51.8166 117.352 51.9788 117.288 52.2347 117.386C54.4235 118.214 56.5782 118.128 58.6902 117.113C58.7585 117.079 58.8225 117.019 58.9377 117.083H58.9334Z" fill="#151515"/>
<path d="M51.6758 114.28C51.4923 114.305 51.3772 114.224 51.2747 114.126C50.7798 113.648 50.3915 113.094 50.1057 112.471C49.999 112.236 50.0331 112.095 50.3318 112.142C52.0769 112.407 53.8348 112.266 55.5884 112.309C55.7377 112.309 55.9681 112.228 56.0193 112.39C56.0833 112.586 55.8358 112.65 55.7078 112.748C54.5004 113.636 53.0582 113.909 51.6801 114.284L51.6758 114.28Z" fill="#151515"/>
<path d="M74.9334 112.368C75.1595 112.266 75.3686 112.313 75.5692 112.304C77.2588 112.262 78.9526 112.407 80.6337 112.142C80.8982 112.1 81.0049 112.181 80.8854 112.449C80.8214 112.594 80.7489 112.735 80.6721 112.872C79.9041 114.28 79.6779 114.378 78.159 113.977C77.1435 113.708 76.158 113.384 75.2961 112.757C75.1596 112.658 74.9846 112.594 74.9292 112.364L74.9334 112.368Z" fill="#151515"/>
<path d="M65.4913 115.713C64.591 115.666 63.7121 115.479 62.8929 115.061C62.607 114.916 62.5302 114.753 62.6966 114.459C63.5201 113.013 63.6779 111.396 63.8657 109.791C64.0406 108.328 64.1003 106.856 64.0662 105.38C64.0577 104.983 64.2241 104.846 64.6038 104.863C65.1883 104.885 65.7772 104.889 66.3617 104.863C66.7798 104.846 66.9206 105.013 66.9121 105.418C66.8779 107.146 66.9633 108.87 67.2065 110.585C67.3985 111.937 67.5947 113.286 68.303 114.493C68.4651 114.77 68.3585 114.92 68.1025 115.056C67.2833 115.483 66.4086 115.666 65.487 115.718L65.4913 115.713Z" fill="#151515"/>
</svg>
