<svg width="24" height="24" viewBox="0 0 24 24" fill="none" xmlns="http://www.w3.org/2000/svg">
<path d="M17.001 3.7998C17.3876 3.7998 17.7012 4.1134 17.7012 4.5V5.7998H18.001C19.4921 5.7998 20.7012 7.00883 20.7012 8.5V17.5C20.701 18.9911 19.4921 20.2002 18.001 20.2002H6.00098C4.50989 20.2002 3.30091 18.9911 3.30078 17.5V8.5C3.30078 7.00883 4.50981 5.7998 6.00098 5.7998H6.30078V4.5C6.30078 4.1134 6.61438 3.7998 7.00098 3.7998C7.38758 3.7998 7.70117 4.1134 7.70117 4.5V5.7998H16.3008V4.5C16.3008 4.1134 16.6144 3.7998 17.001 3.7998ZM4.70117 17.5C4.7013 18.2179 5.28309 18.7998 6.00098 18.7998H18.001C18.7189 18.7998 19.3006 18.2179 19.3008 17.5V11.2002H5.00098C4.89315 11.2002 4.7924 11.1725 4.70117 11.1289V17.5ZM6.00098 7.2002C5.28301 7.2002 4.70117 7.78203 4.70117 8.5V9.87012C4.79233 9.82665 4.89326 9.7998 5.00098 9.7998H19.3008V8.5C19.3008 7.78203 18.7189 7.2002 18.001 7.2002H6.00098Z" fill="#F9F9F9"/>
</svg>
