<svg width="24" height="24" viewBox="0 0 24 24" fill="none" xmlns="http://www.w3.org/2000/svg">
<path d="M13.6836 15.9724C13.957 16.2457 13.9569 16.6892 13.6836 16.9626L12.045 18.6013C11.6188 19.0274 11.11 19.3623 10.5489 19.5866C9.98779 19.8109 9.38551 19.9204 8.77738 19.9099C7.54979 19.8885 6.37013 19.3805 5.49418 18.5046C4.61851 17.6288 4.11128 16.4497 4.08988 15.2224C4.06861 13.9936 4.53701 12.8163 5.39847 11.9548L7.03715 10.3151C7.31051 10.042 7.75407 10.0419 8.02738 10.3151C8.30069 10.5885 8.30058 11.032 8.02738 11.3054L6.38773 12.945C5.80037 13.5326 5.47448 14.3414 5.4893 15.198C5.50424 16.0558 5.86018 16.8911 6.48441 17.5153C7.10869 18.1396 7.94396 18.4946 8.8018 18.5095C9.22619 18.5168 9.64332 18.4411 10.0293 18.2868C10.4153 18.1325 10.7634 17.9023 11.0547 17.611L12.6944 15.9724L12.8037 15.8825C13.0754 15.7032 13.4444 15.7333 13.6836 15.9724ZM14.9707 9.02999C15.2441 9.30332 15.244 9.74685 14.9707 10.0202L10.0215 14.9694C9.74815 15.2428 9.30465 15.2428 9.03129 14.9694C8.75798 14.6961 8.75794 14.2526 9.03129 13.9792L13.9815 9.02999C14.2548 8.75688 14.6974 8.75677 14.9707 9.02999ZM19.9102 8.77706C19.9207 9.38518 19.8112 9.98748 19.587 10.5485C19.3626 11.1097 19.0277 11.6185 18.6016 12.0446L16.9629 13.6833L16.8526 13.7732C16.5809 13.9526 16.2119 13.9225 15.9727 13.6833C15.6995 13.4099 15.6994 12.9674 15.9727 12.6941L17.6114 11.0544C17.9026 10.7631 18.1329 10.415 18.2871 10.029C18.4414 9.64301 18.5172 9.22586 18.5098 8.80148C18.5024 8.37704 18.4118 7.95344 18.2412 7.55538C18.0707 7.15729 17.8244 6.79282 17.5157 6.48409C17.207 6.17539 16.8424 5.92911 16.4444 5.75851C16.0464 5.58797 15.6227 5.49639 15.1983 5.48898C14.7739 5.48162 14.3567 5.55837 13.9707 5.71261C13.585 5.86682 13.2366 6.09632 12.9454 6.38741L11.3057 8.02706C11.0323 8.30039 10.5888 8.30041 10.3155 8.02706C10.0422 7.7537 10.0422 7.31018 10.3155 7.03683L11.9551 5.39816C12.3813 4.97201 12.8901 4.63712 13.4512 4.4128C14.0122 4.18859 14.6146 4.07902 15.2227 4.08956C15.8306 4.10018 16.4335 4.23033 16.9961 4.4714C17.5585 4.71245 18.071 5.06005 18.5049 5.49386C18.939 5.92791 19.2872 6.44095 19.5284 7.00362C19.7695 7.56631 19.8996 8.16902 19.9102 8.77706Z" fill="#464747"/>
</svg>
